<svg xmlns="http://www.w3.org/2000/svg" xmlns:xlink="http://www.w3.org/1999/xlink" width="21.43994140625" height="3.780029296875" viewBox="0 0 21.43994140625 3.780029296875" fill="none">
<g  clip-path="url(#clip-path-w6r8CpBVgSKlCn3dRDxA-)">
<path   fill-rule="evenodd"  fill="#000000"  d="M13.79 1.00001L15.16 1.00001L15.16 3.77001L16.57 3.77001L16.57 1.00001L17.93 1.00001L17.93 3.77001L19.36 3.77001L19.36 1.08001C19.363 1.04389 19.3641 1.00772 19.3632 0.97149C19.3623 0.935258 19.3594 0.899182 19.3546 0.863261C19.3497 0.827341 19.343 0.791789 19.3343 0.756604C19.3256 0.721419 19.315 0.686809 19.3026 0.652774C19.2901 0.618739 19.2759 0.58548 19.2598 0.552997C19.2437 0.520513 19.2259 0.488996 19.2064 0.458447C19.1869 0.427898 19.1658 0.398495 19.1431 0.37024C19.1204 0.341985 19.0962 0.315043 19.0706 0.289415C19.045 0.263787 19.0181 0.239624 18.9898 0.216925C18.9615 0.194226 18.9321 0.173126 18.9016 0.153625C18.871 0.134123 18.8395 0.116335 18.807 0.10026C18.7745 0.0841851 18.7413 0.0699184 18.7072 0.0574598C18.6732 0.0450011 18.6386 0.034424 18.6034 0.0257286C18.5682 0.0170331 18.5326 0.0102704 18.4967 0.00544061C18.4608 0.000610766 18.4248 -0.0022578 18.3885 -0.00316508C18.3523 -0.00407236 18.3161 -0.00301301 18.28 1.29561e-05L12.36 1.29561e-05L12.36 3.77001L13.78 3.77001C13.78 2.77001 13.78 1.89001 13.78 0.950013">
</path>
<path d="M10.6601 3.78002C10.6964 3.78344 10.7328 3.78486 10.7693 3.78429C10.8057 3.78372 10.8421 3.78116 10.8783 3.77661C10.9144 3.77207 10.9502 3.76557 10.9858 3.7571C11.0212 3.74864 11.0561 3.73826 11.0905 3.72597C11.1248 3.71369 11.1584 3.69957 11.1912 3.68361C11.224 3.66765 11.2558 3.64995 11.2867 3.63051C11.3175 3.61107 11.3472 3.59001 11.3758 3.56731C11.4043 3.54462 11.4315 3.52044 11.4575 3.49476C11.4834 3.4691 11.5078 3.44209 11.5308 3.41374C11.5537 3.3854 11.575 3.35588 11.5948 3.3252C11.6145 3.29452 11.6325 3.26286 11.6488 3.23021C11.665 3.19757 11.6795 3.16413 11.6921 3.1299C11.7047 3.09567 11.7154 3.06086 11.7242 3.02546C11.733 2.99006 11.7398 2.95429 11.7447 2.91814C11.7495 2.882 11.7524 2.84569 11.7534 2.80923C11.7542 2.77277 11.7531 2.73637 11.7501 2.70002C11.7501 2.16002 11.7501 1.61002 11.7501 1.07002C11.7527 1.03433 11.7533 0.998595 11.7521 0.962826C11.7509 0.927059 11.7477 0.89146 11.7427 0.856031C11.7376 0.820601 11.7307 0.785545 11.7219 0.750861C11.713 0.716177 11.7023 0.682064 11.6899 0.648524C11.6774 0.614983 11.6632 0.582208 11.6472 0.550197C11.6312 0.518187 11.6135 0.487125 11.5942 0.45701C11.5748 0.426896 11.5539 0.397904 11.5315 0.370034C11.509 0.342164 11.4851 0.315575 11.4598 0.290269C11.4345 0.264963 11.4079 0.241084 11.3801 0.218632C11.3522 0.19618 11.3232 0.175285 11.2931 0.155946C11.2629 0.136607 11.2319 0.118936 11.1999 0.102932C11.1679 0.0869281 11.1351 0.0726836 11.1016 0.0601987C11.068 0.0477137 11.0339 0.0370599 10.9993 0.0282375C10.9645 0.019415 10.9295 0.0124745 10.8941 0.00741599C10.8586 0.00235739 10.823 -0.000790152 10.7873 -0.00202667C10.7515 -0.00326319 10.7157 -0.00258158 10.6801 1.81582e-05L6.18005 1.81582e-05L6.18005 0.940018L10.3001 0.940018L10.3001 2.84002L7.61005 2.84002L7.61005 1.55002L6.18005 1.55002L6.18005 3.78002L10.6601 3.78002Z" fill-rule="evenodd"  fill="#000000" >
</path>
<path d="M1.47 2.44L4.05 2.44L4.05 3.77L5.54 3.77L5.54 0L4 0L4 1.52L1.47 1.52L1.47 0L0 0L0 3.77L1.47 3.77L1.47 2.44Z" fill-rule="evenodd"  fill="#000000" >
</path>
<path d="M21.44 0L20 0L20 3.77L21.46 3.77L21.44 0Z" fill-rule="evenodd"  fill="#000000" >
</path>
</g>
<defs>
<clipPath id="clip-path-w6r8CpBVgSKlCn3dRDxA-">
<path d="M0 3.78L21.44 3.78L21.44 0L0 0L0 3.78Z" fill="white"/>
</clipPath>
</defs>
</svg>
