<svg xmlns="http://www.w3.org/2000/svg" xmlns:xlink="http://www.w3.org/1999/xlink" width="12.8199462890625" height="12.989990234375" viewBox="0 0 12.8199462890625 12.989990234375" fill="none">
<g  clip-path="url(#clip-path-Brpv3EqRqw-U_v_WPUf2o)">
<path d="M0 12.92L0 8.62L0.87 8.62L0.87 10.31L2.57 10.31L2.57 8.62L3.43 8.62L3.43 12.92L2.57 12.92L2.57 11L0.87 11L0.87 12.88L0 12.92Z"   fill="#000000" >
</path>
<path d="M4.13001 11.32C4.13228 11.0356 4.20228 10.7689 4.34001 10.52C4.4024 10.396 4.48226 10.2844 4.57959 10.1854C4.67692 10.0864 4.78706 10.0046 4.91001 9.94003C5.03718 9.87087 5.17112 9.81933 5.31184 9.78543C5.45257 9.75151 5.59529 9.73638 5.74 9.74004C5.7931 9.73866 5.84612 9.73998 5.89908 9.744C5.95204 9.74801 6.00467 9.75469 6.05695 9.76404C6.10923 9.77339 6.16091 9.78536 6.21197 9.79996C6.26304 9.81456 6.31324 9.8317 6.36257 9.85139C6.4119 9.87108 6.4601 9.89322 6.50718 9.9178C6.55426 9.94238 6.59998 9.96928 6.64433 9.99851C6.68868 10.0277 6.73144 10.0591 6.7726 10.0926C6.81377 10.1262 6.85313 10.1618 6.89068 10.1993C6.92824 10.2369 6.9638 10.2763 6.99736 10.3174C7.03092 10.3586 7.06231 10.4013 7.09153 10.4457C7.12075 10.4901 7.14766 10.5358 7.17224 10.5828C7.19682 10.6299 7.21896 10.6781 7.23865 10.7274C7.25834 10.7768 7.27548 10.827 7.29008 10.878C7.30468 10.9291 7.31665 10.9808 7.326 11.0331C7.33535 11.0854 7.34203 11.138 7.34604 11.1909C7.35006 11.2439 7.35138 11.297 7.35 11.35C7.35286 11.458 7.34494 11.5651 7.32624 11.6715C7.30754 11.7779 7.27844 11.8813 7.23892 11.9818C7.19941 12.0823 7.15028 12.1778 7.09154 12.2684C7.0328 12.3591 6.96562 12.443 6.89 12.52C6.81598 12.5976 6.73478 12.6668 6.6464 12.7276C6.55802 12.7884 6.46434 12.8394 6.36536 12.8807C6.26639 12.922 6.16423 12.9527 6.05887 12.9728C5.95353 12.9929 5.84724 13.002 5.74 13C5.45595 12.9966 5.18595 12.9333 4.93001 12.81C4.80349 12.7494 4.68977 12.6703 4.58887 12.5728C4.48795 12.4753 4.405 12.3644 4.34001 12.24C4.2654 12.0985 4.21029 11.9498 4.17469 11.7938C4.13909 11.6378 4.12419 11.4799 4.13001 11.32ZM4.98001 11.32C4.9697 11.4481 4.98356 11.5735 5.02159 11.6962C5.05961 11.819 5.11909 11.9302 5.2 12.03C5.21662 12.0495 5.23423 12.068 5.25285 12.0855C5.27147 12.1031 5.29097 12.1196 5.31137 12.135C5.33177 12.1505 5.35295 12.1648 5.37489 12.178C5.39684 12.1912 5.41943 12.2031 5.44267 12.2138C5.46591 12.2245 5.48966 12.2339 5.51392 12.2421C5.53818 12.2503 5.5628 12.2571 5.5878 12.2625C5.6128 12.268 5.63801 12.2721 5.66345 12.2749C5.68889 12.2777 5.71441 12.279 5.74 12.279C5.7656 12.279 5.79111 12.2777 5.81655 12.2749C5.84199 12.2721 5.86721 12.268 5.8922 12.2625C5.9172 12.2571 5.94182 12.2503 5.96608 12.2421C5.99034 12.2339 6.01409 12.2245 6.03733 12.2138C6.06057 12.2031 6.08316 12.1912 6.1051 12.178C6.12706 12.1648 6.14823 12.1505 6.16863 12.135C6.18903 12.1196 6.20854 12.1031 6.22715 12.0855C6.24577 12.068 6.26339 12.0495 6.28 12.03C6.36092 11.9302 6.4204 11.819 6.45842 11.6962C6.49645 11.5735 6.51031 11.4481 6.5 11.32C6.51031 11.192 6.49645 11.0666 6.45842 10.9438C6.4204 10.8211 6.36092 10.7098 6.28 10.61C6.2458 10.5724 6.20807 10.5388 6.16682 10.509C6.12558 10.4793 6.08172 10.4542 6.03522 10.4336C5.98873 10.413 5.94061 10.3975 5.89087 10.387C5.84113 10.3765 5.79084 10.3712 5.74 10.3712C5.68916 10.3712 5.63887 10.3765 5.58913 10.387C5.53939 10.3975 5.49128 10.413 5.44478 10.4336C5.39829 10.4542 5.35442 10.4793 5.31318 10.509C5.27194 10.5388 5.23421 10.5724 5.2 10.61C5.11754 10.7165 5.05896 10.8348 5.02427 10.9648C4.98958 11.095 4.98149 11.2267 5.00001 11.36L4.98001 11.32Z"   fill="#000000" >
</path>
<path d="M7.69995 12.0001L8.52995 11.8701C8.53976 11.943 8.56282 12.0115 8.59913 12.0754C8.63544 12.1394 8.68238 12.1943 8.73995 12.2401C8.87688 12.3291 9.02688 12.3691 9.18995 12.3601C9.36038 12.369 9.52038 12.3323 9.66995 12.2501C9.70427 12.2239 9.73109 12.1915 9.7504 12.1528C9.76971 12.1142 9.77956 12.0733 9.77995 12.0301C9.7837 11.9678 9.7637 11.9145 9.71995 11.8701C9.63753 11.8148 9.54753 11.7782 9.44995 11.7601C9.00577 11.693 8.58244 11.5596 8.17995 11.3601C8.12207 11.3221 8.06984 11.2775 8.02326 11.2263C7.97668 11.1751 7.93722 11.1189 7.90486 11.0577C7.87252 10.9965 7.84831 10.9322 7.83223 10.8649C7.81616 10.7976 7.80873 10.7293 7.80995 10.6601C7.81132 10.5968 7.81941 10.5344 7.83424 10.4729C7.84908 10.4114 7.8703 10.3521 7.89791 10.2952C7.92553 10.2382 7.95889 10.1848 7.99801 10.1351C8.03714 10.0854 8.08112 10.0404 8.12995 10.0001C8.27603 9.89871 8.43491 9.82484 8.60657 9.77849C8.77824 9.73214 8.9527 9.71601 9.12995 9.73009C9.30279 9.71424 9.4743 9.72333 9.64449 9.75737C9.81468 9.7914 9.9765 9.84898 10.13 9.93009C10.2366 10.0042 10.3269 10.0946 10.4009 10.2013C10.4749 10.308 10.5279 10.4243 10.56 10.5501L9.77995 10.6901C9.76824 10.6353 9.74684 10.5846 9.71575 10.5379C9.68466 10.4912 9.64606 10.452 9.59995 10.4201C9.47722 10.3444 9.34389 10.311 9.19995 10.3201C9.0353 10.3084 8.87863 10.3384 8.72995 10.4101C8.70142 10.4289 8.67916 10.4534 8.66317 10.4836C8.64718 10.5138 8.63944 10.546 8.63995 10.5801C8.64567 10.6413 8.67234 10.6913 8.71995 10.7301C8.96718 10.8384 9.22385 10.915 9.48995 10.9601C9.82164 11.0162 10.1283 11.1362 10.41 11.3201C10.4534 11.3588 10.492 11.4019 10.5258 11.4492C10.5596 11.4965 10.5877 11.547 10.6102 11.6006C10.6327 11.6543 10.649 11.7097 10.6591 11.767C10.6691 11.8243 10.6728 11.882 10.67 11.9401C10.6696 12.0106 10.6613 12.0802 10.6452 12.1488C10.629 12.2174 10.6053 12.2833 10.5741 12.3466C10.5429 12.4098 10.505 12.4687 10.4604 12.5234C10.4158 12.578 10.3657 12.6269 10.31 12.6701C10.2316 12.7322 10.148 12.7863 10.0592 12.8324C9.97033 12.8784 9.87794 12.9155 9.78199 12.9438C9.68603 12.9721 9.58826 12.9909 9.48867 13.0004C9.38909 13.0099 9.28952 13.0098 9.18995 13.0001C9.0141 13.0072 8.841 12.9886 8.67067 12.9443C8.50034 12.9 8.3401 12.8319 8.18995 12.7401C8.06436 12.6522 7.95927 12.5444 7.87465 12.4166C7.79004 12.2889 7.7318 12.15 7.69995 12.0001Z"   fill="#000000" >
</path>
<path d="M12.75 9.81002L12.75 10.46L12.19 10.46L12.19 11.72C12.1789 11.8667 12.1789 12.0134 12.19 12.16C12.1999 12.2052 12.2233 12.2419 12.26 12.27C12.3067 12.2802 12.3533 12.2802 12.4 12.27C12.5141 12.2606 12.6241 12.2339 12.73 12.19L12.8 12.83C12.5914 12.9138 12.3747 12.9538 12.15 12.95C12.0111 12.9512 11.8778 12.9245 11.75 12.87C11.6435 12.8338 11.5569 12.7704 11.49 12.68C11.4235 12.5833 11.3835 12.4766 11.37 12.36C11.3559 12.1667 11.3559 11.9734 11.37 11.78L11.37 10.46L11 10.46L11 9.81002L11.38 9.81002L11.38 9.19002L12.2 8.71002L12.2 9.81002L12.75 9.81002Z"   fill="#000000" >
</path>
<path d="M10.81 1.69003C10.8159 1.64089 10.8166 1.59169 10.8121 1.54241C10.8076 1.49313 10.7979 1.44487 10.7831 1.39764C10.7684 1.3504 10.7488 1.30525 10.7244 1.26217C10.7001 1.21908 10.6715 1.17903 10.6387 1.14201C10.6058 1.10498 10.5695 1.07181 10.5296 1.04251C10.4897 1.01319 10.4472 0.988391 10.4021 0.968095C10.357 0.947798 10.3102 0.932461 10.2618 0.922082C10.2134 0.911703 10.1645 0.906514 10.115 0.906513C10.0655 0.906514 10.0166 0.911703 9.96818 0.922082C9.9198 0.932461 9.87304 0.947798 9.8279 0.968095C9.78277 0.988391 9.74027 1.01319 9.70039 1.04251C9.66052 1.07181 9.62416 1.10498 9.59132 1.14201C9.55848 1.17903 9.52989 1.21908 9.50555 1.26217C9.48121 1.30525 9.46165 1.3504 9.44688 1.39764C9.43212 1.44487 9.42247 1.49313 9.41793 1.54241C9.4134 1.59169 9.41409 1.64089 9.41999 1.69003C9.41833 1.77951 9.43397 1.86585 9.4669 1.94906C9.49984 2.03227 9.54754 2.10593 9.60999 2.17003C9.59209 2.22031 9.57177 2.2696 9.54905 2.3179C9.52633 2.3662 9.50131 2.41327 9.47399 2.45913C9.44667 2.50498 9.41719 2.5494 9.38553 2.59238C9.35387 2.63535 9.3202 2.67668 9.28451 2.71637C9.24882 2.75606 9.21128 2.79392 9.17189 2.82994C9.13251 2.86596 9.09147 2.89998 9.04875 2.932C9.00605 2.96401 8.96188 2.99387 8.91625 3.02158C8.87063 3.04928 8.82377 3.07469 8.77566 3.09783C8.72756 3.12095 8.67844 3.14168 8.62831 3.16001C8.57819 3.17834 8.52728 3.19419 8.4756 3.20755C8.42393 3.22091 8.37173 3.23173 8.31899 3.23999C8.26626 3.24825 8.21325 3.25393 8.15996 3.25702C8.10668 3.26011 8.05337 3.2606 8.00003 3.25848C7.9467 3.25636 7.8936 3.25165 7.84072 3.24435C7.78785 3.23705 7.73546 3.22719 7.68354 3.21478C7.63163 3.20236 7.58045 3.18744 7.52999 3.17003C7.39147 3.07925 7.26572 2.97332 7.15274 2.85222C7.03976 2.73112 6.9428 2.59832 6.86185 2.45384C6.78091 2.30935 6.71829 2.15731 6.67401 1.99772C6.62973 1.83813 6.60506 1.67557 6.59999 1.51003C6.66138 1.47342 6.71703 1.42954 6.76694 1.37838C6.81686 1.32722 6.85935 1.2705 6.89443 1.20824C6.92952 1.14596 6.95601 1.08023 6.9739 1.01103C6.9918 0.941833 7.00049 0.8715 6.99999 0.800028C6.99995 0.752898 6.99578 0.706137 6.98747 0.659745C6.97917 0.613353 6.96686 0.568049 6.95054 0.523832C6.93423 0.479615 6.91417 0.437172 6.89035 0.396501C6.86654 0.35583 6.83934 0.317563 6.80876 0.281699C6.77819 0.245834 6.74471 0.212929 6.70831 0.182983C6.67192 0.153037 6.63318 0.126514 6.5921 0.103414C6.55102 0.0803147 6.50823 0.0609961 6.46373 0.0454584C6.41924 0.0299208 6.37373 0.018405 6.3272 0.010911C6.28067 0.00341712 6.23384 6.11909e-05 6.18672 0.000843285C6.1396 0.00162538 6.09291 0.00653337 6.04665 0.0155672C6.00039 0.0246011 5.95529 0.0376209 5.91133 0.0546265C5.86738 0.0716322 5.82526 0.0923601 5.78496 0.11681C5.74467 0.141261 5.70683 0.169055 5.67145 0.200192C5.63608 0.231329 5.60371 0.265327 5.57433 0.302186C5.54496 0.339045 5.51905 0.378194 5.4966 0.419633C5.47415 0.461071 5.4555 0.504157 5.44066 0.548891C5.42583 0.593624 5.41503 0.639312 5.40827 0.685955C5.40151 0.732597 5.39889 0.779471 5.40041 0.826576C5.40193 0.873681 5.40757 0.920288 5.41733 0.966396C5.42709 1.0125 5.44082 1.0574 5.45851 1.10108C5.47621 1.14476 5.49759 1.18656 5.52267 1.22646C5.54776 1.26636 5.57615 1.30375 5.60783 1.33864C5.63952 1.37352 5.67402 1.40536 5.71134 1.43415C5.74866 1.46293 5.78821 1.48823 5.82999 1.51003C5.82932 1.59382 5.82341 1.67724 5.81225 1.76029C5.80109 1.84333 5.78478 1.92536 5.76331 2.00636C5.74185 2.08736 5.71539 2.16669 5.68395 2.24437C5.65251 2.32204 5.61634 2.39744 5.57542 2.47057C5.53451 2.54369 5.48918 2.61397 5.43942 2.6814C5.38968 2.74882 5.3359 2.81287 5.2781 2.87355C5.2203 2.93421 5.15893 2.99102 5.09399 3.04398C5.02905 3.09694 4.96105 3.14562 4.88999 3.19003C4.83952 3.20711 4.78834 3.22172 4.73644 3.23384C4.68455 3.24596 4.63219 3.25555 4.57937 3.26261C4.52655 3.26966 4.47352 3.27414 4.42026 3.27606C4.36701 3.27797 4.31379 3.27731 4.26059 3.27407C4.20741 3.27082 4.1545 3.26501 4.10187 3.25665C4.04924 3.24828 3.99714 3.23739 3.94557 3.22397C3.894 3.21055 3.8432 3.19467 3.79316 3.17634C3.74313 3.158 3.6941 3.13728 3.64607 3.11419C3.59805 3.0911 3.55125 3.06574 3.50567 3.03812C3.46011 3.0105 3.41598 2.98074 3.37329 2.94884C3.33061 2.91694 3.28956 2.88305 3.25015 2.84717C3.21075 2.81129 3.17318 2.7736 3.13742 2.73408C3.10168 2.69456 3.06792 2.65341 3.03615 2.61062C3.00439 2.56783 2.97477 2.52361 2.94729 2.47796C2.91981 2.4323 2.8946 2.38542 2.87166 2.33732C2.84873 2.28922 2.82817 2.24012 2.80999 2.19003C2.87448 2.12317 2.92322 2.04632 2.95622 1.9595C2.98922 1.87266 3.00381 1.78284 2.99999 1.69003C3.0059 1.64089 3.00659 1.59169 3.00205 1.54241C2.99752 1.49313 2.98787 1.44487 2.9731 1.39764C2.95834 1.3504 2.93878 1.30524 2.91444 1.26216C2.8901 1.21908 2.8615 1.17902 2.82866 1.142C2.79582 1.10498 2.75947 1.07181 2.71959 1.0425C2.67972 1.01319 2.63722 0.988389 2.59208 0.968092C2.54695 0.947796 2.50019 0.932458 2.4518 0.922079C2.40342 0.9117 2.35448 0.906511 2.30499 0.906511C2.25551 0.906511 2.20657 0.9117 2.15818 0.922079C2.1098 0.932458 2.06304 0.947796 2.0179 0.968092C1.97277 0.988389 1.93027 1.01319 1.89039 1.0425C1.85052 1.07181 1.81416 1.10498 1.78132 1.142C1.74848 1.17902 1.71989 1.21908 1.69554 1.26216C1.6712 1.30524 1.65165 1.3504 1.63688 1.39764C1.62212 1.44487 1.61247 1.49313 1.60793 1.54241C1.6034 1.59169 1.60409 1.64089 1.60999 1.69003C1.60964 1.73179 1.61305 1.77324 1.62021 1.81438C1.62738 1.85552 1.63819 1.89567 1.65265 1.93485C1.66712 1.97403 1.68499 2.01158 1.70626 2.04752C1.72754 2.08345 1.75189 2.11717 1.77929 2.14868C1.80669 2.18019 1.83671 2.20898 1.86933 2.23505C1.90197 2.26111 1.93668 2.28402 1.97346 2.30378C2.01026 2.32354 2.04852 2.33982 2.08826 2.35264C2.12801 2.36545 2.16859 2.37458 2.20999 2.38003L3.00999 5.32003L9.39999 5.32003L10.2 2.38003C10.2417 2.37463 10.2825 2.36555 10.3225 2.35281C10.3625 2.34006 10.401 2.32385 10.4381 2.30417C10.4752 2.28448 10.5103 2.26164 10.5433 2.23565C10.5762 2.20966 10.6066 2.18094 10.6345 2.14948C10.6623 2.11801 10.6871 2.08432 10.7088 2.0484C10.7305 2.01248 10.7489 1.9749 10.7639 1.93568C10.7789 1.89645 10.7903 1.8562 10.798 1.81493C10.8057 1.77365 10.8097 1.73202 10.81 1.69003Z"   fill="#000000" >
</path>
<path d="M9.79005 6.57001C9.79005 6.60416 9.78672 6.63798 9.78006 6.67146C9.7734 6.70495 9.76354 6.73747 9.75047 6.76901C9.7374 6.80055 9.72138 6.83052 9.70241 6.85891C9.68344 6.8873 9.66189 6.91357 9.63775 6.93771C9.6136 6.96185 9.58734 6.98341 9.55895 7.00237C9.53056 7.02135 9.50059 7.03737 9.46905 7.05043C9.4375 7.0635 9.40499 7.07336 9.3715 7.08002C9.33801 7.08668 9.3042 7.09001 9.27005 7.09001L3.18005 7.09001C3.14633 7.08937 3.11299 7.08547 3.08002 7.07833C3.04706 7.0712 3.0151 7.06095 2.98412 7.04759C2.95316 7.03424 2.92377 7.01803 2.89595 6.99895C2.86814 6.97987 2.84242 6.9583 2.8188 6.93422C2.79519 6.91014 2.77412 6.88401 2.75558 6.85583C2.73705 6.82765 2.72141 6.79795 2.70865 6.76672C2.69591 6.7355 2.68628 6.70334 2.67978 6.67024C2.67329 6.63715 2.67005 6.60374 2.67005 6.57001C2.6658 6.53409 2.66537 6.49813 2.66876 6.46212C2.67216 6.42612 2.6793 6.39087 2.6902 6.35637C2.7011 6.32189 2.7155 6.28893 2.7334 6.2575C2.75131 6.22608 2.77232 6.19689 2.79643 6.16993C2.82055 6.14298 2.84724 6.11886 2.87648 6.09758C2.90573 6.07631 2.93689 6.05835 2.96996 6.04369C3.00303 6.02905 3.03727 6.01804 3.07268 6.01068C3.1081 6.00332 3.14389 5.99976 3.18005 6.00001L9.27005 6.00001C9.3042 6.00001 9.33801 6.00334 9.3715 6.01C9.40499 6.01666 9.4375 6.02653 9.46905 6.03959C9.50059 6.05266 9.53056 6.06868 9.55895 6.08765C9.58734 6.10662 9.6136 6.12817 9.63775 6.15231C9.66189 6.17646 9.68344 6.20273 9.70241 6.23111C9.72138 6.25951 9.7374 6.28947 9.75047 6.32101C9.76354 6.35256 9.7734 6.38508 9.78006 6.41856C9.78672 6.45205 9.79005 6.48587 9.79005 6.52001L9.79005 6.57001Z"   fill="#000000" >
</path>
</g>
<defs>
<clipPath id="clip-path-Brpv3EqRqw-U_v_WPUf2o">
<path d="M0 12.99L12.82 12.99L12.82 0L0 0L0 12.99Z" fill="white"/>
</clipPath>
</defs>
</svg>
