<svg xmlns="http://www.w3.org/2000/svg" xmlns:xlink="http://www.w3.org/1999/xlink" width="30.8900146484375" height="13.21002197265625" viewBox="0 0 30.8900146484375 13.21002197265625" fill="none">
<g  clip-path="url(#clip-path-0FzMTQA-pdhq1H9y8xRuz)">
<path   fill-rule="evenodd"  fill="#000000"  d="M20.23 4.34003L20.23 5.15003L17.15 5.15003C17.1934 4.8405 17.2934 4.5505 17.45 4.28003C17.7455 3.87896 18.0788 3.51229 18.45 3.18003C18.7144 2.95346 18.9544 2.70346 19.17 2.43003C19.2797 2.26658 19.3397 2.08658 19.35 1.89003C19.3524 1.80852 19.3407 1.72909 19.3149 1.65174C19.2891 1.57438 19.2508 1.50381 19.2 1.44003C19.138 1.3889 19.0693 1.34961 18.9938 1.32215C18.9183 1.2947 18.8404 1.28066 18.76 1.28003C18.6787 1.2803 18.6001 1.29508 18.5243 1.32438C18.4485 1.35368 18.3804 1.39556 18.32 1.45003C18.2046 1.61523 18.1446 1.79856 18.14 2.00003L17.26 1.91003C17.276 1.7185 17.3262 1.53645 17.4108 1.36387C17.4954 1.19128 17.6084 1.04 17.75 0.910029C17.8985 0.811034 18.0577 0.734347 18.2276 0.679966C18.3976 0.625586 18.5717 0.595607 18.75 0.590029C18.9448 0.585793 19.1342 0.615498 19.3182 0.679145C19.5022 0.742792 19.6695 0.83642 19.82 0.960029C19.9399 1.08181 20.0335 1.22123 20.1007 1.37828C20.1681 1.53533 20.2045 1.69925 20.21 1.87003C20.2062 2.07282 20.1696 2.26949 20.1 2.46003C20.0022 2.6671 19.8822 2.86044 19.74 3.04003C19.5618 3.24808 19.3718 3.44474 19.17 3.63003C18.75 4.01003 18.64 4.13003 18.64 4.13003C18.5736 4.20873 18.5136 4.29206 18.46 4.38003L20.23 4.34003ZM21 4.28003L21.88 4.28003L21.88 5.15003L21 5.15003L21 4.28003ZM24.08 0.550029C24.1754 0.553268 24.2695 0.566267 24.3622 0.589027C24.455 0.611787 24.5444 0.643822 24.6304 0.685133C24.7164 0.726444 24.7973 0.77615 24.8731 0.834251C24.9489 0.892353 25.0178 0.957612 25.08 1.03003C25.2332 1.31576 25.3478 1.61617 25.424 1.93124C25.5002 2.24631 25.5356 2.56591 25.53 2.89003C25.554 3.2175 25.5276 3.54086 25.4507 3.8601C25.3739 4.17934 25.2504 4.47932 25.08 4.76003C25.0161 4.82998 24.946 4.89305 24.8696 4.94925C24.7934 5.00545 24.7123 5.05371 24.6265 5.09402C24.5408 5.13433 24.4519 5.16592 24.3599 5.18881C24.268 5.2117 24.1747 5.22544 24.08 5.23003C23.9773 5.22707 23.876 5.21363 23.776 5.1897C23.6761 5.16577 23.5797 5.13186 23.4867 5.08798C23.3938 5.04409 23.3063 4.99116 23.2243 4.92918C23.1423 4.8672 23.0676 4.79748 23 4.72003C22.8594 4.43408 22.7544 4.13558 22.6851 3.82453C22.6158 3.51348 22.5841 3.19865 22.59 2.88003C22.5583 2.55296 22.5774 2.2289 22.6474 1.90785C22.7175 1.5868 22.835 1.28419 23 1.00003C23.0642 0.93029 23.1344 0.867387 23.2107 0.811318C23.2871 0.755249 23.3681 0.707068 23.4538 0.666775C23.5396 0.626481 23.6284 0.594831 23.7203 0.571824C23.8122 0.548817 23.9054 0.534885 24 0.530029M24 1.26003C23.8958 1.26296 23.8025 1.2963 23.72 1.36003C23.621 1.4659 23.5544 1.58924 23.52 1.73003C23.4569 2.10741 23.4269 2.48741 23.43 2.87003C23.4401 3.25282 23.4934 3.62949 23.59 4.00003C23.6238 4.15242 23.6938 4.28575 23.8 4.40003C23.8828 4.46308 23.9761 4.49642 24.08 4.50003C24.1868 4.49592 24.2834 4.46259 24.37 4.40003C24.468 4.28316 24.5314 4.14983 24.56 4.00003C24.6232 3.6193 24.6532 3.23596 24.65 2.85003C24.664 2.4804 24.6374 2.11374 24.57 1.75003C24.543 1.59406 24.4763 1.45739 24.37 1.34003C24.2834 1.27747 24.1868 1.24414 24.08 1.24003">
</path>
<path d="M15.0001 3.08L13.3101 2.08L13.0901 2.08L13.0901 2.16L13.0901 3L8.00007 3L9.07007 1.25C9.09103 1.21501 9.11436 1.18167 9.14007 1.15L9.24007 1.08L9.35007 1.08L9.46007 1.08L10.0001 1.08C9.99593 1.11667 9.99593 1.15333 10.0001 1.19L10.0601 1.28L10.1401 1.37L10.2201 1.44L10.3201 1.5L10.4301 1.5L10.5301 1.5L10.7901 1.5L10.8601 1.5L10.9201 1.5L10.9901 1.5L11.0501 1.5C11.0501 1.5 11.0501 1.5 11.1001 1.45L11.1501 1.4C11.1529 1.38 11.1529 1.36 11.1501 1.34C11.152 1.31667 11.152 1.29333 11.1501 1.27L11.1501 1.21C11.1501 1.21 11.1501 1.16 11.1501 1.14C11.1513 1.11667 11.1513 1.09333 11.1501 1.07C11.1451 1.04667 11.1451 1.02333 11.1501 1L11.1501 0.69C11.1459 0.666667 11.1459 0.643333 11.1501 0.62C11.1513 0.596667 11.1513 0.573333 11.1501 0.55C11.1513 0.526667 11.1513 0.503333 11.1501 0.48L11.1501 0.41L11.1501 0.35L11.1501 0.29L11.1001 0.29C11.0834 0.28645 11.0667 0.28645 11.0501 0.29L11.0001 0.1L10.9301 0.1L10.8701 0.1L10.8001 0L10.5601 0L10.4601 0L10.3601 0L10.2701 0.05L10.1901 0.11L10.1201 0.18L10.0501 0.26C10.0432 0.313275 10.0265 0.363275 10.0001 0.41L9.33007 0.41L9.19007 0.41L9.06007 0.41C9.01604 0.42195 8.97604 0.44195 8.94007 0.47L8.82007 0.62L8.72007 0.71C8.68166 0.738261 8.64833 0.771594 8.62007 0.81C8.5909 0.844849 8.56424 0.881515 8.54007 0.92L7.27007 3L6.83007 3C6.83446 2.98 6.83446 2.96 6.83007 2.94L6.83007 2.94L6.83007 2.88L6.83007 2.82L6.83007 2.77L6.78007 2.77L6.72007 2.77L6.67007 2.77L6.61007 2.77L6.55007 2.77L6.49007 2.77L5.57007 2.77L5.51007 2.77L5.45007 2.77L5.39007 2.77L5.33007 2.77L5.28007 2.77C5.28007 2.77 5.28007 2.77 5.28007 2.82L5.00007 2.7L5.00007 2.76L5.00007 2.82L5.00007 2.88L4.80007 3C4.80007 3 4.80007 3 4.80007 3.06C4.80007 3.12 4.80007 3.06 4.80007 3.13C4.80007 3.2 4.80007 3.13 4.80007 3.19L4.80007 3.31C4.79516 3.33333 4.79516 3.35667 4.80007 3.38L4.80007 3.44C4.80007 3.44 4.80007 3.44 4.80007 3.5C4.79532 3.52 4.79532 3.54 4.80007 3.56C4.80007 3.56 4.80007 3.56 4.80007 3.62C4.80007 3.68 4.80007 3.62 4.80007 3.68L4.80007 3.74L4.80007 3.79L4.80007 3.85L5.00007 4L5.05007 4L5.11007 4L5.17007 4L5.23007 4L5.29007 4L5.79007 4L5.85007 4L5.91007 4L5.97007 4L6.03007 4L6.09007 4L6.09007 4C6.09007 4 6.09007 4 6.09007 3.95L6.09007 3.9L6.09007 3.84L6.09007 3.79C6.08568 3.77 6.08568 3.75 6.09007 3.73C6.09446 3.71 6.09446 3.69 6.09007 3.67C6.09007 3.67 6.09007 3.67 6.09007 3.61L8.59007 3.61L9.86007 5.61L9.94007 5.72L10.0401 5.82L10.1401 5.91L10.2601 5.98C10.2961 6.00805 10.3361 6.02805 10.3801 6.04L10.5101 6.04L10.6501 6.04L11.5801 6.04L11.5801 6.4L12.9301 6.4L12.9301 5.05L11.5801 5.05L11.5801 5.5L10.6701 5.5L10.5601 5.5C10.5252 5.48291 10.4952 5.45957 10.4701 5.43C10.4356 5.40691 10.4089 5.37691 10.3901 5.34L9.32007 3.58L13.0001 3.58L13.0001 4.28L13.0001 4.28C13.0001 4.28 13.0001 4.28 13.0001 4.34C13.0367 4.34903 13.0734 4.34903 13.1101 4.34C13.1467 4.35049 13.1834 4.35049 13.2201 4.34L14.9101 3.34L14.9101 3.34L14.9101 3.34L14.9101 3.34L14.9101 3.23L14.9101 3.23L15.0001 3.08Z" fill-rule="evenodd"  fill="#000000" >
</path>
<path d="M0 11.74L0.84 11.65C0.854765 11.7695 0.888716 11.8832 0.941853 11.9912C0.994991 12.0991 1.06437 12.1954 1.15 12.28C1.24063 12.3481 1.33996 12.3993 1.448 12.4336C1.55603 12.4679 1.6667 12.4833 1.78 12.48C1.89213 12.4862 2.00218 12.4739 2.11016 12.4431C2.21814 12.4122 2.31809 12.3645 2.41 12.3C2.47519 12.2497 2.52621 12.1877 2.56304 12.114C2.59987 12.0403 2.61886 11.9623 2.62 11.88C2.62596 11.7862 2.59929 11.7029 2.54 11.63C2.45225 11.5348 2.34559 11.4715 2.22 11.44C2.12 11.44 1.89 11.34 1.53 11.25C1.34876 11.2216 1.17357 11.1719 1.00443 11.1009C0.835293 11.0298 0.677149 10.9395 0.53 10.83C0.472357 10.7772 0.420689 10.7191 0.374998 10.6557C0.329307 10.5922 0.290548 10.5248 0.258722 10.4535C0.226897 10.3821 0.20267 10.3082 0.186042 10.2318C0.169415 10.1554 0.160734 10.0781 0.16 10C0.159608 9.89174 0.174733 9.78569 0.205375 9.68184C0.236018 9.578 0.280893 9.48072 0.34 9.39001C0.406042 9.29139 0.48507 9.20459 0.577085 9.12961C0.6691 9.05464 0.770071 8.99477 0.88 8.95001C1.14963 8.84191 1.42963 8.79191 1.72 8.80001C1.82833 8.79196 1.93651 8.7937 2.04454 8.80523C2.15256 8.81676 2.25867 8.8379 2.36286 8.86865C2.46705 8.8994 2.56764 8.93925 2.66462 8.98821C2.7616 9.03716 2.85339 9.09443 2.94 9.16001C3.01122 9.22175 3.07464 9.29066 3.13027 9.36674C3.1859 9.44283 3.23234 9.52416 3.26957 9.61075C3.3068 9.69734 3.3339 9.78699 3.35085 9.8797C3.3678 9.97244 3.37419 10.0659 3.37 10.16L2.5 10.16C2.49071 10.0695 2.46536 9.98366 2.42396 9.90256C2.38256 9.82148 2.32791 9.75064 2.26 9.69001C2.17988 9.63372 2.09258 9.59269 1.99811 9.56692C1.90364 9.54116 1.80761 9.53219 1.71 9.54001C1.60573 9.53523 1.50322 9.5465 1.40247 9.57382C1.30173 9.60114 1.20757 9.6432 1.12 9.70001C1.08733 9.72388 1.06059 9.75317 1.03977 9.78787C1.01895 9.82257 1.00569 9.85995 1 9.90001C1.00166 9.95216 1.01381 10.0017 1.03644 10.0487C1.05908 10.0958 1.09027 10.1362 1.13 10.17C1.38007 10.3107 1.64673 10.4041 1.93 10.45C2.25391 10.5213 2.56725 10.6246 2.87 10.76C3.06864 10.8618 3.22531 11.0085 3.34 11.2C3.40126 11.3025 3.44637 11.4116 3.47532 11.5274C3.50427 11.6432 3.51583 11.7607 3.51 11.88C3.51001 12.0021 3.49301 12.1219 3.459 12.2392C3.42499 12.3565 3.37533 12.4668 3.31 12.57C3.24185 12.6793 3.15817 12.775 3.05896 12.8571C2.95975 12.9392 2.85009 13.0035 2.73 13.05C2.42781 13.1688 2.11448 13.2221 1.79 13.21C1.6787 13.2169 1.56767 13.2138 1.45691 13.2008C1.34616 13.1879 1.23743 13.1652 1.13073 13.1327C1.02404 13.1003 0.921072 13.0587 0.821828 13.0078C0.722585 12.9569 0.628642 12.8977 0.54 12.83C0.462442 12.7605 0.392147 12.6842 0.329114 12.6013C0.266081 12.5184 0.211444 12.4302 0.165204 12.3369C0.118963 12.2436 0.0819513 12.1467 0.0541674 12.0463C0.0263835 11.9459 0.00832773 11.8438 0 11.74Z"   fill="#000000" >
</path>
<path d="M4.80006 13.13L3.81006 10L4.61006 10L5.19006 12L5.73006 10L6.52006 10L7.04006 12L7.64006 10L8.45006 10L7.45006 13.11L6.66006 13.11L6.12006 11.11L5.60006 13.11L4.80006 13.13Z"   fill="#000000" >
</path>
<path d="M8.88 9.60003L8.88 8.84003L9.71 8.84003L9.71 9.60003L8.88 9.60003ZM8.88 13.13L8.88 10L9.71 10L9.71 13.11L8.88 13.13Z"   fill="#000000" >
</path>
<path d="M12 9.99998L12 10.66L11.43 10.66L11.43 11.91C11.419 12.06 11.419 12.21 11.43 12.36C11.4405 12.4023 11.4639 12.4357 11.5 12.46C11.5466 12.4749 11.5933 12.4749 11.64 12.46C11.7541 12.4505 11.8641 12.4239 11.97 12.38L12.04 13.02C11.8315 13.1046 11.6149 13.1446 11.39 13.14C11.2521 13.1429 11.1187 13.1196 10.99 13.07C10.8878 13.0278 10.8012 12.9645 10.73 12.88C10.6668 12.7785 10.6268 12.6685 10.61 12.55C10.61 12.46 10.61 12.27 10.61 11.97L10.61 10.68L10.23 10.68L10.23 9.99998L10.61 9.99998L10.61 9.39998L11.43 8.91998L11.43 9.99998L12 9.99998Z"   fill="#000000" >
</path>
<path d="M15.26 10.94L14.45 11.09C14.4414 11.019 14.4208 10.9517 14.3881 10.888C14.3554 10.8244 14.3127 10.7684 14.26 10.72C14.2077 10.6781 14.1497 10.6469 14.086 10.6262C14.0223 10.6055 13.9569 10.5968 13.89 10.6C13.7965 10.5956 13.7068 10.6118 13.6208 10.6486C13.5349 10.6855 13.4613 10.7393 13.4 10.81C13.3244 10.912 13.2702 11.0243 13.2374 11.1469C13.2046 11.2695 13.1955 11.3939 13.21 11.52C13.1959 11.6571 13.2052 11.7925 13.2378 11.9264C13.2704 12.0602 13.3245 12.1847 13.4 12.3C13.4292 12.3381 13.4625 12.372 13.5 12.4019C13.5375 12.4318 13.578 12.4568 13.6215 12.4769C13.6651 12.4969 13.7104 12.5114 13.7575 12.5204C13.8046 12.5294 13.8521 12.5326 13.9 12.53C13.9693 12.5331 14.0367 12.5234 14.1023 12.5009C14.1679 12.4785 14.2271 12.4449 14.28 12.4C14.3393 12.3369 14.3869 12.266 14.4228 12.1873C14.4587 12.1085 14.4811 12.0261 14.49 11.94L15.3 12.08C15.2721 12.2439 15.2168 12.3981 15.1343 12.5425C15.0518 12.6868 14.947 12.8127 14.82 12.92C14.6753 13.0247 14.517 13.1012 14.345 13.1493C14.173 13.1974 13.998 13.2143 13.82 13.2C13.7191 13.205 13.6188 13.1993 13.5191 13.1829C13.4194 13.1665 13.3226 13.1398 13.2286 13.1027C13.1346 13.0656 13.0456 13.019 12.9615 12.9629C12.8775 12.9068 12.8003 12.8425 12.73 12.77C12.6595 12.6887 12.5975 12.6013 12.544 12.5078C12.4906 12.4143 12.4467 12.3166 12.4124 12.2145C12.3781 12.1124 12.354 12.008 12.3401 11.9013C12.3263 11.7945 12.3229 11.6874 12.33 11.58C12.3233 11.4719 12.327 11.3641 12.341 11.2566C12.3551 11.1491 12.3792 11.044 12.4135 10.9412C12.4478 10.8383 12.4915 10.7397 12.5448 10.6454C12.598 10.551 12.6597 10.4625 12.73 10.38C12.8063 10.3085 12.8894 10.246 12.9793 10.1926C13.0692 10.1391 13.1638 10.096 13.2631 10.0632C13.3624 10.0304 13.4641 10.0087 13.5681 9.998C13.6722 9.98735 13.7761 9.98801 13.88 10C14.0395 9.99199 14.1963 10.0094 14.3502 10.0521C14.5041 10.0949 14.6474 10.1609 14.78 10.25C14.8942 10.337 14.9923 10.4394 15.0742 10.5573C15.1562 10.6751 15.2181 10.8027 15.26 10.94Z"   fill="#000000" >
</path>
<path d="M16.71 8.84003L16.71 10.42C16.7661 10.3474 16.8297 10.282 16.9008 10.2238C16.9719 10.1656 17.0485 10.1162 17.1308 10.0754C17.2131 10.0348 17.2989 10.0038 17.3883 9.98263C17.4776 9.96146 17.5682 9.95059 17.66 9.95003C17.8383 9.9485 18.0083 9.98517 18.17 10.06C18.3097 10.1201 18.4264 10.2101 18.52 10.33C18.5908 10.4414 18.6408 10.5614 18.67 10.69C18.6915 10.8967 18.6915 11.1034 18.67 11.31L18.67 13.13L17.84 13.13L17.84 11.49C17.8647 11.2834 17.8647 11.0767 17.84 10.87C17.8059 10.7818 17.7493 10.7118 17.67 10.66C17.5777 10.6045 17.4777 10.5778 17.37 10.58C17.2397 10.5761 17.1197 10.6094 17.01 10.68C16.8962 10.753 16.8162 10.853 16.77 10.98C16.7141 11.1728 16.6908 11.3695 16.7 11.57L16.7 13.13L15.87 13.13L15.87 8.84003L16.71 8.84003Z"   fill="#000000" >
</path>
<path d="M20.17 11.0001L19.42 10.8701C19.4499 10.7365 19.5018 10.6122 19.5757 10.4971C19.6496 10.3819 19.741 10.2829 19.85 10.2001C19.9882 10.1167 20.1359 10.0562 20.2929 10.0187C20.4499 9.98112 20.609 9.96825 20.77 9.98008C21.052 9.96883 21.3253 10.0122 21.59 10.1101C21.6674 10.1444 21.7377 10.1897 21.8009 10.2461C21.864 10.3024 21.917 10.3671 21.96 10.4401C22.0594 10.6771 22.0994 10.9237 22.08 11.1801L22.08 12.1801C22.0594 12.3801 22.0594 12.5801 22.08 12.7801C22.1054 12.9271 22.1521 13.0671 22.22 13.2001L21.41 13.2001C21.3786 13.1216 21.352 13.0416 21.33 12.9601C21.334 12.9267 21.334 12.8934 21.33 12.8601C21.1998 12.9922 21.0498 13.0955 20.88 13.1701C20.717 13.2395 20.547 13.2729 20.37 13.2701C20.2307 13.2817 20.0949 13.265 19.9627 13.2198C19.8305 13.1745 19.7129 13.1046 19.61 13.0101C19.518 12.9253 19.4477 12.8254 19.3989 12.7103C19.35 12.5951 19.327 12.4751 19.33 12.3501C19.3339 12.1825 19.3772 12.0259 19.46 11.8801C19.5455 11.7415 19.6622 11.6382 19.81 11.5701C20.0211 11.4741 20.2411 11.4074 20.47 11.3701C20.7437 11.3317 21.0104 11.265 21.27 11.1701L21.27 11.0001C21.2758 10.9373 21.2683 10.8763 21.2474 10.8169C21.2264 10.7575 21.1939 10.7052 21.15 10.6601C21.0135 10.5818 20.8668 10.5485 20.71 10.5601C20.584 10.5539 20.4673 10.5839 20.36 10.6501C20.2571 10.7453 20.1938 10.8619 20.17 11.0001ZM21.27 11.6701C21.16 11.6701 20.99 11.7501 20.77 11.7901C20.6114 11.8145 20.4614 11.8645 20.32 11.9401C20.2692 11.9705 20.2296 12.0117 20.201 12.0636C20.1724 12.1154 20.1587 12.1709 20.16 12.2301C20.1599 12.287 20.1712 12.3414 20.1938 12.3936C20.2164 12.4458 20.2484 12.4913 20.29 12.5301C20.333 12.5708 20.3823 12.6016 20.4379 12.6224C20.4933 12.6432 20.5507 12.6525 20.61 12.6501C20.7674 12.6468 20.9108 12.6002 21.04 12.5101C21.1354 12.4385 21.1988 12.3452 21.23 12.2301C21.2525 12.0967 21.2525 11.9634 21.23 11.8301L21.27 11.6701Z"   fill="#000000" >
</path>
<path d="M22.85 13.13L22.85 8.84003L23.68 8.84003L23.68 10.38C23.7347 10.3135 23.796 10.2537 23.8639 10.2006C23.9317 10.1475 24.0045 10.1024 24.0823 10.0652C24.16 10.0281 24.2409 9.99982 24.3249 9.98039C24.4088 9.96096 24.4938 9.95084 24.58 9.95003C24.6684 9.94838 24.7561 9.95618 24.8429 9.97343C24.9297 9.99069 25.0136 10.017 25.0948 10.0524C25.1758 10.0878 25.2522 10.1314 25.324 10.1832C25.3956 10.2351 25.461 10.294 25.52 10.36C25.5866 10.4433 25.6448 10.532 25.6948 10.6261C25.7448 10.7203 25.7856 10.8183 25.8173 10.9201C25.8489 11.0219 25.8708 11.1258 25.8831 11.2316C25.8953 11.3376 25.8976 11.4437 25.89 11.55C25.8971 11.659 25.8942 11.7678 25.8813 11.8762C25.8684 11.9847 25.8457 12.0911 25.8132 12.1953C25.7807 12.2996 25.739 12.4 25.6881 12.4966C25.6371 12.5932 25.5777 12.6844 25.51 12.77C25.4544 12.8381 25.3919 12.8992 25.3226 12.9532C25.2532 13.0072 25.1787 13.0528 25.0991 13.09C25.0194 13.1273 24.9366 13.1552 24.8507 13.1737C24.7648 13.1923 24.6779 13.201 24.59 13.2C24.4027 13.1998 24.226 13.1565 24.06 13.07C23.8821 12.9752 23.7354 12.8452 23.62 12.68L23.62 13.13L22.85 13.13ZM23.67 11.51C23.6613 11.633 23.6697 11.7549 23.6953 11.8755C23.7207 11.9962 23.7623 12.111 23.82 12.22C23.8485 12.2704 23.8831 12.3162 23.9239 12.3573C23.9646 12.3985 24.01 12.4335 24.0601 12.4625C24.1102 12.4916 24.1632 12.5135 24.2192 12.5283C24.2752 12.5432 24.3321 12.5504 24.39 12.55C24.4816 12.549 24.5685 12.5283 24.6509 12.488C24.7332 12.4477 24.8029 12.3917 24.86 12.32C24.93 12.2118 24.9813 12.0952 25.0138 11.9703C25.0463 11.8455 25.0584 11.7188 25.05 11.59C25.0618 11.454 25.0505 11.32 25.0163 11.1878C24.9819 11.0557 24.9265 10.9331 24.85 10.82C24.8215 10.7821 24.789 10.748 24.7525 10.7177C24.7159 10.6875 24.6764 10.662 24.6339 10.6411C24.5913 10.6203 24.5468 10.6047 24.5005 10.5943C24.4542 10.584 24.4074 10.5792 24.36 10.58C24.265 10.5788 24.1745 10.5984 24.0886 10.6387C24.0026 10.6791 23.9297 10.7362 23.87 10.81C23.7964 10.9112 23.7424 11.022 23.708 11.1423C23.6736 11.2627 23.6609 11.3852 23.67 11.51Z"   fill="#000000" >
</path>
<path d="M26.55 13.13L26.55 8.84003L27.38 8.84003L27.38 13.13L26.55 13.13Z"   fill="#000000" >
</path>
<path d="M30 12.14L30.82 12.28C30.7768 12.4193 30.7124 12.548 30.6268 12.6661C30.5412 12.7842 30.439 12.8855 30.32 12.97C30.1938 13.0518 30.0582 13.1123 29.913 13.1516C29.7679 13.1909 29.6202 13.207 29.47 13.2C29.3558 13.2095 29.2422 13.2048 29.1292 13.1859C29.0162 13.1669 28.9073 13.1343 28.8024 13.088C28.6976 13.0417 28.6002 12.9831 28.51 12.9124C28.4199 12.8416 28.3399 12.7608 28.27 12.67C28.1682 12.5111 28.0941 12.3401 28.0479 12.157C28.0017 11.9739 27.9858 11.7883 28 11.6C27.9934 11.4911 27.9972 11.3825 28.0113 11.2743C28.0254 11.1661 28.0496 11.0602 28.0838 10.9566C28.1181 10.853 28.1618 10.7535 28.2149 10.6582C28.2681 10.5629 28.3298 10.4735 28.4 10.39C28.4632 10.3203 28.533 10.2579 28.6094 10.2029C28.6858 10.1478 28.767 10.1014 28.8531 10.0635C28.9393 10.0256 29.0284 9.99704 29.1206 9.97792C29.2128 9.9588 29.3059 9.94949 29.4 9.95C29.5023 9.94481 29.6039 9.9511 29.7048 9.96887C29.8057 9.98664 29.9033 10.0154 29.9976 10.0553C30.092 10.0951 30.1808 10.1449 30.2639 10.2048C30.347 10.2647 30.4224 10.3331 30.49 10.41C30.5646 10.5095 30.6294 10.6149 30.6842 10.7264C30.7392 10.8379 30.7833 10.9536 30.8167 11.0733C30.8501 11.193 30.8721 11.3148 30.8827 11.4387C30.8933 11.5626 30.8924 11.6863 30.88 11.81L28.82 11.81C28.8182 11.9139 28.8345 12.0148 28.8689 12.1129C28.9033 12.211 28.9537 12.3 29.02 12.38C29.081 12.4482 29.1533 12.5006 29.2371 12.5373C29.3209 12.574 29.4086 12.5915 29.5 12.59C29.6199 12.5917 29.7266 12.555 29.82 12.48C29.9184 12.387 29.9784 12.2737 30 12.14ZM30.05 11.31C30.0537 11.2112 30.0391 11.1152 30.0063 11.0219C29.9735 10.9287 29.9248 10.8447 29.86 10.77C29.8078 10.7085 29.7449 10.6612 29.6713 10.6279C29.5978 10.5946 29.5207 10.5787 29.44 10.58C29.354 10.5789 29.2717 10.5959 29.1931 10.6308C29.1146 10.6657 29.0469 10.7155 28.99 10.78C28.9288 10.8541 28.8834 10.937 28.854 11.0286C28.8246 11.1203 28.8133 11.2141 28.82 11.31L30.05 11.31Z"   fill="#000000" >
</path>
</g>
<defs>
<clipPath id="clip-path-0FzMTQA-pdhq1H9y8xRuz">
<path d="M0 13.21L30.89 13.21L30.89 0L0 0L0 13.21Z" fill="white"/>
</clipPath>
</defs>
</svg>
