<svg xmlns="http://www.w3.org/2000/svg" xmlns:xlink="http://www.w3.org/1999/xlink" width="42.47998046875" height="6.4000244140625" viewBox="0 0 42.47998046875 6.4000244140625" fill="none">
<g  clip-path="url(#clip-path-dDYZw3YJaCAi-XBRVJUH7)">
<path   fill-rule="evenodd"  fill="#000000"  d="M17.5601 6.39999L20.4601 6.39999L20.6201 6.39999L20.7701 6.39999L20.9301 6.39999L21.0801 6.39999L21.2301 6.39999L21.3801 6.39999L21.5301 6.39999L21.6701 6.32999L21.8101 5.99999L22.0001 5.93999L22.1301 5.85999L22.2601 5.76999L22.3801 5.66999L22.5001 5.56999L22.6201 5.45999L22.7201 5.34999L22.8301 5.22999L22.9201 5.10999C22.95 5.07569 22.9767 5.03902 23.0001 4.99999L23.0901 4.86999L23.1701 4.72999C23.1894 4.68131 23.2127 4.63464 23.2401 4.58999L23.3001 4.43999L23.3601 4.29999C23.3722 4.24848 23.3889 4.19848 23.4101 4.14999C23.4101 4.14999 23.4101 4.04999 23.4101 3.99999L23.4101 3.83999L23.4101 3.68999C23.4101 3.68999 23.4101 3.58999 23.4101 3.52999C23.4101 3.46999 23.4101 3.42999 23.4101 3.37999L23.4101 2.99999C23.4101 2.99999 23.4101 2.89999 23.4101 2.84999C23.4101 2.79999 23.4101 2.73999 23.4101 2.68999L23.4101 2.53999L23.4101 2.37999C23.4101 2.37999 23.4101 2.27999 23.4101 2.22999C23.3889 2.18149 23.3722 2.13149 23.3601 2.07999L23.2601 1.99999L23.2001 1.84999C23.1707 1.80634 23.1473 1.75968 23.1301 1.70999L23.0501 1.56999L23.0001 1.41999C22.9745 1.37356 22.9445 1.33022 22.9101 1.28999L22.8201 1.16999L22.7101 1.04999L22.6101 0.93999L22.4501 0.82999L22.3301 0.72999L22.2101 0.62999L22.0801 0.53999L22.0001 0.44999L21.8101 0.37999C21.7664 0.350619 21.7197 0.327286 21.6701 0.30999L21.5301 0.23999L21.3801 0.23999L21.2301 0.23999L21.0801 0.23999L20.9301 0.23999L20.7701 0.23999L20.6201 0.23999L17.2501 0.23999L17.0901 0.23999L16.9401 0.23999L16.7801 0.23999L16.6301 0.23999L16.4801 0.23999L16.3401 0.23999L16.1901 0.30999L16.0501 0.37999L15.9201 0.44999L15.7801 0.53999L15.6501 0.62999L15.5301 0.72999L15.4101 0.82999C15.3709 0.864149 15.3342 0.900816 15.3001 0.93999C15.2609 0.974149 15.2242 1.01082 15.1901 1.04999L15.0901 1.16999L14.9901 1.28999L14.9001 1.41999L14.8201 1.54999C14.7896 1.5945 14.7629 1.64116 14.7401 1.68999L14.6701 1.82999L14.6001 1.99999C14.6001 1.99999 14.6001 2.08999 14.6001 2.13999C14.5789 2.18849 14.5622 2.23849 14.5501 2.28999C14.5455 2.33999 14.5455 2.38999 14.5501 2.43999C14.5443 2.49332 14.5443 2.54666 14.5501 2.59999C14.5452 2.64999 14.5452 2.69999 14.5501 2.74999C14.5446 2.80332 14.5446 2.85666 14.5501 2.90999C14.5501 2.90999 14.5501 3.00999 14.5501 3.05999L14.5501 3.37999C14.5501 3.42999 14.5501 3.47999 14.5501 3.52999C14.5446 3.58332 14.5446 3.63666 14.5501 3.68999C14.5452 3.73999 14.5452 3.78999 14.5501 3.83999C14.5443 3.89332 14.5443 3.94666 14.5501 3.99999C14.5455 4.04999 14.5455 4.09999 14.5501 4.14999C14.5622 4.2015 14.5789 4.2515 14.6001 4.29999C14.6001 4.29999 14.6001 4.39999 14.6001 4.43999L14.6701 4.58999C14.6894 4.63867 14.7127 4.68534 14.7401 4.72999C14.7629 4.77882 14.7896 4.82548 14.8201 4.86999L14.9001 4.99999L14.9901 5.12999L15.0901 5.24999L15.1901 5.36999C15.2242 5.40916 15.2609 5.44583 15.3001 5.47999C15.3342 5.51916 15.3709 5.55583 15.4101 5.58999L15.5301 5.68999L15.6501 5.78999L15.7801 5.87999L15.9201 5.95999L16.0501 6.03999L16.1901 6.10999L16.3401 6.17999L16.4801 6.17999L16.6301 6.17999L16.7801 6.17999L16.9401 6.17999L17.0901 6.17999L17.2501 6.17999L17.4001 6.17999L17.5601 6.17999M17.7901 1.37999L18.0001 1.37999L18.1501 1.37999L18.3001 1.37999L18.4501 1.42999C18.4997 1.44728 18.5464 1.47062 18.5901 1.49999L18.7301 1.57999L18.8001 1.99999L18.9201 2.10999L19.0301 2.21999L19.1201 2.34999C19.1527 2.39327 19.1793 2.43994 19.2001 2.48999C19.2295 2.53364 19.2528 2.5803 19.2701 2.62999C19.2927 2.67798 19.3094 2.72798 19.3201 2.77999C19.3246 2.82999 19.3246 2.87999 19.3201 2.92999C19.3249 2.97999 19.3249 3.02999 19.3201 3.07999C19.3247 3.13332 19.3247 3.18666 19.3201 3.23999C19.3247 3.29332 19.3247 3.34666 19.3201 3.39999C19.3249 3.44999 19.3249 3.49999 19.3201 3.54999C19.3246 3.59999 19.3246 3.64999 19.3201 3.69999C19.3079 3.7515 19.2913 3.8015 19.2701 3.84999C19.2536 3.90318 19.2303 3.95318 19.2001 3.99999C19.1772 4.04881 19.1505 4.09548 19.1201 4.13999L19.0001 4.20999L18.8901 4.32999L18.7701 4.43999L18.6501 4.52999L18.5101 4.60999L18.3701 4.67999L18.2201 4.72999L18.0701 4.72999L17.9201 4.72999L17.6001 4.72999L17.4501 4.72999L17.3001 4.72999L17.1501 4.67999L17.0001 4.60999L16.8601 4.52999L16.7301 4.43999L16.6201 4.32999L16.5101 4.20999L16.4201 4.08999C16.4053 4.06065 16.3919 4.03065 16.3801 3.99999C16.3507 3.95634 16.3273 3.90968 16.3101 3.85999C16.3058 3.80999 16.3058 3.75999 16.3101 3.70999C16.3055 3.65999 16.3055 3.60999 16.3101 3.55999C16.3052 3.50999 16.3052 3.45999 16.3101 3.40999C16.3054 3.35666 16.3054 3.30332 16.3101 3.24999C16.3054 3.19666 16.3054 3.14332 16.3101 3.08999C16.3052 3.03999 16.3052 2.98999 16.3101 2.93999C16.3055 2.88999 16.3055 2.83999 16.3101 2.78999C16.3043 2.73999 16.3043 2.68999 16.3101 2.63999C16.3273 2.5903 16.3507 2.54364 16.3801 2.49999C16.4008 2.44994 16.4275 2.40327 16.4601 2.35999L16.5501 2.22999L16.6601 2.11999L16.7701 1.99999L16.9001 1.90999L17.0001 1.78999C17.0437 1.76062 17.0904 1.73728 17.1401 1.71999L17.2901 1.66999L17.4401 1.66999L17.5901 1.66999L17.7501 1.66999">
</path>
<path d="M26.06 5.13998L26.06 1.56998L24.79 1.56998L24.79 0.849976L28.2 0.849976L28.2 1.56998L26.93 1.56998L26.93 5.13998L26.06 5.13998Z"   fill="#000000" >
</path>
<path d="M28.92 3.00011L28.18 2.86011C28.208 2.72715 28.2591 2.60375 28.3333 2.48991C28.4075 2.37606 28.4998 2.27946 28.61 2.20011C28.7476 2.12028 28.8941 2.0633 29.0494 2.02916C29.2048 1.99501 29.3616 1.98533 29.52 2.00011C29.803 1.98258 30.0764 2.02591 30.34 2.13011C30.5012 2.20033 30.6279 2.31033 30.72 2.46011C30.816 2.69795 30.8527 2.94462 30.83 3.20011L30.83 4.20011C30.815 4.40011 30.815 4.60011 30.83 4.80011C30.8654 4.94535 30.9154 5.08535 30.98 5.22011L30.2 5.22011C30.2 5.22011 30.15 5.08011 30.12 4.98011C30.1149 4.94677 30.1149 4.91344 30.12 4.88011C29.9898 5.01222 29.8398 5.11555 29.67 5.19011C29.5038 5.26039 29.3305 5.29372 29.15 5.29011C29.0056 5.29755 28.8656 5.27607 28.73 5.22568C28.5945 5.17528 28.4745 5.10009 28.37 5.00011C28.3238 4.95884 28.2826 4.91301 28.2465 4.86263C28.2105 4.81225 28.1803 4.75853 28.156 4.70148C28.1318 4.64442 28.1142 4.58541 28.103 4.52445C28.0919 4.46348 28.0876 4.40203 28.09 4.34011C28.0864 4.17047 28.1298 4.0138 28.22 3.87011C28.3053 3.72911 28.422 3.62245 28.57 3.55011C28.7801 3.46422 28.9968 3.40089 29.22 3.36011C29.4932 3.31949 29.7599 3.25283 30.02 3.16011L30.02 3.00011C30.0279 2.93808 30.0222 2.87732 30.003 2.81783C29.9838 2.75833 29.9528 2.70576 29.91 2.66011C29.8427 2.61888 29.7705 2.5897 29.6933 2.57257C29.6163 2.55544 29.5385 2.55129 29.46 2.56011C29.337 2.55335 29.2236 2.58335 29.12 2.65011C29.0654 2.69335 29.0207 2.74523 28.9861 2.80575C28.9515 2.86627 28.9295 2.93105 28.92 3.00011ZM30.02 3.67011L29.52 3.79011C29.3644 3.81387 29.2178 3.86387 29.08 3.94011C29.0281 3.97007 28.987 4.01091 28.9567 4.06263C28.9264 4.11434 28.9108 4.17017 28.91 4.23011C28.9067 4.33121 28.9367 4.42121 29 4.50011C29.0435 4.54396 29.0939 4.5772 29.1513 4.59983C29.2088 4.62245 29.2684 4.63255 29.33 4.63011C29.4079 4.62903 29.4836 4.61566 29.5572 4.59C29.6308 4.56434 29.6984 4.52771 29.76 4.48011C29.8164 4.45289 29.8654 4.41588 29.907 4.36909C29.9486 4.32229 29.9796 4.26929 30 4.21011C30.0158 4.07677 30.0158 3.94344 30 3.81011L30.02 3.67011Z"   fill="#000000" >
</path>
<path d="M32.43 5.14004L31.61 5.14004L31.61 2.00004L32.37 2.00004L32.37 2.44004C32.4569 2.27434 32.5769 2.13767 32.73 2.03004C32.8361 1.95957 32.9527 1.92623 33.08 1.93004C33.2746 1.92749 33.4546 1.97749 33.62 2.08004L33.37 2.80004C33.2559 2.73265 33.1325 2.69932 33 2.70004C32.8933 2.69781 32.7966 2.72781 32.71 2.79004C32.6126 2.8882 32.5493 3.00487 32.52 3.14004C32.4595 3.47078 32.4362 3.80411 32.45 4.14004L32.43 5.14004Z"   fill="#000000" >
</path>
<path d="M33.9 5.35004L34.84 5.46004C34.8516 5.5487 34.8882 5.62536 34.95 5.69004C35.0658 5.75134 35.1892 5.77801 35.32 5.77004C35.4875 5.78032 35.6475 5.75032 35.8 5.68004C35.891 5.6333 35.9577 5.5633 36 5.47004C36.0163 5.34337 36.0163 5.2167 36 5.09004L36 4.64004C35.9487 4.71642 35.889 4.7855 35.8208 4.8473C35.7526 4.90909 35.678 4.96177 35.597 5.00534C35.5159 5.04891 35.4308 5.08209 35.3417 5.10487C35.2525 5.12765 35.162 5.13938 35.07 5.14004C34.9711 5.14176 34.8734 5.13111 34.7772 5.10808C34.6809 5.08504 34.5891 5.05034 34.5017 5.004C34.4142 4.95765 34.3339 4.90112 34.2608 4.8344C34.1877 4.76768 34.1241 4.6929 34.07 4.61004C33.974 4.46104 33.9013 4.30144 33.852 4.13122C33.8026 3.961 33.7786 3.78727 33.78 3.61004C33.7732 3.50262 33.7763 3.39549 33.7894 3.28865C33.8024 3.18181 33.8251 3.07708 33.8577 2.97447C33.8901 2.87185 33.9318 2.77311 33.9827 2.67823C34.0335 2.58335 34.0926 2.49395 34.16 2.41004C34.2195 2.34342 34.2855 2.28399 34.358 2.23175C34.4304 2.17951 34.5077 2.13569 34.5898 2.10029C34.6718 2.06488 34.7566 2.03872 34.8444 2.02182C34.9321 2.00491 35.0206 1.99765 35.11 2.00004C35.2082 1.99579 35.3054 2.00412 35.4015 2.02504C35.4976 2.04594 35.5895 2.07874 35.6771 2.12343C35.7647 2.16811 35.8452 2.2232 35.9186 2.28872C35.9919 2.35424 36.0557 2.42801 36.11 2.51004L36.11 2.00004L36.88 2.00004L36.88 4.82004C36.8913 5.0979 36.8613 5.37124 36.79 5.64004C36.7405 5.80586 36.6539 5.9492 36.53 6.07004C36.4081 6.19018 36.2647 6.27351 36.1 6.32004C35.8701 6.37684 35.6368 6.40351 35.4 6.40004C35.2036 6.4176 35.0095 6.40328 34.8178 6.35707C34.6261 6.31085 34.4468 6.23517 34.28 6.13004C34.2281 6.08993 34.1815 6.04443 34.1402 5.99355C34.0988 5.94265 34.0639 5.88772 34.0353 5.82874C34.0066 5.76975 33.9851 5.70828 33.9707 5.64432C33.9563 5.58036 33.9494 5.5156 33.95 5.45004L33.9 5.35004ZM34.64 3.52004C34.6293 3.64896 34.6403 3.77601 34.6729 3.90121C34.7054 4.0264 34.7578 4.14268 34.83 4.25004C34.8871 4.32172 34.9567 4.37771 35.0391 4.41799C35.1214 4.45827 35.2084 4.47895 35.3 4.48004C35.3988 4.48089 35.4929 4.46028 35.5824 4.4182C35.6718 4.37612 35.7477 4.31673 35.81 4.24004C35.8879 4.1408 35.945 4.03075 35.9812 3.90991C36.0174 3.78906 36.0304 3.66577 36.02 3.54004C36.031 3.41192 36.0193 3.28591 35.9849 3.16201C35.9505 3.03811 35.8955 2.92412 35.82 2.82004C35.7582 2.746 35.6836 2.68884 35.596 2.64855C35.5084 2.60825 35.4164 2.58875 35.32 2.59004C35.225 2.58881 35.1345 2.60838 35.0486 2.64874C34.9626 2.6891 34.8897 2.7462 34.83 2.82004C34.7581 2.9219 34.7059 3.03298 34.6733 3.15328C34.6406 3.27358 34.6295 3.39583 34.64 3.52004Z"   fill="#000000" >
</path>
<path d="M39.45 4.15003L40.27 4.29003C40.2246 4.42685 40.1591 4.55334 40.0737 4.6695C39.9883 4.78565 39.8871 4.88583 39.77 4.97003C39.6425 5.05334 39.5053 5.11548 39.3585 5.15643C39.2118 5.19738 39.0623 5.21525 38.91 5.21003C38.796 5.21822 38.6826 5.21253 38.57 5.19295C38.4574 5.17336 38.3487 5.14047 38.2441 5.09428C38.1395 5.04809 38.0421 4.98995 37.9517 4.91987C37.8613 4.84979 37.7808 4.76984 37.71 4.68003C37.6034 4.52242 37.5236 4.35224 37.4706 4.16947C37.4177 3.9867 37.3942 3.80022 37.4 3.61003C37.3936 3.50074 37.3977 3.39184 37.4123 3.28334C37.427 3.17484 37.4519 3.06874 37.487 2.96505C37.5222 2.86136 37.5669 2.76199 37.6212 2.66694C37.6756 2.5719 37.7385 2.48293 37.81 2.40003C37.8732 2.3303 37.943 2.26792 38.0194 2.21289C38.0958 2.15787 38.177 2.1114 38.2631 2.07349C38.3493 2.03559 38.4384 2.00707 38.5306 1.98795C38.6228 1.96883 38.7159 1.95953 38.81 1.96003C38.9131 1.95481 39.0154 1.96107 39.117 1.9788C39.2187 1.99653 39.3171 2.0253 39.4122 2.0651C39.5074 2.10491 39.597 2.15476 39.681 2.21465C39.765 2.27455 39.8414 2.34301 39.91 2.42003C39.9825 2.5205 40.0454 2.62664 40.0987 2.73844C40.152 2.85026 40.1949 2.96593 40.2273 3.08547C40.2598 3.20502 40.2813 3.3265 40.2918 3.44992C40.3024 3.57335 40.3018 3.69672 40.29 3.82003L38.25 3.82003C38.2432 3.92468 38.2571 4.02649 38.2918 4.12546C38.3266 4.22443 38.3793 4.31262 38.45 4.39003C38.5082 4.45916 38.5785 4.51214 38.6609 4.54899C38.7434 4.58584 38.8298 4.60285 38.92 4.60003C39.043 4.6024 39.153 4.56574 39.25 4.49003C39.3485 4.3954 39.4152 4.28207 39.45 4.15003ZM39.45 3.32003C39.4551 3.2219 39.4421 3.12623 39.411 3.03302C39.38 2.93982 39.333 2.85549 39.27 2.78003C39.2424 2.74906 39.2118 2.72132 39.1782 2.6968C39.1447 2.67229 39.109 2.65155 39.071 2.63457C39.0332 2.61761 38.9939 2.60479 38.9532 2.59611C38.9126 2.58743 38.8716 2.58309 38.83 2.58309C38.7885 2.58309 38.7474 2.58743 38.7068 2.59611C38.6662 2.60479 38.6269 2.61761 38.589 2.63457C38.5511 2.65155 38.5154 2.67229 38.4818 2.6968C38.4483 2.72132 38.4177 2.74906 38.39 2.78003C38.3301 2.85491 38.2855 2.93801 38.2561 3.02935C38.2269 3.12069 38.2148 3.21425 38.22 3.31003L39.45 3.32003Z"   fill="#000000" >
</path>
<path d="M42.41 1.99999L42.41 2.65999L41.85 2.65999L41.85 3.93999C41.8415 4.08666 41.8415 4.23332 41.85 4.37999C41.8617 4.42754 41.8884 4.4642 41.93 4.48999C41.9733 4.50166 42.0167 4.50166 42.06 4.48999C42.1772 4.47972 42.2905 4.45305 42.4 4.40999L42.47 5.04999C42.2612 5.13267 42.0445 5.17267 41.82 5.16999C41.6787 5.17374 41.5421 5.1504 41.41 5.09999C41.3044 5.05795 41.2177 4.99128 41.15 4.89999C41.0903 4.80126 41.0536 4.69459 41.04 4.57999C41.0104 4.38778 40.9971 4.19444 41 3.99999L41 2.68999L40.62 2.68999L40.62 1.99999L41 1.99999L41 1.40999L41.83 0.929993L41.83 1.99999L42.41 1.99999Z"   fill="#000000" >
</path>
<path d="M0 5.13998L0 0.849976L0.87 0.849976L0.87 2.53998L2.57 2.53998L2.57 0.849976L3.43 0.849976L3.43 5.13998L2.57 5.13998L2.57 3.25998L0.87 3.25998L0.87 5.13998L0 5.13998Z"   fill="#000000" >
</path>
<path d="M4.13006 3.54012C4.13095 3.25841 4.20095 2.99508 4.34006 2.75012C4.40216 2.62461 4.48186 2.51149 4.57916 2.41077C4.67646 2.31006 4.78676 2.22651 4.91006 2.16012C5.17353 2.03835 5.4502 1.98501 5.74006 2.00012C5.84668 1.99595 5.95256 2.00292 6.05771 2.02104C6.16286 2.03917 6.26497 2.06804 6.36404 2.10767C6.46311 2.1473 6.55696 2.19681 6.64561 2.2562C6.73425 2.31559 6.81573 2.38357 6.89006 2.46012C6.96675 2.53539 7.03481 2.61779 7.09425 2.70732C7.15368 2.79684 7.20321 2.89155 7.24282 2.99144C7.28243 3.09133 7.31127 3.19424 7.32934 3.30017C7.34741 3.4061 7.35431 3.51275 7.35006 3.62012C7.35264 3.72803 7.34451 3.83514 7.32568 3.94143C7.30685 4.04772 7.27768 4.1511 7.23818 4.25156C7.19869 4.35202 7.14964 4.44758 7.09104 4.53824C7.03244 4.62889 6.96545 4.71285 6.89006 4.79012C6.81536 4.86617 6.73364 4.93374 6.64491 4.99282C6.55618 5.0519 6.46232 5.10124 6.36334 5.14083C6.26437 5.18042 6.16238 5.20942 6.05738 5.22783C5.95238 5.24624 5.84661 5.25367 5.74006 5.25012C5.44963 5.23298 5.17963 5.14965 4.93006 5.00012C4.80354 4.93945 4.68983 4.86037 4.58892 4.76288C4.488 4.66539 4.40505 4.55447 4.34006 4.43012C4.19351 4.15151 4.12351 3.85485 4.13006 3.54012ZM4.98006 3.54012C4.96975 3.66819 4.98361 3.79359 5.02164 3.91632C5.05967 4.03905 5.11914 4.15031 5.20006 4.25012C5.21667 4.26958 5.23429 4.28809 5.25291 4.30565C5.27152 4.32321 5.29103 4.33971 5.31143 4.35516C5.33183 4.37061 5.353 4.38492 5.37495 4.39807C5.3969 4.41123 5.4195 4.42317 5.44273 4.43389C5.46597 4.4446 5.48972 4.45404 5.51398 4.46219C5.53824 4.47034 5.56287 4.47715 5.58786 4.48264C5.61285 4.48813 5.63807 4.49225 5.66351 4.495C5.68895 4.49776 5.71447 4.49914 5.74006 4.49914C5.76565 4.49914 5.79117 4.49776 5.81661 4.495C5.84205 4.49225 5.86727 4.48813 5.89226 4.48264C5.91725 4.47715 5.94188 4.47034 5.96614 4.46219C5.9904 4.45404 6.01415 4.4446 6.03739 4.43389C6.06062 4.42317 6.08321 4.41123 6.10516 4.39807C6.12711 4.38492 6.14829 4.37061 6.16869 4.35516C6.18909 4.33971 6.2086 4.32321 6.22721 4.30565C6.24583 4.28809 6.26345 4.26958 6.28006 4.25012C6.36098 4.15031 6.42045 4.03905 6.45848 3.91632C6.49651 3.79359 6.51037 3.66819 6.50006 3.54012C6.50907 3.41373 6.49457 3.29009 6.45658 3.16921C6.41859 3.04833 6.35975 2.93863 6.28006 2.84012C6.26345 2.82066 6.24583 2.80215 6.22721 2.78459C6.2086 2.76703 6.18909 2.75053 6.16869 2.73508C6.14829 2.71963 6.12712 2.70532 6.10517 2.69217C6.08322 2.67901 6.06062 2.66707 6.03739 2.65635C6.01415 2.64564 5.9904 2.6362 5.96614 2.62805C5.94188 2.6199 5.91725 2.61309 5.89226 2.6076C5.86727 2.60211 5.84205 2.59799 5.81661 2.59524C5.79117 2.59248 5.76565 2.5911 5.74006 2.5911C5.71447 2.5911 5.68895 2.59248 5.66351 2.59524C5.63807 2.59799 5.61285 2.60211 5.58786 2.6076C5.56287 2.61309 5.53824 2.6199 5.51398 2.62805C5.48972 2.6362 5.46597 2.64564 5.44273 2.65635C5.4195 2.66707 5.3969 2.67901 5.37495 2.69217C5.353 2.70532 5.33183 2.71963 5.31143 2.73508C5.29103 2.75053 5.27152 2.76703 5.25291 2.78459C5.23429 2.80215 5.21667 2.82066 5.20006 2.84012C5.1189 2.94527 5.06099 3.06197 5.02634 3.1902C4.99168 3.31843 4.98292 3.4484 5.00006 3.58012L4.98006 3.54012Z"   fill="#000000" >
</path>
<path d="M7.69995 4.25008L8.52995 4.13008C8.53999 4.20153 8.56318 4.26842 8.59953 4.33074C8.63588 4.39306 8.68269 4.44618 8.73995 4.49008C8.80508 4.53732 8.87629 4.5721 8.95358 4.59443C9.03087 4.61676 9.10966 4.62531 9.18995 4.62008C9.36278 4.6314 9.52278 4.5914 9.66995 4.50008C9.70427 4.47386 9.73109 4.44143 9.7504 4.40281C9.76971 4.36417 9.77956 4.32326 9.77995 4.28008C9.77934 4.21947 9.75934 4.16614 9.71995 4.12008C9.64011 4.05722 9.55011 4.01722 9.44995 4.00008C9.00473 3.9312 8.5814 3.79454 8.17995 3.59008C8.1214 3.5528 8.06859 3.50866 8.02153 3.45764C7.97447 3.40662 7.93472 3.35042 7.90228 3.28906C7.86985 3.22769 7.84581 3.1632 7.83015 3.09558C7.8145 3.02795 7.80777 2.95945 7.80995 2.89008C7.80986 2.8251 7.81689 2.76091 7.83102 2.6975C7.84515 2.63408 7.86604 2.57298 7.89371 2.5142C7.92137 2.45541 7.95513 2.40036 7.99499 2.34906C8.03484 2.29775 8.07983 2.25142 8.12995 2.21008C8.27603 2.1087 8.43491 2.03483 8.60657 1.98848C8.77824 1.94213 8.9527 1.926 9.12995 1.94008C9.30346 1.92264 9.47554 1.93185 9.6462 1.96769C9.81686 2.00353 9.97811 2.06432 10.13 2.15008C10.2362 2.22232 10.3264 2.31095 10.4005 2.41598C10.4745 2.52101 10.5276 2.63571 10.56 2.76008L9.77995 2.91008C9.76996 2.85322 9.74936 2.80051 9.71814 2.75196C9.68693 2.7034 9.64753 2.66277 9.59995 2.63008C9.47722 2.55432 9.34389 2.52099 9.19995 2.53008C9.0353 2.51836 8.87863 2.54836 8.72995 2.62008C8.70142 2.63886 8.67916 2.66335 8.66317 2.69355C8.64718 2.72374 8.63944 2.75592 8.63995 2.79008C8.62177 2.82388 8.61449 2.85989 8.61813 2.89811C8.62177 2.93632 8.63571 2.97031 8.65995 3.00008C8.90718 3.10833 9.16385 3.185 9.42995 3.23008C9.76448 3.28413 10.0711 3.40746 10.35 3.60008C10.3933 3.63779 10.4318 3.67987 10.4656 3.72632C10.4994 3.77276 10.5275 3.8224 10.55 3.87523C10.5725 3.92805 10.5888 3.98273 10.599 4.03926C10.6091 4.09578 10.6128 4.15272 10.61 4.21008C10.6096 4.28058 10.6013 4.35015 10.5852 4.41877C10.569 4.48739 10.5453 4.55332 10.5141 4.61656C10.4829 4.67979 10.445 4.73871 10.4004 4.79333C10.3558 4.84795 10.3057 4.89686 10.25 4.94008C10.0981 5.05464 9.93087 5.13862 9.7483 5.19202C9.56573 5.24541 9.37961 5.26476 9.18995 5.25008C9.0141 5.25713 8.841 5.23852 8.67067 5.19424C8.50034 5.14995 8.3401 5.0819 8.18995 4.99008C8.06436 4.90223 7.95927 4.79441 7.87465 4.66663C7.79004 4.53884 7.7318 4.39999 7.69995 4.25008Z"   fill="#000000" >
</path>
<path d="M12.75 1.99999L12.75 2.65999L12.19 2.65999L12.19 3.93999C12.1789 4.08666 12.1789 4.23332 12.19 4.37999C12.197 4.42706 12.2203 4.46373 12.26 4.48999C12.3067 4.50012 12.3533 4.50012 12.4 4.48999C12.5141 4.48051 12.6241 4.45384 12.73 4.40999L12.8 5.04999C12.5914 5.13373 12.3747 5.17373 12.15 5.16999C12.0118 5.1743 11.8785 5.15097 11.75 5.09999C11.6425 5.0604 11.5559 4.99373 11.49 4.89999C11.4219 4.80388 11.3819 4.69721 11.37 4.57999C11.3556 4.38666 11.3556 4.19332 11.37 3.99999L11.37 2.68999L11 2.68999L11 1.99999L11.38 1.99999L11.38 1.40999L12.2 0.929993L12.2 1.99999L12.75 1.99999Z"   fill="#000000" >
</path>
</g>
<defs>
<clipPath id="clip-path-dDYZw3YJaCAi-XBRVJUH7">
<path d="M0 6.4L42.48 6.4L42.48 0L0 0L0 6.4Z" fill="white"/>
</clipPath>
</defs>
</svg>
