<svg xmlns="http://www.w3.org/2000/svg" viewBox="0 0 12.44 4.34"><g id="Layer_2" data-name="Layer 2"><g id="oth"><path d="M3.51,4.28H2.6V2.44H.91V4.28H0V0H.91V1.68H2.6V0h.91Z"/><path d="M7.25,2.64a2.11,2.11,0,0,1-.11.73,1.35,1.35,0,0,1-.32.53,1.16,1.16,0,0,1-.5.33,1.69,1.69,0,0,1-.66.11A1.69,1.69,0,0,1,5,4.23a1.29,1.29,0,0,1-.5-.33,1.35,1.35,0,0,1-.32-.53,2.11,2.11,0,0,1-.12-.73,2,2,0,0,1,.19-.92,1.32,1.32,0,0,1,.55-.57A1.68,1.68,0,0,1,5.68,1a1.55,1.55,0,0,1,.81.2,1.4,1.4,0,0,1,.56.57A1.87,1.87,0,0,1,7.25,2.64ZM5,2.64a1.65,1.65,0,0,0,.07.54.62.62,0,0,0,.22.33.6.6,0,0,0,.39.11.6.6,0,0,0,.39-.11.61.61,0,0,0,.21-.33,1.65,1.65,0,0,0,.07-.54,1.65,1.65,0,0,0-.07-.54.58.58,0,0,0-.22-.32.6.6,0,0,0-.39-.11.58.58,0,0,0-.51.24A1.32,1.32,0,0,0,5,2.64Z"/><path d="M10,3.31a.93.93,0,0,1-.16.56.9.9,0,0,1-.47.35,2.11,2.11,0,0,1-.77.12,3.42,3.42,0,0,1-.59,0,2.3,2.3,0,0,1-.49-.15V3.41a3.49,3.49,0,0,0,.57.2,2.28,2.28,0,0,0,.54.08A.65.65,0,0,0,9,3.61a.23.23,0,0,0,.12-.2.25.25,0,0,0-.05-.15.45.45,0,0,0-.19-.15,4.49,4.49,0,0,0-.47-.22,3.42,3.42,0,0,1-.51-.26.85.85,0,0,1-.29-.31,1,1,0,0,1-.1-.46.75.75,0,0,1,.36-.68A1.64,1.64,0,0,1,8.85,1,2.72,2.72,0,0,1,9.43,1a2.16,2.16,0,0,1,.57.2l-.27.64a3.67,3.67,0,0,0-.45-.17,1.35,1.35,0,0,0-.44-.07.78.78,0,0,0-.3,0,.19.19,0,0,0-.1.16A.22.22,0,0,0,8.49,2a.57.57,0,0,0,.2.14l.44.19a4.28,4.28,0,0,1,.48.24.93.93,0,0,1,.32.3A1,1,0,0,1,10,3.31Z"/><path d="M11.87,3.63a1.36,1.36,0,0,0,.29,0l.28-.07v.66a2.22,2.22,0,0,1-.36.11,2.25,2.25,0,0,1-.46,0,1.44,1.44,0,0,1-.53-.09.84.84,0,0,1-.37-.33,1.36,1.36,0,0,1-.13-.66V1.68h-.43V1.3l.5-.3.25-.69h.57V1h.92v.67h-.92V3.26a.36.36,0,0,0,.11.28A.43.43,0,0,0,11.87,3.63Z"/></g></g></svg>