<svg xmlns="http://www.w3.org/2000/svg" xmlns:xlink="http://www.w3.org/1999/xlink" version="1.1" width="12.4375" height="4.34375" viewBox="0 0 12.4375 4.34375">
<defs>
<clipPath id="clip_0">
<path transform="matrix(1,0,0,-1,0,4.34375)" d="M0 4.344H12.438V0H0Z"/>
</clipPath>
</defs>
<path transform="matrix(1,0,0,-1,2.6037,.00034999848)" d="M0 0V-1.68H-1.697V0H-2.604V-4.284H-1.697V-2.436H0V-4.284H.906V0Z" fill="#ffffff"/>
<g clip-path="url(#clip_0)">
<path transform="matrix(1,0,0,-1,4.9911,2.64095)" d="M0 0C0-.216 .023-.396 .069-.543 .115-.688 .188-.799 .288-.872 .389-.946 .519-.983 .679-.983 .838-.983 .968-.946 1.065-.872 1.163-.799 1.235-.688 1.281-.543 1.327-.396 1.351-.216 1.351 0 1.351 .217 1.327 .396 1.281 .54 1.235 .685 1.162 .792 1.062 .864 .962 .937 .832 .973 .672 .973 .437 .973 .266 .892 .159 .729 .054 .567 0 .324 0 0M2.263 0C2.263-.271 2.226-.514 2.151-.726 2.077-.937 1.972-1.116 1.833-1.263 1.695-1.408 1.528-1.519 1.332-1.593 1.137-1.667 .914-1.703 .666-1.703 .438-1.703 .228-1.667 .033-1.593-.161-1.519-.328-1.408-.468-1.263-.607-1.116-.717-.937-.795-.726-.873-.514-.912-.271-.912 0-.912 .364-.848 .672-.72 .922-.592 1.171-.407 1.362-.168 1.494 .072 1.626 .356 1.692 .685 1.692 .992 1.692 1.265 1.626 1.5 1.494 1.736 1.362 1.922 1.171 2.059 .922 2.194 .672 2.263 .364 2.263 0" fill="#ffffff"/>
<path transform="matrix(1,0,0,-1,10.0379,3.3127499)" d="M0 0C0-.22-.052-.407-.156-.561-.26-.715-.416-.832-.624-.912-.832-.991-1.09-1.031-1.397-1.031-1.626-1.031-1.822-1.017-1.986-.986-2.15-.957-2.313-.908-2.478-.84V-.102C-2.302-.182-2.112-.248-1.908-.3-1.704-.352-1.523-.378-1.368-.378-1.192-.378-1.067-.352-.993-.3-.919-.248-.882-.18-.882-.096-.882-.04-.896 .011-.927 .055-.957 .099-1.021 .148-1.122 .204-1.222 .261-1.378 .332-1.59 .42-1.794 .508-1.962 .596-2.094 .682-2.226 .768-2.324 .871-2.388 .993-2.452 1.115-2.484 1.269-2.484 1.452-2.484 1.756-2.366 1.984-2.13 2.137-1.894 2.288-1.58 2.364-1.187 2.364-.984 2.364-.79 2.345-.605 2.305-.422 2.265-.232 2.198-.036 2.106L-.306 1.464C-.466 1.532-.618 1.589-.762 1.636-.906 1.682-1.052 1.704-1.2 1.704-1.332 1.704-1.431 1.687-1.497 1.65-1.562 1.614-1.596 1.561-1.596 1.488-1.596 1.437-1.579 1.39-1.545 1.348-1.511 1.306-1.445 1.261-1.347 1.212-1.249 1.164-1.104 1.101-.912 1.021-.724 .944-.562 .865-.426 .783-.29 .701-.185 .6-.111 .478-.037 .355 0 .196 0 0" fill="#ffffff"/>
<path transform="matrix(1,0,0,-1,11.8729,3.63015)" d="M0 0C.101 0 .196 .01 .288 .029 .38 .05 .473 .073 .564 .102V-.564C.469-.604 .35-.64 .207-.669 .065-.699-.09-.714-.258-.714-.454-.714-.629-.683-.782-.618-.937-.555-1.059-.443-1.148-.285-1.238-.127-1.283 .092-1.283 .372V1.949H-1.71V2.328L-1.218 2.628-.96 3.317H-.39V2.622H.528V1.949H-.39V.372C-.39 .248-.354 .154-.281 .093-.21 .03-.115 0 0 0" fill="#ffffff"/>
</g>
</svg>
