<svg xmlns="http://www.w3.org/2000/svg" viewBox="0 0 15.28 5.72"><g id="Layer_2" data-name="Layer 2"><g id="oth"><path d="M2,4.28H0V3.77l.52-.24V.76L0,.52V0H2V.52L1.43.76V3.53L2,3.77Z"/><path d="M4.23,1a1.25,1.25,0,0,1,.85.28,1.19,1.19,0,0,1,.31.92V4.28H4.5V2.37a.86.86,0,0,0-.13-.53A.44.44,0,0,0,4,1.66a.57.57,0,0,0-.56.28,1.72,1.72,0,0,0-.15.8V4.28H2.37V1h.68l.12.42h.05a.87.87,0,0,1,.27-.27A.89.89,0,0,1,3.83,1,1.33,1.33,0,0,1,4.23,1Z"/><path d="M7.9,1a1.08,1.08,0,0,1,.89.43,2,2,0,0,1,.34,1.26A2.37,2.37,0,0,1,9,3.58a1.36,1.36,0,0,1-.44.57,1.14,1.14,0,0,1-.66.19,1.2,1.2,0,0,1-.4-.06,1,1,0,0,1-.29-.15A1.39,1.39,0,0,1,7,3.92h0a2,2,0,0,1,0,.24A1.94,1.94,0,0,1,7,4.4V5.72h-.9V1H6.8l.12.42H7a2.25,2.25,0,0,1,.21-.24A1.49,1.49,0,0,1,7.48,1,1.33,1.33,0,0,1,7.9,1Zm-.29.71a.58.58,0,0,0-.37.1A.54.54,0,0,0,7,2.05,1.68,1.68,0,0,0,7,2.54v.09A2,2,0,0,0,7,3.17a.55.55,0,0,0,.2.33.61.61,0,0,0,.39.12A.49.49,0,0,0,8,3.5a.66.66,0,0,0,.19-.33,1.73,1.73,0,0,0,.07-.54,1.38,1.38,0,0,0-.15-.72A.49.49,0,0,0,7.61,1.66Z"/><path d="M12.63,1V4.28H12l-.12-.42h-.05a.78.78,0,0,1-.26.28,1,1,0,0,1-.35.15,1.31,1.31,0,0,1-.39,0,1.49,1.49,0,0,1-.62-.12,1,1,0,0,1-.41-.39,1.54,1.54,0,0,1-.14-.69V1h.89V2.92a1,1,0,0,0,.13.53.45.45,0,0,0,.4.18.61.61,0,0,0,.43-.13.65.65,0,0,0,.22-.36,2.49,2.49,0,0,0,.06-.59V1Z"/><path d="M14.71,3.63a1.36,1.36,0,0,0,.29,0l.28-.07v.66a2.22,2.22,0,0,1-.36.11,2.29,2.29,0,0,1-.47,0,1.42,1.42,0,0,1-.52-.09.79.79,0,0,1-.37-.33,1.36,1.36,0,0,1-.13-.66V1.68H13V1.3l.49-.3.26-.69h.57V1h.92v.67h-.92V3.26a.36.36,0,0,0,.11.28A.43.43,0,0,0,14.71,3.63Z"/></g></g></svg>