<svg xmlns="http://www.w3.org/2000/svg" viewBox="0 0 17.34 7.84"><g id="Layer_2" data-name="Layer 2"><g id="oth"><path d="M9.85,7.72H1.32A1.32,1.32,0,0,1,0,6.4V1.66A1.32,1.32,0,0,1,1.32.34H9.85a1.32,1.32,0,0,1,1.32,1.32V6.4A1.32,1.32,0,0,1,9.85,7.72ZM1.32,1.09a.58.58,0,0,0-.57.57V6.4A.58.58,0,0,0,1.32,7H9.85a.57.57,0,0,0,.57-.57V1.66a.57.57,0,0,0-.57-.57Z"/><rect x="3.69" y="5.08" width="3.79" height="0.75"/><rect x="2.27" y="3.66" width="0.95" height="0.75"/><rect x="4.17" y="3.66" width="0.95" height="0.75"/><rect x="6.06" y="3.66" width="0.95" height="0.75"/><rect x="7.95" y="3.66" width="0.95" height="0.75"/><rect x="2.27" y="2.23" width="0.95" height="0.75"/><rect x="4.17" y="2.23" width="0.95" height="0.75"/><rect x="6.06" y="2.23" width="0.95" height="0.75"/><rect x="7.95" y="2.23" width="0.95" height="0.75"/><polygon points="17.34 3.58 11.63 3.58 11.63 2.83 14.11 2.83 14.11 0.18 14.86 0.18 14.86 2.83 17.34 2.83 17.34 3.58"/><path d="M14.49,7.84A2.86,2.86,0,0,1,11.63,5V2.86a2.86,2.86,0,1,1,5.71,0V5A2.86,2.86,0,0,1,14.49,7.84Zm0-7.09a2.11,2.11,0,0,0-2.11,2.11V5a2.11,2.11,0,1,0,4.21,0V2.86A2.1,2.1,0,0,0,14.49.75Z"/></g></g></svg>