<svg xmlns="http://www.w3.org/2000/svg" viewBox="0 0 17.53 18.43"><defs><style>.cls-1{fill-rule:evenodd;}</style></defs><g id="Layer_2" data-name="Layer 2"><g id="oth"><path d="M15.51,5.86l-1.68-.31a.11.11,0,0,1-.09-.08l-.52-1.2a.15.15,0,0,1,0-.13l1-1.42a.11.11,0,0,0,0-.12L13,1.39a.09.09,0,0,0-.12,0l-1.44,1a.15.15,0,0,1-.13,0L10.13,1.9A.14.14,0,0,1,10,1.81L9.72.07A.1.1,0,0,0,9.63,0H7.91a.08.08,0,0,0-.09.07L7.49,1.81a.11.11,0,0,1-.08.09l-1.16.48a.15.15,0,0,1-.13,0l-1.45-1a.08.08,0,0,0-.11,0L3.34,2.6a.11.11,0,0,0,0,.12l1,1.42a.12.12,0,0,1,0,.13L3.8,5.47a.12.12,0,0,1-.1.08L2,5.86A.11.11,0,0,0,2,6V7.68A.11.11,0,0,0,2,7.77l1.63.3a.2.2,0,0,1,.1.08l.51,1.28a.2.2,0,0,1,0,.13l-.93,1.35a.08.08,0,0,0,0,.11l1.22,1.22a.08.08,0,0,0,.11,0L6,11.34a.15.15,0,0,1,.13,0l.58.31a.08.08,0,0,0,.1,0L8,8.7a.09.09,0,0,0,0-.11L7.83,8.5l-.09-.07a1.91,1.91,0,1,1,2,0L9.7,8.5l-.15.09a.09.09,0,0,0,0,.11l1.21,2.92a.06.06,0,0,0,.09,0l.59-.31a.13.13,0,0,1,.12,0l1.33.91a.09.09,0,0,0,.12,0L14.19,11a.09.09,0,0,0,0-.11l-.93-1.35a.12.12,0,0,1,0-.13l.51-1.28a.14.14,0,0,1,.1-.08l1.63-.3a.1.1,0,0,0,.07-.09V6a.1.1,0,0,0-.07-.09"/><path class="cls-1" d="M4.64,18.4H5V17.16c0-.45-.31-.61-.76-.61a.7.7,0,0,0-.62.27l.29.22c.07-.1.16-.14.35-.14s.37.06.37.23v.2H4.13a.53.53,0,0,0-.59.54.58.58,0,0,0,.64.56c.25,0,.38-.06.45-.19h0Zm0-.64c0,.29-.1.32-.41.32s-.35-.11-.35-.23.11-.22.32-.22h.44Z"/><path class="cls-1" d="M5.41,18.4h.37V17.3a.35.35,0,0,1,.36-.38.4.4,0,0,1,.24.09l.27-.32a.69.69,0,0,0-.39-.14.59.59,0,0,0-.47.22h0v-.19H5.41Z"/><path class="cls-1" d="M7.75,18.4h.36V15.84H7.75v.93a.69.69,0,0,0-.48-.22.6.6,0,0,0-.49.24c-.1.13-.13.25-.13.7s0,.57.13.7a.63.63,0,0,0,.49.24.66.66,0,0,0,.48-.22Zm-.36-1.48c.34,0,.36.3.36.57s0,.57-.36.57S7,17.77,7,17.49s0-.57.37-.57"/><polygon class="cls-1" points="9.99 18.4 10.32 18.4 10.9 16.58 10.51 16.58 10.16 17.86 10.15 17.86 9.74 16.58 9.47 16.58 9.06 17.86 9.05 17.86 8.7 16.58 8.31 16.58 8.89 18.4 9.22 18.4 9.6 17.12 9.61 17.12 9.99 18.4"/><path class="cls-1" d="M12,18.4h.37V17.16c0-.45-.31-.61-.76-.61a.7.7,0,0,0-.62.27l.29.22c.07-.1.16-.14.35-.14s.37.06.37.23v.2h-.51a.53.53,0,0,0-.59.54.58.58,0,0,0,.64.56c.25,0,.38-.06.45-.19h0Zm0-.64c0,.29-.1.32-.41.32s-.35-.11-.35-.23.11-.22.32-.22H12Z"/><path class="cls-1" d="M12.8,18.4h.37V17.3a.35.35,0,0,1,.36-.38.4.4,0,0,1,.24.09l.27-.32a.69.69,0,0,0-.39-.14.59.59,0,0,0-.47.22h0v-.19H12.8Z"/><path class="cls-1" d="M15.55,17.63v-.3a.74.74,0,0,0-.75-.78c-.36,0-.76.23-.76.94s.44.94.81.94a.84.84,0,0,0,.66-.3l-.26-.23a.59.59,0,0,1-.4.18.41.41,0,0,1-.44-.45Zm-1.14-.3a.39.39,0,0,1,.39-.43c.21,0,.37.15.38.43Z"/><path class="cls-1" d="M0,14.6a.87.87,0,0,0,.2.7.68.68,0,0,0,.55.24.69.69,0,0,0,.56-.24.87.87,0,0,0,.2-.7.9.9,0,0,0-.2-.7.72.72,0,0,0-.56-.23.71.71,0,0,0-.55.23.9.9,0,0,0-.2.7m1.14,0c0,.27,0,.34-.09.44a.4.4,0,0,1-.3.13A.38.38,0,0,1,.46,15c-.07-.1-.09-.17-.09-.44s0-.33.09-.43A.36.36,0,0,1,.75,14a.38.38,0,0,1,.3.14c.07.1.09.17.09.43"/><path class="cls-1" d="M5,14.74v-.3a.74.74,0,0,0-.76-.77c-.35,0-.75.23-.75.94s.44.93.81.93a.84.84,0,0,0,.66-.3L4.73,15a.58.58,0,0,1-.4.17.4.4,0,0,1-.43-.45Zm-1.14-.3A.38.38,0,0,1,4.28,14a.39.39,0,0,1,.39.43Z"/><path class="cls-1" d="M5.35,15.52h.37V14.43a.36.36,0,1,1,.72,0v1.09h.37V14.3a.62.62,0,0,0-1.09-.42h0v-.19H5.35Z"/><path class="cls-1" d="M7.8,15.21a1.17,1.17,0,0,0,.81.33c.42,0,.76-.21.76-.56a.51.51,0,0,0-.53-.55l-.31,0c-.18,0-.24-.1-.24-.18S8.37,14,8.6,14a.86.86,0,0,1,.5.17l.22-.26a1,1,0,0,0-.72-.25c-.38,0-.68.19-.68.56a.53.53,0,0,0,.53.52l.32,0c.13,0,.23.05.23.18s-.15.23-.36.23A.78.78,0,0,1,8.06,15Z"/><path class="cls-1" d="M9.57,14.6a.87.87,0,0,0,.2.7.69.69,0,0,0,.56.24.68.68,0,0,0,.55-.24.87.87,0,0,0,.2-.7.9.9,0,0,0-.2-.7.71.71,0,0,0-.55-.23.72.72,0,0,0-.56.23.9.9,0,0,0-.2.7m1.14,0c0,.27,0,.34-.09.44a.38.38,0,0,1-.29.13A.4.4,0,0,1,10,15c-.07-.1-.09-.17-.09-.44s0-.33.09-.43a.38.38,0,0,1,.3-.14.36.36,0,0,1,.29.14c.07.1.09.17.09.43"/><path class="cls-1" d="M11.4,14.9a.61.61,0,0,0,.61.64.56.56,0,0,0,.47-.22h0v.2h.37V13.69h-.37v1.09a.37.37,0,1,1-.73,0V13.69H11.4Z"/><path class="cls-1" d="M13.26,15.52h.37v-1.1A.35.35,0,0,1,14,14a.36.36,0,0,1,.24.09l.27-.31a.57.57,0,0,0-.38-.14.61.61,0,0,0-.48.21h0v-.19h-.37Z"/><path class="cls-1" d="M15.66,15a.48.48,0,0,1-.37.19c-.3,0-.47-.17-.47-.57S15,14,15.29,14a.46.46,0,0,1,.37.2l.27-.25a.86.86,0,0,0-.65-.31.82.82,0,0,0-.83.93.83.83,0,0,0,.83.94.87.87,0,0,0,.65-.32Z"/><path class="cls-1" d="M17.53,14.74v-.3a.74.74,0,0,0-.75-.77c-.35,0-.75.23-.75.94s.43.93.81.93a.85.85,0,0,0,.66-.3L17.23,15a.58.58,0,0,1-.4.17.41.41,0,0,1-.44-.45Zm-1.14-.3a.39.39,0,1,1,.78,0Z"/><path d="M2.55,15.17c.35,0,.36-.28.36-.57s0-.57-.36-.57-.36.31-.36.57,0,.57.36.57M1.82,18.4V13.69h.37v.19a.63.63,0,0,1,1,0c.1.13.13.25.13.7s0,.57-.13.7a.59.59,0,0,1-.49.24.67.67,0,0,1-.47-.22v1.45a.62.62,0,0,1,.48-.22.61.61,0,0,1,.61.64V18.4H2.91V17.31a.36.36,0,1,0-.72,0V18.4Z"/></g></g></svg>