<svg xmlns="http://www.w3.org/2000/svg" xmlns:xlink="http://www.w3.org/1999/xlink" version="1.1" width="11.0342" height="4.61914" viewBox="0 0 11.0342 4.61914">
<defs>
<clipPath id="clip_0">
<path transform="matrix(1,0,0,-1,0,4.61914)" d="M0 4.619H11.034V0H0Z"/>
</clipPath>
</defs>
<g clip-path="url(#clip_0)">
<path transform="matrix(1,0,0,-1,1.3202,1.0198403)" d="M0 0H-.414V-1.272H-.114C.058-1.272 .206-1.25 .33-1.206 .453-1.162 .55-1.092 .617-.996 .686-.9 .72-.776 .72-.624 .72-.412 .661-.255 .546-.153 .43-.051 .248 0 0 0M.048 .744C.6 .744 1.003 .625 1.257 .387 1.511 .149 1.638-.178 1.638-.594 1.638-.782 1.609-.961 1.554-1.131 1.498-1.301 1.404-1.453 1.274-1.587 1.145-1.721 .974-1.826 .762-1.902 .55-1.979 .288-2.016-.024-2.016H-.414V-3.54H-1.32V.744Z" fill="#ffffff"/>
<path transform="matrix(1,0,0,-1,0,4.61914)" d="M4.35 .059H3.455V3.335H4.35ZM3.906 4.619C4.038 4.619 4.152 4.589 4.248 4.526 4.345 4.465 4.392 4.349 4.392 4.181 4.392 4.017 4.345 3.903 4.248 3.84 4.152 3.775 4.038 3.743 3.906 3.743 3.77 3.743 3.655 3.775 3.561 3.84 3.467 3.903 3.42 4.017 3.42 4.181 3.42 4.349 3.467 4.465 3.561 4.526 3.655 4.589 3.77 4.619 3.906 4.619" fill="#ffffff"/>
<path transform="matrix(1,0,0,-1,6.9061,1.2239401)" d="M0 0C.352 0 .634-.095 .846-.285 1.058-.475 1.164-.78 1.164-1.2V-3.336H.27V-1.422C.27-1.186 .228-1.009 .144-.891 .06-.773-.074-.714-.258-.714-.53-.714-.716-.807-.816-.993-.916-1.179-.966-1.446-.966-1.794V-3.336H-1.86V-.06H-1.176L-1.056-.479H-1.008C-.937-.368-.849-.277-.744-.207-.641-.137-.524-.085-.396-.051-.269-.017-.136 0 0 0" fill="#ffffff"/>
<path transform="matrix(1,0,0,-1,11.034,3.58814)" d="M0 0C0-.22-.052-.407-.156-.561-.26-.715-.416-.832-.624-.912-.832-.991-1.09-1.031-1.397-1.031-1.626-1.031-1.822-1.017-1.986-.986-2.15-.957-2.313-.908-2.478-.84V-.102C-2.302-.182-2.112-.248-1.908-.3-1.704-.352-1.523-.378-1.368-.378-1.192-.378-1.067-.352-.993-.3-.919-.248-.882-.18-.882-.096-.882-.04-.896 .011-.927 .055-.957 .099-1.021 .148-1.122 .204-1.222 .261-1.378 .332-1.59 .42-1.794 .508-1.962 .596-2.094 .682-2.226 .768-2.324 .871-2.388 .993-2.452 1.115-2.484 1.269-2.484 1.452-2.484 1.756-2.366 1.984-2.13 2.137-1.894 2.288-1.58 2.364-1.187 2.364-.984 2.364-.79 2.345-.605 2.305-.422 2.265-.232 2.198-.036 2.106L-.306 1.464C-.466 1.532-.618 1.589-.762 1.636-.906 1.682-1.052 1.704-1.2 1.704-1.332 1.704-1.431 1.687-1.497 1.65-1.562 1.614-1.596 1.561-1.596 1.488-1.596 1.437-1.579 1.39-1.545 1.348-1.511 1.306-1.445 1.261-1.347 1.212-1.249 1.164-1.104 1.101-.912 1.021-.724 .944-.562 .865-.426 .783-.29 .701-.185 .6-.111 .478-.037 .355 0 .196 0 0" fill="#ffffff"/>
</g>
</svg>
