<svg xmlns="http://www.w3.org/2000/svg" xmlns:xlink="http://www.w3.org/1999/xlink" version="1.1" width="17.7178" height="5.72461" viewBox="0 0 17.7178 5.72461">
<defs>
<clipPath id="clip_0">
<path transform="matrix(1,0,0,-1,0,5.72461)" d="M0 5.725H17.718V0H0Z"/>
</clipPath>
</defs>
<path transform="matrix(1,0,0,-1,0,.0006098747)" d="M0 0V-.755H1.164V-4.284H2.07V-.755H3.233V0Z" fill="#ffffff"/>
<g clip-path="url(#clip_0)">
<path transform="matrix(1,0,0,-1,4.5721,2.7786098)" d="M0 0C-.288-.008-.488-.06-.601-.156-.713-.252-.769-.378-.769-.534-.769-.67-.729-.767-.648-.825-.568-.883-.465-.912-.337-.912-.145-.912 .018-.854 .149-.741 .281-.627 .348-.466 .348-.258V.012ZM-.127 1.836C.313 1.836 .65 1.741 .885 1.551 1.118 1.361 1.235 1.07 1.235 .678V-1.506H.611L.437-1.062H.413C.321-1.178 .227-1.273 .129-1.35 .03-1.426-.081-1.48-.207-1.515-.333-1.549-.488-1.565-.673-1.565-.864-1.565-1.037-1.529-1.191-1.455-1.346-1.381-1.467-1.267-1.555-1.113-1.643-.959-1.687-.764-1.687-.528-1.687-.18-1.564 .077-1.32 .243-1.076 .409-.711 .5-.223 .517L.348 .534V.678C.348 .85 .303 .977 .213 1.056 .122 1.136-.003 1.176-.162 1.176-.322 1.176-.479 1.153-.631 1.107-.782 1.062-.935 1.004-1.087 .937L-1.381 1.542C-1.204 1.634-1.01 1.706-.796 1.758-.581 1.811-.358 1.836-.127 1.836" fill="#ffffff"/>
<path transform="matrix(1,0,0,-1,8.3153,.9485097)" d="M0 0C.044 0 .096-.002 .156-.006 .216-.01 .264-.016 .3-.024L.234-.864C.206-.856 .165-.849 .111-.843 .058-.837 .01-.834-.03-.834-.146-.834-.258-.849-.366-.879-.474-.909-.571-.956-.657-1.02-.743-1.084-.811-1.169-.861-1.275-.911-1.381-.936-1.512-.936-1.668V-3.336H-1.83V-.06H-1.151L-1.02-.612H-.978C-.914-.5-.834-.398-.738-.306-.642-.214-.531-.14-.405-.084-.279-.028-.144 0 0 0" fill="#ffffff"/>
<path transform="matrix(1,0,0,-1,10.2528,1.6741099)" d="M0 0C-.14 0-.257-.037-.351-.111-.444-.186-.515-.295-.561-.441-.606-.588-.63-.771-.63-.99-.63-1.318-.577-1.563-.474-1.726-.369-1.888-.208-1.969 .013-1.969 .129-1.969 .229-1.953 .312-1.924 .396-1.894 .466-1.844 .52-1.773 .573-1.703 .614-1.612 .643-1.5 .671-1.389 .685-1.252 .685-1.093V-.984C.685-.748 .66-.559 .612-.414 .564-.271 .49-.165 .391-.1 .29-.033 .16 0 0 0M-.281 .726C-.082 .726 .099 .686 .259 .605 .418 .525 .555 .405 .666 .246H.69L.763 .666H1.519V-2.616C1.519-2.929 1.457-3.19 1.336-3.402 1.214-3.614 1.03-3.775 .786-3.886 .542-3.995 .24-4.051-.119-4.051-.352-4.051-.566-4.036-.765-4.009-.963-3.98-1.155-3.931-1.344-3.858V-3.145C-1.144-3.229-.937-3.291-.723-3.333-.509-3.375-.29-3.396-.065-3.396 .166-3.396 .34-3.334 .453-3.21 .567-3.086 .624-2.9 .624-2.652V-2.586C.624-2.519 .628-2.448 .634-2.376 .64-2.305 .645-2.24 .648-2.185H.624C.513-2.356 .379-2.48 .223-2.557 .066-2.632-.109-2.67-.306-2.67-.693-2.67-.996-2.521-1.215-2.224-1.433-1.926-1.542-1.511-1.542-.979-1.542-.442-1.43-.024-1.205 .275-.981 .575-.674 .726-.281 .726" fill="#ffffff"/>
<path transform="matrix(1,0,0,-1,13.8241,1.58431)" d="M0 0C-.172 0-.315-.057-.43-.168-.543-.28-.61-.454-.63-.69H.624C.624-.559 .601-.44 .555-.336 .509-.232 .439-.15 .348-.09 .256-.03 .14 0 0 0M-.006 .636C.298 .636 .559 .578 .776 .462 .995 .346 1.164 .178 1.284-.042 1.403-.263 1.464-.532 1.464-.853V-1.284H-.648C-.641-1.536-.565-1.734-.423-1.878-.281-2.022-.084-2.094 .168-2.094 .38-2.094 .571-2.073 .744-2.031 .916-1.989 1.094-1.924 1.277-1.836V-2.526C1.118-2.606 .948-2.665 .771-2.703 .593-2.741 .378-2.76 .126-2.76-.202-2.76-.492-2.699-.744-2.577-.996-2.455-1.194-2.271-1.338-2.022-1.482-1.774-1.555-1.462-1.555-1.086-1.555-.702-1.489-.383-1.359-.129-1.229 .125-1.048 .315-.816 .443-.584 .571-.314 .636-.006 .636" fill="#ffffff"/>
<path transform="matrix(1,0,0,-1,17.1532,3.63021)" d="M0 0C.101 0 .196 .01 .288 .029 .38 .05 .473 .073 .564 .102V-.564C.469-.604 .35-.64 .207-.669 .065-.699-.09-.714-.258-.714-.454-.714-.629-.683-.782-.618-.937-.555-1.059-.443-1.148-.285-1.238-.127-1.283 .092-1.283 .372V1.949H-1.71V2.328L-1.218 2.628-.96 3.317H-.39V2.622H.528V1.949H-.39V.372C-.39 .248-.354 .154-.281 .093-.21 .03-.115 0 0 0" fill="#ffffff"/>
</g>
</svg>
