<?xml version="1.0" encoding="UTF-8" standalone="no"?>
<svg
   xmlns:dc="http://purl.org/dc/elements/1.1/"
   xmlns:cc="http://creativecommons.org/ns#"
   xmlns:rdf="http://www.w3.org/1999/02/22-rdf-syntax-ns#"
   xmlns:svg="http://www.w3.org/2000/svg"
   xmlns="http://www.w3.org/2000/svg"
   viewBox="0 0 40.471867 9.4488134"
   height="9.4488134"
   width="40.471867"
   xml:space="preserve"
   id="svg2"
   version="1.1"><metadata
     id="metadata8"><rdf:RDF><cc:Work
         rdf:about=""><dc:format>image/svg+xml</dc:format><dc:type
           rdf:resource="http://purl.org/dc/dcmitype/StillImage" /></cc:Work></rdf:RDF></metadata><defs
     id="defs6"><clipPath
       id="clipPath22"
       clipPathUnits="userSpaceOnUse"><path
         id="path20"
         d="M 0,7.087 H 30.354 V 0 H 0 Z" /></clipPath></defs><g
     transform="matrix(1.3333333,0,0,-1.3333333,0,9.4488133)"
     id="g10"><g
       transform="translate(5.8857,2.8506)"
       id="g12"><path
         id="path14"
         style="fill:#ffffff;fill-opacity:1;fill-rule:nonzero;stroke:none"
         d="M 0,0 H -0.6 V 1.223 H -1.723 V 0 h -0.599 v 2.835 h 0.599 V 1.724 H -0.6 V 2.835 H 0 Z" /></g><g
       id="g16"><g
         clip-path="url(#clipPath22)"
         id="g18"><g
           transform="translate(-1e-4,0.8857)"
           id="g24"><path
             id="path26"
             style="fill:#ffffff;fill-opacity:1;fill-rule:nonzero;stroke:none"
             d="m 0,0 h 9.449 c 0,-0.489 -0.396,-0.886 -0.886,-0.886 H 0.886 C 0.396,-0.886 0,-0.489 0,0 m 1.477,6.201 c -0.49,0 -0.886,-0.396 -0.886,-0.886 v -5.02 h 8.267 v 5.02 c 0,0.49 -0.396,0.886 -0.885,0.886 z M 7.973,5.61 c 0.163,0 0.295,-0.131 0.295,-0.295 V 0.886 H 1.182 v 4.429 c 0,0.164 0.131,0.295 0.295,0.295 z" /></g><g
           transform="translate(15.1689,3.3838)"
           id="g28"><path
             id="path30"
             style="fill:#ffffff;fill-opacity:1;fill-rule:evenodd;stroke:none"
             d="m 0,0 c -0.005,-0.053 -0.013,-0.105 -0.023,-0.157 -0.01,-0.053 -0.024,-0.104 -0.039,-0.155 -0.015,-0.051 -0.034,-0.101 -0.054,-0.15 -0.02,-0.05 -0.042,-0.098 -0.068,-0.144 -0.025,-0.047 -0.052,-0.092 -0.083,-0.137 -0.029,-0.045 -0.06,-0.088 -0.093,-0.128 -0.035,-0.042 -0.071,-0.08 -0.108,-0.118 -0.038,-0.037 -0.076,-0.074 -0.118,-0.108 -0.041,-0.033 -0.084,-0.065 -0.128,-0.094 -0.045,-0.03 -0.091,-0.057 -0.138,-0.082 -0.045,-0.026 -0.093,-0.048 -0.143,-0.069 -0.049,-0.019 -0.099,-0.038 -0.151,-0.054 -0.05,-0.014 -0.101,-0.028 -0.154,-0.038 -0.052,-0.01 -0.104,-0.018 -0.157,-0.023 -0.053,-0.005 -0.107,-0.008 -0.16,-0.008 -0.053,0 -0.107,0.003 -0.159,0.008 -0.053,0.005 -0.106,0.013 -0.158,0.023 -0.052,0.01 -0.103,0.024 -0.154,0.038 -0.052,0.016 -0.101,0.035 -0.15,0.054 -0.05,0.021 -0.098,0.043 -0.145,0.069 -0.047,0.025 -0.092,0.052 -0.137,0.082 -0.043,0.029 -0.086,0.061 -0.127,0.094 -0.042,0.034 -0.081,0.071 -0.119,0.108 -0.037,0.038 -0.074,0.076 -0.107,0.118 -0.033,0.04 -0.065,0.083 -0.095,0.128 -0.029,0.045 -0.056,0.09 -0.082,0.137 -0.025,0.046 -0.048,0.094 -0.068,0.144 -0.02,0.049 -0.038,0.099 -0.054,0.15 -0.015,0.051 -0.028,0.102 -0.038,0.155 -0.011,0.052 -0.019,0.104 -0.023,0.157 -0.005,0.053 -0.008,0.106 -0.008,0.159 0,0.053 0.003,0.108 0.008,0.16 0.004,0.053 0.012,0.106 0.023,0.158 0.01,0.052 0.023,0.103 0.038,0.154 0.016,0.052 0.034,0.101 0.054,0.15 0.02,0.05 0.043,0.098 0.068,0.145 0.026,0.046 0.053,0.092 0.082,0.136 0.03,0.044 0.062,0.087 0.095,0.128 0.033,0.042 0.07,0.081 0.107,0.119 0.038,0.037 0.077,0.073 0.119,0.107 0.041,0.033 0.084,0.064 0.127,0.094 0.045,0.03 0.09,0.057 0.137,0.083 0.047,0.025 0.095,0.048 0.145,0.067 0.049,0.021 0.098,0.039 0.15,0.055 0.051,0.014 0.102,0.028 0.154,0.038 0.052,0.01 0.105,0.018 0.158,0.023 0.052,0.005 0.106,0.008 0.159,0.008 0.053,0 0.107,-0.003 0.16,-0.008 C -1.404,1.771 -1.352,1.763 -1.3,1.753 -1.247,1.743 -1.196,1.729 -1.146,1.715 -1.094,1.699 -1.044,1.681 -0.995,1.66 -0.945,1.641 -0.897,1.618 -0.852,1.593 -0.805,1.567 -0.759,1.54 -0.714,1.51 -0.67,1.48 -0.627,1.449 -0.586,1.416 -0.544,1.382 -0.506,1.346 -0.468,1.309 -0.431,1.271 -0.395,1.232 -0.36,1.19 -0.327,1.149 -0.296,1.106 -0.267,1.062 -0.236,1.018 -0.209,0.972 -0.184,0.926 -0.158,0.879 -0.136,0.831 -0.116,0.781 -0.096,0.732 -0.077,0.683 -0.062,0.631 -0.047,0.58 -0.033,0.529 -0.023,0.477 -0.013,0.425 -0.005,0.372 0,0.319 0.005,0.267 0.008,0.212 0.008,0.159 0.008,0.106 0.005,0.053 0,0 M 4.763,0.299 C 4.76,0.345 4.757,0.392 4.752,0.437 4.748,0.483 4.742,0.53 4.735,0.576 4.729,0.621 4.721,0.667 4.711,0.712 4.702,0.759 4.691,0.804 4.682,0.849 4.67,0.893 4.657,0.938 4.644,0.982 4.631,1.026 4.615,1.071 4.601,1.114 4.585,1.158 4.567,1.201 4.55,1.245 4.532,1.287 4.514,1.33 4.493,1.371 4.474,1.413 4.453,1.455 4.432,1.495 4.409,1.537 4.387,1.577 4.362,1.617 4.339,1.656 4.313,1.695 4.288,1.734 4.263,1.772 4.235,1.811 4.208,1.848 4.181,1.885 4.151,1.923 4.122,1.958 4.093,1.994 4.062,2.028 4.032,2.063 4,2.098 3.968,2.132 3.936,2.164 3.902,2.197 3.869,2.229 3.835,2.26 3.801,2.291 3.766,2.321 3.729,2.352 3.693,2.38 3.657,2.409 3.62,2.437 3.583,2.464 3.545,2.491 3.506,2.517 3.468,2.542 3.429,2.567 3.389,2.591 3.349,2.615 3.309,2.638 3.268,2.659 3.227,2.682 3.186,2.702 3.144,2.723 3.101,2.742 3.06,2.761 3.016,2.778 2.974,2.796 2.93,2.813 2.887,2.828 2.842,2.845 2.799,2.858 2.755,2.872 2.709,2.886 2.665,2.897 2.62,2.909 2.575,2.921 2.529,2.931 2.484,2.94 2.439,2.949 2.394,2.957 2.347,2.963 2.301,2.971 2.255,2.976 2.209,2.98 2.163,2.985 2.117,2.989 2.07,2.99 2.023,2.993 1.978,2.994 1.932,2.994 H -1.915 C -1.963,2.994 -2.009,2.993 -2.055,2.99 -2.102,2.989 -2.147,2.985 -2.193,2.98 -2.239,2.976 -2.286,2.971 -2.332,2.963 -2.378,2.957 -2.423,2.949 -2.469,2.94 -2.515,2.931 -2.56,2.921 -2.604,2.909 -2.649,2.897 -2.694,2.886 -2.738,2.872 -2.783,2.858 -2.827,2.845 -2.87,2.828 -2.915,2.813 -2.957,2.796 -3.001,2.778 -3.043,2.761 -3.086,2.742 -3.127,2.723 -3.17,2.702 -3.212,2.682 -3.252,2.659 -3.293,2.638 -3.333,2.615 -3.373,2.591 -3.412,2.567 -3.452,2.542 -3.49,2.517 -3.529,2.491 -3.566,2.464 -3.604,2.437 -3.642,2.409 -3.679,2.38 -3.714,2.352 -3.75,2.321 -3.784,2.291 -3.819,2.26 -3.854,2.229 -3.888,2.197 -3.92,2.164 -3.953,2.132 -3.984,2.098 -4.016,2.063 -4.047,2.028 -4.078,1.994 -4.107,1.958 -4.137,1.923 -4.165,1.885 -4.193,1.848 -4.221,1.811 -4.247,1.772 -4.272,1.734 -4.299,1.695 -4.323,1.656 -4.347,1.617 -4.371,1.577 -4.395,1.537 -4.415,1.495 -4.437,1.455 -4.459,1.413 -4.479,1.371 -4.498,1.33 -4.518,1.287 -4.535,1.245 -4.553,1.201 -4.569,1.158 -4.585,1.114 -4.601,1.071 -4.614,1.026 -4.628,0.982 -4.643,0.938 -4.654,0.893 -4.665,0.849 -4.677,0.804 -4.687,0.759 -4.696,0.712 -4.705,0.667 -4.713,0.621 -4.72,0.576 -4.727,0.53 -4.732,0.483 -4.737,0.437 -4.741,0.392 -4.745,0.345 -4.747,0.299 -4.749,0.253 -4.75,0.206 -4.75,0.159 c 0,-0.046 0.001,-0.093 0.003,-0.138 0.002,-0.046 0.006,-0.093 0.01,-0.139 0.005,-0.047 0.01,-0.093 0.017,-0.139 0.007,-0.045 0.015,-0.091 0.024,-0.137 0.009,-0.045 0.019,-0.09 0.031,-0.135 0.011,-0.045 0.022,-0.09 0.037,-0.134 0.014,-0.045 0.027,-0.089 0.043,-0.132 0.016,-0.044 0.032,-0.087 0.05,-0.131 0.017,-0.042 0.037,-0.085 0.056,-0.127 0.02,-0.042 0.042,-0.083 0.064,-0.123 0.02,-0.042 0.044,-0.082 0.068,-0.122 0.024,-0.04 0.048,-0.078 0.075,-0.117 0.025,-0.038 0.051,-0.076 0.079,-0.114 0.028,-0.037 0.056,-0.075 0.086,-0.11 0.029,-0.036 0.06,-0.071 0.091,-0.105 0.032,-0.034 0.063,-0.068 0.096,-0.101 0.032,-0.033 0.066,-0.065 0.101,-0.095 0.035,-0.032 0.069,-0.062 0.105,-0.092 0.035,-0.03 0.072,-0.058 0.11,-0.085 0.038,-0.028 0.075,-0.055 0.114,-0.08 0.038,-0.027 0.078,-0.051 0.117,-0.075 0.04,-0.024 0.08,-0.046 0.121,-0.068 0.04,-0.022 0.082,-0.043 0.125,-0.063 0.041,-0.02 0.084,-0.038 0.126,-0.056 0.044,-0.018 0.086,-0.034 0.131,-0.051 0.043,-0.015 0.087,-0.029 0.132,-0.043 0.044,-0.013 0.089,-0.025 0.134,-0.037 0.044,-0.012 0.089,-0.021 0.135,-0.031 0.046,-0.009 0.091,-0.017 0.137,-0.024 0.046,-0.006 0.093,-0.011 0.139,-0.017 0.046,-0.004 0.091,-0.008 0.138,-0.01 0.046,-0.002 0.092,-0.003 0.14,-0.003 h 3.847 c 0.046,0 0.091,10e-4 0.138,0.003 0.047,0.002 0.093,0.006 0.139,0.01 0.046,0.006 0.092,0.011 0.138,0.017 0.047,0.007 0.092,0.015 0.137,0.024 0.045,0.01 0.091,0.019 0.136,0.031 0.045,0.012 0.089,0.024 0.135,0.037 0.044,0.014 0.087,0.028 0.132,0.043 0.043,0.017 0.087,0.033 0.129,0.051 0.044,0.018 0.085,0.036 0.128,0.056 0.042,0.02 0.083,0.041 0.124,0.063 0.041,0.022 0.081,0.044 0.121,0.068 0.04,0.024 0.079,0.048 0.117,0.075 0.039,0.025 0.077,0.052 0.114,0.08 0.037,0.027 0.073,0.055 0.109,0.085 0.037,0.03 0.072,0.06 0.106,0.092 0.034,0.03 0.067,0.062 0.101,0.095 0.032,0.033 0.064,0.067 0.096,0.101 0.03,0.034 0.061,0.069 0.09,0.105 0.029,0.035 0.059,0.073 0.086,0.11 0.027,0.038 0.055,0.076 0.08,0.114 0.025,0.039 0.051,0.077 0.074,0.117 0.025,0.04 0.047,0.08 0.07,0.122 0.021,0.04 0.042,0.081 0.061,0.123 0.021,0.042 0.039,0.085 0.057,0.127 0.017,0.044 0.035,0.087 0.051,0.131 0.014,0.043 0.03,0.087 0.043,0.132 0.013,0.044 0.026,0.089 0.038,0.134 0.009,0.045 0.02,0.09 0.029,0.135 0.01,0.046 0.018,0.092 0.024,0.137 0.007,0.046 0.013,0.092 0.017,0.139 0.005,0.046 0.008,0.093 0.011,0.139 0.002,0.045 0.004,0.092 0.004,0.138 0,0.047 -0.002,0.094 -0.004,0.14" /></g><g
           transform="translate(20.9052,0.8857)"
           id="g32"><path
             id="path34"
             style="fill:#ffffff;fill-opacity:1;fill-rule:nonzero;stroke:none"
             d="m 0,0 h 9.448 c 0,-0.489 -0.396,-0.886 -0.885,-0.886 H 0.886 C 0.396,-0.886 0,-0.489 0,0 m 1.477,6.201 c -0.49,0 -0.886,-0.396 -0.886,-0.886 v -5.02 h 8.267 v 5.02 c 0,0.49 -0.396,0.886 -0.885,0.886 z M 7.973,5.61 c 0.163,0 0.295,-0.131 0.295,-0.295 V 0.886 H 1.181 v 4.429 c 0,0.164 0.132,0.295 0.296,0.295 z" /></g><g
           transform="translate(25.9296,2.6455)"
           id="g36"><path
             id="path38"
             style="fill:#ffffff;fill-opacity:1;fill-rule:nonzero;stroke:none"
             d="m 0,0 h -0.6 v 2.335 h -0.77 v 0.5 h 2.14 v -0.5 H 0 Z" /></g></g></g></g></svg>