<svg xmlns="http://www.w3.org/2000/svg" viewBox="0 0 9.52 5.67"><defs><style>.cls-1{fill-rule:evenodd;}</style></defs><g id="Layer_2" data-name="Layer 2"><g id="oth"><path class="cls-1" d="M9.51,2.7a.61.61,0,0,0,0-.14c0-.05,0-.1,0-.14l0-.14,0-.13a.74.74,0,0,0,0-.14.65.65,0,0,0,0-.13s0-.09,0-.13l-.06-.13L9.18,1.5a.75.75,0,0,0-.07-.12L9,1.26A1,1,0,0,0,9,1.15L8.87,1,8.78.93,8.69.83a.47.47,0,0,1-.1-.1L8.48.64,8.37.56,8.26.48,8.14.4,8,.33,7.89.27,7.77.22l-.13,0L7.5.12l-.13,0-.14,0L7.1,0,7,0H2.56L2.42,0l-.14,0-.13,0L2,.12,1.88.17l-.13,0L1.62.27,1.5.33,1.38.4,1.26.48,1.15.56,1,.64.93.73a.94.94,0,0,1-.1.1.94.94,0,0,1-.1.1L.64,1a1,1,0,0,0-.08.11.44.44,0,0,0-.08.11L.4,1.38a.75.75,0,0,1-.07.12l-.06.12a.69.69,0,0,0-.05.13.69.69,0,0,0,0,.13S.14,2,.12,2a.74.74,0,0,1,0,.14l0,.13a.68.68,0,0,1,0,.14s0,.09,0,.14A.71.71,0,0,1,0,2.7V3a.71.71,0,0,1,0,.14c0,.05,0,.09,0,.14a.68.68,0,0,1,0,.14l0,.13a.74.74,0,0,1,0,.14s0,.09.05.13a.69.69,0,0,0,0,.13,1.12,1.12,0,0,0,.05.13l.06.12a.75.75,0,0,1,.07.12l.08.12a.44.44,0,0,0,.08.11,1,1,0,0,0,.08.11l.09.11a.94.94,0,0,1,.1.1l.1.09L1,5l.11.08.11.08.12.08.12.06.12.07.13,0,.13,0,.13,0,.14,0,.13,0,.14,0,.14,0H7l.14,0,.13,0,.14,0,.13,0,.14,0,.13,0,.12,0L8,5.33l.12-.06.12-.08.11-.08L8.48,5l.11-.1.1-.09.09-.1.09-.11L9,4.52A1,1,0,0,0,9,4.41l.07-.12a.75.75,0,0,0,.07-.12l.06-.12.06-.13s0-.09,0-.13a.65.65,0,0,0,0-.13.74.74,0,0,0,0-.14l0-.13,0-.14s0-.09,0-.14a.61.61,0,0,0,0-.14s0-.09,0-.14S9.51,2.74,9.51,2.7ZM4.75,3c0,.06,0,.11,0,.16s0,.11,0,.16l-.06.15-.06.14-.09.14-.09.13A.57.57,0,0,1,4.28,4a.63.63,0,0,1-.12.11L4,4.19l-.14.08-.15.07-.15,0-.15,0-.16,0H3l-.15,0-.16,0-.15,0-.14-.07-.14-.08-.13-.1L2,4l-.1-.11-.1-.13L1.7,3.6c0-.05-.05-.09-.07-.14a.88.88,0,0,1,0-.15.94.94,0,0,1,0-.16.78.78,0,0,1,0-.16.81.81,0,0,1,0-.16.76.76,0,0,1,0-.15.78.78,0,0,1,0-.16.94.94,0,0,1,0-.16.88.88,0,0,1,0-.15s.05-.09.07-.14l.08-.14a1.13,1.13,0,0,1,.1-.13L2,1.69l.12-.11.13-.1.14-.08.14-.07.15-.05.16,0,.15,0h.32l.16,0,.15,0,.15.05.15.07L4,1.48l.12.1a.63.63,0,0,1,.12.11.57.57,0,0,1,.11.11l.09.13.09.14.06.14.06.15c0,.05,0,.11,0,.16s0,.1,0,.16a.76.76,0,0,1,0,.15A.81.81,0,0,1,4.75,3Z"/></g></g></svg>