<?xml version="1.0" encoding="UTF-8" standalone="no"?>
<svg
   xmlns:dc="http://purl.org/dc/elements/1.1/"
   xmlns:cc="http://creativecommons.org/ns#"
   xmlns:rdf="http://www.w3.org/1999/02/22-rdf-syntax-ns#"
   xmlns:svg="http://www.w3.org/2000/svg"
   xmlns="http://www.w3.org/2000/svg"
   viewBox="0 0 12.688453 7.5590801"
   height="7.5590801"
   width="12.688453"
   xml:space="preserve"
   id="svg2"
   version="1.1"><metadata
     id="metadata8"><rdf:RDF><cc:Work
         rdf:about=""><dc:format>image/svg+xml</dc:format><dc:type
           rdf:resource="http://purl.org/dc/dcmitype/StillImage" /></cc:Work></rdf:RDF></metadata><defs
     id="defs6"><clipPath
       id="clipPath18"
       clipPathUnits="userSpaceOnUse"><path
         id="path16"
         d="M 0,5.669 H 9.516 V 0 H 0 Z" /></clipPath></defs><g
     transform="matrix(1.3333333,0,0,-1.3333333,0,7.55908)"
     id="g10"><g
       id="g12"><g
         clip-path="url(#clipPath18)"
         id="g14"><g
           transform="translate(4.7498,2.675)"
           id="g20"><path
             id="path22"
             style="fill:#ffffff;fill-opacity:1;fill-rule:evenodd;stroke:none"
             d="m 0,0 c -0.005,-0.053 -0.012,-0.105 -0.023,-0.157 -0.01,-0.053 -0.024,-0.104 -0.039,-0.155 -0.015,-0.051 -0.034,-0.101 -0.053,-0.15 -0.021,-0.05 -0.043,-0.098 -0.069,-0.144 -0.025,-0.046 -0.052,-0.092 -0.082,-0.137 -0.029,-0.045 -0.061,-0.087 -0.094,-0.128 -0.034,-0.042 -0.071,-0.08 -0.108,-0.118 -0.038,-0.037 -0.076,-0.074 -0.118,-0.108 -0.04,-0.033 -0.084,-0.064 -0.128,-0.094 -0.045,-0.03 -0.09,-0.057 -0.137,-0.082 -0.046,-0.026 -0.094,-0.048 -0.144,-0.068 -0.049,-0.02 -0.099,-0.039 -0.151,-0.055 -0.05,-0.014 -0.101,-0.028 -0.154,-0.038 -0.052,-0.01 -0.104,-0.018 -0.157,-0.023 -0.053,-0.005 -0.106,-0.008 -0.159,-0.008 -0.053,0 -0.108,0.003 -0.16,0.008 -0.053,0.005 -0.106,0.013 -0.158,0.023 -0.052,0.01 -0.103,0.024 -0.154,0.038 -0.052,0.016 -0.101,0.035 -0.15,0.055 -0.05,0.02 -0.098,0.042 -0.144,0.068 -0.047,0.025 -0.093,0.052 -0.138,0.082 -0.043,0.03 -0.085,0.061 -0.127,0.094 -0.042,0.034 -0.081,0.071 -0.119,0.108 -0.037,0.038 -0.073,0.076 -0.107,0.118 -0.033,0.041 -0.065,0.083 -0.094,0.128 -0.03,0.045 -0.057,0.091 -0.083,0.137 -0.025,0.046 -0.048,0.094 -0.067,0.144 -0.021,0.049 -0.039,0.099 -0.054,0.15 -0.016,0.051 -0.029,0.102 -0.039,0.155 -0.01,0.052 -0.019,0.104 -0.023,0.157 -0.005,0.053 -0.008,0.106 -0.008,0.16 0,0.053 0.003,0.107 0.008,0.159 0.004,0.053 0.013,0.106 0.023,0.158 0.01,0.052 0.023,0.103 0.039,0.154 0.015,0.052 0.033,0.101 0.054,0.15 0.019,0.05 0.042,0.098 0.067,0.145 0.026,0.046 0.053,0.092 0.083,0.136 0.029,0.044 0.061,0.087 0.094,0.128 0.034,0.042 0.07,0.081 0.107,0.119 0.038,0.037 0.077,0.074 0.119,0.107 0.042,0.033 0.084,0.064 0.127,0.095 0.045,0.029 0.091,0.056 0.138,0.082 0.046,0.025 0.094,0.048 0.144,0.068 0.049,0.02 0.098,0.038 0.15,0.054 0.051,0.014 0.102,0.028 0.154,0.038 0.052,0.011 0.105,0.018 0.158,0.023 0.052,0.005 0.107,0.008 0.16,0.008 0.053,0 0.106,-0.003 0.159,-0.008 0.053,-0.005 0.105,-0.012 0.157,-0.023 0.053,-0.01 0.104,-0.024 0.154,-0.038 0.052,-0.016 0.102,-0.034 0.151,-0.054 0.05,-0.02 0.098,-0.043 0.144,-0.068 C -0.804,1.567 -0.759,1.54 -0.714,1.511 -0.67,1.48 -0.626,1.449 -0.586,1.416 -0.544,1.383 -0.506,1.346 -0.468,1.309 -0.431,1.271 -0.394,1.232 -0.36,1.19 -0.327,1.149 -0.295,1.106 -0.266,1.062 -0.236,1.018 -0.209,0.972 -0.184,0.926 -0.158,0.879 -0.136,0.831 -0.115,0.781 -0.096,0.732 -0.077,0.683 -0.062,0.631 -0.047,0.58 -0.033,0.529 -0.023,0.477 -0.012,0.425 -0.005,0.372 0,0.319 0.005,0.267 0.008,0.213 0.008,0.16 0.008,0.106 0.005,0.053 0,0 M 4.763,0.299 C 4.761,0.345 4.757,0.392 4.752,0.437 4.748,0.484 4.742,0.53 4.735,0.576 4.729,0.621 4.721,0.667 4.712,0.713 4.703,0.759 4.692,0.804 4.682,0.849 4.67,0.894 4.657,0.938 4.645,0.982 4.631,1.027 4.616,1.071 4.601,1.114 4.585,1.158 4.568,1.201 4.551,1.245 4.532,1.287 4.514,1.33 4.494,1.371 4.475,1.413 4.453,1.455 4.432,1.495 4.409,1.537 4.387,1.577 4.362,1.617 4.339,1.657 4.313,1.695 4.288,1.734 4.263,1.772 4.236,1.811 4.208,1.848 4.181,1.886 4.151,1.923 4.122,1.958 4.094,1.994 4.063,2.028 4.032,2.063 4,2.098 3.969,2.132 3.936,2.164 3.903,2.197 3.869,2.229 3.836,2.26 3.801,2.291 3.766,2.321 3.73,2.352 3.693,2.381 3.657,2.409 3.62,2.437 3.583,2.464 3.545,2.491 3.506,2.517 3.468,2.543 3.429,2.567 3.389,2.591 3.35,2.615 3.309,2.638 3.268,2.659 3.227,2.682 3.186,2.702 3.144,2.723 3.102,2.742 3.06,2.761 3.017,2.778 2.974,2.796 2.931,2.813 2.887,2.829 2.843,2.845 2.799,2.858 2.755,2.872 2.71,2.886 2.665,2.897 2.62,2.909 2.575,2.921 2.53,2.931 2.484,2.94 2.439,2.949 2.394,2.957 2.348,2.963 2.301,2.971 2.255,2.976 2.209,2.981 2.163,2.985 2.117,2.989 2.071,2.991 2.024,2.993 1.978,2.994 1.932,2.994 h -3.847 c -0.047,0 -0.093,-0.001 -0.14,-0.003 C -2.102,2.989 -2.147,2.985 -2.193,2.981 -2.239,2.976 -2.285,2.971 -2.332,2.963 -2.378,2.957 -2.423,2.949 -2.469,2.94 -2.514,2.931 -2.56,2.921 -2.604,2.909 -2.649,2.897 -2.694,2.886 -2.738,2.872 -2.782,2.858 -2.827,2.845 -2.87,2.829 -2.914,2.813 -2.957,2.796 -3,2.778 -3.043,2.761 -3.086,2.742 -3.127,2.723 -3.17,2.702 -3.211,2.682 -3.252,2.659 -3.293,2.638 -3.333,2.615 -3.372,2.591 -3.412,2.567 -3.452,2.543 -3.49,2.517 -3.529,2.491 -3.566,2.464 -3.604,2.437 -3.642,2.409 -3.678,2.381 -3.714,2.352 -3.75,2.321 -3.784,2.291 -3.819,2.26 -3.854,2.229 -3.887,2.197 -3.92,2.164 -3.953,2.132 -3.984,2.098 -4.016,2.063 -4.047,2.028 -4.077,1.994 -4.106,1.958 -4.136,1.923 -4.164,1.886 -4.192,1.848 -4.22,1.811 -4.247,1.772 -4.272,1.734 -4.298,1.695 -4.323,1.657 -4.347,1.617 -4.371,1.577 -4.394,1.537 -4.415,1.495 -4.437,1.455 -4.458,1.413 -4.478,1.371 -4.497,1.33 -4.517,1.287 -4.535,1.245 -4.553,1.201 -4.569,1.158 -4.584,1.114 -4.601,1.071 -4.614,1.027 -4.628,0.982 -4.642,0.938 -4.654,0.894 -4.665,0.849 -4.677,0.804 -4.687,0.759 -4.696,0.713 -4.705,0.667 -4.713,0.621 -4.72,0.576 -4.726,0.53 -4.732,0.484 -4.736,0.437 -4.741,0.392 -4.744,0.345 -4.746,0.299 -4.749,0.253 -4.75,0.206 -4.75,0.16 c 0,-0.047 0.001,-0.094 0.004,-0.139 0.002,-0.046 0.005,-0.093 0.01,-0.139 0.004,-0.046 0.01,-0.093 0.016,-0.139 0.007,-0.045 0.015,-0.091 0.024,-0.137 0.009,-0.045 0.019,-0.09 0.031,-0.135 0.011,-0.045 0.023,-0.09 0.037,-0.134 0.014,-0.045 0.027,-0.089 0.044,-0.132 0.015,-0.044 0.031,-0.087 0.049,-0.131 0.018,-0.042 0.038,-0.085 0.057,-0.126 0.02,-0.043 0.041,-0.084 0.063,-0.124 0.021,-0.042 0.044,-0.082 0.068,-0.122 0.024,-0.039 0.049,-0.078 0.075,-0.117 0.025,-0.038 0.052,-0.076 0.08,-0.113 0.028,-0.037 0.056,-0.076 0.086,-0.111 0.029,-0.036 0.059,-0.07 0.09,-0.105 0.032,-0.034 0.063,-0.068 0.096,-0.101 0.033,-0.033 0.066,-0.064 0.101,-0.095 0.035,-0.032 0.069,-0.062 0.105,-0.092 0.036,-0.03 0.072,-0.058 0.11,-0.085 0.038,-0.028 0.075,-0.055 0.114,-0.08 0.038,-0.027 0.078,-0.051 0.118,-0.074 0.039,-0.025 0.079,-0.047 0.12,-0.069 0.041,-0.022 0.082,-0.043 0.125,-0.063 0.041,-0.02 0.084,-0.038 0.127,-0.056 0.043,-0.018 0.086,-0.034 0.13,-0.051 0.043,-0.015 0.088,-0.029 0.132,-0.043 0.044,-0.013 0.089,-0.025 0.134,-0.037 0.044,-0.012 0.09,-0.021 0.135,-0.031 0.046,-0.009 0.091,-0.017 0.137,-0.023 0.047,-0.007 0.093,-0.012 0.139,-0.018 0.046,-0.004 0.091,-0.008 0.138,-0.01 0.047,-0.002 0.093,-0.003 0.14,-0.003 h 3.847 c 0.046,0 0.092,10e-4 0.139,0.003 0.046,0.002 0.092,0.006 0.138,0.01 0.046,0.006 0.092,0.011 0.139,0.018 0.046,0.006 0.091,0.014 0.136,0.023 0.046,0.01 0.091,0.019 0.136,0.031 0.045,0.012 0.09,0.024 0.135,0.037 0.044,0.014 0.088,0.028 0.132,0.043 0.044,0.017 0.087,0.033 0.13,0.051 0.043,0.018 0.085,0.036 0.127,0.056 0.042,0.02 0.083,0.041 0.124,0.063 0.041,0.022 0.082,0.044 0.121,0.069 0.04,0.023 0.079,0.047 0.117,0.074 0.039,0.025 0.077,0.052 0.114,0.08 0.037,0.027 0.073,0.055 0.11,0.085 0.036,0.03 0.071,0.06 0.106,0.092 0.033,0.031 0.067,0.062 0.1,0.095 0.033,0.033 0.064,0.067 0.096,0.101 0.031,0.035 0.062,0.069 0.09,0.105 0.029,0.035 0.059,0.074 0.086,0.111 0.028,0.037 0.055,0.075 0.08,0.113 0.025,0.039 0.051,0.078 0.074,0.117 0.025,0.04 0.047,0.08 0.07,0.122 0.021,0.04 0.043,0.081 0.062,0.124 0.02,0.041 0.038,0.084 0.057,0.126 0.017,0.044 0.034,0.087 0.05,0.131 0.015,0.043 0.03,0.087 0.044,0.132 0.012,0.044 0.025,0.089 0.037,0.134 0.01,0.045 0.021,0.09 0.03,0.135 0.009,0.046 0.017,0.092 0.023,0.137 0.007,0.046 0.013,0.093 0.017,0.139 0.005,0.046 0.009,0.093 0.011,0.139 0.002,0.045 0.004,0.092 0.004,0.139 0,0.046 -0.002,0.093 -0.004,0.139" /></g></g></g></g></svg>