<svg xmlns="http://www.w3.org/2000/svg" viewBox="0 0 14.19 14.17"><g id="Layer_2" data-name="Layer 2"><g id="oth"><g id="Layer_2-2" data-name="Layer 2"><g id="Logo"><g id="HATCH"><path d="M4.22,6.5H2.28A2.27,2.27,0,0,1,0,4.25V0H1.48V4.23A.8.8,0,0,0,2.3,5H4.2A.8.8,0,0,0,5,4.23V0H6.5V4.25A2.27,2.27,0,0,1,4.22,6.5Z"/></g><g id="HATCH-2"><polygon points="14.19 0 12.28 0 9.15 2.46 9.15 0 7.68 0 7.68 6.5 9.15 6.5 9.15 4.02 12.28 6.5 14.18 6.5 10.07 3.24 14.19 0 14.19 0"/></g><g id="HATCH-3"><path d="M6.5,14.17H2.25A2.28,2.28,0,0,1,0,11.88V10A2.28,2.28,0,0,1,2.25,7.68H6.5V9.15H2.27a.8.8,0,0,0-.79.82v1.91a.8.8,0,0,0,.79.82H6.5Z"/></g><g id="HATCH-4"><path d="M11.9,7.68H10A2.26,2.26,0,0,0,7.68,9.92v4.25H9.15V12.7H12.7v1.47h1.47V9.92A2.26,2.26,0,0,0,11.9,7.68ZM9.15,11.22V9.94A.81.81,0,0,1,10,9.15h1.91a.81.81,0,0,1,.82.79v1.28Z"/></g></g></g></g></g></svg>