<svg xmlns="http://www.w3.org/2000/svg" viewBox="0 0 34.02 34.02"><defs><style>.cls-1{fill:#fff;}.cls-2{fill:#95c93d;fill-rule:evenodd;}</style></defs><g id="Layer_2" data-name="Layer 2"><g id="Layer_1-2" data-name="Layer 1"><rect class="cls-1" width="34.02" height="34.02"/><g id="Icons"><g id="Color-"><path id="Android" class="cls-2" d="M20.1,9.23a.75.75,0,1,1,.77-.75.75.75,0,0,1-.77.75Zm-6.18,0a.75.75,0,1,1,.77-.75.76.76,0,0,1-.77.75Zm6.64-3,.29-.42.28-.42.65-.94a.25.25,0,0,0-.08-.35.26.26,0,0,0-.35.07l-1,1.43-.3.43a8.82,8.82,0,0,0-6.13,0l-.29-.43-.29-.42-.69-1a.28.28,0,0,0-.36-.07.25.25,0,0,0-.07.35l.64.94.29.42.29.42a5.71,5.71,0,0,0-3.67,5H24.22A5.71,5.71,0,0,0,20.56,6.22Zm-10.66,6H9.79v11a1.62,1.62,0,0,0,1.64,1.59H12.6a1.42,1.42,0,0,0-.06.42v3.17a1.55,1.55,0,0,0,3.09,0V25.29a1.42,1.42,0,0,0-.06-.42h2.87a1.42,1.42,0,0,0-.06.42v3.17a1.55,1.55,0,0,0,3.1,0V25.29a1.42,1.42,0,0,0-.07-.42h1.18a1.62,1.62,0,0,0,1.63-1.59v-11Zm-2.68,0a1.53,1.53,0,0,0-1.55,1.51v6.43a1.55,1.55,0,0,0,3.09,0V13.75A1.53,1.53,0,0,0,7.22,12.24Zm19.58,0a1.54,1.54,0,0,0-1.55,1.51v6.43a1.55,1.55,0,0,0,3.1,0V13.75A1.54,1.54,0,0,0,26.8,12.24Z"/></g></g></g></g></svg>