<svg xmlns="http://www.w3.org/2000/svg" viewBox="0 0 21.58 22.68"><defs><style>.cls-1,.cls-2{fill:#0099b0;}.cls-2{fill-rule:evenodd;}</style></defs><g id="Layer_2" data-name="Layer 2"><g id="内容"><path class="cls-1" d="M19.09,7.22,17,6.83a.19.19,0,0,1-.13-.1l-.63-1.47a.18.18,0,0,1,0-.16l1.2-1.75a.11.11,0,0,0,0-.14L16,1.71a.11.11,0,0,0-.14,0L14.05,2.92a.22.22,0,0,1-.16,0l-1.43-.59a.15.15,0,0,1-.1-.12L12,.09A.12.12,0,0,0,11.85,0H9.73a.12.12,0,0,0-.11.09l-.4,2.13a.15.15,0,0,1-.1.12l-1.43.59a.22.22,0,0,1-.16,0L5.75,1.69a.11.11,0,0,0-.14,0l-1.5,1.5a.11.11,0,0,0,0,.14L5.3,5.1a.18.18,0,0,1,0,.16L4.68,6.73a.19.19,0,0,1-.13.1l-2.06.39a.12.12,0,0,0-.09.11V9.45a.12.12,0,0,0,.09.11l2,.37a.17.17,0,0,1,.12.11l.63,1.56a.18.18,0,0,1,0,.16L4.1,13.43a.11.11,0,0,0,0,.14l1.5,1.5a.12.12,0,0,0,.14,0L7.38,14a.18.18,0,0,1,.16,0l.72.39a.09.09,0,0,0,.12,0l1.49-3.59a.11.11,0,0,0,0-.14l-.18-.11a.44.44,0,0,1-.11-.09,2.34,2.34,0,1,1,2.52,0,.44.44,0,0,1-.11.09l-.18.11a.15.15,0,0,0,0,.14L13.2,14.3a.09.09,0,0,0,.12,0L14,14a.18.18,0,0,1,.16,0l1.63,1.12a.12.12,0,0,0,.14,0l1.5-1.5a.11.11,0,0,0,0-.14l-1.14-1.67a.18.18,0,0,1,0-.16L17,10a.17.17,0,0,1,.12-.11l2-.37a.12.12,0,0,0,.09-.11V7.33a.12.12,0,0,0-.09-.11"/><path class="cls-2" d="M5.71,22.65h.46V21.12c0-.56-.39-.75-.94-.75a.85.85,0,0,0-.76.33l.36.27c.08-.13.19-.17.42-.17s.46.08.46.29v.23H5.09a.66.66,0,0,0-.73.67.7.7,0,0,0,.79.69c.31,0,.46-.07.55-.23h0Zm0-.79c0,.35-.13.39-.5.39s-.43-.13-.43-.28.13-.27.39-.27h.54Z"/><path class="cls-2" d="M6.66,22.65h.46V21.3a.42.42,0,0,1,.43-.47.43.43,0,0,1,.3.11l.33-.39a.74.74,0,0,0-.47-.18.74.74,0,0,0-.59.27h0V20.4H6.66Z"/><path class="cls-2" d="M9.53,22.65H10V19.49H9.53v1.15A.81.81,0,0,0,9,20.37a.74.74,0,0,0-.6.3c-.12.16-.16.3-.16.85s0,.7.16.86a.74.74,0,0,0,.6.3.81.81,0,0,0,.58-.26Zm-.44-1.82c.42,0,.44.37.44.69s0,.7-.44.7-.45-.35-.45-.7,0-.69.45-.69"/><polygon class="cls-2" points="12.3 22.65 12.7 22.65 13.41 20.4 12.94 20.4 12.51 21.98 12.5 21.98 11.99 20.4 11.66 20.4 11.15 21.98 11.14 21.98 10.71 20.4 10.23 20.4 10.95 22.65 11.35 22.65 11.82 21.07 11.83 21.07 12.3 22.65"/><path class="cls-2" d="M14.81,22.65h.45V21.12c0-.56-.38-.75-.94-.75a.84.84,0,0,0-.75.33l.35.27c.08-.13.19-.17.43-.17s.46.08.46.29v.23h-.63a.66.66,0,0,0-.73.67.7.7,0,0,0,.79.69c.31,0,.47-.07.56-.23h0Zm0-.79c0,.35-.13.39-.51.39s-.42-.13-.42-.28.12-.27.39-.27h.54Z"/><path class="cls-2" d="M15.76,22.65h.45V21.3a.43.43,0,0,1,.44-.47.47.47,0,0,1,.3.11l.33-.39a.75.75,0,0,0-.48-.18.72.72,0,0,0-.58.27h0V20.4h-.45Z"/><path class="cls-2" d="M19.14,21.7v-.38a.91.91,0,0,0-.93-.95c-.43,0-.93.29-.93,1.16s.54,1.15,1,1.15a1,1,0,0,0,.81-.37L18.77,22a.72.72,0,0,1-.5.22.5.5,0,0,1-.53-.55Zm-1.4-.38c0-.34.2-.52.47-.52s.46.18.48.52Z"/><path class="cls-2" d="M0,18a1.13,1.13,0,0,0,.24.87.93.93,0,0,0,.69.28.88.88,0,0,0,.68-.28A1.13,1.13,0,0,0,1.85,18a1.11,1.11,0,0,0-.24-.86.85.85,0,0,0-.68-.29.89.89,0,0,0-.69.29A1.11,1.11,0,0,0,0,18m1.4,0c0,.33,0,.42-.11.54a.47.47,0,0,1-.36.16.48.48,0,0,1-.37-.16A.81.81,0,0,1,.45,18a.8.8,0,0,1,.11-.53.45.45,0,0,1,.37-.17.45.45,0,0,1,.36.17c.09.12.11.21.11.53"/><path class="cls-2" d="M6.2,18.14v-.37a.91.91,0,0,0-.93-.95c-.43,0-.93.28-.93,1.16s.54,1.14,1,1.14a1,1,0,0,0,.81-.36l-.32-.28a.72.72,0,0,1-.5.22.5.5,0,0,1-.53-.56Zm-1.4-.37a.46.46,0,0,1,.47-.52c.27,0,.46.18.48.52Z"/><path class="cls-2" d="M6.58,19.1H7V17.76a.45.45,0,1,1,.89,0V19.1h.45V17.6a.75.75,0,0,0-.75-.78.7.7,0,0,0-.58.27H7v-.24H6.58Z"/><path class="cls-2" d="M9.61,18.72a1.38,1.38,0,0,0,1,.4c.53,0,.94-.25.94-.69a.62.62,0,0,0-.66-.67l-.37,0c-.22,0-.3-.11-.3-.21s.1-.27.39-.27a1,1,0,0,1,.6.21l.28-.33a1.25,1.25,0,0,0-.88-.31c-.47,0-.84.24-.84.69a.63.63,0,0,0,.65.64l.4,0c.15,0,.27.06.27.22s-.18.29-.44.29a1,1,0,0,1-.71-.29Z"/><path class="cls-2" d="M11.78,18a1.13,1.13,0,0,0,.25.87,1,1,0,0,0,1.36,0,1.09,1.09,0,0,0,.25-.87,1.07,1.07,0,0,0-.25-.86.94.94,0,0,0-1.36,0,1.1,1.1,0,0,0-.25.86m1.41,0a.81.81,0,0,1-.11.54.48.48,0,0,1-.37.16.45.45,0,0,1-.36-.16c-.09-.12-.11-.21-.11-.54s0-.41.11-.53a.43.43,0,0,1,.36-.17.45.45,0,0,1,.37.17.8.8,0,0,1,.11.53"/><path class="cls-2" d="M14,18.34a.75.75,0,0,0,.75.78.74.74,0,0,0,.58-.26h0v.24h.45V16.85h-.45v1.34a.45.45,0,1,1-.89,0V16.85H14Z"/><path class="cls-2" d="M16.32,19.1h.45V17.74a.43.43,0,0,1,.44-.47.45.45,0,0,1,.3.11l.33-.39a.79.79,0,0,0-.47-.17.72.72,0,0,0-.59.27h0v-.24h-.45Z"/><path class="cls-2" d="M19.28,18.44a.61.61,0,0,1-.46.23c-.37,0-.59-.21-.59-.7s.22-.7.59-.7a.59.59,0,0,1,.46.24l.33-.3a1,1,0,0,0-.81-.39,1,1,0,0,0-1,1.15,1,1,0,0,0,1,1.15,1,1,0,0,0,.81-.39Z"/><path class="cls-2" d="M21.58,18.14v-.37a.91.91,0,0,0-.93-.95c-.43,0-.92.28-.92,1.16s.53,1.14,1,1.14a1,1,0,0,0,.82-.36l-.33-.28a.72.72,0,0,1-.5.22.5.5,0,0,1-.53-.56Zm-1.4-.37a.47.47,0,0,1,.47-.52c.27,0,.46.18.48.52Z"/><path class="cls-1" d="M3.14,18.67c.42,0,.45-.35.45-.7s0-.7-.45-.7-.45.38-.45.7,0,.7.45.7m-.9,4v-5.8h.45v.23a.83.83,0,0,1,.58-.26.74.74,0,0,1,.61.29c.12.16.16.31.16.86s0,.7-.16.86a.74.74,0,0,1-.61.29.82.82,0,0,1-.58-.26v1.78A.77.77,0,0,1,4,21.16v1.49H3.58V21.31a.45.45,0,1,0-.89,0v1.34Z"/></g></g></svg>