<svg xmlns="http://www.w3.org/2000/svg" viewBox="0 0 17.27 22.65"><defs><style>.cls-1{fill:#3fa648;}.cls-2{fill:#225128;}.cls-3{fill:#010101;}</style></defs><g id="Layer_2" data-name="Layer 2"><g id="内容"><path id="path2" class="cls-1" d="M9.67,11.33a2.62,2.62,0,0,0,1.81-2.76,2.81,2.81,0,0,0-5.62,0,2.74,2.74,0,0,0,1.85,2.81l-2,4.89C3.06,15.58.35,12.44.35,8.57A8.32,8.32,0,0,1,17,8.57c0,3.93-2.68,7-5.4,7.71Z"/><path class="cls-2" d="M11.59,16.56a.28.28,0,0,1-.26-.18L9.4,11.43a.26.26,0,0,1,0-.21.26.26,0,0,1,.16-.15,2.34,2.34,0,0,0,1.62-2.5A2.51,2.51,0,0,0,8.7,6.1h0a2.57,2.57,0,0,0-1.85.76,2.36,2.36,0,0,0-.7,1.71A2.43,2.43,0,0,0,7.79,11.1a.28.28,0,0,1,.17.15.27.27,0,0,1,0,.23L6,16.37a.27.27,0,0,1-.33.17,7.3,7.3,0,0,1-3.84-2.76A8.81,8.81,0,0,1,.07,8.57,8.6,8.6,0,0,1,14.74,2.51a8.45,8.45,0,0,1,2.53,6.06,8.8,8.8,0,0,1-1.73,5.24,7.29,7.29,0,0,1-3.88,2.74ZM10,11.49l1.73,4.45a7.74,7.74,0,0,0,5-7.37,7.93,7.93,0,0,0-2.36-5.66A8.06,8.06,0,0,0,8.64.57a8,8,0,0,0-8,8,8.15,8.15,0,0,0,1.63,4.87,6.83,6.83,0,0,0,3.28,2.48l1.79-4.38a3.05,3.05,0,0,1-1.76-3,2.94,2.94,0,0,1,.87-2.12A3.13,3.13,0,0,1,8.7,5.53h0a3.09,3.09,0,0,1,3.06,3A2.89,2.89,0,0,1,10,11.49Z"/><g id="flowRoot3742"><path id="path3756" class="cls-3" d="M1.59,18.72a.91.91,0,0,1-.21.64.74.74,0,0,1-.59.23.78.78,0,0,1-.58-.23,1.1,1.1,0,0,1,0-1.29.77.77,0,0,1,.59-.22.78.78,0,0,1,.41.1.65.65,0,0,1,.28.31A1,1,0,0,1,1.59,18.72Zm-1,0a1,1,0,0,0,0,.33.2.2,0,0,0,.19.11A.2.2,0,0,0,1,19.05,1,1,0,0,0,1,18.72.87.87,0,0,0,1,18.39a.2.2,0,0,0-.19-.11.2.2,0,0,0-.18.11A.87.87,0,0,0,.56,18.72Z"/><path id="path3758" class="cls-3" d="M2.86,19.59a.51.51,0,0,1-.22,0,.62.62,0,0,1-.19-.15h0a1.94,1.94,0,0,1,0,.22v.68H1.9V17.88h.45l.07.21h0a.47.47,0,0,1,.42-.24.46.46,0,0,1,.42.23,1.17,1.17,0,0,1,.15.64,1.19,1.19,0,0,1-.16.64A.47.47,0,0,1,2.86,19.59ZM2.67,18.3a.17.17,0,0,0-.17.1.62.62,0,0,0,0,.27v0a.82.82,0,0,0,0,.32.2.2,0,0,0,.18.09A.16.16,0,0,0,2.83,19a.82.82,0,0,0,0-.32.73.73,0,0,0,0-.31A.15.15,0,0,0,2.67,18.3Z"/><path id="path3760" class="cls-3" d="M4.52,19.59a.83.83,0,0,1-.62-.22.86.86,0,0,1-.22-.64,1,1,0,0,1,.2-.66.76.76,0,0,1,.59-.22A.74.74,0,0,1,5,18a.82.82,0,0,1,.2.58v.26h-1a.29.29,0,0,0,.09.22.39.39,0,0,0,.25.08,1.12,1.12,0,0,0,.27,0,1.06,1.06,0,0,0,.26-.1v.42a.82.82,0,0,1-.26.1Zm0-1.35a.22.22,0,0,0-.17.07.28.28,0,0,0-.07.2h.47a.32.32,0,0,0-.07-.2A.22.22,0,0,0,4.49,18.24Z"/><path id="path3762" class="cls-3" d="M6.53,19.56v-.92a.57.57,0,0,0,0-.25.16.16,0,0,0-.15-.09.21.21,0,0,0-.2.12,1,1,0,0,0-.06.4v.74H5.53V17.88h.41l.07.2h0a.41.41,0,0,1,.19-.18.84.84,0,0,1,.29,0,.53.53,0,0,1,.41.16.7.7,0,0,1,.14.46v1.09Z"/><path id="path3764" class="cls-3" d="M9.29,19.09a.45.45,0,0,1-.16.38.81.81,0,0,1-.48.12,1,1,0,0,1-.49-.1v-.3a1.16,1.16,0,0,0,.51.14c.2,0,.3-.07.3-.2a.15.15,0,0,0,0-.1.53.53,0,0,0-.11-.09l-.22-.1a1.07,1.07,0,0,1-.36-.22A.44.44,0,0,1,8.31,18a.74.74,0,0,1,.44-.11,1.16,1.16,0,0,1,.52.11l-.11.27a1,1,0,0,0-.42-.11c-.17,0-.26.05-.26.15a.16.16,0,0,0,.07.14,1.55,1.55,0,0,0,.29.14,1.13,1.13,0,0,1,.28.15.37.37,0,0,1,.13.15A.42.42,0,0,1,9.29,19.09Z"/><path id="path3766" class="cls-3" d="M11,18.74a.93.93,0,0,1-.2.63.67.67,0,0,1-.54.22.73.73,0,0,1-.39-.1.68.68,0,0,1-.25-.3,1.06,1.06,0,0,1-.09-.45.93.93,0,0,1,.19-.63.68.68,0,0,1,.55-.22.64.64,0,0,1,.53.23A.92.92,0,0,1,11,18.74Zm-1.13,0q0,.57.39.57c.27,0,.4-.19.4-.57s-.13-.57-.4-.57a.32.32,0,0,0-.3.15A.79.79,0,0,0,9.9,18.74Z"/><path id="path3768" class="cls-3" d="M12.5,19.56l0-.21h0a.51.51,0,0,1-.2.18.65.65,0,0,1-.29.06.57.57,0,0,1-.42-.15.64.64,0,0,1-.14-.45V17.92h.34v1a.48.48,0,0,0,.07.29.29.29,0,0,0,.23.09.33.33,0,0,0,.3-.13.73.73,0,0,0,.1-.44v-.82h.33v1.64Z"/><path id="path3770" class="cls-3" d="M14,17.89h.17l0,.33a.32.32,0,0,0-.14,0,.39.39,0,0,0-.32.14.52.52,0,0,0-.13.35v.86h-.33V17.92h.26l0,.29h0a.8.8,0,0,1,.2-.24A.47.47,0,0,1,14,17.89Z"/><path id="path3772" class="cls-3" d="M15.1,19.59a.66.66,0,0,1-.53-.21.93.93,0,0,1-.19-.63,1,1,0,0,1,.19-.64.7.7,0,0,1,.56-.22,1,1,0,0,1,.44.09l-.1.28a1.08,1.08,0,0,0-.34-.08c-.27,0-.41.19-.41.57a.75.75,0,0,0,.1.41.34.34,0,0,0,.3.14.91.91,0,0,0,.42-.11v.3a.77.77,0,0,1-.19.08A.94.94,0,0,1,15.1,19.59Z"/><path id="path3774" class="cls-3" d="M16.58,19.59a.74.74,0,0,1-.57-.22,1.1,1.1,0,0,1,0-1.25.71.71,0,0,1,1,0,.81.81,0,0,1,.18.55v.19h-1a.65.65,0,0,0,.12.37.45.45,0,0,0,.33.13,1,1,0,0,0,.25,0l.26-.09v.28a1.06,1.06,0,0,1-.25.09Zm-.06-1.44a.33.33,0,0,0-.25.11.52.52,0,0,0-.11.31h.7a.46.46,0,0,0-.09-.31A.31.31,0,0,0,16.52,18.15Z"/><path id="path3776" class="cls-3" d="M3.09,22.62H2.76V21h.33Zm-.35-2.08a.24.24,0,0,1,0-.15.22.22,0,0,1,.14-.05.2.2,0,0,1,.14.05.25.25,0,0,1,0,.15.17.17,0,0,1-.19.19.22.22,0,0,1-.14-.05A.2.2,0,0,1,2.74,20.54Z"/><path id="path3778" class="cls-3" d="M4.93,22.62H4.59v-1a.43.43,0,0,0-.07-.28.25.25,0,0,0-.23-.1.36.36,0,0,0-.3.13.73.73,0,0,0-.1.44v.82H3.56V21h.26l0,.21h0a.44.44,0,0,1,.2-.18A.68.68,0,0,1,4.37,21c.37,0,.56.2.56.6Z"/><path id="path3780" class="cls-3" d="M5.72,22.62H5.39V21h.33Zm-.35-2.08a.24.24,0,0,1,0-.15.22.22,0,0,1,.14-.05.2.2,0,0,1,.14.05.25.25,0,0,1,0,.15.17.17,0,0,1-.19.19.22.22,0,0,1-.14-.05A.2.2,0,0,1,5.37,20.54Z"/><path id="path3782" class="cls-3" d="M6.77,22.37a.67.67,0,0,0,.24,0v.26a.46.46,0,0,1-.14.05H6.69c-.31,0-.47-.17-.47-.52v-.89H6v-.15L6.24,21l.11-.35h.2V21H7v.26H6.55v.88a.25.25,0,0,0,.06.19A.21.21,0,0,0,6.77,22.37Z"/><path id="path3784" class="cls-3" d="M7.65,22.62H7.32V21h.33ZM7.3,20.54a.18.18,0,0,1,.19-.2.19.19,0,0,1,.13.05.25.25,0,0,1,0,.15.2.2,0,0,1,0,.14.19.19,0,0,1-.13.05.2.2,0,0,1-.14-.05A.16.16,0,0,1,7.3,20.54Z"/><path id="path3786" class="cls-3" d="M9.09,22.62,9,22.39H9a.73.73,0,0,1-.23.21.63.63,0,0,1-.29,0,.48.48,0,0,1-.36-.13A.48.48,0,0,1,8,22.15a.43.43,0,0,1,.18-.38.89.89,0,0,1,.54-.14H9v-.09a.33.33,0,0,0-.07-.24.27.27,0,0,0-.21-.08.85.85,0,0,0-.23,0l-.21.09-.11-.25A1.36,1.36,0,0,1,8.45,21l.28,0a.65.65,0,0,1,.45.13.56.56,0,0,1,.15.43v1.11Zm-.49-.23a.4.4,0,0,0,.29-.11A.41.41,0,0,0,9,22v-.14H8.8a.58.58,0,0,0-.34.08.25.25,0,0,0-.11.22.25.25,0,0,0,.07.18A.24.24,0,0,0,8.6,22.39Z"/><path id="path3788" class="cls-3" d="M10.37,22.37a.67.67,0,0,0,.24,0v.26a.46.46,0,0,1-.14.05h-.18c-.31,0-.47-.17-.47-.52v-.89H9.61v-.15L9.84,21l.11-.35h.2V21h.45v.26h-.45v.88a.25.25,0,0,0,.06.19A.21.21,0,0,0,10.37,22.37Z"/><path id="path3790" class="cls-3" d="M11.25,22.62h-.33V21h.33Zm-.35-2.08a.25.25,0,0,1,0-.15.2.2,0,0,1,.14-.05.19.19,0,0,1,.13.05.25.25,0,0,1,0,.15.2.2,0,0,1,0,.14.19.19,0,0,1-.13.05.17.17,0,0,1-.19-.19Z"/><path id="path3792" class="cls-3" d="M12.08,22.62,11.49,21h.35l.31.95a1.84,1.84,0,0,1,.1.39h0a2.74,2.74,0,0,1,.1-.39l.32-.95H13l-.6,1.64Z"/><path id="path3794" class="cls-3" d="M13.94,22.65a.74.74,0,0,1-.57-.22,1.1,1.1,0,0,1,0-1.25.71.71,0,0,1,1,0,.81.81,0,0,1,.18.55v.19h-1a.58.58,0,0,0,.12.37.45.45,0,0,0,.33.13,1,1,0,0,0,.25,0l.26-.09v.28a1.06,1.06,0,0,1-.25.09A1.19,1.19,0,0,1,13.94,22.65Zm-.06-1.44a.33.33,0,0,0-.25.11.52.52,0,0,0-.11.31h.7a.46.46,0,0,0-.09-.31A.31.31,0,0,0,13.88,21.21Z"/><g id="flowRoot3797"><path id="path3805" class="cls-3" d="M15.2,20.74h.07l.08,0a.09.09,0,0,0,0-.07s0-.06,0-.07,0,0-.09,0H15.2Zm.28-.09a.16.16,0,0,1,0,.09.22.22,0,0,1-.07.06l.15.25h-.11l-.13-.23H15.2v.23h-.1v-.58h.17a.22.22,0,0,1,.16.05A.16.16,0,0,1,15.48,20.65Zm-.68.11a.53.53,0,0,1,.06-.24.39.39,0,0,1,.18-.18.5.5,0,0,1,.24-.06.54.54,0,0,1,.25.06.52.52,0,0,1,.18.18.5.5,0,0,1,.06.24.48.48,0,0,1-.06.24.39.39,0,0,1-.18.18.43.43,0,0,1-.25.07.4.4,0,0,1-.24-.07.39.39,0,0,1-.18-.18A.48.48,0,0,1,14.8,20.76Zm.06,0a.37.37,0,0,0,.06.21.46.46,0,0,0,.15.16.54.54,0,0,0,.21.05.46.46,0,0,0,.21-.05.41.41,0,0,0,.16-.16.46.46,0,0,0,0-.21.54.54,0,0,0,0-.21.46.46,0,0,0-.16-.15.37.37,0,0,0-.21-.06.42.42,0,0,0-.21.06.54.54,0,0,0-.15.15A.42.42,0,0,0,14.86,20.76Z"/></g></g></g></g></svg>