<svg xmlns="http://www.w3.org/2000/svg" viewBox="0 0 595.1 594.53"><g id="Layer_2" data-name="Layer 2"><g id="Logo"><g id="HATCH"><path d="M177,272.5H95.51C42.85,272.5,0,230.22,0,178.26V0H61.93V177.43c0,18.27,15.44,33.14,34.41,33.14h79.81c19,0,34.41-14.87,34.41-33.14V0H272.5V178.26C272.5,230.22,229.65,272.5,177,272.5Z"/></g><g id="HATCH-2" data-name="HATCH"><polygon points="595.1 0 515.01 0 383.97 103.13 383.97 0 322.04 0 322.04 272.5 383.97 272.5 383.97 168.69 515 272.5 594.76 272.5 422.37 135.93 595.1 0 595.1 0"/></g><g id="HATCH-3" data-name="HATCH"><path d="M272.5,594.53H94.23c-52,0-94.23-43.67-94.23-96.34V418.38C0,365.72,42.27,322,94.23,322H272.5V384H95.06c-18.27,0-33.13,15.44-33.13,34.41v79.81c0,19,14.86,34.41,33.13,34.41H272.5Z"/></g><g id="HATCH-4" data-name="HATCH"><path d="M499,322H417.55C364.88,322,322,364.31,322,416.27V594.53H384V532.6H532.6v61.93h61.93V416.27C594.53,364.31,551.69,322,499,322ZM384,470.67V417.1c0-18.27,15.44-33.13,34.41-33.13h79.81c19,0,34.41,14.86,34.41,33.13v53.57Z"/></g></g></g></svg>