<svg xmlns="http://www.w3.org/2000/svg" viewBox="0 0 840 600"><g id="Layer_2" data-name="Layer 2"><g id="lettre"><path d="M840,598.52V507.87A210.51,210.51,0,0,1,810,510c-100.54,0-184.57-70.64-205.17-165H780V255H604.83C625.43,160.64,709.46,90,810,90a212,212,0,0,1,30,2.12V1.48Q825.2,0,810,0C644.31,0,510,134.31,510,300S644.31,600,810,600Q825.2,600,840,598.52Z"/><path d="M0,300C0,465.69,134.31,600,300,600a304.66,304.66,0,0,0,32-1.68V507.58A211,211,0,0,1,300,510C184,510,90,416,90,300S184,90,300,90a211,211,0,0,1,32,2.42V1.68A304.66,304.66,0,0,0,300,0C134.31,0,0,134.31,0,300Z"/></g></g></svg>