<svg xmlns="http://www.w3.org/2000/svg" viewBox="0 0 200 200"><defs><style>.cls-1{fill:#faa22c;}.cls-2{fill:#211e1f;}.cls-3{fill:#f9f9fa;}</style></defs><g id="Layer_2" data-name="Layer 2"><g id="logo"><path class="cls-1" d="M173.68,0H26.32A26.32,26.32,0,0,0,0,26.32V173.68A26.32,26.32,0,0,0,26.32,200H173.68A26.32,26.32,0,0,0,200,173.68V26.32A26.32,26.32,0,0,0,173.68,0ZM155.79,76.63h-17.4l-23.78,23.78,23,23h18.21v32.42H123.37V138.4L100,115,76.63,138.39v17.4H44.21V123.37h18.2l23-23L61.6,76.63H44.21V44.21H76.63V62.42L100,85.79l23.38-23.38V44.21h32.42Z"/><path class="cls-2" d="M155.79,76.63V44.21H123.37v18.2L100,85.79,76.63,62.42V44.21H44.21V76.63H61.6l23.78,23.78-23,23H44.21v32.42H76.63v-17.4L100,115l23.38,23.38v17.39h32.42V123.37H137.58l-23-23,23.78-23.78ZM100,106.9h0L70.81,136.09a11,11,0,1,1-10.46-7.59,11.2,11.2,0,0,1,3.63.62L93.1,100,63.39,70.28a11,11,0,1,1,8-10.58,10.82,10.82,0,0,1-.76,4L106.9,100Z"/><path class="cls-3" d="M100,106.9l6.9-6.9L70.6,63.7a10.82,10.82,0,0,0,.76-4,11.06,11.06,0,1,0-8,10.58L93.1,100,64,129.12a11.2,11.2,0,0,0-3.63-.62,11,11,0,1,0,10.46,7.59L100,106.9Z"/></g></g></svg>