<svg xmlns="http://www.w3.org/2000/svg" xmlns:xlink="http://www.w3.org/1999/xlink" version="1.1" width="50" height="50" viewBox="0 0 50 50">
<defs>
<clipPath id="clip_0">
<path transform="matrix(1,0,0,-1,0,50)" d="M0 50H50V0H0Z"/>
</clipPath>
</defs>
<g clip-path="url(#clip_0)">
<path transform="matrix(1,0,0,-1,35.3241,28.0974)" d="M0 0C-1.71 0-3.097 1.387-3.097 3.098-3.097 4.808-1.71 6.195 0 6.195 1.711 6.195 3.098 4.808 3.098 3.098 3.098 1.387 1.711 0 0 0M-10.324 0C-12.035 0-13.421 1.387-13.421 3.098-13.421 4.808-12.035 6.195-10.324 6.195-8.613 6.195-7.227 4.808-7.227 3.098-7.227 1.387-8.613 0-10.324 0M-20.648 0C-22.359 0-23.746 1.387-23.746 3.098-23.746 4.808-22.359 6.195-20.648 6.195-18.938 6.195-17.551 4.808-17.551 3.098-17.551 1.387-18.938 0-20.648 0" fill="#ffffff"/>
</g>
</svg>
