<?xml version="1.0" encoding="UTF-8" standalone="no"?>
<svg
   xmlns:dc="http://purl.org/dc/elements/1.1/"
   xmlns:cc="http://creativecommons.org/ns#"
   xmlns:rdf="http://www.w3.org/1999/02/22-rdf-syntax-ns#"
   xmlns:svg="http://www.w3.org/2000/svg"
   xmlns="http://www.w3.org/2000/svg"
   viewBox="0 0 152.78133 114.8872"
   height="114.8872"
   width="152.78133"
   xml:space="preserve"
   id="svg2"
   version="1.1"><metadata
     id="metadata8"><rdf:RDF><cc:Work
         rdf:about=""><dc:format>image/svg+xml</dc:format><dc:type
           rdf:resource="http://purl.org/dc/dcmitype/StillImage" /></cc:Work></rdf:RDF></metadata><defs
     id="defs6"><clipPath
       id="clipPath18"
       clipPathUnits="userSpaceOnUse"><path
         id="path16"
         d="M 0,86.165 H 114.586 V 0 H 0 Z" /></clipPath></defs><g
     transform="matrix(1.3333333,0,0,-1.3333333,0,114.8872)"
     id="g10"><g
       id="g12"><g
         clip-path="url(#clipPath18)"
         id="g14"><g
           transform="translate(18.9245,23.045)"
           id="g20"><path
             id="path22"
             style="fill:#2b2b2b;fill-opacity:1;fill-rule:evenodd;stroke:none"
             d="m 0,0 c 0,0.524 0.425,0.95 0.95,0.95 h 3.8 C 5.275,0.95 5.701,0.524 5.701,0 5.701,-0.525 5.275,-0.95 4.75,-0.95 H 0.95 C 0.425,-0.95 0,-0.525 0,0 m 0,3.8 c 0,0.525 0.425,0.95 0.95,0.95 h 7.601 c 0.525,0 0.95,-0.425 0.95,-0.95 0,-0.524 -0.425,-0.95 -0.95,-0.95 H 0.95 C 0.425,2.85 0,3.276 0,3.8 m 0,3.801 c 0,0.524 0.425,0.95 0.95,0.95 h 15.202 c 0.525,0 0.951,-0.426 0.951,-0.95 0,-0.525 -0.426,-0.95 -0.951,-0.95 H 0.95 C 0.425,6.651 0,7.076 0,7.601 m 13.302,3.8 c 0,0.525 0.426,0.951 0.95,0.951 h 13.302 c 0.525,0 0.95,-0.426 0.95,-0.951 0,-0.525 -0.425,-0.95 -0.95,-0.95 H 14.252 c -0.524,0 -0.95,0.425 -0.95,0.95 M 0,11.401 c 0,0.525 0.425,0.951 0.95,0.951 h 9.502 c 0.525,0 0.949,-0.426 0.949,-0.951 0,-0.525 -0.424,-0.95 -0.949,-0.95 H 0.95 C 0.425,10.451 0,10.876 0,11.401 m 15.202,3.801 c 0,0.525 0.425,0.95 0.95,0.95 h 9.502 c 0.525,0 0.95,-0.425 0.95,-0.95 0,-0.525 -0.425,-0.951 -0.95,-0.951 h -9.502 c -0.525,0 -0.95,0.426 -0.95,0.951 M 0,15.202 c 0,0.525 0.425,0.95 0.95,0.95 h 11.402 c 0.524,0 0.95,-0.425 0.95,-0.95 0,-0.525 -0.426,-0.951 -0.95,-0.951 H 0.95 C 0.425,14.251 0,14.677 0,15.202 m 22.803,3.8 c 0,0.525 0.426,0.951 0.95,0.951 h 5.701 c 0.525,0 0.95,-0.426 0.95,-0.951 0,-0.524 -0.425,-0.95 -0.95,-0.95 h -5.701 c -0.524,0 -0.95,0.426 -0.95,0.95 m -13.302,0 c 0,0.525 0.426,0.951 0.951,0.951 h 9.501 c 0.525,0 0.95,-0.426 0.95,-0.951 0,-0.524 -0.425,-0.95 -0.95,-0.95 h -9.501 c -0.525,0 -0.951,0.426 -0.951,0.95 m -9.501,0 c 0,0.525 0.425,0.951 0.95,0.951 h 5.701 c 0.525,0 0.95,-0.426 0.95,-0.951 0,-0.524 -0.425,-0.95 -0.95,-0.95 H 0.95 C 0.425,18.052 0,18.478 0,19.002 m 17.103,3.801 c 0,0.525 0.425,0.95 0.949,0.95 h 9.502 c 0.525,0 0.95,-0.425 0.95,-0.95 0,-0.525 -0.425,-0.95 -0.95,-0.95 h -9.502 c -0.524,0 -0.949,0.425 -0.949,0.95 M 0,22.803 c 0,0.525 0.425,0.95 0.95,0.95 h 13.302 c 0.525,0 0.95,-0.425 0.95,-0.95 0,-0.525 -0.425,-0.95 -0.95,-0.95 H 0.95 C 0.425,21.853 0,22.278 0,22.803 m 0,3.801 c 0,0.524 0.425,0.95 0.95,0.95 h 7.601 c 0.525,0 0.95,-0.426 0.95,-0.95 0,-0.525 -0.425,-0.951 -0.95,-0.951 H 0.95 C 0.425,25.653 0,26.079 0,26.604" /></g><g
           transform="translate(86.7858,62.4576)"
           id="g24"><path
             id="path26"
             style="fill:#2b2b2b;fill-opacity:1;fill-rule:nonzero;stroke:none"
             d="m 0,0 c 0.452,0.225 1.001,0.041 1.227,-0.412 2.247,-4.528 0.398,-10.022 -4.13,-12.27 -1.266,-0.628 -2.66,-0.954 -4.073,-0.954 h -10.985 v -2.684 c 0,-0.253 -0.205,-0.458 -0.458,-0.458 -0.107,0 -0.21,0.038 -0.292,0.106 l -4.322,3.6 c -0.194,0.162 -0.22,0.45 -0.058,0.645 0.018,0.021 0.037,0.04 0.058,0.058 l 4.322,3.599 c 0.194,0.162 0.482,0.136 0.644,-0.059 0.068,-0.082 0.106,-0.185 0.106,-0.292 v -2.684 h 10.985 c 4.045,-0.002 7.325,3.276 7.326,7.321 0.001,1.129 -0.26,2.244 -0.762,3.255 -0.225,0.453 -0.04,1.002 0.412,1.227 z m -6.976,0.158 v 2.684 h -10.985 c -4.045,0 -7.324,-3.279 -7.324,-7.323 0,-1.129 0.261,-2.243 0.762,-3.254 0.226,-0.453 0.041,-1.003 -0.412,-1.229 -0.453,-0.225 -1.003,-0.041 -1.228,0.412 -2.248,4.529 -0.399,10.022 4.129,12.27 1.266,0.628 2.66,0.955 4.073,0.954 h 10.985 v 2.684 c 0,0.253 0.205,0.458 0.458,0.458 0.107,0 0.21,-0.038 0.293,-0.106 l 4.321,-3.6 c 0.219,-0.183 0.219,-0.52 0,-0.703 l -4.321,-3.599 c -0.194,-0.162 -0.483,-0.136 -0.645,0.059 -0.068,0.082 -0.106,0.186 -0.106,0.293" /></g><g
           transform="translate(41.5163,68.1841)"
           id="g28"><path
             id="path30"
             style="fill:#2b2b2b;fill-opacity:1;fill-rule:nonzero;stroke:none"
             d="m 0,0 v 10.152 c 0,1.442 1.168,2.61 2.609,2.61 h 57.412 c 1.442,0 2.61,-1.168 2.61,-2.61 V -28.992 H 43.347 v -5.219 h 24.504 v 44.363 c 0,4.325 -3.505,7.829 -7.83,7.829 H 2.609 c -4.323,0 -7.829,-3.504 -7.829,-7.829 L -5.22,0 Z" /></g><g
           transform="translate(84.863,31.3628)"
           id="g32"><path
             id="path34"
             style="fill:#2b2b2b;fill-opacity:1;fill-rule:nonzero;stroke:none"
             d="m 0,0 v -7.829 h 21.894 c 4.324,0 7.829,3.506 7.829,7.829 z" /></g><g
           transform="translate(7.8293)"
           id="g36"><path
             id="path38"
             style="fill:#2b2b2b;fill-opacity:1;fill-rule:nonzero;stroke:none"
             d="m 0,0 h 67.851 c 4.324,0 7.829,3.505 7.829,7.829 H -7.829 C -7.829,3.505 -4.324,0 0,0" /></g><g
           transform="translate(78.2897,39.1919)"
           id="g40"><path
             id="path42"
             style="fill:#2b2b2b;fill-opacity:1;fill-rule:nonzero;stroke:none"
             d="m 0,0 h -5.219 v -23.534 h -62.632 v 39.145 c 0,1.441 1.168,2.609 2.61,2.609 h 39.549 v 5.22 h -39.549 c -4.324,0 -7.829,-3.505 -7.829,-7.829 V -28.753 H 0 Z" /></g></g></g></g></svg>