<svg xmlns="http://www.w3.org/2000/svg" xmlns:xlink="http://www.w3.org/1999/xlink" version="1.1" width="47.5634" height="47.5653" viewBox="0 0 47.5634 47.5653">
<defs>
<clipPath id="clip_0">
<path transform="matrix(1,0,0,-1,0,47.5653)" d="M0 47.565H47.563V0H0Z"/>
</clipPath>
</defs>
<g clip-path="url(#clip_0)">
<path transform="matrix(1,0,0,-1,29.5128,15.093498)" d="M0 0 1.239 1.239 2.478 0 1.239-1.238ZM4.955-2.477 3.716-3.716 2.478-2.477 3.716-1.238ZM6.812-3.096C7.155-2.754 7.155-2.2 6.812-1.858L1.858 3.097C1.516 3.439 .961 3.439 .619 3.097L-4.335-1.858 1.858-8.051Z" fill="#ffffff" fill-rule="evenodd"/>
<path transform="matrix(1,0,0,-1,37.7193,4.514801)" d="M0 0C-10.641 7.698-25.508 5.312-33.206-5.329-36.139-9.384-37.719-14.26-37.719-19.264-37.719-20.085-37.054-20.75-36.233-20.75-35.412-20.75-34.747-20.085-34.747-19.264-34.746-7.772-25.428 1.543-13.936 1.542-2.444 1.541 6.871-7.777 6.87-19.269 6.869-30.761-2.449-40.076-13.941-40.075-18.319-40.074-22.585-38.693-26.132-36.128-26.628-35.768-26.774-34.921-26.138-34.285L-22.66-30.807-22.447-31.02C-22.107-31.36-21.556-31.36-21.216-31.02-20.002-29.806-18.457-28.979-16.772-28.642L-14.202-28.127C-13.523-27.992-12.9-27.658-12.411-27.169L-6.349-21.107C-6.006-20.765-6.006-20.21-6.349-19.868L-13.78-12.437C-14.123-12.094-14.677-12.094-15.019-12.437L-21.081-18.498C-21.571-18.987-21.904-19.611-22.04-20.29L-22.554-22.859C-22.891-24.544-23.718-26.09-24.932-27.304-25.272-27.645-25.272-28.194-24.932-28.535L-24.76-28.707-28.237-32.183C-29.961-33.907-30.08-36.939-27.877-38.536-17.236-46.234-2.369-43.848 5.33-33.207 13.027-22.565 10.641-7.698 0 0" fill="#ffffff" fill-rule="evenodd"/>
</g>
</svg>
