<?xml version="1.0" encoding="UTF-8" standalone="no"?>
<svg
   xmlns:dc="http://purl.org/dc/elements/1.1/"
   xmlns:cc="http://creativecommons.org/ns#"
   xmlns:rdf="http://www.w3.org/1999/02/22-rdf-syntax-ns#"
   xmlns:svg="http://www.w3.org/2000/svg"
   xmlns="http://www.w3.org/2000/svg"
   viewBox="0 0 113.33333 113.33333"
   height="113.33333"
   width="113.33333"
   xml:space="preserve"
   id="svg2"
   version="1.1"><metadata
     id="metadata8"><rdf:RDF><cc:Work
         rdf:about=""><dc:format>image/svg+xml</dc:format><dc:type
           rdf:resource="http://purl.org/dc/dcmitype/StillImage" /></cc:Work></rdf:RDF></metadata><defs
     id="defs6"><clipPath
       id="clipPath18"
       clipPathUnits="userSpaceOnUse"><path
         id="path16"
         d="M 0,85 H 85 V 0 H 0 Z" /></clipPath></defs><g
     transform="matrix(1.3333333,0,0,-1.3333333,0,113.33333)"
     id="g10"><g
       id="g12"><g
         clip-path="url(#clipPath18)"
         id="g14"><g
           transform="translate(59.7071,37.3377)"
           id="g20"><path
             id="path22"
             style="fill:#2b2b2b;fill-opacity:1;fill-rule:nonzero;stroke:none"
             d="m 0,0 c -2.851,0 -5.162,2.312 -5.162,5.162 0,2.851 2.311,5.162 5.162,5.162 2.851,0 5.162,-2.311 5.162,-5.162 C 5.162,2.312 2.851,0 0,0 m -17.207,0 c -2.851,0 -5.162,2.312 -5.162,5.162 0,2.851 2.311,5.162 5.162,5.162 2.851,0 5.162,-2.311 5.162,-5.162 0,-2.85 -2.311,-5.162 -5.162,-5.162 m -17.207,0 c -2.851,0 -5.162,2.312 -5.162,5.162 0,2.851 2.311,5.162 5.162,5.162 2.851,0 5.162,-2.311 5.162,-5.162 0,-2.85 -2.311,-5.162 -5.162,-5.162" /></g></g></g></g></svg>