<?xml version="1.0" encoding="UTF-8" standalone="no"?>
<svg
   xmlns:dc="http://purl.org/dc/elements/1.1/"
   xmlns:cc="http://creativecommons.org/ns#"
   xmlns:rdf="http://www.w3.org/1999/02/22-rdf-syntax-ns#"
   xmlns:svg="http://www.w3.org/2000/svg"
   xmlns="http://www.w3.org/2000/svg"
   viewBox="0 0 114.88773 114.8872"
   height="114.8872"
   width="114.88773"
   xml:space="preserve"
   id="svg2"
   version="1.1"><metadata
     id="metadata8"><rdf:RDF><cc:Work
         rdf:about=""><dc:format>image/svg+xml</dc:format><dc:type
           rdf:resource="http://purl.org/dc/dcmitype/StillImage" /></cc:Work></rdf:RDF></metadata><defs
     id="defs6"><clipPath
       id="clipPath18"
       clipPathUnits="userSpaceOnUse"><path
         id="path16"
         d="M 0,86.165 H 86.166 V 0 H 0 Z" /></clipPath></defs><g
     transform="matrix(1.3333333,0,0,-1.3333333,0,114.8872)"
     id="g10"><g
       id="g12"><g
         clip-path="url(#clipPath18)"
         id="g14"><g
           transform="translate(5.3858,9.4243)"
           id="g20"><path
             id="path22"
             style="fill:#2b2b2b;fill-opacity:1;fill-rule:nonzero;stroke:none"
             d="m 0,0 c 0,0.743 0.603,1.346 1.346,1.346 h 29.619 c 0.744,0 1.347,-0.603 1.347,-1.346 0,-0.744 -0.603,-1.347 -1.347,-1.347 H 1.346 C 0.603,-1.347 0,-0.744 0,0 m 2.692,12.117 h 26.927 c 1.487,0 2.693,-1.206 2.693,-2.693 0,-1.487 -1.206,-2.693 -2.693,-2.693 H 2.692 C 1.205,6.731 0,7.937 0,9.424 c 0,1.487 1.205,2.693 2.692,2.693 M 70.009,9.424 c 0,1.487 1.206,2.693 2.693,2.693 1.487,0 2.693,-1.206 2.693,-2.693 0,-1.487 -1.206,-2.693 -2.693,-2.693 -1.487,0 -2.693,1.206 -2.693,2.693 m -10.771,0 c 0,1.487 1.206,2.693 2.693,2.693 1.487,0 2.693,-1.206 2.693,-2.693 0,-1.487 -1.206,-2.693 -2.693,-2.693 -1.487,0 -2.693,1.206 -2.693,2.693 M 2.692,71.355 h 70.01 c 1.487,0 2.693,-1.205 2.693,-2.692 V 30.965 c 0,-1.486 -1.206,-2.692 -2.693,-2.692 H 2.692 C 1.205,28.273 0,29.479 0,30.965 v 37.698 c 0,1.487 1.205,2.692 2.692,2.692 m 0,5.386 c -4.461,0 -8.078,-3.616 -8.078,-8.078 V 30.965 c 0,-4.461 3.617,-8.077 8.078,-8.077 H 26.927 V 17.502 H 0 c -2.975,0 -5.386,-2.411 -5.386,-5.385 V -4.039 c 0,-2.975 2.411,-5.385 5.386,-5.385 h 75.395 c 2.974,0 5.385,2.41 5.385,5.385 v 16.156 c 0,2.974 -2.411,5.385 -5.385,5.385 H 48.468 v 5.386 h 24.234 c 4.461,0 8.078,3.616 8.078,8.077 v 37.698 c 0,4.462 -3.617,8.078 -8.078,8.078 z" /></g><g
           transform="translate(20.1387,57.8648)"
           id="g24"><path
             id="path26"
             style="fill:#2b2b2b;fill-opacity:1;fill-rule:nonzero;stroke:none"
             d="m 0,0 h -5.387 v -6.855 h 5.584 c 2.871,0 4.309,1.207 4.309,3.624 C 4.374,-1.143 2.873,-0.065 0,0 M -0.391,8.62 H -5.387 V 2.449 h 4.996 C 2.286,2.513 3.657,3.591 3.722,5.681 3.657,7.639 2.286,8.62 -0.391,8.62 M 0.686,-9.107 H -8.421 V 10.969 H 0.197 C 4.439,10.837 6.693,9.239 6.955,6.171 6.889,3.624 5.517,2.057 2.841,1.47 V 1.372 c 3.068,-0.524 4.733,-2.122 4.994,-4.799 0,-3.788 -2.383,-5.68 -7.149,-5.68" /></g><path
           id="path28"
           style="fill:#2b2b2b;fill-opacity:1;fill-rule:nonzero;stroke:none"
           d="m 31.293,68.834 h 3.036 V 48.757 h -3.036 z" /><g
           transform="translate(47.147,50.9117)"
           id="g30"><path
             id="path32"
             style="fill:#2b2b2b;fill-opacity:1;fill-rule:nonzero;stroke:none"
             d="M 0,0 C 4.178,0.195 6.366,2.774 6.562,7.737 6.366,12.634 4.212,15.245 0.099,15.573 -4.016,15.245 -6.204,12.634 -6.463,7.737 -6.268,2.905 -4.112,0.326 0,0 M 0.197,18.217 C 6.268,17.825 9.533,14.331 9.99,7.737 9.663,1.273 6.366,-2.121 0.099,-2.449 c -6.268,0.328 -9.535,3.722 -9.795,10.186 0.326,6.66 3.624,10.152 9.893,10.48" /></g><g
           transform="translate(59.1817,54.8286)"
           id="g34"><path
             id="path36"
             style="fill:#2b2b2b;fill-opacity:1;fill-rule:nonzero;stroke:none"
             d="m 0,0 3.134,0.686 c 0.456,-3.2 2.317,-4.798 5.582,-4.798 2.873,0.064 4.375,1.206 4.507,3.426 C 13.417,0.816 12.079,1.96 9.207,2.743 8.945,2.873 8.39,3.036 7.542,3.233 7.28,3.297 7.083,3.33 6.953,3.33 2.579,4.244 0.522,6.104 0.784,8.914 c 0.26,3.393 2.644,5.19 7.149,5.386 4.569,0.064 7.248,-1.763 8.03,-5.485 L 12.929,8.129 c -0.458,2.415 -2.057,3.624 -4.8,3.624 C 5.583,11.688 4.212,10.74 4.016,8.914 3.82,7.411 5.387,6.333 8.716,5.681 10.021,5.354 11.002,5.093 11.654,4.898 14.984,3.853 16.616,2.024 16.552,-0.587 16.421,-4.309 13.842,-6.233 8.815,-6.366 3.786,-6.495 0.848,-4.374 0,0" /></g></g></g></g></svg>