<svg xmlns="http://www.w3.org/2000/svg" xmlns:xlink="http://www.w3.org/1999/xlink" version="1.1" width="63.2541" height="47.5652" viewBox="0 0 63.2541 47.5652">
<defs>
<clipPath id="clip_0">
<path transform="matrix(1,0,0,-1,0,47.5652)" d="M0 47.565H63.254V0H0Z"/>
</clipPath>
</defs>
<g clip-path="url(#clip_0)">
<path transform="matrix(1,0,0,-1,10.4467,34.843904)" d="M0 0C0 .29 .235 .524 .524 .524H2.623C2.912 .524 3.147 .29 3.147 0 3.147-.29 2.912-.524 2.623-.524H.524C.235-.524 0-.29 0 0M0 2.098C0 2.388 .235 2.623 .524 2.623H4.721C5.01 2.623 5.245 2.388 5.245 2.098 5.245 1.808 5.01 1.573 4.721 1.573H.524C.235 1.573 0 1.808 0 2.098M0 4.196C0 4.485 .235 4.72 .524 4.72H8.917C9.206 4.72 9.441 4.485 9.441 4.196 9.441 3.906 9.206 3.671 8.917 3.671H.524C.235 3.671 0 3.906 0 4.196M7.343 6.294C7.343 6.583 7.578 6.818 7.868 6.818H15.21C15.5 6.818 15.735 6.583 15.735 6.294 15.735 6.004 15.5 5.77 15.21 5.77H7.868C7.578 5.77 7.343 6.004 7.343 6.294M0 6.294C0 6.583 .235 6.818 .524 6.818H5.77C6.059 6.818 6.294 6.583 6.294 6.294 6.294 6.004 6.059 5.77 5.77 5.77H.524C.235 5.77 0 6.004 0 6.294M8.392 8.392C8.392 8.682 8.627 8.917 8.917 8.917H14.162C14.451 8.917 14.686 8.682 14.686 8.392 14.686 8.102 14.451 7.867 14.162 7.867H8.917C8.627 7.867 8.392 8.102 8.392 8.392M0 8.392C0 8.682 .235 8.917 .524 8.917H6.818C7.108 8.917 7.343 8.682 7.343 8.392 7.343 8.102 7.108 7.867 6.818 7.867H.524C.235 7.867 0 8.102 0 8.392M12.588 10.49C12.588 10.779 12.823 11.014 13.112 11.014H16.259C16.549 11.014 16.784 10.779 16.784 10.49 16.784 10.2 16.549 9.965 16.259 9.965H13.112C12.823 9.965 12.588 10.2 12.588 10.49M5.245 10.49C5.245 10.779 5.48 11.014 5.77 11.014H11.015C11.304 11.014 11.539 10.779 11.539 10.49 11.539 10.2 11.304 9.965 11.015 9.965H5.77C5.48 9.965 5.245 10.2 5.245 10.49M0 10.49C0 10.779 .235 11.014 .524 11.014H3.671C3.961 11.014 4.196 10.779 4.196 10.49 4.196 10.2 3.961 9.965 3.671 9.965H.524C.235 9.965 0 10.2 0 10.49M9.441 12.588C9.441 12.877 9.676 13.112 9.965 13.112H15.21C15.5 13.112 15.735 12.877 15.735 12.588 15.735 12.298 15.5 12.063 15.21 12.063H9.965C9.676 12.063 9.441 12.298 9.441 12.588M0 12.588C0 12.877 .235 13.112 .524 13.112H7.868C8.157 13.112 8.392 12.877 8.392 12.588 8.392 12.298 8.157 12.063 7.868 12.063H.524C.235 12.063 0 12.298 0 12.588M0 14.686C0 14.975 .235 15.21 .524 15.21H4.721C5.01 15.21 5.245 14.975 5.245 14.686 5.245 14.396 5.01 14.161 4.721 14.161H.524C.235 14.161 0 14.396 0 14.686" fill="#ffffff" fill-rule="evenodd"/>
<path transform="matrix(1,0,0,-1,47.9077,13.087002)" d="M0 0C.25 .124 .553 .022 .677-.228 1.918-2.728 .897-5.76-1.603-7-2.301-7.348-3.071-7.528-3.851-7.528H-9.915V-9.009C-9.915-9.149-10.028-9.262-10.167-9.262-10.227-9.262-10.284-9.241-10.329-9.203L-12.714-7.216C-12.821-7.127-12.836-6.968-12.747-6.86-12.737-6.849-12.726-6.838-12.714-6.828L-10.329-4.841C-10.222-4.752-10.063-4.767-9.974-4.874-9.936-4.919-9.915-4.977-9.915-5.035V-6.517H-3.851C-1.618-6.518 .192-4.708 .193-2.476 .193-1.852 .049-1.237-.228-.678-.352-.429-.25-.125 0-.001ZM-3.851 .087V1.568H-9.915C-12.147 1.569-13.958-.241-13.958-2.474-13.958-3.097-13.814-3.712-13.537-4.271-13.413-4.521-13.515-4.824-13.765-4.948-14.015-5.073-14.318-4.971-14.442-4.721-15.684-2.221-14.663 .812-12.163 2.052-11.464 2.399-10.695 2.579-9.915 2.579H-3.851V4.061C-3.851 4.2-3.738 4.313-3.598 4.313-3.539 4.313-3.482 4.292-3.437 4.255L-1.051 2.268C-.93 2.167-.93 1.981-1.051 1.88L-3.437-.107C-3.543-.197-3.703-.182-3.792-.075-3.83-.029-3.851 .028-3.851 .087" fill="#ffffff"/>
<path transform="matrix(1,0,0,-1,22.9179,9.9258999)" d="M0 0V5.604C0 6.4 .645 7.045 1.44 7.045H33.133C33.929 7.045 34.574 6.4 34.574 5.604V-16.004H23.928V-18.886H37.455V5.604C37.455 7.991 35.52 9.926 33.133 9.926H1.44C-.946 9.926-2.881 7.991-2.881 5.604V0Z" fill="#ffffff"/>
<path transform="matrix(1,0,0,-1,46.8462,30.2521)" d="M0 0V-4.322H12.086C14.473-4.322 16.408-2.387 16.408 0Z" fill="#ffffff"/>
<path transform="matrix(1,0,0,-1,4.3217,47.5651)" d="M0 0H37.455C39.842 0 41.777 1.935 41.777 4.322H-4.322C-4.322 1.935-2.387 0 0 0" fill="#ffffff"/>
<path transform="matrix(1,0,0,-1,43.2177,25.930302)" d="M0 0H-2.881V-12.991H-37.456V8.617C-37.456 9.413-36.811 10.058-36.015 10.058H-14.183V12.939H-36.015C-38.402 12.939-40.336 11.004-40.336 8.617V-15.873H0Z" fill="#ffffff"/>
</g>
</svg>
