<svg xmlns="http://www.w3.org/2000/svg" xmlns:xlink="http://www.w3.org/1999/xlink" version="1.1" width="46.9677" height="46.9675" viewBox="0 0 46.9677 46.9675">
<defs>
<clipPath id="clip_0">
<path transform="matrix(1,0,0,-1,0,46.9675)" d="M0 46.968H46.968V0H0Z"/>
</clipPath>
</defs>
<g clip-path="url(#clip_0)">
<path transform="matrix(1,0,0,-1,3.8997,36.025499)" d="M0 0V29.328C0 30.874 1.252 32.126 2.797 32.126H32.126L34.924 34.924H2.797C-.292 34.924-2.798 32.418-2.798 29.328V-2.798Z" fill="#ffffff"/>
<path transform="matrix(1,0,0,-1,43.0682,10.941998)" d="M0 0V-29.328C0-30.874-1.252-32.126-2.798-32.126H-32.126L-34.924-34.924H-2.798C.292-34.924 2.798-32.418 2.798-29.328V2.798Z" fill="#ffffff"/>
<path transform="matrix(1,0,0,-1,29.0711,9.512798)" d="M0 0H-11.191C-11.964 0-12.59-.626-12.59-1.399V-2.798H-15.388C-16.161-2.798-16.787-3.424-16.787-4.197V-8.393H-20.983C-21.756-8.393-22.382-9.02-22.382-9.792V-23.733L.96-.39C.709-.151 .374 0 0 0" fill="#ffffff"/>
<path transform="matrix(1,0,0,-1,22.7762,31.8946)" d="M0 0H1.399C1.785 0 2.098-.313 2.098-.7V-4.896C2.098-5.283 1.785-5.596 1.399-5.596H0C-.387-5.596-.7-5.283-.7-4.896V-.7C-.7-.313-.387 0 0 0M4.896-.7C4.896-.313 5.209 0 5.595 0H6.994C7.38 0 7.694-.313 7.694-.7V-4.896C7.694-5.283 7.38-5.596 6.994-5.596H5.595C5.209-5.596 4.896-5.283 4.896-4.896ZM10.491-.7C10.491-.313 10.805 0 11.191 0H12.59C12.976 0 13.289-.313 13.289-.7V-4.896C13.289-5.283 12.976-5.596 12.59-5.596H11.191C10.805-5.596 10.491-5.283 10.491-4.896ZM-3.498-4.896C-3.498-5.283-3.811-5.596-4.197-5.596H-5.596C-5.776-5.596-5.937-5.522-6.062-5.41L-9.045-8.394H16.087C16.859-8.394 17.486-7.767 17.486-6.995V12.59C17.486 13.362 16.859 13.989 16.087 13.989H13.337L-3.498-2.846Z" fill="#ffffff"/>
<path transform="matrix(1,0,0,-1,.6912,46.275999)" d="M0 0V0C-.922 .922-.922 2.417 0 3.338L42.247 45.584C43.168 46.506 44.663 46.506 45.585 45.584 46.507 44.663 46.507 43.168 45.585 42.246L3.339 0C2.417-.922 .922-.922 0 0" fill="#ffffff"/>
</g>
</svg>
