<svg xmlns="http://www.w3.org/2000/svg" xmlns:xlink="http://www.w3.org/1999/xlink" width="17.68994140625" height="13.57000732421875" viewBox="0 0 17.68994140625 13.57000732421875" fill="none">
<g  clip-path="url(#clip-path-0cpX6CIPONGFltZGf6G3u)">
<path d="M1.27 12.31L1.27 8.74L0 8.74L0 8L3.41 8L3.41 8.73L2.14 8.73L2.14 12.3L1.27 12.31Z"   fill="#000000" >
</path>
<path d="M4.14022 10.14L3.39022 10C3.4213 9.86698 3.47373 9.74297 3.54753 9.62799C3.62132 9.51301 3.71222 9.41369 3.82022 9.33002C3.95942 9.24896 4.10735 9.18971 4.26401 9.15225C4.42068 9.11479 4.57941 9.10071 4.74022 9.11002C5.02391 9.09603 5.29724 9.1427 5.56022 9.25002C5.64005 9.28251 5.7125 9.32701 5.77757 9.38353C5.84264 9.44004 5.89686 9.50554 5.94022 9.58002C6.03035 9.81529 6.06702 10.0586 6.05022 10.31L6.05022 11.31C6.02944 11.5133 6.02944 11.7167 6.05022 11.92C6.07659 12.0685 6.12659 12.2085 6.20022 12.34L5.41022 12.34C5.41022 12.28 5.41022 12.2 5.33022 12.09C5.33649 12.06 5.33649 12.03 5.33022 12C5.19962 12.1291 5.04962 12.2291 4.88022 12.3C4.71798 12.3727 4.54798 12.4093 4.37022 12.41C4.23162 12.4166 4.09668 12.3975 3.9654 12.3526C3.83411 12.3077 3.71572 12.2401 3.61022 12.15C3.5217 12.0633 3.45398 11.9626 3.40707 11.8479C3.36015 11.7332 3.33786 11.6139 3.34022 11.49C3.3226 11.3179 3.3526 11.1546 3.43022 11C3.51508 10.8585 3.63175 10.7519 3.78022 10.68C3.99242 10.5896 4.21242 10.5263 4.44022 10.49C4.71273 10.4467 4.9794 10.3801 5.24022 10.29L5.24022 10.2C5.24672 10.1387 5.23944 10.0791 5.21837 10.0211C5.1973 9.9632 5.16458 9.91283 5.12022 9.87002C5.05551 9.82666 4.98538 9.79554 4.90981 9.77666C4.83425 9.75776 4.75772 9.75222 4.68022 9.76002C4.55677 9.75177 4.44343 9.78177 4.34022 9.85002C4.24214 9.92502 4.17548 10.0217 4.14022 10.14ZM5.24022 10.81C5.07622 10.8636 4.90955 10.9069 4.74022 10.94C4.58269 10.9625 4.43269 11.0091 4.29022 11.08C4.24022 11.1112 4.20098 11.1526 4.17252 11.2042C4.14405 11.2558 4.12995 11.3111 4.13022 11.37C4.12816 11.4273 4.13853 11.4822 4.16131 11.5347C4.18408 11.5872 4.21705 11.6323 4.26022 11.67C4.304 11.7133 4.35455 11.7463 4.41187 11.7689C4.46919 11.7915 4.52864 11.8019 4.59022 11.8C4.7433 11.7949 4.87997 11.7449 5.00022 11.65C5.04873 11.6185 5.09019 11.5796 5.12462 11.5331C5.15904 11.4866 5.18424 11.4356 5.20022 11.38C5.21538 11.2467 5.21538 11.1133 5.20022 10.98L5.24022 10.81Z"   fill="#000000" >
</path>
<path d="M7.64995 12.31L6.81995 12.31L6.81995 9.2L7.58995 9.2L7.58995 9.64C7.67993 9.47776 7.79659 9.33776 7.93995 9.22C8.05058 9.15291 8.17058 9.11958 8.29995 9.12C8.4938 9.12657 8.6738 9.17991 8.83995 9.28L8.57995 10C8.46717 9.91565 8.3405 9.86898 8.19995 9.86C8.08858 9.85924 7.98858 9.89257 7.89995 9.96C7.80274 10.0544 7.73941 10.1677 7.70995 10.3C7.66059 10.6316 7.64059 10.9649 7.64995 11.3L7.64995 12.31Z"   fill="#000000" >
</path>
<path d="M9.12002 12.51L10.06 12.63C10.0604 12.6732 10.0702 12.7141 10.0895 12.7527C10.1088 12.7914 10.1357 12.8238 10.17 12.85C10.2831 12.9221 10.4065 12.9521 10.54 12.94C10.7095 12.9519 10.8695 12.9186 11.02 12.84C11.0594 12.8168 11.0929 12.787 11.1206 12.7507C11.1483 12.7144 11.1681 12.6741 11.18 12.63C11.2032 12.5067 11.2032 12.3833 11.18 12.26L11.18 11.8C11.1299 11.8779 11.071 11.9485 11.0033 12.0117C10.9356 12.0749 10.8611 12.1288 10.7799 12.1733C10.6986 12.2178 10.6132 12.2517 10.5235 12.2748C10.4338 12.2979 10.3426 12.3097 10.25 12.31C10.1508 12.3132 10.0529 12.3036 9.95617 12.2812C9.85949 12.2588 9.76729 12.2244 9.67959 12.1779C9.5919 12.1314 9.51165 12.0744 9.43883 12.007C9.366 11.9395 9.30307 11.8639 9.25002 11.78C9.15236 11.6318 9.07882 11.4724 9.02938 11.3019C8.97994 11.1314 8.95682 10.9575 8.96002 10.78C8.95155 10.6733 8.95346 10.5667 8.96574 10.4603C8.97803 10.3539 9.00047 10.2497 9.03304 10.1476C9.06563 10.0456 9.10774 9.9477 9.15939 9.85388C9.21103 9.76006 9.27124 9.6721 9.34002 9.59C9.39733 9.52297 9.46125 9.46299 9.53179 9.41006C9.60232 9.35713 9.67777 9.31252 9.75815 9.27622C9.83852 9.23992 9.92188 9.21282 10.0082 9.1949C10.0945 9.17698 10.1818 9.16868 10.27 9.17C10.3641 9.16956 10.4569 9.18071 10.5483 9.20346C10.6396 9.2262 10.7268 9.25984 10.8098 9.30438C10.8927 9.34892 10.9689 9.40298 11.0383 9.46656C11.1078 9.53014 11.1683 9.60128 11.22 9.68L11.22 9.2L12 9.2L12 12C12.0105 12.2778 11.9805 12.5511 11.91 12.82C11.8613 12.9835 11.7779 13.1268 11.66 13.25C11.53 13.3605 11.3833 13.4405 11.22 13.49C10.9947 13.5565 10.7647 13.5865 10.53 13.58C10.3335 13.5983 10.1394 13.5844 9.94757 13.5381C9.75574 13.4919 9.57656 13.4159 9.41002 13.31C9.35684 13.2697 9.30902 13.2237 9.26655 13.1722C9.22407 13.1207 9.18808 13.065 9.15858 13.0051C9.12907 12.9452 9.10684 12.8828 9.09188 12.8177C9.07691 12.7526 9.06963 12.6867 9.07001 12.62C9.07001 12.62 9.12002 12.55 9.12002 12.51ZM9.85002 10.69C9.84088 10.8172 9.85258 10.9425 9.88513 11.0658C9.91767 11.1891 9.9693 11.3039 10.04 11.41C10.0972 11.4843 10.1681 11.5417 10.2526 11.5822C10.3371 11.6227 10.4263 11.642 10.52 11.64C10.6175 11.64 10.7108 11.62 10.7997 11.5799C10.8887 11.5398 10.9655 11.4831 11.03 11.41C11.1079 11.3107 11.165 11.2007 11.2012 11.0799C11.2375 10.959 11.2504 10.8357 11.24 10.71C11.2428 10.5813 11.2236 10.4559 11.1823 10.3339C11.1411 10.212 11.0803 10.1007 11 10C10.9848 9.9817 10.9686 9.96428 10.9515 9.94775C10.9344 9.93122 10.9164 9.91568 10.8976 9.90113C10.8788 9.88657 10.8592 9.87309 10.8389 9.86069C10.8186 9.84828 10.7977 9.83702 10.7762 9.82692C10.7547 9.8168 10.7326 9.8079 10.7101 9.80022C10.6876 9.79252 10.6647 9.78609 10.6415 9.78092C10.6182 9.77574 10.5948 9.77184 10.5712 9.76924C10.5475 9.76663 10.5238 9.76533 10.5 9.76533C10.4762 9.76533 10.4525 9.76663 10.4288 9.76924C10.4052 9.77184 10.3818 9.77574 10.3585 9.78092C10.3353 9.78609 10.3124 9.79252 10.2899 9.80022C10.2674 9.8079 10.2453 9.8168 10.2238 9.82692C10.2023 9.83702 10.1814 9.84828 10.1611 9.86069C10.1408 9.87309 10.1212 9.88657 10.1024 9.90113C10.0836 9.91568 10.0657 9.93122 10.0485 9.94775C10.0314 9.96428 10.0152 9.9817 10 10C9.93977 10.1044 9.89684 10.2155 9.87123 10.3333C9.84563 10.4511 9.83856 10.57 9.85002 10.69Z"   fill="#000000" >
</path>
<path d="M14.66 11.32L15.48 11.45C15.4351 11.5885 15.37 11.7167 15.2846 11.8346C15.1992 11.9525 15.0977 12.0543 14.98 12.14C14.8544 12.2235 14.719 12.2858 14.5739 12.3268C14.4287 12.3678 14.2807 12.3855 14.13 12.38C14.0159 12.3882 13.9026 12.3825 13.7899 12.3629C13.6773 12.3433 13.5687 12.3104 13.4641 12.2642C13.3595 12.2181 13.262 12.1599 13.1717 12.0898C13.0813 12.0197 13.0007 11.9398 12.93 11.85C12.8211 11.6916 12.7401 11.52 12.687 11.3353C12.634 11.1505 12.6117 10.9621 12.62 10.77C12.6123 10.6617 12.6147 10.5537 12.6274 10.4459C12.64 10.3381 12.6626 10.2324 12.6951 10.1289C12.7276 10.0254 12.7695 9.92579 12.8208 9.83013C12.8721 9.73447 12.9318 9.64443 13 9.56001C13.0632 9.49027 13.133 9.42789 13.2094 9.37287C13.2857 9.31784 13.367 9.27137 13.4531 9.23347C13.5392 9.19556 13.6284 9.16705 13.7206 9.14793C13.8127 9.12881 13.9059 9.1195 14 9.12001C14.1029 9.11549 14.2051 9.12227 14.3066 9.14033C14.4081 9.15839 14.5063 9.1873 14.6014 9.22706C14.6965 9.26681 14.7861 9.31646 14.8702 9.37601C14.9543 9.43555 15.0309 9.50355 15.1 9.58001C15.1784 9.67964 15.2467 9.78577 15.305 9.8984C15.3632 10.011 15.4103 10.1281 15.4463 10.2497C15.4822 10.3713 15.5064 10.4952 15.5188 10.6213C15.5312 10.7475 15.5316 10.8737 15.52 11L13.46 11C13.4578 11.1039 13.4739 11.205 13.5083 11.3031C13.5428 11.4012 13.5933 11.4902 13.66 11.57C13.7229 11.6348 13.7961 11.6846 13.8795 11.7193C13.9628 11.754 14.0497 11.7709 14.14 11.77C14.2583 11.7738 14.3649 11.7405 14.46 11.67C14.5617 11.5734 14.6284 11.4567 14.66 11.32ZM14.71 10.48C14.7118 10.3815 14.6964 10.2858 14.6637 10.1929C14.631 10.1 14.5831 10.0157 14.52 9.94001C14.4646 9.87992 14.3995 9.83336 14.3247 9.80033C14.25 9.76729 14.1717 9.75052 14.09 9.75001C14.0055 9.74906 13.9247 9.76608 13.8478 9.80106C13.7708 9.83604 13.7049 9.88569 13.65 9.95001C13.5868 10.0231 13.5404 10.1056 13.5109 10.1976C13.4814 10.2897 13.4711 10.3838 13.48 10.48L14.71 10.48Z"   fill="#000000" >
</path>
<path d="M17.62 9.19998L17.62 9.84998L17.06 9.84998L17.06 11.11C17.0431 11.2566 17.0431 11.4033 17.06 11.55C17.0672 11.5946 17.0905 11.628 17.13 11.65C17.1767 11.6664 17.2233 11.6664 17.27 11.65C17.3837 11.644 17.4937 11.6207 17.6 11.58L17.67 12.21C17.4631 12.302 17.2464 12.3454 17.02 12.34C16.8811 12.3411 16.7478 12.3144 16.62 12.26C16.5135 12.2237 16.4269 12.1604 16.36 12.07C16.2935 11.9732 16.2535 11.8666 16.24 11.75C16.2242 11.5566 16.2242 11.3633 16.24 11.17L16.24 9.84998L15.87 9.84998L15.87 9.19998L16.24 9.19998L16.24 8.57998L17.07 8.09998L17.07 9.19998L17.62 9.19998Z"   fill="#000000" >
</path>
<path d="M13.14 1.21999L12.21 0.299987C12.1603 0.252584 12.1065 0.210314 12.0486 0.173178C11.9908 0.136042 11.93 0.10471 11.8662 0.0791815C11.8024 0.053653 11.7368 0.0343893 11.6693 0.0213905C11.6018 0.00839155 11.5337 0.00189209 11.465 0.00189209C11.3963 0.00189209 11.3282 0.00839155 11.2607 0.0213905C11.1932 0.0343893 11.1276 0.053653 11.0638 0.0791815C11 0.10471 10.9392 0.136042 10.8814 0.173178C10.8235 0.210314 10.7697 0.252584 10.72 0.299987L9.71999 1.29998C9.69508 1.32331 9.67142 1.34785 9.64902 1.37359C9.62662 1.39933 9.6056 1.42616 9.58594 1.45406C9.56629 1.48195 9.54811 1.51079 9.5314 1.54055C9.5147 1.57031 9.49956 1.60084 9.48598 1.63214C9.47241 1.66345 9.46047 1.69537 9.45015 1.72791C9.43985 1.76044 9.43123 1.79341 9.42429 1.82683C9.41736 1.86025 9.41215 1.89393 9.40866 1.92787C9.40518 1.96182 9.40344 1.99586 9.40344 2.02999C9.40344 2.06411 9.40518 2.09815 9.40866 2.1321C9.41215 2.16604 9.41736 2.19972 9.42429 2.23315C9.43123 2.26656 9.43985 2.29953 9.45015 2.33206C9.46047 2.3646 9.47241 2.39652 9.48598 2.42783C9.49956 2.45913 9.5147 2.48967 9.5314 2.51942C9.54811 2.54919 9.56629 2.57802 9.58594 2.60592C9.6056 2.63382 9.62662 2.66064 9.64902 2.68638C9.67142 2.71213 9.69508 2.73666 9.71999 2.75999L10.31 2.19999C10.297 2.15277 10.2908 2.10467 10.2915 2.0557C10.2921 2.00673 10.2995 1.95881 10.3136 1.91193C10.3277 1.86504 10.3481 1.82103 10.3747 1.77991C10.4013 1.73878 10.4331 1.70214 10.47 1.66998L11.09 0.999987C11.1142 0.975497 11.1406 0.953624 11.1691 0.934367C11.1976 0.91511 11.2278 0.898845 11.2595 0.885574C11.2912 0.872303 11.324 0.862283 11.3578 0.855515C11.3915 0.848748 11.4256 0.845364 11.46 0.845364C11.4944 0.845364 11.5285 0.848748 11.5622 0.855515C11.596 0.862283 11.6288 0.872303 11.6605 0.885574C11.6922 0.898845 11.7224 0.915109 11.7509 0.934366C11.7794 0.953623 11.8058 0.975497 11.83 0.999987L12.39 1.54998C12.415 1.57337 12.4373 1.59905 12.457 1.62703C12.4767 1.65499 12.4934 1.68467 12.507 1.71606C12.5206 1.74746 12.5309 1.77991 12.5379 1.81341C12.5448 1.84691 12.5483 1.88077 12.5483 1.91498C12.5483 1.9492 12.5448 1.98306 12.5379 2.01657C12.5309 2.05007 12.5206 2.08251 12.507 2.11391C12.4934 2.1453 12.4767 2.17498 12.457 2.20296C12.4373 2.23092 12.415 2.2566 12.39 2.27999L11.73 2.99999C11.6943 3.03335 11.6552 3.06217 11.6128 3.08645C11.5704 3.11072 11.5258 3.12981 11.4789 3.14368C11.432 3.15757 11.3842 3.16589 11.3354 3.16864C11.2866 3.1714 11.2381 3.16851 11.19 3.15999L10.62 3.71999C10.6687 3.76836 10.7217 3.81155 10.7788 3.84956C10.836 3.88755 10.8963 3.91964 10.9598 3.94581C11.0233 3.97197 11.0887 3.99173 11.156 4.00507C11.2233 4.0184 11.2913 4.02507 11.36 4.02507C11.4287 4.02507 11.4967 4.0184 11.564 4.00507C11.6313 3.99173 11.6967 3.97197 11.7602 3.94581C11.8237 3.91964 11.884 3.88755 11.9412 3.84956C11.9983 3.81155 12.0513 3.76836 12.1 3.71999L13.1 2.71999C13.1271 2.69731 13.153 2.67325 13.1777 2.64783C13.2023 2.6224 13.2255 2.59574 13.2472 2.56785C13.269 2.53996 13.2893 2.511 13.308 2.48096C13.3267 2.45092 13.3437 2.41998 13.3592 2.38814C13.3746 2.35628 13.3883 2.32371 13.4002 2.29041C13.4122 2.2571 13.4224 2.22325 13.4307 2.18888C13.4391 2.1545 13.4456 2.11977 13.4503 2.08469C13.455 2.04961 13.4578 2.01439 13.4587 1.97902C13.4597 1.94364 13.4588 1.90832 13.4559 1.87305C13.4531 1.83777 13.4485 1.80275 13.442 1.76797C13.4355 1.73318 13.4271 1.69885 13.4169 1.66496C13.4068 1.63106 13.3948 1.5978 13.3811 1.56517C13.3674 1.53256 13.352 1.50075 13.3349 1.46975C13.3178 1.43876 13.2992 1.40876 13.2789 1.37975C13.2586 1.35074 13.2369 1.32288 13.2137 1.29618C13.1905 1.26948 13.1659 1.24408 13.14 1.21999Z"   fill="#000000" >
</path>
<path d="M9.37004 4.90003C9.37918 4.94856 9.38229 4.99746 9.37936 5.04675C9.37643 5.09604 9.36755 5.14424 9.35273 5.19134C9.33789 5.23844 9.31756 5.28303 9.29173 5.32511C9.26589 5.36719 9.23532 5.4055 9.20004 5.44003L8.59003 6.00003C8.56499 6.02483 8.5378 6.04696 8.50842 6.06643C8.47905 6.0859 8.44807 6.10234 8.41548 6.11575C8.38289 6.12916 8.34931 6.13928 8.31474 6.14611C8.28017 6.15294 8.24527 6.15636 8.21003 6.15636C8.1748 6.15636 8.13989 6.15294 8.10532 6.14611C8.07076 6.13928 8.03717 6.12916 8.00458 6.11575C7.97199 6.10234 7.94101 6.0859 7.91164 6.06643C7.88227 6.04696 7.85507 6.02483 7.83003 6.00003L7.26003 5.44003C7.23492 5.4162 7.21246 5.39009 7.19266 5.36169C7.17286 5.3333 7.15613 5.3032 7.14246 5.27139C7.1288 5.23958 7.11847 5.20673 7.11149 5.17282C7.10452 5.13891 7.10103 5.10465 7.10103 5.07003C7.10103 5.03541 7.10452 5.00115 7.11149 4.96724C7.11847 4.93333 7.1288 4.90048 7.14246 4.86867C7.15613 4.83686 7.17286 4.80676 7.19266 4.77837C7.21246 4.74997 7.23492 4.72386 7.26003 4.70003L7.88003 4.10003C7.91772 4.06877 7.95875 4.04281 8.00312 4.02213C8.04749 4.00145 8.09377 3.98673 8.14193 3.97798C8.1901 3.96922 8.2386 3.9667 8.28741 3.97044C8.33622 3.97418 8.38376 3.98404 8.43003 4.00003L9.00003 3.39003C8.94934 3.34157 8.8945 3.29836 8.83554 3.2604C8.77656 3.22243 8.71453 3.1904 8.64944 3.1643C8.58435 3.13819 8.51738 3.11849 8.44852 3.1052C8.37966 3.09191 8.31016 3.08527 8.24004 3.08527C8.1699 3.08527 8.1004 3.09191 8.03154 3.1052C7.96268 3.11849 7.89571 3.13819 7.83062 3.1643C7.76553 3.1904 7.7035 3.22243 7.64453 3.2604C7.58556 3.29836 7.53074 3.34157 7.48003 3.39003L6.48003 4.39003C6.45392 4.41342 6.4291 4.43811 6.40558 4.4641C6.38206 4.49009 6.35997 4.51725 6.3393 4.54556C6.31864 4.57388 6.29952 4.6032 6.28194 4.63353C6.26436 4.66386 6.24842 4.69502 6.23412 4.72703C6.21982 4.75903 6.20723 4.79169 6.19636 4.82502C6.1855 4.85835 6.17641 4.89215 6.1691 4.92644C6.16178 4.96072 6.15629 4.99529 6.15261 5.03016C6.14893 5.06502 6.14709 5.09998 6.14709 5.13503C6.14709 5.17008 6.14893 5.20504 6.15261 5.2399C6.15629 5.27477 6.16178 5.30934 6.1691 5.34362C6.17641 5.37791 6.1855 5.41171 6.19636 5.44504C6.20723 5.47837 6.21981 5.51103 6.23411 5.54303C6.24842 5.57504 6.26436 5.6062 6.28194 5.63653C6.29952 5.66686 6.31864 5.69618 6.3393 5.7245C6.35997 5.75281 6.38206 5.77997 6.40558 5.80596C6.4291 5.83195 6.45392 5.85664 6.48003 5.88003L7.48003 6.82003C7.50565 6.84412 7.53239 6.86691 7.56024 6.88839C7.58809 6.90987 7.61691 6.92994 7.64672 6.94861C7.67653 6.96727 7.70718 6.98444 7.73867 7.00011C7.77016 7.01578 7.80233 7.02987 7.83519 7.0424C7.86806 7.05493 7.90145 7.06582 7.93538 7.07509C7.96931 7.08435 8.00361 7.09194 8.03828 7.09785C8.07296 7.10376 8.10782 7.10797 8.1429 7.11048C8.17799 7.11299 8.21311 7.11378 8.24826 7.11285C8.28342 7.11192 8.31845 7.10929 8.35335 7.10494C8.38825 7.10059 8.42286 7.09456 8.45717 7.08683C8.49148 7.0791 8.52534 7.06971 8.55872 7.05868C8.59211 7.04765 8.6249 7.03501 8.65705 7.02077C8.68921 7.00654 8.7206 6.99077 8.75122 6.97346C8.78185 6.95615 8.81154 6.9374 8.84033 6.91719C8.86912 6.89699 8.89685 6.87543 8.92353 6.85251C8.95021 6.8296 8.97571 6.80544 9.00003 6.78003L10 5.78003C10.0262 5.75664 10.051 5.73195 10.0745 5.70596C10.098 5.67997 10.1201 5.65281 10.1407 5.6245C10.1614 5.59618 10.1805 5.56686 10.1981 5.53653C10.2157 5.5062 10.2317 5.47504 10.2459 5.44303C10.2603 5.41103 10.2729 5.37837 10.2837 5.34504C10.2946 5.31171 10.3037 5.27791 10.3109 5.24362C10.3183 5.20934 10.3238 5.17477 10.3274 5.1399C10.3311 5.10504 10.3329 5.07008 10.3329 5.03503C10.3329 4.99998 10.3311 4.96502 10.3274 4.93016C10.3238 4.8953 10.3183 4.86073 10.3109 4.82644C10.3037 4.79215 10.2946 4.75835 10.2837 4.72502C10.2729 4.69169 10.2603 4.65903 10.2459 4.62703C10.2317 4.59502 10.2157 4.56386 10.1981 4.53353C10.1805 4.5032 10.1614 4.47388 10.1407 4.44556C10.1201 4.41725 10.098 4.39009 10.0745 4.3641C10.051 4.33811 10.0262 4.31342 10 4.29003L9.37004 4.90003Z"   fill="#000000" >
</path>
<path d="M8.72 4.62999C8.73672 4.64677 8.75492 4.66175 8.77461 4.67494C8.79429 4.68813 8.81507 4.69926 8.83695 4.70835C8.85883 4.71744 8.88139 4.7243 8.90462 4.72893C8.92785 4.73356 8.95131 4.73587 8.975 4.73587C8.99869 4.73587 9.02216 4.73356 9.04539 4.72893C9.06862 4.7243 9.09118 4.71744 9.11305 4.70835C9.13493 4.69926 9.15571 4.68813 9.1754 4.67494C9.19508 4.66175 9.21328 4.64677 9.23 4.62999L10.93 2.93999C10.9466 2.92369 10.9615 2.90592 10.9746 2.88666C10.9877 2.8674 10.9987 2.84704 11.0077 2.82558C11.0167 2.80411 11.0235 2.78197 11.0282 2.75915C11.0328 2.73632 11.0351 2.71327 11.0351 2.68999C11.0351 2.66671 11.0328 2.64365 11.0282 2.62083C11.0235 2.59801 11.0167 2.57586 11.0077 2.5544C10.9987 2.53294 10.9877 2.51258 10.9746 2.49332C10.9615 2.47406 10.9466 2.45628 10.93 2.43999C10.9133 2.42321 10.8951 2.40822 10.8754 2.39504C10.8557 2.38185 10.835 2.37071 10.8131 2.36163C10.7912 2.35254 10.7686 2.34568 10.7454 2.34105C10.7221 2.33642 10.6987 2.33411 10.675 2.33411C10.6513 2.33411 10.6279 2.33642 10.6046 2.34105C10.5814 2.34568 10.5588 2.35254 10.5369 2.36163C10.515 2.37071 10.4943 2.38185 10.4746 2.39504C10.4549 2.40822 10.4367 2.42321 10.42 2.43999L8.73 4.11999C8.71289 4.13638 8.69754 4.15429 8.68396 4.17371C8.67039 4.19313 8.65884 4.21369 8.64933 4.23539C8.63981 4.2571 8.63251 4.27952 8.62742 4.30266C8.62233 4.32581 8.61955 4.34922 8.61909 4.37291C8.61862 4.3966 8.62048 4.42011 8.62466 4.44344C8.62883 4.46677 8.63525 4.48946 8.64391 4.51151C8.65257 4.53357 8.6633 4.55457 8.67611 4.57451C8.68891 4.59445 8.70354 4.61294 8.72 4.62999Z"   fill="#000000" >
</path>
</g>
<defs>
<clipPath id="clip-path-0cpX6CIPONGFltZGf6G3u">
<path d="M0 13.57L17.69 13.57L17.69 0L0 0L0 13.57Z" fill="white"/>
</clipPath>
</defs>
</svg>
