<svg xmlns="http://www.w3.org/2000/svg" xmlns:xlink="http://www.w3.org/1999/xlink" width="43.1099853515625" height="6.4000244140625" viewBox="0 0 43.1099853515625 6.4000244140625" fill="none">
<g  clip-path="url(#clip-path-WRozJn99CRoU395lblYTF)">
<path   fill-rule="evenodd"  fill="#000000"  d="M25.4899 0L22.5899 0L22.4299 0L22.2799 0L22.1199 0L21.9999 0.1L21.8499 0.1L21.6999 0.1L21.5499 0.1L21.4099 0.17L21.2699 0.24L21.0999 0.46L20.9999 0.54L20.8699 0.63L20.7499 0.73L20.6299 0.83C20.5882 0.861615 20.5515 0.898282 20.5199 0.94L20.4099 1.05L20.2999 1.17L20.2099 1.29L20.1199 1.42L19.9999 1.55C19.9999 1.6 19.9499 1.64 19.9299 1.69C19.9026 1.73465 19.8793 1.78132 19.8599 1.83C19.8325 1.87806 19.8091 1.92806 19.7899 1.98C19.7673 2.02451 19.7506 2.07118 19.7399 2.12C19.7357 2.17 19.7357 2.22 19.7399 2.27L19.6899 2.42L19.6899 2.58L19.6899 2.73C19.6942 2.78333 19.6942 2.83667 19.6899 2.89C19.6899 2.89 19.6899 2.99 19.6899 3.04L19.6899 3.36C19.6899 3.41 19.6899 3.46 19.6899 3.51C19.6942 3.56333 19.6942 3.61667 19.6899 3.67L19.6899 3.82L19.6899 3.98L19.7399 4.13C19.7357 4.18 19.7357 4.23 19.7399 4.28C19.7506 4.32882 19.7673 4.37549 19.7899 4.42C19.8091 4.47194 19.8325 4.52194 19.8599 4.57C19.8599 4.57 19.8599 4.66 19.9299 4.71C19.9999 4.76 19.9799 4.8 19.9999 4.85L20.0899 4.98L20.1799 5.11L20.2699 5.23L20.3799 5.35L20.4899 5.46C20.5215 5.50172 20.5582 5.53839 20.5999 5.57L20.7199 5.67L20.8399 5.77L20.9699 5.86L21.0999 6L21.2399 6.07L21.3799 6.14L21.5199 6.21L21.6699 6.21L21.8199 6.21L21.9699 6.21L22.1199 6.21L22.2799 6.21L22.4299 6.21L25.7999 6.21L25.9599 6.21L26.1199 6.21L26.2699 6.21L26.4199 6.21L26.5699 6.21L26.7199 6.21L26.8599 6.14L26.9999 6L27.1399 6L27.2699 5.91L27.3999 5.82L27.5199 5.72L27.6399 5.62L27.7499 5.51L27.8599 5.4L27.9599 5.28L28.0599 5.16L28.1499 5L28.2399 4.87C28.2399 4.87 28.2899 4.78 28.3099 4.73C28.3299 4.68 28.3599 4.63 28.3799 4.59C28.4074 4.54194 28.4307 4.49194 28.4499 4.44C28.4726 4.39549 28.4893 4.34882 28.4999 4.3C28.5211 4.25151 28.5378 4.20151 28.5499 4.15C28.5499 4.15 28.5499 4.05 28.5999 4L28.5999 3.84L28.5999 3.69C28.5957 3.63667 28.5957 3.58333 28.5999 3.53C28.595 3.48 28.595 3.43 28.5999 3.38L28.5999 3C28.595 2.95 28.595 2.9 28.5999 2.85C28.5957 2.79667 28.5957 2.74333 28.5999 2.69L28.5999 2.54L28.5999 2.38C28.5999 2.38 28.5999 2.28 28.5499 2.23C28.5378 2.17849 28.5211 2.12849 28.4999 2.08C28.4855 2.05197 28.4688 2.02531 28.4499 2C28.4307 1.94806 28.4074 1.89806 28.3799 1.85C28.3606 1.80132 28.3373 1.75465 28.3099 1.71C28.3099 1.66 28.3099 1.62 28.2399 1.57L28.1499 1.44L28.0599 1.31L27.9999 1.17L27.8999 1.05L27.7499 0.94L27.6399 0.83L27.5199 0.73L27.3999 0.63L27.2699 0.54L27.1399 0.46L26.9999 0.38L26.8599 0.31L26.7199 0.24L26.5699 0.24L26.4199 0.24L26.2699 0.24L26.1199 0.24L25.9999 0L25.7999 0L25.6499 0L25.4899 0ZM25.2599 4.8L25.1099 4.8L24.9499 4.8L24.7999 4.8L24.6499 4.75L24.5099 4.68L24.3699 4.6L24.2499 4.51L24.1299 4.4C24.0911 4.36453 24.0578 4.32453 24.0299 4.28L23.9299 4.16C23.9299 4.16 23.8799 4 23.8499 4C23.8199 4 23.7999 3.91 23.7799 3.86L23.7299 3.71C23.7299 3.66 23.7299 3.61 23.7299 3.56C23.7299 3.51 23.7299 3.46 23.7299 3.41C23.7299 3.36 23.7299 3.3 23.7299 3.25C23.7299 3.2 23.7299 3.15 23.7299 3.09C23.7299 3.03 23.7299 2.99 23.7299 2.94C23.7299 2.89 23.7299 2.84 23.7299 2.79L23.7799 2.64C23.7799 2.64 23.7799 2.54 23.8499 2.5L23.9299 2.36L24.0299 2.23L24.1299 2.12L24.2499 2L24.3699 1.91L24.5099 1.83C24.5536 1.80063 24.6003 1.77729 24.6499 1.76L24.7999 1.71L24.9499 1.71L25.1099 1.71L25.4199 1.71L25.5699 1.71L25.7299 1.71L25.8699 1.76L26.0199 1.83L26.1499 1.91L26.2799 2L26.3899 2.11L26.4999 2.22L26.5899 2.35C26.6204 2.39451 26.6471 2.44117 26.6699 2.49C26.6993 2.53365 26.7227 2.58031 26.7399 2.63C26.7626 2.67799 26.7793 2.72799 26.7899 2.78C26.7945 2.83 26.7945 2.88 26.7899 2.93C26.7948 2.98 26.7948 3.03 26.7899 3.08C26.7946 3.13333 26.7946 3.18667 26.7899 3.24C26.7946 3.29333 26.7946 3.34667 26.7899 3.4C26.7948 3.45 26.7948 3.5 26.7899 3.55C26.7945 3.6 26.7945 3.65 26.7899 3.7C26.7778 3.75151 26.7611 3.80151 26.7399 3.85C26.7227 3.89969 26.6993 3.94635 26.6699 3.99C26.6492 4.04005 26.6225 4.08672 26.5899 4.13L26.4999 4.25C26.4685 4.29478 26.4318 4.33478 26.3899 4.37L26.2799 4.48L26.1499 4.57L25.9999 4.61L25.8499 4.68L25.7099 4.73L25.5499 4.73L25.3999 4.73L25.2399 4.73">
</path>
<path d="M30.28 5.13998L30.28 0.849976L31.15 0.849976L31.15 2.53998L32.85 2.53998L32.85 0.849976L33.72 0.849976L33.72 5.13998L32.85 5.13998L32.85 3.25998L31.15 3.25998L31.15 5.13998L30.28 5.13998Z"   fill="#000000" >
</path>
<path d="M34.4199 3.54008C34.4224 3.26049 34.4891 2.99716 34.6199 2.75008C34.685 2.62669 34.766 2.51483 34.8629 2.41451C34.9599 2.31418 35.0689 2.22937 35.1899 2.16008C35.4472 2.04237 35.7172 1.98904 35.9999 2.00008C36.1073 1.99582 36.214 2.00273 36.3199 2.0208C36.4258 2.03886 36.5287 2.0677 36.6286 2.10732C36.7285 2.14693 36.8232 2.19646 36.9127 2.2559C37.0023 2.31533 37.0847 2.38339 37.1599 2.46008C37.2347 2.53649 37.3011 2.61964 37.359 2.70954C37.417 2.79942 37.4653 2.89422 37.5039 2.99392C37.5426 3.09361 37.5709 3.19618 37.5887 3.30162C37.6066 3.40705 37.6137 3.51321 37.6099 3.62008C37.6137 3.72814 37.6064 3.83545 37.5881 3.94202C37.5698 4.04858 37.5409 4.15217 37.5013 4.2528C37.4617 4.35343 37.4124 4.44898 37.3532 4.53947C37.294 4.62996 37.2263 4.7135 37.1499 4.79008C37.0741 4.86329 36.9914 4.92785 36.902 4.98375C36.8126 5.03966 36.7184 5.08569 36.6194 5.12186C36.5204 5.15803 36.4187 5.18354 36.3143 5.19841C36.2099 5.21328 36.1051 5.21717 35.9999 5.21008C35.7203 5.20148 35.4569 5.13148 35.2099 5.00008C35.0844 4.93798 34.9713 4.85828 34.8706 4.76098C34.7699 4.66368 34.6863 4.55338 34.6199 4.43008C34.4815 4.14954 34.4149 3.85287 34.4199 3.54008ZM35.2599 3.54008C35.2525 3.66781 35.2678 3.79279 35.3056 3.915C35.3435 4.03721 35.4016 4.1489 35.4799 4.25008C35.4968 4.26959 35.5146 4.28815 35.5334 4.30575C35.5523 4.32335 35.572 4.33989 35.5926 4.35537C35.6133 4.37085 35.6347 4.38518 35.6568 4.39836C35.679 4.41155 35.7018 4.42351 35.7252 4.43424C35.7487 4.44497 35.7726 4.45441 35.797 4.46257C35.8215 4.47073 35.8463 4.47756 35.8715 4.48305C35.8967 4.48854 35.9222 4.49267 35.9478 4.49543C35.9734 4.49819 35.9991 4.49957 36.0249 4.49957C36.0507 4.49957 36.0764 4.49819 36.102 4.49543C36.1277 4.49267 36.1531 4.48854 36.1783 4.48305C36.2035 4.47756 36.2283 4.47073 36.2527 4.46257C36.2772 4.45441 36.3012 4.44497 36.3246 4.43424C36.3481 4.42351 36.3709 4.41155 36.393 4.39836C36.4152 4.38518 36.4366 4.37085 36.4572 4.35537C36.4778 4.33989 36.4976 4.32335 36.5164 4.30575C36.5352 4.28815 36.5531 4.26959 36.5699 4.25008C36.6465 4.14821 36.7028 4.03619 36.7389 3.91401C36.7751 3.79183 36.7887 3.66719 36.7799 3.54008C36.7903 3.41435 36.7774 3.29106 36.7411 3.17021C36.7049 3.04936 36.6479 2.93932 36.5699 2.84008C36.5531 2.82056 36.5352 2.802 36.5164 2.78441C36.4976 2.76681 36.4778 2.75027 36.4572 2.73479C36.4366 2.71931 36.4152 2.70497 36.393 2.69179C36.3709 2.67861 36.3481 2.66665 36.3246 2.65592C36.3012 2.64518 36.2772 2.63574 36.2527 2.62759C36.2283 2.61943 36.2035 2.6126 36.1783 2.60711C36.1531 2.60161 36.1277 2.59749 36.102 2.59473C36.0764 2.59196 36.0507 2.59058 36.0249 2.59058C35.9991 2.59058 35.9734 2.59196 35.9478 2.59473C35.9222 2.59749 35.8967 2.60161 35.8715 2.60711C35.8463 2.6126 35.8215 2.61943 35.797 2.62759C35.7726 2.63574 35.7487 2.64518 35.7252 2.65592C35.7018 2.66665 35.679 2.67861 35.6568 2.69179C35.6347 2.70497 35.6133 2.71931 35.5926 2.73479C35.572 2.75027 35.5523 2.76681 35.5334 2.78441C35.5146 2.802 35.4968 2.82056 35.4799 2.84008C35.3952 2.94372 35.3338 3.05969 35.2956 3.18799C35.2575 3.3163 35.2456 3.44699 35.2599 3.58008L35.2599 3.54008Z"   fill="#000000" >
</path>
<path d="M38 4.2501L38.83 4.1301C38.8419 4.20087 38.866 4.26726 38.9022 4.32926C38.9383 4.39126 38.9843 4.44487 39.04 4.4901C39.1051 4.53734 39.1763 4.57212 39.2536 4.59445C39.3309 4.61678 39.4097 4.62533 39.49 4.6201C39.5793 4.62853 39.6675 4.62247 39.7548 4.60193C39.8421 4.58139 39.9239 4.54745 40 4.5001C40.0331 4.47335 40.0584 4.44062 40.076 4.40191C40.0936 4.3632 40.1016 4.32259 40.1 4.2801C40.0907 4.21177 40.0573 4.15844 40 4.1201C39.9183 4.06452 39.8283 4.03119 39.73 4.0201C39.2878 3.95169 38.8678 3.81503 38.47 3.6101C38.4107 3.57358 38.3573 3.52991 38.3097 3.47909C38.2622 3.42827 38.2221 3.37209 38.1896 3.31054C38.1571 3.24899 38.1332 3.18425 38.118 3.11631C38.1028 3.04838 38.0968 2.97964 38.1 2.9101C38.0988 2.84495 38.105 2.78052 38.1187 2.71681C38.1324 2.6531 38.1531 2.59176 38.1808 2.53281C38.2085 2.47386 38.2426 2.41882 38.283 2.3677C38.3234 2.31658 38.3691 2.27071 38.42 2.2301C38.5653 2.12716 38.724 2.05247 38.896 2.00604C39.0679 1.95961 39.2426 1.9443 39.42 1.9601C39.5934 1.94427 39.7653 1.95425 39.9358 1.99004C40.1062 2.02583 40.2676 2.08585 40.42 2.1701C40.5265 2.24114 40.616 2.32937 40.6886 2.43478C40.7611 2.54019 40.8116 2.6553 40.84 2.7801L40 2.9301C39.9859 2.87363 39.9626 2.82133 39.9299 2.77318C39.8972 2.72503 39.8573 2.68401 39.81 2.6501C39.6876 2.57293 39.5543 2.53959 39.41 2.5501C39.2484 2.53773 39.0951 2.56773 38.95 2.6401C38.9188 2.65689 38.8942 2.68056 38.8762 2.71111C38.8583 2.74166 38.8495 2.77466 38.85 2.8101C38.8508 2.84001 38.8582 2.86816 38.8723 2.89455C38.8864 2.92094 38.9056 2.94279 38.93 2.9601C39.1777 3.0666 39.4344 3.14327 39.7 3.1901C40.0353 3.24215 40.342 3.36549 40.62 3.5601C40.6633 3.59781 40.7019 3.63989 40.7356 3.68634C40.7694 3.73279 40.7975 3.78242 40.82 3.83525C40.8425 3.88808 40.8589 3.94275 40.869 3.99928C40.8791 4.05581 40.8828 4.11275 40.88 4.1701C40.8796 4.24061 40.8713 4.31017 40.8552 4.37879C40.839 4.44741 40.8153 4.51334 40.7841 4.57658C40.7529 4.63981 40.715 4.69874 40.6704 4.75335C40.6259 4.80797 40.5757 4.85689 40.52 4.9001C40.3681 5.01467 40.2009 5.09865 40.0183 5.15204C39.8358 5.20543 39.6497 5.22479 39.46 5.2101C39.2839 5.21903 39.1106 5.20132 38.94 5.15697C38.7694 5.11261 38.6094 5.04365 38.46 4.9501C38.3431 4.86549 38.2451 4.76288 38.1658 4.64229C38.0865 4.5217 38.0313 4.39097 38 4.2501Z"   fill="#000000" >
</path>
<path d="M43 1.99999L43 2.65999L42.44 2.65999L42.44 3.93999C42.4315 4.08666 42.4315 4.23332 42.44 4.37999C42.4517 4.42754 42.4784 4.4642 42.52 4.48999C42.5633 4.50166 42.6067 4.50166 42.65 4.48999C42.7686 4.49368 42.8853 4.48034 43 4.44999L43.07 5.08999C42.8612 5.17267 42.6446 5.21267 42.42 5.20999C42.2787 5.21374 42.1421 5.1904 42.01 5.13999C41.9044 5.09795 41.8177 5.03128 41.75 4.93999C41.6903 4.84126 41.6536 4.73459 41.64 4.61999C41.6238 4.42666 41.6238 4.23332 41.64 4.03999L41.64 2.68999L41.26 2.68999L41.26 1.99999L41.64 1.99999L41.64 1.40999L42.47 0.929993L42.47 1.99999L43 1.99999Z"   fill="#000000" >
</path>
<path d="M1.27 5.13998L1.27 1.56998L0 1.56998L0 0.849976L3.41 0.849976L3.41 1.56998L2.14 1.56998L2.14 5.13998L1.27 5.13998Z"   fill="#000000" >
</path>
<path d="M4.13997 3.00009L3.38997 2.86009C3.41974 2.72786 3.47161 2.60497 3.5456 2.49141C3.61959 2.37785 3.71104 2.28074 3.81997 2.20009C3.95934 2.12018 4.10753 2.06315 4.26452 2.02903C4.42151 1.9949 4.58 1.98525 4.73997 2.00009C5.0228 1.98355 5.29613 2.02688 5.55997 2.13009C5.71867 2.2032 5.84534 2.3132 5.93997 2.46009C6.03061 2.69874 6.06728 2.9454 6.04997 3.20009L6.04997 4.20009C6.02987 4.40009 6.02987 4.60009 6.04997 4.80009C6.07634 4.94853 6.12634 5.08853 6.19997 5.22009L5.40997 5.22009C5.40997 5.22009 5.40997 5.08009 5.32997 4.98009C5.33406 4.94676 5.33406 4.91342 5.32997 4.88009C5.1998 5.0122 5.0498 5.11554 4.87997 5.19009C4.71706 5.25955 4.54706 5.29288 4.36997 5.29009C4.2242 5.29658 4.08283 5.27469 3.94585 5.22441C3.80888 5.17412 3.68692 5.09935 3.57997 5.00009C3.48988 4.91443 3.42131 4.81407 3.37424 4.69902C3.32717 4.58397 3.30575 4.46432 3.30997 4.34009C3.30813 4.17274 3.34813 4.01608 3.42997 3.87009C3.5175 3.73156 3.63417 3.6249 3.77997 3.55009C3.99354 3.46442 4.21354 3.40109 4.43997 3.36009C4.71248 3.31681 4.97915 3.25014 5.23997 3.16009L5.23997 3.00009C5.24584 2.93737 5.2383 2.87631 5.21733 2.81691C5.19636 2.7575 5.16391 2.70523 5.11997 2.66009C5.05446 2.61887 4.98398 2.58968 4.90851 2.57253C4.83304 2.55538 4.75686 2.55123 4.67997 2.56009C4.55651 2.55184 4.44318 2.58184 4.33997 2.65009C4.28356 2.6918 4.23795 2.74312 4.20314 2.80404C4.16833 2.86496 4.14727 2.93031 4.13997 3.00009ZM5.23997 3.67009L4.73997 3.79009C4.58144 3.8145 4.43144 3.8645 4.28997 3.94009C4.23922 3.97057 4.19955 4.01173 4.17095 4.06356C4.14236 4.11539 4.1287 4.1709 4.12997 4.23009C4.12872 4.28574 4.13948 4.33897 4.16225 4.38976C4.18502 4.44055 4.21759 4.484 4.25997 4.52009C4.30268 4.56506 4.35288 4.5989 4.41057 4.62163C4.46827 4.64436 4.52807 4.65385 4.58997 4.65009C4.66572 4.64474 4.73866 4.62753 4.8088 4.59845C4.87894 4.56936 4.94266 4.52991 4.99997 4.48009C5.04848 4.44861 5.08994 4.40963 5.12437 4.36316C5.15879 4.31669 5.18399 4.26567 5.19997 4.21009C5.21567 4.07676 5.21567 3.94342 5.19997 3.81009L5.23997 3.67009Z"   fill="#000000" >
</path>
<path d="M7.64995 5.14058L6.81995 5.14058L6.81995 2.00057L7.58995 2.00057L7.58995 2.44057C7.67693 2.27857 7.7936 2.1419 7.93995 2.03057C8.05685 1.98337 8.17685 1.97337 8.29995 2.00057C8.49312 2.00315 8.67312 2.05315 8.83995 2.15057L8.57995 2.87057C8.47121 2.77383 8.34454 2.71716 8.19995 2.70057C8.08983 2.69685 7.98983 2.72685 7.89995 2.79057C7.80253 2.88873 7.73919 3.0054 7.70995 3.14058C7.65952 3.47208 7.63952 3.80542 7.64995 4.14058L7.64995 5.14058Z"   fill="#000000" >
</path>
<path d="M9.12004 5.35L10.06 5.46C10.0616 5.5043 10.072 5.54644 10.0911 5.58643C10.1103 5.62641 10.1366 5.66094 10.17 5.69C10.2856 5.7524 10.409 5.77907 10.54 5.77C10.7006 5.77696 10.8539 5.74696 11 5.68C11.0766 5.62766 11.1299 5.55766 11.16 5.47C11.1816 5.34333 11.1816 5.21666 11.16 5.09L11.16 4.64C11.109 4.71669 11.0495 4.78604 10.9814 4.84805C10.9134 4.91005 10.8388 4.96286 10.7576 5.00647C10.6766 5.05007 10.5914 5.08317 10.502 5.10577C10.4128 5.12836 10.3221 5.13977 10.23 5.14C10.1308 5.14318 10.0329 5.13357 9.9362 5.11118C9.83951 5.08878 9.74732 5.05434 9.65962 5.00786C9.57192 4.96138 9.49166 4.90442 9.41885 4.83698C9.34603 4.76954 9.28309 4.69388 9.23003 4.61C9.13209 4.4619 9.05839 4.30259 9.00895 4.13207C8.95949 3.96154 8.93652 3.78752 8.94003 3.61C8.93222 3.5025 8.93461 3.39524 8.9472 3.28821C8.95978 3.18117 8.98234 3.07627 9.01488 2.97353C9.04742 2.87079 9.08934 2.77203 9.14067 2.67726C9.19199 2.58248 9.25178 2.4934 9.32003 2.41C9.38203 2.33972 9.4512 2.2774 9.52756 2.22306C9.60391 2.16872 9.68544 2.12377 9.77216 2.08822C9.85887 2.05267 9.9485 2.02745 10.041 2.01255C10.1336 1.99765 10.2266 1.99346 10.32 2C10.4142 1.99956 10.5069 2.01071 10.5983 2.03346C10.6897 2.0562 10.7768 2.08984 10.8598 2.13438C10.9428 2.17891 11.0189 2.23297 11.0883 2.29655C11.1578 2.36013 11.2184 2.43128 11.27 2.51L11.27 2L12 2L12 4.82C12.0114 5.09786 11.9814 5.3712 11.91 5.64C11.866 5.80619 11.7827 5.94952 11.66 6.07C11.5329 6.18767 11.3862 6.271 11.22 6.32C10.9936 6.37754 10.7636 6.40421 10.53 6.4C10.3336 6.41832 10.1394 6.40436 9.94759 6.35812C9.75576 6.31187 9.57658 6.23583 9.41004 6.13C9.35753 6.09014 9.31024 6.04485 9.26816 5.99413C9.22607 5.9434 9.19029 5.88856 9.16082 5.82961C9.13134 5.77065 9.10893 5.70912 9.09361 5.64502C9.07827 5.58092 9.07042 5.51591 9.07003 5.45C9.07003 5.45 9.12004 5.38 9.12004 5.35ZM9.85004 3.52C9.84165 3.64871 9.8537 3.77548 9.88619 3.90032C9.91868 4.02514 9.96997 4.1417 10.04 4.25C10.0987 4.32246 10.1701 4.37884 10.2541 4.41913C10.3382 4.45941 10.4268 4.4797 10.52 4.48C10.6136 4.47643 10.7022 4.45371 10.7859 4.41185C10.8697 4.36998 10.941 4.3127 11 4.24C11.078 4.14076 11.135 4.03071 11.1712 3.90987C11.2075 3.78902 11.2204 3.66573 11.21 3.54C11.2189 3.41209 11.2062 3.28637 11.1718 3.16283C11.1375 3.03929 11.0836 2.92501 11.01 2.82C10.9463 2.74575 10.8698 2.68851 10.7806 2.64829C10.6914 2.60805 10.5979 2.58862 10.5 2.59C10.4054 2.59021 10.3152 2.61043 10.2295 2.65065C10.1439 2.69087 10.0707 2.74732 10.01 2.82C9.94568 2.92472 9.89981 3.037 9.87242 3.15683C9.84503 3.27665 9.83757 3.39771 9.85004 3.52Z"   fill="#000000" >
</path>
<path d="M14.66 4.15001L15.48 4.29001C15.442 4.43191 15.3819 4.56369 15.2997 4.68537C15.2174 4.80705 15.1175 4.91193 15 5.00001C14.8744 5.08355 14.739 5.14581 14.5939 5.18679C14.4487 5.22778 14.3007 5.24552 14.15 5.24001C14.0359 5.24821 13.9225 5.24251 13.8099 5.22292C13.6973 5.20334 13.5887 5.17046 13.4841 5.12426C13.3795 5.07807 13.282 5.01993 13.1917 4.94985C13.1013 4.87977 13.0207 4.79983 12.95 4.71001C12.841 4.55349 12.7601 4.38365 12.7071 4.20049C12.654 4.01734 12.6316 3.83051 12.64 3.64001C12.6282 3.52993 12.6271 3.41974 12.6368 3.30944C12.6465 3.19915 12.6668 3.09084 12.6977 2.9845C12.7285 2.87817 12.7694 2.77583 12.8203 2.67749C12.8711 2.57914 12.931 2.48665 13 2.40001C13.065 2.33389 13.136 2.27516 13.2132 2.2238C13.2903 2.17244 13.3719 2.12954 13.458 2.09512C13.544 2.06069 13.6327 2.03547 13.7241 2.01945C13.8153 2.00342 13.9073 1.99694 14 2.00001C14.103 1.99442 14.2054 2.00041 14.3072 2.01798C14.4089 2.03554 14.5074 2.06424 14.6027 2.10407C14.6979 2.14389 14.7875 2.19385 14.8715 2.25393C14.9554 2.31401 15.0316 2.38271 15.1 2.46001C15.1737 2.5598 15.2376 2.66554 15.2916 2.77722C15.3456 2.8889 15.3889 3.00461 15.4214 3.12434C15.4539 3.24408 15.4751 3.36578 15.4849 3.48945C15.4947 3.61313 15.4931 3.73665 15.48 3.86001L13.46 3.86001C13.4558 3.96428 13.471 4.06564 13.5056 4.1641C13.5401 4.26256 13.5916 4.3512 13.66 4.43001C13.7209 4.49819 13.7933 4.55061 13.8771 4.58727C13.9609 4.62393 14.0485 4.64151 14.14 4.64001C14.2592 4.64005 14.3659 4.60338 14.46 4.53001C14.5136 4.4796 14.5575 4.42184 14.5918 4.35673C14.626 4.29163 14.6488 4.22272 14.66 4.15001ZM14.71 3.32001C14.7136 3.22123 14.6991 3.12521 14.6663 3.03195C14.6335 2.93869 14.5847 2.85471 14.52 2.78001C14.4657 2.71833 14.401 2.6709 14.3259 2.6377C14.2507 2.6045 14.1721 2.5886 14.09 2.59001C14.0061 2.58711 13.9256 2.60229 13.8486 2.63556C13.7716 2.66882 13.7054 2.71697 13.65 2.78001C13.5865 2.85491 13.54 2.93919 13.5105 3.03286C13.481 3.12653 13.4708 3.22225 13.48 3.32001L14.71 3.32001Z"   fill="#000000" >
</path>
<path d="M17.62 1.99999L17.62 2.65999L17.06 2.65999L17.06 3.93999C17.0431 4.08666 17.0431 4.23332 17.06 4.37999C17.067 4.42707 17.0903 4.46374 17.13 4.48999C17.1767 4.5016 17.2233 4.5016 17.27 4.48999C17.3839 4.47946 17.4939 4.45279 17.6 4.40999L17.67 5.04999C17.4614 5.13373 17.2447 5.17373 17.02 5.16999C16.8818 5.1743 16.7485 5.15097 16.62 5.09999C16.5125 5.0604 16.4259 4.99373 16.36 4.89999C16.2919 4.80388 16.2519 4.69721 16.24 4.57999C16.2238 4.38666 16.2238 4.19332 16.24 3.99999L16.24 2.68999L15.87 2.68999L15.87 1.99999L16.24 1.99999L16.24 1.40999L17.07 0.929993L17.07 1.99999L17.62 1.99999Z"   fill="#000000" >
</path>
</g>
<defs>
<clipPath id="clip-path-WRozJn99CRoU395lblYTF">
<path d="M0 6.4L43.11 6.4L43.11 0L0 0L0 6.4Z" fill="white"/>
</clipPath>
</defs>
</svg>
