<svg xmlns="http://www.w3.org/2000/svg" viewBox="0 0 200 200"><defs><style>.cls-1{fill:#faa22c;}.cls-2{fill:#211e1f;}.cls-3{fill:#f9f9fa;}.cls-4{fill:none;}</style></defs><g id="Layer_2" data-name="Layer 2"><g id="logo"><path class="cls-1" d="M166.32,10H33.68A23.68,23.68,0,0,0,10,33.68V166.32A23.68,23.68,0,0,0,33.68,190H166.32A23.68,23.68,0,0,0,190,166.32V33.68A23.68,23.68,0,0,0,166.32,10ZM150.21,79H134.55l-21.4,21.4L133.82,121h16.39v29.18H121V134.56l-21-21-21,21v15.66H49.79V121H66.17l20.67-20.66L65.44,79H49.79V49.79H79V66.18l21,21,21-21V49.79h29.18Z"/><path class="cls-2" d="M150.21,79V49.79H121V66.17l-21,21-21-21V49.79H49.79V79H65.44l21.4,21.4L66.17,121H49.79v29.18H79V134.55l21-21,21,21v15.65h29.18V121H133.82l-20.67-20.66L134.55,79ZM100,106.21h0L73.73,132.48a9.79,9.79,0,0,1,.5,3.08,9.92,9.92,0,1,1-9.92-9.91,9.81,9.81,0,0,1,3.27.56L93.79,100,67.05,73.26a9.91,9.91,0,1,1,7.18-9.53,9.73,9.73,0,0,1-.69,3.6L106.21,100Z"/><path class="cls-3" d="M100,106.21l6.21-6.21L73.54,67.33a9.73,9.73,0,0,0,.69-3.6,9.94,9.94,0,1,0-7.18,9.53L93.79,100,67.58,126.21a9.81,9.81,0,0,0-3.27-.56,9.91,9.91,0,1,0,9.92,9.91,9.79,9.79,0,0,0-.5-3.08L100,106.21Z"/><rect class="cls-4" width="200" height="200"/></g></g></svg>