<svg xmlns="http://www.w3.org/2000/svg" viewBox="0 0 275 124"><defs><style>.cls-1{fill:#e75c25;}.cls-2{fill:#202428;}.cls-3{fill:#f2b029;}.cls-4{fill:#faa643;}</style></defs><g id="Layer_2" data-name="Layer 2"><g id="Layer_1-2" data-name="Layer 1"><rect class="cls-1" y="119" width="275" height="5"/><rect class="cls-1" width="275" height="5"/><path class="cls-2" d="M26.53,66.77a22.45,22.45,0,0,1-8.11-1.32,15.19,15.19,0,0,1-5.63-3.66,14.69,14.69,0,0,1-3.28-5.6A23.21,23.21,0,0,1,8.45,49V21.3h10V48.18a15,15,0,0,0,.61,4.6,8.28,8.28,0,0,0,1.67,3.09,6,6,0,0,0,2.57,1.7,10.05,10.05,0,0,0,3.32.52,8.13,8.13,0,0,0,5.95-2.25c1.52-1.5,2.28-4.06,2.28-7.66V21.3h10V49a22.61,22.61,0,0,1-1.09,7.2,14.7,14.7,0,0,1-3.34,5.63,14.9,14.9,0,0,1-5.73,3.63A23.66,23.66,0,0,1,26.53,66.77Z"/><path class="cls-2" d="M62.87,58.22a14.2,14.2,0,0,0,3.5-.36,6.18,6.18,0,0,0,2.22-1,3.2,3.2,0,0,0,1.16-1.45,5,5,0,0,0,.32-1.86A4.31,4.31,0,0,0,68,50a29.8,29.8,0,0,0-7.07-3.12q-2.19-.77-4.38-1.77a16.09,16.09,0,0,1-3.92-2.51,11.94,11.94,0,0,1-2.83-3.66,11.5,11.5,0,0,1-1.09-5.24,12.88,12.88,0,0,1,1.16-5.57,11.82,11.82,0,0,1,3.28-4.21A14.92,14.92,0,0,1,58.3,21.2a23.19,23.19,0,0,1,6.82-.93,27.3,27.3,0,0,1,13.19,3.08l-2.9,7.92a26.4,26.4,0,0,0-4.15-1.71,18,18,0,0,0-5.5-.74,10,10,0,0,0-5.17,1,3.34,3.34,0,0,0-1.58,3,3.5,3.5,0,0,0,.58,2.06,5.48,5.48,0,0,0,1.64,1.51,15,15,0,0,0,2.44,1.23c.92.36,1.94.74,3.06,1.12,2.31.86,4.33,1.71,6,2.54a16.12,16.12,0,0,1,4.28,2.93,10.54,10.54,0,0,1,2.54,3.92,15.73,15.73,0,0,1,.84,5.47,11.6,11.6,0,0,1-4.38,9.68q-4.36,3.44-13.18,3.44a37.48,37.48,0,0,1-5.34-.35,35.55,35.55,0,0,1-4.21-.87,24.42,24.42,0,0,1-3.16-1.09A23.91,23.91,0,0,1,48,63.36l2.83-8a24.78,24.78,0,0,0,4.92,2A25.46,25.46,0,0,0,62.87,58.22Z"/><path class="cls-2" d="M99.15,66.45c-2.45,0-4.88-.08-7.31-.23a51.08,51.08,0,0,1-7.55-1.06V21.94A62.48,62.48,0,0,1,91,21.07c2.44-.19,4.72-.29,6.82-.29a46.1,46.1,0,0,1,7.81.61,18.79,18.79,0,0,1,6.15,2.09,11.12,11.12,0,0,1,4,3.89,11.45,11.45,0,0,1,1.44,5.95q0,5.34-5.14,8.43,4.24,1.61,5.79,4.37a12.6,12.6,0,0,1,1.54,6.24q0,7-5.11,10.55T99.15,66.45ZM94.06,38.79H99c3.09,0,5.3-.39,6.63-1.19a4.11,4.11,0,0,0,2-3.83A3.91,3.91,0,0,0,105.51,30a13.18,13.18,0,0,0-6-1.09l-2.77,0c-1,0-1.86.07-2.64.16Zm0,7.66V58c.73.09,1.53.15,2.38.19s1.81.07,2.83.07a17.31,17.31,0,0,0,7.27-1.29,4.76,4.76,0,0,0,2.77-4.76A4.66,4.66,0,0,0,107,47.76a13.65,13.65,0,0,0-6.62-1.31Z"/><path class="cls-2" d="M161.51,65.87c-.91-1.45-2-3-3.2-4.7s-2.54-3.38-4-5.1-2.9-3.35-4.44-4.92A49.53,49.53,0,0,0,145.27,47V65.87h-10V21.3h10V38.05c2.57-2.71,5.2-5.55,7.86-8.5s5.12-5.71,7.37-8.25h11.91q-4.54,5.41-9.16,10.42t-9.69,10.06a76.51,76.51,0,0,1,10.32,10.59,132.35,132.35,0,0,1,9.56,13.5Z"/><path class="cls-2" d="M189.85,65.87c-1.77-3.74-3.53-7.63-5.25-11.66s-3.37-8-4.92-12-3-7.71-4.28-11.32S173,24.12,172,21.3h11.07q1.24,3.87,2.78,8.33t3.12,8.9c1.06,2.95,2.07,5.78,3,8.49s1.9,5,2.78,7q1.26-2.94,2.75-7t3.08-8.49q1.59-4.44,3.12-8.9c1-3,1.95-5.76,2.79-8.35h10.68q-1.5,4.26-3.45,9.66t-4.26,11.31q-2.31,5.91-4.89,12t-5.22,11.64Z"/><path class="cls-2" d="M230.3,21.3q1.15,2.11,2.67,5.24t3.17,6.75c1.09,2.42,2.18,4.9,3.25,7.43s2.09,4.91,3,7.14l3-7.14c1.08-2.53,2.16-5,3.26-7.43s2.15-4.67,3.16-6.75,1.9-3.83,2.68-5.24h9.13c.43,2.95.83,6.27,1.19,9.93s.69,7.49,1,11.45.53,8,.77,11.93.44,7.75.61,11.26h-9.78q-.19-6.5-.51-14.15t-1-15.44c-.77,1.8-1.63,3.8-2.58,6s-1.88,4.38-2.8,6.57-1.82,4.27-2.68,6.27l-2.2,5.11h-7c-.6-1.41-1.33-3.12-2.19-5.11s-1.76-4.09-2.68-6.27S232,44.45,231,42.26l-2.58-6q-.65,7.78-1,15.44T227,65.87h-9.77c.17-3.51.37-7.27.61-11.26s.49-8,.77-11.93.6-7.78,1-11.45.77-7,1.19-9.93Z"/><path class="cls-2" d="M4.81,97.88V79.79H19.38a3.37,3.37,0,0,1,1.76.48,3.7,3.7,0,0,1,1.28,1.27,3.28,3.28,0,0,1,.48,1.74V94.39a3.3,3.3,0,0,1-.48,1.74,3.7,3.7,0,0,1-1.28,1.27,3.37,3.37,0,0,1-1.76.48ZM8.4,94.54H19.23a.31.31,0,0,0,.22-.09.26.26,0,0,0,.1-.21V83.43a.26.26,0,0,0-.1-.21.31.31,0,0,0-.22-.09H8.4a.31.31,0,0,0-.3.3V94.24a.31.31,0,0,0,.3.3Z"/><path class="cls-2" d="M24.35,97.88V79.79h3.29V97.88Z"/><path class="cls-2" d="M36.11,97.88V91.1L27.77,79.79h3.92l6.1,7.66,6-7.66h4L39.45,91.12v6.76Z"/><path class="cls-2" d="M58.49,97.88a3.28,3.28,0,0,1-1.74-.48,3.68,3.68,0,0,1-1.27-1.27A3.3,3.3,0,0,1,55,94.39V83.28a3.28,3.28,0,0,1,.48-1.74,3.68,3.68,0,0,1,1.27-1.27,3.28,3.28,0,0,1,1.74-.48H73v3.34H59.2a.92.92,0,0,0-.65.23.89.89,0,0,0-.23.65v9.65a.9.9,0,0,0,.23.64.88.88,0,0,0,.65.24H73v3.34Z"/><path class="cls-2" d="M74.59,97.88V78.53h3.3v4.78h8a3.25,3.25,0,0,1,1.74.48A3.56,3.56,0,0,1,88.91,85a3.24,3.24,0,0,1,.48,1.73V97.88H86.1v-11a.31.31,0,0,0-.3-.3H78.19a.29.29,0,0,0-.22.09.28.28,0,0,0-.08.21v11Z"/><path class="cls-2" d="M93.84,97.88a3.31,3.31,0,0,1-1.75-.48,3.54,3.54,0,0,1-1.25-1.27,3.34,3.34,0,0,1-.47-1.72V88.94h11.51v-2a.31.31,0,0,0-.3-.3H90.37V83.31H101.7a3.39,3.39,0,0,1,1.75.46A3.51,3.51,0,0,1,104.7,85a3.39,3.39,0,0,1,.47,1.74V97.88ZM94,94.59h7.92V91.9H93.66v2.39a.31.31,0,0,0,.3.3Z"/><path class="cls-2" d="M108,97.4a3.76,3.76,0,0,1-1.27-1.27,3.34,3.34,0,0,1-.47-1.72V78.51h3.31V94.29a.31.31,0,0,0,.3.3h2.79v3.29h-2.94A3.26,3.26,0,0,1,108,97.4Z"/><path class="cls-2" d="M115.35,97.4a3.76,3.76,0,0,1-1.27-1.27,3.34,3.34,0,0,1-.47-1.72V78.51h3.31V94.29a.31.31,0,0,0,.3.3H120v3.29h-2.94A3.26,3.26,0,0,1,115.35,97.4Z"/><path class="cls-2" d="M122.56,97.4a3.76,3.76,0,0,1-1.27-1.27,3.34,3.34,0,0,1-.47-1.72V86.77a3.33,3.33,0,0,1,.47-1.73,3.7,3.7,0,0,1,1.27-1.25,3.26,3.26,0,0,1,1.72-.48h7.87a3.35,3.35,0,0,1,1.74.46A3.46,3.46,0,0,1,135.15,85a3.38,3.38,0,0,1,.46,1.74v5.48h-11.5v2a.29.29,0,0,0,.09.21.27.27,0,0,0,.21.09h11.2v3.29H124.28A3.26,3.26,0,0,1,122.56,97.4Zm1.55-8.11h8.21V86.9a.29.29,0,0,0-.09-.21.27.27,0,0,0-.21-.09h-7.61a.27.27,0,0,0-.21.09.29.29,0,0,0-.09.21Z"/><path class="cls-2" d="M137.27,97.88V83.31H148.6a3.31,3.31,0,0,1,1.75.48A3.48,3.48,0,0,1,151.6,85a3.33,3.33,0,0,1,.47,1.73V97.88h-3.29v-11a.31.31,0,0,0-.3-.3h-7.62a.31.31,0,0,0-.3.3v11Z"/><path class="cls-2" d="M155.69,103.63v-3.32h8.76a.29.29,0,0,0,.22-.08.34.34,0,0,0,.09-.22V97.88h-8A3.25,3.25,0,0,1,155,97.4a3.74,3.74,0,0,1-1.25-1.25,3.25,3.25,0,0,1-.48-1.74V86.77a3.24,3.24,0,0,1,.48-1.73A3.54,3.54,0,0,1,155,83.79a3.23,3.23,0,0,1,1.72-.48h7.88a3.25,3.25,0,0,1,1.74.48A3.54,3.54,0,0,1,167.58,85a3.33,3.33,0,0,1,.47,1.73v13.39a3.39,3.39,0,0,1-.46,1.75,3.33,3.33,0,0,1-1.24,1.26,3.39,3.39,0,0,1-1.75.46Zm1.15-9h7.61a.29.29,0,0,0,.22-.09.33.33,0,0,0,.09-.21V86.9a.33.33,0,0,0-.09-.21.29.29,0,0,0-.22-.09h-7.61a.31.31,0,0,0-.3.3v7.39a.31.31,0,0,0,.3.3Z"/><path class="cls-2" d="M170.87,97.4a3.68,3.68,0,0,1-1.27-1.27,3.25,3.25,0,0,1-.47-1.72V86.77A3.24,3.24,0,0,1,169.6,85a3.62,3.62,0,0,1,1.27-1.25,3.26,3.26,0,0,1,1.72-.48h7.87a3.38,3.38,0,0,1,1.74.46A3.46,3.46,0,0,1,183.46,85a3.38,3.38,0,0,1,.46,1.74v5.48h-11.5v2a.32.32,0,0,0,.08.21.29.29,0,0,0,.22.09h11.2v3.29H172.59A3.26,3.26,0,0,1,170.87,97.4Zm1.55-8.11h8.21V86.9a.31.31,0,0,0-.3-.3h-7.61a.29.29,0,0,0-.22.09.32.32,0,0,0-.08.21Z"/><path class="cls-2" d="M192.34,97.88V90.94a3.35,3.35,0,0,1,.47-1.75,3.68,3.68,0,0,1,1.26-1.25,3.32,3.32,0,0,1,1.73-.46h10.86a.31.31,0,0,0,.3-.3v-3.8a.31.31,0,0,0-.3-.3H195.93a.31.31,0,0,0-.3.3v1.23h-3.29V83.26a3.36,3.36,0,0,1,.47-1.76,3.65,3.65,0,0,1,1.26-1.24,3.33,3.33,0,0,1,1.73-.47h11a3.34,3.34,0,0,1,1.74.47,3.65,3.65,0,0,1,1.25,1.25,3.31,3.31,0,0,1,.48,1.75v4.07a3.24,3.24,0,0,1-.48,1.73,3.86,3.86,0,0,1-1.25,1.26,3.25,3.25,0,0,1-1.74.47H195.93a.29.29,0,0,0-.21.09.29.29,0,0,0-.09.22v3.19a.31.31,0,0,0,.3.3h14.32v3.29Z"/><path class="cls-2" d="M213.92,97.36A4,4,0,0,1,212.66,96a3.45,3.45,0,0,1-.48-1.76V83.33a3.36,3.36,0,0,1,.48-1.77,3.86,3.86,0,0,1,1.26-1.28,3.14,3.14,0,0,1,1.73-.49h11a3.17,3.17,0,0,1,1.73.49,3.86,3.86,0,0,1,1.26,1.28,3.36,3.36,0,0,1,.48,1.77V94.26a3.45,3.45,0,0,1-.48,1.76,4,4,0,0,1-1.26,1.34,3,3,0,0,1-1.73.52h-11A3,3,0,0,1,213.92,97.36Zm1.55-6,9.83-8.19h-9.52a.29.29,0,0,0-.22.09.26.26,0,0,0-.09.21ZM217,94.41h9.52a.29.29,0,0,0,.22-.09.3.3,0,0,0,.08-.21V86.22Z"/><path class="cls-2" d="M232.13,97.88V90.94a3.26,3.26,0,0,1,.48-1.75,3.74,3.74,0,0,1,1.25-1.25,3.33,3.33,0,0,1,1.74-.46h10.85a.31.31,0,0,0,.3-.3v-3.8a.31.31,0,0,0-.3-.3H235.72a.31.31,0,0,0-.3.3v1.23h-3.29V83.26a3.27,3.27,0,0,1,.48-1.76,3.71,3.71,0,0,1,1.25-1.24,3.34,3.34,0,0,1,1.74-.47h11a3.34,3.34,0,0,1,1.74.47,3.48,3.48,0,0,1,1.25,1.25,3.31,3.31,0,0,1,.48,1.75v4.07a3.24,3.24,0,0,1-.48,1.73,3.68,3.68,0,0,1-1.25,1.26,3.25,3.25,0,0,1-1.74.47H235.72a.29.29,0,0,0-.21.09.29.29,0,0,0-.09.22v3.19a.31.31,0,0,0,.3.3H250v3.29Z"/><path class="cls-2" d="M262.08,97.88V93.33H250.69V90.24l11.59-10.45h3.09V90h2.53v3.31h-2.53v4.55ZM255.82,90h6.26V84.79Z"/><path class="cls-3" d="M49,76.46,51.77,82,44.09,92.44V98l-3.5,3.5H37.25L33.76,98V92.41l-1.47-2V98l-3.5,3.5H25.5l-1.17-1.17c-.1.06-.17.15-.27.2a6.83,6.83,0,0,1-3.54,1H6L2.46,98V80L6,76.46H20.52a6.84,6.84,0,0,1,3.54,1c.1.06.17.14.27.21l1.17-1.17h3.29l.08.08,0-.08h3.92l2.74,1.32L38.92,82l3.3-4.19L45,76.46h4m.27-.45H44.86l-.09,0L42,77.39l-.09,0-.06.08-2.95,3.75-3-3.77-.06-.08-.09,0L33,76.06l-.09,0H25.31l-.13.13-.89.9a7.32,7.32,0,0,0-3.77-1H5.77l-.13.13-3.5,3.5L2,79.77V98.23l.13.12,3.5,3.5.13.13H20.52a7.31,7.31,0,0,0,3.77-1l.89.89.13.13H29l.13-.13,3.5-3.5.13-.12V91.76l.58.79v5.68l.13.12,3.5,3.5.13.13h3.71l.13-.13,3.49-3.5.13-.12V92.58l7.6-10.29.16-.21-.12-.25-2.81-5.57L49.23,76Z"/><path class="cls-3" d="M118.07,75.18l3.49,3.49v2.55c.12-.08.22-.19.34-.27a6.76,6.76,0,0,1,3.53-1h7.86a6.83,6.83,0,0,1,3.52,1c.14.08.24.2.37.29L138.42,80h11.33a6.78,6.78,0,0,1,3.55,1c.19.12.34.28.52.41a5.53,5.53,0,0,1,.52-.41,6.7,6.7,0,0,1,3.52-1h7.89a6.71,6.71,0,0,1,3.56,1c.16.1.29.23.44.34.16-.11.29-.25.46-.36a6.76,6.76,0,0,1,3.53-1h7.86a6.86,6.86,0,0,1,3.52,1,7,7,0,0,1,2.5,2.5,6.85,6.85,0,0,1,.94,3.52v5.47l-1.16,1.17,1.16,1.17V98l-3.49,3.5H173.74a6.31,6.31,0,0,1-1.15-.11,6.55,6.55,0,0,1-.82,2.38,6.84,6.84,0,0,1-2.5,2.54,7,7,0,0,1-3.52.94h-8.92l-3.5-3.5v-2.37l-.12.12h-3.29L146.43,98V90.26h-1.22V98l-3.5,3.5h-3.29l-.83-.83-.83.83H125.43a6.69,6.69,0,0,1-3.37-.9l-.9.9h-2.94a6.71,6.71,0,0,1-3.47-1l-1,1h-2.94a6.76,6.76,0,0,1-3.53-1s0,0,0,0l-1,1H95a6.73,6.73,0,0,1-3.49-1l-.95,1h-3.3L83.75,98V90.26H82.53V98l-3.5,3.5H75.74l-.78-.78-.78.78H59.64a6.81,6.81,0,0,1-3.56-1,7.12,7.12,0,0,1-2.45-2.46,6.78,6.78,0,0,1-1-3.55V83.45a6.81,6.81,0,0,1,1-3.56,7.09,7.09,0,0,1,2.45-2.45,6.84,6.84,0,0,1,3.56-1H74.18l.15.15,1.41-1.41H79l3.5,3.5V80h4.54a6.74,6.74,0,0,1,3.49,1l1-1h11.33a7.18,7.18,0,0,1,1,.09V78.67l3.5-3.49h3.32l2,2,2-2h3.32m.18-.45h-3.68l-.13.13-1.71,1.71L111,74.86l-.13-.13h-3.68l-.13.13-3.5,3.5-.13.13v1.07l-.6,0H91.33l-.13.13-.72.72a7.15,7.15,0,0,0-3.41-.85H83v-1l-.13-.13-3.5-3.5-.13-.13H75.56l-.13.13L74.3,76H59.64a7.25,7.25,0,0,0-3.78,1,7.64,7.64,0,0,0-2.61,2.6,7.25,7.25,0,0,0-1,3.79v11.1a7.24,7.24,0,0,0,1,3.78,7.64,7.64,0,0,0,2.6,2.61,7.28,7.28,0,0,0,3.79,1H74.37l.13-.13.46-.46.47.46.13.13h3.65l.13-.13,3.5-3.5.13-.12V90.7h.34v7.53l.12.12,3.5,3.5.13.13h3.66l.13-.13.71-.71A7.24,7.24,0,0,0,95,102h11.51l.13-.13.76-.75a7.22,7.22,0,0,0,3.48.88H114l.13-.13.71-.71a7.19,7.19,0,0,0,3.4.84h3.12l.13-.13.67-.66a7.22,7.22,0,0,0,3.29.79h11.51l.13-.13.52-.51.51.51.13.13h3.66l.13-.13,3.5-3.5.13-.12V90.7H146v7.53l.13.12,3.5,3.5.13.13h3.15v2l.13.13,3.5,3.49.13.13h9.1a7.32,7.32,0,0,0,6.41-3.7,7.18,7.18,0,0,0,.79-2.1,5.49,5.49,0,0,0,.79,0h11.51l.13-.13,3.5-3.5.13-.12V94.57l-.13-.13-.86-.86.86-.85.13-.13V86.94a7.4,7.4,0,0,0-7.41-7.41h-7.86a7.2,7.2,0,0,0-3.76,1l-.23.17-.21-.15a7.15,7.15,0,0,0-3.79-1.06h-7.89a7.16,7.16,0,0,0-3.75,1,1.69,1.69,0,0,0-.29.22,1.54,1.54,0,0,0-.29-.21,7.16,7.16,0,0,0-3.78-1H138.23l-.13.13-.95,1-.12-.08a7.24,7.24,0,0,0-3.74-1h-7.86a7.19,7.19,0,0,0-3.42.85V78.49l-.13-.13-3.5-3.5-.13-.13Z"/><path class="cls-3" d="M266.51,76.46,270,80v7.69l2.53,2.54v3.31L270,96v2l-3.5,3.5h-3.29l-3.5-3.5V97h-5V98l-3.49,3.5H233.28l-1.44-1.44c-.14.11-.25.24-.4.34a6.56,6.56,0,0,1-3.67,1.1h-11a6.51,6.51,0,0,1-3.66-1.1c-.13-.08-.22-.2-.35-.29l-1.39,1.39H193.48L190,98V91.11a6.76,6.76,0,0,1,1-3.59,8.18,8.18,0,0,1,.74-1L190,84.78V83.42a6.72,6.72,0,0,1,1-3.58,7.07,7.07,0,0,1,2.44-2.42,6.78,6.78,0,0,1,3.53-1h11a6.86,6.86,0,0,1,3.52,1,8.31,8.31,0,0,1,.93.73,8.76,8.76,0,0,1,.82-.66,6.63,6.63,0,0,1,3.59-1h11a6.69,6.69,0,0,1,3.6,1,8.21,8.21,0,0,1,.86.7,6.58,6.58,0,0,1,1-.76,6.81,6.81,0,0,1,3.53-1h11a6.83,6.83,0,0,1,3.52,1,7.18,7.18,0,0,1,2.47,2.46,6.83,6.83,0,0,1,1,3.27l6.41-5.78,2.34-.9h3.09m.18-.45h-3.35l-.08,0-2.34.9-.08,0-.06.06L255,82.23a7,7,0,0,0-.94-2.59A7.58,7.58,0,0,0,251.47,77a7.31,7.31,0,0,0-3.75-1h-11A7.22,7.22,0,0,0,233,77a5.48,5.48,0,0,0-.76.55,4.53,4.53,0,0,0-.63-.48,7,7,0,0,0-3.83-1.1h-11a7.09,7.09,0,0,0-3.83,1.1,5.26,5.26,0,0,0-.58.45,4.86,4.86,0,0,0-.71-.53,7.24,7.24,0,0,0-3.74-1H197a7.26,7.26,0,0,0-3.76,1,7.5,7.5,0,0,0-2.59,2.57,7.17,7.17,0,0,0-1.06,3.81V85l.13.13,1.45,1.45c-.18.24-.36.49-.52.75a7.23,7.23,0,0,0-1.06,3.82v7.12l.13.12,3.5,3.5.13.13h18.28l.13-.13,1.1-1.1.08.06a6.92,6.92,0,0,0,3.9,1.17h11a6.93,6.93,0,0,0,3.91-1.17l.14-.1,1.14,1.14.13.13h18.28l.13-.13,3.5-3.5.13-.12v-.8h4.15v.8l.13.12,3.5,3.5.13.13h3.65l.13-.13,3.5-3.5.13-.12v-2l2.41-2.41.13-.13V90l-.13-.13-2.41-2.41V79.77l-.13-.13-3.5-3.5-.13-.13Z"/><path class="cls-4" d="M6,99.07V81H20.57a3.4,3.4,0,0,1,1.76.48,3.7,3.7,0,0,1,1.28,1.27,3.36,3.36,0,0,1,.47,1.74V95.58a3.39,3.39,0,0,1-.47,1.74,3.7,3.7,0,0,1-1.28,1.27,3.4,3.4,0,0,1-1.76.48Zm3.59-3.34H20.42a.31.31,0,0,0,.22-.09.27.27,0,0,0,.1-.22V84.62a.26.26,0,0,0-.1-.21.31.31,0,0,0-.22-.09H9.59a.27.27,0,0,0-.21.09.29.29,0,0,0-.09.21v10.8a.29.29,0,0,0,.09.22A.27.27,0,0,0,9.59,95.73Z"/><path class="cls-4" d="M25.54,99.07V81h3.29V99.07Z"/><path class="cls-4" d="M37.3,99.07V92.28L29,81h3.92L39,88.64,45,81h4L40.64,92.31v6.76Z"/><path class="cls-4" d="M59.68,99.07a3.25,3.25,0,0,1-1.74-.48,3.59,3.59,0,0,1-1.27-1.27,3.3,3.3,0,0,1-.48-1.74V84.47a3.28,3.28,0,0,1,.48-1.74,3.59,3.59,0,0,1,1.27-1.27A3.25,3.25,0,0,1,59.68,81H74.23v3.34H60.38a.91.91,0,0,0-.64.23.85.85,0,0,0-.23.65v9.65a.85.85,0,0,0,.23.64.88.88,0,0,0,.64.24H74.23v3.34Z"/><path class="cls-4" d="M75.78,99.07V79.72h3.29V84.5h8a3.34,3.34,0,0,1,1.74.47,3.77,3.77,0,0,1,1.25,1.26A3.24,3.24,0,0,1,90.58,88V99.07H87.29v-11a.27.27,0,0,0-.09-.21.29.29,0,0,0-.21-.09H79.38a.29.29,0,0,0-.22.09.27.27,0,0,0-.09.21v11Z"/><path class="cls-4" d="M95,99.07a3.31,3.31,0,0,1-1.75-.48A3.57,3.57,0,0,1,92,97.32a3.33,3.33,0,0,1-.46-1.72V90.12h11.51v-2a.27.27,0,0,0-.09-.21.29.29,0,0,0-.22-.09H91.56V84.5h11.33a3.39,3.39,0,0,1,1.75.46,3.51,3.51,0,0,1,1.25,1.26,3.36,3.36,0,0,1,.47,1.74V99.07Zm.12-3.29h7.92V93.09H94.85v2.38a.29.29,0,0,0,.09.22A.29.29,0,0,0,95.15,95.78Z"/><path class="cls-4" d="M109.18,98.59a3.68,3.68,0,0,1-1.27-1.27,3.25,3.25,0,0,1-.47-1.72V79.7h3.31V95.47a.29.29,0,0,0,.09.22.29.29,0,0,0,.21.09h2.79v3.29H110.9A3.26,3.26,0,0,1,109.18,98.59Z"/><path class="cls-4" d="M116.54,98.59a3.68,3.68,0,0,1-1.27-1.27,3.25,3.25,0,0,1-.47-1.72V79.7h3.31V95.47a.29.29,0,0,0,.09.22.29.29,0,0,0,.21.09h2.79v3.29h-2.94A3.26,3.26,0,0,1,116.54,98.59Z"/><path class="cls-4" d="M123.75,98.59a3.68,3.68,0,0,1-1.27-1.27A3.25,3.25,0,0,1,122,95.6V88a3.24,3.24,0,0,1,.47-1.73A3.73,3.73,0,0,1,123.75,85a3.34,3.34,0,0,1,1.72-.47h7.86a3.39,3.39,0,0,1,1.75.46,3.46,3.46,0,0,1,1.26,1.26A3.35,3.35,0,0,1,136.8,88v5.48H125.3v2a.33.33,0,0,0,.08.22.29.29,0,0,0,.22.09h11.2v3.29H125.47A3.26,3.26,0,0,1,123.75,98.59Zm1.55-8.11h8.21V88.09a.27.27,0,0,0-.09-.21.29.29,0,0,0-.21-.09H125.6a.29.29,0,0,0-.22.09.3.3,0,0,0-.08.21Z"/><path class="cls-4" d="M138.46,99.07V84.5h11.33a3.4,3.4,0,0,1,1.75.47,3.68,3.68,0,0,1,1.25,1.26,3.33,3.33,0,0,1,.47,1.73V99.07H150v-11a.27.27,0,0,0-.09-.21.29.29,0,0,0-.21-.09h-7.62a.29.29,0,0,0-.21.09.27.27,0,0,0-.09.21v11Z"/><path class="cls-4" d="M156.87,104.82V101.5h8.77a.28.28,0,0,0,.3-.3V99.07h-8a3.25,3.25,0,0,1-1.74-.48,3.68,3.68,0,0,1-1.25-1.26,3.22,3.22,0,0,1-.48-1.73V88a3.24,3.24,0,0,1,.48-1.73A3.71,3.71,0,0,1,156.18,85a3.38,3.38,0,0,1,1.73-.47h7.88a3.34,3.34,0,0,1,1.74.47,3.74,3.74,0,0,1,1.24,1.26,3.32,3.32,0,0,1,.46,1.73v13.39a3.48,3.48,0,0,1-.45,1.75,3.33,3.33,0,0,1-1.24,1.26,3.49,3.49,0,0,1-1.75.46Zm1.16-9h7.61a.29.29,0,0,0,.22-.09.33.33,0,0,0,.08-.22V88.09a.3.3,0,0,0-.08-.21.29.29,0,0,0-.22-.09H158a.31.31,0,0,0-.3.3v7.38a.29.29,0,0,0,.09.22A.27.27,0,0,0,158,95.78Z"/><path class="cls-4" d="M172.06,98.59a3.68,3.68,0,0,1-1.27-1.27,3.26,3.26,0,0,1-.48-1.72V88a3.24,3.24,0,0,1,.48-1.73A3.73,3.73,0,0,1,172.06,85a3.34,3.34,0,0,1,1.72-.47h7.86a3.39,3.39,0,0,1,1.75.46,3.46,3.46,0,0,1,1.26,1.26,3.35,3.35,0,0,1,.46,1.74v5.48h-11.5v2a.29.29,0,0,0,.08.22.29.29,0,0,0,.22.09h11.2v3.29H173.78A3.26,3.26,0,0,1,172.06,98.59Zm1.55-8.11h8.21V88.09a.27.27,0,0,0-.09-.21.29.29,0,0,0-.21-.09h-7.61a.29.29,0,0,0-.22.09.26.26,0,0,0-.08.21Z"/><path class="cls-4" d="M193.53,99.07V92.13a3.32,3.32,0,0,1,.47-1.75,3.68,3.68,0,0,1,1.26-1.25,3.32,3.32,0,0,1,1.73-.46h10.86a.31.31,0,0,0,.3-.3v-3.8a.31.31,0,0,0-.3-.3H197.12a.29.29,0,0,0-.22.09.32.32,0,0,0-.08.21V85.8h-3.29V84.45a3.36,3.36,0,0,1,.47-1.76,3.68,3.68,0,0,1,1.26-1.25A3.42,3.42,0,0,1,197,81h11a3.45,3.45,0,0,1,1.74.46A3.68,3.68,0,0,1,211,82.7a3.31,3.31,0,0,1,.48,1.75v4.07a3.24,3.24,0,0,1-.48,1.73,3.86,3.86,0,0,1-1.25,1.26A3.36,3.36,0,0,1,208,92H197.12a.29.29,0,0,0-.22.09.32.32,0,0,0-.08.21v3.19a.33.33,0,0,0,.08.22.29.29,0,0,0,.22.09h14.32v3.29Z"/><path class="cls-4" d="M215.11,98.55a4,4,0,0,1-1.26-1.34,3.45,3.45,0,0,1-.48-1.76V84.52a3.36,3.36,0,0,1,.48-1.77,3.86,3.86,0,0,1,1.26-1.28,3.14,3.14,0,0,1,1.73-.49h11a3.17,3.17,0,0,1,1.73.49,3.86,3.86,0,0,1,1.26,1.28,3.44,3.44,0,0,1,.47,1.77V95.45a3.54,3.54,0,0,1-.47,1.76,4,4,0,0,1-1.26,1.34,3,3,0,0,1-1.73.52h-11A3,3,0,0,1,215.11,98.55Zm1.55-6,9.83-8.19H217a.29.29,0,0,0-.22.08.29.29,0,0,0-.09.22Zm1.51,3.06h9.52a.29.29,0,0,0,.22-.09.32.32,0,0,0,.08-.21V87.41Z"/><path class="cls-4" d="M233.32,99.07V92.13a3.24,3.24,0,0,1,.48-1.75,3.56,3.56,0,0,1,1.25-1.25,3.33,3.33,0,0,1,1.74-.46h10.85a.31.31,0,0,0,.3-.3v-3.8a.31.31,0,0,0-.3-.3H236.91a.31.31,0,0,0-.3.3V85.8h-3.29V84.45a3.27,3.27,0,0,1,.48-1.76,3.56,3.56,0,0,1,1.25-1.25,3.43,3.43,0,0,1,1.74-.46h11a3.43,3.43,0,0,1,1.74.46,3.51,3.51,0,0,1,1.25,1.26,3.31,3.31,0,0,1,.48,1.75v4.07a3.24,3.24,0,0,1-.48,1.73,3.68,3.68,0,0,1-1.25,1.26,3.34,3.34,0,0,1-1.74.47H236.91a.31.31,0,0,0-.3.3v3.19a.29.29,0,0,0,.09.22.29.29,0,0,0,.21.09h14.32v3.29Z"/><path class="cls-4" d="M263.26,99.07V94.52H251.88V91.43L263.47,81h3.08V91.2h2.54v3.32h-2.54v4.55ZM257,91.2h6.25V86Z"/></g></g></svg>