<?xml version="1.0" encoding="UTF-8" standalone="no"?>
<svg
   xmlns:dc="http://purl.org/dc/elements/1.1/"
   xmlns:cc="http://creativecommons.org/ns#"
   xmlns:rdf="http://www.w3.org/1999/02/22-rdf-syntax-ns#"
   xmlns:svg="http://www.w3.org/2000/svg"
   xmlns="http://www.w3.org/2000/svg"
   viewBox="0 0 114.88733 113.7532"
   height="113.7532"
   width="114.88733"
   xml:space="preserve"
   id="svg2"
   version="1.1"><metadata
     id="metadata8"><rdf:RDF><cc:Work
         rdf:about=""><dc:format>image/svg+xml</dc:format><dc:type
           rdf:resource="http://purl.org/dc/dcmitype/StillImage" /></cc:Work></rdf:RDF></metadata><defs
     id="defs6"><clipPath
       id="clipPath18"
       clipPathUnits="userSpaceOnUse"><path
         id="path16"
         d="M 0,85.315 H 86.165 V 0 H 0 Z" /></clipPath></defs><g
     transform="matrix(1.3333333,0,0,-1.3333333,0,113.7532)"
     id="g10"><g
       id="g12"><g
         clip-path="url(#clipPath18)"
         id="g14"><g
           transform="translate(0.5202,75.165)"
           id="g20"><path
             id="path22"
             style="fill:#282828;fill-opacity:1;fill-rule:nonzero;stroke:none"
             d="m 0,0 19.768,-19.768 c 0.694,-0.694 1.82,-0.693 2.514,0.001 0.293,0.294 0.475,0.681 0.512,1.095 l 1.981,21.749 c 0.089,0.978 -0.632,1.842 -1.609,1.93 -0.107,0.01 -0.214,0.01 -0.321,0 L 1.096,3.026 C 0.118,2.938 -0.602,2.073 -0.513,1.095 -0.475,0.681 -0.293,0.294 0,0 m 65.357,-45.247 19.768,-19.768 c 0.694,-0.694 0.693,-1.82 -0.001,-2.514 -0.294,-0.294 -0.681,-0.475 -1.095,-0.513 l -21.749,-1.98 c -0.977,-0.089 -1.842,0.632 -1.93,1.609 -0.01,0.107 -0.01,0.214 0,0.321 l 1.981,21.749 c 0.089,0.977 0.954,1.698 1.931,1.609 0.414,-0.038 0.801,-0.22 1.095,-0.513" /></g><g
           transform="translate(13.4206,62.2646)"
           id="g24"><path
             id="path26"
             style="fill:#282828;fill-opacity:1;fill-rule:evenodd;stroke:none"
             d="m 0,0 c -10.82,-16.392 -6.304,-38.452 10.088,-49.272 6.778,-4.475 14.883,-6.494 22.968,-5.724 1.947,0.252 3.729,-1.123 3.98,-3.07 0.252,-1.948 -1.123,-3.73 -3.071,-3.981 -0.076,-0.01 -0.153,-0.017 -0.231,-0.022 -23.461,-2.236 -44.294,14.97 -46.53,38.432 -0.972,10.195 1.755,20.399 7.683,28.75 z m 54.799,5.53 c -7.802,7.803 -18.335,11.226 -28.53,10.251 -1.948,-0.251 -3.73,1.124 -3.981,3.071 -0.251,1.947 1.124,3.73 3.071,3.981 0.077,0.01 0.154,0.017 0.231,0.022 23.462,2.236 44.294,-14.971 46.53,-38.432 0.972,-10.195 -1.755,-20.399 -7.683,-28.75 l -5.113,5.113 c 9.317,14.095 7.425,32.799 -4.525,44.744" /></g><g
           transform="translate(34.4358,49.5752)"
           id="g28"><path
             id="path30"
             style="fill:#282828;fill-opacity:1;fill-rule:nonzero;stroke:none"
             d="m 0,0 h 17.294 v -29.4 c 0,-0.955 -0.774,-1.729 -1.73,-1.729 H 1.729 C 0.774,-31.129 0,-30.355 0,-29.4 Z M 0,3.458 C -1.91,3.458 -3.459,1.91 -3.459,0 v -29.4 c 0,-2.865 2.323,-5.188 5.188,-5.188 h 13.835 c 2.866,0 5.189,2.323 5.189,5.188 V 0 c 0,1.91 -1.549,3.458 -3.459,3.458 z m 10.376,10.377 h 3.458 v 3.459 h -3.458 z m -6.917,0 h 3.458 v 3.459 H 3.459 Z M 0,19.023 c 0,0.956 0.774,1.729 1.729,1.729 h 13.835 c 0.956,0 1.73,-0.773 1.73,-1.729 V 5.188 H 0 Z" /></g></g></g></g></svg>