<svg xmlns="http://www.w3.org/2000/svg" xmlns:xlink="http://www.w3.org/1999/xlink" version="1.1" width="47.5652" height="47.0957" viewBox="0 0 47.5652 47.0957">
<defs>
<clipPath id="clip_0">
<path transform="matrix(1,0,0,-1,0,47.0957)" d="M0 47.096H47.565V0H0Z"/>
</clipPath>
</defs>
<g clip-path="url(#clip_0)">
<path transform="matrix(1,0,0,-1,.2871,5.6026995)" d="M0 0 10.913-10.913C11.296-11.295 11.917-11.295 12.3-10.912 12.462-10.75 12.563-10.536 12.583-10.308L13.677 1.698C13.726 2.238 13.328 2.715 12.788 2.764 12.729 2.77 12.67 2.77 12.611 2.764L.605 1.67C.065 1.621-.332 1.144-.283 .604-.262 .376-.162 .162 0 0M36.079-24.978 46.991-35.89C47.374-36.273 47.374-36.895 46.99-37.278 46.828-37.44 46.614-37.54 46.386-37.561L34.38-38.654C33.84-38.703 33.363-38.305 33.314-37.766 33.309-37.707 33.309-37.647 33.314-37.588L34.408-25.583C34.457-25.043 34.935-24.646 35.474-24.695 35.703-24.715 35.917-24.815 36.079-24.978" fill="#ffffff"/>
<path transform="matrix(1,0,0,-1,7.4087,12.7243)" d="M0 0C-5.973-9.049-3.48-21.227 5.569-27.2 9.31-29.669 13.784-30.784 18.247-30.359 19.322-30.22 20.306-30.979 20.445-32.054 20.583-33.129 19.824-34.113 18.75-34.251 18.707-34.257 18.665-34.261 18.622-34.264 5.67-35.498-5.829-26-7.064-13.048-7.6-7.42-6.095-1.788-2.823 2.822ZM30.25 3.053C25.943 7.36 20.129 9.25 14.5 8.711 13.426 8.573 12.442 9.332 12.303 10.407 12.165 11.482 12.924 12.465 13.999 12.604 14.041 12.61 14.083 12.614 14.126 12.616 27.077 13.851 38.577 4.353 39.812-8.599 40.348-14.227 38.843-19.86 35.57-24.47L32.748-21.647C37.891-13.866 36.847-3.541 30.25 3.053" fill="#ffffff" fill-rule="evenodd"/>
<path transform="matrix(1,0,0,-1,19.0093,19.729199)" d="M0 0H9.547V-16.229C9.547-16.756 9.119-17.184 8.592-17.184H.955C.427-17.184 0-16.756 0-16.229ZM0 1.909C-1.055 1.909-1.909 1.055-1.909 0V-16.229C-1.909-17.811-.627-19.093 .955-19.093H8.592C10.174-19.093 11.456-17.811 11.456-16.229V0C11.456 1.055 10.601 1.909 9.547 1.909ZM5.728 7.637H7.637V9.547H5.728ZM1.909 7.637H3.819V9.547H1.909ZM0 10.501C0 11.028 .427 11.456 .955 11.456H8.592C9.119 11.456 9.547 11.028 9.547 10.501V2.864H0Z" fill="#ffffff"/>
</g>
</svg>
