<?xml version="1.0" encoding="UTF-8" standalone="no"?>
<svg
   xmlns:dc="http://purl.org/dc/elements/1.1/"
   xmlns:cc="http://creativecommons.org/ns#"
   xmlns:rdf="http://www.w3.org/1999/02/22-rdf-syntax-ns#"
   xmlns:svg="http://www.w3.org/2000/svg"
   xmlns="http://www.w3.org/2000/svg"
   viewBox="0 0 113.444 113.4436"
   height="113.4436"
   width="113.444"
   xml:space="preserve"
   id="svg2"
   version="1.1"><metadata
     id="metadata8"><rdf:RDF><cc:Work
         rdf:about=""><dc:format>image/svg+xml</dc:format><dc:type
           rdf:resource="http://purl.org/dc/dcmitype/StillImage" /></cc:Work></rdf:RDF></metadata><defs
     id="defs6"><clipPath
       id="clipPath18"
       clipPathUnits="userSpaceOnUse"><path
         id="path16"
         d="M 0,85.083 H 85.083 V 0 H 0 Z" /></clipPath></defs><g
     transform="matrix(1.3333333,0,0,-1.3333333,0,113.4436)"
     id="g10"><g
       id="g12"><g
         clip-path="url(#clipPath18)"
         id="g14"><g
           transform="translate(7.0642,19.8215)"
           id="g20"><path
             id="path22"
             style="fill:#2b2b2b;fill-opacity:1;fill-rule:nonzero;stroke:none"
             d="m 0,0 v 53.129 c 0,2.799 2.269,5.068 5.068,5.068 h 53.129 l 5.068,5.068 H 5.068 c -5.598,0 -10.136,-4.538 -10.136,-10.136 V -5.068 Z" /></g><g
           transform="translate(78.0188,65.2614)"
           id="g24"><path
             id="path26"
             style="fill:#2b2b2b;fill-opacity:1;fill-rule:nonzero;stroke:none"
             d="m 0,0 v -53.129 c 0,-2.799 -2.269,-5.068 -5.068,-5.068 h -53.129 l -5.068,-5.069 h 58.197 c 5.598,0 10.136,4.538 10.136,10.137 V 5.068 Z" /></g><g
           transform="translate(52.6628,67.8498)"
           id="g28"><path
             id="path30"
             style="fill:#2b2b2b;fill-opacity:1;fill-rule:nonzero;stroke:none"
             d="m 0,0 h -20.273 c -1.4,0 -2.534,-1.134 -2.534,-2.534 v -2.534 h -5.068 c -1.4,0 -2.534,-1.134 -2.534,-2.534 v -7.602 h -7.603 c -1.399,0 -2.534,-1.135 -2.534,-2.534 V -42.992 L 1.74,-0.707 C 1.285,-0.274 0.677,0 0,0" /></g><g
           transform="translate(41.2595,27.3049)"
           id="g32"><path
             id="path34"
             style="fill:#2b2b2b;fill-opacity:1;fill-rule:nonzero;stroke:none"
             d="m 0,0 h 2.534 c 0.7,0 1.267,-0.567 1.267,-1.268 V -8.87 c 0,-0.699 -0.567,-1.267 -1.267,-1.267 H 0 c -0.7,0 -1.268,0.568 -1.268,1.267 v 7.602 C -1.268,-0.567 -0.7,0 0,0 M 8.869,-1.268 C 8.869,-0.567 9.436,0 10.136,0 h 2.534 c 0.7,0 1.268,-0.567 1.268,-1.268 V -8.87 c 0,-0.699 -0.568,-1.267 -1.268,-1.267 h -2.534 c -0.7,0 -1.267,0.568 -1.267,1.267 z m 10.136,0 c 0,0.701 0.568,1.268 1.267,1.268 h 2.535 c 0.699,0 1.267,-0.567 1.267,-1.268 V -8.87 c 0,-0.699 -0.568,-1.267 -1.267,-1.267 h -2.535 c -0.699,0 -1.267,0.568 -1.267,1.267 z M -6.335,-8.87 c 0,-0.699 -0.568,-1.267 -1.268,-1.267 h -2.534 c -0.327,0 -0.619,0.133 -0.843,0.336 l -5.405,-5.404 h 45.527 c 1.4,0 2.534,1.135 2.534,2.534 v 35.478 c 0,1.399 -1.134,2.534 -2.534,2.534 H 24.161 L -6.335,-5.156 Z" /></g><g
           transform="translate(1.2527,1.2526)"
           id="g36"><path
             id="path38"
             style="fill:#2b2b2b;fill-opacity:1;fill-rule:nonzero;stroke:none"
             d="m 0,0 v 0 c -1.67,1.67 -1.67,4.377 0,6.048 l 76.53,76.53 c 1.67,1.67 4.378,1.67 6.048,0 1.67,-1.671 1.67,-4.378 0,-6.048 L 6.047,0 C 4.377,-1.67 1.67,-1.67 0,0" /></g></g></g></g></svg>