<?xml version="1.0" encoding="UTF-8" standalone="no"?>
<svg
   xmlns:dc="http://purl.org/dc/elements/1.1/"
   xmlns:cc="http://creativecommons.org/ns#"
   xmlns:rdf="http://www.w3.org/1999/02/22-rdf-syntax-ns#"
   xmlns:svg="http://www.w3.org/2000/svg"
   xmlns="http://www.w3.org/2000/svg"
   viewBox="0 0 114.88293 114.88747"
   height="114.88747"
   width="114.88293"
   xml:space="preserve"
   id="svg2"
   version="1.1"><metadata
     id="metadata8"><rdf:RDF><cc:Work
         rdf:about=""><dc:format>image/svg+xml</dc:format><dc:type
           rdf:resource="http://purl.org/dc/dcmitype/StillImage" /></cc:Work></rdf:RDF></metadata><defs
     id="defs6"><clipPath
       id="clipPath18"
       clipPathUnits="userSpaceOnUse"><path
         id="path16"
         d="M 0,86.166 H 86.162 V 0 H 0 Z" /></clipPath></defs><g
     transform="matrix(1.3333333,0,0,-1.3333333,0,114.88747)"
     id="g10"><g
       id="g12"><g
         clip-path="url(#clipPath18)"
         id="g14"><g
           transform="translate(53.4629,58.8238)"
           id="g20"><path
             id="path22"
             style="fill:#2b2b2b;fill-opacity:1;fill-rule:evenodd;stroke:none"
             d="M 0,0 2.244,2.244 4.488,0 2.244,-2.244 Z m 8.976,-4.488 -2.245,-2.243 -2.243,2.243 2.243,2.244 z m 3.365,-1.121 c 0.62,0.619 0.62,1.624 0,2.243 L 3.366,5.61 c -0.62,0.619 -1.624,0.619 -2.244,0 l -8.976,-8.976 11.22,-11.219 z" /></g><g
           transform="translate(68.3296,77.9869)"
           id="g24"><path
             id="path26"
             style="fill:#2b2b2b;fill-opacity:1;fill-rule:evenodd;stroke:none"
             d="m 0,0 c -19.277,13.945 -46.209,9.623 -60.154,-9.654 -5.313,-7.345 -8.174,-16.179 -8.176,-25.243 0,-1.487 1.206,-2.693 2.693,-2.693 1.487,0 2.692,1.206 2.692,2.693 0.003,20.818 16.882,37.692 37.699,37.69 20.818,-0.003 37.693,-16.881 37.69,-37.699 -0.002,-20.819 -16.88,-37.693 -37.698,-37.691 -7.931,10e-4 -15.659,2.503 -22.085,7.151 -0.899,0.651 -1.163,2.186 -0.011,3.339 l 6.3,6.299 0.386,-0.385 c 0.616,-0.616 1.614,-0.616 2.23,0 2.2,2.199 4.999,3.698 8.051,4.308 l 4.656,0.931 c 1.229,0.246 2.359,0.85 3.245,1.737 l 10.981,10.981 c 0.62,0.62 0.62,1.625 0,2.244 l -13.463,13.463 c -0.619,0.62 -1.624,0.62 -2.244,0 L -38.189,-33.51 c -0.887,-0.886 -1.491,-2.015 -1.737,-3.245 l -0.931,-4.656 c -0.61,-3.051 -2.109,-5.852 -4.308,-8.05 -0.617,-0.618 -0.617,-1.614 0,-2.231 l 0.311,-0.311 -6.298,-6.297 c -3.123,-3.124 -3.338,-8.617 0.652,-11.508 19.277,-13.945 46.209,-9.623 60.154,9.654 C 23.599,-40.877 19.277,-13.945 0,0" /></g></g></g></g></svg>