<svg xmlns="http://www.w3.org/2000/svg" viewBox="0 0 453.54 198.43"><defs><style>.cls-1,.cls-10,.cls-3,.cls-4{fill:none;}.cls-1,.cls-3,.cls-4{stroke:#2b2b2b;stroke-linejoin:round;}.cls-1{stroke-dasharray:5 2;}.cls-2,.cls-5{fill:#2b2b2b;}.cls-4{stroke-linecap:round;stroke-width:0.5px;}.cls-5{font-size:16.79px;font-family:MyriadPro-Regular, Myriad Pro;}.cls-6{letter-spacing:0.01em;}.cls-7{letter-spacing:-0.01em;}.cls-8{letter-spacing:-0.02em;}.cls-9{letter-spacing:-0.01em;}</style></defs><g id="Layer_2" data-name="Layer 2"><g id="Layer_3" data-name="Layer 3"><line class="cls-1" x1="336.18" y1="144.98" x2="296.37" y2="171.55"/><path class="cls-2" d="M302.32,172.61a.91.91,0,0,1-.73.5l-6.15.47a1,1,0,0,1-.87-1.28l2.67-5.56a.89.89,0,0,1,.73-.5.92.92,0,0,1,.81.39l.93,1.37a.91.91,0,0,1,.16.45l.06,1.12,1,.47a.86.86,0,0,1,.37.31l.94,1.37A.89.89,0,0,1,302.32,172.61Zm-.91-.32Z"/><polyline class="cls-3" points="164.62 77.09 182.56 66.73 211.85 83.1 233.88 71.01"/><path class="cls-2" d="M228.62,69.47a.88.88,0,0,1,.77-.44h6.16a.94.94,0,0,1,.77,1.34l-3.08,5.34a.9.9,0,0,1-1.55,0l-.82-1.43a.76.76,0,0,1-.12-.46V72.68l-1-.54a1,1,0,0,1-.34-.34l-.83-1.43A.93.93,0,0,1,228.62,69.47Zm.88.39Z"/><line class="cls-4" x1="338.23" y1="126.07" x2="332.06" y2="129.6"/><line class="cls-4" x1="332.06" y1="132.64" x2="332.06" y2="129.6"/><line class="cls-4" x1="339.12" y1="128.62" x2="332.06" y2="132.64"/><path class="cls-4" d="M330.53,129.61a1.78,1.78,0,0,0,1.59,0"/><line class="cls-4" x1="330.49" y1="132.64" x2="330.49" y2="129.6"/><path class="cls-4" d="M330.53,132.65a1.78,1.78,0,0,0,1.59,0"/><line class="cls-4" x1="330.49" y1="129.6" x2="330" y2="129.4"/><line class="cls-4" x1="305.2" y1="115.09" x2="297.65" y2="110.68"/><line class="cls-4" x1="282.66" y1="102.06" x2="262.07" y2="90.19"/><line class="cls-4" x1="257.56" y1="87.65" x2="251.98" y2="84.51"/><line class="cls-4" x1="251.98" y1="87.45" x2="251.98" y2="84.51"/><line class="cls-4" x1="330.49" y1="132.64" x2="251.98" y2="87.45"/><path class="cls-4" d="M252.11,83.52c-.44.25-.44.65,0,.9"/><path class="cls-4" d="M251.78,87a.55.55,0,0,0,.33.45"/><line class="cls-4" x1="251.98" y1="83.53" x2="258.05" y2="80"/><line class="cls-4" x1="307.65" y1="106.56" x2="309.51" y2="105.58"/><path class="cls-4" d="M309.59,105.55c.18-.11.26-.26.2-.41a.65.65,0,0,0-.49-.32"/><line class="cls-4" x1="306.67" y1="106.56" x2="306.67" y2="106.27"/><path class="cls-4" d="M306.5,106.34a.68.68,0,0,0,.52.31,1.12,1.12,0,0,0,.71-.12"/><line class="cls-4" x1="275.6" y1="93.04" x2="276.97" y2="92.35"/><path class="cls-4" d="M277,92.29c.27-.15.35-.39.2-.59"/><path class="cls-4" d="M274.7,93.09a1.46,1.46,0,0,0,1-.11"/><path class="cls-4" d="M286.9,102.22h0"/><line class="cls-4" x1="301.28" y1="110.29" x2="302.26" y2="109.7"/><path class="cls-4" d="M302.34,109.67a.34.34,0,0,0,.19-.43"/><line class="cls-4" x1="300.3" y1="109.7" x2="300.3" y2="109.7"/><line class="cls-4" x1="300.3" y1="110.29" x2="300.3" y2="109.7"/><path class="cls-4" d="M300.32,109.63a.34.34,0,0,0,0,.63,1.12,1.12,0,0,0,1,0"/><line class="cls-4" x1="251.68" y1="84.02" x2="251.68" y2="87.06"/><polyline class="cls-4" points="312.85 106.76 305.2 111.17 305.2 116.86 313.43 121.66"/><line class="cls-4" x1="313.43" y1="115.88" x2="305.2" y2="111.17"/><polyline class="cls-4" points="308.53 116.27 306.96 115.39 306.28 115.78"/><polyline class="cls-4" points="306.28 115.78 305.99 115.97 308.53 117.44"/><polyline class="cls-4" points="306.96 115.39 308.04 114.7 308.53 114.99"/><polyline class="cls-4" points="312.75 118.72 311.08 117.74 312.26 117.15 312.75 117.35"/><line class="cls-4" x1="308.04" y1="114.11" x2="308.04" y2="114.7"/><polyline class="cls-4" points="308.34 114.31 308.34 114.6 308.53 114.7"/><line class="cls-4" x1="306.96" y1="113.52" x2="308.53" y2="114.41"/><line class="cls-4" x1="311.08" y1="115.88" x2="312.75" y2="116.86"/><line class="cls-4" x1="306.96" y1="115.39" x2="306.96" y2="113.52"/><polyline class="cls-4" points="305.99 115.97 305.99 112.94 306.96 113.52"/><polyline class="cls-4" points="305.99 112.94 308.53 114.41 308.53 117.44"/><line class="cls-4" x1="311.08" y1="117.74" x2="311.08" y2="115.88"/><line class="cls-4" x1="312.26" y1="116.56" x2="312.26" y2="117.15"/><polyline class="cls-4" points="312.45 116.66 312.45 116.95 312.75 117.15"/><polyline class="cls-4" points="311.08 115.88 310.1 115.29 312.75 116.86 312.75 119.8"/><line class="cls-4" x1="310.1" y1="118.33" x2="310.1" y2="115.29"/><line class="cls-4" x1="311.08" y1="117.74" x2="310.1" y2="118.33"/><line class="cls-4" x1="310.1" y1="118.33" x2="312.75" y2="119.8"/><line class="cls-4" x1="308.34" y1="114.6" x2="308.53" y2="114.5"/><line class="cls-4" x1="313.43" y1="121.66" x2="321.57" y2="126.36"/><line class="cls-4" x1="321.57" y1="120.58" x2="313.43" y2="115.88"/><polyline class="cls-4" points="316.77 121.07 315.1 120.09 314.41 120.48"/><polyline class="cls-4" points="314.41 120.48 314.12 120.68 316.77 122.15"/><polyline class="cls-4" points="315.1 120.09 316.28 119.41 316.77 119.7"/><polyline class="cls-4" points="320.88 123.42 319.31 122.44 320.39 121.86 320.88 122.15"/><line class="cls-4" x1="316.28" y1="118.82" x2="316.28" y2="119.4"/><polyline class="cls-4" points="316.57 119.01 316.57 119.31 316.77 119.41"/><line class="cls-4" x1="315.1" y1="118.23" x2="316.77" y2="119.11"/><line class="cls-4" x1="319.32" y1="120.58" x2="320.88" y2="121.56"/><line class="cls-4" x1="315.1" y1="120.09" x2="315.1" y2="118.23"/><polyline class="cls-4" points="314.12 120.68 314.12 117.64 315.1 118.23"/><polyline class="cls-4" points="314.12 117.64 316.77 119.11 316.77 122.15"/><line class="cls-4" x1="319.32" y1="122.44" x2="319.32" y2="120.58"/><line class="cls-4" x1="320.39" y1="121.27" x2="320.39" y2="121.85"/><polyline class="cls-4" points="320.59 121.36 320.59 121.66 320.88 121.86"/><polyline class="cls-4" points="319.31 120.58 318.33 119.99 320.88 121.56 320.88 124.6"/><line class="cls-4" x1="318.34" y1="123.03" x2="318.34" y2="119.99"/><line class="cls-4" x1="319.32" y1="122.44" x2="318.34" y2="123.03"/><line class="cls-4" x1="318.34" y1="123.03" x2="320.88" y2="124.6"/><line class="cls-4" x1="316.57" y1="119.31" x2="316.77" y2="119.21"/><line class="cls-4" x1="320.59" y1="121.66" x2="320.88" y2="121.56"/><polyline class="cls-4" points="321.57 126.36 329.8 131.07 330 130.97"/><polyline class="cls-4" points="335.88 121.76 329.8 125.29 321.57 120.58"/><polyline class="cls-4" points="324.9 125.78 323.33 124.8 322.35 125.38"/><line class="cls-4" x1="322.35" y1="125.38" x2="324.9" y2="126.85"/><polyline class="cls-4" points="323.33 124.8 324.41 124.11 324.9 124.4"/><polyline class="cls-4" points="329.12 128.13 327.45 127.25 328.63 126.56 329.12 126.85"/><line class="cls-4" x1="324.41" y1="123.62" x2="324.41" y2="124.11"/><polyline class="cls-4" points="324.71 123.72 324.71 124.01 324.9 124.11"/><line class="cls-4" x1="323.33" y1="122.93" x2="324.9" y2="123.82"/><line class="cls-4" x1="327.45" y1="125.29" x2="329.12" y2="126.27"/><line class="cls-4" x1="323.33" y1="124.8" x2="323.33" y2="122.93"/><polyline class="cls-4" points="322.35 125.38 322.35 122.34 323.33 122.93"/><polyline class="cls-4" points="322.35 122.34 324.9 123.81 324.9 126.85"/><line class="cls-4" x1="327.45" y1="127.25" x2="327.45" y2="125.29"/><line class="cls-4" x1="328.63" y1="125.97" x2="328.63" y2="126.56"/><polyline class="cls-4" points="328.82 126.07 328.82 126.36 329.12 126.56"/><polyline class="cls-4" points="327.45 125.29 326.47 124.7 329.12 126.27 329.12 129.3"/><line class="cls-4" x1="326.47" y1="127.74" x2="326.47" y2="124.7"/><line class="cls-4" x1="327.45" y1="127.25" x2="326.47" y2="127.74"/><line class="cls-4" x1="326.47" y1="127.74" x2="329.12" y2="129.3"/><line class="cls-4" x1="324.71" y1="124.01" x2="324.9" y2="123.91"/><line class="cls-4" x1="328.82" y1="126.36" x2="329.12" y2="126.27"/><line class="cls-4" x1="329.8" y1="125.29" x2="329.8" y2="131.07"/><line class="cls-4" x1="103.28" y1="71.18" x2="114.95" y2="77.84"/><path class="cls-4" d="M103.33,71.13c-1.36-.78-2.46-.15-2.46,1.42"/><line class="cls-4" x1="100.83" y1="72.65" x2="103.28" y2="71.18"/><path class="cls-4" d="M117.45,82.06A5.44,5.44,0,0,0,115,77.79"/><line class="cls-4" x1="103.48" y1="71.28" x2="103.48" y2="72.65"/><path class="cls-4" d="M103.52,72.65A5.42,5.42,0,0,0,106,76.91"/><line class="cls-4" x1="105.93" y1="76.86" x2="117.4" y2="83.53"/><polyline class="cls-4" points="124.16 85.1 124.16 87.45 148.17 101.37"/><line class="cls-4" x1="80.64" y1="59.32" x2="85.74" y2="62.26"/><line class="cls-4" x1="79.76" y1="56.18" x2="79.76" y2="57.85"/><path class="cls-4" d="M79.9,57.83a1.79,1.79,0,0,0,.8,1.38"/><line class="cls-4" x1="81.82" y1="60" x2="84.17" y2="58.63"/><line class="cls-4" x1="83.78" y1="61.08" x2="85.64" y2="60.1"/><path class="cls-4" d="M84.91,64.7c.44.25.79,0,.78-.46"/><line class="cls-4" x1="85.74" y1="64.32" x2="84.85" y2="64.71"/><line class="cls-4" x1="85.74" y1="60.5" x2="85.74" y2="64.32"/><path class="cls-4" d="M77.25,59.3a1.84,1.84,0,0,0,.8,1.38"/><line class="cls-4" x1="77.99" y1="60.79" x2="80.64" y2="59.32"/><line class="cls-4" x1="79.76" y1="57.85" x2="77.21" y2="59.42"/><line class="cls-4" x1="84.85" y1="64.71" x2="77.99" y2="60.79"/><path class="cls-4" d="M85.69,60.42a1.77,1.77,0,0,0-.8-1.38"/><line class="cls-4" x1="77.99" y1="55.1" x2="84.85" y2="59.12"/><path class="cls-4" d="M78,55.12c-.43-.26-.78-.06-.78.45"/><line class="cls-4" x1="77.21" y1="55.59" x2="77.99" y2="55.1"/><line class="cls-4" x1="77.21" y1="59.42" x2="77.21" y2="55.59"/><polyline class="cls-4" points="171.9 87.74 171.9 84.71 170.23 83.73"/><path class="cls-4" d="M169.71,88.93a4.66,4.66,0,0,0,.66,2.22A4.82,4.82,0,0,0,172,92.84"/><line class="cls-4" x1="171.89" y1="99.7" x2="171.89" y2="92.94"/><path class="cls-4" d="M171.72,100.14a.55.55,0,0,0,.23-.51"/><polyline class="cls-4" points="88.87 37.07 88.87 36.87 87.21 35.89"/><line class="cls-4" x1="88.87" y1="36.87" x2="86.03" y2="35.5"/><line class="cls-4" x1="83.78" y1="34.23" x2="87.21" y2="35.89"/><line class="cls-4" x1="117.4" y1="82.16" x2="117.4" y2="83.73"/><line class="cls-4" x1="103.67" y1="71.47" x2="103.48" y2="71.57"/><line class="cls-4" x1="100.83" y1="74.22" x2="103.48" y2="72.65"/><path class="cls-4" d="M100.87,74.12a5.42,5.42,0,0,0,2.46,4.26"/><line class="cls-4" x1="103.28" y1="78.43" x2="105.93" y2="76.86"/><line class="cls-4" x1="114.95" y1="85.1" x2="103.28" y2="78.43"/><line class="cls-4" x1="114.95" y1="85.1" x2="117.4" y2="83.73"/><path class="cls-4" d="M115,85.05c1.35.78,2.45.14,2.45-1.43"/><line class="cls-4" x1="100.83" y1="74.22" x2="100.83" y2="72.65"/><path class="cls-4" d="M69.88,45.27c-3.14-1.94-6.09-1.79-7.68.42s-1.58,6.1,0,10.16,4.57,7.64,7.71,9.33"/><line class="cls-4" x1="147.98" y1="110.19" x2="69.86" y2="65.2"/><path class="cls-4" d="M148.05,110.22c3.11,1.93,6,1.79,7.63-.35s1.66-6,.12-10a18.92,18.92,0,0,0-7.51-9.42"/><line class="cls-4" x1="69.86" y1="45.3" x2="148.27" y2="90.49"/><polyline class="cls-4" points="124.16 87.45 121.51 89.02 121.51 83.63 148.17 99.02 148.17 104.41 121.51 89.02"/><line class="cls-4" x1="158.76" y1="95.29" x2="171.89" y2="87.74"/><line class="cls-4" x1="171.89" y1="92.94" x2="160.52" y2="99.51"/><path class="cls-4" d="M137,64.42c-.14,0-.29,0-.43,0"/><polyline class="cls-4" points="136.9 64.51 137.1 64.61 137.29 64.71 137.49 64.81 137.69 64.91 137.78 65 137.98 65.2 138.08 65.4 138.27 65.49"/><line class="cls-4" x1="119.36" y1="54.61" x2="119.36" y2="54.03"/><path class="cls-4" d="M119.41,54l-.09.12"/><line class="cls-4" x1="119.26" y1="54.12" x2="119.16" y2="54.52"/><path class="cls-4" d="M119.44,54a3.37,3.37,0,0,0-.79.18"/><line class="cls-4" x1="136.71" y1="64.61" x2="136.9" y2="64.51"/><line class="cls-4" x1="118.87" y1="54.32" x2="119.26" y2="54.12"/><path class="cls-4" d="M90.33,43.63a1,1,0,0,0,0,1.87,3.6,3.6,0,0,0,3.26,0,1,1,0,0,0,0-1.87"/><path class="cls-4" d="M93.24,43.45a2.88,2.88,0,0,0-2.56,0c-.71.4-.71,1,0,1.45a2.88,2.88,0,0,0,2.56,0c.71-.4.71-1,0-1.45"/><path class="cls-4" d="M147.28,78a3.66,3.66,0,0,0,3.26,0,1,1,0,0,0,0-1.87,3.6,3.6,0,0,0-3.26,0,1,1,0,0,0,0,1.87"/><path class="cls-4" d="M146.93,76.26a1.21,1.21,0,0,0,0,2.29,4.34,4.34,0,0,0,3.94,0,1.21,1.21,0,0,0,0-2.29"/><line class="cls-4" x1="166.9" y1="82.16" x2="154.35" y2="89.31"/><line class="cls-4" x1="166.9" y1="82.16" x2="83.78" y2="34.23"/><line class="cls-4" x1="71.82" y1="41.09" x2="83.78" y2="34.23"/><line class="cls-4" x1="113.97" y1="57.16" x2="127.1" y2="64.71"/><path class="cls-4" d="M122.24,67.45a5.4,5.4,0,0,0,4.92,0c1.36-.78,1.36-2,0-2.84"/><line class="cls-4" x1="122.2" y1="67.55" x2="109.06" y2="60"/><path class="cls-4" d="M114,57.06a5.46,5.46,0,0,0-4.92,0c-1.36.79-1.36,2.06,0,2.85"/><path class="cls-4" d="M72.61,41.45c-2.91-1.78-5.74-2.11-7.81-.92"/><line class="cls-4" x1="150.92" y1="86.76" x2="72.5" y2="41.58"/><path class="cls-4" d="M158.43,111.82c3-1.75,4-6.49,2.33-12S155.27,89.1,151,86.64"/><line class="cls-4" x1="171.89" y1="84.71" x2="168.56" y2="83.04"/><line class="cls-4" x1="155.53" y1="90.59" x2="168.56" y2="83.04"/><line class="cls-4" x1="167.39" y1="82.35" x2="170.23" y2="83.73"/><line class="cls-4" x1="171.89" y1="99.7" x2="161.5" y2="105.68"/><line class="cls-4" x1="86.03" y1="35.5" x2="167.39" y2="82.35"/><path class="cls-4" d="M83.92,34.2c-.48-.23-.51-.21-.07,0"/><path class="cls-4" d="M167,82.08c.44.26,1.18.65,1.65.89"/><line class="cls-4" x1="113.67" y1="57.75" x2="113.97" y2="57.16"/><path class="cls-4" d="M113.68,57.66a4.71,4.71,0,0,0-4.19,0c-1.18.65-1.22,1.72-.11,2.41"/><line class="cls-4" x1="126.81" y1="65.3" x2="127.1" y2="64.71"/><line class="cls-4" x1="113.67" y1="57.75" x2="126.81" y2="65.3"/><path class="cls-4" d="M127,67.54c1-.68,1-1.69-.16-2.33"/><path class="cls-4" d="M150.22,111.47c3.79,2.19,7.3,1.88,9.21-.81s1.92-7.36,0-12.24S154.09,89.2,150.3,87"/><line class="cls-4" x1="150.23" y1="87.06" x2="148.27" y2="90.49"/><polyline class="cls-4" points="69.86 65.2 71.82 66.38 148.96 110.78"/><path class="cls-4" d="M71.93,41.84c-2.87-1.74-5.65-2.1-7.71-1S61,44.49,61,47.8"/><path class="cls-4" d="M71.51,66.09l.37.21"/><polyline class="cls-4" points="69.86 45.3 71.82 41.87 150.23 87.06"/><line class="cls-4" x1="150.92" y1="86.76" x2="150.23" y2="87.06"/><line class="cls-4" x1="72.5" y1="41.58" x2="71.82" y2="41.87"/><line class="cls-4" x1="93.28" y1="43.44" x2="93.58" y2="43.64"/><line class="cls-4" x1="90.64" y1="43.44" x2="90.34" y2="43.64"/><line class="cls-4" x1="150.53" y1="76.08" x2="150.82" y2="76.28"/><line class="cls-4" x1="147.19" y1="76.08" x2="146.9" y2="76.28"/><line class="cls-4" x1="161.41" y1="106.07" x2="171.7" y2="100.19"/><line class="cls-4" x1="71.43" y1="40.99" x2="83.38" y2="34.03"/><line class="cls-4" x1="148.27" y1="110.39" x2="150.23" y2="111.46"/><line class="cls-4" x1="60.94" y1="50.11" x2="60.94" y2="47.85"/><line class="cls-4" x1="69.46" y1="65" x2="71.43" y2="66.18"/><line class="cls-4" x1="158.37" y1="111.86" x2="157.68" y2="112.25"/><line class="cls-4" x1="64.66" y1="40.6" x2="64.07" y2="40.99"/><path class="cls-4" d="M281.15,94.14a2.07,2.07,0,0,0,0-.86"/><line class="cls-4" x1="281.09" y1="94.21" x2="281.97" y2="94.7"/><line class="cls-4" x1="281.97" y1="93.82" x2="281.09" y2="93.33"/><line class="cls-4" x1="281.58" y1="94.02" x2="281.58" y2="94.02"/><path class="cls-4" d="M281.66,94h0"/><line class="cls-4" x1="281.58" y1="94.02" x2="281.58" y2="94.02"/><path class="cls-4" d="M281.67,93.94h0"/><path class="cls-4" d="M281.68,94h0"/><polyline class="cls-4" points="281.68 94.12 281.68 94.12 281.58 94.02 281.68 94.02"/><polyline class="cls-4" points="281.58 94.02 281.58 94.02 281.68 94.02 281.68 94.12"/><line class="cls-4" x1="281.58" y1="94.02" x2="281.58" y2="94.12"/><line class="cls-4" x1="281.68" y1="94.12" x2="281.68" y2="94.12"/><path class="cls-4" d="M281.75,94.11h0"/><line class="cls-4" x1="281.48" y1="94.02" x2="281.48" y2="94.02"/><line class="cls-4" x1="281.58" y1="94.02" x2="281.58" y2="94.02"/><line class="cls-4" x1="281.48" y1="94.02" x2="281.48" y2="94.02"/><line class="cls-4" x1="281.48" y1="93.92" x2="281.48" y2="93.92"/><line class="cls-4" x1="281.38" y1="93.92" x2="281.38" y2="93.92"/><line class="cls-4" x1="281.38" y1="94.02" x2="281.38" y2="94.02"/><line class="cls-4" x1="281.48" y1="94.02" x2="281.48" y2="94.02"/><line class="cls-4" x1="281.38" y1="94.02" x2="281.38" y2="94.02"/><polyline class="cls-4" points="281.48 93.92 281.48 93.92 281.38 93.92"/><path class="cls-4" d="M281.51,93.84h0"/><line class="cls-4" x1="281.48" y1="94.02" x2="281.48" y2="94.02"/><polyline class="cls-4" points="281.77 94.21 281.77 94.12 281.68 94.12"/><line class="cls-4" x1="281.68" y1="94.21" x2="281.68" y2="94.21"/><line class="cls-4" x1="281.68" y1="94.12" x2="281.68" y2="94.12"/><line class="cls-4" x1="281.58" y1="94.12" x2="281.58" y2="94.12"/><path class="cls-4" d="M281.68,94.13h0"/><polyline class="cls-4" points="281.58 94.12 281.58 94.12 281.68 94.12 281.58 94.12"/><path class="cls-4" d="M281.68,94.06h0"/><path class="cls-4" d="M281.71,94.11h0"/><line class="cls-4" x1="281.58" y1="94.12" x2="281.58" y2="94.12"/><polyline class="cls-4" points="281.68 94.02 281.68 94.02 281.68 94.12"/><path class="cls-4" d="M281.75,94h0"/><line class="cls-4" x1="281.97" y1="94.7" x2="281.97" y2="94.7"/><polyline class="cls-4" points="282.26 94.9 282.26 94.9 281.97 94.7"/><line class="cls-4" x1="281.97" y1="94.7" x2="281.97" y2="94.7"/><path class="cls-4" d="M282,93.8a2.07,2.07,0,0,0,0,.86"/><polyline class="cls-4" points="282.26 94.9 282.26 94.02 281.97 93.82"/><path class="cls-4" d="M282.77,93.33a2.24,2.24,0,0,0-.75.43"/><polyline class="cls-4" points="281.97 93.82 282.36 94.02 283.05 93.53 282.75 93.33"/><line class="cls-4" x1="282.75" y1="93.33" x2="282.75" y2="93.33"/><line class="cls-4" x1="282.75" y1="93.43" x2="282.75" y2="93.43"/><line class="cls-4" x1="283.15" y1="93.53" x2="283.05" y2="93.53"/><line class="cls-4" x1="282.75" y1="93.43" x2="282.75" y2="93.43"/><line class="cls-4" x1="281.97" y1="93.82" x2="281.97" y2="93.82"/><line class="cls-4" x1="282.36" y1="94.02" x2="282.26" y2="94.02"/><line class="cls-4" x1="281.97" y1="93.82" x2="281.97" y2="93.82"/><line class="cls-4" x1="282.75" y1="93.33" x2="281.87" y2="92.84"/><path class="cls-4" d="M281.17,93.23a2.08,2.08,0,0,0,.75-.43"/><line class="cls-4" x1="281.09" y1="93.33" x2="281.97" y2="93.82"/><path class="cls-4" d="M281.93,92.8h0"/><path class="cls-4" d="M281.17,93.23a2.08,2.08,0,0,0,.75-.43"/><polyline class="cls-4" points="281.87 92.84 281.48 92.64 280.79 93.14 281.09 93.23"/><path class="cls-4" d="M281.05,94.14a2.07,2.07,0,0,0,0-.86"/><polyline class="cls-4" points="281.09 93.33 280.7 93.14 280.7 94.02 281.09 94.21"/><line class="cls-4" x1="281.09" y1="94.21" x2="281.09" y2="94.21"/><path class="cls-4" d="M281.17,94.21h0"/><line class="cls-4" x1="281.09" y1="94.21" x2="281.09" y2="94.21"/><line class="cls-4" x1="281.09" y1="93.33" x2="281.09" y2="93.33"/><line class="cls-4" x1="280.7" y1="93.14" x2="280.79" y2="93.14"/><line class="cls-4" x1="281.09" y1="93.33" x2="281.09" y2="93.33"/><line class="cls-4" x1="280.7" y1="94.02" x2="280.7" y2="94.02"/><line class="cls-4" x1="280.7" y1="93.14" x2="280.7" y2="93.14"/><line class="cls-4" x1="281.09" y1="94.21" x2="281.09" y2="94.21"/><line class="cls-4" x1="280.7" y1="94.02" x2="280.7" y2="94.02"/><line class="cls-4" x1="281.09" y1="94.21" x2="281.09" y2="94.21"/><line class="cls-4" x1="280.7" y1="93.04" x2="280.79" y2="93.14"/><line class="cls-4" x1="281.87" y1="92.84" x2="281.87" y2="92.84"/><line class="cls-4" x1="281.48" y1="92.65" x2="281.58" y2="92.65"/><line class="cls-4" x1="281.87" y1="92.84" x2="281.87" y2="92.84"/><line class="cls-4" x1="281.48" y1="92.65" x2="281.48" y2="92.65"/><line class="cls-4" x1="281.09" y1="94.21" x2="281.09" y2="94.21"/><path class="cls-4" d="M281.14,94.17h0"/><line class="cls-4" x1="281.09" y1="93.33" x2="281.09" y2="93.33"/><line class="cls-4" x1="281.87" y1="92.84" x2="281.87" y2="92.84"/><line class="cls-4" x1="281.09" y1="94.21" x2="281.09" y2="94.21"/><line class="cls-4" x1="281.09" y1="93.33" x2="281.09" y2="93.33"/><line class="cls-4" x1="281.87" y1="92.84" x2="281.87" y2="92.84"/><path class="cls-4" d="M281.93,92.79h0"/><path class="cls-4" d="M281.14,93.24h0"/><line class="cls-4" x1="281.09" y1="93.33" x2="281.09" y2="93.33"/><path class="cls-4" d="M281.14,93.25h0"/><polyline class="cls-4" points="283.15 93.63 282.36 94.02 282.36 94.9 283.15 94.51 283.15 93.63"/><line class="cls-4" x1="283.15" y1="94.51" x2="283.15" y2="94.51"/><line class="cls-4" x1="283.15" y1="93.63" x2="283.15" y2="93.63"/><line class="cls-4" x1="283.15" y1="94.51" x2="283.15" y2="94.51"/><line class="cls-4" x1="283.15" y1="93.63" x2="283.05" y2="93.53"/><line class="cls-4" x1="282.36" y1="94.9" x2="282.36" y2="94.9"/><line class="cls-4" x1="282.36" y1="94.02" x2="282.36" y2="94.02"/><line class="cls-4" x1="282.26" y1="94.9" x2="282.36" y2="94.9"/><line class="cls-4" x1="282.36" y1="94.02" x2="282.26" y2="94.02"/><line class="cls-4" x1="281.97" y1="93.82" x2="281.97" y2="93.82"/><line class="cls-4" x1="281.58" y1="94.02" x2="281.58" y2="94.02"/><line class="cls-4" x1="281.58" y1="94.02" x2="281.58" y2="94.02"/><path class="cls-4" d="M281.68,94h0"/><line class="cls-4" x1="281.58" y1="94.02" x2="281.58" y2="94.02"/><path class="cls-4" d="M281.67,93.94h0"/><line class="cls-4" x1="281.58" y1="94.02" x2="281.58" y2="94.02"/><line class="cls-4" x1="281.58" y1="94.02" x2="281.58" y2="94.02"/><line class="cls-4" x1="281.58" y1="94.02" x2="281.58" y2="94.02"/><path class="cls-4" d="M281.66,94h0"/><line class="cls-4" x1="281.58" y1="94.02" x2="281.58" y2="94.02"/><path class="cls-4" d="M281.61,94v0"/><line class="cls-4" x1="281.58" y1="94.02" x2="281.58" y2="94.02"/><line class="cls-4" x1="281.68" y1="94.12" x2="281.68" y2="94.12"/><polyline class="cls-4" points="281.58 94.02 281.58 94.02 281.68 94.12"/><polyline class="cls-4" points="281.58 94.02 281.58 94.02 281.68 94.02 281.58 94.02"/><polyline class="cls-4" points="281.68 94.12 281.68 94.12 281.58 94.02 281.68 94.02 281.58 94.02"/><path class="cls-4" d="M281.74,94.06h0"/><path class="cls-4" d="M281.75,94h0"/><polyline class="cls-4" points="281.68 94.12 281.68 94.02 281.68 94.12 281.68 94.02"/><path class="cls-4" d="M281.66,94h0"/><path class="cls-4" d="M281.72,94h0"/><path class="cls-4" d="M281.7,94h0"/><path class="cls-4" d="M281.66,94s0,0,0,0"/><line class="cls-4" x1="281.68" y1="94.12" x2="281.68" y2="94.12"/><line class="cls-4" x1="281.68" y1="94.12" x2="281.68" y2="94.12"/><line class="cls-4" x1="281.68" y1="94.02" x2="281.68" y2="94.02"/><polyline class="cls-4" points="281.68 94.12 281.68 94.12 281.68 94.02"/><line class="cls-4" x1="281.68" y1="94.12" x2="281.68" y2="94.12"/><path class="cls-4" d="M281.66,94s0,0,0,0"/><polyline class="cls-4" points="281.68 94.12 281.68 94.12 281.68 94.02 281.68 94.12"/><line class="cls-4" x1="281.68" y1="94.02" x2="281.68" y2="94.02"/><line class="cls-4" x1="281.68" y1="94.12" x2="281.68" y2="94.12"/><line class="cls-4" x1="281.68" y1="94.12" x2="281.68" y2="94.12"/><line class="cls-4" x1="281.68" y1="94.12" x2="281.68" y2="94.12"/><polyline class="cls-4" points="281.58 94.12 281.58 94.12 281.58 94.02 281.58 94.12"/><polyline class="cls-4" points="281.58 94.12 281.58 94.12 281.58 94.02 281.58 94.12"/><path class="cls-4" d="M281.6,94.08h0"/><line class="cls-4" x1="281.58" y1="94.12" x2="281.58" y2="94.12"/><path class="cls-4" d="M281.61,94.05h0"/><path class="cls-4" d="M281.65,94.06h0"/><line class="cls-4" x1="281.58" y1="94.12" x2="281.58" y2="94.12"/><path class="cls-4" d="M281.64,94h0"/><line class="cls-4" x1="281.58" y1="94.12" x2="281.58" y2="94.12"/><path class="cls-4" d="M281.6,94.1h0"/><path class="cls-4" d="M281.62,94.07h0"/><line class="cls-4" x1="281.58" y1="94.12" x2="281.58" y2="94.12"/><line class="cls-4" x1="281.58" y1="94.12" x2="281.58" y2="94.12"/><line class="cls-4" x1="281.58" y1="94.12" x2="281.58" y2="94.12"/><line class="cls-4" x1="281.58" y1="94.12" x2="281.58" y2="94.12"/><line class="cls-4" x1="281.58" y1="94.12" x2="281.58" y2="94.12"/><line class="cls-4" x1="281.58" y1="94.12" x2="281.58" y2="94.12"/><path class="cls-4" d="M281.64,94h0"/><line class="cls-4" x1="281.58" y1="94.12" x2="281.58" y2="94.12"/><line class="cls-4" x1="281.58" y1="94.12" x2="281.58" y2="94.12"/><line class="cls-4" x1="281.58" y1="94.12" x2="281.58" y2="94.12"/><path class="cls-4" d="M281.62,94.07h0"/><line class="cls-4" x1="281.58" y1="94.12" x2="281.58" y2="94.12"/><path class="cls-4" d="M281.6,94.1h0"/><line class="cls-4" x1="281.58" y1="94.12" x2="281.58" y2="94.12"/><line class="cls-4" x1="281.58" y1="94.12" x2="281.58" y2="94.12"/><path class="cls-4" d="M281.66,94.05h0"/><path class="cls-4" d="M281.63,94.06h0"/><line class="cls-4" x1="281.68" y1="94.12" x2="281.68" y2="94.12"/><path class="cls-4" d="M281.71,94.11h0"/><line class="cls-4" x1="281.58" y1="94.12" x2="281.68" y2="94.12"/><path class="cls-4" d="M281.68,94.06h0"/><line class="cls-4" x1="281.58" y1="94.12" x2="281.58" y2="94.12"/><line class="cls-4" x1="281.58" y1="94.12" x2="281.58" y2="94.12"/><line class="cls-4" x1="281.58" y1="94.12" x2="281.58" y2="94.12"/><line class="cls-4" x1="281.58" y1="94.12" x2="281.58" y2="94.12"/><line class="cls-4" x1="281.58" y1="94.12" x2="281.58" y2="94.12"/><polyline class="cls-4" points="281.68 94.12 281.58 94.12 281.68 94.12"/><line class="cls-4" x1="281.58" y1="94.12" x2="281.58" y2="94.12"/><line class="cls-4" x1="281.58" y1="94.12" x2="281.58" y2="94.12"/><line class="cls-4" x1="281.58" y1="94.12" x2="281.58" y2="94.12"/><line class="cls-4" x1="281.58" y1="94.12" x2="281.58" y2="94.12"/><line class="cls-4" x1="281.58" y1="94.12" x2="281.58" y2="94.12"/><path class="cls-4" d="M281.58,94.07h0"/><line class="cls-4" x1="281.58" y1="94.12" x2="281.58" y2="94.12"/><path class="cls-4" d="M281.68,94.13h0"/><line class="cls-4" x1="281.68" y1="94.12" x2="281.68" y2="94.12"/><line class="cls-4" x1="281.68" y1="94.12" x2="281.68" y2="94.12"/><line class="cls-4" x1="281.68" y1="94.12" x2="281.68" y2="94.12"/><line class="cls-4" x1="281.68" y1="94.12" x2="281.68" y2="94.12"/><line class="cls-4" x1="281.68" y1="94.12" x2="281.68" y2="94.12"/><line class="cls-4" x1="281.68" y1="94.21" x2="281.68" y2="94.21"/><path class="cls-4" d="M281.74,94.15h0"/><path class="cls-4" d="M281.75,94.11h0"/><line class="cls-4" x1="281.68" y1="94.21" x2="281.68" y2="94.12"/><path class="cls-4" d="M281.75,94.11h0"/><path class="cls-4" d="M281.72,94.1h0"/><path class="cls-4" d="M281.7,94.09a0,0,0,0,0,0,0"/><path class="cls-4" d="M281.75,94.07h0"/><line class="cls-4" x1="281.68" y1="94.12" x2="281.68" y2="94.21"/><line class="cls-4" x1="281.68" y1="94.12" x2="281.68" y2="94.12"/><line class="cls-4" x1="281.68" y1="94.21" x2="281.68" y2="94.12"/><line class="cls-4" x1="281.68" y1="94.21" x2="281.68" y2="94.21"/><path class="cls-4" d="M281.75,94.07h0"/><polyline class="cls-4" points="281.77 94.12 281.77 94.12 281.77 94.21 281.77 94.12 281.68 94.12 281.68 94.21 281.77 94.21 281.68 94.21 281.68 94.12 281.77 94.12"/><line class="cls-4" x1="281.77" y1="94.21" x2="281.77" y2="94.21"/><line class="cls-4" x1="281.68" y1="94.12" x2="281.68" y2="94.12"/><line class="cls-4" x1="281.77" y1="94.21" x2="281.68" y2="94.21"/><line class="cls-4" x1="281.68" y1="94.12" x2="281.77" y2="94.12"/><line class="cls-4" x1="281.77" y1="94.12" x2="281.68" y2="94.21"/><line class="cls-4" x1="281.48" y1="94.02" x2="281.48" y2="94.02"/><path class="cls-4" d="M281.51,93.84h0"/><line class="cls-4" x1="281.38" y1="93.92" x2="281.48" y2="93.92"/><polyline class="cls-4" points="281.38 94.02 281.38 94.02 281.38 93.92"/><path class="cls-4" d="M281.41,94l0,0"/><line class="cls-4" x1="281.48" y1="94.02" x2="281.48" y2="94.02"/><line class="cls-4" x1="281.38" y1="94.02" x2="281.38" y2="94.02"/><polyline class="cls-4" points="281.48 94.02 281.48 94.02 281.48 93.92 281.38 93.92"/><line class="cls-4" x1="281.58" y1="94.02" x2="281.58" y2="94.02"/><polyline class="cls-4" points="281.48 94.02 281.38 94.02 281.48 94.02"/><line class="cls-4" x1="281.58" y1="94.02" x2="281.58" y2="94.02"/><line class="cls-4" x1="281.48" y1="94.02" x2="281.48" y2="94.02"/><line class="cls-4" x1="281.48" y1="93.92" x2="281.48" y2="93.92"/><line class="cls-4" x1="281.48" y1="93.92" x2="281.48" y2="93.92"/><line class="cls-4" x1="281.38" y1="93.92" x2="281.38" y2="93.92"/><line class="cls-4" x1="281.48" y1="94.02" x2="281.48" y2="94.02"/><line class="cls-4" x1="281.48" y1="94.02" x2="281.48" y2="94.02"/><line class="cls-4" x1="281.48" y1="94.02" x2="281.48" y2="94.02"/><line class="cls-4" x1="281.38" y1="93.92" x2="281.38" y2="93.92"/><line class="cls-4" x1="281.48" y1="93.92" x2="281.48" y2="93.92"/><line class="cls-4" x1="281.48" y1="94.02" x2="281.48" y2="94.02"/><line class="cls-4" x1="281.48" y1="94.02" x2="281.48" y2="94.02"/><line class="cls-4" x1="281.58" y1="94.02" x2="281.58" y2="94.02"/><line class="cls-4" x1="281.48" y1="94.02" x2="281.48" y2="94.02"/><line class="cls-4" x1="281.48" y1="94.02" x2="281.48" y2="94.02"/><line class="cls-4" x1="281.48" y1="94.02" x2="281.48" y2="94.02"/><line class="cls-4" x1="281.97" y1="94.8" x2="282.26" y2="94.9"/><line class="cls-4" x1="282.75" y1="93.33" x2="283.15" y2="93.53"/><polyline class="cls-4" points="281.09 94.21 280.7 94.02 280.7 93.14 280.7 93.04"/><line class="cls-4" x1="280.7" y1="94.02" x2="280.7" y2="94.02"/><line class="cls-4" x1="281.87" y1="92.84" x2="281.58" y2="92.65"/><polyline class="cls-4" points="280.7 93.04 281.48 92.64 281.58 92.64"/><polyline class="cls-4" points="282.26 94.9 282.36 94.9 283.15 94.51 283.15 93.63 283.15 93.53"/><line class="cls-4" x1="281.97" y1="94.7" x2="281.09" y2="94.21"/><line class="cls-4" x1="282.75" y1="93.33" x2="281.87" y2="92.84"/><line class="cls-4" x1="281.58" y1="94.02" x2="281.58" y2="94.02"/><line class="cls-4" x1="281.68" y1="94.12" x2="281.68" y2="94.12"/><polyline class="cls-4" points="281.68 94.12 281.68 94.12 281.58 94.12"/><line class="cls-4" x1="281.68" y1="94.21" x2="281.68" y2="94.21"/><line class="cls-4" x1="281.48" y1="93.92" x2="281.48" y2="93.92"/><line class="cls-4" x1="281.38" y1="93.92" x2="281.38" y2="93.92"/><line class="cls-4" x1="281.48" y1="94.02" x2="281.48" y2="94.02"/><line class="cls-4" x1="281.38" y1="94.02" x2="281.38" y2="94.02"/><line class="cls-4" x1="281.58" y1="94.02" x2="281.48" y2="94.02"/><path class="cls-4" d="M279,95.32a2.12,2.12,0,0,0,0-.87"/><line class="cls-4" x1="279.03" y1="95.39" x2="279.91" y2="95.88"/><line class="cls-4" x1="279.91" y1="95" x2="279.03" y2="94.51"/><polyline class="cls-4" points="279.52 95.19 279.52 95.19 279.52 95.29"/><path class="cls-4" d="M279.6,95.16h0"/><line class="cls-4" x1="279.52" y1="95.19" x2="279.52" y2="95.19"/><path class="cls-4" d="M279.62,95.21h0"/><path class="cls-4" d="M279.52,95.16h0"/><line class="cls-4" x1="279.52" y1="95.29" x2="279.52" y2="95.29"/><polyline class="cls-4" points="279.52 95.19 279.52 95.19 279.52 95.29"/><line class="cls-4" x1="279.62" y1="95.29" x2="279.62" y2="95.29"/><line class="cls-4" x1="279.52" y1="95.29" x2="279.52" y2="95.29"/><polyline class="cls-4" points="279.62 95.29 279.62 95.29 279.62 95.39"/><path class="cls-4" d="M279.69,95.38h0"/><polyline class="cls-4" points="279.42 95.19 279.42 95.19 279.42 95.29 279.42 95.19"/><polyline class="cls-4" points="279.32 95.1 279.32 95.19 279.32 95.1"/><line class="cls-4" x1="279.32" y1="95.19" x2="279.32" y2="95.19"/><line class="cls-4" x1="279.42" y1="95.19" x2="279.42" y2="95.19"/><line class="cls-4" x1="279.32" y1="95.19" x2="279.32" y2="95.19"/><line class="cls-4" x1="279.32" y1="95.1" x2="279.32" y2="95.1"/><path class="cls-4" d="M279.45,95s0,0,0,0"/><line class="cls-4" x1="279.42" y1="95.19" x2="279.42" y2="95.19"/><line class="cls-4" x1="279.62" y1="95.39" x2="279.62" y2="95.39"/><polyline class="cls-4" points="279.52 95.39 279.52 95.39 279.62 95.29 279.62 95.39"/><line class="cls-4" x1="279.52" y1="95.29" x2="279.52" y2="95.29"/><line class="cls-4" x1="279.52" y1="95.39" x2="279.52" y2="95.39"/><line class="cls-4" x1="279.52" y1="95.29" x2="279.52" y2="95.29"/><path class="cls-4" d="M279.63,95.31h0"/><line class="cls-4" x1="279.52" y1="95.29" x2="279.52" y2="95.29"/><path class="cls-4" d="M279.62,95.23h0"/><path class="cls-4" d="M279.65,95.29h0"/><line class="cls-4" x1="279.52" y1="95.29" x2="279.52" y2="95.29"/><polyline class="cls-4" points="279.62 95.29 279.62 95.29 279.52 95.19"/><path class="cls-4" d="M279.69,95.29s0,0,0,0"/><line class="cls-4" x1="279.91" y1="95.88" x2="279.91" y2="95.88"/><polyline class="cls-4" points="279.91 95.88 280.21 96.08 280.21 96.17"/><line class="cls-4" x1="279.91" y1="95.88" x2="279.91" y2="95.88"/><line class="cls-4" x1="279.91" y1="95.98" x2="279.91" y2="95.98"/><line class="cls-4" x1="279.91" y1="95.88" x2="279.91" y2="95.88"/><path class="cls-4" d="M280,95a2.12,2.12,0,0,0,0,.87"/><polyline class="cls-4" points="280.21 96.08 280.21 95.29 279.91 95.1"/><path class="cls-4" d="M280.71,94.51a2.17,2.17,0,0,0-.75.43"/><polyline class="cls-4" points="279.91 95 280.3 95.19 280.99 94.8 280.7 94.61"/><line class="cls-4" x1="280.7" y1="94.61" x2="280.7" y2="94.61"/><line class="cls-4" x1="280.99" y1="94.8" x2="280.99" y2="94.8"/><line class="cls-4" x1="280.7" y1="94.61" x2="280.7" y2="94.61"/><line class="cls-4" x1="279.91" y1="95" x2="279.91" y2="95"/><polyline class="cls-4" points="280.3 95.19 280.21 95.19 280.21 95.29"/><line class="cls-4" x1="279.91" y1="95" x2="279.91" y2="95"/><line class="cls-4" x1="280.7" y1="94.61" x2="279.81" y2="94.02"/><path class="cls-4" d="M279,94.41a2.15,2.15,0,0,0,.75-.43"/><line class="cls-4" x1="279.03" y1="94.51" x2="279.91" y2="95"/><path class="cls-4" d="M279.88,94.07h0"/><path class="cls-4" d="M279,94.41a2.15,2.15,0,0,0,.75-.43"/><polyline class="cls-4" points="279.81 94.02 279.42 93.82 278.64 94.31 279.03 94.51"/><path class="cls-4" d="M279,95.32a2.12,2.12,0,0,0,0-.87"/><polyline class="cls-4" points="279.03 94.51 278.64 94.31 278.64 95.19 279.03 95.39"/><line class="cls-4" x1="279.03" y1="95.39" x2="279.03" y2="95.39"/><path class="cls-4" d="M279,95.39h0"/><polyline class="cls-4" points="279.03 95.39 279.03 95.39 278.93 95.39"/><line class="cls-4" x1="279.03" y1="94.51" x2="279.03" y2="94.51"/><line class="cls-4" x1="278.64" y1="94.31" x2="278.64" y2="94.31"/><line class="cls-4" x1="278.93" y1="94.51" x2="279.03" y2="94.51"/><line class="cls-4" x1="278.64" y1="95.19" x2="278.64" y2="95.19"/><line class="cls-4" x1="278.64" y1="94.31" x2="278.64" y2="94.31"/><line class="cls-4" x1="279.03" y1="95.39" x2="279.03" y2="95.39"/><line class="cls-4" x1="278.64" y1="95.19" x2="278.64" y2="95.19"/><line class="cls-4" x1="279.03" y1="95.39" x2="279.03" y2="95.39"/><line class="cls-4" x1="278.64" y1="94.31" x2="278.64" y2="94.31"/><line class="cls-4" x1="279.81" y1="94.12" x2="279.81" y2="94.12"/><line class="cls-4" x1="279.42" y1="93.82" x2="279.42" y2="93.82"/><line class="cls-4" x1="279.81" y1="94.12" x2="279.81" y2="94.12"/><line class="cls-4" x1="279.81" y1="94.02" x2="279.81" y2="94.02"/><line class="cls-4" x1="279.81" y1="94.12" x2="279.81" y2="94.12"/><line class="cls-4" x1="279.81" y1="94.02" x2="279.81" y2="94.02"/><line class="cls-4" x1="279.42" y1="93.82" x2="279.42" y2="93.82"/><line class="cls-4" x1="279.03" y1="95.39" x2="279.03" y2="95.39"/><path class="cls-4" d="M279,95.35v0"/><line class="cls-4" x1="279.03" y1="94.51" x2="279.03" y2="94.51"/><line class="cls-4" x1="279.81" y1="94.02" x2="279.81" y2="94.02"/><line class="cls-4" x1="279.03" y1="95.39" x2="279.03" y2="95.39"/><line class="cls-4" x1="279.03" y1="94.51" x2="279.03" y2="94.51"/><line class="cls-4" x1="279.81" y1="94.02" x2="279.81" y2="94.02"/><path class="cls-4" d="M279.78,94h0"/><path class="cls-4" d="M279,94.42h0"/><line class="cls-4" x1="279.03" y1="94.51" x2="279.03" y2="94.51"/><path class="cls-4" d="M279,94.43h0"/><polyline class="cls-4" points="281.09 94.8 280.3 95.29 280.3 96.08 281.09 95.68 281.09 94.8"/><line class="cls-4" x1="281.09" y1="95.68" x2="281.09" y2="95.68"/><line class="cls-4" x1="281.09" y1="94.8" x2="281.09" y2="94.8"/><line class="cls-4" x1="280.99" y1="95.68" x2="281.09" y2="95.68"/><line class="cls-4" x1="281.09" y1="94.8" x2="280.99" y2="94.8"/><line class="cls-4" x1="280.3" y1="96.17" x2="280.3" y2="96.08"/><line class="cls-4" x1="280.3" y1="95.29" x2="280.3" y2="95.19"/><polyline class="cls-4" points="280.21 96.08 280.3 96.17 280.3 96.08"/><line class="cls-4" x1="280.3" y1="95.29" x2="280.21" y2="95.29"/><line class="cls-4" x1="279.91" y1="95" x2="279.91" y2="95"/><polyline class="cls-4" points="279.52 95.29 279.52 95.29 279.52 95.19 279.52 95.29"/><line class="cls-4" x1="279.52" y1="95.29" x2="279.52" y2="95.29"/><path class="cls-4" d="M279.52,95.16h0"/><line class="cls-4" x1="279.52" y1="95.19" x2="279.52" y2="95.19"/><path class="cls-4" d="M279.62,95.21h0"/><line class="cls-4" x1="279.52" y1="95.19" x2="279.52" y2="95.19"/><line class="cls-4" x1="279.52" y1="95.19" x2="279.52" y2="95.19"/><line class="cls-4" x1="279.52" y1="95.19" x2="279.52" y2="95.19"/><path class="cls-4" d="M279.6,95.16h0"/><line class="cls-4" x1="279.52" y1="95.19" x2="279.52" y2="95.19"/><path class="cls-4" d="M279.55,95.16a0,0,0,0,0,0,0"/><polyline class="cls-4" points="279.62 95.29 279.52 95.29 279.52 95.19 279.52 95.29"/><path class="cls-4" d="M279.59,95.23h0"/><path class="cls-4" d="M279.69,95.29s0,0,0,0"/><polyline class="cls-4" points="279.52 95.29 279.52 95.29 279.52 95.19 279.62 95.29 279.52 95.29"/><path class="cls-4" d="M279.6,95.19h0"/><path class="cls-4" d="M279.67,95.18s0,0,0,0"/><path class="cls-4" d="M279.65,95.17h0"/><path class="cls-4" d="M279.6,95.15h0"/><line class="cls-4" x1="279.52" y1="95.29" x2="279.62" y2="95.29"/><line class="cls-4" x1="279.62" y1="95.29" x2="279.62" y2="95.29"/><line class="cls-4" x1="279.52" y1="95.19" x2="279.52" y2="95.19"/><line class="cls-4" x1="279.62" y1="95.29" x2="279.52" y2="95.29"/><line class="cls-4" x1="279.62" y1="95.29" x2="279.62" y2="95.29"/><path class="cls-4" d="M279.6,95.15h0"/><line class="cls-4" x1="279.62" y1="95.29" x2="279.62" y2="95.29"/><line class="cls-4" x1="279.62" y1="95.29" x2="279.62" y2="95.29"/><line class="cls-4" x1="279.62" y1="95.29" x2="279.62" y2="95.29"/><line class="cls-4" x1="279.52" y1="95.29" x2="279.52" y2="95.29"/><path class="cls-4" d="M279.54,95.26s0,0,0,0"/><line class="cls-4" x1="279.52" y1="95.29" x2="279.52" y2="95.29"/><path class="cls-4" d="M279.55,95.23h0"/><path class="cls-4" d="M279.6,95.23h0"/><line class="cls-4" x1="279.52" y1="95.29" x2="279.52" y2="95.29"/><path class="cls-4" d="M279.59,95.22h0"/><line class="cls-4" x1="279.52" y1="95.29" x2="279.52" y2="95.29"/><path class="cls-4" d="M279.54,95.28h0"/><path class="cls-4" d="M279.56,95.25h0"/><line class="cls-4" x1="279.52" y1="95.29" x2="279.52" y2="95.29"/><line class="cls-4" x1="279.52" y1="95.29" x2="279.52" y2="95.29"/><line class="cls-4" x1="279.52" y1="95.29" x2="279.52" y2="95.29"/><line class="cls-4" x1="279.52" y1="95.29" x2="279.52" y2="95.29"/><line class="cls-4" x1="279.52" y1="95.29" x2="279.52" y2="95.29"/><line class="cls-4" x1="279.52" y1="95.29" x2="279.52" y2="95.29"/><path class="cls-4" d="M279.58,95.22h0"/><line class="cls-4" x1="279.52" y1="95.29" x2="279.52" y2="95.29"/><line class="cls-4" x1="279.52" y1="95.29" x2="279.52" y2="95.29"/><line class="cls-4" x1="279.52" y1="95.29" x2="279.52" y2="95.29"/><path class="cls-4" d="M279.56,95.25h0"/><line class="cls-4" x1="279.52" y1="95.29" x2="279.52" y2="95.29"/><path class="cls-4" d="M279.54,95.28h0"/><line class="cls-4" x1="279.52" y1="95.29" x2="279.52" y2="95.29"/><line class="cls-4" x1="279.52" y1="95.29" x2="279.52" y2="95.29"/><path class="cls-4" d="M279.6,95.32h0"/><path class="cls-4" d="M279.57,95.24h0"/><line class="cls-4" x1="279.52" y1="95.29" x2="279.52" y2="95.29"/><path class="cls-4" d="M279.65,95.29h0"/><line class="cls-4" x1="279.52" y1="95.29" x2="279.52" y2="95.29"/><path class="cls-4" d="M279.62,95.23h0"/><line class="cls-4" x1="279.52" y1="95.29" x2="279.52" y2="95.29"/><line class="cls-4" x1="279.52" y1="95.29" x2="279.52" y2="95.29"/><line class="cls-4" x1="279.52" y1="95.29" x2="279.52" y2="95.29"/><line class="cls-4" x1="279.52" y1="95.29" x2="279.52" y2="95.29"/><line class="cls-4" x1="279.52" y1="95.29" x2="279.52" y2="95.29"/><line class="cls-4" x1="279.52" y1="95.29" x2="279.52" y2="95.29"/><line class="cls-4" x1="279.52" y1="95.29" x2="279.52" y2="95.29"/><line class="cls-4" x1="279.52" y1="95.29" x2="279.52" y2="95.29"/><line class="cls-4" x1="279.52" y1="95.29" x2="279.52" y2="95.29"/><line class="cls-4" x1="279.52" y1="95.29" x2="279.52" y2="95.29"/><path class="cls-4" d="M279.52,95.25h0"/><line class="cls-4" x1="279.52" y1="95.29" x2="279.52" y2="95.29"/><path class="cls-4" d="M279.63,95.31h0"/><polyline class="cls-4" points="279.52 95.39 279.52 95.29 279.62 95.29"/><line class="cls-4" x1="279.52" y1="95.39" x2="279.52" y2="95.39"/><line class="cls-4" x1="279.52" y1="95.39" x2="279.52" y2="95.39"/><line class="cls-4" x1="279.52" y1="95.29" x2="279.52" y2="95.29"/><line class="cls-4" x1="279.52" y1="95.39" x2="279.52" y2="95.39"/><line class="cls-4" x1="279.52" y1="95.39" x2="279.52" y2="95.39"/><line class="cls-4" x1="279.62" y1="95.29" x2="279.52" y2="95.39"/><polyline class="cls-4" points="279.62 95.39 279.62 95.39 279.62 95.29 279.62 95.39 279.62 95.29 279.62 95.39 279.62 95.29"/><path class="cls-4" d="M279.68,95.33h0"/><path class="cls-4" d="M279.69,95.38h0"/><polyline class="cls-4" points="279.62 95.39 279.62 95.29 279.62 95.39 279.62 95.29"/><path class="cls-4" d="M279.6,95.29h0"/><path class="cls-4" d="M279.67,95.28s0,0,0,0"/><path class="cls-4" d="M279.65,95.27h0"/><path class="cls-4" d="M279.6,95.25h0"/><line class="cls-4" x1="279.62" y1="95.39" x2="279.62" y2="95.39"/><line class="cls-4" x1="279.62" y1="95.39" x2="279.62" y2="95.39"/><line class="cls-4" x1="279.62" y1="95.29" x2="279.62" y2="95.29"/><polyline class="cls-4" points="279.62 95.39 279.62 95.39 279.62 95.29"/><line class="cls-4" x1="279.62" y1="95.39" x2="279.62" y2="95.39"/><path class="cls-4" d="M279.6,95.25h0"/><line class="cls-4" x1="279.62" y1="95.39" x2="279.62" y2="95.39"/><line class="cls-4" x1="279.62" y1="95.39" x2="279.62" y2="95.39"/><line class="cls-4" x1="279.62" y1="95.39" x2="279.62" y2="95.39"/><line class="cls-4" x1="279.42" y1="95.19" x2="279.42" y2="95.19"/><path class="cls-4" d="M279.45,95s0,0,0,0"/><line class="cls-4" x1="279.32" y1="95.1" x2="279.32" y2="95.1"/><line class="cls-4" x1="279.32" y1="95.19" x2="279.32" y2="95.19"/><path class="cls-4" d="M279.36,95.14s0,0,0,0"/><polyline class="cls-4" points="279.42 95.29 279.42 95.29 279.42 95.19 279.32 95.19 279.32 95.1 279.32 95.19 279.32 95.1 279.42 95.19 279.42 95.29"/><polyline class="cls-4" points="279.42 95.19 279.42 95.19 279.42 95.29"/><line class="cls-4" x1="279.32" y1="95.19" x2="279.32" y2="95.19"/><line class="cls-4" x1="279.42" y1="95.19" x2="279.42" y2="95.19"/><line class="cls-4" x1="279.42" y1="95.19" x2="279.42" y2="95.19"/><line class="cls-4" x1="279.42" y1="95.1" x2="279.42" y2="95.1"/><line class="cls-4" x1="279.32" y1="95.1" x2="279.32" y2="95.1"/><line class="cls-4" x1="279.42" y1="95.19" x2="279.42" y2="95.19"/><line class="cls-4" x1="279.42" y1="95.19" x2="279.42" y2="95.19"/><line class="cls-4" x1="279.32" y1="95.19" x2="279.32" y2="95.19"/><line class="cls-4" x1="279.32" y1="95.19" x2="279.32" y2="95.19"/><line class="cls-4" x1="279.42" y1="95.29" x2="279.42" y2="95.29"/><line class="cls-4" x1="279.42" y1="95.19" x2="279.42" y2="95.19"/><line class="cls-4" x1="279.42" y1="95.29" x2="279.42" y2="95.29"/><line class="cls-4" x1="279.32" y1="95.19" x2="279.32" y2="95.19"/><line class="cls-4" x1="279.32" y1="95.19" x2="279.32" y2="95.19"/><line class="cls-4" x1="279.32" y1="95.19" x2="279.32" y2="95.19"/><line class="cls-4" x1="279.91" y1="95.98" x2="280.21" y2="96.17"/><line class="cls-4" x1="280.7" y1="94.61" x2="280.99" y2="94.8"/><polyline class="cls-4" points="279.03 95.39 278.64 95.19 278.64 94.31"/><line class="cls-4" x1="278.64" y1="95.19" x2="278.64" y2="95.19"/><polyline class="cls-4" points="279.81 94.02 279.42 93.82 278.64 94.31"/><line class="cls-4" x1="279.42" y1="93.82" x2="279.42" y2="93.82"/><polyline class="cls-4" points="280.21 96.17 280.3 96.17 280.99 95.68 281.09 95.68 281.09 94.8 280.99 94.8"/><line class="cls-4" x1="279.91" y1="95.88" x2="279.03" y2="95.39"/><line class="cls-4" x1="280.7" y1="94.61" x2="279.81" y2="94.02"/><line class="cls-4" x1="279.52" y1="95.19" x2="279.52" y2="95.19"/><line class="cls-4" x1="279.62" y1="95.29" x2="279.62" y2="95.29"/><line class="cls-4" x1="279.52" y1="95.29" x2="279.52" y2="95.29"/><line class="cls-4" x1="279.52" y1="95.39" x2="279.52" y2="95.39"/><line class="cls-4" x1="279.62" y1="95.39" x2="279.62" y2="95.39"/><line class="cls-4" x1="279.32" y1="95.1" x2="279.32" y2="95.1"/><line class="cls-4" x1="279.42" y1="95.19" x2="279.42" y2="95.19"/><line class="cls-4" x1="279.32" y1="95.19" x2="279.32" y2="95.19"/><line class="cls-4" x1="279.42" y1="95.19" x2="279.42" y2="95.19"/><line class="cls-4" x1="279.42" y1="95.29" x2="279.42" y2="95.29"/><line class="cls-4" x1="283.64" y1="92.74" x2="283.64" y2="92.74"/><line class="cls-4" x1="283.54" y1="92.74" x2="283.54" y2="92.74"/><line class="cls-4" x1="283.64" y1="92.74" x2="283.64" y2="92.74"/><line class="cls-4" x1="283.54" y1="92.74" x2="283.54" y2="92.74"/><line class="cls-4" x1="283.64" y1="92.74" x2="283.64" y2="92.74"/><polyline class="cls-4" points="283.24 92.64 283.24 92.55 283.54 92.74"/><line class="cls-4" x1="283.54" y1="92.74" x2="283.54" y2="92.74"/><path class="cls-4" d="M284.38,91.43v0"/><path class="cls-4" d="M283.62,91.76a2.08,2.08,0,0,0,.75-.43"/><polyline class="cls-4" points="284.32 91.37 284.03 91.17 283.24 91.67 283.64 91.86"/><path class="cls-4" d="M283.6,92.67a2.07,2.07,0,0,0,0-.86"/><polyline class="cls-4" points="283.54 91.86 283.24 91.67 283.24 92.55"/><line class="cls-4" x1="283.54" y1="91.86" x2="283.54" y2="91.86"/><line class="cls-4" x1="283.64" y1="91.86" x2="283.64" y2="91.86"/><line class="cls-4" x1="283.24" y1="91.67" x2="283.24" y2="91.67"/><line class="cls-4" x1="283.64" y1="91.86" x2="283.64" y2="91.86"/><line class="cls-4" x1="283.54" y1="91.86" x2="283.54" y2="91.86"/><line class="cls-4" x1="283.64" y1="91.86" x2="283.64" y2="91.86"/><line class="cls-4" x1="284.32" y1="91.37" x2="284.32" y2="91.37"/><line class="cls-4" x1="284.32" y1="91.47" x2="284.32" y2="91.47"/><line class="cls-4" x1="284.03" y1="91.18" x2="284.03" y2="91.18"/><line class="cls-4" x1="284.32" y1="91.47" x2="284.32" y2="91.47"/><line class="cls-4" x1="284.32" y1="91.37" x2="284.32" y2="91.37"/><line class="cls-4" x1="284.32" y1="91.47" x2="284.32" y2="91.47"/><line class="cls-4" x1="283.54" y1="92.74" x2="283.54" y2="92.74"/><path class="cls-4" d="M283.62,92.74h0"/><line class="cls-4" x1="283.54" y1="92.74" x2="283.54" y2="92.74"/><line class="cls-4" x1="284.52" y1="92.45" x2="283.54" y2="91.86"/><path class="cls-4" d="M283.6,92.67a2.07,2.07,0,0,0,0-.86"/><line class="cls-4" x1="283.54" y1="92.74" x2="284.42" y2="93.23"/><path class="cls-4" d="M283.62,91.76a2.08,2.08,0,0,0,.75-.43"/><line class="cls-4" x1="283.64" y1="91.86" x2="284.52" y2="92.35"/><line class="cls-4" x1="285.2" y1="91.96" x2="284.32" y2="91.47"/><path class="cls-4" d="M284.55,92.42a2.32,2.32,0,0,0,0,.87"/><polyline class="cls-4" points="284.42 93.33 284.81 93.53 284.81 92.64 284.42 92.45"/><path class="cls-4" d="M285.32,91.86a2.24,2.24,0,0,0-.75.43"/><polyline class="cls-4" points="284.52 92.35 284.81 92.55 285.6 92.16 285.2 91.96"/><line class="cls-4" x1="284.52" y1="93.33" x2="284.52" y2="93.33"/><line class="cls-4" x1="284.52" y1="93.23" x2="284.52" y2="93.23"/><polyline class="cls-4" points="285.6 92.16 284.91 92.64 284.91 93.53 285.6 93.04 285.6 92.16"/><line class="cls-4" x1="285.2" y1="91.96" x2="285.2" y2="91.96"/><line class="cls-4" x1="285.6" y1="92.16" x2="285.6" y2="92.16"/><line class="cls-4" x1="285.2" y1="91.96" x2="285.2" y2="91.96"/><line class="cls-4" x1="285.3" y1="91.96" x2="285.3" y2="91.96"/><line class="cls-4" x1="285.6" y1="93.04" x2="285.6" y2="93.04"/><line class="cls-4" x1="285.6" y1="92.16" x2="285.6" y2="92.16"/><line class="cls-4" x1="285.6" y1="93.04" x2="285.6" y2="93.04"/><line class="cls-4" x1="284.52" y1="92.45" x2="284.52" y2="92.45"/><line class="cls-4" x1="284.81" y1="92.55" x2="284.81" y2="92.65"/><line class="cls-4" x1="284.52" y1="92.45" x2="284.52" y2="92.45"/><line class="cls-4" x1="284.52" y1="92.35" x2="284.52" y2="92.35"/><line class="cls-4" x1="284.52" y1="92.45" x2="284.52" y2="92.45"/><line class="cls-4" x1="284.91" y1="92.65" x2="284.81" y2="92.55"/><line class="cls-4" x1="284.81" y1="93.53" x2="284.91" y2="93.53"/><line class="cls-4" x1="284.52" y1="93.23" x2="284.52" y2="93.23"/><line class="cls-4" x1="284.81" y1="93.53" x2="284.81" y2="93.53"/><line class="cls-4" x1="284.91" y1="92.65" x2="284.81" y2="92.65"/><line class="cls-4" x1="284.81" y1="93.53" x2="284.91" y2="93.53"/><line class="cls-4" x1="284.52" y1="92.45" x2="284.52" y2="92.35"/><line class="cls-4" x1="283.24" y1="92.55" x2="283.24" y2="92.55"/><line class="cls-4" x1="283.24" y1="91.67" x2="283.24" y2="91.67"/><line class="cls-4" x1="284.03" y1="91.18" x2="284.03" y2="91.18"/><path class="cls-4" d="M283.59,92.7h0"/><line class="cls-4" x1="283.64" y1="91.86" x2="283.54" y2="91.86"/><polyline class="cls-4" points="284.32 91.47 284.32 91.47 284.32 91.37"/><line class="cls-4" x1="283.54" y1="92.74" x2="283.54" y2="92.74"/><line class="cls-4" x1="283.54" y1="91.86" x2="283.54" y2="91.86"/><line class="cls-4" x1="284.32" y1="91.37" x2="284.32" y2="91.37"/><path class="cls-4" d="M284.38,91.32h0"/><line class="cls-4" x1="283.54" y1="91.86" x2="283.54" y2="91.86"/><path class="cls-4" d="M283.59,91.78h0"/><path class="cls-4" d="M283.59,91.77h0"/><line class="cls-4" x1="283.54" y1="92.74" x2="283.24" y2="92.65"/><line class="cls-4" x1="284.32" y1="91.37" x2="284.03" y2="91.18"/><polyline class="cls-4" points="285.3 91.96 285.6 92.16 285.6 93.04"/><line class="cls-4" x1="285.6" y1="92.16" x2="285.6" y2="92.16"/><polyline class="cls-4" points="285.6 93.04 285.6 93.04 284.81 93.53 284.52 93.33"/><line class="cls-4" x1="284.81" y1="93.53" x2="284.81" y2="93.53"/><polyline class="cls-4" points="283.24 92.64 283.24 92.55 283.24 91.67 284.03 91.17"/><line class="cls-4" x1="283.54" y1="92.74" x2="284.42" y2="93.23"/><line class="cls-4" x1="284.32" y1="91.47" x2="285.2" y2="91.96"/><path class="cls-4" d="M420,92.72c3.9-.73,5.66-5.31,4.33-11.25s-5.46-11.85-10.13-14.53"/><line class="cls-4" x1="334.8" y1="21.39" x2="414.1" y2="66.96"/><path class="cls-4" d="M334.87,21.26c-3.73-2.14-7.19-1.86-9.1.75"/><path class="cls-4" d="M425.3,82.68c0-5.48-3.86-12.16-8.6-14.92"/><path class="cls-4" d="M335.56,20.87c-2.8-1.61-5.49-1.87-7.48-.72"/><line class="cls-4" x1="335.49" y1="20.99" x2="414.69" y2="66.57"/><path class="cls-4" d="M422.2,91.73c3-1.75,4-6.49,2.33-12S419,69,414.76,66.54"/><line class="cls-4" x1="334.8" y1="21.39" x2="335.49" y2="20.99"/><line class="cls-4" x1="414.1" y1="66.96" x2="414.69" y2="66.57"/><line class="cls-4" x1="425.27" y1="82.65" x2="425.27" y2="84.9"/><line class="cls-4" x1="416.75" y1="67.75" x2="414.79" y2="66.67"/><line class="cls-4" x1="327.35" y1="20.6" x2="328.04" y2="20.21"/><line class="cls-4" x1="421.55" y1="92.16" x2="422.14" y2="91.76"/><line class="cls-4" x1="258.15" y1="79.71" x2="258.74" y2="80"/><path class="cls-4" d="M258.21,79.62a.86.86,0,0,0,0,.16"/><line class="cls-4" x1="258.05" y1="84.9" x2="258.05" y2="79.8"/><line class="cls-4" x1="258.74" y1="84.61" x2="258.74" y2="80"/><polyline class="cls-4" points="258.15 79.71 258.74 79.31 259.03 79.51"/><line class="cls-4" x1="258.84" y1="80" x2="258.74" y2="80"/><line class="cls-4" x1="259.43" y1="78.92" x2="259.43" y2="79.02"/><path class="cls-4" d="M259.5,78.86a.43.43,0,0,0-.61.37"/><line class="cls-4" x1="261.88" y1="77.45" x2="259.43" y2="78.92"/><line class="cls-4" x1="261.68" y1="77.35" x2="259.03" y2="78.92"/><line class="cls-4" x1="279.52" y1="90.29" x2="279.52" y2="87.65"/><line class="cls-4" x1="272.17" y1="94.61" x2="272.17" y2="87.94"/><path class="cls-4" d="M272.22,87.87a1.09,1.09,0,0,0,0-.18"/><polyline class="cls-4" points="271.48 87.35 272.17 87.06 272.85 87.35 272.17 87.74 271.48 87.35 271.48 94.21"/><path class="cls-4" d="M272.79,87.3a1.86,1.86,0,0,0-.62-1.1"/><line class="cls-4" x1="272.17" y1="86.27" x2="272.17" y2="87.06"/><line class="cls-4" x1="276.09" y1="85.69" x2="272.17" y2="87.94"/><line class="cls-4" x1="274.72" y1="84.8" x2="272.17" y2="86.27"/><line class="cls-4" x1="268.44" y1="90.29" x2="269.03" y2="90.68"/><line class="cls-4" x1="258.84" y1="80.29" x2="258.84" y2="84.51"/><path class="cls-4" d="M259.52,79a1.82,1.82,0,0,0-.64,1.27"/><line class="cls-4" x1="269.03" y1="90.68" x2="269.03" y2="92.25"/><polyline class="cls-4" points="269.03 92.25 271.48 93.63 271.48 93.53"/><line class="cls-4" x1="272.07" y1="86.18" x2="272.07" y2="87.06"/><path class="cls-4" d="M272.17,86.2a1.82,1.82,0,0,0-.64,1.27"/><line class="cls-4" x1="271.48" y1="87.55" x2="271.48" y2="93.63"/><line class="cls-4" x1="271.48" y1="87.55" x2="258.84" y2="80.29"/><polyline class="cls-4" points="268.44 90.29 268.44 85.98 261.88 82.25 261.88 82.75"/><line class="cls-4" x1="259.52" y1="78.92" x2="272.07" y2="86.18"/><line class="cls-4" x1="265.8" y1="88.04" x2="268.44" y2="89.61"/><polyline class="cls-4" points="257.56 89.02 258.44 89.51 260.11 89.51"/><polyline class="cls-4" points="260.11 90.39 260.9 90.88 265.8 88.04"/><polyline class="cls-4" points="265.6 84.41 260.9 87.16 260.11 86.67 260.11 85.69"/><polyline class="cls-4" points="260.11 85.69 258.44 85.69 257.56 85.2 262.37 82.45"/><line class="cls-4" x1="260.11" y1="90.39" x2="260.11" y2="86.67"/><line class="cls-4" x1="260.9" y1="90.88" x2="260.9" y2="87.16"/><line class="cls-4" x1="258.45" y1="85.69" x2="258.45" y2="89.51"/><line class="cls-4" x1="257.56" y1="85.2" x2="257.56" y2="89.02"/><line class="cls-4" x1="265.8" y1="88.04" x2="265.8" y2="84.51"/><polyline class="cls-4" points="261.88 77.45 259.43 78.92 259.43 79.02"/><polyline class="cls-4" points="272.17 87.06 272.17 86.27 274.72 84.8"/><line class="cls-4" x1="259.43" y1="78.92" x2="272.17" y2="86.27"/><line class="cls-4" x1="272.07" y1="86.96" x2="272.17" y2="87.06"/><polyline class="cls-4" points="270.31 93.33 270.21 93.23 270.21 93.14 270.21 92.84 269.03 92.25 269.13 92.45 269.13 92.64 269.13 92.74"/><polyline class="cls-4" points="263.84 89.22 269.03 92.25 269.03 90.69 265.11 88.43"/><polyline class="cls-4" points="290.2 93.72 290.2 93.92 289.52 93.53 289.52 93.43"/><line class="cls-4" x1="290.3" y1="93.82" x2="290.2" y2="93.92"/><line class="cls-4" x1="287.95" y1="99.02" x2="290.79" y2="97.35"/><polyline class="cls-4" points="296.67 107.74 296.57 107.74 286.48 101.96"/><polyline class="cls-4" points="286.38 101.17 286.38 101.86 296.18 107.54 296.18 106.76 286.38 101.17"/><line class="cls-4" x1="286.48" y1="101.96" x2="286.38" y2="101.86"/><line class="cls-4" x1="286.38" y1="101.17" x2="286.48" y2="100.68"/><line class="cls-4" x1="296.18" y1="107.54" x2="296.57" y2="107.74"/><line class="cls-4" x1="296.18" y1="106.76" x2="296.18" y2="106.76"/><polyline class="cls-4" points="305.59 106.17 306.28 106.56 306.96 106.17"/><line class="cls-4" x1="306.28" y1="106.56" x2="306.28" y2="105.78"/><line class="cls-4" x1="292.07" y1="94.8" x2="284.62" y2="99.11"/><line class="cls-4" x1="295.2" y1="105.19" x2="284.62" y2="99.11"/><line class="cls-4" x1="302.55" y1="100.88" x2="295.2" y2="105.19"/><line class="cls-4" x1="288.24" y1="98.92" x2="290.69" y2="97.84"/><path class="cls-4" d="M287.69,98.85a.77.77,0,0,0,.58,0"/><line class="cls-4" x1="287.56" y1="98.92" x2="287.66" y2="98.92"/><path class="cls-4" d="M287.59,98.5c-.17.1-.17.25,0,.35"/><line class="cls-4" x1="290.5" y1="96.86" x2="287.56" y2="98.53"/><path class="cls-4" d="M291.25,96.83a.75.75,0,0,0-.62,0"/><line class="cls-4" x1="291.18" y1="96.86" x2="293.44" y2="98.13"/><path class="cls-4" d="M293.51,98.45a.18.18,0,0,0,0-.34"/><line class="cls-4" x1="293.44" y1="98.53" x2="290.5" y2="100.19"/><path class="cls-4" d="M289.94,100.22a.75.75,0,0,0,.62,0"/><line class="cls-4" x1="289.81" y1="100.19" x2="289.91" y2="100.19"/><path class="cls-4" d="M289.81,99.8c-.14.09-.12.23,0,.32"/><line class="cls-4" x1="291.77" y1="98.43" x2="289.81" y2="99.9"/><path class="cls-4" d="M291.78,98.33c.13-.09.12-.23,0-.32"/><line class="cls-4" x1="291.28" y1="97.84" x2="291.67" y2="98.04"/><path class="cls-4" d="M291.35,97.81a.78.78,0,0,0-.58,0"/><line class="cls-4" x1="295.5" y1="103.53" x2="295.5" y2="103.43"/><path class="cls-4" d="M295.49,103c-.13.1-.12.24,0,.33"/><line class="cls-4" x1="295.4" y1="103.13" x2="297.36" y2="101.66"/><path class="cls-4" d="M297.36,101.57c.14-.1.13-.24,0-.33"/><line class="cls-4" x1="297.36" y1="101.37" x2="296.97" y2="101.07"/><path class="cls-4" d="M296.94,101.05a.71.71,0,0,0-.59,0"/><line class="cls-4" x1="296.38" y1="101.07" x2="293.83" y2="102.25"/><path class="cls-4" d="M293.27,102.08a.71.71,0,0,0,.59,0"/><line class="cls-4" x1="293.24" y1="102.15" x2="293.24" y2="102.15"/><path class="cls-4" d="M293.27,101.73c-.17.1-.17.26,0,.35"/><line class="cls-4" x1="296.18" y1="100.09" x2="293.24" y2="101.76"/><path class="cls-4" d="M296.84,100.07a.7.7,0,0,0-.63,0"/><line class="cls-4" x1="299.12" y1="101.37" x2="296.77" y2="100.09"/><path class="cls-4" d="M299.09,101.69c.17-.1.17-.25,0-.35"/><line class="cls-4" x1="299.12" y1="101.76" x2="296.18" y2="103.53"/><path class="cls-4" d="M295.53,103.45a.68.68,0,0,0,.62,0"/><line class="cls-4" x1="295.2" y1="105.78" x2="284.62" y2="99.7"/><line class="cls-4" x1="295.59" y1="103.53" x2="297.36" y2="102.25"/><line class="cls-4" x1="298.93" y1="101.86" x2="296.77" y2="100.68"/><path class="cls-4" d="M296.84,100.66a.7.7,0,0,0-.63,0"/><line class="cls-4" x1="296.18" y1="100.68" x2="293.44" y2="102.25"/><path class="cls-4" d="M297.36,102.16a.22.22,0,0,0,.1-.15"/><path class="cls-4" d="M291.78,98.92a.18.18,0,0,0,.09-.15"/><line class="cls-4" x1="291.77" y1="99.02" x2="290.01" y2="100.29"/><line class="cls-4" x1="291.18" y1="97.45" x2="293.34" y2="98.62"/><path class="cls-4" d="M291.25,97.42a.75.75,0,0,0-.62,0"/><line class="cls-4" x1="290.5" y1="97.45" x2="287.75" y2="99.02"/><line class="cls-4" x1="284.62" y1="105.09" x2="295.2" y2="111.17"/><path class="cls-4" d="M299.64,109.51a1.48,1.48,0,0,0,.62-1.34"/><line class="cls-4" x1="300.2" y1="108.23" x2="297.26" y2="109.99"/><path class="cls-4" d="M295.22,111.15c1.15.64,2.09.1,2.1-1.22"/><path class="cls-4" d="M295.28,110.55c.85.51,1.52.12,1.5-.86"/><line class="cls-4" x1="296.77" y1="109.7" x2="295.2" y2="110.58"/><path class="cls-4" d="M306.2,105.79a1.33,1.33,0,0,0,.6-1"/><polyline class="cls-4" points="306.77 104.8 306.77 104.7 306.77 104.6 306.87 104.51 306.96 104.41 307.06 104.31"/><line class="cls-4" x1="307.06" y1="104.31" x2="303.73" y2="106.17"/><path class="cls-4" d="M303.11,107.48a1.43,1.43,0,0,0,.68-1.37"/><path class="cls-4" d="M297.32,108.66a4.39,4.39,0,0,0-2-3.54"/><line class="cls-4" x1="306.67" y1="103.23" x2="297.26" y2="108.72"/><line class="cls-4" x1="309.22" y1="104.7" x2="309.22" y2="105.68"/><line class="cls-4" x1="297.26" y1="109.99" x2="297.26" y2="108.72"/><path class="cls-4" d="M300.85,107.9c0-.2-.13-.27-.3-.17a.69.69,0,0,0-.31.54"/><line class="cls-4" x1="300.79" y1="107.94" x2="300.79" y2="110.39"/><path class="cls-4" d="M303.09,108.88a.38.38,0,0,0,0-.1"/><line class="cls-4" x1="303.14" y1="106.56" x2="303.14" y2="108.82"/><path class="cls-4" d="M303.79,106.14c0-.2-.13-.28-.3-.18a.69.69,0,0,0-.31.54"/><path class="cls-4" d="M307.42,104.47c0-.2-.13-.28-.3-.17"/><line class="cls-4" x1="307.46" y1="104.51" x2="307.46" y2="106.66"/><path class="cls-4" d="M284.69,99c-1.14-.64-2.08-.1-2.1,1.22"/><line class="cls-4" x1="282.56" y1="101.57" x2="282.56" y2="100.29"/><path class="cls-4" d="M282.59,101.53a4.42,4.42,0,0,0,2.05,3.54"/><line class="cls-4" x1="284.62" y1="104.51" x2="295.2" y2="110.58"/><path class="cls-4" d="M283.14,101.78a3.55,3.55,0,0,0,1.56,2.7"/><line class="cls-4" x1="283.05" y1="101.86" x2="283.05" y2="100.58"/><path class="cls-4" d="M284.64,99.63c-.85-.5-1.52-.11-1.5.87"/><path class="cls-4" d="M296.78,108.41a3.56,3.56,0,0,0-1.56-2.7"/><line class="cls-4" x1="296.77" y1="109.7" x2="296.77" y2="108.43"/><path class="cls-4" d="M303.1,106.56a1.14,1.14,0,0,0,.14-.44"/><path class="cls-4" d="M288.86,103.45a.71.71,0,0,0,.46.06"/><line class="cls-4" x1="287.56" y1="102.84" x2="288.83" y2="103.53"/><line class="cls-4" x1="287.56" y1="102.84" x2="284.62" y2="104.51"/><line class="cls-4" x1="306.96" y1="104.41" x2="306.96" y2="106.66"/><line class="cls-4" x1="300.3" y1="107.84" x2="300.3" y2="110.29"/><line class="cls-4" x1="303.73" y1="106.17" x2="303.44" y2="105.98"/><line class="cls-4" x1="300.79" y1="107.94" x2="300.5" y2="107.74"/><line class="cls-4" x1="307.46" y1="104.51" x2="307.06" y2="104.31"/><path class="cls-4" d="M286.11,100.37a3.39,3.39,0,0,0,.31.93"/><path class="cls-4" d="M286.91,102.07a2.71,2.71,0,0,0,.73.64"/><line class="cls-4" x1="285.69" y1="100.29" x2="283.05" y2="101.86"/><path class="cls-4" d="M289.19,98.13s0,.07,0,.1"/><line class="cls-4" x1="286.18" y1="100.58" x2="286.18" y2="100.98"/><line class="cls-4" x1="284.62" y1="99.7" x2="283.05" y2="100.58"/><path class="cls-4" d="M289.68,98s0-.06,0-.09"/><path class="cls-4" d="M289.08,98.24a.34.34,0,0,0,0,.1"/><line class="cls-4" x1="289.52" y1="98.04" x2="289.62" y2="98.04"/><line class="cls-4" x1="287.56" y1="98.92" x2="287.56" y2="98.53"/><line class="cls-4" x1="290.5" y1="97.45" x2="290.5" y2="96.86"/><line class="cls-4" x1="291.18" y1="97.45" x2="291.18" y2="96.86"/><line class="cls-4" x1="293.44" y1="98.53" x2="293.44" y2="98.13"/><line class="cls-4" x1="289.81" y1="99.9" x2="289.81" y2="100.19"/><line class="cls-4" x1="291.77" y1="99.02" x2="291.77" y2="98.43"/><line class="cls-4" x1="295.4" y1="103.13" x2="295.4" y2="103.43"/><line class="cls-4" x1="297.36" y1="102.25" x2="297.36" y2="101.66"/><line class="cls-4" x1="293.24" y1="102.15" x2="293.24" y2="101.76"/><line class="cls-4" x1="296.18" y1="100.68" x2="296.18" y2="100.09"/><line class="cls-4" x1="296.77" y1="100.68" x2="296.77" y2="100.09"/><line class="cls-4" x1="299.12" y1="101.76" x2="299.12" y2="101.37"/><line class="cls-4" x1="299.52" y1="109.6" x2="296.57" y2="111.27"/><line class="cls-4" x1="306.18" y1="105.78" x2="303.14" y2="107.54"/><line class="cls-4" x1="291.18" y1="94.31" x2="283.15" y2="98.92"/><line class="cls-4" x1="291.87" y1="98.82" x2="291.87" y2="98.23"/><line class="cls-4" x1="297.46" y1="102.06" x2="297.46" y2="101.47"/><line class="cls-4" x1="330.98" y1="117.25" x2="251.58" y2="71.57"/><path class="cls-4" d="M331.18,137.23c4.73,2.66,8.5.37,8.45-5.12S335.73,120,331,117.24"/><line class="cls-4" x1="331.18" y1="137.24" x2="339.61" y2="132.34"/><line class="cls-4" x1="251.58" y1="91.47" x2="331.18" y2="137.24"/><line class="cls-4" x1="251.58" y1="91.47" x2="255.21" y2="89.31"/><path class="cls-4" d="M251.6,71.46c-4.75-2.75-8.58-.52-8.57,5s3.88,12.19,8.63,14.94"/><line class="cls-4" x1="251.58" y1="93.33" x2="331.18" y2="139.11"/><path class="cls-4" d="M331.15,139.1c5.63,3.15,10.15.42,10.12-6.1s-4.6-14.4-10.23-17.63"/><path class="cls-4" d="M421.46,91.79c2.94-1.69,3.83-6.27,2.25-11.61s-5.31-10.36-9.45-12.74"/><line class="cls-4" x1="330.98" y1="115.39" x2="414.2" y2="67.45"/><line class="cls-4" x1="330.98" y1="115.39" x2="251.58" y2="69.61"/><line class="cls-4" x1="334.8" y1="21.68" x2="414.2" y2="67.45"/><line class="cls-4" x1="251.58" y1="69.61" x2="334.8" y2="21.68"/><path class="cls-4" d="M251.65,69.59c-5.66-3.24-10.25-.58-10.25,6S246,90,251.62,93.25"/><path class="cls-4" d="M334.87,21.66c-2.71-1.55-5.31-1.8-7.23-.7"/><line class="cls-4" x1="338.23" y1="139.79" x2="421.45" y2="91.86"/><line class="cls-4" x1="244.43" y1="68.92" x2="327.55" y2="20.99"/><line class="cls-4" x1="217.87" y1="137.24" x2="229.53" y2="143.91"/><path class="cls-4" d="M217.91,137.19c-1.35-.78-2.46-.14-2.45,1.43"/><line class="cls-4" x1="215.42" y1="138.62" x2="217.87" y2="137.24"/><path class="cls-4" d="M232,148.12a5.42,5.42,0,0,0-2.46-4.26"/><line class="cls-4" x1="218.06" y1="137.34" x2="218.06" y2="138.71"/><path class="cls-4" d="M218.1,138.62a5.42,5.42,0,0,0,2.46,4.26"/><line class="cls-4" x1="220.51" y1="142.93" x2="231.98" y2="149.5"/><line class="cls-4" x1="195.22" y1="125.29" x2="200.32" y2="128.23"/><line class="cls-4" x1="194.44" y1="122.25" x2="194.44" y2="123.91"/><path class="cls-4" d="M194.48,123.89a1.83,1.83,0,0,0,.8,1.38"/><line class="cls-4" x1="198.46" y1="127.15" x2="200.22" y2="126.07"/><line class="cls-4" x1="196.5" y1="125.97" x2="198.75" y2="124.7"/><path class="cls-4" d="M199.59,130.66c.44.26.79.06.78-.45"/><line class="cls-4" x1="200.32" y1="130.28" x2="199.54" y2="130.77"/><line class="cls-4" x1="200.32" y1="126.56" x2="200.32" y2="130.28"/><path class="cls-4" d="M191.84,125.36a1.79,1.79,0,0,0,.79,1.38"/><line class="cls-4" x1="192.58" y1="126.85" x2="195.22" y2="125.29"/><line class="cls-4" x1="194.44" y1="123.91" x2="191.79" y2="125.38"/><line class="cls-4" x1="199.54" y1="130.77" x2="192.58" y2="126.85"/><path class="cls-4" d="M200.37,126.48a1.8,1.8,0,0,0-.79-1.38"/><line class="cls-4" x1="192.58" y1="121.17" x2="199.54" y2="125.09"/><path class="cls-4" d="M192.62,121.18c-.44-.25-.79-.05-.78.46"/><line class="cls-4" x1="191.79" y1="121.66" x2="192.58" y2="121.17"/><line class="cls-4" x1="191.79" y1="125.38" x2="191.79" y2="121.66"/><polyline class="cls-4" points="286.58 153.71 286.58 150.77 284.81 149.79"/><path class="cls-4" d="M284.39,155a5,5,0,0,0,2.25,3.91"/><line class="cls-4" x1="286.58" y1="165.67" x2="286.58" y2="158.91"/><path class="cls-4" d="M286.31,166.11a.58.58,0,0,0,.22-.52"/><polyline class="cls-4" points="203.46 103.13 203.46 102.94 201.79 101.86"/><line class="cls-4" x1="203.46" y1="102.94" x2="200.71" y2="101.47"/><line class="cls-4" x1="198.46" y1="100.19" x2="201.79" y2="101.86"/><line class="cls-4" x1="231.98" y1="148.12" x2="231.98" y2="149.69"/><line class="cls-4" x1="218.36" y1="137.44" x2="218.06" y2="137.64"/><line class="cls-4" x1="215.42" y1="140.18" x2="218.06" y2="138.71"/><path class="cls-4" d="M215.46,140.19a5.42,5.42,0,0,0,2.46,4.26"/><line class="cls-4" x1="217.87" y1="144.4" x2="220.51" y2="142.93"/><line class="cls-4" x1="229.53" y1="151.16" x2="217.87" y2="144.4"/><line class="cls-4" x1="229.53" y1="151.16" x2="231.98" y2="149.69"/><path class="cls-4" d="M229.58,151.12c1.36.78,2.46.14,2.46-1.43"/><line class="cls-4" x1="215.42" y1="140.18" x2="215.42" y2="138.62"/><path class="cls-4" d="M184.47,111.24c-3.15-1.95-6.09-1.79-7.69.41s-1.58,6.1,0,10.16,4.57,7.65,7.71,9.34"/><line class="cls-4" x1="262.66" y1="176.26" x2="184.44" y2="131.26"/><path class="cls-4" d="M262.73,176.19c3.11,1.92,6,1.79,7.64-.35s1.65-6,.12-10a19,19,0,0,0-7.52-9.43"/><line class="cls-4" x1="184.44" y1="111.37" x2="262.95" y2="156.55"/><line class="cls-4" x1="273.34" y1="161.36" x2="286.58" y2="153.71"/><line class="cls-4" x1="286.58" y1="158.91" x2="275.21" y2="165.47"/><path class="cls-4" d="M251.6,130.48h-.43"/><polyline class="cls-4" points="251.58 130.58 251.78 130.58 251.88 130.68 252.07 130.78 252.27 130.97 252.47 131.07 252.56 131.26 252.76 131.36 252.86 131.56"/><line class="cls-4" x1="234.04" y1="120.68" x2="234.04" y2="120.09"/><path class="cls-4" d="M234,120l-.09.12"/><line class="cls-4" x1="233.94" y1="120.19" x2="233.74" y2="120.48"/><path class="cls-4" d="M234,120a3.29,3.29,0,0,0-.78.18"/><line class="cls-4" x1="251.29" y1="130.68" x2="251.58" y2="130.58"/><line class="cls-4" x1="233.55" y1="120.38" x2="233.94" y2="120.19"/><path class="cls-4" d="M205,109.6a1,1,0,0,0,0,1.87,3.58,3.58,0,0,0,3.25,0,1,1,0,0,0,0-1.87"/><path class="cls-4" d="M207.92,109.51a2.88,2.88,0,0,0-2.56,0,.77.77,0,0,0,0,1.46,2.88,2.88,0,0,0,2.56,0,.77.77,0,0,0,0-1.46"/><path class="cls-4" d="M262,143.91a3.6,3.6,0,0,0,3.26,0,1,1,0,0,0,0-1.87,3.66,3.66,0,0,0-3.26,0,1,1,0,0,0,0,1.87"/><path class="cls-4" d="M261.61,142.23a1.21,1.21,0,0,0,0,2.29,4.41,4.41,0,0,0,3.94,0,1.21,1.21,0,0,0,0-2.29"/><line class="cls-4" x1="281.48" y1="148.12" x2="268.93" y2="155.38"/><line class="cls-4" x1="281.48" y1="148.12" x2="198.36" y2="100.29"/><line class="cls-4" x1="186.4" y1="107.15" x2="198.36" y2="100.29"/><line class="cls-4" x1="228.65" y1="123.23" x2="241.68" y2="130.77"/><path class="cls-4" d="M236.82,133.52a5.46,5.46,0,0,0,4.92,0c1.36-.79,1.36-2.06,0-2.84"/><line class="cls-4" x1="236.78" y1="133.52" x2="223.75" y2="125.97"/><path class="cls-4" d="M228.71,123.13a5.4,5.4,0,0,0-4.92,0c-1.36.78-1.36,2.06,0,2.84"/><path class="cls-4" d="M187.2,107.52c-2.92-1.78-5.75-2.11-7.82-.92"/><line class="cls-4" x1="265.5" y1="152.73" x2="187.09" y2="107.54"/><path class="cls-4" d="M273,177.89c3-1.75,4-6.5,2.34-12s-5.49-10.72-9.78-13.18"/><line class="cls-4" x1="286.58" y1="150.77" x2="283.24" y2="149.1"/><line class="cls-4" x1="270.11" y1="156.55" x2="283.24" y2="149.1"/><line class="cls-4" x1="286.58" y1="165.67" x2="276.09" y2="171.75"/><polyline class="cls-4" points="200.71 101.47 281.97 148.32 284.81 149.79"/><path class="cls-4" d="M198.5,100.17c-.47-.23-.5-.21-.07,0"/><path class="cls-4" d="M281.55,148.14c.44.26,1.18.66,1.65.89"/><line class="cls-4" x1="228.26" y1="123.72" x2="228.65" y2="123.23"/><path class="cls-4" d="M228.36,123.73a4.71,4.71,0,0,0-4.19,0c-1.17.65-1.22,1.72-.11,2.4"/><line class="cls-4" x1="241.39" y1="131.26" x2="241.68" y2="130.77"/><line class="cls-4" x1="228.26" y1="123.72" x2="241.39" y2="131.26"/><path class="cls-4" d="M241.56,133.6c1-.68.94-1.69-.16-2.32"/><path class="cls-4" d="M264.9,177.54c3.79,2.19,7.3,1.88,9.21-.82s1.93-7.35,0-12.23-5.38-9.22-9.17-11.4"/><line class="cls-4" x1="264.91" y1="153.12" x2="262.95" y2="156.55"/><polyline class="cls-4" points="184.44 131.26 186.5 132.34 263.54 176.75"/><path class="cls-4" d="M186.51,107.91c-2.87-1.75-5.65-2.1-7.71-1s-3.23,3.63-3.23,6.94"/><path class="cls-4" d="M186.1,132.15l.37.21"/><polyline class="cls-4" points="184.44 111.37 186.5 107.94 264.92 153.12"/><line class="cls-4" x1="265.5" y1="152.73" x2="264.91" y2="153.12"/><line class="cls-4" x1="187.09" y1="107.54" x2="186.5" y2="107.94"/><line class="cls-4" x1="207.87" y1="109.5" x2="208.16" y2="109.7"/><line class="cls-4" x1="205.22" y1="109.5" x2="204.93" y2="109.7"/><line class="cls-4" x1="265.11" y1="142.14" x2="265.5" y2="142.34"/><line class="cls-4" x1="261.88" y1="142.14" x2="261.48" y2="142.34"/><line class="cls-4" x1="276.09" y1="172.14" x2="286.28" y2="166.26"/><line class="cls-4" x1="186.01" y1="106.96" x2="198.07" y2="100.09"/><line class="cls-4" x1="262.86" y1="176.35" x2="264.82" y2="177.53"/><line class="cls-4" x1="175.52" y1="116.17" x2="175.52" y2="113.92"/><line class="cls-4" x1="184.15" y1="131.07" x2="186.11" y2="132.15"/><line class="cls-4" x1="272.95" y1="177.92" x2="272.36" y2="178.31"/><line class="cls-4" x1="179.34" y1="106.66" x2="178.66" y2="107.05"/><polyline class="cls-4" points="303.14 108.92 302.46 109.31 302.46 109.5"/><polyline class="cls-4" points="270.7 93.14 270.31 93.33 269.13 92.74"/><line class="cls-4" x1="272.17" y1="94.61" x2="271.48" y2="94.21"/><polyline class="cls-4" points="279.52 90.29 277.17 91.76 277.17 92.16"/><line class="cls-4" x1="274.62" y1="93.14" x2="272.17" y2="94.61"/><polyline class="cls-4" points="337.74 124.89 330 129.4 330 130.97"/><text class="cls-5" transform="translate(31.45 106.99)">E<tspan class="cls-6" x="8.26" y="0">x</tspan><tspan class="cls-7" x="16.25" y="0">t</tspan><tspan x="21.71" y="0">ension </tspan><tspan class="cls-8" x="7.91" y="16.79">P</tspan><tspan x="16.57" y="16.79">in </tspan><tspan class="cls-9" x="33.38" y="16.79">C</tspan><tspan x="43" y="16.79">ap</tspan></text><path class="cls-2" d="M344.79,145.87V143l7.57-1.26a2,2,0,0,1,1.76.57l.1.1a2,2,0,0,0,1.44.59H372l.88-1.74a2,2,0,0,1,1.81-1.12h9.61a2,2,0,0,1,2,2v4.55a2,2,0,0,1-2,2h-9.61a2,2,0,0,1-1.81-1.12l-.88-1.74H355.65a2,2,0,0,0-1.43.59l-.1.1a2.06,2.06,0,0,1-1.77.57Zm30.08-2.45a1,1,0,0,0,0,2h8.59a1,1,0,1,0,0-2Z"/><rect class="cls-10" width="453.54" height="198.43"/></g></g></svg>