<?xml version="1.0" encoding="UTF-8" standalone="no"?>
<!-- Created with Inkscape (http://www.inkscape.org/) -->

<svg
   version="1.1"
   id="svg2"
   width="377.95334"
   height="226.772"
   viewBox="0 0 377.95334 226.772"
   xmlns="http://www.w3.org/2000/svg"
   xmlns:svg="http://www.w3.org/2000/svg">
  <defs
     id="defs6">
    <clipPath
       clipPathUnits="userSpaceOnUse"
       id="clipPath16">
      <path
         d="M 0,170.079 H 283.465 V 0 H 0 Z"
         id="path14" />
    </clipPath>
    <clipPath
       clipPathUnits="userSpaceOnUse"
       id="clipPath24">
      <path
         d="M 21.508,91.4049 H 261.957 V 45.6864 H 21.508 Z"
         id="path22" />
    </clipPath>
  </defs>
  <g
     id="g8"
     transform="matrix(1.3333333,0,0,-1.3333333,0,226.772)">
    <g
       id="g10">
      <g
         id="g12"
         clip-path="url(#clipPath16)">
        <g
           id="g18">
          <g
             id="g20" />
          <g
             id="g108">
            <g
               clip-path="url(#clipPath24)"
               id="g106">
              <path
                 d="m 119.474,59.059 h 6.084 v -2.832 h -6.084 z"
                 style="fill:#ffffff;fill-opacity:1;fill-rule:nonzero;stroke:none"
                 id="path26" />
              <path
                 d="m 196.332,59.059 h 6.084 v -2.832 h -6.084 z"
                 style="fill:#ffffff;fill-opacity:1;fill-rule:nonzero;stroke:none"
                 id="path28" />
              <g
                 transform="translate(79.1574,58.9565)"
                 id="g32">
                <path
                   d="M 0,0 H 3.503 V 3.876 H 6.355 V 0 H 9.858 V -2.622 H 6.355 V -6.504 H 3.503 v 3.882 l -3.503,0 z"
                   style="fill:#ffffff;fill-opacity:1;fill-rule:nonzero;stroke:none"
                   id="path30" />
              </g>
              <g
                 transform="translate(156.0163,58.9565)"
                 id="g36">
                <path
                   d="M 0,0 H 3.502 V 3.876 H 6.355 V 0 H 9.857 V -2.622 H 6.355 V -6.504 H 3.502 v 3.882 l -3.502,0 z"
                   style="fill:#ffffff;fill-opacity:1;fill-rule:nonzero;stroke:none"
                   id="path34" />
              </g>
              <g
                 transform="translate(31.8605,62.4819)"
                 id="g40">
                <path
                   d="m 0,0 c -0.435,0.917 -0.86,1.864 -1.285,2.853 -0.42,0.982 -0.819,1.956 -1.203,2.923 -0.379,0.963 -0.727,1.885 -1.045,2.766 -0.317,0.881 -0.594,1.669 -0.824,2.36 h 2.703 c 0.205,-0.63 0.43,-1.31 0.681,-2.038 C -0.722,8.138 -0.465,7.41 -0.209,6.688 0.052,5.966 0.297,5.274 0.538,4.608 0.773,3.948 0.999,3.375 1.219,2.894 1.424,3.375 1.644,3.943 1.89,4.604 2.131,5.27 2.381,5.961 2.643,6.683 c 0.261,0.722 0.512,1.449 0.763,2.176 0.251,0.727 0.476,1.409 0.68,2.043 H 6.699 C 6.458,10.206 6.176,9.417 5.858,8.542 5.541,7.661 5.193,6.739 4.814,5.771 4.435,4.809 4.041,3.831 3.621,2.848 3.201,1.859 2.776,0.911 2.34,0 Z"
                   style="fill:#ef4849;fill-opacity:1;fill-rule:nonzero;stroke:none"
                   id="path38" />
              </g>
              <g
                 transform="translate(44.5402,62.2622)"
                 id="g44">
                <path
                   d="m 0,0 c -1.777,0 -3.124,0.491 -4.056,1.479 -0.927,0.984 -1.388,2.387 -1.388,4.2 0,0.901 0.139,1.705 0.425,2.417 0.282,0.707 0.671,1.305 1.163,1.792 0.491,0.486 1.08,0.855 1.761,1.106 0.681,0.251 1.419,0.379 2.218,0.379 0.46,0 0.88,-0.036 1.26,-0.102 0.378,-0.067 0.706,-0.149 0.988,-0.236 0.286,-0.087 0.523,-0.18 0.712,-0.276 0.184,-0.093 0.322,-0.17 0.404,-0.221 L 2.781,8.557 C 2.448,8.735 2.053,8.89 1.607,9.013 1.163,9.141 0.661,9.202 0.092,9.202 -0.287,9.202 -0.656,9.141 -1.019,9.013 -1.378,8.89 -1.7,8.685 -1.977,8.408 -2.253,8.132 -2.479,7.772 -2.648,7.332 -2.812,6.893 -2.898,6.354 -2.898,5.725 c 0,-0.502 0.056,-0.973 0.169,-1.409 0.107,-0.435 0.286,-0.808 0.532,-1.121 0.246,-0.318 0.569,-0.568 0.968,-0.748 0.399,-0.184 0.881,-0.276 1.449,-0.276 0.354,0 0.676,0.02 0.958,0.061 0.281,0.041 0.532,0.092 0.753,0.149 0.22,0.061 0.414,0.123 0.583,0.2 0.169,0.071 0.318,0.138 0.456,0.204 L 3.646,0.819 C 3.303,0.609 2.811,0.42 2.187,0.251 1.557,0.081 0.824,0 0,0"
                   style="fill:#ef4849;fill-opacity:1;fill-rule:nonzero;stroke:none"
                   id="path42" />
              </g>
              <g
                 transform="translate(54.341,62.2622)"
                 id="g48">
                <path
                   d="m 0,0 c -1.776,0 -3.124,0.491 -4.055,1.479 -0.927,0.984 -1.388,2.387 -1.388,4.2 0,0.901 0.138,1.705 0.425,2.417 0.282,0.707 0.67,1.305 1.163,1.792 0.491,0.486 1.08,0.855 1.761,1.106 0.681,0.251 1.418,0.379 2.218,0.379 0.46,0 0.88,-0.036 1.259,-0.102 0.379,-0.067 0.707,-0.149 0.988,-0.236 0.287,-0.087 0.523,-0.18 0.712,-0.276 0.185,-0.093 0.323,-0.17 0.405,-0.221 L 2.781,8.557 C 2.448,8.735 2.054,8.89 1.608,9.013 1.163,9.141 0.661,9.202 0.092,9.202 -0.286,9.202 -0.655,9.141 -1.019,9.013 -1.377,8.89 -1.7,8.685 -1.976,8.408 -2.252,8.132 -2.478,7.772 -2.647,7.332 -2.811,6.893 -2.898,6.354 -2.898,5.725 c 0,-0.502 0.057,-0.973 0.169,-1.409 0.107,-0.435 0.287,-0.808 0.533,-1.121 0.245,-0.318 0.568,-0.568 0.967,-0.748 0.399,-0.184 0.881,-0.276 1.449,-0.276 0.354,0 0.676,0.02 0.958,0.061 0.282,0.041 0.532,0.092 0.753,0.149 0.22,0.061 0.415,0.123 0.584,0.2 0.169,0.071 0.317,0.138 0.456,0.204 L 3.646,0.819 C 3.303,0.609 2.812,0.42 2.187,0.251 1.557,0.081 0.825,0 0,0"
                   style="fill:#ef4849;fill-opacity:1;fill-rule:nonzero;stroke:none"
                   id="path46" />
              </g>
              <g
                 transform="translate(89.5983,84.9165)"
                 id="g52">
                <path
                   d="M 0,0 H 1.981 V -10.902 H 0 v 4.829 h -4.737 v -4.829 H -6.719 V 0 h 1.982 V -4.357 H 0 Z"
                   style="fill:#f58837;fill-opacity:1;fill-rule:nonzero;stroke:none"
                   id="path50" />
              </g>
              <g
                 transform="translate(98.6418,78.1362)"
                 id="g56">
                <path
                   d="m 0,0 c 0,0.819 -0.179,1.465 -0.528,1.941 -0.353,0.476 -0.845,0.717 -1.47,0.717 -0.629,0 -1.121,-0.241 -1.474,-0.717 C -3.82,1.465 -4,0.819 -4,0 c 0,-0.83 0.18,-1.485 0.528,-1.966 0.353,-0.481 0.845,-0.722 1.474,-0.722 0.625,0 1.117,0.241 1.47,0.722 C -0.179,-1.485 0,-0.83 0,0 M 1.951,0 C 1.951,-0.65 1.854,-1.244 1.664,-1.776 1.475,-2.314 1.208,-2.771 0.865,-3.148 0.517,-3.522 0.102,-3.82 -0.389,-4.03 c -0.487,-0.209 -1.024,-0.313 -1.609,-0.313 -0.588,0 -1.126,0.104 -1.607,0.313 -0.481,0.21 -0.896,0.508 -1.245,0.882 -0.342,0.377 -0.614,0.834 -0.809,1.372 -0.194,0.532 -0.292,1.126 -0.292,1.776 0,0.65 0.098,1.239 0.292,1.767 0.195,0.533 0.467,0.983 0.82,1.362 0.353,0.379 0.768,0.671 1.249,0.876 0.482,0.205 1.014,0.307 1.592,0.307 0.574,0 1.107,-0.102 1.593,-0.307 C 0.087,3.8 0.502,3.508 0.85,3.129 1.193,2.75 1.464,2.3 1.659,1.767 1.854,1.239 1.951,0.65 1.951,0"
                   style="fill:#f58837;fill-opacity:1;fill-rule:nonzero;stroke:none"
                   id="path54" />
              </g>
              <g
                 transform="translate(103.675,75.3813)"
                 id="g60">
                <path
                   d="M 0,0 C 0.502,0 0.871,0.062 1.102,0.185 1.332,0.303 1.45,0.512 1.45,0.804 1.45,1.075 1.327,1.301 1.076,1.48 0.83,1.659 0.425,1.854 -0.143,2.063 c -0.343,0.124 -0.661,0.256 -0.952,0.4 -0.287,0.143 -0.538,0.308 -0.743,0.497 -0.21,0.189 -0.379,0.415 -0.497,0.681 -0.123,0.272 -0.184,0.599 -0.184,0.983 0,0.758 0.282,1.352 0.835,1.787 0.558,0.436 1.311,0.655 2.268,0.655 0.482,0 0.943,-0.045 1.383,-0.137 C 2.407,6.841 2.74,6.754 2.96,6.673 L 2.612,5.131 C 2.402,5.224 2.136,5.311 1.808,5.387 1.486,5.469 1.106,5.505 0.677,5.505 0.287,5.505 -0.025,5.443 -0.266,5.311 -0.506,5.178 -0.629,4.978 -0.629,4.706 -0.629,4.568 -0.604,4.45 -0.558,4.343 -0.512,4.24 -0.43,4.143 -0.312,4.051 -0.199,3.964 -0.045,3.871 0.144,3.784 0.328,3.697 0.564,3.605 0.835,3.508 1.286,3.344 1.67,3.175 1.982,3.017 2.294,2.853 2.556,2.668 2.76,2.463 2.965,2.258 3.114,2.022 3.211,1.762 3.303,1.501 3.349,1.188 3.349,0.819 3.349,0.03 3.058,-0.563 2.479,-0.968 1.895,-1.367 1.066,-1.571 -0.015,-1.571 c -0.722,0 -1.306,0.06 -1.746,0.178 -0.441,0.123 -0.753,0.22 -0.927,0.292 L -2.36,0.486 C -2.079,0.374 -1.735,0.262 -1.346,0.158 -0.952,0.051 -0.501,0 0,0"
                   style="fill:#f58837;fill-opacity:1;fill-rule:nonzero;stroke:none"
                   id="path58" />
              </g>
              <g
                 transform="translate(107.7668,84.4146)"
                 id="g64">
                <path
                   d="M 0,0 1.905,0.312 V -2.171 H 4.829 V -3.764 H 1.905 v -3.348 c 0,-0.661 0.102,-1.132 0.313,-1.414 0.209,-0.287 0.568,-0.425 1.07,-0.425 0.348,0 0.655,0.036 0.921,0.107 0.267,0.073 0.482,0.144 0.636,0.205 l 0.317,-1.51 c -0.22,-0.092 -0.512,-0.19 -0.865,-0.292 -0.359,-0.097 -0.779,-0.149 -1.26,-0.149 -0.589,0 -1.076,0.076 -1.47,0.236 C 1.173,-10.195 0.86,-9.971 0.63,-9.668 0.399,-9.371 0.235,-9.008 0.144,-8.582 0.046,-8.157 0,-7.677 0,-7.128 Z"
                   style="fill:#f58837;fill-opacity:1;fill-rule:nonzero;stroke:none"
                   id="path62" />
              </g>
              <g
                 transform="translate(118.2907,75.6479)"
                 id="g68">
                <path
                   d="m 0,0 c 0.117,-0.011 0.266,-0.016 0.456,-0.021 0.189,-0.004 0.444,-0.01 0.773,-0.01 1.331,0 2.324,0.338 2.98,1.013 0.655,0.682 0.983,1.624 0.983,2.843 0,1.239 -0.322,2.187 -0.963,2.847 C 3.589,7.333 2.601,7.666 1.259,7.666 0.67,7.666 0.25,7.645 0,7.614 Z M 7.266,3.825 C 7.266,2.883 7.123,2.059 6.826,1.362 6.534,0.665 6.119,0.082 5.576,-0.385 5.039,-0.851 4.388,-1.198 3.625,-1.424 2.867,-1.649 2.022,-1.762 1.101,-1.762 c -0.441,0 -0.937,0.021 -1.496,0.056 -0.553,0.036 -1.085,0.113 -1.587,0.231 V 9.109 c 0.502,0.119 1.04,0.19 1.603,0.221 0.568,0.03 1.07,0.046 1.51,0.046 0.911,0 1.746,-0.107 2.504,-0.322 C 4.388,8.839 5.039,8.506 5.576,8.05 6.119,7.594 6.534,7.016 6.826,6.318 7.123,5.622 7.266,4.788 7.266,3.825"
                   style="fill:#f58837;fill-opacity:1;fill-rule:nonzero;stroke:none"
                   id="path66" />
              </g>
              <g
                 transform="translate(159.5231,85.6587)"
                 id="g72">
                <path
                   d="m 0,0 v -1.715 h -3.354 v -9.187 h -1.998 v 9.187 H -8.7 V 0 Z"
                   style="fill:#ffffff;fill-opacity:1;fill-rule:nonzero;stroke:none"
                   id="path70" />
              </g>
              <g
                 transform="translate(162.5754,76.0933)"
                 id="g76">
                <path
                   d="M 0,0 C 0.583,0 1.029,0.031 1.336,0.098 V 2.202 C 1.229,2.232 1.08,2.263 0.88,2.3 0.681,2.33 0.461,2.346 0.22,2.346 0.01,2.346 -0.205,2.33 -0.42,2.3 -0.635,2.263 -0.825,2.207 -0.999,2.125 -1.173,2.038 -1.311,1.92 -1.418,1.771 -1.521,1.618 -1.572,1.429 -1.572,1.198 c 0,-0.45 0.138,-0.762 0.425,-0.937 C -0.866,0.087 -0.481,0 0,0 m -0.159,7.098 c 0.63,0 1.158,-0.082 1.587,-0.236 C 1.859,6.703 2.202,6.482 2.463,6.196 2.719,5.914 2.903,5.571 3.011,5.167 3.124,4.763 3.174,4.322 3.174,3.841 V -1.146 C 2.883,-1.209 2.437,-1.285 1.848,-1.378 1.254,-1.465 0.583,-1.511 -0.159,-1.511 c -0.492,0 -0.942,0.046 -1.352,0.144 -0.409,0.092 -0.758,0.245 -1.044,0.456 -0.292,0.21 -0.518,0.481 -0.681,0.818 -0.16,0.333 -0.241,0.748 -0.241,1.24 0,0.476 0.092,0.871 0.276,1.199 0.18,0.322 0.43,0.589 0.748,0.793 0.312,0.205 0.676,0.353 1.091,0.44 0.414,0.087 0.844,0.134 1.3,0.134 0.205,0 0.425,-0.011 0.661,-0.041 C 0.83,3.646 1.075,3.605 1.336,3.538 v 0.318 c 0,0.22 -0.025,0.43 -0.077,0.63 C 1.204,4.686 1.111,4.859 0.983,5.014 0.85,5.162 0.676,5.279 0.461,5.366 0.245,5.448 -0.021,5.489 -0.348,5.489 -0.789,5.489 -1.193,5.459 -1.557,5.397 -1.926,5.336 -2.223,5.259 -2.453,5.177 l -0.241,1.542 c 0.246,0.082 0.594,0.169 1.055,0.251 0.461,0.081 0.958,0.128 1.48,0.128"
                   style="fill:#ffffff;fill-opacity:1;fill-rule:nonzero;stroke:none"
                   id="path74" />
              </g>
              <g
                 transform="translate(172.1359,81.27)"
                 id="g80">
                <path
                   d="m 0,0 c -0.159,0.052 -0.374,0.107 -0.65,0.164 -0.282,0.057 -0.604,0.088 -0.969,0.088 -0.209,0 -0.435,-0.021 -0.67,-0.063 C -2.524,0.144 -2.688,0.107 -2.786,0.077 v -6.591 h -1.9 v 7.835 c 0.364,0.134 0.825,0.267 1.373,0.385 0.552,0.122 1.162,0.179 1.833,0.179 0.128,0 0.271,-0.005 0.44,-0.021 C -0.871,1.849 -0.702,1.828 -0.533,1.803 -0.369,1.772 -0.205,1.741 -0.046,1.706 0.112,1.67 0.235,1.634 0.333,1.604 Z"
                   style="fill:#ffffff;fill-opacity:1;fill-rule:nonzero;stroke:none"
                   id="path78" />
              </g>
              <g
                 transform="translate(174.6554,79.0835)"
                 id="g84">
                <path
                   d="m 0,0 c 0,-0.809 0.179,-1.397 0.527,-1.771 0.354,-0.375 0.804,-0.558 1.362,-0.558 0.303,0 0.589,0.04 0.856,0.128 0.271,0.081 0.486,0.183 0.655,0.296 V 2.361 C 3.262,2.392 3.098,2.418 2.898,2.442 2.698,2.474 2.448,2.483 2.14,2.483 1.449,2.483 0.922,2.259 0.553,1.803 0.184,1.342 0,0.743 0,0 m 5.305,-3.492 c 0,-1.311 -0.333,-2.274 -0.998,-2.878 -0.672,-0.609 -1.69,-0.916 -3.063,-0.916 -0.502,0 -0.994,0.046 -1.47,0.128 -0.476,0.081 -0.911,0.194 -1.3,0.333 l 0.348,1.618 c 0.323,-0.139 0.697,-0.246 1.111,-0.333 0.41,-0.083 0.86,-0.123 1.341,-0.123 0.769,0 1.311,0.158 1.639,0.471 0.323,0.312 0.487,0.783 0.487,1.398 v 0.317 C 3.21,-3.574 2.959,-3.666 2.652,-3.759 2.345,-3.855 1.987,-3.901 1.592,-3.901 c -0.527,0 -1.003,0.081 -1.439,0.25 -0.435,0.17 -0.809,0.415 -1.121,0.738 -0.307,0.327 -0.548,0.731 -0.722,1.224 -0.174,0.486 -0.261,1.049 -0.261,1.689 0,0.6 0.092,1.147 0.276,1.649 0.185,0.507 0.451,0.938 0.804,1.29 0.349,0.359 0.779,0.636 1.28,0.835 0.508,0.2 1.076,0.297 1.716,0.297 0.62,0 1.208,-0.046 1.762,-0.138 C 4.444,3.836 4.916,3.738 5.305,3.631 Z"
                   style="fill:#ffffff;fill-opacity:1;fill-rule:nonzero;stroke:none"
                   id="path82" />
              </g>
              <g
                 transform="translate(186.8171,79.6831)"
                 id="g88">
                <path
                   d="m 0,0 c 0,0.261 -0.036,0.507 -0.113,0.742 -0.071,0.241 -0.179,0.441 -0.322,0.615 -0.139,0.174 -0.313,0.312 -0.517,0.41 -0.205,0.102 -0.451,0.148 -0.733,0.148 -0.292,0 -0.548,-0.052 -0.773,-0.164 C -2.678,1.644 -2.863,1.495 -3.016,1.321 -3.165,1.142 -3.283,0.937 -3.37,0.706 -3.452,0.477 -3.507,0.24 -3.539,0 Z m -5.525,-0.85 c 0,0.722 0.107,1.357 0.322,1.9 0.215,0.548 0.502,0.998 0.861,1.361 0.353,0.364 0.762,0.636 1.223,0.82 0.467,0.184 0.938,0.277 1.419,0.277 1.132,0 2.018,-0.354 2.653,-1.056 C 1.583,1.751 1.9,0.701 1.9,-0.696 1.9,-0.799 1.9,-0.917 1.895,-1.05 1.89,-1.178 1.879,-1.296 1.87,-1.403 h -5.429 c 0.056,-0.66 0.287,-1.173 0.702,-1.532 0.415,-0.363 1.014,-0.543 1.802,-0.543 0.461,0 0.881,0.041 1.265,0.124 0.384,0.086 0.686,0.173 0.906,0.266 L 1.368,-4.645 C 1.26,-4.695 1.116,-4.752 0.937,-4.809 0.753,-4.865 0.543,-4.916 0.307,-4.968 0.072,-5.014 -0.184,-5.055 -0.456,-5.085 c -0.276,-0.031 -0.553,-0.046 -0.835,-0.046 -0.722,0 -1.351,0.108 -1.889,0.322 -0.532,0.215 -0.973,0.512 -1.321,0.897 -0.343,0.384 -0.604,0.835 -0.769,1.351 -0.168,0.523 -0.255,1.091 -0.255,1.711"
                   style="fill:#ffffff;fill-opacity:1;fill-rule:nonzero;stroke:none"
                   id="path86" />
              </g>
              <g
                 transform="translate(190.0075,85.1567)"
                 id="g92">
                <path
                   d="M 0,0 1.905,0.312 V -2.171 H 4.829 V -3.764 H 1.905 v -3.348 c 0,-0.661 0.102,-1.132 0.312,-1.414 0.21,-0.287 0.569,-0.425 1.071,-0.425 0.348,0 0.655,0.036 0.921,0.107 0.267,0.073 0.481,0.144 0.635,0.205 l 0.318,-1.51 c -0.221,-0.092 -0.513,-0.19 -0.866,-0.292 -0.358,-0.097 -0.778,-0.149 -1.259,-0.149 -0.589,0 -1.076,0.077 -1.47,0.236 -0.395,0.159 -0.707,0.384 -0.938,0.686 -0.23,0.297 -0.394,0.66 -0.485,1.086 C 0.046,-8.157 0,-7.676 0,-7.128 Z"
                   style="fill:#ffffff;fill-opacity:1;fill-rule:nonzero;stroke:none"
                   id="path90" />
              </g>
              <g
                 transform="translate(201.1608,76.3901)"
                 id="g96">
                <path
                   d="m 0,0 c 0.117,-0.01 0.266,-0.016 0.456,-0.021 0.189,-0.004 0.445,-0.009 0.773,-0.009 1.332,0 2.325,0.338 2.98,1.013 0.656,0.681 0.983,1.623 0.983,2.842 0,1.239 -0.322,2.187 -0.963,2.848 C 3.589,7.333 2.602,7.666 1.259,7.666 0.67,7.666 0.25,7.646 0,7.615 Z M 7.266,3.825 C 7.266,2.883 7.123,2.059 6.826,1.362 6.534,0.666 6.119,0.082 5.576,-0.384 5.039,-0.851 4.388,-1.198 3.625,-1.423 2.867,-1.648 2.022,-1.762 1.101,-1.762 c -0.441,0 -0.937,0.021 -1.496,0.057 -0.553,0.036 -1.085,0.112 -1.587,0.23 V 9.109 c 0.502,0.119 1.04,0.191 1.603,0.221 0.568,0.031 1.07,0.046 1.51,0.046 0.912,0 1.747,-0.107 2.504,-0.322 C 4.388,8.839 5.039,8.506 5.576,8.05 6.119,7.595 6.534,7.016 6.826,6.319 7.123,5.623 7.266,4.788 7.266,3.825"
                   style="fill:#ffffff;fill-opacity:1;fill-rule:nonzero;stroke:none"
                   id="path94" />
              </g>
              <g
                 transform="translate(250.5509,71.229)"
                 id="g100">
                <path
                   d="m 0,0 c -0.169,0 -0.343,-0.006 -0.522,-0.011 -0.18,-0.005 -0.343,-0.015 -0.502,-0.036 v -6.891 c 0.118,-0.011 0.251,-0.017 0.399,-0.021 0.154,-0.011 0.333,-0.011 0.543,-0.011 1.229,0 2.141,0.308 2.729,0.927 0.595,0.619 0.892,1.475 0.892,2.565 0,1.143 -0.282,2.008 -0.851,2.597 C 2.12,-0.292 1.224,0 0,0"
                   style="fill:#ffffff;fill-opacity:1;fill-rule:nonzero;stroke:none"
                   id="path98" />
              </g>
              <g
                 transform="translate(256.1789,65.2837)"
                 id="g104">
                <path
                   d="M 0,0 C -0.292,-0.707 -0.707,-1.286 -1.25,-1.746 -1.788,-2.207 -2.448,-2.556 -3.221,-2.786 -4,-3.017 -4.87,-3.134 -5.833,-3.134 c -0.44,0 -0.958,0.021 -1.541,0.056 -0.589,0.036 -1.168,0.113 -1.731,0.23 V 7.769 c 0.563,0.107 1.157,0.178 1.767,0.214 0.614,0.036 1.142,0.051 1.582,0.051 0.932,0 1.782,-0.102 2.54,-0.312 0.763,-0.21 1.413,-0.538 1.961,-0.993 C -0.712,6.278 -0.292,5.704 0,5.003 0.297,4.296 0.44,3.451 0.44,2.468 0.44,1.525 0.297,0.701 0,0 m -11.62,-2.991 h -2.063 c -0.701,1.25 -1.459,2.479 -2.279,3.697 -0.819,1.214 -1.69,2.366 -2.611,3.446 v -7.143 h -2.422 V 7.911 h 1.996 c 0.344,-0.348 0.728,-0.773 1.148,-1.275 0.419,-0.502 0.85,-1.039 1.285,-1.613 0.43,-0.568 0.865,-1.163 1.295,-1.777 0.431,-0.614 0.835,-1.203 1.214,-1.771 v 6.436 h 2.437 z m -11.659,0.363 c -0.292,-0.117 -0.769,-0.24 -1.419,-0.373 -0.65,-0.128 -1.449,-0.195 -2.407,-0.195 -0.814,0 -1.557,0.129 -2.222,0.38 -0.666,0.251 -1.235,0.619 -1.711,1.1 -0.47,0.482 -0.834,1.075 -1.09,1.777 -0.256,0.702 -0.384,1.505 -0.384,2.407 0,0.911 0.138,1.72 0.425,2.422 0.281,0.702 0.67,1.3 1.162,1.788 0.491,0.485 1.07,0.854 1.737,1.105 0.665,0.251 1.376,0.379 2.135,0.379 0.511,0 0.978,-0.036 1.387,-0.102 0.415,-0.067 0.773,-0.149 1.07,-0.236 0.303,-0.087 0.548,-0.179 0.743,-0.276 0.194,-0.092 0.333,-0.169 0.415,-0.22 l -0.707,-1.967 c -0.338,0.18 -0.722,0.333 -1.157,0.466 -0.435,0.128 -0.912,0.195 -1.424,0.195 -1.142,0 -1.966,-0.318 -2.478,-0.953 -0.507,-0.634 -0.763,-1.5 -0.763,-2.601 0,-0.532 0.066,-1.019 0.189,-1.454 0.129,-0.436 0.318,-0.809 0.569,-1.127 0.25,-0.312 0.563,-0.558 0.942,-0.732 0.379,-0.169 0.819,-0.256 1.321,-0.256 0.271,0 0.507,0.004 0.702,0.015 0.194,0.01 0.363,0.03 0.512,0.062 v 3.789 h 2.453 z m -15.213,7.2 h -74.641 v 18.927 h 74.641 z m 0,-21.548 H -74.496 V 1.951 h 36.004 z m -38.626,0 h -36.015 V 1.951 h 36.015 z m -38.637,21.548 h -74.897 v 18.927 h 74.897 z m 0,-21.548 h -36.02 V 1.951 h 36.02 z m -38.641,0 h -36.256 V 1.951 h 36.256 z m -38.878,0 h -29.676 c -5.018,0 -9.099,4.081 -9.099,9.095 v 22.285 c 0,5.014 4.081,9.095 9.099,9.095 h 29.676 z M -5.939,26.121 H -222.95 c -6.462,0 -11.721,-5.254 -11.721,-11.717 V -7.881 c 0,-6.463 5.259,-11.717 11.721,-11.717 H -5.939 c 6.462,0 11.717,5.254 11.717,11.717 v 22.285 c 0,6.463 -5.255,11.717 -11.717,11.717"
                   style="fill:#ffffff;fill-opacity:1;fill-rule:nonzero;stroke:none"
                   id="path102" />
              </g>
            </g>
          </g>
        </g>
        <g
           id="g110"
           transform="translate(46.2004,23.4126)">
          <path
             d="M 0,0 H -2.187 V 7.328 C -2.481,7.132 -2.811,6.953 -3.171,6.793 -3.535,6.63 -3.886,6.492 -4.228,6.372 L -4.89,8.063 c 0.285,0.116 0.581,0.25 0.889,0.403 0.309,0.15 0.609,0.318 0.903,0.5 0.294,0.181 0.574,0.372 0.844,0.573 0.27,0.198 0.512,0.413 0.727,0.639 H 0 Z m -1.751,15.996 c -6.024,0 -10.907,-4.884 -10.907,-10.907 0,-6.025 4.883,-10.907 10.907,-10.907 6.023,0 10.907,4.882 10.907,10.907 0,6.023 -4.884,10.907 -10.907,10.907"
             style="fill:#ffffff;fill-opacity:1;fill-rule:nonzero;stroke:none"
             id="path112" />
        </g>
        <g
           id="g114"
           transform="translate(87.0114,23.2944)">
          <path
             d="m 0,0 h -6.783 c -0.02,0.107 -0.029,0.244 -0.029,0.411 v 0.352 c 0,0.47 0.074,0.9 0.227,1.293 0.15,0.391 0.349,0.757 0.595,1.094 0.244,0.337 0.521,0.653 0.829,0.947 0.309,0.294 0.615,0.588 0.918,0.882 0.235,0.224 0.454,0.437 0.66,0.638 0.206,0.2 0.387,0.397 0.545,0.588 0.155,0.191 0.277,0.382 0.366,0.571 0.088,0.191 0.133,0.385 0.133,0.58 0,0.431 -0.124,0.735 -0.368,0.912 -0.243,0.176 -0.55,0.265 -0.91,0.265 -0.266,0 -0.512,-0.044 -0.741,-0.127 C -4.79,8.325 -5,8.227 -5.189,8.114 -5.38,8 -5.545,7.888 -5.682,7.775 -5.82,7.663 -5.923,7.572 -5.99,7.505 l -1.088,1.527 c 0.431,0.4 0.933,0.732 1.506,0.989 0.572,0.261 1.186,0.39 1.843,0.39 0.598,0 1.112,-0.069 1.542,-0.205 0.43,-0.137 0.786,-0.33 1.063,-0.581 0.28,-0.249 0.486,-0.552 0.617,-0.91 0.134,-0.357 0.198,-0.761 0.198,-1.21 0,-0.373 -0.071,-0.732 -0.219,-1.073 C -0.674,6.09 -0.865,5.758 -1.1,5.439 -1.336,5.122 -1.599,4.816 -1.893,4.522 -2.187,4.229 -2.477,3.951 -2.761,3.686 -2.907,3.549 -3.067,3.394 -3.236,3.225 -3.409,3.052 -3.573,2.878 -3.729,2.701 -3.887,2.526 -4.025,2.361 -4.147,2.211 -4.269,2.058 -4.346,1.934 -4.374,1.836 H 0 Z m -3.539,16.112 c -6.024,0 -10.907,-4.883 -10.907,-10.906 0,-6.024 4.883,-10.907 10.907,-10.907 6.024,0 10.907,4.883 10.907,10.907 0,6.023 -4.883,10.906 -10.907,10.906"
             style="fill:#ffffff;fill-opacity:1;fill-rule:nonzero;stroke:none"
             id="path116" />
        </g>
        <g
           id="g118"
           transform="translate(125.7766,25.8003)">
          <path
             d="m 0,0 c -0.155,-0.397 -0.402,-0.741 -0.734,-1.03 -0.332,-0.289 -0.755,-0.515 -1.269,-0.677 -0.514,-0.16 -1.123,-0.241 -1.829,-0.241 -0.265,0 -0.542,0.016 -0.836,0.05 -0.294,0.036 -0.579,0.081 -0.853,0.141 -0.273,0.057 -0.524,0.121 -0.749,0.191 -0.224,0.067 -0.401,0.131 -0.528,0.189 l 0.426,1.821 C -6.119,0.337 -5.792,0.222 -5.397,0.1 -5,-0.021 -4.508,-0.084 -3.92,-0.084 c 0.676,0 1.169,0.127 1.484,0.382 0.313,0.254 0.469,0.598 0.469,1.028 0,0.266 -0.055,0.487 -0.17,0.669 -0.112,0.18 -0.265,0.328 -0.461,0.441 -0.196,0.112 -0.428,0.19 -0.698,0.233 -0.27,0.046 -0.555,0.067 -0.858,0.067 h -0.853 v 1.762 h 0.97 c 0.215,0 0.423,0.019 0.624,0.06 0.201,0.038 0.38,0.105 0.535,0.198 0.158,0.091 0.282,0.22 0.376,0.38 0.093,0.163 0.138,0.366 0.138,0.609 0,0.187 -0.038,0.35 -0.117,0.485 C -2.56,6.367 -2.66,6.479 -2.782,6.567 -2.904,6.656 -3.045,6.723 -3.208,6.766 -3.37,6.812 -3.533,6.833 -3.7,6.833 -4.121,6.833 -4.51,6.769 -4.866,6.642 -5.225,6.515 -5.55,6.357 -5.844,6.171 l -0.779,1.601 c 0.158,0.098 0.342,0.201 0.552,0.309 0.21,0.107 0.442,0.205 0.698,0.294 0.253,0.088 0.526,0.162 0.815,0.22 0.287,0.059 0.595,0.088 0.918,0.088 0.595,0 1.114,-0.072 1.549,-0.213 0.435,-0.141 0.796,-0.342 1.077,-0.6 0.285,-0.261 0.495,-0.563 0.634,-0.91 0.136,-0.347 0.205,-0.725 0.205,-1.136 0,-0.401 -0.112,-0.789 -0.339,-1.166 C -0.739,4.282 -1.042,3.996 -1.425,3.8 -0.894,3.585 -0.485,3.265 -0.198,2.837 0.091,2.411 0.236,1.899 0.236,1.3 0.236,0.829 0.158,0.396 0,0 m -3.281,14.274 c -6.023,0 -10.907,-4.883 -10.907,-10.907 0,-6.023 4.884,-10.907 10.907,-10.907 6.024,0 10.907,4.884 10.907,10.907 0,6.024 -4.883,10.907 -10.907,10.907"
             style="fill:#ffffff;fill-opacity:1;fill-rule:nonzero;stroke:none"
             id="path120" />
        </g>
        <g
           id="g122"
           transform="translate(159.0988,28.6577)">
          <path
             d="M 0,0 H 2.306 V 3.437 C 1.924,2.938 1.518,2.392 1.087,1.807 0.657,1.219 0.294,0.616 0,0"
             style="fill:#ffffff;fill-opacity:1;fill-rule:nonzero;stroke:none"
             id="path124" />
        </g>
        <g
           id="g126"
           transform="translate(164.6364,26.8647)">
          <path
             d="M 0,0 H -1.087 V -2.275 H -3.231 V 0 h -4.391 v 1.602 c 0.215,0.429 0.485,0.918 0.808,1.46 0.323,0.544 0.681,1.101 1.078,1.675 0.397,0.572 0.815,1.133 1.257,1.68 0.44,0.55 0.88,1.043 1.322,1.484 h 2.07 V 1.793 l 1.087,0 z m -3.117,13.026 c -6.024,0 -10.907,-4.882 -10.907,-10.907 0,-6.023 4.883,-10.907 10.907,-10.907 6.024,0 10.907,4.884 10.907,10.907 0,6.025 -4.883,10.907 -10.907,10.907"
             style="fill:#ffffff;fill-opacity:1;fill-rule:nonzero;stroke:none"
             id="path128" />
        </g>
        <g
           id="g130"
           transform="translate(203.7526,26.2544)">
          <path
             d="M 0,0 C -0.167,-0.401 -0.416,-0.748 -0.748,-1.042 -1.083,-1.336 -1.501,-1.565 -2.005,-1.733 -2.51,-1.897 -3.1,-1.981 -3.774,-1.981 c -0.266,0 -0.542,0.016 -0.83,0.049 -0.289,0.036 -0.568,0.079 -0.838,0.134 -0.268,0.053 -0.512,0.111 -0.727,0.168 -0.215,0.06 -0.38,0.117 -0.499,0.177 l 0.397,1.807 c 0.246,-0.108 0.568,-0.213 0.97,-0.316 0.401,-0.102 0.882,-0.155 1.439,-0.155 0.676,0 1.164,0.134 1.467,0.404 0.304,0.27 0.457,0.585 0.457,0.946 0,0.285 -0.065,0.538 -0.191,0.758 -0.127,0.22 -0.347,0.404 -0.663,0.55 -0.313,0.147 -0.733,0.26 -1.262,0.339 -0.528,0.076 -1.195,0.117 -1.995,0.117 0.107,0.911 0.193,1.836 0.262,2.775 0.07,0.939 0.122,1.822 0.163,2.644 h 5.507 V 6.58 H -3.789 C -3.81,6.227 -3.832,5.887 -3.855,5.56 -3.879,5.231 -3.905,4.945 -3.937,4.699 -2.507,4.601 -1.451,4.267 -0.772,3.692 -0.091,3.121 0.249,2.325 0.249,1.308 0.249,0.836 0.165,0.401 0,0 m -3.21,14.124 c -6.024,0 -10.907,-4.883 -10.907,-10.907 0,-6.024 4.883,-10.907 10.907,-10.907 6.024,0 10.907,4.883 10.907,10.907 0,6.024 -4.883,10.907 -10.907,10.907"
             style="fill:#ffffff;fill-opacity:1;fill-rule:nonzero;stroke:none"
             id="path132" />
        </g>
        <g
           id="g134"
           transform="translate(239.4035,29.2583)">
          <path
             d="m 0,0 c -0.215,0 -0.444,-0.02 -0.688,-0.06 -0.247,-0.039 -0.437,-0.093 -0.574,-0.16 0,-0.041 -0.002,-0.098 -0.007,-0.177 -0.005,-0.079 -0.007,-0.146 -0.007,-0.206 0,-0.351 0.024,-0.685 0.074,-0.999 0.048,-0.313 0.131,-0.587 0.248,-0.822 0.118,-0.234 0.275,-0.418 0.471,-0.55 0.196,-0.133 0.44,-0.198 0.734,-0.198 0.244,0 0.452,0.05 0.624,0.153 0.172,0.103 0.313,0.234 0.425,0.39 0.113,0.157 0.196,0.329 0.251,0.521 0.053,0.191 0.079,0.375 0.079,0.551 0,0.5 -0.124,0.883 -0.373,1.153 C 1.006,-0.134 0.588,0 0,0"
             style="fill:#ffffff;fill-opacity:1;fill-rule:nonzero;stroke:none"
             id="path136" />
        </g>
        <g
           id="g138"
           transform="translate(242.9958,26.5259)">
          <path
             d="m 0,0 c -0.143,-0.411 -0.358,-0.784 -0.647,-1.116 -0.29,-0.332 -0.656,-0.607 -1.1,-0.822 -0.447,-0.215 -0.973,-0.323 -1.58,-0.323 -1.224,0 -2.153,0.387 -2.789,1.159 -0.638,0.775 -0.956,1.841 -0.956,3.204 0,0.977 0.153,1.844 0.456,2.597 0.304,0.755 0.737,1.389 1.301,1.903 0.561,0.513 1.242,0.906 2.041,1.173 0.795,0.271 1.694,0.41 2.693,0.421 0.019,-0.303 0.039,-0.6 0.06,-0.889 0.019,-0.289 0.038,-0.59 0.058,-0.904 C -0.963,6.394 -1.429,6.346 -1.867,6.265 -2.302,6.182 -2.698,6.05 -3.055,5.875 -3.413,5.698 -3.724,5.472 -3.987,5.191 -4.252,4.912 -4.458,4.572 -4.604,4.171 c 0.216,0.099 0.436,0.167 0.66,0.206 0.225,0.038 0.435,0.06 0.631,0.06 0.636,0 1.179,-0.086 1.623,-0.258 C -1.245,4.006 -0.879,3.774 -0.595,3.48 -0.311,3.187 -0.105,2.845 0.021,2.452 0.148,2.061 0.213,1.645 0.213,1.205 0.213,0.812 0.141,0.411 0,0 m -3.43,13.875 c -6.024,0 -10.907,-4.884 -10.907,-10.907 0,-6.024 4.883,-10.907 10.907,-10.907 6.024,0 10.908,4.883 10.908,10.907 0,6.023 -4.884,10.907 -10.908,10.907"
             style="fill:#ffffff;fill-opacity:1;fill-rule:nonzero;stroke:none"
             id="path140" />
        </g>
        <g
           id="g142"
           transform="translate(98.2536,127.4067)">
          <path
             d="M 0,0 C 0.996,0 1.802,0.807 1.802,1.802"
             style="fill:none;stroke:#ffffff;stroke-width:0.3;stroke-linecap:round;stroke-linejoin:round;stroke-miterlimit:10;stroke-dasharray:none;stroke-opacity:1"
             id="path144" />
        </g>
        <g
           id="g146"
           transform="translate(99.9792,136.4565)">
          <path
             d="M 0,0 V -7.209"
             style="fill:none;stroke:#ffffff;stroke-width:0.3;stroke-linecap:round;stroke-linejoin:round;stroke-miterlimit:10;stroke-dasharray:none;stroke-opacity:1"
             id="path148" />
        </g>
        <g
           id="g150"
           transform="translate(81.1891,129.2085)">
          <path
             d="M 0,0 C 0,-0.995 0.807,-1.802 1.802,-1.802"
             style="fill:none;stroke:#ffffff;stroke-width:0.3;stroke-linecap:round;stroke-linejoin:round;stroke-miterlimit:10;stroke-dasharray:none;stroke-opacity:1"
             id="path152" />
        </g>
        <g
           id="g154"
           transform="translate(98.215,127.4067)">
          <path
             d="M 0,0 H -15.262"
             style="fill:none;stroke:#ffffff;stroke-width:0.3;stroke-linecap:round;stroke-linejoin:round;stroke-miterlimit:10;stroke-dasharray:none;stroke-opacity:1"
             id="path156" />
        </g>
        <g
           id="g158"
           transform="translate(100.0558,136.4185)">
          <path
             d="M 0,0 C 0,0.995 -0.807,1.802 -1.802,1.802"
             style="fill:none;stroke:#ffffff;stroke-width:0.3;stroke-linecap:round;stroke-linejoin:round;stroke-miterlimit:10;stroke-dasharray:none;stroke-opacity:1"
             id="path160" />
        </g>
        <g
           id="g162"
           transform="translate(82.9533,138.2974)">
          <path
             d="M 0,0 H 15.262"
             style="fill:none;stroke:#ffffff;stroke-width:0.3;stroke-linecap:round;stroke-linejoin:round;stroke-miterlimit:10;stroke-dasharray:none;stroke-opacity:1"
             id="path164" />
        </g>
        <g
           id="g166"
           transform="translate(82.9914,138.2202)">
          <path
             d="M 0,0 C -0.995,0 -1.802,-0.807 -1.802,-1.802"
             style="fill:none;stroke:#ffffff;stroke-width:0.3;stroke-linecap:round;stroke-linejoin:round;stroke-miterlimit:10;stroke-dasharray:none;stroke-opacity:1"
             id="path168" />
        </g>
        <g
           id="g170"
           transform="translate(81.1125,129.2476)">
          <path
             d="M 0,0 V 7.209"
             style="fill:none;stroke:#ffffff;stroke-width:0.3;stroke-linecap:round;stroke-linejoin:round;stroke-miterlimit:10;stroke-dasharray:none;stroke-opacity:1"
             id="path172" />
        </g>
        <g
           id="g174"
           transform="translate(64.9416,148.0259)">
          <path
             d="m 0,0 c -6.963,0.242 -13.504,-3.334 -17.057,-9.327 -3.553,-5.994 -3.553,-13.448 10e-4,-19.442 3.554,-5.992 10.095,-9.568 17.057,-9.325"
             style="fill:none;stroke:#ffffff;stroke-width:0.3;stroke-linecap:round;stroke-linejoin:round;stroke-miterlimit:10;stroke-dasharray:none;stroke-opacity:1"
             id="path176" />
        </g>
        <g
           id="g178"
           transform="translate(237.8747,109.9966)">
          <path
             d="M 0,0 H -172.944"
             style="fill:none;stroke:#ffffff;stroke-width:0.3;stroke-linecap:round;stroke-linejoin:round;stroke-miterlimit:10;stroke-dasharray:none;stroke-opacity:1"
             id="path180" />
        </g>
        <g
           id="g182"
           transform="translate(237.9435,109.9321)">
          <path
             d="m 0,0 c 6.884,-0.239 13.36,3.255 16.94,9.139 3.581,5.883 3.708,13.242 0.333,19.246 -3.374,6.004 -9.726,9.719 -16.613,9.719"
             style="fill:none;stroke:#ffffff;stroke-width:0.3;stroke-linecap:round;stroke-linejoin:round;stroke-miterlimit:10;stroke-dasharray:none;stroke-opacity:1"
             id="path184" />
        </g>
        <g
           id="g186"
           transform="translate(64.9304,148.1138)">
          <path
             d="M 0,0 H 173.635"
             style="fill:none;stroke:#ffffff;stroke-width:0.3;stroke-linecap:round;stroke-linejoin:round;stroke-miterlimit:10;stroke-dasharray:none;stroke-opacity:1"
             id="path188" />
        </g>
        <g
           id="g190"
           transform="translate(237.8713,105.5601)">
          <path
             d="m 0,0 c 8.426,-0.264 16.34,4.05 20.708,11.285 4.367,7.236 4.508,16.271 0.37,23.639 C 16.94,42.292 9.165,46.85 0.734,46.849"
             style="fill:none;stroke:#ffffff;stroke-width:0.3;stroke-linecap:round;stroke-linejoin:round;stroke-miterlimit:10;stroke-dasharray:none;stroke-opacity:1"
             id="path192" />
        </g>
        <g
           id="g194"
           transform="translate(237.8747,109.9966)">
          <path
             d="M 0,0 V -4.371"
             style="fill:none;stroke:#ffffff;stroke-width:0.3;stroke-linecap:round;stroke-linejoin:round;stroke-miterlimit:10;stroke-dasharray:none;stroke-opacity:1"
             id="path196" />
        </g>
        <g
           id="g198"
           transform="translate(64.9304,109.9966)">
          <path
             d="M 0,0 0.077,-4.371 H 172.944"
             style="fill:none;stroke:#ffffff;stroke-width:0.3;stroke-linecap:round;stroke-linejoin:round;stroke-miterlimit:10;stroke-dasharray:none;stroke-opacity:1"
             id="path200" />
        </g>
        <g
           id="g202"
           transform="translate(65.0148,152.4741)">
          <path
             d="m 0,0 c -8.514,0.268 -16.5,-4.137 -20.836,-11.494 -4.338,-7.357 -4.339,-16.498 -0.003,-23.854 4.336,-7.356 12.32,-11.758 20.834,-11.489"
             style="fill:none;stroke:#ffffff;stroke-width:0.3;stroke-linecap:round;stroke-linejoin:round;stroke-miterlimit:10;stroke-dasharray:none;stroke-opacity:1"
             id="path204" />
        </g>
        <g
           id="g206"
           transform="translate(64.9304,148.1138)">
          <path
             d="M 0,0 0.077,4.372 173.635,4.371"
             style="fill:none;stroke:#ffffff;stroke-width:0.3;stroke-linecap:round;stroke-linejoin:round;stroke-miterlimit:10;stroke-dasharray:none;stroke-opacity:1"
             id="path208" />
        </g>
        <g
           id="g210"
           transform="translate(62.7829,152.4858)">
          <path
             d="M 0,0 H 0.69"
             style="fill:none;stroke:#ffffff;stroke-width:0.3;stroke-linecap:round;stroke-linejoin:round;stroke-miterlimit:10;stroke-dasharray:none;stroke-opacity:1"
             id="path212" />
        </g>
        <g
           id="g214"
           transform="translate(63.4728,105.6255)">
          <path
             d="M 0,0 H -0.69"
             style="fill:none;stroke:#ffffff;stroke-width:0.3;stroke-linecap:round;stroke-linejoin:round;stroke-miterlimit:10;stroke-dasharray:none;stroke-opacity:1"
             id="path216" />
        </g>
        <g
           id="g218"
           transform="translate(97.0646,127.7896)">
          <path
             d="M 0,0 H 1.458"
             style="fill:none;stroke:#ffffff;stroke-width:0.3;stroke-linecap:round;stroke-linejoin:round;stroke-miterlimit:10;stroke-dasharray:none;stroke-opacity:1"
             id="path220" />
        </g>
        <g
           id="g222"
           transform="translate(81.8796,127.7896)">
          <path
             d="M 0,0 H 0.69"
             style="fill:none;stroke:#ffffff;stroke-width:0.3;stroke-linecap:round;stroke-linejoin:round;stroke-miterlimit:10;stroke-dasharray:none;stroke-opacity:1"
             id="path224" />
        </g>
        <g
           id="g226"
           transform="translate(98.5222,127.7896)">
          <path
             d="M 0,0 V -0.307"
             style="fill:none;stroke:#ffffff;stroke-width:0.3;stroke-linecap:round;stroke-linejoin:round;stroke-miterlimit:10;stroke-dasharray:none;stroke-opacity:1"
             id="path228" />
        </g>
        <g
           id="g230"
           transform="translate(97.0646,127.7896)">
          <path
             d="M 0,0 V 8.283 H -14.495 V 7.21"
             style="fill:none;stroke:#ffffff;stroke-width:0.3;stroke-linecap:round;stroke-linejoin:round;stroke-miterlimit:10;stroke-dasharray:none;stroke-opacity:1"
             id="path232" />
        </g>
        <g
           id="g234"
           transform="translate(96.3747,136.0728)">
          <path
             d="M 0,0 V -8.283"
             style="fill:none;stroke:#ffffff;stroke-width:0.3;stroke-linecap:round;stroke-linejoin:round;stroke-miterlimit:10;stroke-dasharray:none;stroke-opacity:1"
             id="path236" />
        </g>
        <g
           id="g238"
           transform="translate(82.5695,127.7896)">
          <path
             d="M 0,0 H 1.841 3.682 5.445 7.286"
             style="fill:none;stroke:#ffffff;stroke-width:0.3;stroke-linecap:round;stroke-linejoin:round;stroke-miterlimit:10;stroke-dasharray:none;stroke-opacity:1"
             id="path240" />
        </g>
        <g
           id="g242"
           transform="translate(89.8557,134.9995)">
          <path
             d="M 0,0 H -1.841 -3.604"
             style="fill:none;stroke:#ffffff;stroke-width:0.3;stroke-linecap:round;stroke-linejoin:round;stroke-miterlimit:10;stroke-dasharray:none;stroke-opacity:1"
             id="path244" />
        </g>
        <g
           id="g246"
           transform="translate(86.2512,134.9995)">
          <path
             d="M 0,0 H -1.841 -3.682"
             style="fill:none;stroke:#ffffff;stroke-width:0.3;stroke-linecap:round;stroke-linejoin:round;stroke-miterlimit:10;stroke-dasharray:none;stroke-opacity:1"
             id="path248" />
        </g>
        <g
           id="g250"
           transform="translate(88.0148,127.7896)">
          <path
             d="M 0,0 V 7.21"
             style="fill:none;stroke:#ffffff;stroke-width:0.3;stroke-linecap:round;stroke-linejoin:round;stroke-miterlimit:10;stroke-dasharray:none;stroke-opacity:1"
             id="path252" />
        </g>
        <g
           id="g254"
           transform="translate(89.8557,127.7896)">
          <path
             d="M 0,0 V 7.21"
             style="fill:none;stroke:#ffffff;stroke-width:0.3;stroke-linecap:round;stroke-linejoin:round;stroke-miterlimit:10;stroke-dasharray:none;stroke-opacity:1"
             id="path256" />
        </g>
        <g
           id="g258"
           transform="translate(84.4103,134.9995)">
          <path
             d="M 0,0 V -7.21"
             style="fill:none;stroke:#ffffff;stroke-width:0.3;stroke-linecap:round;stroke-linejoin:round;stroke-miterlimit:10;stroke-dasharray:none;stroke-opacity:1"
             id="path260" />
        </g>
        <g
           id="g262"
           transform="translate(82.5695,134.9995)">
          <path
             d="M 0,0 V -7.21"
             style="fill:none;stroke:#ffffff;stroke-width:0.3;stroke-linecap:round;stroke-linejoin:round;stroke-miterlimit:10;stroke-dasharray:none;stroke-opacity:1"
             id="path264" />
        </g>
        <g
           id="g266"
           transform="translate(86.2512,134.9995)">
          <path
             d="M 0,0 V -7.21"
             style="fill:none;stroke:#ffffff;stroke-width:0.3;stroke-linecap:round;stroke-linejoin:round;stroke-miterlimit:10;stroke-dasharray:none;stroke-opacity:1"
             id="path268" />
        </g>
        <g
           id="g270"
           transform="translate(98.5222,127.7896)">
          <path
             d="M 0,0 V -0.307"
             style="fill:none;stroke:#ffffff;stroke-width:0.3;stroke-linecap:round;stroke-linejoin:round;stroke-miterlimit:10;stroke-dasharray:none;stroke-opacity:1"
             id="path272" />
        </g>
        <g
           id="g274"
           transform="translate(81.8796,127.7896)">
          <path
             d="M 0,0 H 0.69"
             style="fill:none;stroke:#ffffff;stroke-width:0.3;stroke-linecap:round;stroke-linejoin:round;stroke-miterlimit:10;stroke-dasharray:none;stroke-opacity:1"
             id="path276" />
        </g>
        <g
           id="g278"
           transform="translate(89.8557,127.7896)">
          <path
             d="M 0,0 H 8.667"
             style="fill:none;stroke:#ffffff;stroke-width:0.3;stroke-linecap:round;stroke-linejoin:round;stroke-miterlimit:10;stroke-dasharray:none;stroke-opacity:1"
             id="path280" />
        </g>
        <g
           id="g282"
           transform="translate(163.7116,130.7808)">
          <path
             d="M 0,0 V -2.53"
             style="fill:none;stroke:#ffffff;stroke-width:0.3;stroke-linecap:round;stroke-linejoin:round;stroke-miterlimit:10;stroke-dasharray:none;stroke-opacity:1"
             id="path284" />
        </g>
        <g
           id="g286"
           transform="translate(138.403,128.2505)">
          <path
             d="m 0,0 v 2.53 h 1.457 22.395 1.457"
             style="fill:none;stroke:#ffffff;stroke-width:0.3;stroke-linecap:round;stroke-linejoin:round;stroke-miterlimit:10;stroke-dasharray:none;stroke-opacity:1"
             id="path288" />
        </g>
        <g
           id="g290"
           transform="translate(163.7116,128.2505)">
          <path
             d="m 0,0 h -1.457 -22.395 -1.457"
             style="fill:none;stroke:#ffffff;stroke-width:0.3;stroke-linecap:round;stroke-linejoin:round;stroke-miterlimit:10;stroke-dasharray:none;stroke-opacity:1"
             id="path292" />
        </g>
        <path
           d="m 140.167,128.787 h 21.781 v 1.458 h -21.781 z"
           style="fill:none;stroke:#ffffff;stroke-width:0.3;stroke-linecap:round;stroke-linejoin:round;stroke-miterlimit:10;stroke-dasharray:none;stroke-opacity:1"
           id="path294" />
        <g
           id="g296"
           transform="translate(139.86,128.2505)">
          <path
             d="M 0,0 0.307,0.536"
             style="fill:none;stroke:#ffffff;stroke-width:0.3;stroke-linecap:round;stroke-linejoin:round;stroke-miterlimit:10;stroke-dasharray:none;stroke-opacity:1"
             id="path298" />
        </g>
        <g
           id="g300"
           transform="translate(140.1667,130.2446)">
          <path
             d="M 0,0 -0.307,0.536"
             style="fill:none;stroke:#ffffff;stroke-width:0.3;stroke-linecap:round;stroke-linejoin:round;stroke-miterlimit:10;stroke-dasharray:none;stroke-opacity:1"
             id="path302" />
        </g>
        <g
           id="g304"
           transform="translate(161.9479,128.7866)">
          <path
             d="M 0,0 0.307,-0.536"
             style="fill:none;stroke:#ffffff;stroke-width:0.3;stroke-linecap:round;stroke-linejoin:round;stroke-miterlimit:10;stroke-dasharray:none;stroke-opacity:1"
             id="path306" />
        </g>
        <g
           id="g308"
           transform="translate(162.2546,130.7808)">
          <path
             d="M 0,0 -0.307,-0.536"
             style="fill:none;stroke:#ffffff;stroke-width:0.3;stroke-linecap:round;stroke-linejoin:round;stroke-miterlimit:10;stroke-dasharray:none;stroke-opacity:1"
             id="path310" />
        </g>
        <g
           id="g312"
           transform="translate(139.4001,125.2593)">
          <path
             d="M 0,0 H 23.314"
             style="fill:none;stroke:#ffffff;stroke-width:0.3;stroke-linecap:round;stroke-linejoin:round;stroke-miterlimit:10;stroke-dasharray:none;stroke-opacity:1"
             id="path314" />
        </g>
        <g
           id="g316"
           transform="translate(162.7531,125.1821)">
          <path
             d="M 0,0 C 1.715,0 3.106,1.391 3.106,3.106"
             style="fill:none;stroke:#ffffff;stroke-width:0.3;stroke-linecap:round;stroke-linejoin:round;stroke-miterlimit:10;stroke-dasharray:none;stroke-opacity:1"
             id="path318" />
        </g>
        <g
           id="g320"
           transform="translate(165.7824,128.3267)">
          <path
             d="M 0,0 V 2.378"
             style="fill:none;stroke:#ffffff;stroke-width:0.3;stroke-linecap:round;stroke-linejoin:round;stroke-miterlimit:10;stroke-dasharray:none;stroke-opacity:1"
             id="path322" />
        </g>
        <g
           id="g324"
           transform="translate(165.8591,130.6655)">
          <path
             d="M 0,0 C 0,1.716 -1.391,3.106 -3.106,3.106"
             style="fill:none;stroke:#ffffff;stroke-width:0.3;stroke-linecap:round;stroke-linejoin:round;stroke-miterlimit:10;stroke-dasharray:none;stroke-opacity:1"
             id="path326" />
        </g>
        <g
           id="g328"
           transform="translate(162.7145,133.772)">
          <path
             d="M 0,0 H -23.314"
             style="fill:none;stroke:#ffffff;stroke-width:0.3;stroke-linecap:round;stroke-linejoin:round;stroke-miterlimit:10;stroke-dasharray:none;stroke-opacity:1"
             id="path330" />
        </g>
        <g
           id="g332"
           transform="translate(139.4382,133.772)">
          <path
             d="M 0,0 C -1.715,0 -3.106,-1.391 -3.106,-3.106"
             style="fill:none;stroke:#ffffff;stroke-width:0.3;stroke-linecap:round;stroke-linejoin:round;stroke-miterlimit:10;stroke-dasharray:none;stroke-opacity:1"
             id="path334" />
        </g>
        <g
           id="g336"
           transform="translate(136.3322,130.7046)">
          <path
             d="M 0,0 V -2.378"
             style="fill:none;stroke:#ffffff;stroke-width:0.3;stroke-linecap:round;stroke-linejoin:round;stroke-miterlimit:10;stroke-dasharray:none;stroke-opacity:1"
             id="path338" />
        </g>
        <g
           id="g340"
           transform="translate(136.3322,128.2886)">
          <path
             d="M 0,0 C 0,-1.716 1.391,-3.106 3.106,-3.106"
             style="fill:none;stroke:#ffffff;stroke-width:0.3;stroke-linecap:round;stroke-linejoin:round;stroke-miterlimit:10;stroke-dasharray:none;stroke-opacity:1"
             id="path342" />
        </g>
        <path
           d="m 189.373,123.315 h -5.829 v 5.829 h 5.829 z"
           style="fill:none;stroke:#ffffff;stroke-width:0.3;stroke-linecap:round;stroke-linejoin:round;stroke-miterlimit:10;stroke-dasharray:none;stroke-opacity:1"
           id="path344" />
        <path
           d="m 234.801,123.315 h -5.829 v 5.829 h 5.829 z"
           style="fill:none;stroke:#ffffff;stroke-width:0.3;stroke-linecap:round;stroke-linejoin:round;stroke-miterlimit:10;stroke-dasharray:none;stroke-opacity:1"
           id="path346" />
        <path
           d="m 225.715,123.315 h -5.829 v 5.829 h 5.829 z"
           style="fill:none;stroke:#ffffff;stroke-width:0.3;stroke-linecap:round;stroke-linejoin:round;stroke-miterlimit:10;stroke-dasharray:none;stroke-opacity:1"
           id="path348" />
        <path
           d="m 216.63,123.315 h -5.829 v 5.829 h 5.829 z"
           style="fill:none;stroke:#ffffff;stroke-width:0.3;stroke-linecap:round;stroke-linejoin:round;stroke-miterlimit:10;stroke-dasharray:none;stroke-opacity:1"
           id="path350" />
        <path
           d="m 207.544,123.315 h -5.829 v 5.829 h 5.829 z"
           style="fill:none;stroke:#ffffff;stroke-width:0.3;stroke-linecap:round;stroke-linejoin:round;stroke-miterlimit:10;stroke-dasharray:none;stroke-opacity:1"
           id="path352" />
        <path
           d="m 198.459,123.315 h -5.829 v 5.829 h 5.829 z"
           style="fill:none;stroke:#ffffff;stroke-width:0.3;stroke-linecap:round;stroke-linejoin:round;stroke-miterlimit:10;stroke-dasharray:none;stroke-opacity:1"
           id="path354" />
        <path
           d="m 237.769,120.971 h -57.192 v 10.517 h 57.192 z"
           style="fill:none;stroke:#ffffff;stroke-width:0.3;stroke-linecap:round;stroke-linejoin:round;stroke-miterlimit:10;stroke-dasharray:none;stroke-opacity:1"
           id="path356" />
      </g>
    </g>
  </g>
</svg>
