<svg xmlns="http://www.w3.org/2000/svg" viewBox="0 0 283.46 170.08"><defs><style>.cls-1{isolation:isolate;}.cls-2{fill:#2a2b2a;}.cls-3{fill:#ef4849;}.cls-4{fill:#f58837;}.cls-5,.cls-6{fill:none;}.cls-5{stroke:#000;stroke-linecap:round;stroke-linejoin:round;stroke-width:0.3px;}</style></defs><g id="Layer_2" data-name="Layer 2"><g id="Layer_3" data-name="Layer 3"><g class="cls-1"><path class="cls-2" d="M119.47,111h6.09v2.83h-6.09Z"/><path class="cls-2" d="M196.33,111h6.09v2.83h-6.09Z"/><path class="cls-2" d="M79.16,111.12h3.5v-3.87h2.85v3.87H89v2.62H85.51v3.89H82.66v-3.89h-3.5Z"/><path class="cls-2" d="M156,111.12h3.5v-3.87h2.85v3.87h3.5v2.62h-3.5v3.89h-2.85v-3.89H156Z"/><path class="cls-3" d="M31.86,107.6c-.43-.92-.86-1.87-1.28-2.86s-.82-1.95-1.21-2.92-.72-1.88-1-2.76-.6-1.67-.83-2.37h2.71c.2.63.43,1.32.68,2s.51,1.46.76,2.18L32.4,103c.23.66.46,1.23.68,1.71.2-.48.42-1,.67-1.71l.75-2.08c.26-.72.52-1.45.77-2.17s.47-1.41.68-2h2.61q-.36,1.05-.84,2.37c-.32.88-.67,1.8-1,2.77s-.77,1.94-1.19,2.92-.84,1.94-1.28,2.85Z"/><path class="cls-3" d="M44.54,107.82a5.31,5.31,0,0,1-4.06-1.48,5.94,5.94,0,0,1-1.38-4.2,6.37,6.37,0,0,1,.42-2.42,5.09,5.09,0,0,1,1.16-1.79,4.84,4.84,0,0,1,1.77-1.11,6.33,6.33,0,0,1,2.21-.38,7,7,0,0,1,1.26.11,6.62,6.62,0,0,1,1,.23,5.26,5.26,0,0,1,1.12.5l-.71,2a6.07,6.07,0,0,0-1.17-.46,5.85,5.85,0,0,0-1.52-.19,3.5,3.5,0,0,0-1.11.19,2.58,2.58,0,0,0-1,.61,3.06,3.06,0,0,0-.67,1.07,4.73,4.73,0,0,0-.25,1.61,5.79,5.79,0,0,0,.17,1.41,3,3,0,0,0,.53,1.12,2.51,2.51,0,0,0,1,.75,3.5,3.5,0,0,0,1.45.28,5.61,5.61,0,0,0,1-.07c.28,0,.53-.09.75-.14s.42-.13.58-.2l.46-.21.68,2a6,6,0,0,1-1.46.57A8.51,8.51,0,0,1,44.54,107.82Z"/><path class="cls-3" d="M54.34,107.82a5.27,5.27,0,0,1-4.05-1.48,5.9,5.9,0,0,1-1.39-4.2,6.57,6.57,0,0,1,.42-2.42,5,5,0,0,1,1.17-1.79,4.8,4.8,0,0,1,1.76-1.11,6.37,6.37,0,0,1,2.21-.38,6.79,6.79,0,0,1,1.26.11,6.62,6.62,0,0,1,1,.23,5.26,5.26,0,0,1,1.12.5l-.71,2A6.07,6.07,0,0,0,56,98.8a5.85,5.85,0,0,0-1.52-.19,3.55,3.55,0,0,0-1.11.19,2.58,2.58,0,0,0-1,.61,3.06,3.06,0,0,0-.67,1.07,4.73,4.73,0,0,0-.25,1.61,5.79,5.79,0,0,0,.17,1.41,3,3,0,0,0,.53,1.12,2.51,2.51,0,0,0,1,.75,3.5,3.5,0,0,0,1.45.28,5.61,5.61,0,0,0,1-.07c.28,0,.53-.09.75-.14s.42-.13.59-.2l.45-.21.68,2a6,6,0,0,1-1.46.57A8.46,8.46,0,0,1,54.34,107.82Z"/><path class="cls-4" d="M89.6,85.16h2v10.9h-2V91.24H84.86v4.82h-2V85.16h2v4.36H89.6Z"/><path class="cls-4" d="M100.59,91.94a5.28,5.28,0,0,1-.28,1.78,4,4,0,0,1-.8,1.37,3.63,3.63,0,0,1-1.26.88A4.31,4.31,0,0,1,95,96a3.68,3.68,0,0,1-1.25-.88A4.21,4.21,0,0,1,93,93.72a5.27,5.27,0,0,1-.29-1.78A5.11,5.11,0,0,1,93,90.18a4.07,4.07,0,0,1,.82-1.37,3.62,3.62,0,0,1,1.25-.87,4,4,0,0,1,1.59-.31,4,4,0,0,1,1.6.31,3.44,3.44,0,0,1,1.25.87,4,4,0,0,1,.81,1.37A4.89,4.89,0,0,1,100.59,91.94Zm-2,0A3.21,3.21,0,0,0,98.11,90a1.86,1.86,0,0,0-2.94,0,3.21,3.21,0,0,0-.53,1.94,3.29,3.29,0,0,0,.53,2,1.86,1.86,0,0,0,2.94,0A3.29,3.29,0,0,0,98.64,91.94Z"/><path class="cls-4" d="M103.68,94.7a2.36,2.36,0,0,0,1.1-.19.62.62,0,0,0,.34-.62.79.79,0,0,0-.37-.67,5.12,5.12,0,0,0-1.22-.59,7.53,7.53,0,0,1-1-.4,2.89,2.89,0,0,1-.74-.49,2.1,2.1,0,0,1-.5-.68,2.47,2.47,0,0,1-.18-1,2.15,2.15,0,0,1,.83-1.78,3.56,3.56,0,0,1,2.27-.66,6.87,6.87,0,0,1,1.38.14,8.4,8.4,0,0,1,1,.25l-.35,1.55a4.3,4.3,0,0,0-.81-.26,4.72,4.72,0,0,0-1.13-.12,1.85,1.85,0,0,0-.94.2.64.64,0,0,0-.36.6.8.8,0,0,0,.07.36.82.82,0,0,0,.24.3,2.69,2.69,0,0,0,.46.26c.18.09.42.18.69.28a10.18,10.18,0,0,1,1.15.49,3.7,3.7,0,0,1,.78.55,2,2,0,0,1,.45.71,2.88,2.88,0,0,1,.13.94,2,2,0,0,1-.87,1.79,4.44,4.44,0,0,1-2.49.6,6.91,6.91,0,0,1-1.75-.18,8.85,8.85,0,0,1-.92-.29l.32-1.59a9.48,9.48,0,0,0,1,.33A5,5,0,0,0,103.68,94.7Z"/><path class="cls-4" d="M107.77,85.66l1.9-.31v2.49h2.93v1.59h-2.93v3.35a2.41,2.41,0,0,0,.31,1.41,1.23,1.23,0,0,0,1.07.43,3.71,3.71,0,0,0,.93-.11,5.73,5.73,0,0,0,.63-.21l.32,1.51a7.71,7.71,0,0,1-.87.3,5.21,5.21,0,0,1-1.26.14,4,4,0,0,1-1.47-.23,2.19,2.19,0,0,1-.93-.69,2.62,2.62,0,0,1-.49-1.08,6.46,6.46,0,0,1-.14-1.46Z"/><path class="cls-4" d="M125.56,90.61a6.39,6.39,0,0,1-.44,2.46,4.75,4.75,0,0,1-1.25,1.75,5.2,5.2,0,0,1-2,1,8.75,8.75,0,0,1-2.53.34c-.44,0-.94,0-1.49,0a11.06,11.06,0,0,1-1.59-.23V85.32a9,9,0,0,1,1.6-.22c.57,0,1.07,0,1.51,0a9,9,0,0,1,2.51.33,5.18,5.18,0,0,1,1.94,1,4.67,4.67,0,0,1,1.25,1.73A6.5,6.5,0,0,1,125.56,90.61Zm-7.27,3.82.46,0h.77a4,4,0,0,0,3-1,4.66,4.66,0,0,0,0-5.69,4,4,0,0,0-3-1,11,11,0,0,0-1.26.06Z"/><path class="cls-2" d="M159.52,84.42v1.72h-3.35v9.18h-2V86.14h-3.35V84.42Z"/><path class="cls-2" d="M162.42,86.89a4.8,4.8,0,0,1,1.58.23,2.57,2.57,0,0,1,1,.67,2.49,2.49,0,0,1,.55,1,5,5,0,0,1,.16,1.33v5c-.29.06-.74.14-1.33.23a13.35,13.35,0,0,1-2,.14,5.72,5.72,0,0,1-1.36-.15,2.81,2.81,0,0,1-1-.45,2.1,2.1,0,0,1-.68-.82,2.89,2.89,0,0,1-.24-1.24,2.45,2.45,0,0,1,.27-1.2,2.27,2.27,0,0,1,.75-.79,2.94,2.94,0,0,1,1.09-.44,6.16,6.16,0,0,1,1.3-.14,5.07,5.07,0,0,1,.66,0,5.6,5.6,0,0,1,.74.14v-.32a2.18,2.18,0,0,0-.08-.63,1.34,1.34,0,0,0-.27-.53,1.4,1.4,0,0,0-.52-.35,2.39,2.39,0,0,0-.81-.12,7.46,7.46,0,0,0-1.21.09,5.38,5.38,0,0,0-.9.22l-.24-1.54a6.7,6.7,0,0,1,1.06-.25A7.69,7.69,0,0,1,162.42,86.89Zm.16,7.1a7.26,7.26,0,0,0,1.33-.1V91.78a3.9,3.9,0,0,0-.45-.09,4.43,4.43,0,0,0-.66,0,4.6,4.6,0,0,0-.64,0,2,2,0,0,0-.58.17,1.13,1.13,0,0,0-.42.35,1.19,1.19,0,0,0,.27,1.51A2.1,2.1,0,0,0,162.58,94Z"/><path class="cls-2" d="M172.14,88.81c-.16,0-.38-.11-.65-.17a5.68,5.68,0,0,0-1-.08,4,4,0,0,0-.67.06,4.13,4.13,0,0,0-.5.11v6.59h-1.9V87.49a9.42,9.42,0,0,1,1.37-.39,8.77,8.77,0,0,1,1.84-.18l.44,0,.5.07.49.09a3.09,3.09,0,0,1,.38.11Z"/><path class="cls-2" d="M180,94.49a3.71,3.71,0,0,1-1,2.88,4.47,4.47,0,0,1-3.06.91,8,8,0,0,1-1.47-.13,7.47,7.47,0,0,1-1.3-.33l.35-1.62a5.83,5.83,0,0,0,1.11.34,7,7,0,0,0,1.34.12,2.35,2.35,0,0,0,1.64-.47,1.91,1.91,0,0,0,.49-1.4v-.32a4.44,4.44,0,0,1-.75.28,3.48,3.48,0,0,1-1.06.15,3.89,3.89,0,0,1-1.44-.25,3.09,3.09,0,0,1-1.12-.74,3.35,3.35,0,0,1-.72-1.22,5.21,5.21,0,0,1,0-3.34,3.53,3.53,0,0,1,.8-1.29,3.66,3.66,0,0,1,1.28-.84,4.67,4.67,0,0,1,1.72-.3,10.92,10.92,0,0,1,1.76.14c.56.1,1,.2,1.42.3ZM174.66,91a2.55,2.55,0,0,0,.52,1.77,1.81,1.81,0,0,0,1.36.55,3,3,0,0,0,.86-.12,2.55,2.55,0,0,0,.66-.3V88.63l-.51-.08a5.28,5.28,0,0,0-.75,0,1.93,1.93,0,0,0-1.59.68A2.79,2.79,0,0,0,174.66,91Z"/><path class="cls-2" d="M181.29,91.25a5.21,5.21,0,0,1,.32-1.9,4.27,4.27,0,0,1,.86-1.37,3.74,3.74,0,0,1,1.23-.82,3.89,3.89,0,0,1,1.42-.27,3.41,3.41,0,0,1,2.65,1,4.58,4.58,0,0,1,.95,3.15c0,.1,0,.22,0,.36s0,.24,0,.35h-5.43a2.13,2.13,0,0,0,.7,1.53,2.65,2.65,0,0,0,1.8.54,6.3,6.3,0,0,0,1.27-.12,5.23,5.23,0,0,0,.9-.27l.25,1.56a2.48,2.48,0,0,1-.43.16,5.74,5.74,0,0,1-.63.16,8.3,8.3,0,0,1-1.59.17,4.91,4.91,0,0,1-1.89-.33,3.39,3.39,0,0,1-1.32-.89,3.63,3.63,0,0,1-.77-1.35A5.52,5.52,0,0,1,181.29,91.25Zm5.53-.85a2.31,2.31,0,0,0-.12-.75,1.55,1.55,0,0,0-.32-.61,1.4,1.4,0,0,0-.52-.41,1.64,1.64,0,0,0-.73-.15,1.71,1.71,0,0,0-.77.16,1.86,1.86,0,0,0-.56.43,2,2,0,0,0-.35.62,3.34,3.34,0,0,0-.17.71Z"/><path class="cls-2" d="M190,84.92l1.9-.31v2.48h2.93v1.6h-2.93V92a2.43,2.43,0,0,0,.31,1.42,1.27,1.27,0,0,0,1.08.42,3.71,3.71,0,0,0,.92-.1c.26-.08.48-.15.63-.21l.32,1.51a8,8,0,0,1-.87.29,4.63,4.63,0,0,1-1.26.15,4.2,4.2,0,0,1-1.47-.23,2.19,2.19,0,0,1-.93-.69,2.66,2.66,0,0,1-.49-1.09,6.31,6.31,0,0,1-.14-1.45Z"/><path class="cls-2" d="M208.43,89.86a6.41,6.41,0,0,1-.44,2.47,4.71,4.71,0,0,1-1.25,1.74,5.08,5.08,0,0,1-2,1,8.75,8.75,0,0,1-2.53.34c-.44,0-.94,0-1.49-.06a8.82,8.82,0,0,1-1.59-.23V84.58a9,9,0,0,1,1.6-.22c.57,0,1.07,0,1.51,0a9.42,9.42,0,0,1,2.51.32,5.2,5.2,0,0,1,1.94,1A4.52,4.52,0,0,1,208,87.37,6.48,6.48,0,0,1,208.43,89.86Zm-7.27,3.83.46,0h.77a4,4,0,0,0,3-1,4.66,4.66,0,0,0,0-5.69,4,4,0,0,0-3-1,11.71,11.71,0,0,0-1.26,0Z"/><path class="cls-2" d="M250.55,98.85H250l-.5,0v6.89l.4,0h.54a3.61,3.61,0,0,0,2.73-.93,3.56,3.56,0,0,0,.89-2.56,3.08,3.08,0,0,0-3.54-3.48Z"/><path class="cls-2" d="M250.24,78.67h-217A11.74,11.74,0,0,0,21.51,90.39v22.29a11.73,11.73,0,0,0,11.72,11.71h217A11.73,11.73,0,0,0,262,112.68V90.39A11.74,11.74,0,0,0,250.24,78.67ZM62.9,121.77H33.23a9.11,9.11,0,0,1-9.1-9.09V90.39a9.11,9.11,0,0,1,9.1-9.09H62.9Zm38.88,0H65.53V102.84h36.25Zm38.64,0h-36V102.84h36Zm0-21.55H65.53V81.3h74.89Zm38.64,21.55h-36V102.84h36Zm38.63,0h-36V102.84h36Zm0-21.55H143.05V81.3h74.64Zm15.21,7.2a9.47,9.47,0,0,1-1.42.38,13.44,13.44,0,0,1-2.41.19,6.31,6.31,0,0,1-2.22-.38,4.79,4.79,0,0,1-1.71-1.1,4.9,4.9,0,0,1-1.09-1.78,6.87,6.87,0,0,1-.38-2.4,6.3,6.3,0,0,1,.42-2.42,5.09,5.09,0,0,1,1.16-1.79A4.89,4.89,0,0,1,227,97a6.06,6.06,0,0,1,2.14-.38,8.21,8.21,0,0,1,1.38.11,7,7,0,0,1,1.07.23,4.44,4.44,0,0,1,.75.28,4.16,4.16,0,0,1,.41.22l-.71,2a6.12,6.12,0,0,0-1.15-.46,5,5,0,0,0-1.43-.2,3,3,0,0,0-2.48,1,4.08,4.08,0,0,0-.76,2.6,5.42,5.42,0,0,0,.19,1.45,3.34,3.34,0,0,0,.57,1.13,2.52,2.52,0,0,0,.94.73,3.2,3.2,0,0,0,1.32.26l.7,0a3.56,3.56,0,0,0,.52-.06V102h2.45Zm11.66.37H242.5c-.71-1.25-1.46-2.48-2.28-3.7a39.46,39.46,0,0,0-2.61-3.45v7.15h-2.43V96.88h2c.34.35.73.78,1.15,1.28s.85,1,1.28,1.61.87,1.16,1.3,1.78.83,1.2,1.21,1.77V96.88h2.44Zm11.62-3a4.52,4.52,0,0,1-1.25,1.74,5.38,5.38,0,0,1-2,1,9.21,9.21,0,0,1-2.61.35c-.44,0-1,0-1.55-.06a11.23,11.23,0,0,1-1.73-.23V97a14.26,14.26,0,0,1,1.77-.22c.61,0,1.14,0,1.58,0a9.56,9.56,0,0,1,2.54.31,5,5,0,0,1,2,1,4.3,4.3,0,0,1,1.26,1.72,6.49,6.49,0,0,1,.44,2.54A6.3,6.3,0,0,1,256.18,104.8Z"/></g><path class="cls-2" d="M44.45,130.67a10.91,10.91,0,1,0,10.91,10.91A10.91,10.91,0,0,0,44.45,130.67Zm1.75,16H44v-7.33a6.94,6.94,0,0,1-1,.53,11.08,11.08,0,0,1-1.06.42l-.66-1.69c.28-.11.58-.25.89-.4a9.84,9.84,0,0,0,.9-.5c.3-.18.58-.37.85-.57a5.65,5.65,0,0,0,.72-.64H46.2Z"/><path class="cls-2" d="M83.47,130.67a10.91,10.91,0,1,0,10.91,10.91A10.9,10.9,0,0,0,83.47,130.67ZM87,146.78H80.23a2.22,2.22,0,0,1,0-.41V146a3.37,3.37,0,0,1,.23-1.29,5.06,5.06,0,0,1,.59-1.1,7.35,7.35,0,0,1,.83-.94l.92-.88.66-.64a7.07,7.07,0,0,0,.54-.59,2.63,2.63,0,0,0,.37-.57,1.36,1.36,0,0,0,.13-.58,1,1,0,0,0-.37-.91,1.47,1.47,0,0,0-.91-.27,2,2,0,0,0-.74.13,3.65,3.65,0,0,0-.63.29,4.15,4.15,0,0,0-.49.34,3.49,3.49,0,0,0-.31.27l-1.09-1.53a5.64,5.64,0,0,1,1.51-1,4.4,4.4,0,0,1,1.84-.39,5,5,0,0,1,1.54.21,2.82,2.82,0,0,1,1.07.58,2.19,2.19,0,0,1,.61.91,3.3,3.3,0,0,1,.2,1.21,2.63,2.63,0,0,1-.22,1.07,4.3,4.3,0,0,1-.57,1,7.54,7.54,0,0,1-.79.92c-.3.3-.58.57-.87.84l-.48.46c-.17.17-.33.35-.49.52l-.42.49a1.32,1.32,0,0,0-.22.38H87Z"/><path class="cls-2" d="M122.5,130a10.91,10.91,0,1,0,10.9,10.91A10.91,10.91,0,0,0,122.5,130Zm3.28,14.28a2.69,2.69,0,0,1-.74,1,3.56,3.56,0,0,1-1.27.68,6.13,6.13,0,0,1-1.82.24,8.21,8.21,0,0,1-.84,0c-.3,0-.58-.08-.85-.14s-.53-.13-.75-.2a4.53,4.53,0,0,1-.53-.18l.42-1.83c.26.11.59.23,1,.35a5.2,5.2,0,0,0,1.48.18,2.3,2.3,0,0,0,1.48-.38,1.26,1.26,0,0,0,.47-1,1.28,1.28,0,0,0-.17-.67,1.39,1.39,0,0,0-.46-.44,2.06,2.06,0,0,0-.7-.23,4.68,4.68,0,0,0-.86-.07h-.85v-1.76h1a3.18,3.18,0,0,0,.62-.06,1.59,1.59,0,0,0,.54-.2,1,1,0,0,0,.37-.38,1.13,1.13,0,0,0,.14-.61,1,1,0,0,0-.11-.48,1,1,0,0,0-.31-.34,1.36,1.36,0,0,0-.42-.2,2.05,2.05,0,0,0-.49-.06,3.42,3.42,0,0,0-1.17.19,4.44,4.44,0,0,0-1,.47l-.78-1.6c.16-.1.35-.2.56-.31a5.5,5.5,0,0,1,.69-.3c.26-.08.53-.16.82-.22a4.5,4.5,0,0,1,.92-.08,5.14,5.14,0,0,1,1.55.21,2.85,2.85,0,0,1,1.07.6,2.4,2.4,0,0,1,.64.91,3.19,3.19,0,0,1,.2,1.13,2.35,2.35,0,0,1-1.25,2,2.59,2.59,0,0,1,1.23,1A2.68,2.68,0,0,1,126,143,3.66,3.66,0,0,1,125.78,144.28Z"/><path class="cls-2" d="M159.1,141.42h2.31V138c-.39.5-.79,1.05-1.22,1.63A11,11,0,0,0,159.1,141.42Z"/><path class="cls-2" d="M161.52,130.19a10.91,10.91,0,1,0,10.91,10.9A10.91,10.91,0,0,0,161.52,130.19Zm3.12,13h-1.09v2.28h-2.14v-2.28H157v-1.6c.22-.43.49-.92.81-1.46s.68-1.1,1.08-1.67.82-1.14,1.26-1.68a18.1,18.1,0,0,1,1.32-1.49h2.07v6.11h1.09Z"/><path class="cls-2" d="M200.54,129.7a10.91,10.91,0,1,0,10.91,10.91A10.9,10.9,0,0,0,200.54,129.7Zm3.21,14.12a2.68,2.68,0,0,1-.75,1.05,3.66,3.66,0,0,1-1.25.69,5.91,5.91,0,0,1-1.77.25,8,8,0,0,1-.83-.05c-.29,0-.57-.08-.84-.14s-.51-.11-.73-.17a3.17,3.17,0,0,1-.5-.17l.4-1.81a7.33,7.33,0,0,0,1,.32,6,6,0,0,0,1.44.15,2.19,2.19,0,0,0,1.47-.4,1.25,1.25,0,0,0,.45-.95,1.48,1.48,0,0,0-.19-.76,1.38,1.38,0,0,0-.66-.55,4.89,4.89,0,0,0-1.26-.34,15.65,15.65,0,0,0-2-.11c.11-.91.2-1.84.27-2.78s.12-1.82.16-2.64h5.51v1.83H200c0,.36,0,.7-.06,1s-.05.61-.08.86a5.4,5.4,0,0,1,3.16,1,3,3,0,0,1,1,2.39A3.27,3.27,0,0,1,203.75,143.82Z"/><path class="cls-2" d="M239.4,140.82a4.18,4.18,0,0,0-.68.06,2.05,2.05,0,0,0-.58.16,1.36,1.36,0,0,1,0,.18v.2a6.36,6.36,0,0,0,.07,1,2.64,2.64,0,0,0,.25.82,1.34,1.34,0,0,0,.47.55,1.42,1.42,0,0,0,1.36.05,1.31,1.31,0,0,0,.42-.39,1.47,1.47,0,0,0,.25-.52,1.83,1.83,0,0,0,.08-.55,1.38,1.38,0,0,0-1.63-1.56Z"/><path class="cls-2" d="M239.57,129.68a10.91,10.91,0,1,0,10.9,10.91A10.9,10.9,0,0,0,239.57,129.68ZM243,143.55a3.5,3.5,0,0,1-.65,1.12,3.41,3.41,0,0,1-1.1.82,3.54,3.54,0,0,1-1.58.32,3.39,3.39,0,0,1-2.79-1.16,4.87,4.87,0,0,1-1-3.2,7,7,0,0,1,.46-2.6,5.11,5.11,0,0,1,1.3-1.9,5.68,5.68,0,0,1,2-1.17,8.69,8.69,0,0,1,2.7-.42c0,.3,0,.6.05.89s0,.59.06.9a8.73,8.73,0,0,0-1.4.14,4.38,4.38,0,0,0-1.19.39,3,3,0,0,0-.93.68,2.91,2.91,0,0,0-.62,1,2.38,2.38,0,0,1,.66-.2,3.7,3.7,0,0,1,.63-.06,4.62,4.62,0,0,1,1.63.25,3.15,3.15,0,0,1,1.09.7,2.66,2.66,0,0,1,.62,1,4.25,4.25,0,0,1,.19,1.25A3.7,3.7,0,0,1,243,143.55Z"/><path class="cls-5" d="M98.25,42.67a1.8,1.8,0,0,0,1.81-1.8"/><line class="cls-5" x1="99.98" y1="33.62" x2="99.98" y2="40.83"/><path class="cls-5" d="M81.19,40.87a1.8,1.8,0,0,0,1.8,1.8"/><line class="cls-5" x1="98.22" y1="42.67" x2="82.95" y2="42.67"/><path class="cls-5" d="M100.06,33.66a1.81,1.81,0,0,0-1.81-1.8"/><line class="cls-5" x1="82.95" y1="31.78" x2="98.22" y2="31.78"/><path class="cls-5" d="M83,31.86a1.81,1.81,0,0,0-1.8,1.8"/><line class="cls-5" x1="81.11" y1="40.83" x2="81.11" y2="33.62"/><path class="cls-5" d="M64.94,22.05a19.06,19.06,0,1,0,0,38.1"/><line class="cls-5" x1="237.87" y1="60.08" x2="64.93" y2="60.08"/><path class="cls-5" d="M237.94,60.15A19.06,19.06,0,1,0,238.6,22"/><line class="cls-5" x1="64.93" y1="21.96" x2="238.56" y2="21.96"/><path class="cls-5" d="M237.87,64.52a23.43,23.43,0,1,0,.74-46.85"/><line class="cls-5" x1="237.87" y1="60.08" x2="237.87" y2="64.45"/><polyline class="cls-5" points="64.93 60.08 65.01 64.45 237.88 64.45"/><path class="cls-5" d="M65,17.6a23.43,23.43,0,1,0,0,46.84"/><polyline class="cls-5" points="64.93 21.96 65.01 17.59 238.56 17.59"/><line class="cls-5" x1="62.78" y1="17.59" x2="63.47" y2="17.59"/><line class="cls-5" x1="63.47" y1="64.45" x2="62.78" y2="64.45"/><line class="cls-5" x1="97.06" y1="42.29" x2="98.52" y2="42.29"/><line class="cls-5" x1="81.88" y1="42.29" x2="82.57" y2="42.29"/><line class="cls-5" x1="98.52" y1="42.29" x2="98.52" y2="42.6"/><polyline class="cls-5" points="97.06 42.29 97.06 34.01 82.57 34.01 82.57 35.08"/><line class="cls-5" x1="96.37" y1="34.01" x2="96.37" y2="42.29"/><polyline class="cls-5" points="82.57 42.29 84.41 42.29 86.25 42.29 88.02 42.29 89.86 42.29"/><polyline class="cls-5" points="89.86 35.08 88.02 35.08 86.25 35.08"/><polyline class="cls-5" points="86.25 35.08 84.41 35.08 82.57 35.08"/><line class="cls-5" x1="88.01" y1="42.29" x2="88.01" y2="35.08"/><line class="cls-5" x1="89.86" y1="42.29" x2="89.86" y2="35.08"/><line class="cls-5" x1="84.41" y1="35.08" x2="84.41" y2="42.29"/><line class="cls-5" x1="82.57" y1="35.08" x2="82.57" y2="42.29"/><line class="cls-5" x1="86.25" y1="35.08" x2="86.25" y2="42.29"/><line class="cls-5" x1="98.52" y1="42.29" x2="98.52" y2="42.6"/><line class="cls-5" x1="81.88" y1="42.29" x2="82.57" y2="42.29"/><line class="cls-5" x1="89.86" y1="42.29" x2="98.52" y2="42.29"/><line class="cls-5" x1="163.71" y1="39.3" x2="163.71" y2="41.83"/><polyline class="cls-5" points="138.4 41.83 138.4 39.3 139.86 39.3 162.25 39.3 163.71 39.3"/><polyline class="cls-5" points="163.71 41.83 162.25 41.83 139.86 41.83 138.4 41.83"/><polyline class="cls-5" points="140.17 39.84 140.17 41.29 161.95 41.29 161.95 39.84 140.17 39.84"/><line class="cls-5" x1="139.86" y1="41.83" x2="140.17" y2="41.29"/><line class="cls-5" x1="140.17" y1="39.83" x2="139.86" y2="39.3"/><line class="cls-5" x1="161.95" y1="41.29" x2="162.25" y2="41.83"/><line class="cls-5" x1="162.25" y1="39.3" x2="161.95" y2="39.83"/><line class="cls-5" x1="139.4" y1="44.82" x2="162.71" y2="44.82"/><path class="cls-5" d="M162.75,44.9a3.11,3.11,0,0,0,3.11-3.11"/><line class="cls-5" x1="165.78" y1="41.75" x2="165.78" y2="39.37"/><path class="cls-5" d="M165.86,39.41a3.1,3.1,0,0,0-3.11-3.1"/><line class="cls-5" x1="162.71" y1="36.31" x2="139.4" y2="36.31"/><path class="cls-5" d="M139.44,36.31a3.1,3.1,0,0,0-3.11,3.1"/><line class="cls-5" x1="136.33" y1="39.37" x2="136.33" y2="41.75"/><path class="cls-5" d="M136.33,41.79a3.11,3.11,0,0,0,3.11,3.11"/><rect class="cls-5" x="183.54" y="40.93" width="5.83" height="5.83"/><rect class="cls-5" x="228.97" y="40.93" width="5.83" height="5.83"/><rect class="cls-5" x="219.89" y="40.93" width="5.83" height="5.83"/><rect class="cls-5" x="210.8" y="40.93" width="5.83" height="5.83"/><rect class="cls-5" x="201.72" y="40.93" width="5.83" height="5.83"/><rect class="cls-5" x="192.63" y="40.93" width="5.83" height="5.83"/><rect class="cls-5" x="180.58" y="38.59" width="57.19" height="10.52"/><rect class="cls-6" width="283.46" height="170.08"/></g></g></svg>