<svg xmlns="http://www.w3.org/2000/svg" viewBox="0 0 226.77 204.09"><defs><style>.cls-1,.cls-4{fill:none;}.cls-1{stroke:#000;stroke-linecap:round;stroke-linejoin:round;stroke-width:0.5px;}.cls-2{fill-rule:evenodd;}.cls-3{isolation:isolate;}</style></defs><g id="Layer_2" data-name="Layer 2"><g id="Layer_3" data-name="Layer 3"><line class="cls-1" x1="206.45" y1="194.49" x2="206.45" y2="194.49"/><line class="cls-1" x1="20.32" y1="194.49" x2="20.32" y2="194.49"/><polyline class="cls-1" points="223.93 194.5 223.78 194.5 223.4 194.5 222.63 194.5 221.71 194.5 220.48 194.5 218.95 194.5 217.26 194.5 215.42 194.5 213.35 194.5 211.13 194.5 208.75 194.5 206.29 194.5 203.84 194.5 201.31 194.5"/><polyline class="cls-1" points="201.31 194.5 25.46 194.5 22.93 194.5 20.48 194.5 18.02 194.5 15.65 194.5 13.42 194.5 11.35 194.5 9.51 194.5 7.83 194.5 6.29 194.5 5.06 194.5 4.14 194.5 3.38 194.5 2.99 194.5 2.84 194.5"/><line class="cls-1" x1="8.75" y1="194.49" x2="8.75" y2="194.49"/><line class="cls-1" x1="20.25" y1="194.49" x2="20.25" y2="194.49"/><polyline class="cls-1" points="201.31 200.32 203.53 200.32 205.83 200.32 208.06 200.32 210.13 200.32 212.04 200.32 213.88 200.32 215.5 200.32 216.95 200.32 218.1 200.32 219.1 200.32 219.71 200.32 220.17 200.32 220.33 200.32"/><polyline class="cls-1" points="223.93 196.72 223.78 196.72 223.4 196.72 222.63 196.72 221.71 196.72 220.48 196.72 218.95 196.72 217.26 196.72 215.42 196.72 213.35 196.72 211.13 196.72 208.75 196.72 206.29 196.72 203.84 196.72 201.31 196.72"/><line class="cls-1" x1="25.46" y1="200.32" x2="201.31" y2="200.32"/><line class="cls-1" x1="201.31" y1="196.72" x2="25.46" y2="196.72"/><polyline class="cls-1" points="6.44 200.32 6.6 200.32 7.06 200.32 7.67 200.32 8.67 200.32 9.82 200.32 11.28 200.32 12.89 200.32 14.73 200.32 16.64 200.32 18.71 200.32 20.94 200.32 23.24 200.32 25.46 200.32"/><polyline class="cls-1" points="25.46 196.72 22.93 196.72 20.48 196.72 18.02 196.72 15.65 196.72 13.42 196.72 11.35 196.72 9.51 196.72 7.83 196.72 6.29 196.72 5.06 196.72 4.14 196.72 3.38 196.72 2.99 196.72 2.84 196.72"/><line class="cls-1" x1="218.03" y1="194.49" x2="218.03" y2="194.49"/><line class="cls-1" x1="206.52" y1="194.49" x2="206.52" y2="194.49"/><line class="cls-1" x1="220.33" y1="200.32" x2="223.93" y2="196.72"/><line class="cls-1" x1="6.44" y1="200.32" x2="2.84" y2="196.72"/><line class="cls-1" x1="223.93" y1="194.49" x2="223.93" y2="196.72"/><line class="cls-1" x1="2.84" y1="194.49" x2="2.84" y2="196.72"/><polyline class="cls-1" points="2.84 8.14 2.99 8.14 3.38 8.14 4.14 8.14 5.06 8.14 6.29 8.14 7.83 8.14 9.51 8.14 11.35 8.14 13.42 8.14 15.65 8.14 18.02 8.14 20.48 8.14 22.93 8.14 25.46 8.14"/><polyline class="cls-1" points="201.31 4.54 25.46 4.54 23.24 4.54 20.94 4.54 18.71 4.54 16.64 4.54 14.73 4.54 12.89 4.54 11.28 4.54 9.82 4.54 8.67 4.54 7.67 4.54 7.06 4.54 6.6 4.54 6.44 4.54"/><line class="cls-1" x1="25.46" y1="8.14" x2="201.31" y2="8.14"/><polyline class="cls-1" points="220.33 4.54 220.17 4.54 219.71 4.54 219.1 4.54 218.1 4.54 216.95 4.54 215.5 4.54 213.88 4.54 212.04 4.54 210.13 4.54 208.06 4.54 205.83 4.54 203.53 4.54 201.31 4.54"/><polyline class="cls-1" points="201.31 8.14 203.84 8.14 206.29 8.14 208.75 8.14 211.13 8.14 213.35 8.14 215.42 8.14 217.26 8.14 218.95 8.14 220.48 8.14 221.71 8.14 222.63 8.14 223.4 8.14 223.78 8.14 223.93 8.14"/><polyline class="cls-1" points="2.84 10.37 2.99 10.37 3.38 10.37 4.14 10.37 5.06 10.37 6.29 10.37 7.83 10.37 9.51 10.37 11.35 10.37 13.42 10.37 15.65 10.37 18.02 10.37 20.48 10.37 22.93 10.37 25.46 10.37 201.31 10.37 203.84 10.37 206.29 10.37 208.75 10.37 211.13 10.37 213.35 10.37 215.42 10.37 217.26 10.37 218.95 10.37 220.48 10.37 221.71 10.37 222.63 10.37 223.4 10.37 223.78 10.37 223.93 10.37"/><line class="cls-1" x1="6.44" y1="4.54" x2="2.84" y2="8.14"/><line class="cls-1" x1="220.33" y1="4.54" x2="223.93" y2="8.14"/><line class="cls-1" x1="2.84" y1="10.37" x2="2.84" y2="8.14"/><line class="cls-1" x1="223.93" y1="10.37" x2="223.93" y2="8.14"/><polyline class="cls-1" points="25.46 10.37 22.93 10.37 20.48 10.37 18.02 10.37 15.65 10.37 13.42 10.37 11.35 10.37 9.51 10.37 7.83 10.37 6.29 10.37 5.06 10.37 4.14 10.37 3.38 10.37 2.99 10.37 2.84 10.37"/><polyline class="cls-1" points="25.46 194.5 22.93 194.5 20.48 194.5 18.02 194.5 15.65 194.5 13.42 194.5 11.35 194.5 9.51 194.5 7.83 194.5 6.29 194.5 5.06 194.5 4.14 194.5 3.38 194.5 2.99 194.5 2.84 194.5"/><line class="cls-1" x1="25.46" y1="10.37" x2="201.31" y2="10.37"/><line class="cls-1" x1="201.31" y1="194.49" x2="25.46" y2="194.49"/><polyline class="cls-1" points="223.93 10.37 223.78 10.37 223.4 10.37 222.63 10.37 221.71 10.37 220.48 10.37 218.95 10.37 217.26 10.37 215.42 10.37 213.35 10.37 211.13 10.37 208.75 10.37 206.29 10.37 203.84 10.37 201.31 10.37"/><polyline class="cls-1" points="223.93 194.5 223.78 194.5 223.4 194.5 222.63 194.5 221.71 194.5 220.48 194.5 218.95 194.5 217.26 194.5 215.42 194.5 213.35 194.5 211.13 194.5 208.75 194.5 206.29 194.5 203.84 194.5 201.31 194.5"/><line class="cls-1" x1="2.84" y1="10.37" x2="2.84" y2="194.49"/><line class="cls-1" x1="223.93" y1="10.37" x2="223.93" y2="194.49"/><polyline class="cls-1" points="174.24 4.54 174.24 3.77 176 3.77 176.77 4.54"/><polyline class="cls-1" points="178.92 4.54 179.68 3.77 181.45 3.77 181.45 4.54"/><path d="M33,188.86H31.78v-4.71H30.23v-1h4.32v1H33Z"/><path d="M36.17,184.4a2.05,2.05,0,0,1,1.35.38,1.41,1.41,0,0,1,.47,1.16v2.92h-.83l-.24-.59h0a2.27,2.27,0,0,1-.38.38,1.18,1.18,0,0,1-.45.22,2.21,2.21,0,0,1-.62.07,1.52,1.52,0,0,1-.69-.15,1.12,1.12,0,0,1-.49-.45,1.57,1.57,0,0,1-.17-.79,1.18,1.18,0,0,1,.48-1,2.83,2.83,0,0,1,1.47-.36l.76,0v-.2a.62.62,0,0,0-.18-.5.72.72,0,0,0-.5-.16,2.16,2.16,0,0,0-.62.09,4.49,4.49,0,0,0-.61.23l-.4-.81a3.63,3.63,0,0,1,1.68-.39Zm.17,2.45a1.28,1.28,0,0,0-.8.21.63.63,0,0,0-.23.5.47.47,0,0,0,.16.39.7.7,0,0,0,.42.12,1,1,0,0,0,.65-.23.83.83,0,0,0,.26-.65v-.36Z"/><path d="M41.34,184.4h.21a.84.84,0,0,1,.19,0l-.09,1.12-.16,0H41.3a1.74,1.74,0,0,0-.45.06,1.18,1.18,0,0,0-.39.19.93.93,0,0,0-.27.34,1.15,1.15,0,0,0-.1.52v2.23H38.9v-4.38h.9l.18.74H40a2.51,2.51,0,0,1,.32-.41,1.51,1.51,0,0,1,.45-.29A1.25,1.25,0,0,1,41.34,184.4Z"/><path d="M43.55,184.4a1.74,1.74,0,0,1,.73.16,1.54,1.54,0,0,1,.54.48h0l.1-.56h1v4.39a2,2,0,0,1-.25,1,1.55,1.55,0,0,1-.73.65,3.08,3.08,0,0,1-1.21.22,5.71,5.71,0,0,1-.86-.06,3.58,3.58,0,0,1-.78-.2v-1a4.2,4.2,0,0,0,.83.26,5.14,5.14,0,0,0,.88.08.91.91,0,0,0,.7-.25,1.06,1.06,0,0,0,.22-.74v-.09a2.64,2.64,0,0,1,0-.28,2,2,0,0,1,0-.26h0a1.33,1.33,0,0,1-.53.5,1.64,1.64,0,0,1-.71.15,1.41,1.41,0,0,1-1.21-.6,3.36,3.36,0,0,1,0-3.34A1.45,1.45,0,0,1,43.55,184.4Zm.38,1a.73.73,0,0,0-.47.15.93.93,0,0,0-.28.44,2.58,2.58,0,0,0-.09.74,1.85,1.85,0,0,0,.21,1A.7.7,0,0,0,44,188a1.25,1.25,0,0,0,.4-.06.54.54,0,0,0,.27-.2.86.86,0,0,0,.17-.36,2.19,2.19,0,0,0,.05-.55v-.14a2.58,2.58,0,0,0-.09-.76.77.77,0,0,0-.3-.42A.91.91,0,0,0,43.93,185.37Z"/><path d="M48.69,184.4a2.14,2.14,0,0,1,1.05.24,1.63,1.63,0,0,1,.68.67,2.21,2.21,0,0,1,.24,1.08V187H47.84a1.11,1.11,0,0,0,.3.79,1,1,0,0,0,.79.29,3.64,3.64,0,0,0,.77-.08,4.76,4.76,0,0,0,.71-.26v.92a3,3,0,0,1-.68.24,4.26,4.26,0,0,1-.86.07,2.64,2.64,0,0,1-1.16-.24,1.9,1.9,0,0,1-.8-.74,2.53,2.53,0,0,1-.29-1.26,2.66,2.66,0,0,1,.27-1.27,1.74,1.74,0,0,1,.72-.77A2.21,2.21,0,0,1,48.69,184.4Zm0,.85a.78.78,0,0,0-.57.23,1.1,1.1,0,0,0-.27.7h1.68a1.21,1.21,0,0,0-.1-.48.73.73,0,0,0-.27-.33A.86.86,0,0,0,48.7,185.25Z"/><path d="M53.15,188a2.58,2.58,0,0,0,.39,0l.36-.1v.89a2.69,2.69,0,0,1-.47.14,3,3,0,0,1-.62.06,1.68,1.68,0,0,1-.7-.13,1,1,0,0,1-.49-.44,1.8,1.8,0,0,1-.18-.88v-2.11h-.57v-.5l.65-.4.35-.93h.76v.93h1.23v.9H52.63v2.11a.47.47,0,0,0,.14.37A.55.55,0,0,0,53.15,188Z"/><path d="M163.59,179a1.53,1.53,0,0,1-1,1.46,2.85,2.85,0,0,1-1.15.21,5.65,5.65,0,0,1-.58,0,4.28,4.28,0,0,1-.54-.12,2.72,2.72,0,0,1-.5-.19v-1.13c.28.12.56.23.85.33a2.64,2.64,0,0,0,.87.14,1.28,1.28,0,0,0,.48-.07.58.58,0,0,0,.26-.22.55.55,0,0,0,.08-.31.49.49,0,0,0-.14-.37,1.65,1.65,0,0,0-.4-.29l-.57-.28-.43-.23a2.36,2.36,0,0,1-.45-.33,1.75,1.75,0,0,1-.35-.48,1.51,1.51,0,0,1-.13-.67,1.67,1.67,0,0,1,.23-.88,1.57,1.57,0,0,1,.68-.56,2.67,2.67,0,0,1,1-.19,3.35,3.35,0,0,1,.85.11,7.14,7.14,0,0,1,.85.29l-.4,1a6.06,6.06,0,0,0-.7-.25,2.3,2.3,0,0,0-.64-.09,1.13,1.13,0,0,0-.39.07.61.61,0,0,0-.24.21.49.49,0,0,0-.09.3.5.5,0,0,0,.12.34,1.69,1.69,0,0,0,.37.27l.6.3a5.13,5.13,0,0,1,.75.44,1.58,1.58,0,0,1,.47.53A1.44,1.44,0,0,1,163.59,179Z"/><path d="M167.48,179.05l-.09-.41c0-.18-.08-.37-.13-.58s-.1-.39-.14-.57l-.09-.38h0c0,.08,0,.21-.08.38s-.09.37-.14.57-.09.4-.13.58-.08.33-.1.42l-.35,1.52h-1.28l-1.25-4.38h1.19l.5,1.94a3.47,3.47,0,0,1,.11.48c0,.19.05.37.08.54s0,.31,0,.42h0a2.11,2.11,0,0,1,0-.31l.06-.38c0-.14,0-.26.06-.37s0-.18.05-.22l.53-2.1h1.32l.51,2.1c0,.08.05.2.08.36s.05.34.08.51a3.58,3.58,0,0,1,0,.41h0c0-.1,0-.23,0-.4l.09-.55c0-.19.08-.36.11-.49l.53-1.94h1.17l-1.26,4.38h-1.3Z"/><path d="M171.36,174.48a.78.78,0,0,1,.46.13.49.49,0,0,1,.19.46.51.51,0,0,1-.19.46.88.88,0,0,1-.92,0,.51.51,0,0,1-.19-.46.49.49,0,0,1,.19-.46A.78.78,0,0,1,171.36,174.48Zm.59,1.72v4.38h-1.19V176.2Z"/><path d="M174.73,179.7a1.58,1.58,0,0,0,.38,0,2.22,2.22,0,0,0,.37-.09v.89a3.14,3.14,0,0,1-.48.14,2.9,2.9,0,0,1-.62.06,1.75,1.75,0,0,1-.7-.13,1,1,0,0,1-.49-.45,1.76,1.76,0,0,1-.18-.87V177.1h-.57v-.51l.66-.4.34-.92h.77v.93h1.22v.9h-1.22v2.11a.48.48,0,0,0,.14.37A.58.58,0,0,0,174.73,179.7Z"/><path d="M177.82,180.66a2.32,2.32,0,0,1-1.1-.24,1.55,1.55,0,0,1-.7-.73,3,3,0,0,1-.24-1.28,2.73,2.73,0,0,1,.27-1.3,1.72,1.72,0,0,1,.76-.75,2.46,2.46,0,0,1,1.12-.24,3,3,0,0,1,.78.09,3.23,3.23,0,0,1,.58.21l-.35.92a4.91,4.91,0,0,0-.53-.19,2,2,0,0,0-.48-.07.81.81,0,0,0-.83.59,2.22,2.22,0,0,0-.1.73,1.88,1.88,0,0,0,.11.72.87.87,0,0,0,.31.43.93.93,0,0,0,.51.14,2.18,2.18,0,0,0,.66-.1,2.66,2.66,0,0,0,.56-.28v1a1.8,1.8,0,0,1-.57.25A3.16,3.16,0,0,1,177.82,180.66Z"/><path d="M181,175.73c0,.21,0,.42,0,.61s0,.34,0,.42h.07a1.3,1.3,0,0,1,.76-.57,1.68,1.68,0,0,1,.5-.07,2,2,0,0,1,.83.17,1.2,1.2,0,0,1,.55.52,1.86,1.86,0,0,1,.19.91v2.86h-1.19V178a1.24,1.24,0,0,0-.17-.71.63.63,0,0,0-.54-.24.8.8,0,0,0-.85.66,3,3,0,0,0-.09.79v2.06h-1.2v-6.1H181Z"/><path d="M186.59,176.11a2.15,2.15,0,0,1,1.35.38,1.43,1.43,0,0,1,.47,1.17v2.92h-.84l-.23-.6h0a2.36,2.36,0,0,1-.38.39,1.35,1.35,0,0,1-.45.22,2.72,2.72,0,0,1-.62.07,1.6,1.6,0,0,1-.7-.15,1.12,1.12,0,0,1-.48-.46,1.5,1.5,0,0,1-.18-.78,1.15,1.15,0,0,1,.49-1,2.92,2.92,0,0,1,1.47-.37l.76,0v-.19a.66.66,0,0,0-.18-.51.77.77,0,0,0-.5-.16,1.93,1.93,0,0,0-.63.1,5.65,5.65,0,0,0-.61.22l-.39-.81a3.9,3.9,0,0,1,1.68-.39Zm.17,2.46a1.32,1.32,0,0,0-.81.2.64.64,0,0,0-.22.51.45.45,0,0,0,.16.39.75.75,0,0,0,.42.11.94.94,0,0,0,.64-.22.82.82,0,0,0,.27-.65v-.36Z"/><path d="M190.51,175.9c0,.17,0,.33,0,.49s0,.29,0,.38h0a1.38,1.38,0,0,1,1.24-.65,1.45,1.45,0,0,1,1.19.57,2.64,2.64,0,0,1,.46,1.69,3.32,3.32,0,0,1-.21,1.26,1.7,1.7,0,0,1-.59.76,1.55,1.55,0,0,1-.88.26,1.38,1.38,0,0,1-.76-.18,1.71,1.71,0,0,1-.45-.38h-.08l-.2.48h-.92v-6.1h1.2Zm.85,1.17a.89.89,0,0,0-.49.13.69.69,0,0,0-.27.39,2,2,0,0,0-.09.65v.13a2.17,2.17,0,0,0,.18,1,.74.74,0,0,0,.69.34.69.69,0,0,0,.59-.34,1.92,1.92,0,0,0,.21-1,1.71,1.71,0,0,0-.22-1A.68.68,0,0,0,191.36,177.07Z"/><path d="M195.26,180.58h-1.19v-6.1h1.19Z"/><path d="M198,176.12a2.26,2.26,0,0,1,1,.23,1.65,1.65,0,0,1,.68.68,2.21,2.21,0,0,1,.24,1.08v.58h-2.82a1.13,1.13,0,0,0,.3.79,1.07,1.07,0,0,0,.79.29,3.07,3.07,0,0,0,.77-.09,3.24,3.24,0,0,0,.71-.26v.93a3,3,0,0,1-.68.23,4.19,4.19,0,0,1-.86.08,2.54,2.54,0,0,1-1.16-.25,1.84,1.84,0,0,1-.8-.74,2.49,2.49,0,0,1-.28-1.25,2.73,2.73,0,0,1,.26-1.28,1.71,1.71,0,0,1,.72-.76A2.21,2.21,0,0,1,198,176.12Zm0,.85a.77.77,0,0,0-.57.22,1.13,1.13,0,0,0-.27.7h1.68a1,1,0,0,0-.1-.47.73.73,0,0,0-.27-.33A.86.86,0,0,0,198,177Z"/><path d="M171.54,186.84a2.23,2.23,0,0,1-.26,1.07,1.93,1.93,0,0,1-.79.76,2.89,2.89,0,0,1-1.33.27,2.37,2.37,0,0,1-1.73-.58,2.07,2.07,0,0,1-.59-1.53v-3.69h1.21v3.5a1.42,1.42,0,0,0,.29,1,1.17,1.17,0,0,0,.86.28,1.32,1.32,0,0,0,.64-.13.79.79,0,0,0,.37-.43,1.89,1.89,0,0,0,.12-.73v-3.49h1.21Z"/><path d="M176,187.27a1.62,1.62,0,0,1-.24.89,1.67,1.67,0,0,1-.72.58,3,3,0,0,1-1.14.2,3.81,3.81,0,0,1-.59,0,3,3,0,0,1-.54-.11,3.12,3.12,0,0,1-.49-.19v-1.13c.27.11.55.22.84.32a2.65,2.65,0,0,0,.87.15,1.26,1.26,0,0,0,.48-.08.52.52,0,0,0,.26-.22.54.54,0,0,0,.09-.31.51.51,0,0,0-.15-.37,1.64,1.64,0,0,0-.4-.28l-.57-.29-.43-.22a3.22,3.22,0,0,1-.45-.33,1.67,1.67,0,0,1-.34-.48,1.71,1.71,0,0,1,.1-1.55,1.43,1.43,0,0,1,.67-.56,2.49,2.49,0,0,1,1-.19,3.36,3.36,0,0,1,.85.1,5.43,5.43,0,0,1,.85.3l-.39.94c-.27-.1-.5-.18-.71-.24a2.3,2.3,0,0,0-.64-.09.86.86,0,0,0-.38.07.56.56,0,0,0-.25.2.61.61,0,0,0-.08.3.53.53,0,0,0,.12.35,1.19,1.19,0,0,0,.36.26l.6.31a5.13,5.13,0,0,1,.75.43,1.85,1.85,0,0,1,.48.53A1.57,1.57,0,0,1,176,187.27Z"/><path d="M178.5,183.14a3.62,3.62,0,0,1,1.73.32,1.17,1.17,0,0,1,.58,1.13,1.54,1.54,0,0,1-.1.58,1.08,1.08,0,0,1-.3.44,1,1,0,0,1-.48.21v0a1.71,1.71,0,0,1,.52.2,1,1,0,0,1,.37.42,1.62,1.62,0,0,1,.14.72,1.64,1.64,0,0,1-.25.9,1.68,1.68,0,0,1-.73.57,3,3,0,0,1-1.12.19h-2.14v-5.72Zm.13,2.27a1.22,1.22,0,0,0,.74-.17.62.62,0,0,0,.2-.49.5.5,0,0,0-.24-.47,1.47,1.47,0,0,0-.76-.15h-.64v1.28Zm-.7,1v1.49h.79a1.08,1.08,0,0,0,.76-.21.74.74,0,0,0,.22-.57.72.72,0,0,0-.09-.37.59.59,0,0,0-.32-.25,1.67,1.67,0,0,0-.61-.09Z"/><path d="M187.15,188.86h-4V188l1.43-1.45c.29-.3.52-.55.7-.75a2.86,2.86,0,0,0,.38-.54,1.21,1.21,0,0,0,.12-.53.66.66,0,0,0-.18-.51.72.72,0,0,0-.51-.17,1.51,1.51,0,0,0-.65.15,4,4,0,0,0-.65.43l-.66-.78c.16-.14.34-.27.52-.4a2.79,2.79,0,0,1,.65-.3,3.12,3.12,0,0,1,.87-.11,2.21,2.21,0,0,1,1,.2,1.62,1.62,0,0,1,.63.55,1.55,1.55,0,0,1,.22.8,2,2,0,0,1-.19.86,3.39,3.39,0,0,1-.55.78c-.24.26-.52.54-.86.85l-.74.69v.05h2.5Z"/><path d="M187.55,188.3a.6.6,0,0,1,.2-.52.84.84,0,0,1,.49-.14.87.87,0,0,1,.48.14.63.63,0,0,1,.2.52.61.61,0,0,1-.2.51.81.81,0,0,1-.48.16.78.78,0,0,1-.49-.16A.58.58,0,0,1,187.55,188.3Z"/><path d="M193.34,186a6.7,6.7,0,0,1-.1,1.24,2.85,2.85,0,0,1-.35.92,1.57,1.57,0,0,1-.62.58,1.88,1.88,0,0,1-.93.2,1.77,1.77,0,0,1-1.13-.35,2,2,0,0,1-.65-1,4.9,4.9,0,0,1-.22-1.58,5.65,5.65,0,0,1,.2-1.59,1.93,1.93,0,0,1,.63-1,1.83,1.83,0,0,1,1.17-.35,1.77,1.77,0,0,1,1.13.35,2.13,2.13,0,0,1,.66,1A5.28,5.28,0,0,1,193.34,186Zm-2.79,0a6.71,6.71,0,0,0,.07,1.09,1.47,1.47,0,0,0,.24.65.58.58,0,0,0,.48.22.6.6,0,0,0,.48-.21,1.65,1.65,0,0,0,.25-.66,8.52,8.52,0,0,0,0-2.18,1.65,1.65,0,0,0-.25-.66.63.63,0,0,0-1,0,1.52,1.52,0,0,0-.24.66A6.63,6.63,0,0,0,190.55,186Z"/><path d="M107.65,20.86h-1.21V18.39h-2.27v2.47H103V15.14h1.21v2.24h2.27V15.14h1.21Z"/><path d="M112.65,18.67a3,3,0,0,1-.15,1,2,2,0,0,1-.42.71,1.67,1.67,0,0,1-.67.44,2.48,2.48,0,0,1-.89.15,2.34,2.34,0,0,1-.85-.15,1.67,1.67,0,0,1-.67-.44,2,2,0,0,1-.44-.71,3,3,0,0,1-.15-1,2.74,2.74,0,0,1,.25-1.24,1.87,1.87,0,0,1,.74-.76,2.29,2.29,0,0,1,1.14-.26,2.15,2.15,0,0,1,1.09.26,2,2,0,0,1,.75.76A2.61,2.61,0,0,1,112.65,18.67Zm-3,0a2.48,2.48,0,0,0,.09.72.83.83,0,0,0,.29.44.86.86,0,0,0,.52.15.82.82,0,0,0,.52-.15.83.83,0,0,0,.29-.44,2.48,2.48,0,0,0,.09-.72,2.55,2.55,0,0,0-.09-.73.85.85,0,0,0-.29-.43,1,1,0,0,0-.53-.14.76.76,0,0,0-.68.32A1.83,1.83,0,0,0,109.63,18.67Z"/><path d="M116.37,19.56a1.28,1.28,0,0,1-.21.75,1.24,1.24,0,0,1-.62.47,2.88,2.88,0,0,1-1,.16,4.42,4.42,0,0,1-.78-.06,3.28,3.28,0,0,1-.66-.19v-1a4.25,4.25,0,0,0,.76.27,3.43,3.43,0,0,0,.72.1,1,1,0,0,0,.5-.1.33.33,0,0,0,.15-.28.36.36,0,0,0-.06-.2.77.77,0,0,0-.26-.2c-.13-.07-.34-.17-.62-.29a3.55,3.55,0,0,1-.68-.35,1.09,1.09,0,0,1-.39-.41,1.29,1.29,0,0,1-.13-.62,1,1,0,0,1,.47-.91,2.35,2.35,0,0,1,1.26-.3,4,4,0,0,1,.78.07,4.08,4.08,0,0,1,.76.27l-.36.86c-.21-.09-.42-.17-.61-.23a2,2,0,0,0-.58-.09.84.84,0,0,0-.4.07.23.23,0,0,0-.13.22.26.26,0,0,0,.07.18.64.64,0,0,0,.26.18c.13.07.33.15.58.26a4.38,4.38,0,0,1,.65.32,1.11,1.11,0,0,1,.57,1Z"/><path d="M118.82,20a1.67,1.67,0,0,0,.39,0l.37-.1v.89a2.31,2.31,0,0,1-.48.14,3,3,0,0,1-.62.06,1.71,1.71,0,0,1-.7-.13,1,1,0,0,1-.49-.44,1.78,1.78,0,0,1-.18-.88V17.38h-.57v-.5l.65-.4.35-.92h.76v.92h1.23v.9H118.3v2.11a.44.44,0,0,0,.15.37A.51.51,0,0,0,118.82,20Z"/><path d="M103.43,188.86h-2.6v-.69l.69-.32v-3.7l-.69-.32v-.69h2.6v.69l-.69.32v3.7l.69.32Z"/><path d="M106.48,184.4a1.6,1.6,0,0,1,1.13.39A1.57,1.57,0,0,1,108,186v2.85h-1.2V186.3a1.26,1.26,0,0,0-.17-.71.62.62,0,0,0-.53-.23.76.76,0,0,0-.75.37,2.37,2.37,0,0,0-.2,1.07v2.06H104v-4.38h.92l.16.57h.06a1.41,1.41,0,0,1,.36-.37,1.62,1.62,0,0,1,.46-.21A2.33,2.33,0,0,1,106.48,184.4Z"/><path d="M111.38,184.4a1.45,1.45,0,0,1,1.19.58,2.62,2.62,0,0,1,.46,1.69,3.11,3.11,0,0,1-.22,1.25,1.68,1.68,0,0,1-.59.77,1.51,1.51,0,0,1-.87.25,1.46,1.46,0,0,1-.54-.08,1,1,0,0,1-.39-.21,1.44,1.44,0,0,1-.28-.27h-.07a3.06,3.06,0,0,1,.05.32c0,.11,0,.22,0,.32v1.77h-1.2v-6.31h1l.17.57h.06a2.07,2.07,0,0,1,.28-.32,1.38,1.38,0,0,1,.41-.24A1.55,1.55,0,0,1,111.38,184.4Zm-.39,1a.79.79,0,0,0-.49.13.63.63,0,0,0-.27.39,2,2,0,0,0-.09.65v.13a2.44,2.44,0,0,0,.08.71.78.78,0,0,0,.27.45.82.82,0,0,0,.52.15.68.68,0,0,0,.45-.15.9.9,0,0,0,.26-.45,2.53,2.53,0,0,0,.09-.72,1.82,1.82,0,0,0-.2-1A.67.67,0,0,0,111,185.36Z"/><path d="M117.71,184.48v4.38h-.91l-.16-.56h-.07a1.2,1.2,0,0,1-.34.37,1.63,1.63,0,0,1-.47.2,1.93,1.93,0,0,1-.53.07,1.77,1.77,0,0,1-.82-.17,1.15,1.15,0,0,1-.55-.52,2,2,0,0,1-.19-.91v-2.86h1.2V187a1.27,1.27,0,0,0,.16.71.62.62,0,0,0,.54.24.8.8,0,0,0,.86-.66,2.91,2.91,0,0,0,.09-.79v-2.06Z"/><path d="M120.49,188a1.58,1.58,0,0,0,.38,0l.37-.1v.89a2.31,2.31,0,0,1-.48.14,3,3,0,0,1-.62.06,1.75,1.75,0,0,1-.7-.13,1,1,0,0,1-.49-.44,1.78,1.78,0,0,1-.18-.88v-2.11h-.57v-.5l.66-.4.34-.92H120v.92h1.22v.9H120v2.11a.44.44,0,0,0,.14.37A.53.53,0,0,0,120.49,188Z"/><path d="M167.29,20.09h-.8V18.46H165v1.63h-.8V16.3h.8v1.49h1.51V16.3h.8Z"/><path d="M170.08,15.22a.4.4,0,0,1,.39.4v5.91H161V15.62a.4.4,0,0,1,.39-.4Zm-8.69-.79a1.18,1.18,0,0,0-1.18,1.19v6.7h11v-6.7a1.18,1.18,0,0,0-1.18-1.19Zm-2,8.29h12.63a1.18,1.18,0,0,1-1.19,1.18H160.61a1.18,1.18,0,0,1-1.19-1.18"/><path class="cls-2" d="M186.06,19c0-.06,0-.12,0-.18a1.11,1.11,0,0,0,0-.19l0-.18c0-.06,0-.12,0-.18s0-.12,0-.18l-.06-.18a1.22,1.22,0,0,0-.07-.17c0-.06-.05-.12-.07-.17l-.09-.17-.09-.16-.1-.16-.11-.15-.11-.15-.12-.14-.13-.13-.13-.13-.14-.12-.15-.11-.15-.11-.16-.1-.16-.09-.17-.09-.17-.07-.17-.07-.18-.06-.18,0-.18,0-.18,0-.19,0-.18,0H177l-.19,0-.18,0-.19,0-.18,0-.18,0-.17.06-.18.07-.17.07-.16.09-.17.09L175,16l-.15.11a.83.83,0,0,0-.15.11l-.14.12-.14.13-.12.13-.13.14-.11.15-.11.15c0,.06-.07.11-.1.16l-.09.16a1.3,1.3,0,0,0-.08.17c0,.05-.05.11-.08.17l-.06.17a1.27,1.27,0,0,0-.06.18,1.21,1.21,0,0,0,0,.18,1237828508525.7,1237828508525.7,0,0,0-.08.36,1.37,1.37,0,0,1,0,.19c0,.06,0,.12,0,.18s0,.13,0,.19,0,.12,0,.18,0,.13,0,.19a1.1,1.1,0,0,1,0,.18,1.29,1.29,0,0,0,0,.19,1.16,1.16,0,0,0,0,.18,1.21,1.21,0,0,0,0,.18.85.85,0,0,0,.06.17l.06.18c0,.05.05.11.08.17a1.19,1.19,0,0,0,.08.16l.09.16c0,.06.07.11.1.16l.11.15.11.15a.86.86,0,0,0,.13.14l.12.14.14.12a.86.86,0,0,0,.14.13l.15.11.15.11.15.1.17.09.16.08.17.08.18.06a.85.85,0,0,0,.17.06l.18.05.18,0a.58.58,0,0,0,.19,0l.18,0h5.88l.19,0,.18,0,.18,0,.18-.05a1.27,1.27,0,0,0,.18-.06l.17-.06.17-.08.17-.08.16-.09.16-.1.15-.11.15-.11.14-.13.13-.12.13-.14.12-.14.11-.15.11-.15a.86.86,0,0,0,.1-.16l.09-.16.09-.16c0-.06.05-.12.07-.17a1.34,1.34,0,0,0,.07-.18l.06-.17c0-.06,0-.12,0-.18s0-.12,0-.18l0-.19a1.1,1.1,0,0,0,0-.18c0-.06,0-.12,0-.19V19Zm-6.37.4a1.52,1.52,0,0,1,0,.21,1.6,1.6,0,0,1,0,.21c0,.07-.05.13-.07.2l-.09.19-.11.18-.13.17-.14.16-.16.15-.17.12a1.18,1.18,0,0,1-.19.11.66.66,0,0,1-.19.09l-.2.08-.21.05-.21,0h-.42l-.21,0-.21-.05-.2-.08a.66.66,0,0,1-.19-.09l-.19-.11-.17-.12L176,20.7l-.15-.16-.12-.17a1.74,1.74,0,0,1-.11-.18.82.82,0,0,1-.09-.19,1.67,1.67,0,0,1-.08-.2c0-.07,0-.14,0-.21l0-.21a1.48,1.48,0,0,1,0-.21,1.7,1.7,0,0,1,0-.22l0-.21,0-.2a1.19,1.19,0,0,1,.08-.2.88.88,0,0,1,.09-.2,1.74,1.74,0,0,1,.11-.18l.12-.17.15-.16.15-.14.17-.13.19-.11.19-.09.2-.07.21-.05a.76.76,0,0,1,.21,0h.42a.71.71,0,0,1,.21,0l.21.05.2.07.19.09.19.11.17.13.16.14.14.16.13.17.11.18.09.2c0,.06.05.13.07.2a1.46,1.46,0,0,1,0,.2,1.52,1.52,0,0,1,0,.21,1.7,1.7,0,0,1,0,.22A1.48,1.48,0,0,1,179.69,19.38Z"/><path d="M198,15.22a.39.39,0,0,1,.39.4v5.91h-9.46V15.62a.39.39,0,0,1,.39-.4Zm-8.68-.79a1.18,1.18,0,0,0-1.18,1.19v6.7h11v-6.7A1.18,1.18,0,0,0,198,14.43Zm-2,8.29H200a1.18,1.18,0,0,1-1.18,1.18H188.54a1.18,1.18,0,0,1-1.18-1.18"/><path d="M194.07,20.37h-.8V17.25h-1v-.67h2.86v.67h-1Z"/><path d="M37.54,15.14a2.31,2.31,0,0,1,1.62.48,1.68,1.68,0,0,1,.5,1.31,2.07,2.07,0,0,1-.11.71,1.54,1.54,0,0,1-.37.61,1.68,1.68,0,0,1-.69.42,2.9,2.9,0,0,1-1.05.16h-.52v2H35.71V15.14Zm-.06,1h-.56v1.7h.4a1.8,1.8,0,0,0,.6-.09.72.72,0,0,0,.38-.28.81.81,0,0,0,.14-.49.79.79,0,0,0-.23-.63A1.08,1.08,0,0,0,37.48,16.13Z"/><path d="M40.93,14.77a.85.85,0,0,1,.46.12.51.51,0,0,1,.19.46.5.5,0,0,1-.19.46.88.88,0,0,1-.92,0,.5.5,0,0,1-.19-.46.51.51,0,0,1,.19-.46A.85.85,0,0,1,40.93,14.77Zm.6,1.71v4.38h-1.2V16.48Z"/><path d="M44.94,16.41a1.6,1.6,0,0,1,1.13.38A1.57,1.57,0,0,1,46.5,18v2.85H45.3V18.31a1.22,1.22,0,0,0-.17-.71.6.6,0,0,0-.53-.24.76.76,0,0,0-.75.37,2.37,2.37,0,0,0-.2,1.07v2.06h-1.2V16.48h.92l.16.57h.06a1.41,1.41,0,0,1,.36-.37,1.62,1.62,0,0,1,.46-.21A2.33,2.33,0,0,1,44.94,16.41Z"/><path d="M50.46,19.56a1.28,1.28,0,0,1-.21.75,1.23,1.23,0,0,1-.63.47,2.79,2.79,0,0,1-1,.16,4.46,4.46,0,0,1-.79-.06,3.19,3.19,0,0,1-.65-.19v-1a4,4,0,0,0,.76.27,3.43,3.43,0,0,0,.72.1,1,1,0,0,0,.5-.1.33.33,0,0,0,.15-.28.36.36,0,0,0-.06-.2.89.89,0,0,0-.26-.2c-.14-.07-.34-.17-.63-.29a3.76,3.76,0,0,1-.67-.35,1,1,0,0,1-.39-.41,1.29,1.29,0,0,1-.13-.62,1,1,0,0,1,.47-.91,2.35,2.35,0,0,1,1.26-.3,4,4,0,0,1,.78.07,4.35,4.35,0,0,1,.76.27l-.36.86c-.22-.09-.42-.17-.61-.23a2,2,0,0,0-.59-.09.82.82,0,0,0-.39.07.24.24,0,0,0-.14.22.31.31,0,0,0,.07.18.78.78,0,0,0,.27.18c.13.07.32.15.58.26a4.38,4.38,0,0,1,.65.32,1.11,1.11,0,0,1,.57,1Z"/><path d="M31.31,86.11V80.82h1l2,2.37,2-2.37h1v5.29h-.89V82.05l-2.1,2.51-2.11-2.5v4Z"/><path d="M38,81.33v-.88h.87v.88Zm0,4.78V81.85h.87v4.26Z"/><path d="M39.54,86.11V81.85h3.35a.85.85,0,0,1,.49.14,1,1,0,0,1,.36.36,1,1,0,0,1,.13.48v3.28H43V82.86a.13.13,0,0,0,0-.1.15.15,0,0,0-.09,0H40.55a.14.14,0,0,0-.14.14v3.25Z"/><path d="M44.49,81.33v-.88h.88v.88Zm0,4.78V81.85h.88v4.26Z"/><path d="M46,84.38V83.5h3v.88Z"/><path d="M49.64,86.11V80.82h.89V83h1.36l1.84-2.21h1V81l-2,2.44,2,2.43v.21h-1l-1.84-2.2H50.53v2.2Z"/><path d="M58.26,86.11l-3.07-5.29h1l2.45,4.26,2.45-4.26h1l-3.07,5.29Z"/><path d="M62.57,86.11V80.82h1l2,2.37,2-2.37h1v5.29h-.89V82.05l-2.11,2.51-2.11-2.5v4Z"/><path d="M70,82.57a.55.55,0,0,1,.16-.45.66.66,0,0,1,.4-.13.68.68,0,0,1,.4.13.52.52,0,0,1,.16.45.52.52,0,0,1-.16.43.62.62,0,0,1-.4.13.6.6,0,0,1-.4-.13A.52.52,0,0,1,70,82.57Zm0,3a.54.54,0,0,1,.16-.45.65.65,0,0,1,.4-.12.68.68,0,0,1,.4.12.54.54,0,0,1,.16.45.52.52,0,0,1-.16.43.62.62,0,0,1-.4.13.6.6,0,0,1-.4-.13A.52.52,0,0,1,70,85.6Z"/><path d="M74.54,86.06H73.6V81.61H72.09v-.79h4v.79H74.54Z"/><path d="M79.63,82.08v4h-.72l-.13-.51h0a1,1,0,0,1-.33.33,1.54,1.54,0,0,1-.43.2,2,2,0,0,1-.48.06,1.68,1.68,0,0,1-.77-.16,1.06,1.06,0,0,1-.49-.47,1.8,1.8,0,0,1-.17-.83v-2.6H77V84.5a1,1,0,0,0,.17.66.68.68,0,0,0,.56.23.94.94,0,0,0,.59-.16.85.85,0,0,0,.3-.46,2.63,2.63,0,0,0,.09-.74v-2Z"/><path d="M82.61,82h.21l.2,0-.09.86-.17,0h-.19a1.23,1.23,0,0,0-.42.07,1.07,1.07,0,0,0-.36.2,1,1,0,0,0-.25.35,1.29,1.29,0,0,0-.09.51v2.06h-.93v-4h.72l.13.69h0a1.57,1.57,0,0,1,.3-.38,1.2,1.2,0,0,1,.41-.28A1.13,1.13,0,0,1,82.61,82Z"/><path d="M85.59,82a1.48,1.48,0,0,1,1,.34A1.43,1.43,0,0,1,87,83.47v2.59h-.92V83.65a1.07,1.07,0,0,0-.18-.67.66.66,0,0,0-.56-.22.8.8,0,0,0-.76.35,2,2,0,0,0-.21,1v1.94h-.92v-4h.71l.13.52h0a1.33,1.33,0,0,1,.33-.34,1.46,1.46,0,0,1,.42-.19A2,2,0,0,1,85.59,82Z"/><path d="M90.53,83.13l1.19-2.31h1L91,84v2h-.94v-2l-1.75-3.24h1Z"/><path d="M96.23,84.07a2.67,2.67,0,0,1-.13.88,2,2,0,0,1-.38.65,1.62,1.62,0,0,1-.6.4,2.28,2.28,0,0,1-.8.14,2,2,0,0,1-.75-.14,1.62,1.62,0,0,1-.6-.4,1.85,1.85,0,0,1-.39-.65,2.43,2.43,0,0,1-.14-.88A2.48,2.48,0,0,1,92.66,83a1.66,1.66,0,0,1,.66-.7,2.08,2.08,0,0,1,1-.24,2,2,0,0,1,1,.24,1.78,1.78,0,0,1,.67.69A2.42,2.42,0,0,1,96.23,84.07Zm-2.85,0a2.48,2.48,0,0,0,.1.71.89.89,0,0,0,.31.45.85.85,0,0,0,.54.16.86.86,0,0,0,.55-.16.89.89,0,0,0,.31-.45,2.5,2.5,0,0,0,.09-.71,2.12,2.12,0,0,0-.1-.72.84.84,0,0,0-.31-.44.91.91,0,0,0-.54-.15.79.79,0,0,0-.72.34A1.71,1.71,0,0,0,93.38,84.07Z"/><path d="M100.43,82.08v4H99.7l-.13-.51h0a.92.92,0,0,1-.32.33,1.75,1.75,0,0,1-.44.2,1.91,1.91,0,0,1-.48.06,1.68,1.68,0,0,1-.77-.16,1.06,1.06,0,0,1-.49-.47,1.8,1.8,0,0,1-.17-.83v-2.6h.93V84.5a1.09,1.09,0,0,0,.17.66.68.68,0,0,0,.56.23.94.94,0,0,0,.59-.16.85.85,0,0,0,.3-.46A2.63,2.63,0,0,0,99.5,84v-2Z"/><path d="M103.4,82h.21l.2,0-.08.86-.18,0h-.18a1.25,1.25,0,0,0-.43.07,1.07,1.07,0,0,0-.36.2,1,1,0,0,0-.25.35,1.29,1.29,0,0,0-.09.51v2.06h-.93v-4H102l.13.69h0a1.57,1.57,0,0,1,.3-.38,1.3,1.3,0,0,1,.41-.28A1.16,1.16,0,0,1,103.4,82Z"/><path d="M105.37,86.06V80.82h.94v4.45h2.19v.79Z"/><path d="M110.61,82a1.78,1.78,0,0,1,1.17.33,1.28,1.28,0,0,1,.41,1v2.67h-.66l-.18-.55h0a1.72,1.72,0,0,1-.35.36,1.23,1.23,0,0,1-.41.21,2.37,2.37,0,0,1-.57.06,1.61,1.61,0,0,1-.63-.13,1,1,0,0,1-.45-.41,1.48,1.48,0,0,1-.16-.7,1.06,1.06,0,0,1,.45-.93,2.69,2.69,0,0,1,1.37-.34l.7,0v-.2a.67.67,0,0,0-.19-.54.73.73,0,0,0-.51-.16,2.2,2.2,0,0,0-.58.08,5.2,5.2,0,0,0-.55.21l-.29-.65a3.74,3.74,0,0,1,.67-.25A3.42,3.42,0,0,1,110.61,82Zm.17,2.19a1.38,1.38,0,0,0-.84.21.59.59,0,0,0-.24.5.49.49,0,0,0,.17.41.73.73,0,0,0,.43.12,1.08,1.08,0,0,0,.69-.23.87.87,0,0,0,.28-.69v-.34Z"/><path d="M115.15,82a1.37,1.37,0,0,1,1.12.52,2.32,2.32,0,0,1,.43,1.54,2.86,2.86,0,0,1-.2,1.13,1.52,1.52,0,0,1-.55.7,1.44,1.44,0,0,1-.82.24,1.56,1.56,0,0,1-.51-.08,1.37,1.37,0,0,1-.38-.2,1.28,1.28,0,0,1-.26-.26h-.06a2.43,2.43,0,0,1,0,.3c0,.11,0,.21,0,.31v1.62h-.93V82.08h.75l.13.53h0a1.27,1.27,0,0,1,.27-.3,1.09,1.09,0,0,1,.38-.22A1.62,1.62,0,0,1,115.15,82Zm-.27.75a.91.91,0,0,0-.52.13.7.7,0,0,0-.29.39,2.1,2.1,0,0,0-.09.66v.12a3,3,0,0,0,.08.72.84.84,0,0,0,.29.45.9.9,0,0,0,.55.15.71.71,0,0,0,.48-.16,1,1,0,0,0,.28-.46,2.45,2.45,0,0,0,.09-.71,1.78,1.78,0,0,0-.21-1A.71.71,0,0,0,114.88,82.76Z"/><path d="M118.9,85.4a1.86,1.86,0,0,0,.34,0l.3-.07V86a2,2,0,0,1-.38.11,2.63,2.63,0,0,1-.49,0,1.56,1.56,0,0,1-.62-.12.87.87,0,0,1-.44-.39,1.54,1.54,0,0,1-.16-.78V82.78h-.54v-.4l.59-.33.29-.84h.58v.87h1.13v.7h-1.13v2.06a.54.54,0,0,0,.15.42A.56.56,0,0,0,118.9,85.4Z"/><path d="M123.61,84.07a2.66,2.66,0,0,1-.14.88,1.69,1.69,0,0,1-.38.65,1.48,1.48,0,0,1-.6.4,2.22,2.22,0,0,1-.79.14A2,2,0,0,1,121,86a1.62,1.62,0,0,1-.6-.4A2,2,0,0,1,120,85a2.66,2.66,0,0,1-.14-.88A2.48,2.48,0,0,1,120,83a1.55,1.55,0,0,1,.66-.7,2.08,2.08,0,0,1,1-.24,2,2,0,0,1,1,.24,1.69,1.69,0,0,1,.66.69A2.3,2.3,0,0,1,123.61,84.07Zm-2.85,0a2.48,2.48,0,0,0,.1.71.89.89,0,0,0,.31.45.85.85,0,0,0,.54.16.88.88,0,0,0,.55-.16.82.82,0,0,0,.3-.45,2.17,2.17,0,0,0,.1-.71,2.4,2.4,0,0,0-.1-.72.82.82,0,0,0-.85-.59.79.79,0,0,0-.72.34A1.71,1.71,0,0,0,120.76,84.07Z"/><path d="M126.36,82a1.39,1.39,0,0,1,1.13.52,2.38,2.38,0,0,1,.42,1.54,2.69,2.69,0,0,1-.2,1.13,1.46,1.46,0,0,1-.55.7,1.41,1.41,0,0,1-.82.24,1.6,1.6,0,0,1-.51-.08,1.31,1.31,0,0,1-.37-.2,1.34,1.34,0,0,1-.27-.26h0c0,.09,0,.19,0,.3s0,.21,0,.31v1.62h-.92V82.08H125l.13.53h0a1.93,1.93,0,0,1,.27-.3,1.19,1.19,0,0,1,.38-.22A1.67,1.67,0,0,1,126.36,82Zm-.26.75a.89.89,0,0,0-.52.13.66.66,0,0,0-.29.39,2.41,2.41,0,0,0-.1.66v.12a2.53,2.53,0,0,0,.09.72.83.83,0,0,0,.28.45.92.92,0,0,0,.55.15.68.68,0,0,0,.48-.16.92.92,0,0,0,.28-.46,2.43,2.43,0,0,0,.1-.71,1.78,1.78,0,0,0-.22-1A.69.69,0,0,0,126.1,82.76Z"/><path d="M131.47,86.06h-2.21v-.53l.64-.24V81.6l-.64-.25v-.53h2.21v.53l-.63.25v3.69l.63.24Z"/><path d="M134.16,82a1.51,1.51,0,0,1,1.05.34,1.47,1.47,0,0,1,.38,1.12v2.59h-.93V83.65a1.07,1.07,0,0,0-.18-.67.65.65,0,0,0-.56-.22.8.8,0,0,0-.76.35,2,2,0,0,0-.21,1v1.94H132v-4h.71l.13.52h0a1.33,1.33,0,0,1,.33-.34,1.4,1.4,0,0,1,.43-.19A1.86,1.86,0,0,1,134.16,82Z"/><path d="M138,85.4a1.75,1.75,0,0,0,.33,0l.31-.07V86a2.1,2.1,0,0,1-.39.11,2.54,2.54,0,0,1-.49,0,1.51,1.51,0,0,1-.61-.12.83.83,0,0,1-.44-.39,1.53,1.53,0,0,1-.17-.78V82.78H136v-.4l.59-.33.3-.84h.58v.87h1.13v.7h-1.13v2.06a.57.57,0,0,0,.14.42A.56.56,0,0,0,138,85.4Z"/><path d="M142.7,84.07a2.67,2.67,0,0,1-.13.88,2,2,0,0,1-.38.65,1.55,1.55,0,0,1-.6.4,2.28,2.28,0,0,1-.8.14A2,2,0,0,1,140,86a1.62,1.62,0,0,1-.6-.4,1.85,1.85,0,0,1-.39-.65,2.43,2.43,0,0,1-.14-.88,2.35,2.35,0,0,1,.23-1.12,1.58,1.58,0,0,1,.65-.7,2.08,2.08,0,0,1,1-.24,2,2,0,0,1,1,.24,1.71,1.71,0,0,1,.67.69A2.42,2.42,0,0,1,142.7,84.07Zm-2.84,0a2.5,2.5,0,0,0,.09.71.89.89,0,0,0,.31.45.85.85,0,0,0,.54.16.86.86,0,0,0,.55-.16.89.89,0,0,0,.31-.45,2.5,2.5,0,0,0,.09-.71,2.12,2.12,0,0,0-.1-.72.84.84,0,0,0-.31-.44.91.91,0,0,0-.54-.15.79.79,0,0,0-.72.34A1.72,1.72,0,0,0,139.86,84.07Z"/><path d="M146,82a1.81,1.81,0,0,1,1.17.33,1.27,1.27,0,0,1,.4,1v2.67h-.65l-.19-.55h0a1.72,1.72,0,0,1-.35.36,1.14,1.14,0,0,1-.41.21,2.23,2.23,0,0,1-.56.06,1.62,1.62,0,0,1-.64-.13,1.08,1.08,0,0,1-.44-.41,1.37,1.37,0,0,1-.16-.7,1.06,1.06,0,0,1,.45-.93,2.66,2.66,0,0,1,1.37-.34l.69,0v-.2a.7.7,0,0,0-.18-.54.75.75,0,0,0-.52-.16,2.25,2.25,0,0,0-.58.08q-.27.09-.54.21l-.29-.65a3.47,3.47,0,0,1,.67-.25A3.35,3.35,0,0,1,146,82Zm.17,2.19a1.43,1.43,0,0,0-.85.21.59.59,0,0,0-.23.5.47.47,0,0,0,.17.41.71.71,0,0,0,.43.12,1,1,0,0,0,.68-.23.84.84,0,0,0,.28-.69v-.34Z"/><path d="M153.75,86.06h-1.08l-1.56-2.32-.49.39v1.93h-.94V80.82h.94v2.47l.3-.38.31-.38,1.42-1.71h1.07l-1.93,2.3Z"/><path d="M158.24,80.82l-1.81,5.24h-1l-1.81-5.24h1L155.63,84a2.94,2.94,0,0,1,.1.34c0,.14.08.28.11.43s.07.27.09.38a2.16,2.16,0,0,1,.08-.38c0-.15.07-.29.11-.43s.07-.25.1-.34l1.06-3.21Z"/><path d="M161,86.06l-1.44-4.3h0c0,.1,0,.24,0,.42s0,.37,0,.58,0,.4,0,.59v2.71h-.85V80.82h1.31l1.38,4.12h0l1.44-4.12h1.31v5.24h-.9V83.3c0-.16,0-.35,0-.55s0-.38,0-.56,0-.32,0-.42h0l-1.5,4.29Z"/><path d="M168.72,81.54a1.47,1.47,0,0,0-.64.13,1.43,1.43,0,0,0-.47.38,1.68,1.68,0,0,0-.29.6,3.3,3.3,0,0,0,.06,1.82,1.36,1.36,0,0,0,.5.65,1.46,1.46,0,0,0,.84.22,3.49,3.49,0,0,0,.65-.06c.2,0,.42-.11.65-.19v.8a3,3,0,0,1-.65.19,4.14,4.14,0,0,1-.75.06,2.42,2.42,0,0,1-1.34-.34,2,2,0,0,1-.78-.94,3.46,3.46,0,0,1-.26-1.42,3.42,3.42,0,0,1,.16-1.09,2.61,2.61,0,0,1,.48-.85,2.11,2.11,0,0,1,.78-.56,2.71,2.71,0,0,1,1.06-.2,3,3,0,0,1,.79.1,3.61,3.61,0,0,1,.72.25l-.32.77a5.77,5.77,0,0,0-.58-.22A1.81,1.81,0,0,0,168.72,81.54Z"/><path d="M174.33,84.07a2.67,2.67,0,0,1-.13.88,1.83,1.83,0,0,1-.38.65,1.48,1.48,0,0,1-.6.4,2.28,2.28,0,0,1-.8.14,2,2,0,0,1-.75-.14,1.62,1.62,0,0,1-.6-.4,1.85,1.85,0,0,1-.39-.65,2.66,2.66,0,0,1-.14-.88,2.35,2.35,0,0,1,.23-1.12,1.58,1.58,0,0,1,.65-.7,2.08,2.08,0,0,1,1-.24,2,2,0,0,1,1,.24,1.65,1.65,0,0,1,.67.69A2.42,2.42,0,0,1,174.33,84.07Zm-2.84,0a2.17,2.17,0,0,0,.1.71.82.82,0,0,0,.3.45.85.85,0,0,0,.54.16.86.86,0,0,0,.55-.16.89.89,0,0,0,.31-.45,2.5,2.5,0,0,0,.09-.71,2.12,2.12,0,0,0-.1-.72.89.89,0,0,0-.3-.44.92.92,0,0,0-.55-.15.79.79,0,0,0-.72.34A1.72,1.72,0,0,0,171.49,84.07Z"/><path d="M177.12,82a1.49,1.49,0,0,1,1,.34,1.47,1.47,0,0,1,.38,1.12v2.59h-.93V83.65a1.07,1.07,0,0,0-.17-.67.68.68,0,0,0-.56-.22.79.79,0,0,0-.76.35,2,2,0,0,0-.21,1v1.94H175v-4h.72l.13.52h0a1.48,1.48,0,0,1,.32-.34,1.52,1.52,0,0,1,.43-.19A2,2,0,0,1,177.12,82Z"/><path d="M182.13,84.91a1.11,1.11,0,0,1-.19.67,1.15,1.15,0,0,1-.56.42,2.68,2.68,0,0,1-.91.14,3.73,3.73,0,0,1-.72-.06,2.79,2.79,0,0,1-.58-.18v-.79a3.93,3.93,0,0,0,.66.23,2.37,2.37,0,0,0,.67.1,1,1,0,0,0,.55-.12.37.37,0,0,0,.17-.31.44.44,0,0,0-.07-.22.75.75,0,0,0-.26-.2,5.81,5.81,0,0,0-.58-.27,3.7,3.7,0,0,1-.63-.31,1,1,0,0,1-.38-.37,1,1,0,0,1-.13-.54.93.93,0,0,1,.42-.82,2.1,2.1,0,0,1,1.13-.27,3.11,3.11,0,0,1,.69.07,2.84,2.84,0,0,1,.66.22l-.29.69a5.21,5.21,0,0,0-.54-.2,1.75,1.75,0,0,0-.55-.08.94.94,0,0,0-.46.09.27.27,0,0,0-.15.25.32.32,0,0,0,.07.22,1,1,0,0,0,.28.18l.55.24a4,4,0,0,1,.62.29,1.16,1.16,0,0,1,.39.37A1.08,1.08,0,0,1,182.13,84.91Z"/><path d="M186.28,84.07a2.67,2.67,0,0,1-.13.88,2,2,0,0,1-.38.65,1.48,1.48,0,0,1-.6.4,2.28,2.28,0,0,1-.8.14,2,2,0,0,1-.75-.14,1.62,1.62,0,0,1-.6-.4,1.85,1.85,0,0,1-.39-.65,2.66,2.66,0,0,1-.14-.88,2.48,2.48,0,0,1,.23-1.12,1.58,1.58,0,0,1,.65-.7,2.08,2.08,0,0,1,1-.24,1.92,1.92,0,0,1,1,.24,1.65,1.65,0,0,1,.67.69A2.42,2.42,0,0,1,186.28,84.07Zm-2.84,0a2.17,2.17,0,0,0,.1.71.83.83,0,0,0,.85.61.85.85,0,0,0,.54-.16.89.89,0,0,0,.31-.45,2.5,2.5,0,0,0,.09-.71,2.12,2.12,0,0,0-.1-.72.83.83,0,0,0-.3-.44.91.91,0,0,0-.54-.15.8.8,0,0,0-.73.34A1.72,1.72,0,0,0,183.44,84.07Z"/><path d="M187.87,86.06h-.93V80.48h.93Z"/><path d="M190.36,82a1.87,1.87,0,0,1,.92.21,1.56,1.56,0,0,1,.6.62,2.09,2.09,0,0,1,.22,1v.47h-2.64a1.18,1.18,0,0,0,.31.84,1,1,0,0,0,.79.3,2.84,2.84,0,0,0,.69-.08,3.2,3.2,0,0,0,.63-.23v.75a2.57,2.57,0,0,1-.61.2,3.33,3.33,0,0,1-.76.07,2.29,2.29,0,0,1-1-.23,1.58,1.58,0,0,1-.7-.68,2.28,2.28,0,0,1-.26-1.13,2.65,2.65,0,0,1,.23-1.15,1.64,1.64,0,0,1,.65-.7A1.85,1.85,0,0,1,190.36,82Zm0,.68a.81.81,0,0,0-.6.24,1.18,1.18,0,0,0-.27.71h1.71a1.22,1.22,0,0,0-.09-.49.79.79,0,0,0-.28-.34A.84.84,0,0,0,190.36,82.69Z"/><path d="M70.2,93.1a2.75,2.75,0,0,1-.3,1.35,1.85,1.85,0,0,1-.85.81,3,3,0,0,1-1.34.28H66.38V90.77h1.47A2.84,2.84,0,0,1,69.1,91a1.87,1.87,0,0,1,.81.79A2.61,2.61,0,0,1,70.2,93.1Zm-.63,0a2.4,2.4,0,0,0-.21-1,1.38,1.38,0,0,0-.62-.6,2.25,2.25,0,0,0-1-.2H67V95h.65a2,2,0,0,0,1.45-.48A1.91,1.91,0,0,0,69.57,93.12Z"/><path d="M74.29,93.74a2.39,2.39,0,0,1-.12.79,1.63,1.63,0,0,1-.33.58,1.31,1.31,0,0,1-.53.37,1.92,1.92,0,0,1-.69.12,1.76,1.76,0,0,1-.66-.12,1.35,1.35,0,0,1-.52-.37,1.65,1.65,0,0,1-.34-.58,2.39,2.39,0,0,1-.12-.79,2.22,2.22,0,0,1,.2-1,1.37,1.37,0,0,1,.57-.62,1.7,1.7,0,0,1,.89-.22,1.64,1.64,0,0,1,.86.22,1.45,1.45,0,0,1,.58.62A2.22,2.22,0,0,1,74.29,93.74Zm-2.71,0a2.29,2.29,0,0,0,.11.73.91.91,0,0,0,.94.64,1,1,0,0,0,.6-.16,1,1,0,0,0,.34-.48,2.29,2.29,0,0,0,.11-.73,2.2,2.2,0,0,0-.11-.73.92.92,0,0,0-.35-.46,1,1,0,0,0-.59-.17.91.91,0,0,0-.8.36A1.8,1.8,0,0,0,71.58,93.74Z"/><path d="M77.4,93.51a2.29,2.29,0,0,1-.08-.28,2.5,2.5,0,0,1-.07-.26l-.06-.23c0-.07,0-.13,0-.18h0s0,.11,0,.18,0,.15-.06.24,0,.17-.07.26,0,.18-.08.28l-.64,2h-.67l-1-3.58h.61l.49,1.91c0,.13.07.26.1.39s.06.26.09.37,0,.22.05.31h0c0-.06,0-.12,0-.2l.06-.26.06-.26c0-.09,0-.17.07-.24l.64-2h.64l.61,2a3,3,0,0,1,.1.32l.09.34a1.18,1.18,0,0,1,0,.29h0c0-.07,0-.17.05-.28s0-.24.09-.38.07-.27.1-.4l.5-1.91h.6l-1,3.58H78Z"/><path d="M82.06,91.89a1.35,1.35,0,0,1,1,.31,1.32,1.32,0,0,1,.32,1v2.34h-.58v-2.3a.91.91,0,0,0-.19-.64.76.76,0,0,0-.61-.22.91.91,0,0,0-.82.34,1.7,1.7,0,0,0-.23,1v1.86h-.58V92h.47l.09.48h0a1.26,1.26,0,0,1,.3-.31,1.38,1.38,0,0,1,.39-.18A1.61,1.61,0,0,1,82.06,91.89Z"/><path d="M85.05,95.54h-.59V90.46h.59Z"/><path d="M89.3,93.74a2.69,2.69,0,0,1-.11.79,1.65,1.65,0,0,1-.34.58,1.24,1.24,0,0,1-.53.37,1.85,1.85,0,0,1-.69.12,1.71,1.71,0,0,1-.65-.12,1.28,1.28,0,0,1-.52-.37,1.53,1.53,0,0,1-.35-.58,2.39,2.39,0,0,1-.12-.79,2.22,2.22,0,0,1,.2-1,1.37,1.37,0,0,1,.57-.62,1.7,1.7,0,0,1,.89-.22,1.62,1.62,0,0,1,.86.22,1.45,1.45,0,0,1,.58.62A2.22,2.22,0,0,1,89.3,93.74Zm-2.7,0a2,2,0,0,0,.11.73.9.9,0,0,0,.34.48,1,1,0,0,0,.59.16,1,1,0,0,0,.6-.16,1,1,0,0,0,.34-.48,2,2,0,0,0,.11-.73,2,2,0,0,0-.11-.73,1,1,0,0,0-.34-.46,1,1,0,0,0-.6-.17.91.91,0,0,0-.8.36A1.8,1.8,0,0,0,86.6,93.74Z"/><path d="M91.59,91.9a1.42,1.42,0,0,1,1,.28,1.23,1.23,0,0,1,.31.92v2.44h-.43L92.33,95h0a1.61,1.61,0,0,1-.32.32.93.93,0,0,1-.37.19,1.88,1.88,0,0,1-.51.06,1.54,1.54,0,0,1-.58-.11.86.86,0,0,1-.4-.35,1.11,1.11,0,0,1-.15-.6.93.93,0,0,1,.42-.82,2.4,2.4,0,0,1,1.3-.32l.61,0v-.22a.67.67,0,0,0-.75-.79,1.89,1.89,0,0,0-.53.08,4.17,4.17,0,0,0-.47.19l-.18-.44a2.88,2.88,0,0,1,.55-.21A2.46,2.46,0,0,1,91.59,91.9Zm.17,1.91a1.65,1.65,0,0,0-.92.21.59.59,0,0,0-.26.53.53.53,0,0,0,.18.44.77.77,0,0,0,.47.14,1.12,1.12,0,0,0,.76-.25,1,1,0,0,0,.3-.77v-.32Z"/><path d="M95.25,95.6a1.34,1.34,0,0,1-1.07-.46,2.62,2.62,0,0,1,0-2.78,1.36,1.36,0,0,1,1.07-.47,1.45,1.45,0,0,1,.49.07,1,1,0,0,1,.36.19,1.1,1.1,0,0,1,.26.27h0l0-.26c0-.11,0-.2,0-.27V90.46H97v5.08h-.47l-.09-.49h0a1,1,0,0,1-.26.28,1.25,1.25,0,0,1-.36.2A1.49,1.49,0,0,1,95.25,95.6Zm.09-.49a.92.92,0,0,0,.8-.31,1.57,1.57,0,0,0,.23-.93v-.11a2,2,0,0,0-.22-1,.9.9,0,0,0-.81-.35.79.79,0,0,0-.72.37,2,2,0,0,0-.23,1,1.86,1.86,0,0,0,.23,1A.8.8,0,0,0,95.34,95.11Z"/><path d="M101.18,91.9a1.41,1.41,0,0,1,1,.28,1.19,1.19,0,0,1,.31.92v2.44H102l-.12-.51h0a1.93,1.93,0,0,1-.32.32,1,1,0,0,1-.38.19,1.88,1.88,0,0,1-.51.06,1.48,1.48,0,0,1-.57-.11.88.88,0,0,1-.41-.35,1.11,1.11,0,0,1-.15-.6.91.91,0,0,1,.43-.82,2.39,2.39,0,0,1,1.29-.32l.61,0v-.22a.82.82,0,0,0-.19-.62.84.84,0,0,0-.55-.17,1.91,1.91,0,0,0-.54.08l-.47.19L100,92.2a2.88,2.88,0,0,1,.55-.21A2.52,2.52,0,0,1,101.18,91.9Zm.18,1.91a1.67,1.67,0,0,0-.93.21.61.61,0,0,0-.26.53.51.51,0,0,0,.19.44.75.75,0,0,0,.47.14,1.11,1.11,0,0,0,.75-.25,1,1,0,0,0,.3-.77v-.32Z"/><path d="M105.28,91.89a1.33,1.33,0,0,1,1.06.46,2.06,2.06,0,0,1,.41,1.39,2.54,2.54,0,0,1-.19,1,1.35,1.35,0,0,1-.51.63,1.42,1.42,0,0,1-.78.21,1.49,1.49,0,0,1-.49-.07,1.23,1.23,0,0,1-.36-.19,1.28,1.28,0,0,1-.26-.26h0c0,.08,0,.17,0,.29s0,.22,0,.3v1.47h-.59V92h.48l.08.48h0a1.69,1.69,0,0,1,.26-.28,1.25,1.25,0,0,1,.36-.2A1.47,1.47,0,0,1,105.28,91.89Zm-.11.49a1.11,1.11,0,0,0-.58.14.74.74,0,0,0-.32.41,2,2,0,0,0-.11.7v.11a2.75,2.75,0,0,0,.09.75.94.94,0,0,0,.32.47,1.08,1.08,0,0,0,.61.15.8.8,0,0,0,.54-.18,1,1,0,0,0,.31-.49,2.16,2.16,0,0,0,.11-.71,1.78,1.78,0,0,0-.24-1A.8.8,0,0,0,105.17,92.38Z"/><path d="M109.39,91.89a1.33,1.33,0,0,1,1.06.46,2.06,2.06,0,0,1,.41,1.39,2.54,2.54,0,0,1-.19,1,1.35,1.35,0,0,1-.51.63,1.42,1.42,0,0,1-.78.21,1.49,1.49,0,0,1-.49-.07,1.23,1.23,0,0,1-.36-.19,1.28,1.28,0,0,1-.26-.26h0c0,.08,0,.17,0,.29s0,.22,0,.3v1.47h-.59V92h.48l.08.48h0a1.69,1.69,0,0,1,.26-.28,1.25,1.25,0,0,1,.36-.2A1.47,1.47,0,0,1,109.39,91.89Zm-.11.49a1.08,1.08,0,0,0-.58.14.74.74,0,0,0-.32.41,2,2,0,0,0-.11.7v.11a2.75,2.75,0,0,0,.09.75.94.94,0,0,0,.32.47,1.08,1.08,0,0,0,.61.15.8.8,0,0,0,.54-.18,1,1,0,0,0,.31-.49,2.16,2.16,0,0,0,.11-.71,1.78,1.78,0,0,0-.24-1A.8.8,0,0,0,109.28,92.38Z"/><path d="M115,90.69a1.32,1.32,0,0,1,.62.13,1,1,0,0,1,.4.35,1.12,1.12,0,0,1-.13,1.27,3,3,0,0,1-.69.53l1.29,1.24a1.86,1.86,0,0,0,.29-.47,4.55,4.55,0,0,0,.18-.59h.59a5.77,5.77,0,0,1-.26.8,2.53,2.53,0,0,1-.42.64l1,1H117l-.58-.56a2.83,2.83,0,0,1-.45.32,1.79,1.79,0,0,1-.53.22,2.21,2.21,0,0,1-.66.08,1.94,1.94,0,0,1-.8-.15,1.13,1.13,0,0,1-.52-.44,1.38,1.38,0,0,1-.19-.72,1.31,1.31,0,0,1,.13-.58,1.28,1.28,0,0,1,.36-.45,4.2,4.2,0,0,1,.54-.37l-.27-.33a2.08,2.08,0,0,1-.22-.38,1.1,1.1,0,0,1-.09-.45,1,1,0,0,1,.15-.56,1,1,0,0,1,.42-.35A1.53,1.53,0,0,1,115,90.69Zm-.29,2.57a2.91,2.91,0,0,0-.41.28,1.15,1.15,0,0,0-.27.32.88.88,0,0,0-.09.41.74.74,0,0,0,.25.59.92.92,0,0,0,.66.22,1.64,1.64,0,0,0,.73-.14,1.78,1.78,0,0,0,.52-.33Zm.27-2.09a.69.69,0,0,0-.46.15.52.52,0,0,0-.17.41.83.83,0,0,0,.12.44,2.73,2.73,0,0,0,.37.45,2.21,2.21,0,0,0,.57-.43.71.71,0,0,0,.17-.47.53.53,0,0,0-.16-.39A.6.6,0,0,0,115,91.17Z"/><path d="M121.43,91.89a1.45,1.45,0,0,1,.63.13,1.36,1.36,0,0,1,.49.41h0l.08-.47h.47V95.6a1.84,1.84,0,0,1-.18.85,1.14,1.14,0,0,1-.52.52,2.16,2.16,0,0,1-.9.17,4,4,0,0,1-.72-.06,2.38,2.38,0,0,1-.57-.17v-.54a2.27,2.27,0,0,0,.59.21,3.41,3.41,0,0,0,.73.07.94.94,0,0,0,.72-.27,1,1,0,0,0,.27-.74v-.37c0-.1,0-.17,0-.21h0a1.2,1.2,0,0,1-.46.41,1.48,1.48,0,0,1-.65.13,1.29,1.29,0,0,1-1.08-.49,2.1,2.1,0,0,1-.39-1.36,2.18,2.18,0,0,1,.39-1.36A1.3,1.3,0,0,1,121.43,91.89Zm.08.49a.89.89,0,0,0-.52.16,1.09,1.09,0,0,0-.32.47,2.37,2.37,0,0,0-.11.75,1.77,1.77,0,0,0,.25,1,.79.79,0,0,0,.71.35,1.33,1.33,0,0,0,.47-.07.71.71,0,0,0,.32-.22,1,1,0,0,0,.18-.38,2.29,2.29,0,0,0,.06-.56v-.14a2.21,2.21,0,0,0-.11-.79.8.8,0,0,0-.34-.44A1.17,1.17,0,0,0,121.51,92.38Z"/><path d="M125.65,91.89a1.52,1.52,0,0,1,.79.2,1.32,1.32,0,0,1,.51.56,1.94,1.94,0,0,1,.18.86v.35h-2.46a1.37,1.37,0,0,0,.31.92,1.07,1.07,0,0,0,.84.32,2.77,2.77,0,0,0,.6-.06,3.27,3.27,0,0,0,.55-.19v.52a3.2,3.2,0,0,1-.55.18,3.83,3.83,0,0,1-.63,0,2,2,0,0,1-.9-.2,1.52,1.52,0,0,1-.61-.62,2.22,2.22,0,0,1-.21-1,2.4,2.4,0,0,1,.19-1,1.46,1.46,0,0,1,.56-.64A1.42,1.42,0,0,1,125.65,91.89Zm0,.48a.84.84,0,0,0-.66.27,1.22,1.22,0,0,0-.29.75h1.82a1.44,1.44,0,0,0-.09-.53.86.86,0,0,0-.29-.36A.81.81,0,0,0,125.64,92.37Z"/><path d="M129.23,95.12l.27,0,.23,0v.45a1,1,0,0,1-.27.07,1.84,1.84,0,0,1-.33,0,1.46,1.46,0,0,1-.52-.09.78.78,0,0,1-.38-.34,1.29,1.29,0,0,1-.15-.68V92.41h-.51v-.28l.52-.23.23-.77h.35V92h1v.45h-1v2.07a.66.66,0,0,0,.15.48A.54.54,0,0,0,129.23,95.12Z"/><path d="M134.51,94.55a.93.93,0,0,1-.17.58,1.12,1.12,0,0,1-.49.35,2.22,2.22,0,0,1-.77.12,3,3,0,0,1-.64-.06,2.08,2.08,0,0,1-.48-.16v-.54a3.34,3.34,0,0,0,.52.2,2.16,2.16,0,0,0,.62.09,1.21,1.21,0,0,0,.65-.14.47.47,0,0,0,.2-.39.41.41,0,0,0-.08-.24.74.74,0,0,0-.26-.21,2.69,2.69,0,0,0-.55-.24,5.6,5.6,0,0,1-.59-.27,1.11,1.11,0,0,1-.38-.32.82.82,0,0,1-.13-.48.77.77,0,0,1,.37-.7,1.66,1.66,0,0,1,1-.25,2.93,2.93,0,0,1,.61.06,2.21,2.21,0,0,1,.53.18l-.2.47a2.6,2.6,0,0,0-.47-.16,1.79,1.79,0,0,0-.51-.07,1,1,0,0,0-.55.12.34.34,0,0,0-.19.31.36.36,0,0,0,.08.25,1,1,0,0,0,.29.21c.14.06.32.14.55.22a4.6,4.6,0,0,1,.58.27,1,1,0,0,1,.37.32A.9.9,0,0,1,134.51,94.55Z"/><path d="M138.38,92v3.58h-.49l-.08-.48h0a1,1,0,0,1-.29.31,1.44,1.44,0,0,1-.4.18,2.12,2.12,0,0,1-.44,0,1.69,1.69,0,0,1-.72-.13,1,1,0,0,1-.44-.43,1.6,1.6,0,0,1-.15-.74V92h.6v2.3a.91.91,0,0,0,.19.64.78.78,0,0,0,.6.21,1.05,1.05,0,0,0,.63-.15.75.75,0,0,0,.33-.44,2,2,0,0,0,.1-.7V92Z"/><path d="M141.22,91.89a1.33,1.33,0,0,1,1.06.46,2.06,2.06,0,0,1,.4,1.39,2.55,2.55,0,0,1-.18,1,1.35,1.35,0,0,1-.51.63,1.42,1.42,0,0,1-.78.21,1.49,1.49,0,0,1-.49-.07,1.23,1.23,0,0,1-.36-.19,1.28,1.28,0,0,1-.26-.26h0c0,.08,0,.17,0,.29s0,.22,0,.3v1.47h-.59V92H140l.08.48h0a1.69,1.69,0,0,1,.26-.28,1.25,1.25,0,0,1,.36-.2A1.47,1.47,0,0,1,141.22,91.89Zm-.11.49a1.08,1.08,0,0,0-.58.14.74.74,0,0,0-.32.41,2,2,0,0,0-.11.7v.11a2.75,2.75,0,0,0,.09.75.88.88,0,0,0,.32.47,1.08,1.08,0,0,0,.61.15.8.8,0,0,0,.54-.18,1.06,1.06,0,0,0,.31-.49,2.16,2.16,0,0,0,.11-.71,1.78,1.78,0,0,0-.24-1A.8.8,0,0,0,141.11,92.38Z"/><path d="M145.32,91.89a1.34,1.34,0,0,1,1.07.46,2.06,2.06,0,0,1,.4,1.39,2.55,2.55,0,0,1-.18,1,1.35,1.35,0,0,1-.51.63,1.42,1.42,0,0,1-.78.21,1.49,1.49,0,0,1-.49-.07,1.23,1.23,0,0,1-.36-.19,1.28,1.28,0,0,1-.26-.26h0c0,.08,0,.17,0,.29s0,.22,0,.3v1.47h-.59V92h.48l.08.48h0a1.69,1.69,0,0,1,.26-.28,1.25,1.25,0,0,1,.36-.2A1.45,1.45,0,0,1,145.32,91.89Zm-.1.49a1.08,1.08,0,0,0-.58.14.74.74,0,0,0-.32.41,2,2,0,0,0-.11.7v.11a2.75,2.75,0,0,0,.09.75.88.88,0,0,0,.32.47,1.08,1.08,0,0,0,.61.15.8.8,0,0,0,.54-.18,1.06,1.06,0,0,0,.31-.49,2.16,2.16,0,0,0,.11-.71,1.78,1.78,0,0,0-.24-1A.8.8,0,0,0,145.22,92.38Z"/><path d="M150.84,93.74a2.69,2.69,0,0,1-.11.79,1.51,1.51,0,0,1-.34.58,1.24,1.24,0,0,1-.53.37,1.85,1.85,0,0,1-.69.12,1.75,1.75,0,0,1-.65-.12,1.28,1.28,0,0,1-.52-.37,1.53,1.53,0,0,1-.35-.58,2.39,2.39,0,0,1-.12-.79,2.36,2.36,0,0,1,.2-1,1.37,1.37,0,0,1,.57-.62,1.7,1.7,0,0,1,.89-.22,1.62,1.62,0,0,1,.86.22,1.45,1.45,0,0,1,.58.62A2.22,2.22,0,0,1,150.84,93.74Zm-2.7,0a2,2,0,0,0,.11.73,1,1,0,0,0,.34.48,1,1,0,0,0,.6.16.91.91,0,0,0,.94-.64,2.3,2.3,0,0,0,.1-.73,2,2,0,0,0-.11-.73.9.9,0,0,0-.34-.46,1,1,0,0,0-.6-.17.91.91,0,0,0-.8.36A1.8,1.8,0,0,0,148.14,93.74Z"/><path d="M153.44,91.89h.22a.6.6,0,0,1,.2,0l-.07.54a1.08,1.08,0,0,0-.19,0l-.2,0a.86.86,0,0,0-.39.09,1.16,1.16,0,0,0-.34.24,1.21,1.21,0,0,0-.23.38,1.54,1.54,0,0,0-.08.5v1.91h-.59V92h.48l.07.65h0a1.36,1.36,0,0,1,.27-.36A1.18,1.18,0,0,1,153,92,1,1,0,0,1,153.44,91.89Z"/><path d="M155.73,95.12l.27,0,.23,0v.45a1,1,0,0,1-.27.07l-.33,0a1.46,1.46,0,0,1-.52-.09.78.78,0,0,1-.38-.34,1.29,1.29,0,0,1-.15-.68V92.41h-.51v-.28l.51-.23.24-.77h.35V92h1v.45h-1v2.07a.66.66,0,0,0,.15.48A.54.54,0,0,0,155.73,95.12Z"/><path d="M88.09,101.76a2.43,2.43,0,0,1-.12.79,1.72,1.72,0,0,1-.33.58,1.64,1.64,0,0,1-.53.37,1.94,1.94,0,0,1-.7.12,1.75,1.75,0,0,1-.65-.12,1.59,1.59,0,0,1-.52-.37,1.76,1.76,0,0,1-.35-.58,2.43,2.43,0,0,1-.12-.79,2.33,2.33,0,0,1,.2-1,1.54,1.54,0,0,1,.58-.63,1.76,1.76,0,0,1,.88-.21,1.69,1.69,0,0,1,.86.21,1.63,1.63,0,0,1,.59.63A2.32,2.32,0,0,1,88.09,101.76Zm-2.71,0a2.29,2.29,0,0,0,.11.73,1,1,0,0,0,.34.48,1,1,0,0,0,.6.16A1,1,0,0,0,87,103a1,1,0,0,0,.35-.48,2.29,2.29,0,0,0,.11-.73,2,2,0,0,0-.12-.73,1,1,0,0,0-.34-.47,1,1,0,0,0-.6-.16.89.89,0,0,0-.79.36A1.7,1.7,0,0,0,85.38,101.76Z"/><path d="M90.72,99.91a1.33,1.33,0,0,1,1.06.46,2,2,0,0,1,.41,1.39,2.41,2.41,0,0,1-.19,1,1.35,1.35,0,0,1-.51.63,1.42,1.42,0,0,1-.78.21,1.53,1.53,0,0,1-.49-.07,1.23,1.23,0,0,1-.36-.19,1.6,1.6,0,0,1-.26-.26h0c0,.08,0,.17,0,.29s0,.21,0,.3v1.47H89V100h.49l.08.49h0a1.37,1.37,0,0,1,.26-.28,1.25,1.25,0,0,1,.36-.2A1.51,1.51,0,0,1,90.72,99.91Zm-.11.49a1.11,1.11,0,0,0-.58.14.78.78,0,0,0-.32.41,2.16,2.16,0,0,0-.11.69v.12a2.28,2.28,0,0,0,.1.74A.8.8,0,0,0,90,103a1,1,0,0,0,.61.16.8.8,0,0,0,.54-.18,1.08,1.08,0,0,0,.32-.49,2.21,2.21,0,0,0,.1-.71,1.75,1.75,0,0,0-.24-1A.8.8,0,0,0,90.61,100.4Z"/><path d="M94.51,99.91a1.45,1.45,0,0,1,.79.2,1.32,1.32,0,0,1,.51.56,2,2,0,0,1,.17.85v.36H93.53a1.34,1.34,0,0,0,.31.92,1.1,1.1,0,0,0,.83.32,2.8,2.8,0,0,0,.61-.06,5,5,0,0,0,.54-.19v.52a2.25,2.25,0,0,1-.54.17,2.93,2.93,0,0,1-.63.06,1.87,1.87,0,0,1-.9-.21,1.38,1.38,0,0,1-.61-.61,2.09,2.09,0,0,1-.22-1,2.39,2.39,0,0,1,.2-1,1.43,1.43,0,0,1,1.39-.87Zm0,.48a.87.87,0,0,0-.67.27,1.35,1.35,0,0,0-.29.75h1.83a1.3,1.3,0,0,0-.1-.54.7.7,0,0,0-.28-.35A.83.83,0,0,0,94.5,100.39Z"/><path d="M98.61,99.91a1.33,1.33,0,0,1,1,.31,1.31,1.31,0,0,1,.33,1v2.33h-.58v-2.29a1,1,0,0,0-.19-.65.81.81,0,0,0-.61-.21.92.92,0,0,0-.82.33,1.76,1.76,0,0,0-.23,1v1.85h-.59V100h.48l.08.49h0a1.07,1.07,0,0,1,.29-.31,1.38,1.38,0,0,1,.39-.18A1.67,1.67,0,0,1,98.61,99.91Z"/><path d="M102.22,103.14l.27,0,.23-.05v.44a1,1,0,0,1-.27.08l-.33,0a1.27,1.27,0,0,1-.52-.1.78.78,0,0,1-.39-.33,1.41,1.41,0,0,1-.14-.68v-2.08h-.51v-.28l.51-.24.24-.76h.35V100h1v.46h-1v2.07a.66.66,0,0,0,.15.48A.54.54,0,0,0,102.22,103.14Z"/><path d="M104.81,99.91a1.46,1.46,0,0,1,.8.2,1.24,1.24,0,0,1,.5.56,1.9,1.9,0,0,1,.18.85v.36h-2.45a1.34,1.34,0,0,0,.31.92,1.1,1.1,0,0,0,.83.32,2.8,2.8,0,0,0,.61-.06,5,5,0,0,0,.54-.19v.52a2.25,2.25,0,0,1-.54.17,2.93,2.93,0,0,1-.63.06,1.87,1.87,0,0,1-.9-.21,1.38,1.38,0,0,1-.61-.61,2.09,2.09,0,0,1-.22-1,2.39,2.39,0,0,1,.2-1,1.47,1.47,0,0,1,.55-.65A1.54,1.54,0,0,1,104.81,99.91Zm0,.48a.87.87,0,0,0-.67.27,1.28,1.28,0,0,0-.29.75h1.83a1.3,1.3,0,0,0-.1-.54.7.7,0,0,0-.28-.35A.83.83,0,0,0,104.81,100.39Z"/><path d="M108.87,99.91h.22a.6.6,0,0,1,.2,0l-.07.54-.19,0h-.2a.86.86,0,0,0-.39.09,1,1,0,0,0-.34.24,1.21,1.21,0,0,0-.23.38,1.48,1.48,0,0,0-.08.49v1.91h-.59V100h.48l.07.66h0a1.41,1.41,0,0,1,.27-.37,1.37,1.37,0,0,1,.37-.26A1.1,1.1,0,0,1,108.87,99.91Z"/><path d="M111.61,100.43h-.9v3.12h-.59v-3.12h-.63v-.28l.63-.2v-.2a1.76,1.76,0,0,1,.14-.75.86.86,0,0,1,.4-.42,1.32,1.32,0,0,1,.62-.14,2.13,2.13,0,0,1,.39,0,2,2,0,0,1,.31.08l-.16.46-.24-.06a1,1,0,0,0-.29,0,.52.52,0,0,0-.44.2,1.11,1.11,0,0,0-.14.62V100h.9Z"/><path d="M113.62,99.91a1.39,1.39,0,0,1,1,.29,1.18,1.18,0,0,1,.32.91v2.44h-.43l-.11-.5h0a1.94,1.94,0,0,1-.32.32,1,1,0,0,1-.37.19,1.88,1.88,0,0,1-.51.06,1.5,1.5,0,0,1-.58-.11,1,1,0,0,1-.41-.35,1.21,1.21,0,0,1-.14-.6,1,1,0,0,1,.42-.83,2.39,2.39,0,0,1,1.29-.31l.61,0v-.22a.81.81,0,0,0-.19-.62.82.82,0,0,0-.55-.17,1.55,1.55,0,0,0-.53.08c-.17.06-.33.12-.48.19l-.18-.44a2.66,2.66,0,0,1,1.23-.31Zm.17,1.91a1.74,1.74,0,0,0-.93.22.6.6,0,0,0-.25.52.54.54,0,0,0,.18.45.77.77,0,0,0,.47.14,1.2,1.2,0,0,0,.76-.25,1,1,0,0,0,.3-.78v-.32Z"/><path d="M117.44,103.62a1.79,1.79,0,0,1-.84-.19,1.35,1.35,0,0,1-.58-.6,2.31,2.31,0,0,1-.21-1,2.21,2.21,0,0,1,.22-1.07,1.34,1.34,0,0,1,.59-.61,1.87,1.87,0,0,1,.86-.19,2.15,2.15,0,0,1,1,.19l-.19.49-.37-.12a2,2,0,0,0-.4,0,1.05,1.05,0,0,0-.59.15.91.91,0,0,0-.35.46,2,2,0,0,0-.12.75,1.94,1.94,0,0,0,.12.72.86.86,0,0,0,.34.46,1,1,0,0,0,.57.15,2,2,0,0,0,.51-.06,4.13,4.13,0,0,0,.42-.14v.52a1.9,1.9,0,0,1-.4.14A2.65,2.65,0,0,1,117.44,103.62Z"/><path d="M120.6,99.91a1.45,1.45,0,0,1,.79.2,1.32,1.32,0,0,1,.51.56,2,2,0,0,1,.17.85v.36h-2.45a1.34,1.34,0,0,0,.31.92,1.1,1.1,0,0,0,.83.32,2.8,2.8,0,0,0,.61-.06,4.37,4.37,0,0,0,.54-.19v.52a2.25,2.25,0,0,1-.54.17,2.93,2.93,0,0,1-.63.06,1.87,1.87,0,0,1-.9-.21,1.44,1.44,0,0,1-.61-.61,2.22,2.22,0,0,1-.22-1,2.39,2.39,0,0,1,.2-1,1.45,1.45,0,0,1,1.39-.87Zm0,.48a.87.87,0,0,0-.67.27,1.28,1.28,0,0,0-.28.75h1.82a1.49,1.49,0,0,0-.09-.54.77.77,0,0,0-.29-.35A.83.83,0,0,0,120.59,100.39Z"/><path d="M122.89,103.19a.41.41,0,0,1,.12-.34.44.44,0,0,1,.29-.11.44.44,0,0,1,.3.11.41.41,0,0,1,.12.34.45.45,0,0,1-.12.35.44.44,0,0,1-.3.11.44.44,0,0,1-.29-.11A.45.45,0,0,1,122.89,103.19Z"/><path d="M126.21,103.62a1.8,1.8,0,0,1-.85-.19,1.4,1.4,0,0,1-.58-.6,2.31,2.31,0,0,1-.21-1,2.21,2.21,0,0,1,.22-1.07,1.41,1.41,0,0,1,.6-.61,1.84,1.84,0,0,1,.86-.19,2.32,2.32,0,0,1,.53,0,2.16,2.16,0,0,1,.41.14l-.18.49-.37-.12a2.08,2.08,0,0,0-.41,0,1.08,1.08,0,0,0-.59.15,1,1,0,0,0-.35.46,2.28,2.28,0,0,0-.11.75,2.18,2.18,0,0,0,.11.72.92.92,0,0,0,.34.46,1,1,0,0,0,.57.15,2,2,0,0,0,.52-.06,3.26,3.26,0,0,0,.41-.14v.52a1.57,1.57,0,0,1-.4.14A2.54,2.54,0,0,1,126.21,103.62Z"/><path d="M131.09,101.76a2.74,2.74,0,0,1-.11.79,1.59,1.59,0,0,1-.34.58,1.45,1.45,0,0,1-.53.37,1.85,1.85,0,0,1-.69.12,1.75,1.75,0,0,1-.65-.12,1.5,1.5,0,0,1-.52-.37,1.61,1.61,0,0,1-.35-.58,2.43,2.43,0,0,1-.12-.79,2.33,2.33,0,0,1,.2-1,1.45,1.45,0,0,1,.57-.63,1.8,1.8,0,0,1,.89-.21,1.71,1.71,0,0,1,.86.21,1.54,1.54,0,0,1,.58.63A2.19,2.19,0,0,1,131.09,101.76Zm-2.7,0a2,2,0,0,0,.11.73.94.94,0,0,0,.34.48,1,1,0,0,0,.6.16A1,1,0,0,0,130,103a.94.94,0,0,0,.34-.48,2,2,0,0,0,.11-.73,2,2,0,0,0-.11-.73,1,1,0,0,0-.34-.47,1,1,0,0,0-.6-.16.91.91,0,0,0-.8.36A1.78,1.78,0,0,0,128.39,101.76Z"/><path d="M136,99.91a1.19,1.19,0,0,1,.91.31,1.39,1.39,0,0,1,.3,1v2.33h-.58v-2.3a1,1,0,0,0-.18-.64.68.68,0,0,0-.55-.21.84.84,0,0,0-.74.3,1.44,1.44,0,0,0-.23.88v2h-.58v-2.3a1.24,1.24,0,0,0-.08-.47.57.57,0,0,0-.24-.29.83.83,0,0,0-.41-.09.94.94,0,0,0-.57.15.83.83,0,0,0-.3.44,2.41,2.41,0,0,0-.09.71v1.85H132V100h.48l.08.49h0a1,1,0,0,1,.64-.49,1.63,1.63,0,0,1,1.1.08.88.88,0,0,1,.41.46h0a1.14,1.14,0,0,1,.49-.46A1.51,1.51,0,0,1,136,99.91Z"/><path class="cls-2" d="M32.28,70.35a3.15,3.15,0,0,1-1.47-.41,3.48,3.48,0,0,1-1.07-1.07,3.2,3.2,0,0,1-.4-1.47V59.19a3.15,3.15,0,0,1,.4-1.47,3.48,3.48,0,0,1,1.07-1.07,3.17,3.17,0,0,1,1.47-.41h8.43a3.18,3.18,0,0,1,1.49.41,3.52,3.52,0,0,1,1.06,1.07,3.2,3.2,0,0,1,.4,1.47V67.4a3.15,3.15,0,0,1-.4,1.47,3.51,3.51,0,0,1-1.06,1.07,3.22,3.22,0,0,1-1.49.41Zm0-2h8.43a1,1,0,0,0,.94-.95V59.19a1,1,0,0,0-.28-.67,1,1,0,0,0-.66-.28H32.28a1,1,0,0,0-1,.95V67.4a1,1,0,0,0,1,.95m13.9,7.59V56.24H57.57a3.15,3.15,0,0,1,1.47.41,3.52,3.52,0,0,1,1.06,1.07,3.2,3.2,0,0,1,.4,1.47V67.4a3.15,3.15,0,0,1-.4,1.47A3.51,3.51,0,0,1,59,69.94a3.17,3.17,0,0,1-1.47.41h-9.4v5.59Zm3-7.59h8.43a1,1,0,0,0,.67-.28,1.06,1.06,0,0,0,.27-.67V59.19a1.06,1.06,0,0,0-.27-.67,1,1,0,0,0-.67-.28H49.14a1.09,1.09,0,0,0-.68.28,1,1,0,0,0-.29.67V67.4a1,1,0,0,0,.29.67,1.07,1.07,0,0,0,.68.28m16,2a3.15,3.15,0,0,1-1.47-.41,3.52,3.52,0,0,1-1.06-1.07,3.2,3.2,0,0,1-.4-1.47V59.19a3.15,3.15,0,0,1,.4-1.47,3.51,3.51,0,0,1,1.06-1.07,3.17,3.17,0,0,1,1.47-.41h8.43a3.18,3.18,0,0,1,1.49.41,3.48,3.48,0,0,1,1.07,1.07,3.2,3.2,0,0,1,.4,1.47v5.1H64.18V67.4a1,1,0,0,0,.95.95H76.52v2Zm-.95-8H74.5V59.19a1.06,1.06,0,0,0-.27-.67,1,1,0,0,0-.67-.28H65.13a1,1,0,0,0-.95.95Zm14.85,8V56.24H90.42a3.15,3.15,0,0,1,1.47.41A3.52,3.52,0,0,1,93,57.72a3.2,3.2,0,0,1,.4,1.47V70.35h-2V59.19a1,1,0,0,0-1-.95H82a1.09,1.09,0,0,0-.68.28,1,1,0,0,0-.29.67V70.35Zm19.78,0a3.13,3.13,0,0,1-1.49-.41,3.39,3.39,0,0,1-1.06-1.07,3.27,3.27,0,0,1-.39-1.47V51.63h2v4.61h6.08v2H97.86V67.4a1,1,0,0,0,1,.95h5.13v2Zm9.88,0a3.15,3.15,0,0,1-1.47-.41,3.52,3.52,0,0,1-1.06-1.07,3.2,3.2,0,0,1-.4-1.47V59.19a3.15,3.15,0,0,1,.4-1.47,3.51,3.51,0,0,1,1.06-1.07,3.17,3.17,0,0,1,1.47-.41h8.43a3.13,3.13,0,0,1,1.49.41,3.48,3.48,0,0,1,1.07,1.07,3.2,3.2,0,0,1,.4,1.47v5.1H107.75V67.4a1.06,1.06,0,0,0,.27.67,1,1,0,0,0,.67.28h11.39v2Zm-.94-8h10.32V59.19a1,1,0,0,0-.95-.95h-8.43a1,1,0,0,0-.67.28,1.06,1.06,0,0,0-.27.67Zm14.8,8V59.19a3.15,3.15,0,0,1,.4-1.47A3.51,3.51,0,0,1,124,56.65a3.17,3.17,0,0,1,1.47-.41h7.9v2h-7.9a1,1,0,0,0-.67.28,1.06,1.06,0,0,0-.27.67V70.35Zm12.43,0V54.57a3.37,3.37,0,0,1,.38-1.5,3.21,3.21,0,0,1,1.06-1,3.36,3.36,0,0,1,1.49-.39h5.14v2h-5.14a1,1,0,0,0-.95,1v1.67h6.09v2H137V70.35Zm12.77,0a3.15,3.15,0,0,1-1.47-.41,3.48,3.48,0,0,1-1.07-1.07,3.2,3.2,0,0,1-.4-1.47V62.3h12.31V59.19a1,1,0,0,0-.28-.67,1,1,0,0,0-.66-.28H144.81v-2h11.37a3.18,3.18,0,0,1,1.49.41,3.52,3.52,0,0,1,1.06,1.07,3.2,3.2,0,0,1,.4,1.47V70.35Zm0-2h9.37V64.29H146.8V67.4a1,1,0,0,0,.95.95m16.79,2a3.15,3.15,0,0,1-1.47-.41A3.48,3.48,0,0,1,162,68.87a3.2,3.2,0,0,1-.4-1.47V59.19a3.15,3.15,0,0,1,.4-1.47,3.48,3.48,0,0,1,1.07-1.07,3.17,3.17,0,0,1,1.47-.41h11.34v2H164.54a1,1,0,0,0-.95.95V67.4a1,1,0,0,0,.95.95h11.38v2Zm16.83,0a3.08,3.08,0,0,1-1.46-.41,3.48,3.48,0,0,1-1.07-1.07,3.2,3.2,0,0,1-.4-1.47V59.19a3.15,3.15,0,0,1,.4-1.47,3.48,3.48,0,0,1,1.07-1.07,3.11,3.11,0,0,1,1.46-.41h8.43a3.19,3.19,0,0,1,1.5.41,3.52,3.52,0,0,1,1.06,1.07,3.2,3.2,0,0,1,.4,1.47v5.1H180.43V67.4a1,1,0,0,0,.28.67,1,1,0,0,0,.66.28h11.39v2Zm-.94-8h10.32V59.19a1,1,0,0,0-.95-.95h-8.43a1,1,0,0,0-.94.95Z"/><g id="Layer_2-2" data-name="Layer 2"><g id="Logo"><g id="HATCH"><path d="M124,132.71h-2.59a3,3,0,0,1-3.05-3V124h2v5.66a1.07,1.07,0,0,0,1.09,1.05H124a1.07,1.07,0,0,0,1.1-1.05V124h2v5.68A3,3,0,0,1,124,132.71Z"/></g><g id="HATCH-2"><polygon points="137.34 124.03 134.79 124.03 130.62 127.32 130.62 124.03 128.64 124.03 128.64 132.72 130.62 132.72 130.62 129.41 134.79 132.72 137.33 132.72 131.84 128.36 137.34 124.03 137.34 124.03"/></g><g id="HATCH-3"><path d="M127.06,143h-5.68a3.05,3.05,0,0,1-3-3.07v-2.54a3.05,3.05,0,0,1,3-3.07h5.68v2h-5.65a1.07,1.07,0,0,0-1,1.09v2.55a1.07,1.07,0,0,0,1,1.09h5.65Z"/></g><g id="HATCH-4"><path d="M134.28,134.29h-2.6a3,3,0,0,0-3,3V143h2v-2h4.73v2h2v-5.68A3,3,0,0,0,134.28,134.29ZM130.62,139v-1.71a1.07,1.07,0,0,1,1.09-1h2.54a1.07,1.07,0,0,1,1.1,1V139Z"/></g></g></g><path d="M169.29,142.93v-2.86a7.3,7.3,0,0,1-.94.06,6.63,6.63,0,0,1-6.48-5.21h5.53v-2.84h-5.53a6.62,6.62,0,0,1,6.48-5.2,7.3,7.3,0,0,1,.94.06v-2.86c-.31,0-.62,0-.94,0a9.47,9.47,0,0,0,0,18.94C168.67,143,169,143,169.29,142.93Z"/><path d="M142.78,133.5a9.47,9.47,0,0,0,9.47,9.47,8.44,8.44,0,0,0,1-.05v-2.86a6.77,6.77,0,0,1-1,.07,6.63,6.63,0,1,1,0-13.25,6.77,6.77,0,0,1,1,.07v-2.86a8.43,8.43,0,0,0-1-.06A9.47,9.47,0,0,0,142.78,133.5Z"/><path d="M183.81,126h-1.44v.22h1.44Zm-4.12.7a1.08,1.08,0,0,0-.49.45h.49Zm7.49,2.16-.54.55,0,.29h.65v-.84Zm-4.91,4.43-2.81-3,.47,5.36Zm.56,0,2.69,2.83.55-6h0v-.1Zm-3.42-3.6,3.14,3.31,1.86-1.89h-2.62v-1h3v.57l1.2-1.21v-1.07h.21l.07-.74h-7.06Zm7.59,8.58a1.79,1.79,0,0,1,0,.24,1.43,1.43,0,0,1-2.69.66h-3.48V140h-.92v-.75a.28.28,0,0,1-.22-.22l-.2-2.28-4.85,4.95-.29-.29,5.1-5.19-.55-6.39-4.86-5.13v-.56l4.8,5.06-.12-1.47h-.6v-.5h.53l0-.1a1.85,1.85,0,0,1,1-.89v-.33h.84v0a9,9,0,0,1,1.34-.18v-.2h2.44v1.22h-2.44v-.52a10.58,10.58,0,0,0-1.34.2v.75h5.75c-.22-.53-1.1-.78-2-.89v-.51a3.61,3.61,0,0,1,2.23.89.65.65,0,0,1,.52-.26.66.66,0,0,1,0,1.32.58.58,0,0,1-.26,0l-.07.76h.33L191.4,124v.57l-3.78,3.85h.08v1.73h-1.13l-.6,6.46,4.45,4.69-.3.28Zm-2.83.24a1.43,1.43,0,0,1,1.26-1.42l0-.44-2.92-3.07L180,136.24l.21,2.48h4A1,1,0,0,1,184.17,138.55Zm.68,0a.74.74,0,0,0,1.48,0,.74.74,0,1,0-1.48,0Zm.26,0a.49.49,0,0,1,.48-.49.49.49,0,1,1-.48.49Zm-9.65,6.61H189.8v3.5H175.46Z"/><g id="stacked-template1"><g id="logo-2" data-name="logo"><path d="M30.7,125.61v12.27H57.29V125.61H56.23l0,11.19H31.78V126.7H52.56v-1.09Z"/><path d="M36.94,131.88a5,5,0,0,0-.29-2,1,1,0,0,0-.93-.59,1,1,0,0,0-.94.59,7.18,7.18,0,0,0,0,4,1,1,0,0,0,.94.59,1,1,0,0,0,.93-.59,5,5,0,0,0,.29-2m.89,0a4.65,4.65,0,0,1-.52,2.45,2,2,0,0,1-3.18,0,6.08,6.08,0,0,1,0-4.92,2,2,0,0,1,3.18,0,4.69,4.69,0,0,1,.52,2.46"/><path d="M42.59,128.93v.87a3.5,3.5,0,0,0-.78-.38,2.64,2.64,0,0,0-.78-.12,1.48,1.48,0,0,0-1,.28.94.94,0,0,0-.35.76A.82.82,0,0,0,40,131a1.93,1.93,0,0,0,.86.37l.45.1a2.52,2.52,0,0,1,1.29.65A1.74,1.74,0,0,1,43,133.3a1.69,1.69,0,0,1-.56,1.37,2.41,2.41,0,0,1-1.62.48,4.5,4.5,0,0,1-.89-.1,5.18,5.18,0,0,1-.9-.28v-.91a4.77,4.77,0,0,0,.91.45,2.7,2.7,0,0,0,.88.14,1.57,1.57,0,0,0,1-.28,1,1,0,0,0,.36-.81,1,1,0,0,0-.25-.73,1.78,1.78,0,0,0-.85-.38l-.46-.11a2.55,2.55,0,0,1-1.28-.6,1.45,1.45,0,0,1-.39-1.07,1.72,1.72,0,0,1,.56-1.35,2.19,2.19,0,0,1,1.51-.51,3.48,3.48,0,0,1,.77.08,6,6,0,0,1,.84.24"/><path d="M44.1,128.72H45v2.58h2.33v-2.58h.86V135h-.86v-3H45v3H44.1v-6.3"/><path d="M48.73,128.72h.83l.6,5.12.72-3.39h.89l.73,3.4,2-9.82h.83L53,135h-.81l-.85-3.74L50.47,135h-.8l-.94-6.3"/></g><g class="cls-3"><path d="M34,142.76a1.59,1.59,0,0,1-.41.16,1.56,1.56,0,0,1-.44.05,1.37,1.37,0,0,1-1.15-.52,2.36,2.36,0,0,1-.41-1.47A2.39,2.39,0,0,1,32,139.5a1.39,1.39,0,0,1,1.15-.53,1.56,1.56,0,0,1,.44.06,1.59,1.59,0,0,1,.41.16v.53a1.69,1.69,0,0,0-.41-.24,1.36,1.36,0,0,0-.44-.08.84.84,0,0,0-.76.39,2.93,2.93,0,0,0,0,2.37.84.84,0,0,0,.76.39,1.32,1.32,0,0,0,.44-.08,1.52,1.52,0,0,0,.41-.24Z"/><path d="M34.79,139h.66l1.31,3.18V139h.5v3.86H36.6l-1.3-3.17v3.17h-.51Z"/><path d="M39.21,139a1,1,0,0,1,.93.51,3.65,3.65,0,0,1,0,3,1.11,1.11,0,0,1-1.86,0,3.65,3.65,0,0,1,0-3A1,1,0,0,1,39.21,139Zm0,.42a.59.59,0,0,0-.55.39,4.06,4.06,0,0,0,0,2.39.59.59,0,0,0,.55.39.58.58,0,0,0,.54-.39,4.06,4.06,0,0,0,0-2.39A.58.58,0,0,0,39.21,139.39ZM38.86,141a.37.37,0,0,1,.1-.24.34.34,0,0,1,.24-.11.34.34,0,0,1,.25.11.33.33,0,0,1,.1.24.33.33,0,0,1-.1.25.37.37,0,0,1-.25.1.33.33,0,0,1-.24-.1A.37.37,0,0,1,38.86,141Z"/><path d="M42.39,139a1,1,0,0,1,.93.51,3.65,3.65,0,0,1,0,3,1.11,1.11,0,0,1-1.86,0,3.65,3.65,0,0,1,0-3A1,1,0,0,1,42.39,139Zm0,.42a.58.58,0,0,0-.54.39,4.06,4.06,0,0,0,0,2.39.58.58,0,0,0,.54.39.59.59,0,0,0,.55-.39,4.06,4.06,0,0,0,0-2.39A.59.59,0,0,0,42.39,139.39ZM42.05,141a.33.33,0,0,1,.1-.24.3.3,0,0,1,.24-.11.38.38,0,0,1,.35.35.34.34,0,0,1-.11.25.35.35,0,0,1-.24.1.33.33,0,0,1-.25-.1A.37.37,0,0,1,42.05,141Z"/><path d="M45.57,139a1,1,0,0,1,.94.51,3.76,3.76,0,0,1,0,3,1.05,1.05,0,0,1-.94.5,1,1,0,0,1-.93-.5,3.76,3.76,0,0,1,0-3A1,1,0,0,1,45.57,139Zm0,.42a.58.58,0,0,0-.54.39,4.06,4.06,0,0,0,0,2.39.58.58,0,0,0,1.09,0,4.06,4.06,0,0,0,0-2.39A.58.58,0,0,0,45.57,139.39ZM45.23,141a.33.33,0,0,1,.1-.24.34.34,0,0,1,.24-.11.36.36,0,0,1,.25.11.33.33,0,0,1,.1.24.33.33,0,0,1-.1.25.37.37,0,0,1-.25.1.3.3,0,0,1-.24-.1A.33.33,0,0,1,45.23,141Z"/><path d="M48.76,139a1,1,0,0,1,.93.51,3.65,3.65,0,0,1,0,3,1,1,0,0,1-.93.5,1.05,1.05,0,0,1-.94-.5,3.76,3.76,0,0,1,0-3A1,1,0,0,1,48.76,139Zm0,.42a.58.58,0,0,0-.55.39,4.06,4.06,0,0,0,0,2.39.58.58,0,0,0,1.09,0,4.06,4.06,0,0,0,0-2.39A.58.58,0,0,0,48.76,139.39ZM48.41,141a.37.37,0,0,1,.1-.24.34.34,0,0,1,.24-.11.34.34,0,0,1,.25.11.33.33,0,0,1,.1.24.33.33,0,0,1-.1.25.37.37,0,0,1-.25.1.3.3,0,0,1-.24-.1A.37.37,0,0,1,48.41,141Z"/><path d="M51.05,142.46h.81v-3l-.88.2v-.47l.87-.2h.52v3.42h.8v.44H51.05Z"/><path d="M54.07,139h2v.44H54.54v1l.22-.06.23,0a1.29,1.29,0,0,1,.95.35,1.33,1.33,0,0,1,.35,1,1.24,1.24,0,0,1-.37,1,1.36,1.36,0,0,1-1,.35,3.2,3.2,0,0,1-.56,0,2.8,2.8,0,0,1-.46-.12v-.53a1.92,1.92,0,0,0,.48.19,2,2,0,0,0,.49.06.89.89,0,0,0,.66-.22,1,1,0,0,0,0-1.29,1,1,0,0,0-.68-.23,1.75,1.75,0,0,0-.4.05,1.57,1.57,0,0,0-.38.14Z"/></g></g><g id="surface480"><path id="path2" d="M102.23,136.19a2.88,2.88,0,0,0,2-3,3.09,3.09,0,0,0-6.18,0,3,3,0,0,0,2,3.08l-2.19,5.39C95,140.87,92,137.41,92,133.16a9.16,9.16,0,0,1,18.31,0c0,4.32-3,7.72-5.94,8.48Z"/></g><g id="flowRoot3742"><path id="path3756" d="M93.34,144.32a1,1,0,0,1-.23.71.92.92,0,0,1-1.28,0,1,1,0,0,1-.24-.71,1,1,0,0,1,.23-.7.84.84,0,0,1,.65-.26.88.88,0,0,1,.46.12.8.8,0,0,1,.3.33A1.19,1.19,0,0,1,93.34,144.32Zm-1.13,0a.92.92,0,0,0,.06.37.2.2,0,0,0,.2.12.21.21,0,0,0,.2-.12.92.92,0,0,0,.06-.37.84.84,0,0,0-.06-.36.21.21,0,0,0-.2-.12.2.2,0,0,0-.2.12A.84.84,0,0,0,92.21,144.32Z"/><path id="path3758" d="M94.74,145.29a.6.6,0,0,1-.24,0,.63.63,0,0,1-.21-.17h0a2.36,2.36,0,0,1,0,.24v.75h-.61V143.4h.5l.08.23h0a.53.53,0,0,1,.92,0,1.27,1.27,0,0,1,.17.7,1.22,1.22,0,0,1-.18.71A.53.53,0,0,1,94.74,145.29Zm-.21-1.42a.17.17,0,0,0-.18.1.56.56,0,0,0-.06.3v0a.71.71,0,0,0,.06.34.2.2,0,0,0,.19.11.18.18,0,0,0,.17-.1,1,1,0,0,0,.05-.36.9.9,0,0,0-.05-.34A.19.19,0,0,0,94.53,143.87Z"/><path id="path3760" d="M96.56,145.29a1,1,0,0,1-.68-.25,1,1,0,0,1-.24-.7,1,1,0,0,1,.23-.72.81.81,0,0,1,.64-.26.86.86,0,0,1,.61.22.89.89,0,0,1,.21.63v.29H96.25a.34.34,0,0,0,.11.24.41.41,0,0,0,.28.09,1.36,1.36,0,0,0,.29,0,1.31,1.31,0,0,0,.29-.11v.46a1,1,0,0,1-.29.11A2,2,0,0,1,96.56,145.29Zm0-1.49a.24.24,0,0,0-.18.07.29.29,0,0,0-.08.22h.52a.33.33,0,0,0-.08-.21A.22.22,0,0,0,96.53,143.8Z"/><path id="path3762" d="M98.78,145.25v-1a.54.54,0,0,0,0-.28.16.16,0,0,0-.16-.09.23.23,0,0,0-.22.13,1.07,1.07,0,0,0-.07.44v.81h-.6V143.4h.46l.07.23h0a.45.45,0,0,1,.21-.2.66.66,0,0,1,.32-.07.58.58,0,0,1,.45.18.78.78,0,0,1,.16.51v1.2Z"/><path id="path3764" d="M101.82,144.74a.51.51,0,0,1-.18.41.87.87,0,0,1-.52.14,1.22,1.22,0,0,1-.55-.11v-.34a1.27,1.27,0,0,0,.56.15c.22,0,.34-.07.34-.21a.21.21,0,0,0,0-.12l-.12-.09a1.38,1.38,0,0,0-.24-.11,1.2,1.2,0,0,1-.4-.25.45.45,0,0,1-.1-.31.4.4,0,0,1,.17-.36.78.78,0,0,1,.48-.13,1.22,1.22,0,0,1,.57.13l-.11.29a1.25,1.25,0,0,0-.47-.12c-.19,0-.29,0-.29.17a.17.17,0,0,0,.08.14,1.53,1.53,0,0,0,.33.17,1,1,0,0,1,.3.16.46.46,0,0,1,.15.16A.53.53,0,0,1,101.82,144.74Z"/><path id="path3766" d="M103.73,144.34a1,1,0,0,1-.22.7.75.75,0,0,1-.59.25.8.8,0,0,1-.43-.12.71.71,0,0,1-.28-.33,1.12,1.12,0,0,1-.1-.5,1.05,1.05,0,0,1,.21-.69.79.79,0,0,1,.61-.24.72.72,0,0,1,.58.25A1,1,0,0,1,103.73,144.34Zm-1.24,0c0,.42.14.63.43.63s.44-.21.44-.63-.15-.62-.44-.62a.38.38,0,0,0-.33.16A.85.85,0,0,0,102.49,144.34Z"/><path id="path3768" d="M105.35,145.25l0-.23h0a.57.57,0,0,1-.22.19.66.66,0,0,1-.32.08.59.59,0,0,1-.46-.17.66.66,0,0,1-.16-.49v-1.19h.37v1.12a.52.52,0,0,0,.08.31.3.3,0,0,0,.25.11.39.39,0,0,0,.34-.15.86.86,0,0,0,.11-.49v-.9h.36v1.81Z"/><path id="path3770" d="M107,143.41h.18l0,.36-.16,0a.45.45,0,0,0-.35.15.59.59,0,0,0-.14.4v.94h-.36v-1.81h.28l0,.32h0a.8.8,0,0,1,.22-.26A.53.53,0,0,1,107,143.41Z"/><path id="path3772" d="M108.21,145.29a.75.75,0,0,1-.59-.24,1.3,1.3,0,0,1,0-1.4.78.78,0,0,1,.61-.24,1.1,1.1,0,0,1,.49.1l-.11.31a1.08,1.08,0,0,0-.38-.09c-.29,0-.44.21-.44.62a.73.73,0,0,0,.11.46.38.38,0,0,0,.32.16.94.94,0,0,0,.46-.13v.33a.67.67,0,0,1-.21.09A1,1,0,0,1,108.21,145.29Z"/><path id="path3774" d="M109.84,145.29a.82.82,0,0,1-.62-.25,1,1,0,0,1-.23-.68,1.06,1.06,0,0,1,.21-.7.7.7,0,0,1,.58-.25.67.67,0,0,1,.53.22.85.85,0,0,1,.2.6v.2h-1.14a.61.61,0,0,0,.13.41.49.49,0,0,0,.36.14,1.27,1.27,0,0,0,.28,0,1.19,1.19,0,0,0,.28-.1v.31a1,1,0,0,1-.27.1A1.42,1.42,0,0,1,109.84,145.29Zm-.06-1.59a.35.35,0,0,0-.28.12.59.59,0,0,0-.13.34h.78a.53.53,0,0,0-.1-.34A.34.34,0,0,0,109.78,143.7Z"/><path id="path3776" d="M95,148.62h-.36v-1.81H95Zm-.39-2.29a.21.21,0,0,1,.06-.16.18.18,0,0,1,.15-.06.2.2,0,0,1,.15.06.25.25,0,0,1,.05.16.23.23,0,0,1-.05.15.2.2,0,0,1-.15.06.18.18,0,0,1-.15-.06A.19.19,0,0,1,94.6,146.33Z"/><path id="path3778" d="M97,148.62h-.36v-1.11a.56.56,0,0,0-.08-.32.29.29,0,0,0-.25-.1.4.4,0,0,0-.34.14.86.86,0,0,0-.11.49v.9h-.36v-1.81h.28l.06.24h0a.53.53,0,0,1,.22-.2.68.68,0,0,1,.32-.07c.41,0,.61.22.61.66Z"/><path id="path3780" d="M97.88,148.62h-.36v-1.81h.36Zm-.38-2.29a.25.25,0,0,1,0-.16.2.2,0,0,1,.15-.06.18.18,0,0,1,.15.06.21.21,0,0,1,.06.16.19.19,0,0,1-.06.15.18.18,0,0,1-.15.06.2.2,0,0,1-.15-.06A.23.23,0,0,1,97.5,146.33Z"/><path id="path3782" d="M99,148.34a.84.84,0,0,0,.27,0v.29l-.16,0-.2,0c-.34,0-.51-.2-.51-.58v-1H98.2v-.17l.26-.14.12-.39h.22v.41h.49v.29H98.8v1a.28.28,0,0,0,.07.21A.24.24,0,0,0,99,148.34Z"/><path id="path3784" d="M100,148.62h-.36v-1.81H100Zm-.38-2.29a.21.21,0,0,1,.05-.16.19.19,0,0,1,.15-.06.2.2,0,0,1,.15.06.21.21,0,0,1,0,.16.18.18,0,0,1,0,.15.2.2,0,0,1-.15.06.19.19,0,0,1-.15-.06A.18.18,0,0,1,99.63,146.33Z"/><path id="path3786" d="M101.6,148.62l-.07-.25h0a.86.86,0,0,1-.25.23.76.76,0,0,1-.32.06.54.54,0,0,1-.4-.15.58.58,0,0,1-.14-.41.49.49,0,0,1,.2-.42,1,1,0,0,1,.6-.16h.29v-.09a.37.37,0,0,0-.08-.26.29.29,0,0,0-.23-.09.78.78,0,0,0-.26,0l-.23.1-.11-.28a1,1,0,0,1,.3-.11,1.15,1.15,0,0,1,.31,0,.7.7,0,0,1,.49.15.58.58,0,0,1,.17.47v1.22Zm-.54-.26a.44.44,0,0,0,.32-.12.45.45,0,0,0,.12-.33v-.15h-.22a.64.64,0,0,0-.38.09.28.28,0,0,0-.11.25.21.21,0,0,0,.07.18A.24.24,0,0,0,101.06,148.36Z"/><path id="path3788" d="M103,148.34a.84.84,0,0,0,.27,0v.29l-.16,0-.19,0c-.35,0-.52-.2-.52-.58v-1h-.23v-.17l.25-.14.12-.39h.23v.41h.48v.29h-.48v1a.33.33,0,0,0,.06.21A.25.25,0,0,0,103,148.34Z"/><path id="path3790" d="M104,148.62h-.36v-1.81H104Zm-.38-2.29a.25.25,0,0,1,0-.16.2.2,0,0,1,.15-.06.18.18,0,0,1,.15.06.21.21,0,0,1,.06.16.19.19,0,0,1-.06.15.18.18,0,0,1-.15.06.2.2,0,0,1-.15-.06A.23.23,0,0,1,103.59,146.33Z"/><path id="path3792" d="M104.88,148.62l-.64-1.81h.38l.35,1.05a2,2,0,0,1,.1.43h0a2.4,2.4,0,0,1,.11-.43l.34-1.05h.39l-.65,1.81Z"/><path id="path3794" d="M106.94,148.66a.83.83,0,0,1-.63-.25,1,1,0,0,1-.22-.68,1.06,1.06,0,0,1,.21-.7.7.7,0,0,1,.57-.25.68.68,0,0,1,.53.21.84.84,0,0,1,.2.6v.21h-1.14a.63.63,0,0,0,.14.41.45.45,0,0,0,.35.14,1.2,1.2,0,0,0,.28,0,1.25,1.25,0,0,0,.29-.1v.31a1,1,0,0,1-.27.1A1.48,1.48,0,0,1,106.94,148.66Zm-.07-1.59a.38.38,0,0,0-.28.11.55.55,0,0,0-.12.34h.77a.49.49,0,0,0-.1-.34A.34.34,0,0,0,106.87,147.07Z"/><g id="flowRoot3797"><path id="path3805" d="M108.32,146.55h.08a.12.12,0,0,0,.09,0,.1.1,0,0,0,0-.07.1.1,0,0,0,0-.08l-.09,0h-.08Zm.31-.11a.2.2,0,0,1,0,.11.24.24,0,0,1-.08.06l.17.28h-.12l-.15-.25h-.1v.25h-.1v-.63h.18a.3.3,0,0,1,.18,0A.2.2,0,0,1,108.63,146.44Zm-.75.13a.48.48,0,0,1,.07-.26.52.52,0,0,1,.19-.2.54.54,0,0,1,.27-.07.5.5,0,0,1,.27.07.55.55,0,0,1,.2.2.48.48,0,0,1,.07.26.5.5,0,0,1-.07.27.52.52,0,0,1-.19.2.55.55,0,0,1-.28.07.5.5,0,0,1-.46-.27A.5.5,0,0,1,107.88,146.57Zm.07,0a.5.5,0,0,0,.06.24.52.52,0,0,0,.17.16.41.41,0,0,0,.23.07.37.37,0,0,0,.23-.07.38.38,0,0,0,.17-.16.48.48,0,0,0,.07-.24.48.48,0,0,0-.07-.23.41.41,0,0,0-.16-.16.42.42,0,0,0-.24-.07.46.46,0,0,0-.23.06.69.69,0,0,0-.17.17A.46.46,0,0,0,108,146.57Z"/></g></g><path d="M83.45,131.87l-2.24-.42a.2.2,0,0,1-.13-.11l-.69-1.6a.2.2,0,0,1,0-.17l1.31-1.9a.14.14,0,0,0,0-.16l-1.62-1.62a.14.14,0,0,0-.16,0L78,127.2a.19.19,0,0,1-.18,0l-1.55-.63a.2.2,0,0,1-.11-.13l-.43-2.32a.13.13,0,0,0-.12-.1h-2.3a.13.13,0,0,0-.12.1l-.43,2.32a.2.2,0,0,1-.11.13l-1.56.63a.17.17,0,0,1-.17,0L69,125.87a.14.14,0,0,0-.16,0l-1.62,1.62a.14.14,0,0,0,0,.16l1.31,1.9a.2.2,0,0,1,0,.17l-.69,1.6a.2.2,0,0,1-.13.11l-2.24.42a.13.13,0,0,0-.1.12v2.3a.13.13,0,0,0,.1.12l2.18.41a.17.17,0,0,1,.13.11l.68,1.7a.19.19,0,0,1,0,.18l-1.24,1.8a.14.14,0,0,0,0,.16l1.62,1.62a.14.14,0,0,0,.16,0l1.77-1.22a.2.2,0,0,1,.17,0l.78.42a.09.09,0,0,0,.13,0l1.62-3.9a.13.13,0,0,0,0-.15l-.2-.12-.12-.09a2.55,2.55,0,1,1,2.74,0l-.12.09-.2.12a.13.13,0,0,0,0,.15l1.62,3.9a.09.09,0,0,0,.13,0l.78-.42a.2.2,0,0,1,.17,0l1.77,1.22a.14.14,0,0,0,.16,0l1.62-1.62a.14.14,0,0,0,0-.16l-1.24-1.8a.19.19,0,0,1,0-.18l.68-1.7a.17.17,0,0,1,.13-.11l2.18-.41a.13.13,0,0,0,.1-.12V132a.13.13,0,0,0-.1-.12"/><path class="cls-2" d="M68.93,148.63h.49V147c0-.6-.42-.81-1-.81a.93.93,0,0,0-.82.36l.38.3c.09-.14.21-.19.47-.19s.5.08.5.31v.26h-.68a.72.72,0,0,0-.8.72.77.77,0,0,0,.87.75c.33,0,.5-.08.6-.25h0Zm0-.86c0,.38-.14.42-.55.42s-.46-.14-.46-.31.13-.29.42-.29h.59Z"/><path class="cls-2" d="M70,148.63h.49v-1.47a.46.46,0,0,1,.48-.51.48.48,0,0,1,.32.12l.36-.43a.87.87,0,0,0-.51-.19.79.79,0,0,0-.64.29h0v-.26H70Z"/><path class="cls-2" d="M73.08,148.63h.49V145.2h-.49v1.24a.93.93,0,0,0-.64-.29.81.81,0,0,0-.65.32c-.14.18-.17.33-.17.93s0,.76.17.94a.81.81,0,0,0,.65.32.88.88,0,0,0,.64-.29Zm-.49-2c.46,0,.49.4.49.75s0,.76-.49.76-.48-.38-.48-.76,0-.75.48-.75"/><polygon class="cls-2" points="76.08 148.63 76.51 148.63 77.29 146.18 76.77 146.18 76.3 147.89 76.29 147.89 75.74 146.18 75.38 146.18 74.83 147.89 74.82 147.89 74.35 146.18 73.83 146.18 74.61 148.63 75.04 148.63 75.56 146.92 75.56 146.92 76.08 148.63"/><path class="cls-2" d="M78.8,148.63h.49V147c0-.6-.41-.81-1-.81a.94.94,0,0,0-.83.36l.39.3c.09-.14.21-.19.46-.19s.5.08.5.31v.26h-.68a.71.71,0,0,0-.79.72.77.77,0,0,0,.86.75c.33,0,.5-.08.6-.25h0Zm0-.86c0,.38-.14.42-.55.42s-.46-.14-.46-.31.14-.29.42-.29h.59Z"/><path class="cls-2" d="M79.83,148.63h.49v-1.47a.46.46,0,0,1,.48-.51.44.44,0,0,1,.32.12l.36-.43a.84.84,0,0,0-.51-.19.81.81,0,0,0-.64.29h0v-.26h-.49Z"/><path class="cls-2" d="M83.5,147.59v-.4a1,1,0,0,0-1-1c-.48,0-1,.31-1,1.26s.58,1.25,1.08,1.25a1.15,1.15,0,0,0,.89-.4l-.36-.3a.78.78,0,0,1-.54.23.55.55,0,0,1-.58-.6Zm-1.52-.4a.51.51,0,0,1,.52-.57c.29,0,.5.19.51.57Z"/><path class="cls-2" d="M62.72,143.54a1.17,1.17,0,0,0,.27.94,1,1,0,0,0,1.48,0,1.75,1.75,0,0,0,0-1.87,1,1,0,0,0-1.48,0,1.17,1.17,0,0,0-.27.93m1.53,0c0,.35,0,.45-.12.58a.52.52,0,0,1-.4.18.49.49,0,0,1-.39-.18c-.1-.13-.12-.23-.12-.59s0-.44.12-.57a.49.49,0,0,1,.39-.18.52.52,0,0,1,.4.18c.09.13.12.22.12.58"/><path class="cls-2" d="M69.45,143.73v-.4a1,1,0,0,0-1-1c-.48,0-1,.31-1,1.25s.58,1.25,1.08,1.25a1.14,1.14,0,0,0,.89-.4l-.36-.3a.78.78,0,0,1-.54.23.55.55,0,0,1-.58-.6Zm-1.52-.4a.52.52,0,0,1,.52-.57c.29,0,.5.2.51.57Z"/><path class="cls-2" d="M69.87,144.77h.49v-1.46a.48.48,0,0,1,.49-.52.47.47,0,0,1,.48.52v1.46h.49v-1.63a.81.81,0,0,0-.81-.84.78.78,0,0,0-.64.29h0v-.26h-.49Z"/><path class="cls-2" d="M73.15,144.36a1.57,1.57,0,0,0,1.08.44c.57,0,1-.28,1-.75a.69.69,0,0,0-.71-.74l-.4,0c-.25,0-.33-.12-.33-.23s.11-.29.42-.29a1.06,1.06,0,0,1,.66.23l.3-.36a1.41,1.41,0,0,0-1-.33c-.51,0-.91.25-.91.75a.68.68,0,0,0,.71.69l.43,0c.17,0,.3.07.3.24s-.2.31-.48.31a1,1,0,0,1-.77-.31Z"/><path class="cls-2" d="M75.52,143.54a1.21,1.21,0,0,0,.26.94,1,1,0,0,0,.75.32,1,1,0,0,0,.74-.32c.19-.2.26-.41.26-.94a1.18,1.18,0,0,0-.26-.93,1,1,0,0,0-.74-.31,1,1,0,0,0-.75.31,1.22,1.22,0,0,0-.26.93m1.52,0c0,.35,0,.45-.12.58a.5.5,0,0,1-.39.18.51.51,0,0,1-.4-.18c-.09-.13-.12-.23-.12-.59s0-.44.12-.57a.51.51,0,0,1,.4-.18.5.5,0,0,1,.39.18c.09.13.12.22.12.58"/><path class="cls-2" d="M78,144a.83.83,0,0,0,.82.85.77.77,0,0,0,.63-.29h0v.26h.49v-2.44h-.49v1.45a.49.49,0,1,1-1,0v-1.45H78Z"/><path class="cls-2" d="M80.44,144.77h.49V143.3a.46.46,0,0,1,.48-.51.44.44,0,0,1,.32.12l.36-.43a.83.83,0,0,0-.51-.18.78.78,0,0,0-.64.29h0v-.26h-.49Z"/><path class="cls-2" d="M83.65,144.05a.64.64,0,0,1-.49.26c-.4,0-.64-.23-.64-.76s.24-.76.64-.76a.63.63,0,0,1,.49.25l.37-.32a1.18,1.18,0,0,0-.88-.42,1.26,1.26,0,0,0,0,2.5,1.15,1.15,0,0,0,.88-.43Z"/><path class="cls-2" d="M86.15,143.73v-.4a1,1,0,0,0-1-1c-.47,0-1,.31-1,1.25s.58,1.25,1.08,1.25a1.14,1.14,0,0,0,.89-.4l-.36-.3a.75.75,0,0,1-.53.23.55.55,0,0,1-.59-.6Zm-1.52-.4a.52.52,0,0,1,.52-.57c.29,0,.5.2.51.57Z"/><path d="M66.13,144.31c.46,0,.49-.38.49-.76s0-.76-.49-.76-.48.4-.48.76,0,.76.48.76m-1,4.32v-6.3h.49v.25a.84.84,0,0,1,.63-.28.81.81,0,0,1,.66.31c.13.18.17.34.17.94s0,.76-.17.93a.81.81,0,0,1-.66.32.91.91,0,0,1-.63-.29v1.93a.81.81,0,0,1,.64-.29.83.83,0,0,1,.82.85v1.63h-.49v-1.46a.48.48,0,0,0-.49-.52.47.47,0,0,0-.48.52v1.46Z"/><path d="M92.6,110.58v-4H93v1.6a1.42,1.42,0,0,1,1.13-.57,1.34,1.34,0,0,1,1,.45,1.49,1.49,0,0,1,.43,1.08,1.54,1.54,0,0,1-.43,1.08,1.38,1.38,0,0,1-1,.45,1.33,1.33,0,0,1-1.12-.63v.53Zm.33-1.46a1.21,1.21,0,0,0,.32.85,1.05,1.05,0,0,0,.79.35,1,1,0,0,0,.79-.35,1.22,1.22,0,0,0,0-1.66,1,1,0,0,0-.79-.35,1.06,1.06,0,0,0-.8.33A1.16,1.16,0,0,0,92.93,109.12Z"/><path d="M95.67,107.7h.38l1,2.22L98,107.7h.38l-1.68,3.93h-.38l.54-1.27Z"/><path d="M100.55,110.91v-3.23H99.42V107h3v.66h-1.13v3.23Z"/><path d="M103.91,110l.73.12a1.24,1.24,0,0,1-.45.63,1.28,1.28,0,0,1-.75.21,1.21,1.21,0,0,1-1.06-.48,1.66,1.66,0,0,1-.27-1,1.59,1.59,0,0,1,.35-1.09,1.16,1.16,0,0,1,.91-.4,1.23,1.23,0,0,1,1,.41,1.91,1.91,0,0,1,.33,1.27h-1.82a.81.81,0,0,0,.18.52.54.54,0,0,0,.42.18.48.48,0,0,0,.29-.09A.7.7,0,0,0,103.91,110Zm0-.75a.7.7,0,0,0-.16-.49.47.47,0,0,0-.38-.17.48.48,0,0,0-.39.18.62.62,0,0,0-.15.48Z"/><path d="M107.45,108.92l-.72.14a.52.52,0,0,0-.16-.33.48.48,0,0,0-.33-.12.56.56,0,0,0-.44.2,1,1,0,0,0-.16.64,1.17,1.17,0,0,0,.17.71.53.53,0,0,0,.44.2.5.5,0,0,0,.34-.12.75.75,0,0,0,.18-.41l.72.12a1.32,1.32,0,0,1-.43.76,1.31,1.31,0,0,1-.85.26,1.24,1.24,0,0,1-1-.39,1.8,1.8,0,0,1,0-2.16,1.27,1.27,0,0,1,1-.39,1.13,1.13,0,0,1,1.22.89Z"/><path d="M108.51,107v1.43a1.08,1.08,0,0,1,.84-.42,1,1,0,0,1,.46.1.73.73,0,0,1,.3.24,1,1,0,0,1,.14.33,3.4,3.4,0,0,1,0,.56v1.65h-.73v-1.49a2.12,2.12,0,0,0,0-.56.4.4,0,0,0-.15-.19.42.42,0,0,0-.26-.07.57.57,0,0,0-.32.09.48.48,0,0,0-.21.27,1.5,1.5,0,0,0-.07.54v1.41h-.73V107Z"/><path d="M110.46,110.91l1-1.45-.94-1.37h.88l.49.78.51-.78h.85l-.93,1.33,1,1.49h-.89l-.56-.88-.57.88Z"/><path d="M117,110.91h-.83l-.33-.89h-1.52l-.31.89h-.81l1.47-3.89h.81Zm-1.41-1.54-.52-1.44-.51,1.44Z"/><path d="M117.86,110.91h-.73v-2.82h.68v.4a1,1,0,0,1,.31-.37.54.54,0,0,1,.31-.09.92.92,0,0,1,.48.14l-.22.65a.67.67,0,0,0-.35-.12.47.47,0,0,0-.26.08.6.6,0,0,0-.16.31,4.66,4.66,0,0,0-.06,1Z"/><path d="M120.27,108.09v.6h-.5v1.13a2.41,2.41,0,0,0,0,.4.15.15,0,0,0,.06.09.2.2,0,0,0,.13,0,.89.89,0,0,0,.29-.07l.06.58a1.48,1.48,0,0,1-.57.11.83.83,0,0,1-.36-.07.51.51,0,0,1-.23-.17.7.7,0,0,1-.1-.29,2.92,2.92,0,0,1,0-.53v-1.22h-.33v-.6H119v-.56l.73-.43v1Z"/><path d="M120.56,107.71V107h.73v.69Zm0,3.2v-2.82h.73v2.82Z"/><path d="M121.57,110.1l.73-.11a.55.55,0,0,0,.19.33.62.62,0,0,0,.39.11.74.74,0,0,0,.43-.1.25.25,0,0,0,.09-.2.16.16,0,0,0-.05-.14.5.5,0,0,0-.24-.1,4.18,4.18,0,0,1-1.12-.36.8.8,0,0,1,0-1.25,1.27,1.27,0,0,1,.87-.25,1.45,1.45,0,0,1,.84.19,1,1,0,0,1,.38.55l-.69.13a.44.44,0,0,0-.16-.25.61.61,0,0,0-.35-.09.71.71,0,0,0-.41.09.16.16,0,0,0-.09.15.19.19,0,0,0,.07.13,2.85,2.85,0,0,0,.68.21,2,2,0,0,1,.81.33.68.68,0,0,1,.23.56.85.85,0,0,1-.31.66,1.35,1.35,0,0,1-.94.28,1.56,1.56,0,0,1-.89-.23A1.09,1.09,0,0,1,121.57,110.1Z"/><path d="M125.1,109l-.66-.12a1.08,1.08,0,0,1,.38-.6,1.31,1.31,0,0,1,.81-.2,1.72,1.72,0,0,1,.73.12.75.75,0,0,1,.33.3,1.61,1.61,0,0,1,.1.66V110a3.63,3.63,0,0,0,0,.55,1.78,1.78,0,0,0,.14.38h-.72a1.44,1.44,0,0,1-.07-.22.85.85,0,0,0,0-.09,1.52,1.52,0,0,1-.4.28,1.13,1.13,0,0,1-.45.09.92.92,0,0,1-.67-.24.78.78,0,0,1-.24-.59.79.79,0,0,1,.11-.43.7.7,0,0,1,.31-.28,2.22,2.22,0,0,1,.58-.18,3.19,3.19,0,0,0,.7-.18V109a.39.39,0,0,0-.1-.31.62.62,0,0,0-.39-.09.45.45,0,0,0-.3.08A.51.51,0,0,0,125.1,109Zm1,.61-.44.11a1.21,1.21,0,0,0-.39.13.3.3,0,0,0-.15.26.41.41,0,0,0,.41.39.61.61,0,0,0,.37-.14.47.47,0,0,0,.18-.24,2.74,2.74,0,0,0,0-.37Z"/><path d="M129.79,110.91h-.73v-1.44a2.47,2.47,0,0,0,0-.59.41.41,0,0,0-.15-.21.44.44,0,0,0-.26-.07.54.54,0,0,0-.33.1.53.53,0,0,0-.21.28,2.38,2.38,0,0,0-.06.65v1.28h-.72v-2.82H128v.42a1.11,1.11,0,0,1,1.35-.39.78.78,0,0,1,.3.22.92.92,0,0,1,.14.32,2.12,2.12,0,0,1,0,.5Z"/><rect class="cls-4" width="226.77" height="204.09"/></g></g></svg>