<svg xmlns="http://www.w3.org/2000/svg" viewBox="0 0 226.77 119.06"><defs><style>.cls-1,.cls-10{fill:none;}.cls-1{stroke:#000;stroke-linecap:round;stroke-linejoin:round;stroke-width:0.5px;}.cls-2,.cls-4{font-size:10.23px;font-family:ArialMT, Arial;}.cls-2{letter-spacing:-0.04em;}.cls-3{letter-spacing:0em;}.cls-5{letter-spacing:-0.06em;}.cls-6{font-size:8px;letter-spacing:-0.02em;}.cls-7{letter-spacing:-0.04em;}.cls-8{letter-spacing:-0.13em;}.cls-9{font-size:12px;font-family:KozGoPr6N-Regular-83pv-RKSJ-H, Kozuka Gothic Pr6N;}</style></defs><g id="Layer_2" data-name="Layer 2"><g id="Layer_3" data-name="Layer 3"><line class="cls-1" x1="199.49" y1="31.56" x2="150.47" y2="31.56"/><line class="cls-1" x1="129.97" y1="31.56" x2="90.1" y2="31.56"/><line class="cls-1" x1="60.59" y1="31.56" x2="56.02" y2="31.56"/><line class="cls-1" x1="32.77" y1="31.56" x2="27.66" y2="31.56"/><polyline class="cls-1" points="81.94 23.63 82.47 23.63 82.47 25.92"/><line class="cls-1" x1="61.59" y1="26.53" x2="60.52" y2="26.53"/><line class="cls-1" x1="61.59" y1="26.37" x2="60.52" y2="26.37"/><line class="cls-1" x1="60.9" y1="23.63" x2="60.52" y2="23.63"/><polyline class="cls-1" points="60.52 28.05 60.67 28.05 60.67 28.58 60.52 28.58"/><line class="cls-1" x1="60.67" y1="28.58" x2="60.67" y2="29.35"/><path class="cls-1" d="M129.39,31.49c.13-.18.24-.36.35-.54"/><path class="cls-1" d="M94.93,31.13l.12.19"/><line class="cls-1" x1="82.47" y1="23.63" x2="82.78" y2="23.63"/><path class="cls-1" d="M138,18.92a13.65,13.65,0,0,0-1.26-2.43"/><path class="cls-1" d="M200,3.06c-.49,0-1,0-1.46,0"/><path class="cls-1" d="M198.57,49.61c.51,0,1,0,1.52,0"/><line class="cls-1" x1="26.06" y1="3.05" x2="26.44" y2="3.05"/><path class="cls-1" d="M26,3.05a23.28,23.28,0,1,0,.73,46.56"/><line class="cls-1" x1="198.58" y1="49.62" x2="26.75" y2="49.62"/><line class="cls-1" x1="61.51" y1="29.42" x2="60.52" y2="29.42"/><line class="cls-1" x1="60.52" y1="29.58" x2="61.51" y2="29.58"/><line class="cls-1" x1="60.52" y1="29.35" x2="61.51" y2="29.35"/><line class="cls-1" x1="60.52" y1="31.41" x2="60.75" y2="31.41"/><line class="cls-1" x1="61.51" y1="29.58" x2="60.52" y2="29.58"/><line class="cls-1" x1="97.87" y1="31.56" x2="97.95" y2="31.56"/><line class="cls-1" x1="96.12" y1="31.56" x2="96.2" y2="31.56"/><line class="cls-1" x1="96.04" y1="31.48" x2="96.04" y2="31.48"/><line class="cls-1" x1="96.04" y1="31.56" x2="96.04" y2="31.56"/><line class="cls-1" x1="96.04" y1="31.48" x2="96.04" y2="31.48"/><line class="cls-1" x1="96.04" y1="31.56" x2="96.04" y2="31.56"/><line class="cls-1" x1="96.04" y1="31.48" x2="96.04" y2="31.48"/><line class="cls-1" x1="98.02" y1="31.56" x2="97.57" y2="31.56"/><line class="cls-1" x1="96.88" y1="31.56" x2="96.04" y2="31.56"/><path class="cls-1" d="M96,31.44A3.85,3.85,0,0,0,96.1,31"/><polyline class="cls-1" points="96.04 31.56 96.04 31.56 96.04 31.48"/><path class="cls-1" d="M97.89,31a3.85,3.85,0,0,0,.08.47"/><polyline class="cls-1" points="98.03 31.56 98.03 31.56 98.03 31.48"/><line class="cls-1" x1="96.12" y1="31.56" x2="96.12" y2="31.56"/><line class="cls-1" x1="97.95" y1="31.56" x2="97.95" y2="31.56"/><polyline class="cls-1" points="94.67 31.02 94.67 31.48 94.67 31.56"/><line class="cls-1" x1="92.46" y1="31.48" x2="92.46" y2="31.02"/><polyline class="cls-1" points="94.29 31.02 94.29 31.48 94.21 31.56"/><polyline class="cls-1" points="92.46 31.48 92.46 31.56 92.54 31.56"/><polyline class="cls-1" points="91.01 31.56 91.09 31.48 91.09 31.18"/><polyline class="cls-1" points="107.25 31.02 107.25 31.48 107.71 31.48"/><line class="cls-1" x1="108.47" y1="31.48" x2="109.46" y2="31.48"/><line class="cls-1" x1="110.22" y1="31.48" x2="110.98" y2="31.48"/><line class="cls-1" x1="112.36" y1="31.48" x2="113.04" y2="31.48"/><line class="cls-1" x1="113.81" y1="31.48" x2="114.87" y2="31.48"/><polyline class="cls-1" points="115.64 31.48 116.09 31.48 116.09 31.02"/><polyline class="cls-1" points="118.23 31.02 118.23 31.48 118.45 31.48"/><line class="cls-1" x1="119.45" y1="31.48" x2="120.28" y2="31.48"/><line class="cls-1" x1="121.2" y1="31.48" x2="121.96" y2="31.48"/><line class="cls-1" x1="123.33" y1="31.48" x2="123.87" y2="31.48"/><line class="cls-1" x1="124.78" y1="31.48" x2="125.7" y2="31.48"/><polyline class="cls-1" points="126.54 31.48 127.07 31.48 127.07 31.02"/><line class="cls-1" x1="114.87" y1="31.56" x2="114.87" y2="31.1"/><polyline class="cls-1" points="126.38 31.1 126.54 31.1 126.54 31.56"/><polyline class="cls-1" points="124.63 31.1 124.78 31.1 124.78 31.56"/><polyline class="cls-1" points="110.22 31.1 110.22 31.1 110.22 31.56"/><polyline class="cls-1" points="120.97 31.1 121.2 31.1 121.2 31.56"/><polyline class="cls-1" points="108.39 31.1 108.47 31.1 108.47 31.56"/><polyline class="cls-1" points="119.22 31.1 119.45 31.1 119.45 31.56"/><line class="cls-1" x1="110.98" y1="31.1" x2="110.98" y2="31.56"/><line class="cls-1" x1="112.36" y1="31.1" x2="112.36" y2="31.56"/><line class="cls-1" x1="110.98" y1="31.1" x2="111.29" y2="31.1"/><line class="cls-1" x1="111.98" y1="31.1" x2="112.36" y2="31.1"/><line class="cls-1" x1="121.96" y1="31.1" x2="121.96" y2="31.56"/><line class="cls-1" x1="123.33" y1="31.1" x2="123.33" y2="31.56"/><line class="cls-1" x1="121.96" y1="31.1" x2="122.11" y2="31.1"/><line class="cls-1" x1="122.8" y1="31.1" x2="123.33" y2="31.1"/><polyline class="cls-1" points="91.09 31.02 91.09 31.48 91.09 31.56 91.16 31.56"/><line class="cls-1" x1="105.19" y1="31.56" x2="105.27" y2="31.48"/><polyline class="cls-1" points="103.44 31.02 103.44 31.48 103.44 31.56 103.51 31.56"/><line class="cls-1" x1="105.27" y1="31.02" x2="105.27" y2="31.48"/><polyline class="cls-1" points="110.3 31.48 110.3 31.48 110.3 31.56 110.38 31.56"/><polyline class="cls-1" points="121.28 31.48 121.28 31.48 121.28 31.56 121.35 31.56"/><polyline class="cls-1" points="128.06 31.56 128.14 31.56 128.14 31.48 128.14 31.02"/><line class="cls-1" x1="105.34" y1="31.56" x2="105.27" y2="31.56"/><line class="cls-1" x1="103.44" y1="31.56" x2="103.36" y2="31.56"/><line class="cls-1" x1="103.36" y1="31.48" x2="103.36" y2="31.48"/><line class="cls-1" x1="103.36" y1="31.56" x2="103.36" y2="31.56"/><line class="cls-1" x1="103.36" y1="31.48" x2="103.36" y2="31.48"/><line class="cls-1" x1="103.36" y1="31.56" x2="103.36" y2="31.56"/><line class="cls-1" x1="103.36" y1="31.48" x2="103.36" y2="31.48"/><path class="cls-1" d="M103.34,31.44a3.85,3.85,0,0,0,.08-.47"/><polyline class="cls-1" points="103.36 31.56 103.36 31.56 103.36 31.48"/><path class="cls-1" d="M105.21,31a2.57,2.57,0,0,0,.08.47"/><polyline class="cls-1" points="105.34 31.56 105.34 31.56 105.34 31.48"/><line class="cls-1" x1="103.44" y1="31.56" x2="103.44" y2="31.56"/><line class="cls-1" x1="105.27" y1="31.56" x2="105.27" y2="31.56"/><line class="cls-1" x1="26.75" y1="29.42" x2="28.27" y2="29.42"/><line class="cls-1" x1="199.64" y1="11.36" x2="150.32" y2="11.36"/><line class="cls-1" x1="198.42" y1="29.42" x2="199.64" y2="29.42"/><path class="cls-1" d="M206.51,26.26a4.15,4.15,0,1,0,4.15-4.16,4.15,4.15,0,0,0-4.15,4.16"/><line class="cls-1" x1="136.83" y1="15.17" x2="137.67" y2="14.33"/><path class="cls-1" d="M20.65,26.26a4.16,4.16,0,1,0-4.16,4.15,4.16,4.16,0,0,0,4.16-4.15"/><line class="cls-1" x1="26.67" y1="28.66" x2="26.67" y2="26.07"/><line class="cls-1" x1="138.12" y1="16.23" x2="138.12" y2="23.93"/><path class="cls-1" d="M199.57,11.47a.86.86,0,0,0,0-.16"/><path class="cls-1" d="M85.87,12.19a4,4,0,0,0-3.93,4"/><line class="cls-1" x1="85.9" y1="12.27" x2="134.16" y2="12.27"/><path class="cls-1" d="M138.05,16.2a4,4,0,0,0-3.93-4"/><line class="cls-1" x1="81.94" y1="23.93" x2="81.94" y2="16.23"/><path class="cls-1" d="M31.28,21.34A4.69,4.69,0,0,0,26.59,26"/><line class="cls-1" x1="31.32" y1="21.42" x2="56.93" y2="21.42"/><path class="cls-1" d="M61.59,26a4.69,4.69,0,0,0-4.69-4.69"/><line class="cls-1" x1="61.59" y1="26.07" x2="61.59" y2="28.66"/><path class="cls-1" d="M150.32,30.6a2.86,2.86,0,0,0,2.86,2.86"/><line class="cls-1" x1="196.75" y1="33.54" x2="153.22" y2="33.54"/><path class="cls-1" d="M196.71,33.46a2.86,2.86,0,0,0,2.86-2.86"/><line class="cls-1" x1="199.64" y1="11.51" x2="199.64" y2="30.64"/><line class="cls-1" x1="150.32" y1="30.64" x2="150.32" y2="11.51"/><path class="cls-1" d="M150.33,11.31a.86.86,0,0,0,0,.16"/><path class="cls-1" d="M22.78,26.26a6.29,6.29,0,1,0-6.29,6.29,6.29,6.29,0,0,0,6.29-6.29"/><line class="cls-1" x1="200.79" y1="45.28" x2="26.44" y2="45.28"/><path class="cls-1" d="M200.75,45.2a18.94,18.94,0,0,0,0-37.88"/><line class="cls-1" x1="26.44" y1="7.39" x2="200.79" y2="7.39"/><path class="cls-1" d="M26.46,7.39a18.95,18.95,0,1,0,0,37.89"/><path class="cls-1" d="M217,26.26a6.29,6.29,0,1,0-6.29,6.29A6.29,6.29,0,0,0,217,26.26"/><line class="cls-1" x1="90.1" y1="31.63" x2="86.59" y2="28.43"/><path class="cls-1" d="M86.52,28.43a1.86,1.86,0,0,0-.7-.39"/><line class="cls-1" x1="85.83" y1="28.05" x2="84.76" y2="27.75"/><path class="cls-1" d="M81.93,23.92a4,4,0,0,0,2.84,3.83"/><path class="cls-1" d="M135.2,27.75a4,4,0,0,0,2.85-3.85"/><line class="cls-1" x1="135.23" y1="27.75" x2="134.16" y2="28.05"/><path class="cls-1" d="M134.16,28a1.86,1.86,0,0,0-.7.39"/><line class="cls-1" x1="133.47" y1="28.43" x2="129.89" y2="31.63"/><path class="cls-1" d="M127.3,32.59a3.88,3.88,0,0,0,2.62-1"/><line class="cls-1" x1="127.3" y1="32.62" x2="92.76" y2="32.62"/><path class="cls-1" d="M90.11,31.61a3.9,3.9,0,0,0,2.62,1"/><path class="cls-1" d="M56.9,33.31a4.69,4.69,0,0,0,4.69-4.69"/><line class="cls-1" x1="56.93" y1="33.31" x2="31.32" y2="33.31"/><path class="cls-1" d="M26.59,28.62a4.69,4.69,0,0,0,4.69,4.69"/><line class="cls-1" x1="26.44" y1="49.62" x2="200.79" y2="49.62"/><path class="cls-1" d="M200.75,49.55a23.29,23.29,0,0,0,0-46.58"/><line class="cls-1" x1="200.79" y1="3.05" x2="26.44" y2="3.05"/><line class="cls-1" x1="26.98" y1="30.26" x2="26.98" y2="29.42"/><line class="cls-1" x1="89.49" y1="31.02" x2="92.61" y2="31.02"/><line class="cls-1" x1="84.61" y1="26.07" x2="84.61" y2="27.67"/><line class="cls-1" x1="135.07" y1="27.82" x2="135.07" y2="26.07"/><line class="cls-1" x1="127.07" y1="31.02" x2="130.58" y2="31.02"/><polyline class="cls-1" points="135.07 26.07 131.8 27.75 131.8 29.88"/><polyline class="cls-1" points="87.81 29.57 87.81 27.75 84.61 26.07"/><polyline class="cls-1" points="94.67 21.04 94.59 20.73 94.37 20.66 94.06 20.73 93.98 21.04 94.06 21.27 94.37 21.34 94.59 21.27 94.67 21.04"/><polyline class="cls-1" points="96.42 21.04 96.35 20.73 96.04 20.66 95.81 20.73 95.74 21.04 95.81 21.27 96.04 21.34 96.35 21.27 96.42 21.04"/><polyline class="cls-1" points="98.18 21.04 98.03 20.73 97.8 20.66 97.57 20.73 97.42 21.04 97.57 21.27 97.8 21.34 98.03 21.27 98.18 21.04"/><polyline class="cls-1" points="99.85 21.04 99.78 20.73 99.47 20.66 99.25 20.73 99.17 21.04 99.25 21.27 99.47 21.34 99.78 21.27 99.85 21.04"/><polyline class="cls-1" points="101.61 21.04 101.45 20.73 101.23 20.66 101 20.73 100.84 21.04 101 21.27 101.23 21.34 101.45 21.27 101.61 21.04"/><polyline class="cls-1" points="103.28 21.04 103.21 20.73 102.98 20.66 102.67 20.73 102.6 21.04 102.67 21.27 102.98 21.34 103.21 21.27 103.28 21.04"/><polyline class="cls-1" points="105.04 21.04 104.96 20.73 104.66 20.66 104.43 20.73 104.28 21.04 104.43 21.27 104.66 21.34 104.96 21.27 105.04 21.04"/><polyline class="cls-1" points="106.72 21.04 106.64 20.73 106.41 20.66 106.11 20.73 106.03 21.04 106.11 21.27 106.41 21.34 106.64 21.27 106.72 21.04"/><polyline class="cls-1" points="108.47 21.04 108.39 20.73 108.09 20.66 107.86 20.73 107.78 21.04 107.86 21.27 108.09 21.34 108.39 21.27 108.47 21.04"/><polyline class="cls-1" points="110.22 21.04 110.07 20.73 109.84 20.66 109.61 20.73 109.46 21.04 109.61 21.27 109.84 21.34 110.07 21.27 110.22 21.04"/><polyline class="cls-1" points="111.9 21.04 111.82 20.73 111.59 20.66 111.29 20.73 111.21 21.04 111.29 21.27 111.59 21.34 111.82 21.27 111.9 21.04"/><polyline class="cls-1" points="113.65 21.04 113.5 20.73 113.27 20.66 113.04 20.73 112.89 21.04 113.04 21.27 113.27 21.34 113.5 21.27 113.65 21.04"/><polyline class="cls-1" points="115.33 21.04 115.25 20.73 115.03 20.66 114.72 20.73 114.64 21.04 114.72 21.27 115.03 21.34 115.25 21.27 115.33 21.04"/><polyline class="cls-1" points="117.08 21.04 117.01 20.73 116.7 20.66 116.47 20.73 116.4 21.04 116.47 21.27 116.7 21.34 117.01 21.27 117.08 21.04"/><polyline class="cls-1" points="118.84 21.04 118.68 20.73 118.45 20.66 118.15 20.73 118.07 21.04 118.15 21.27 118.45 21.34 118.68 21.27 118.84 21.04"/><polyline class="cls-1" points="120.51 21.04 120.44 20.73 120.13 20.66 119.9 20.73 119.83 21.04 119.9 21.27 120.13 21.34 120.44 21.27 120.51 21.04"/><polyline class="cls-1" points="122.27 21.04 122.11 20.73 121.89 20.66 121.66 20.73 121.5 21.04 121.66 21.27 121.89 21.34 122.11 21.27 122.27 21.04"/><polyline class="cls-1" points="123.94 21.04 123.87 20.73 123.64 20.66 123.33 20.73 123.26 21.04 123.33 21.27 123.64 21.34 123.87 21.27 123.94 21.04"/><polyline class="cls-1" points="125.7 21.04 125.55 20.73 125.32 20.66 125.09 20.73 124.94 21.04 125.09 21.27 125.32 21.34 125.55 21.27 125.7 21.04"/><line class="cls-1" x1="93.3" y1="19.59" x2="126.38" y2="19.59"/><line class="cls-1" x1="126.38" y1="22.49" x2="93.3" y2="22.49"/><path class="cls-1" d="M93.26,19.59a1.41,1.41,0,1,0,0,2.82"/><path class="cls-1" d="M126.35,22.41a1.41,1.41,0,1,0,0-2.82"/><line class="cls-1" x1="126.38" y1="31.1" x2="126.38" y2="31.56"/><line class="cls-1" x1="125.7" y1="31.1" x2="125.7" y2="31.56"/><line class="cls-1" x1="126.38" y1="31.02" x2="126.38" y2="31.1"/><line class="cls-1" x1="125.7" y1="31.02" x2="125.7" y2="31.1"/><line class="cls-1" x1="93.98" y1="31.1" x2="93.98" y2="31.56"/><line class="cls-1" x1="93.3" y1="31.1" x2="93.3" y2="31.56"/><line class="cls-1" x1="93.98" y1="31.02" x2="93.98" y2="31.1"/><line class="cls-1" x1="93.3" y1="31.02" x2="93.3" y2="31.1"/><line class="cls-1" x1="95.81" y1="31.1" x2="95.81" y2="31.56"/><line class="cls-1" x1="95.05" y1="31.1" x2="95.05" y2="31.56"/><line class="cls-1" x1="95.81" y1="31.02" x2="95.81" y2="31.1"/><line class="cls-1" x1="95.05" y1="31.02" x2="95.05" y2="31.1"/><line class="cls-1" x1="97.57" y1="31.1" x2="97.57" y2="31.56"/><line class="cls-1" x1="96.88" y1="31.1" x2="96.88" y2="31.56"/><line class="cls-1" x1="97.57" y1="31.02" x2="97.57" y2="31.1"/><line class="cls-1" x1="96.88" y1="31.02" x2="96.88" y2="31.1"/><line class="cls-1" x1="99.4" y1="31.1" x2="99.4" y2="31.56"/><line class="cls-1" x1="98.63" y1="31.1" x2="98.63" y2="31.56"/><line class="cls-1" x1="99.4" y1="31.02" x2="99.4" y2="31.1"/><line class="cls-1" x1="98.63" y1="31.02" x2="98.63" y2="31.1"/><line class="cls-1" x1="101.23" y1="31.1" x2="101.23" y2="31.56"/><line class="cls-1" x1="100.46" y1="31.1" x2="100.46" y2="31.56"/><line class="cls-1" x1="101.23" y1="31.02" x2="101.23" y2="31.1"/><line class="cls-1" x1="100.46" y1="31.02" x2="100.46" y2="31.1"/><line class="cls-1" x1="102.98" y1="31.1" x2="102.98" y2="31.56"/><line class="cls-1" x1="102.29" y1="31.1" x2="102.29" y2="31.56"/><line class="cls-1" x1="102.98" y1="31.02" x2="102.98" y2="31.1"/><line class="cls-1" x1="102.29" y1="31.02" x2="102.29" y2="31.1"/><line class="cls-1" x1="104.81" y1="31.1" x2="104.81" y2="31.56"/><line class="cls-1" x1="104.05" y1="31.1" x2="104.05" y2="31.56"/><line class="cls-1" x1="104.81" y1="31.02" x2="104.81" y2="31.1"/><line class="cls-1" x1="104.05" y1="31.02" x2="104.05" y2="31.1"/><line class="cls-1" x1="106.56" y1="31.1" x2="106.56" y2="31.56"/><line class="cls-1" x1="105.88" y1="31.1" x2="105.88" y2="31.56"/><line class="cls-1" x1="106.56" y1="31.02" x2="106.56" y2="31.1"/><line class="cls-1" x1="105.88" y1="31.02" x2="105.88" y2="31.1"/><line class="cls-1" x1="108.39" y1="31.1" x2="108.39" y2="31.56"/><line class="cls-1" x1="107.71" y1="31.1" x2="107.71" y2="31.56"/><line class="cls-1" x1="108.39" y1="31.02" x2="108.39" y2="31.1"/><line class="cls-1" x1="107.71" y1="31.02" x2="107.71" y2="31.1"/><line class="cls-1" x1="110.22" y1="31.1" x2="110.22" y2="31.56"/><line class="cls-1" x1="109.46" y1="31.1" x2="109.46" y2="31.56"/><line class="cls-1" x1="110.22" y1="31.02" x2="110.22" y2="31.1"/><line class="cls-1" x1="109.46" y1="31.02" x2="109.46" y2="31.1"/><line class="cls-1" x1="111.98" y1="31.1" x2="111.98" y2="31.56"/><line class="cls-1" x1="111.29" y1="31.1" x2="111.29" y2="31.56"/><line class="cls-1" x1="111.98" y1="31.02" x2="111.98" y2="31.1"/><line class="cls-1" x1="111.29" y1="31.02" x2="111.29" y2="31.1"/><line class="cls-1" x1="113.81" y1="31.1" x2="113.81" y2="31.56"/><line class="cls-1" x1="113.04" y1="31.1" x2="113.04" y2="31.56"/><line class="cls-1" x1="113.81" y1="31.02" x2="113.81" y2="31.1"/><line class="cls-1" x1="113.04" y1="31.02" x2="113.04" y2="31.1"/><line class="cls-1" x1="115.63" y1="31.1" x2="115.63" y2="31.56"/><line class="cls-1" x1="114.87" y1="31.1" x2="114.87" y2="31.56"/><line class="cls-1" x1="115.63" y1="31.02" x2="115.63" y2="31.1"/><line class="cls-1" x1="114.87" y1="31.02" x2="114.87" y2="31.1"/><line class="cls-1" x1="117.39" y1="31.1" x2="117.39" y2="31.56"/><line class="cls-1" x1="116.7" y1="31.1" x2="116.7" y2="31.56"/><line class="cls-1" x1="117.39" y1="31.02" x2="117.39" y2="31.1"/><line class="cls-1" x1="116.7" y1="31.02" x2="116.7" y2="31.1"/><line class="cls-1" x1="119.22" y1="31.1" x2="119.22" y2="31.56"/><line class="cls-1" x1="118.46" y1="31.1" x2="118.46" y2="31.56"/><line class="cls-1" x1="119.22" y1="31.02" x2="119.22" y2="31.1"/><line class="cls-1" x1="118.46" y1="31.02" x2="118.46" y2="31.1"/><line class="cls-1" x1="120.97" y1="31.1" x2="120.97" y2="31.56"/><line class="cls-1" x1="120.28" y1="31.1" x2="120.28" y2="31.56"/><line class="cls-1" x1="120.97" y1="31.02" x2="120.97" y2="31.1"/><line class="cls-1" x1="120.28" y1="31.02" x2="120.28" y2="31.1"/><line class="cls-1" x1="122.8" y1="31.1" x2="122.8" y2="31.56"/><line class="cls-1" x1="122.11" y1="31.1" x2="122.11" y2="31.56"/><line class="cls-1" x1="122.8" y1="31.02" x2="122.8" y2="31.1"/><line class="cls-1" x1="122.11" y1="31.02" x2="122.11" y2="31.1"/><line class="cls-1" x1="124.63" y1="31.1" x2="124.63" y2="31.56"/><line class="cls-1" x1="123.87" y1="31.1" x2="123.87" y2="31.56"/><line class="cls-1" x1="124.63" y1="31.02" x2="124.63" y2="31.1"/><line class="cls-1" x1="123.87" y1="31.02" x2="123.87" y2="31.1"/><line class="cls-1" x1="127.07" y1="31.02" x2="92.61" y2="31.02"/><polyline class="cls-1" points="82.78 26.45 82.78 23.4 82.78 13.87"/><line class="cls-1" x1="84.61" y1="23.1" x2="84.61" y2="13.87"/><path class="cls-1" d="M82.78,23.36a2.86,2.86,0,0,0,2.07,2.75"/><path class="cls-1" d="M90.67,30.22a2.86,2.86,0,0,0,1.9.73"/><line class="cls-1" x1="90.71" y1="30.26" x2="87.12" y2="27.14"/><path class="cls-1" d="M87,27.1a2.84,2.84,0,0,0-1.11-.62"/><line class="cls-1" x1="85.98" y1="26.45" x2="84.91" y2="26.14"/><path class="cls-1" d="M84.61,23.06a1.4,1.4,0,0,0,1,1.35"/><path class="cls-1" d="M91.79,28.76a1.41,1.41,0,0,0,.94.36"/><line class="cls-1" x1="91.77" y1="28.89" x2="87.73" y2="25.23"/><path class="cls-1" d="M87.64,25.28a1.48,1.48,0,0,0-.55-.3"/><line class="cls-1" x1="87.2" y1="24.93" x2="85.67" y2="24.54"/><path class="cls-1" d="M127,31a2.84,2.84,0,0,0,1.9-.73"/><line class="cls-1" x1="132.56" y1="27.14" x2="128.98" y2="30.26"/><path class="cls-1" d="M133.64,26.48a3,3,0,0,0-1.12.62"/><line class="cls-1" x1="134.77" y1="26.14" x2="133.7" y2="26.45"/><path class="cls-1" d="M134.75,26.11a2.86,2.86,0,0,0,2.08-2.75"/><line class="cls-1" x1="136.83" y1="13.87" x2="136.83" y2="23.4"/><path class="cls-1" d="M136.83,13.83a3.38,3.38,0,0,0-.07-.63"/><path class="cls-1" d="M82.78,13.64v.19"/><path class="cls-1" d="M85.64,12.73a1.11,1.11,0,0,0-1.11,1.1"/><line class="cls-1" x1="85.67" y1="12.8" x2="134.01" y2="12.8"/><path class="cls-1" d="M135.07,13.83a1.1,1.1,0,0,0-1.1-1.1"/><line class="cls-1" x1="135.07" y1="13.87" x2="135.07" y2="23.1"/><path class="cls-1" d="M134,24.41a1.4,1.4,0,0,0,1-1.35"/><line class="cls-1" x1="134.01" y1="24.54" x2="132.48" y2="24.93"/><path class="cls-1" d="M132.44,25a1.41,1.41,0,0,0-.55.3"/><line class="cls-1" x1="131.95" y1="25.23" x2="127.91" y2="28.89"/><path class="cls-1" d="M126.88,29.12a1.41,1.41,0,0,0,.94-.36"/><line class="cls-1" x1="126.92" y1="29.19" x2="92.76" y2="29.19"/><line class="cls-1" x1="136.83" y1="26.83" x2="136.83" y2="23.4"/><polyline class="cls-1" points="117.01 29.19 117.01 28.43 117.01 27.75"/><path class="cls-1" d="M120.89,29.14a.93.93,0,0,0,.46-.75"/><line class="cls-1" x1="121.35" y1="27.75" x2="121.35" y2="28.43"/><path class="cls-1" d="M117,28.39a.93.93,0,0,0,.46.75"/><line class="cls-1" x1="121.35" y1="28.43" x2="121.35" y2="29.19"/><polyline class="cls-1" points="117.01 27.21 117.01 27.36 117.01 27.75"/><polyline class="cls-1" points="121.35 27.21 121.35 27.36 121.35 27.75"/><path class="cls-1" d="M123.78,12.81c-.51.19-.83.52-.83.87"/><line class="cls-1" x1="122.95" y1="14.41" x2="122.95" y2="13.72"/><line class="cls-1" x1="127.3" y1="14.41" x2="127.3" y2="13.72"/><path class="cls-1" d="M127.3,13.68c0-.35-.31-.68-.83-.87"/><line class="cls-1" x1="122.95" y1="13.72" x2="122.95" y2="12.8"/><line class="cls-1" x1="127.3" y1="12.8" x2="127.3" y2="13.72"/><polyline class="cls-1" points="122.95 14.79 122.95 14.71 122.95 14.4"/><polyline class="cls-1" points="127.3 14.79 127.3 14.71 127.3 14.4"/><polyline class="cls-1" points="98.33 29.19 98.33 28.43 98.33 27.75"/><path class="cls-1" d="M98.25,28.39a1,1,0,0,0,.47.75"/><path class="cls-1" d="M102.13,29.14a1,1,0,0,0,.47-.75"/><polyline class="cls-1" points="102.6 27.75 102.6 28.43 102.6 29.19"/><polyline class="cls-1" points="98.33 27.21 98.33 27.36 98.33 27.75"/><polyline class="cls-1" points="102.6 27.21 102.6 27.36 102.6 27.75"/><path class="cls-1" d="M93.13,12.81c-.51.19-.82.52-.82.87"/><line class="cls-1" x1="92.38" y1="14.41" x2="92.38" y2="13.72"/><line class="cls-1" x1="96.65" y1="14.41" x2="96.65" y2="13.72"/><path class="cls-1" d="M96.65,13.68c0-.35-.31-.68-.82-.87"/><line class="cls-1" x1="92.38" y1="13.72" x2="92.38" y2="12.8"/><line class="cls-1" x1="96.65" y1="12.8" x2="96.65" y2="13.72"/><polyline class="cls-1" points="92.38 14.79 92.38 14.71 92.38 14.4"/><polyline class="cls-1" points="96.65 14.79 96.65 14.71 96.65 14.4"/><line class="cls-1" x1="117.01" y1="27.21" x2="121.35" y2="27.21"/><line class="cls-1" x1="127.3" y1="14.79" x2="122.95" y2="14.79"/><line class="cls-1" x1="98.33" y1="27.21" x2="102.6" y2="27.21"/><line class="cls-1" x1="96.65" y1="14.79" x2="92.38" y2="14.79"/><line class="cls-1" x1="151.24" y1="28.81" x2="151.24" y2="28.81"/><line class="cls-1" x1="151.24" y1="29.5" x2="151.24" y2="29.5"/><polyline class="cls-1" points="151.24 30.26 151.01 29.5 151.01 28.81"/><path class="cls-1" d="M151,29.44h0"/><line class="cls-1" x1="151.24" y1="29.5" x2="151.24" y2="29.5"/><line class="cls-1" x1="151.24" y1="28.81" x2="151.24" y2="28.81"/><path class="cls-1" d="M151,28.79h0"/><line class="cls-1" x1="151.01" y1="28.81" x2="151.24" y2="27.97"/><path class="cls-1" d="M151,29.48s.08,0,.19,0"/><path class="cls-1" d="M151.2,28.74c-.11,0-.19,0-.19,0"/><line class="cls-1" x1="150.32" y1="27.59" x2="151.24" y2="27.59"/><line class="cls-1" x1="150.32" y1="28.28" x2="151.16" y2="28.28"/><line class="cls-1" x1="150.32" y1="30.8" x2="151.24" y2="30.8"/><line class="cls-1" x1="151.24" y1="31.18" x2="150.4" y2="31.18"/><polyline class="cls-1" points="150.7 27.52 150.78 27.52 150.78 27.59"/><polyline class="cls-1" points="150.63 27.52 150.63 27.52 150.63 27.59"/><line class="cls-1" x1="150.85" y1="27.52" x2="150.85" y2="27.52"/><line class="cls-1" x1="151.01" y1="27.52" x2="151.01" y2="27.52"/><polyline class="cls-1" points="151.16 27.52 151.08 27.52 151.08 27.59"/><line class="cls-1" x1="150.63" y1="27.52" x2="150.63" y2="27.59"/><polyline class="cls-1" points="150.7 27.52 150.7 27.52 150.63 27.52 150.47 27.52 150.47 27.59"/><line class="cls-1" x1="150.63" y1="27.52" x2="150.63" y2="27.59"/><polyline class="cls-1" points="150.7 27.59 150.7 27.52 150.7 27.59 150.7 27.52"/><polyline class="cls-1" points="150.85 27.59 150.85 27.52 150.78 27.52 150.78 27.59"/><line class="cls-1" x1="150.85" y1="27.52" x2="150.85" y2="27.52"/><line class="cls-1" x1="151.01" y1="27.52" x2="151.01" y2="27.59"/><polyline class="cls-1" points="150.85 27.59 150.85 27.52 150.85 27.59"/><polyline class="cls-1" points="151.01 27.52 150.93 27.52 150.85 27.52"/><line class="cls-1" x1="151.08" y1="27.52" x2="151.08" y2="27.59"/><polyline class="cls-1" points="151.08 27.52 151.01 27.52 151.01 27.59"/><polyline class="cls-1" points="151.24 27.52 151.16 27.52 151.16 27.59"/><line class="cls-1" x1="150.32" y1="27.59" x2="150.32" y2="27.52"/><polyline class="cls-1" points="163.97 19.82 163.97 21.5 163.97 22.03 163.97 22.18"/><polyline class="cls-1" points="160.38 19.82 160.38 21.5 160.38 22.03 160.38 22.18 163.97 22.18"/><polyline class="cls-1" points="173.04 19.82 173.04 21.5 173.04 22.03 173.04 22.18"/><polyline class="cls-1" points="169.38 19.82 169.38 21.5 169.38 22.03 169.38 22.18 173.04 22.18"/><polyline class="cls-1" points="176.62 19.82 176.62 21.5 176.62 22.03 176.62 22.18"/><polyline class="cls-1" points="180.2 19.82 180.2 21.5 180.2 22.03 180.2 22.18 176.62 22.18"/><polyline class="cls-1" points="185.62 19.82 185.62 21.5 185.62 22.03 185.62 22.18"/><polyline class="cls-1" points="189.2 19.82 189.2 21.5 189.2 22.03 189.2 22.18 185.62 22.18"/><line class="cls-1" x1="152.99" y1="29.73" x2="196.59" y2="29.73"/><line class="cls-1" x1="152.99" y1="28.66" x2="196.59" y2="28.66"/><line class="cls-1" x1="152.3" y1="11.36" x2="152.3" y2="27.97"/><line class="cls-1" x1="152.3" y1="29.73" x2="152.3" y2="29.58"/><polyline class="cls-1" points="151.24 11.36 151.24 27.98 151.24 31.56"/><path class="cls-1" d="M152.23,27.94a.72.72,0,0,0,.72.72"/><path class="cls-1" d="M151.16,27.94A1.79,1.79,0,0,0,153,29.73"/><line class="cls-1" x1="197.36" y1="29.73" x2="197.36" y2="29.58"/><line class="cls-1" x1="197.36" y1="27.97" x2="197.36" y2="11.36"/><polyline class="cls-1" points="198.42 31.56 198.42 27.98 198.42 11.36"/><line class="cls-1" x1="190.11" y1="28.43" x2="190.04" y2="27.21"/><line class="cls-1" x1="181.2" y1="27.21" x2="181.12" y2="28.43"/><line class="cls-1" x1="181.42" y1="28.51" x2="181.27" y2="26.98"/><path class="cls-1" d="M181.35,28.5a.35.35,0,0,0,.06.16"/><path class="cls-1" d="M189.75,28.66a.52.52,0,0,0,.06-.16"/><line class="cls-1" x1="189.96" y1="26.98" x2="189.81" y2="28.51"/><line class="cls-1" x1="190.04" y1="27.75" x2="190.11" y2="28.66"/><line class="cls-1" x1="181.12" y1="28.66" x2="181.2" y2="27.75"/><line class="cls-1" x1="189.89" y1="28.66" x2="189.96" y2="27.67"/><line class="cls-1" x1="181.27" y1="27.67" x2="181.35" y2="28.66"/><polyline class="cls-1" points="181.04 28.66 181.12 28.66 181.12 28.43"/><path class="cls-1" d="M181.18,27.61c0-.16,0-.11-.05.12"/><path class="cls-1" d="M181.18,26.94c0-.32,0-.22-.05.23"/><path class="cls-1" d="M190,27.73c0-.23,0-.28-.05-.12"/><polyline class="cls-1" points="190.12 28.43 190.12 28.66 190.19 28.66"/><path class="cls-1" d="M190,27.17c0-.45,0-.55-.05-.23"/><line class="cls-1" x1="181.35" y1="11.36" x2="181.27" y2="12.04"/><line class="cls-1" x1="189.96" y1="12.04" x2="189.89" y2="11.36"/><line class="cls-1" x1="190.11" y1="11.36" x2="190.04" y2="11.81"/><line class="cls-1" x1="181.2" y1="11.81" x2="181.12" y2="11.36"/><path class="cls-1" d="M181.13,11.7c0,.46,0,.55.05.23"/><path class="cls-1" d="M181.14,11.37q0,.12,0,0"/><path class="cls-1" d="M190,11.93c0,.32,0,.23.05-.23"/><path class="cls-1" d="M190,11.37c0,.08,0,.08,0,0"/><line class="cls-1" x1="196.29" y1="16.23" x2="197.28" y2="15.32"/><line class="cls-1" x1="197.28" y1="21.11" x2="196.29" y2="20.2"/><path class="cls-1" d="M197.28,21.15a.12.12,0,0,0,0-.09"/><path class="cls-1" d="M196.14,20a.24.24,0,0,0,.11.19"/><path class="cls-1" d="M196.25,16.15a.26.26,0,0,0-.11.2"/><path class="cls-1" d="M197.24,15.3a.12.12,0,0,0,0-.09"/><path class="cls-1" d="M196.56,28.66a.72.72,0,0,0,.72-.72"/><path class="cls-1" d="M196.56,29.73a1.79,1.79,0,0,0,1.79-1.79"/><line class="cls-1" x1="159.47" y1="28.43" x2="159.55" y2="27.21"/><line class="cls-1" x1="168.46" y1="27.21" x2="168.54" y2="28.43"/><line class="cls-1" x1="168.24" y1="28.51" x2="168.39" y2="26.98"/><line class="cls-1" x1="159.62" y1="26.98" x2="159.77" y2="28.51"/><path class="cls-1" d="M159.7,28.5a.27.27,0,0,0,.06.16"/><path class="cls-1" d="M168.17,28.66a.27.27,0,0,0,.06-.16"/><line class="cls-1" x1="159.55" y1="27.75" x2="159.55" y2="28.66"/><line class="cls-1" x1="168.46" y1="28.66" x2="168.46" y2="27.75"/><line class="cls-1" x1="159.7" y1="28.66" x2="159.62" y2="27.67"/><line class="cls-1" x1="168.39" y1="27.67" x2="168.31" y2="28.66"/><path class="cls-1" d="M168.38,27.17c0-.45,0-.55,0-.23"/><path class="cls-1" d="M168.38,27.73c0-.23,0-.28,0-.12"/><line class="cls-1" x1="168.54" y1="28.66" x2="168.54" y2="28.43"/><path class="cls-1" d="M159.6,26.94c0-.32,0-.22,0,.23"/><line class="cls-1" x1="159.47" y1="28.43" x2="159.47" y2="28.66"/><path class="cls-1" d="M159.6,27.61c0-.16,0-.11,0,.12"/><line class="cls-1" x1="168.31" y1="11.36" x2="168.39" y2="12.04"/><line class="cls-1" x1="159.62" y1="12.04" x2="159.7" y2="11.36"/><line class="cls-1" x1="159.55" y1="11.36" x2="159.55" y2="11.81"/><line class="cls-1" x1="168.46" y1="11.81" x2="168.46" y2="11.36"/><path class="cls-1" d="M168.33,11.37c0,.08,0,.08,0,0"/><path class="cls-1" d="M168.33,11.93c0,.32,0,.23,0-.23"/><path class="cls-1" d="M159.57,11.37q0,.12,0,0"/><path class="cls-1" d="M159.56,11.7c0,.46,0,.55,0,.23"/><line class="cls-1" x1="153.37" y1="16.23" x2="152.3" y2="15.32"/><line class="cls-1" x1="152.3" y1="21.11" x2="153.37" y2="20.2"/><path class="cls-1" d="M153.34,20.2a.27.27,0,0,0,.11-.19"/><path class="cls-1" d="M152.27,21.06a.12.12,0,0,0,0,.09"/><path class="cls-1" d="M152.23,15.21a.12.12,0,0,0,0,.09"/><path class="cls-1" d="M153.45,16.35a.29.29,0,0,0-.11-.2"/><line class="cls-1" x1="190.04" y1="26.75" x2="181.2" y2="26.75"/><line class="cls-1" x1="196.14" y1="20.05" x2="196.14" y2="16.39"/><line class="cls-1" x1="190.04" y1="12.19" x2="181.2" y2="12.19"/><line class="cls-1" x1="159.62" y1="26.75" x2="168.39" y2="26.75"/><line class="cls-1" x1="153.45" y1="20.05" x2="153.45" y2="16.39"/><line class="cls-1" x1="159.62" y1="12.19" x2="168.39" y2="12.19"/><polyline class="cls-1" points="152.3 31.56 152.3 29.73 152.99 29.73"/><line class="cls-1" x1="197.36" y1="29.73" x2="197.36" y2="31.56"/><polyline class="cls-1" points="156.65 18.9 156.65 14.4 193.01 14.4 193.01 18.9 156.65 18.9"/><line class="cls-1" x1="193.93" y1="19.82" x2="193.01" y2="18.9"/><polyline class="cls-1" points="156.65 18.9 155.73 19.82 193.93 19.82"/><line class="cls-1" x1="156.65" y1="14.41" x2="155.66" y2="13.41"/><path class="cls-1" d="M155.66,13.41a2.86,2.86,0,0,0-.84,2"/><polyline class="cls-1" points="154.82 15.47 154.82 19.82 155.73 19.82"/><path class="cls-1" d="M193.93,13.41a2.9,2.9,0,0,0-2-.83"/><line class="cls-1" x1="191.94" y1="12.58" x2="157.72" y2="12.58"/><path class="cls-1" d="M157.68,12.58a2.86,2.86,0,0,0-2,.83"/><line class="cls-1" x1="193.93" y1="13.41" x2="193.01" y2="14.41"/><polyline class="cls-1" points="193.93 19.82 194.84 19.82 194.84 15.47"/><path class="cls-1" d="M194.77,15.43a2.91,2.91,0,0,0-.84-2"/><line class="cls-1" x1="173.19" y1="19.82" x2="173.19" y2="20.27"/><line class="cls-1" x1="169.23" y1="20.27" x2="169.23" y2="19.82"/><line class="cls-1" x1="164.2" y1="19.82" x2="164.2" y2="20.27"/><line class="cls-1" x1="160.23" y1="20.27" x2="160.23" y2="19.82"/><line class="cls-1" x1="185.46" y1="19.82" x2="185.46" y2="20.27"/><line class="cls-1" x1="189.43" y1="20.27" x2="189.43" y2="19.82"/><line class="cls-1" x1="176.39" y1="19.82" x2="176.39" y2="20.27"/><line class="cls-1" x1="180.36" y1="20.27" x2="180.36" y2="19.82"/><polyline class="cls-1" points="152.3 15.02 153.22 15.02 153.22 16.08"/><polyline class="cls-1" points="153.22 20.35 153.22 24.01 152.3 24.01"/><line class="cls-1" x1="197.36" y1="24.01" x2="196.44" y2="24.01"/><line class="cls-1" x1="196.44" y1="15.01" x2="196.44" y2="16.08"/><line class="cls-1" x1="196.44" y1="20.35" x2="196.44" y2="24.01"/><line class="cls-1" x1="197.36" y1="15.01" x2="196.44" y2="15.01"/><line class="cls-1" x1="164.2" y1="20.27" x2="163.97" y2="20.27"/><line class="cls-1" x1="160.38" y1="20.27" x2="160.23" y2="20.27"/><line class="cls-1" x1="189.43" y1="20.27" x2="189.2" y2="20.27"/><line class="cls-1" x1="185.62" y1="20.27" x2="185.46" y2="20.27"/><line class="cls-1" x1="180.36" y1="20.27" x2="180.2" y2="20.27"/><line class="cls-1" x1="176.62" y1="20.27" x2="176.39" y2="20.27"/><line class="cls-1" x1="173.19" y1="20.27" x2="173.04" y2="20.27"/><line class="cls-1" x1="169.38" y1="20.27" x2="169.23" y2="20.27"/><line class="cls-1" x1="196.59" y1="29.73" x2="197.36" y2="29.73"/><line class="cls-1" x1="151.24" y1="25.46" x2="150.32" y2="25.46"/><line class="cls-1" x1="150.32" y1="13.19" x2="151.24" y2="13.19"/><polyline class="cls-1" points="199.64 25.46 199.49 25.46 198.42 25.46"/><polyline class="cls-1" points="198.42 13.19 199.49 13.19 199.64 13.19"/><line class="cls-1" x1="199.49" y1="25.46" x2="199.49" y2="13.19"/><polyline class="cls-1" points="157.87 31.56 157.87 30.72 191.72 30.72 191.72 31.56"/><line class="cls-1" x1="157.87" y1="30.72" x2="157.87" y2="29.73"/><line class="cls-1" x1="191.72" y1="29.73" x2="191.72" y2="30.72"/><line class="cls-1" x1="112.51" y1="31.48" x2="112.51" y2="31.56"/><line class="cls-1" x1="108.93" y1="31.48" x2="108.93" y2="31.56"/><line class="cls-1" x1="105.27" y1="31.56" x2="105.27" y2="31.56"/><line class="cls-1" x1="101.23" y1="31.41" x2="101.3" y2="31.41"/><line class="cls-1" x1="114.26" y1="31.48" x2="114.26" y2="31.56"/><polyline class="cls-1" points="117.92 31.56 117.92 31.41 117.39 31.41"/><line class="cls-1" x1="123.72" y1="31.48" x2="123.72" y2="31.56"/><line class="cls-1" x1="125.16" y1="31.48" x2="125.16" y2="31.56"/><line class="cls-1" x1="57.01" y1="24.62" x2="57.01" y2="27.14"/><polyline class="cls-1" points="31.78 27.14 31.78 24.62 33.3 24.62 55.56 24.62 57.01 24.62"/><polyline class="cls-1" points="57.01 27.14 55.56 27.14 33.3 27.14 31.78 27.14"/><polyline class="cls-1" points="33.61 25.15 33.61 26.6 55.18 26.6 55.18 25.15 33.61 25.15"/><line class="cls-1" x1="33.3" y1="27.14" x2="33.61" y2="26.6"/><line class="cls-1" x1="33.61" y1="25.15" x2="33.3" y2="24.62"/><line class="cls-1" x1="55.18" y1="26.6" x2="55.56" y2="27.14"/><line class="cls-1" x1="55.56" y1="24.62" x2="55.18" y2="25.15"/><line class="cls-1" x1="32.77" y1="30.11" x2="56.02" y2="30.11"/><path class="cls-1" d="M56,30.11A3.09,3.09,0,0,0,59.07,27"/><line class="cls-1" x1="59.07" y1="27.06" x2="59.07" y2="24.7"/><path class="cls-1" d="M59.07,24.66A3.09,3.09,0,0,0,56,21.57"/><line class="cls-1" x1="56.02" y1="21.65" x2="32.77" y2="21.65"/><path class="cls-1" d="M32.73,21.57a3.09,3.09,0,0,0-3.09,3.09"/><line class="cls-1" x1="29.72" y1="24.7" x2="29.72" y2="27.06"/><path class="cls-1" d="M29.64,27a3.09,3.09,0,0,0,3.09,3.09"/><line class="cls-1" x1="60.52" y1="23.1" x2="60.52" y2="24.7"/><line class="cls-1" x1="28.27" y1="22.56" x2="28.27" y2="24.7"/><line class="cls-1" x1="129.13" y1="31.02" x2="129.13" y2="31.56"/><line class="cls-1" x1="128.06" y1="31.56" x2="128.06" y2="31.56"/><line class="cls-1" x1="32.77" y1="31.56" x2="56.02" y2="31.56"/><path class="cls-1" d="M56,31.56A4.54,4.54,0,0,0,60.52,27"/><path class="cls-1" d="M56,30.41A3.38,3.38,0,0,0,59.37,27"/><path class="cls-1" d="M60.52,24.66A4.51,4.51,0,0,0,60,22.53"/><polyline class="cls-1" points="60.52 31.56 60.52 27.06 60.52 24.7"/><path class="cls-1" d="M29.16,21.86a4.57,4.57,0,0,0-1,2.8"/><line class="cls-1" x1="28.27" y1="27.06" x2="28.27" y2="24.7"/><path class="cls-1" d="M28.19,27a4.54,4.54,0,0,0,4.54,4.54"/><line class="cls-1" x1="32.77" y1="30.49" x2="56.02" y2="30.49"/><path class="cls-1" d="M29.34,27a3.39,3.39,0,0,0,3.39,3.39"/><line class="cls-1" x1="29.41" y1="27.06" x2="29.41" y2="24.7"/><path class="cls-1" d="M31.73,21.42a3.39,3.39,0,0,0-2.39,3.24"/><path class="cls-1" d="M59.37,24.66A3.38,3.38,0,0,0,57,21.42"/><line class="cls-1" x1="59.45" y1="27.06" x2="59.45" y2="24.7"/><line class="cls-1" x1="59.45" y1="29.96" x2="59.45" y2="31.56"/><line class="cls-1" x1="28.27" y1="27.06" x2="28.27" y2="31.56"/><line class="cls-1" x1="29.41" y1="29.96" x2="29.41" y2="31.56"/><polyline class="cls-1" points="101.38 31.56 101.3 31.56 101.3 31.48 101.3 31.02"/><polyline class="cls-1" points="107.25 31.56 107.33 31.56 107.33 31.48"/><polyline class="cls-1" points="116.47 31.02 116.47 31.48 116.47 31.56 116.4 31.56"/><polyline class="cls-1" points="119.6 31.48 119.6 31.48 119.6 31.56 119.67 31.56"/><line class="cls-1" x1="118.23" y1="31.18" x2="117.39" y2="31.18"/><line class="cls-1" x1="116.7" y1="31.18" x2="116.47" y2="31.18"/><line class="cls-1" x1="101.3" y1="31.18" x2="101.23" y2="31.18"/><line class="cls-1" x1="100.46" y1="31.18" x2="99.4" y2="31.18"/><line class="cls-1" x1="95.05" y1="31.18" x2="94.67" y2="31.18"/><line class="cls-1" x1="91.09" y1="31.18" x2="89.64" y2="31.18"/><text class="cls-2" transform="translate(28.4 80.65)">T<tspan class="cls-3" x="5.87" y="0">raget</tspan></text><text class="cls-4" transform="translate(152.38 80.65)">Switchable<tspan x="-1.42" y="12">USB-</tspan><tspan class="cls-5" x="23.01" y="12">A</tspan><tspan x="29.27" y="12" xml:space="preserve"> Port</tspan><tspan class="cls-6"><tspan x="0.58" y="22">(Host /</tspan><tspan class="cls-7" x="23.01" y="22"> </tspan><tspan class="cls-8" x="24.93" y="22">T</tspan><tspan x="28.77" y="22">arget)</tspan></tspan></text><text class="cls-4" transform="translate(98.12 80.65)">HDMI<tspan x="1.69" y="10">Input</tspan></text><text class="cls-9" transform="translate(36.98 65.09)">②</text><text class="cls-9" transform="translate(104.14 65.09)">③</text><text class="cls-9" transform="translate(169.73 65.09)">④</text><rect class="cls-10" width="226.77" height="119.06"/></g></g></svg>