<svg xmlns="http://www.w3.org/2000/svg" xmlns:xlink="http://www.w3.org/1999/xlink" viewBox="0 0 139.1 106.96"><defs><style>.cls-1,.cls-3,.cls-9{fill:none;}.cls-2,.cls-7{fill:#f68938;}.cls-3{stroke:#000;stroke-linecap:round;stroke-linejoin:round;stroke-width:0.2px;}.cls-4,.cls-5{isolation:isolate;}.cls-5,.cls-6{fill:#2b2b2b;}.cls-7{fill-rule:evenodd;}.cls-8{clip-path:url(#clip-path);}.cls-9{stroke:#f68938;stroke-miterlimit:10;}</style><clipPath id="clip-path" transform="translate(-0.76)"><rect class="cls-1" x="76.16" y="76.7" width="52" height="21.17"/></clipPath></defs><g id="Layer_2" data-name="Layer 2"><g id="Layer_1-2" data-name="Layer 1"><path class="cls-2" d="M130.46,61.07a7.49,7.49,0,0,0,3.71.91c3.07,0,5.56-1.59,5.56-3.54a3.18,3.18,0,0,0-1.81-2.62L107.55,38.38a7.54,7.54,0,0,0-3.73-.92c-3.06,0-5.55,1.59-5.55,3.55,0,1.31,1.11,2.45,2.76,3.07Z" transform="translate(-0.76)"/><path class="cls-3" d="M107.76,1.67a8.78,8.78,0,0,0-6-.69c-2.07.5-3.42,1.66-3.42,3" transform="translate(-0.76)"/><path class="cls-3" d="M139.74,21.42a2.76,2.76,0,0,0-1.62-2.26" transform="translate(-0.76)"/><line class="cls-3" x1="137.37" y1="19.16" x2="106.99" y2="1.67"/><line class="cls-3" x1="106.99" y1="1.22" x2="106.37" y2="0.87"/><path class="cls-3" d="M107.13.88a7.33,7.33,0,0,0-6.6,0" transform="translate(-0.76)"/><path class="cls-3" d="M107.76,1.24a8.73,8.73,0,0,0-6-.69c-2.07.49-3.42,1.66-3.42,3" transform="translate(-0.76)"/><line class="cls-3" x1="137.37" y1="18.73" x2="136.75" y2="18.35"/><line class="cls-3" x1="136.75" y1="18.35" x2="106.37" y2="0.87"/><line class="cls-3" x1="106.99" y1="1.22" x2="137.37" y2="18.73"/><path class="cls-3" d="M137.51,18.38h0" transform="translate(-0.76)"/><path class="cls-3" d="M139.74,21a2.76,2.76,0,0,0-1.62-2.26" transform="translate(-0.76)"/><line class="cls-3" x1="106.99" y1="1.67" x2="106.99" y2="1.22"/><line class="cls-3" x1="137.37" y1="19.16" x2="137.37" y2="18.73"/><line class="cls-3" x1="99.77" y1="0.87" x2="99.15" y2="1.24"/><line class="cls-3" x1="136.77" y1="18.37" x2="137.39" y2="18.73"/><line class="cls-3" x1="97.54" y1="3.92" x2="97.54" y2="3.49"/><line class="cls-3" x1="139" y1="21.41" x2="139" y2="20.98"/><polyline class="cls-3" points="111.79 44.84 107.29 42.23 105.04 43.54"/><polyline class="cls-3" points="111.79 44.84 109.54 46.13 109.54 44.97 110.79 44.25"/><line class="cls-3" x1="105.04" y1="43.54" x2="109.54" y2="46.13"/><line class="cls-3" x1="109.54" y1="44.97" x2="108.43" y2="44.33"/><line class="cls-3" x1="106.28" y1="43.09" x2="106.03" y2="42.96"/><path class="cls-3" d="M138.13,60.89c2.15-1.25,2.14-3.27,0-4.51" transform="translate(-0.76)"/><line class="cls-3" x1="137.37" y1="56.38" x2="136.75" y2="57.47"/><path class="cls-3" d="M131,61.29a7.32,7.32,0,0,0,6.56,0c1.79-1,1.78-2.72,0-3.76" transform="translate(-0.76)"/><line class="cls-3" x1="106.99" y1="38.89" x2="106.37" y2="39.98"/><line class="cls-3" x1="106.37" y1="39.98" x2="136.75" y2="57.47"/><line class="cls-3" x1="137.37" y1="56.38" x2="106.99" y2="38.89"/><path class="cls-3" d="M107.13,40a7.27,7.27,0,0,0-6.58,0c-1.82,1-1.82,2.73,0,3.77" transform="translate(-0.76)"/><path class="cls-3" d="M107.76,38.89a8.71,8.71,0,0,0-7.83,0c-2.16,1.24-2.17,3.26,0,4.51" transform="translate(-0.76)"/><line class="cls-3" x1="130.23" y1="61.29" x2="99.79" y2="43.77"/><line class="cls-3" x1="137.37" y1="55.95" x2="137.37" y2="56.38"/><line class="cls-3" x1="137.37" y1="55.95" x2="106.99" y2="38.46"/><line class="cls-3" x1="106.99" y1="38.46" x2="106.99" y2="38.89"/><path class="cls-3" d="M139.74,58.21A2.76,2.76,0,0,0,138.12,56" transform="translate(-0.76)"/><path class="cls-3" d="M115.73,49.1a.5.5,0,0,0,0,.94" transform="translate(-0.76)"/><line class="cls-3" x1="114.99" y1="49.09" x2="115.76" y2="48.64"/><path class="cls-3" d="M118.13,48.65a1.8,1.8,0,0,0-1.63,0" transform="translate(-0.76)"/><line class="cls-3" x1="117.37" y1="48.64" x2="121.81" y2="51.21"/><path class="cls-3" d="M122.57,52.16a.5.5,0,0,0,0-.95" transform="translate(-0.76)"/><line class="cls-3" x1="121.81" y1="52.14" x2="121.04" y2="52.58"/><path class="cls-3" d="M120.17,52.59a1.8,1.8,0,0,0,1.63,0" transform="translate(-0.76)"/><line class="cls-3" x1="119.43" y1="52.58" x2="114.99" y2="50.03"/><line class="cls-3" x1="114.99" y1="49.26" x2="114.99" y2="50.03"/><line class="cls-3" x1="119.43" y1="51.86" x2="119.43" y2="52.58"/><line class="cls-3" x1="121.04" y1="51.86" x2="121.04" y2="52.58"/><line class="cls-3" x1="121.81" y1="51.38" x2="121.81" y2="52.14"/><path class="cls-3" d="M107.76,38.46a8.73,8.73,0,0,0-6-.69c-2.07.49-3.42,1.66-3.42,2.95" transform="translate(-0.76)"/><line class="cls-3" x1="136.77" y1="61.25" x2="137.39" y2="60.88"/><line class="cls-3" x1="99.77" y1="43.75" x2="99.15" y2="43.39"/><line class="cls-3" x1="139" y1="58.2" x2="139" y2="58.63"/><line class="cls-3" x1="97.54" y1="40.71" x2="97.54" y2="41.14"/><path class="cls-3" d="M139.74,58.21A2.76,2.76,0,0,0,138.12,56" transform="translate(-0.76)"/><path class="cls-3" d="M139.74,21.42a2.76,2.76,0,0,0-1.62-2.26" transform="translate(-0.76)"/><line class="cls-3" x1="137.37" y1="55.95" x2="137.37" y2="19.16"/><line class="cls-3" x1="137.37" y1="55.95" x2="106.99" y2="38.46"/><line class="cls-3" x1="106.99" y1="1.67" x2="137.37" y2="19.16"/><line class="cls-3" x1="106.99" y1="38.46" x2="106.99" y2="1.67"/><path class="cls-3" d="M107.76,38.46a8.73,8.73,0,0,0-6-.69c-2.07.49-3.42,1.66-3.42,2.95" transform="translate(-0.76)"/><path class="cls-3" d="M107.76,1.67a8.78,8.78,0,0,0-6-.69c-2.07.5-3.42,1.66-3.42,3" transform="translate(-0.76)"/><line class="cls-3" x1="139" y1="58.2" x2="139" y2="21.41"/><line class="cls-3" x1="97.54" y1="40.71" x2="97.54" y2="3.92"/><polyline class="cls-3" points="110.77 44.27 110.72 44.24 110.77 44.25 110.72 44.24"/><polyline class="cls-3" points="120.52 50.46 120.52 50.7 116.68 48.47 116.68 48.45"/><polyline class="cls-3" points="118.68 49.39 118.68 49.48 118.83 49.58"/><polyline class="cls-3" points="119 49.58 119 49.67 119.15 49.76"/><polyline class="cls-3" points="118.05 49.03 118.05 49.11 118.2 49.2"/><line class="cls-3" x1="116.96" y1="48.49" x2="117.18" y2="48.62"/><polyline class="cls-3" points="118.36 49.22 118.36 49.3 118.51 49.39"/><polyline class="cls-3" points="119.32 49.76 119.32 49.86 119.47 49.95"/><polyline class="cls-3" points="117.71 48.85 117.71 48.94 117.88 49.03"/><polyline class="cls-3" points="120.01 50.16 120.01 50.25 120.39 50.48"/><polyline class="cls-3" points="121.46 51 121.46 51.4 120.69 51.84 120.69 50.55"/><polyline class="cls-3" points="119.79 50.8 119.79 51.84 115.35 49.28 115.35 48.88"/><path class="cls-3" d="M115.92,49a.33.33,0,0,0,.18.26" transform="translate(-0.76)"/><path class="cls-3" d="M122.37,51.54a.48.48,0,0,0,.25-.28" transform="translate(-0.76)"/><path class="cls-3" d="M115.69,49.14a.51.51,0,0,0,.24.29" transform="translate(-0.76)"/><line class="cls-3" x1="115.18" y1="49.41" x2="119.62" y2="51.96"/><path class="cls-3" d="M120.37,52a1.3,1.3,0,0,0,1.24,0" transform="translate(-0.76)"/><line class="cls-3" x1="120.86" y1="51.96" x2="121.63" y2="51.53"/><path class="cls-3" d="M122.23,51.45a.31.31,0,0,0,.19-.31" transform="translate(-0.76)"/><line class="cls-3" x1="121.48" y1="51.43" x2="120.71" y2="51.88"/><path class="cls-3" d="M120.52,51.88a1,1,0,0,0,.94,0" transform="translate(-0.76)"/><line class="cls-3" x1="119.77" y1="51.88" x2="115.33" y2="49.31"/><path class="cls-3" d="M115.89,49c0,.11,0,.23.19.31" transform="translate(-0.76)"/><path class="cls-3" d="M120.54,51.85a1,1,0,0,0,.89,0" transform="translate(-0.76)"/><path class="cls-3" d="M121.34,50.6l.09,0" transform="translate(-0.76)"/><path class="cls-3" d="M122.2,51.4a.32.32,0,0,0,.19-.26" transform="translate(-0.76)"/><line class="cls-3" x1="119.62" y1="51.96" x2="119.6" y2="51.96"/><line class="cls-3" x1="115.16" y1="49.41" x2="115.18" y2="49.41"/><line class="cls-3" x1="120.86" y1="51.96" x2="120.88" y2="51.96"/><line class="cls-3" x1="121.63" y1="51.53" x2="121.64" y2="51.53"/><polyline class="cls-3" points="115.35 49.28 115.35 49.3 115.33 49.31"/><polyline class="cls-3" points="119.79 51.84 119.79 51.86 119.77 51.88"/><polyline class="cls-3" points="121.47 51.43 121.47 51.41 121.46 51.4"/><polyline class="cls-3" points="120.69 51.84 120.71 51.86 120.71 51.88"/><path class="cls-3" d="M117.06,48.47a.15.15,0,0,0-.09.12" transform="translate(-0.76)"/><path class="cls-3" d="M117.43,48.48l-.05,0" transform="translate(-0.76)"/><path class="cls-3" d="M121.35,50.8a.12.12,0,0,0-.08-.11" transform="translate(-0.76)"/><line class="cls-3" x1="116.45" y1="48.79" x2="120.29" y2="51"/><path class="cls-3" d="M121.05,51a.09.09,0,0,0,.07,0,0,0,0,0,0,0,0" transform="translate(-0.76)"/><line class="cls-3" x1="120.35" y1="50.96" x2="116.51" y2="48.75"/><path class="cls-3" d="M117.27,48.76h-.06a0,0,0,0,0,0,0" transform="translate(-0.76)"/><path class="cls-3" d="M117.09,48.81s.06,0,.1,0" transform="translate(-0.76)"/><path class="cls-3" d="M117.25,48.76a.4.4,0,0,0,.17-.29" transform="translate(-0.76)"/><path class="cls-3" d="M121.09,51a.4.4,0,0,0,.17-.28" transform="translate(-0.76)"/><path class="cls-3" d="M120.93,51a.12.12,0,0,0,.11,0" transform="translate(-0.76)"/><polyline class="cls-3" points="120.01 50.25 120.01 50.25 120.01 50.16"/><polyline class="cls-3" points="120.39 50.38 120.39 50.48 120.01 50.25"/><polyline class="cls-3" points="118.68 49.48 118.68 49.48 118.68 49.41"/><polyline class="cls-3" points="118.68 49.48 118.85 49.58 118.83 49.58"/><line class="cls-3" x1="118.85" y1="49.58" x2="118.85" y2="49.48"/><polyline class="cls-3" points="117.73 48.85 117.73 48.92 117.71 48.94"/><polyline class="cls-3" points="117.73 48.92 117.88 49.02 117.88 49.03"/><line class="cls-3" x1="117.88" y1="49.01" x2="117.88" y2="48.94"/><polyline class="cls-3" points="119 49.67 119 49.67 119 49.58"/><polyline class="cls-3" points="119 49.67 119.17 49.76 119.15 49.76"/><line class="cls-3" x1="119.17" y1="49.76" x2="119.17" y2="49.67"/><polyline class="cls-3" points="119.32 49.86 119.32 49.86 119.32 49.76"/><polyline class="cls-3" points="119.32 49.86 119.49 49.95 119.47 49.95"/><line class="cls-3" x1="119.49" y1="49.95" x2="119.49" y2="49.86"/><polyline class="cls-3" points="118.05 49.11 118.05 49.11 118.05 49.03"/><polyline class="cls-3" points="118.2 49.13 118.2 49.2 118.05 49.11"/><polyline class="cls-3" points="118.36 49.3 118.36 49.3 118.36 49.22"/><polyline class="cls-3" points="118.36 49.3 118.53 49.39 118.51 49.39"/><line class="cls-3" x1="118.53" y1="49.39" x2="118.53" y2="49.31"/><polyline class="cls-3" points="116.98 48.49 117.2 48.62 117.18 48.62"/><line class="cls-3" x1="117.2" y1="48.62" x2="117.2" y2="48.56"/><polyline class="cls-3" points="120.59 50.59 120.63 50.57 120.69 50.55"/><polyline class="cls-3" points="121.91 51.26 121.89 51.3 121.87 51.34 121.83 51.36 121.81 51.4 121.78 51.43 121.74 51.47 121.7 51.49 121.64 51.53 120.88 51.96 120.84 51.98 120.82 51.99 120.78 52.01 120.74 52.03 120.71 52.05 120.67 52.05 120.63 52.07 120.59 52.07 120.54 52.09 120.5 52.09 120.46 52.11 120.43 52.11 120.37 52.11 120.33 52.11 120.3 52.11 120.24 52.13 120.2 52.11 120.16 52.11 120.11 52.11 120.07 52.11 120.03 52.11 119.98 52.09 119.94 52.09 119.9 52.07 119.86 52.07 119.83 52.05 119.79 52.05 119.75 52.03 119.71 52.01 119.68 51.99 119.64 51.98 119.6 51.96 115.16 49.41 115.12 49.37 115.08 49.35 115.05 49.31 115.01 49.28 114.97 49.24 114.95 49.22 114.94 49.18 114.92 49.15"/><line class="cls-3" x1="115.16" y1="49.01" x2="115.16" y2="49"/><polyline class="cls-3" points="121.64 51.09 121.64 51.11 121.64 51.13"/><line class="cls-3" x1="116.21" y1="48.58" x2="116.21" y2="48.49"/><line class="cls-3" x1="120.59" y1="50.8" x2="120.59" y2="50.5"/><polyline class="cls-3" points="120.59 50.8 120.59 50.83 120.59 50.87 120.58 50.91 120.56 50.95 120.54 50.96 120.52 50.98 120.48 51.02 120.44 51.02 120.43 51.04 120.39 51.06 120.35 51.06 120.31 51.06 120.28 51.06 120.24 51.04 120.22 51.04 120.18 51.02 116.34 48.81 116.3 48.79 116.28 48.77 116.27 48.73 116.25 48.72 116.23 48.68 116.23 48.66 116.21 48.62 116.21 48.58"/><line class="cls-3" x1="109.54" y1="44.91" x2="110.74" y2="44.22"/><line class="cls-3" x1="109.29" y1="44.76" x2="110.47" y2="44.07"/><polyline class="cls-3" points="108.79 43.67 109.03 43.82 108.79 43.97"/><polyline class="cls-3" points="108.67 44.18 109.44 44.63 110.44 44.05"/><line class="cls-3" x1="108.79" y1="43.67" x2="109.29" y2="43.39"/><line class="cls-3" x1="108.79" y1="43.39" x2="109.03" y2="43.24"/><line class="cls-3" x1="108.92" y1="43.17" x2="108.79" y2="43.24"/><line class="cls-3" x1="106.91" y1="44.12" x2="107.21" y2="44.67"/><polyline class="cls-3" points="106.28 42.81 106.28 44.12 106.59 44.29"/><line class="cls-3" x1="107.21" y1="44.67" x2="107.53" y2="44.84"/><polyline class="cls-3" points="108.79 43.11 108.79 44.12 108.47 43.94 108.17 43.39"/><polyline class="cls-3" points="108.17 43.39 107.85 43.58 107.53 43.39 107.53 42.38"/><line class="cls-3" x1="107.21" y1="44.67" x2="108.47" y2="43.94"/><line class="cls-3" x1="107.53" y1="44.84" x2="108.79" y2="44.12"/><line class="cls-3" x1="107.85" y1="43.58" x2="106.59" y2="44.29"/><line class="cls-3" x1="107.53" y1="43.39" x2="106.28" y2="44.12"/><polyline class="cls-3" points="108.77 44.42 108.83 44.4 108.86 44.39 108.92 44.37 108.96 44.35 108.67 44.18"/><polyline class="cls-3" points="108.79 43.67 109.03 43.82 108.79 43.97"/><g class="cls-4"><path class="cls-5" d="M36.16,74.91a.9.9,0,0,1,.9.9V89.28H15.51V75.81a.91.91,0,0,1,.9-.9ZM16.41,73.12a2.69,2.69,0,0,0-2.69,2.69V91.08H38.86V75.81a2.7,2.7,0,0,0-2.7-2.69ZM11.92,92H40.65A2.69,2.69,0,0,1,38,94.67H14.62a2.7,2.7,0,0,1-2.7-2.7" transform="translate(-0.76)"/><g class="cls-4"><path class="cls-6" d="M29.78,86.6H28V82.88H24.54V86.6H22.72V78h1.82v3.38H28V78h1.82Z" transform="translate(-0.76)"/></g><path class="cls-6" d="M5.22,105H4.35v-2.61H1.62V105H.76V99.33h.86v2.37H4.35V99.33h.87Z" transform="translate(-0.76)"/><path class="cls-6" d="M10,102.88a2.75,2.75,0,0,1-.15,1,2.05,2.05,0,0,1-.4.71,1.76,1.76,0,0,1-.64.43,2.24,2.24,0,0,1-.84.15,2.09,2.09,0,0,1-.81-.15,1.76,1.76,0,0,1-.64-.43,2.09,2.09,0,0,1-.42-.71,2.75,2.75,0,0,1-.15-1,2.82,2.82,0,0,1,.24-1.22,1.76,1.76,0,0,1,.7-.75A2.22,2.22,0,0,1,8,100.65a2.12,2.12,0,0,1,1,.26,1.84,1.84,0,0,1,.71.75A2.68,2.68,0,0,1,10,102.88Zm-3.18,0a2.55,2.55,0,0,0,.12.83,1.06,1.06,0,0,0,.38.53,1.11,1.11,0,0,0,.65.18,1.12,1.12,0,0,0,.66-.18,1.06,1.06,0,0,0,.38-.53,2.57,2.57,0,0,0,.12-.84,2.43,2.43,0,0,0-.13-.82,1.07,1.07,0,0,0-.37-.52,1.12,1.12,0,0,0-.66-.18,1,1,0,0,0-.88.4A2,2,0,0,0,6.79,102.88Z" transform="translate(-0.76)"/><path class="cls-6" d="M13.42,103.82a1.27,1.27,0,0,1-.2.72,1.29,1.29,0,0,1-.6.43,2.71,2.71,0,0,1-.95.15,3.58,3.58,0,0,1-.78-.07,2.72,2.72,0,0,1-.59-.19v-.75a5.41,5.41,0,0,0,.66.25,2.74,2.74,0,0,0,.74.1,1.22,1.22,0,0,0,.69-.15.47.47,0,0,0,.21-.41.5.5,0,0,0-.08-.26,1,1,0,0,0-.3-.24,6.48,6.48,0,0,0-.64-.28,5.18,5.18,0,0,1-.7-.33,1.3,1.3,0,0,1-.44-.39,1.08,1.08,0,0,1-.15-.59,1,1,0,0,1,.45-.86,2.13,2.13,0,0,1,1.2-.3,3.57,3.57,0,0,1,.74.07,4.08,4.08,0,0,1,.67.23l-.28.65a3.85,3.85,0,0,0-.57-.2,2.08,2.08,0,0,0-.6-.09,1.18,1.18,0,0,0-.59.12.38.38,0,0,0-.2.34.39.39,0,0,0,.09.26,1,1,0,0,0,.33.23l.63.27a4.39,4.39,0,0,1,.68.31,1.3,1.3,0,0,1,.44.39A1.17,1.17,0,0,1,13.42,103.82Z" transform="translate(-0.76)"/><path class="cls-6" d="M15.5,104.43a2.07,2.07,0,0,0,.35,0,1.91,1.91,0,0,0,.3-.07V105a1.66,1.66,0,0,1-.37.11,2.38,2.38,0,0,1-.46,0,1.62,1.62,0,0,1-.64-.12.91.91,0,0,1-.47-.42,1.56,1.56,0,0,1-.18-.82v-2.38h-.6V101l.63-.32.3-.91h.52v1h1.23v.65H14.88v2.36a.71.71,0,0,0,.17.52A.6.6,0,0,0,15.5,104.43Z" transform="translate(-0.76)"/><path class="cls-6" d="M20.67,100a1.87,1.87,0,0,0-.76.15,1.51,1.51,0,0,0-.57.44,1.89,1.89,0,0,0-.36.69,3.26,3.26,0,0,0-.12.92,3,3,0,0,0,.2,1.17,1.55,1.55,0,0,0,.6.75,1.73,1.73,0,0,0,1,.27,4,4,0,0,0,.71-.07q.35-.07.69-.18v.74a3.28,3.28,0,0,1-.68.19,5,5,0,0,1-.82.06,2.69,2.69,0,0,1-1.45-.36,2.18,2.18,0,0,1-.87-1,4,4,0,0,1-.29-1.56,3.7,3.7,0,0,1,.18-1.18,2.66,2.66,0,0,1,.53-.93,2.11,2.11,0,0,1,.85-.61,3.05,3.05,0,0,1,1.17-.21,4,4,0,0,1,.85.09,3.31,3.31,0,0,1,.75.26l-.32.72c-.19-.08-.39-.16-.6-.23A2.61,2.61,0,0,0,20.67,100Z" transform="translate(-0.76)"/><path class="cls-6" d="M26.52,102.88a3,3,0,0,1-.14,1,2.24,2.24,0,0,1-.41.71,1.76,1.76,0,0,1-.64.43,2.24,2.24,0,0,1-.84.15,2.09,2.09,0,0,1-.81-.15,1.76,1.76,0,0,1-.64-.43,2.26,2.26,0,0,1-.42-.71,2.75,2.75,0,0,1-.15-1,2.68,2.68,0,0,1,.25-1.22,1.64,1.64,0,0,1,.7-.75,2.16,2.16,0,0,1,1.08-.26,2.1,2.1,0,0,1,1.05.26,1.78,1.78,0,0,1,.71.75A2.68,2.68,0,0,1,26.52,102.88Zm-3.18,0a2.55,2.55,0,0,0,.12.83,1.06,1.06,0,0,0,.38.53,1.12,1.12,0,0,0,.66.18,1.11,1.11,0,0,0,.65-.18,1.06,1.06,0,0,0,.38-.53,2.57,2.57,0,0,0,.12-.84,2.2,2.2,0,0,0-.13-.82,1,1,0,0,0-.37-.52,1.12,1.12,0,0,0-.66-.18,1,1,0,0,0-.87.4A2,2,0,0,0,23.34,102.88Z" transform="translate(-0.76)"/><path class="cls-6" d="M31.94,100.65A1.44,1.44,0,0,1,33,101a1.64,1.64,0,0,1,.37,1.2V105h-.85v-2.7a1.17,1.17,0,0,0-.2-.74.72.72,0,0,0-.61-.26.92.92,0,0,0-.82.36,1.76,1.76,0,0,0-.25,1V105h-.84v-2.7a1.51,1.51,0,0,0-.09-.55.64.64,0,0,0-.27-.33.81.81,0,0,0-.46-.12.9.9,0,0,0-1,.69,2.86,2.86,0,0,0-.1.83V105h-.85v-4.31h.67l.12.57H28a1.27,1.27,0,0,1,.33-.36,1.4,1.4,0,0,1,.44-.22,1.63,1.63,0,0,1,.5-.07,1.84,1.84,0,0,1,.82.17,1.08,1.08,0,0,1,.49.52h.06a1.27,1.27,0,0,1,.58-.52A1.7,1.7,0,0,1,31.94,100.65Z" transform="translate(-0.76)"/><path class="cls-6" d="M36.38,100.65a1.58,1.58,0,0,1,1.25.56,2.56,2.56,0,0,1,.47,1.67,3.16,3.16,0,0,1-.21,1.23,1.68,1.68,0,0,1-.61.76,1.64,1.64,0,0,1-.91.25,2,2,0,0,1-.58-.08,1.42,1.42,0,0,1-.42-.23,2.13,2.13,0,0,1-.3-.3h0c0,.1,0,.21,0,.34s0,.25,0,.35V107h-.85v-6.23h.69l.12.57h0a2.33,2.33,0,0,1,.31-.32,1.22,1.22,0,0,1,.42-.24A1.68,1.68,0,0,1,36.38,100.65Zm-.2.69a1.19,1.19,0,0,0-.64.16.91.91,0,0,0-.35.46,2.78,2.78,0,0,0-.12.78v.13a3,3,0,0,0,.11.85.92.92,0,0,0,.34.52,1.13,1.13,0,0,0,.67.18.87.87,0,0,0,.59-.19,1.2,1.2,0,0,0,.34-.55,2.86,2.86,0,0,0,.11-.82,2.12,2.12,0,0,0-.25-1.11A.9.9,0,0,0,36.18,101.34Z" transform="translate(-0.76)"/><path class="cls-6" d="M42.42,100.73V105h-.68l-.12-.57h0a1.27,1.27,0,0,1-.36.37,1.33,1.33,0,0,1-.47.21,1.88,1.88,0,0,1-.53.07,2,2,0,0,1-.85-.16,1.11,1.11,0,0,1-.53-.52,1.9,1.9,0,0,1-.18-.89v-2.82h.86v2.69a1.17,1.17,0,0,0,.21.76.83.83,0,0,0,.66.24,1.25,1.25,0,0,0,.71-.17,1,1,0,0,0,.36-.52,2.76,2.76,0,0,0,.11-.82v-2.18Z" transform="translate(-0.76)"/><path class="cls-6" d="M44.82,104.43l.34,0a1.67,1.67,0,0,0,.3-.07V105a1.73,1.73,0,0,1-.36.11,2.49,2.49,0,0,1-.47,0A1.66,1.66,0,0,1,44,105a1,1,0,0,1-.47-.42,1.56,1.56,0,0,1-.18-.82v-2.38h-.6V101l.64-.32.29-.91h.52v1h1.23v.65H44.19v2.36a.71.71,0,0,0,.17.52A.61.61,0,0,0,44.82,104.43Z" transform="translate(-0.76)"/><path class="cls-6" d="M47.54,100.65a2,2,0,0,1,1,.23,1.66,1.66,0,0,1,.63.68,2.38,2.38,0,0,1,.22,1v.47h-2.9a1.46,1.46,0,0,0,.35,1,1.19,1.19,0,0,0,.93.35,3.26,3.26,0,0,0,.74-.07,3.8,3.8,0,0,0,.67-.23v.7a3.11,3.11,0,0,1-.65.22,3.68,3.68,0,0,1-.79.07,2.29,2.29,0,0,1-1.1-.25,1.73,1.73,0,0,1-.75-.74,2.49,2.49,0,0,1-.27-1.21,2.87,2.87,0,0,1,.24-1.23,1.83,1.83,0,0,1,.68-.77A1.89,1.89,0,0,1,47.54,100.65Zm0,.65a1,1,0,0,0-.73.3,1.39,1.39,0,0,0-.32.84h2a1.78,1.78,0,0,0-.1-.59.85.85,0,0,0-.32-.4A1,1,0,0,0,47.54,101.3Z" transform="translate(-0.76)"/><path class="cls-6" d="M52.07,100.65h.25l.22,0-.08.79-.21,0-.23,0a1.23,1.23,0,0,0-.46.1,1.27,1.27,0,0,0-.39.26,1.34,1.34,0,0,0-.28.42,1.48,1.48,0,0,0-.1.57V105h-.85v-4.31h.68l.11.77h0a2,2,0,0,1,.33-.43,1.52,1.52,0,0,1,.44-.31A1.33,1.33,0,0,1,52.07,100.65Z" transform="translate(-0.76)"/></g><path id="路径_1" data-name="路径 1" class="cls-7" d="M62.76,91v.41H59.87a1.24,1.24,0,0,0-1.24,1.24v4.12A1.24,1.24,0,0,0,59.87,98h2.89v.41a.83.83,0,0,0,.83.83h9.9a.83.83,0,0,0,.82-.83V96.76H76a.83.83,0,0,0,.83-.82V93.46a.83.83,0,0,0-.83-.82H74.31V91a.83.83,0,0,0-.82-.83h-9.9A.83.83,0,0,0,62.76,91Zm13.2,5H74.31V93.46H76Zm-13.2-3.72v5H59.87a.41.41,0,0,1-.41-.42V92.64a.41.41,0,0,1,.41-.42Z" transform="translate(-0.76)"/><path id="路径_1-2" data-name="路径 1" class="cls-7" d="M121.49,63h-.41V60.09a1.23,1.23,0,0,0-1.24-1.24h-4.12a1.24,1.24,0,0,0-1.24,1.24V63h-.41a.83.83,0,0,0-.83.83v9.9a.83.83,0,0,0,.83.83h1.65v1.65a.82.82,0,0,0,.82.82H119a.82.82,0,0,0,.82-.82V74.53h1.65a.83.83,0,0,0,.83-.83V63.8A.83.83,0,0,0,121.49,63Zm-4.95,13.21V74.53H119v1.65ZM120.26,63h-5V60.09a.41.41,0,0,1,.41-.42h4.12a.42.42,0,0,1,.42.42V63Z" transform="translate(-0.76)"/><g class="cls-8"><rect class="cls-9" x="57.63" y="60.66" width="59.35" height="34.07" rx="15.02"/></g></g></g></svg>