<svg xmlns="http://www.w3.org/2000/svg" viewBox="0 0 412.99 103.98"><defs><style>.cls-1,.cls-2,.cls-6,.cls-7{fill:#fff;}.cls-2,.cls-3,.cls-5,.cls-7{isolation:isolate;}.cls-11,.cls-4,.cls-5{fill:#f36b21;}.cls-4,.cls-6,.cls-7{fill-rule:evenodd;}.cls-10,.cls-11,.cls-8,.cls-9{stroke:#000;stroke-width:0.5px;}.cls-8{stroke-miterlimit:10;}.cls-12,.cls-9{fill:none;}.cls-10,.cls-11,.cls-9{stroke-linecap:round;stroke-linejoin:round;}.cls-10{fill:#4f4f50;}</style></defs><g id="Layer_2" data-name="Layer 2"><g id="Layer_1-2" data-name="Layer 1"><path class="cls-1" d="M23.48,81h-1V77.89H19.15V81h-1V74.16h1V77h3.29V74.16h1Z"/><path class="cls-1" d="M29.77,78.43a3.66,3.66,0,0,1-.17,1.15,2.53,2.53,0,0,1-.49.85,2.06,2.06,0,0,1-.77.52,2.71,2.71,0,0,1-1,.18,2.59,2.59,0,0,1-1-.18,2.1,2.1,0,0,1-.76-.52,2.57,2.57,0,0,1-.51-.85A3.8,3.8,0,0,1,25.19,77a2.08,2.08,0,0,1,.85-.91,2.57,2.57,0,0,1,1.31-.31,2.44,2.44,0,0,1,1.25.31,2.16,2.16,0,0,1,.86.91A3.12,3.12,0,0,1,29.77,78.43Zm-3.82,0a3.26,3.26,0,0,0,.14,1,1.28,1.28,0,0,0,.46.64,1.3,1.3,0,0,0,.79.22,1.32,1.32,0,0,0,.79-.22,1.33,1.33,0,0,0,.45-.64,3.28,3.28,0,0,0,.14-1,2.87,2.87,0,0,0-.15-1,1.32,1.32,0,0,0-.45-.62,1.37,1.37,0,0,0-.79-.22,1.19,1.19,0,0,0-1,.49A2.36,2.36,0,0,0,26,78.43Z"/><path class="cls-1" d="M34.51,79.57a1.41,1.41,0,0,1-.25.86,1.57,1.57,0,0,1-.72.52,3.25,3.25,0,0,1-1.14.18,5,5,0,0,1-.94-.08,3.8,3.8,0,0,1-.72-.24v-.89a6.15,6.15,0,0,0,.8.29,3.14,3.14,0,0,0,.89.13,1.48,1.48,0,0,0,.83-.18.59.59,0,0,0,.26-.49.6.6,0,0,0-.1-.32,1,1,0,0,0-.36-.29,6.5,6.5,0,0,0-.78-.34,7.22,7.22,0,0,1-.83-.4,1.53,1.53,0,0,1-.53-.47,1.27,1.27,0,0,1-.19-.71,1.17,1.17,0,0,1,.55-1,2.56,2.56,0,0,1,1.44-.36,4.26,4.26,0,0,1,.89.09,3.85,3.85,0,0,1,.81.27l-.34.78a7,7,0,0,0-.69-.24,2.55,2.55,0,0,0-.72-.1,1.33,1.33,0,0,0-.7.14.45.45,0,0,0-.24.41.44.44,0,0,0,.11.31,1.08,1.08,0,0,0,.39.27c.18.09.44.2.76.33a5.79,5.79,0,0,1,.82.38,1.32,1.32,0,0,1,.52.47A1.27,1.27,0,0,1,34.51,79.57Z"/><path class="cls-1" d="M37.59,80.3a2,2,0,0,0,.41,0,2.61,2.61,0,0,0,.37-.08V81a2.36,2.36,0,0,1-.44.13,3.64,3.64,0,0,1-.56,0,2.16,2.16,0,0,1-.78-.14,1.2,1.2,0,0,1-.56-.51,1.92,1.92,0,0,1-.21-1V76.62H35.1v-.46l.76-.38.35-1.1h.63v1.16h1.48v.78H36.84v2.85a.88.88,0,0,0,.2.63A.77.77,0,0,0,37.59,80.3Z"/><path class="cls-1" d="M45,75a2.21,2.21,0,0,0-.91.18,1.86,1.86,0,0,0-.69.52,2.38,2.38,0,0,0-.43.84,3.82,3.82,0,0,0-.15,1.11A3.73,3.73,0,0,0,43,79a2,2,0,0,0,.72.91,2.18,2.18,0,0,0,1.21.31,4,4,0,0,0,.86-.08,6.73,6.73,0,0,0,.83-.21v.89a4.87,4.87,0,0,1-.83.23,5.7,5.7,0,0,1-1,.07,3.27,3.27,0,0,1-1.75-.43,2.65,2.65,0,0,1-1-1.24,4.64,4.64,0,0,1-.35-1.86,4.33,4.33,0,0,1,.22-1.43A3.12,3.12,0,0,1,42.54,75a2.7,2.7,0,0,1,1-.72A3.65,3.65,0,0,1,45,74.06a4.9,4.9,0,0,1,1,.11,3.9,3.9,0,0,1,.91.32l-.39.86a6,6,0,0,0-.72-.27A2.82,2.82,0,0,0,45,75Z"/><path class="cls-1" d="M52.58,78.43a3.39,3.39,0,0,1-.18,1.15,2.24,2.24,0,0,1-.49.85,2,2,0,0,1-.77.52,2.71,2.71,0,0,1-1,.18,2.58,2.58,0,0,1-1-.18,2.23,2.23,0,0,1-.77-.52,2.55,2.55,0,0,1-.5-.85,3.39,3.39,0,0,1-.18-1.15A3.25,3.25,0,0,1,48,77a2.12,2.12,0,0,1,.84-.91,2.59,2.59,0,0,1,1.31-.31,2.45,2.45,0,0,1,1.26.31,2.23,2.23,0,0,1,.86.91A3.25,3.25,0,0,1,52.58,78.43Zm-3.82,0a3,3,0,0,0,.14,1,1.33,1.33,0,0,0,.45.64,1.32,1.32,0,0,0,.79.22,1.3,1.3,0,0,0,.79-.22,1.21,1.21,0,0,0,.45-.64,3,3,0,0,0,.15-1,2.87,2.87,0,0,0-.15-1,1.32,1.32,0,0,0-.45-.62,1.4,1.4,0,0,0-.8-.22,1.19,1.19,0,0,0-1.05.49A2.45,2.45,0,0,0,48.76,78.43Z"/><path class="cls-1" d="M59.68,75.75A1.76,1.76,0,0,1,61,76.2a2,2,0,0,1,.44,1.45V81h-1V77.78a1.41,1.41,0,0,0-.23-.89.88.88,0,0,0-.74-.3,1.13,1.13,0,0,0-1,.42,2.16,2.16,0,0,0-.3,1.24V81h-1V77.79a1.88,1.88,0,0,0-.11-.67.85.85,0,0,0-.32-.4,1,1,0,0,0-.55-.13,1.23,1.23,0,0,0-.76.21,1.11,1.11,0,0,0-.4.61,3.6,3.6,0,0,0-.12,1V81h-1V75.84h.81l.14.7h.06a1.58,1.58,0,0,1,.4-.45,2,2,0,0,1,.52-.26,2.41,2.41,0,0,1,.6-.08,2.27,2.27,0,0,1,1,.2,1.23,1.23,0,0,1,.59.64h.08a1.43,1.43,0,0,1,.69-.64A2.29,2.29,0,0,1,59.68,75.75Z"/><path class="cls-1" d="M65.59,75.75a1.87,1.87,0,0,1,1.51.67,3.05,3.05,0,0,1,.57,2,3.68,3.68,0,0,1-.26,1.49,2,2,0,0,1-.73.91,2,2,0,0,1-1.1.3,2.09,2.09,0,0,1-.69-.1,1.58,1.58,0,0,1-.5-.27A2.53,2.53,0,0,1,64,80.4H64a3.79,3.79,0,0,1,0,.41,3.1,3.1,0,0,1,0,.42v2.11H63v-7.5h.83l.15.7h0a2.79,2.79,0,0,1,.37-.4,1.58,1.58,0,0,1,.51-.29A2.09,2.09,0,0,1,65.59,75.75Zm-.24.84a1.44,1.44,0,0,0-.77.18,1.1,1.1,0,0,0-.42.56,3.39,3.39,0,0,0-.14.94v.15a3.72,3.72,0,0,0,.13,1,1.11,1.11,0,0,0,.42.63,1.27,1.27,0,0,0,.8.22,1.08,1.08,0,0,0,.71-.23,1.46,1.46,0,0,0,.41-.66,3.3,3.3,0,0,0,.13-1,2.52,2.52,0,0,0-.3-1.33A1.06,1.06,0,0,0,65.35,76.59Z"/><path class="cls-1" d="M73.44,75.84V81h-.82l-.14-.68h0a1.29,1.29,0,0,1-.43.44,1.91,1.91,0,0,1-.56.26,2.74,2.74,0,0,1-.64.08,2.41,2.41,0,0,1-1-.2,1.4,1.4,0,0,1-.64-.61,2.41,2.41,0,0,1-.22-1.08v-3.4h1v3.25a1.36,1.36,0,0,0,.26.9,1,1,0,0,0,.79.3,1.48,1.48,0,0,0,.85-.21,1.14,1.14,0,0,0,.44-.62,3.17,3.17,0,0,0,.13-1V75.84Z"/><path class="cls-1" d="M76.9,80.3a2,2,0,0,0,.42,0,2.45,2.45,0,0,0,.36-.08V81a2,2,0,0,1-.44.13,3.43,3.43,0,0,1-.56,0,2.11,2.11,0,0,1-.77-.14,1.15,1.15,0,0,1-.56-.51,1.82,1.82,0,0,1-.22-1V76.62h-.72v-.46l.76-.38.36-1.1h.62v1.16h1.49v.78H76.15v2.85a.84.84,0,0,0,.21.63A.77.77,0,0,0,76.9,80.3Z"/><path class="cls-1" d="M80.77,75.75a2.3,2.3,0,0,1,1.17.28,1.89,1.89,0,0,1,.76.82A2.81,2.81,0,0,1,83,78.1v.56H79.47a1.84,1.84,0,0,0,.42,1.22A1.49,1.49,0,0,0,81,80.3a4,4,0,0,0,.89-.09,4.71,4.71,0,0,0,.8-.27v.84a3.4,3.4,0,0,1-.78.26,4.44,4.44,0,0,1-1,.09,2.83,2.83,0,0,1-1.33-.3,2.09,2.09,0,0,1-.9-.89,3,3,0,0,1-.32-1.46A3.31,3.31,0,0,1,78.72,77a2.08,2.08,0,0,1,.82-.93A2.35,2.35,0,0,1,80.77,75.75Zm0,.79a1.2,1.2,0,0,0-.89.35,1.69,1.69,0,0,0-.39,1h2.45a1.76,1.76,0,0,0-.13-.71,1.06,1.06,0,0,0-.38-.48A1.14,1.14,0,0,0,80.77,76.54Z"/><path class="cls-1" d="M86.79,75.75h.3l.27,0-.11,1a1.37,1.37,0,0,0-.25,0l-.27,0a1.5,1.5,0,0,0-.55.11,1.48,1.48,0,0,0-.81.82,1.85,1.85,0,0,0-.12.69V81h-1V75.84H85l.13.93h0a2.2,2.2,0,0,1,.4-.51,1.64,1.64,0,0,1,.53-.37A1.41,1.41,0,0,1,86.79,75.75Z"/><path class="cls-1" d="M27,89.7h-.6V87.45H23.89V89.7h-.61V84.89h.61v2h2.47v-2H27Z"/><path class="cls-1" d="M31.34,87.88a2.41,2.41,0,0,1-.12.8,1.63,1.63,0,0,1-.34.59,1.34,1.34,0,0,1-.53.37,1.94,1.94,0,0,1-.7.12,1.76,1.76,0,0,1-.66-.12,1.38,1.38,0,0,1-.52-.37,1.65,1.65,0,0,1-.35-.59,2.39,2.39,0,0,1-.13-.8,2.22,2.22,0,0,1,.21-1,1.32,1.32,0,0,1,.58-.63,1.7,1.7,0,0,1,.89-.22,1.66,1.66,0,0,1,.87.22,1.42,1.42,0,0,1,.58.63A2.09,2.09,0,0,1,31.34,87.88Zm-2.73,0a2.06,2.06,0,0,0,.11.74.92.92,0,0,0,.35.48.93.93,0,0,0,.6.17.91.91,0,0,0,.94-.65,2.06,2.06,0,0,0,.11-.74,2.24,2.24,0,0,0-.11-.73.92.92,0,0,0-.95-.63.89.89,0,0,0-.8.36A1.72,1.72,0,0,0,28.61,87.88Z"/><path class="cls-1" d="M34.63,88.7a1,1,0,0,1-.18.59,1.1,1.1,0,0,1-.5.35,2.18,2.18,0,0,1-.77.12,3.06,3.06,0,0,1-.65-.06,1.7,1.7,0,0,1-.48-.17V89a4.78,4.78,0,0,0,.52.2,2.28,2.28,0,0,0,.63.09,1.09,1.09,0,0,0,.65-.15.44.44,0,0,0,.2-.39.4.4,0,0,0-.07-.24.79.79,0,0,0-.27-.21,3.29,3.29,0,0,0-.55-.25,5.84,5.84,0,0,1-.6-.27,1.1,1.1,0,0,1-.38-.32A.84.84,0,0,1,32,87a.79.79,0,0,1,.38-.7,1.7,1.7,0,0,1,1-.25,3.11,3.11,0,0,1,.62.06,2.37,2.37,0,0,1,.53.18l-.2.47a3.38,3.38,0,0,0-.48-.16,2.24,2.24,0,0,0-.51-.07,1.08,1.08,0,0,0-.56.12.36.36,0,0,0-.19.32.37.37,0,0,0,.09.25.9.9,0,0,0,.29.21l.55.23a4.15,4.15,0,0,1,.59.26,1.08,1.08,0,0,1,.37.33A.9.9,0,0,1,34.63,88.7Z"/><path class="cls-1" d="M36.71,89.28l.27,0,.23-.06v.46a1,1,0,0,1-.27.07l-.33,0a1.51,1.51,0,0,1-.53-.09.83.83,0,0,1-.38-.34,1.32,1.32,0,0,1-.15-.68V86.54H35v-.28l.52-.24.23-.76h.35v.82h1v.46h-1v2.09a.64.64,0,0,0,.16.49A.54.54,0,0,0,36.71,89.28Z"/><path class="cls-1" d="M42.79,89.7l-.58-1.49H40.3l-.57,1.49h-.62L41,84.86h.55l1.87,4.84Zm-1.3-3.49a1.15,1.15,0,0,1-.07-.19c0-.1-.06-.19-.09-.3s-.06-.17-.07-.23a2.68,2.68,0,0,0-.07.27c0,.1,0,.18-.08.26s0,.14-.06.19l-.55,1.46H42Z"/><path class="cls-1" d="M45.71,86a1.37,1.37,0,0,1,1.08.46,2.09,2.09,0,0,1,.4,1.4,2.66,2.66,0,0,1-.18,1,1.43,1.43,0,0,1-.52.63,1.46,1.46,0,0,1-.79.21,1.53,1.53,0,0,1-.49-.07,1.43,1.43,0,0,1-.37-.19,1.52,1.52,0,0,1-.25-.26h-.05c0,.08,0,.17,0,.29s0,.22,0,.3v1.48H44V86.08h.49l.08.5h0a1.37,1.37,0,0,1,.25-.29,1.46,1.46,0,0,1,.37-.2A1.51,1.51,0,0,1,45.71,86Zm-.11.5a1.08,1.08,0,0,0-.58.13.82.82,0,0,0-.33.42,2.26,2.26,0,0,0-.1.7v.11a2.78,2.78,0,0,0,.09.76.85.85,0,0,0,.32.47,1,1,0,0,0,.62.16.8.8,0,0,0,.54-.18,1.13,1.13,0,0,0,.32-.49,2.61,2.61,0,0,0,.1-.72,1.77,1.77,0,0,0-.24-1A.82.82,0,0,0,45.6,86.52Z"/><path class="cls-1" d="M49.85,86a1.36,1.36,0,0,1,1.08.46,2.09,2.09,0,0,1,.41,1.4,2.48,2.48,0,0,1-.19,1,1.31,1.31,0,0,1-.52.63,1.42,1.42,0,0,1-.78.21,1.45,1.45,0,0,1-.49-.07A1.17,1.17,0,0,1,49,89.5a1.6,1.6,0,0,1-.26-.26h0c0,.08,0,.17,0,.29s0,.22,0,.3v1.48h-.59V86.08h.48l.08.5h0a1.42,1.42,0,0,1,.26-.29,1.25,1.25,0,0,1,.36-.2A1.51,1.51,0,0,1,49.85,86Zm-.1.5a1.12,1.12,0,0,0-.59.13.76.76,0,0,0-.32.42,2,2,0,0,0-.11.7v.11a2.78,2.78,0,0,0,.09.76.9.9,0,0,0,.32.47,1,1,0,0,0,.62.16.8.8,0,0,0,.54-.18,1.13,1.13,0,0,0,.32-.49,2.28,2.28,0,0,0,.1-.72,1.86,1.86,0,0,0-.23-1A.82.82,0,0,0,49.75,86.52Z"/><path class="cls-1" d="M55.44,84.89a2.79,2.79,0,0,1,1,.15,1.09,1.09,0,0,1,.57.45,1.38,1.38,0,0,1,.19.76,1.24,1.24,0,0,1-.14.64,1.1,1.1,0,0,1-.36.41,2,2,0,0,1-.46.24l1.32,2.16h-.71l-1.16-2h-1v2h-.61V84.89Zm0,.52h-.69V87.2h.72A1.28,1.28,0,0,0,56.3,87a.84.84,0,0,0,.27-.68.82.82,0,0,0-.13-.5.7.7,0,0,0-.38-.28A2,2,0,0,0,55.41,85.41Z"/><path class="cls-1" d="M59.62,86a1.46,1.46,0,0,1,.8.2,1.29,1.29,0,0,1,.51.57,1.91,1.91,0,0,1,.18.86V88H58.64a1.32,1.32,0,0,0,.31.93,1.11,1.11,0,0,0,.84.32,2.8,2.8,0,0,0,.61-.06A4.5,4.5,0,0,0,61,89v.52a3.2,3.2,0,0,1-.55.18,3.87,3.87,0,0,1-.64.05,1.93,1.93,0,0,1-.91-.2,1.49,1.49,0,0,1-.61-.63,2.19,2.19,0,0,1-.22-1,2.41,2.41,0,0,1,.2-1,1.49,1.49,0,0,1,.56-.65A1.47,1.47,0,0,1,59.62,86Zm0,.48a.85.85,0,0,0-.67.28,1.28,1.28,0,0,0-.29.75h1.84a1.33,1.33,0,0,0-.1-.54.77.77,0,0,0-.28-.36A1,1,0,0,0,59.61,86.5Z"/><path class="cls-1" d="M64.43,89.77c0-.08,0-.17,0-.28a2.16,2.16,0,0,1,0-.28h0a1.32,1.32,0,0,1-.42.39,1.38,1.38,0,0,1-.71.16,1.34,1.34,0,0,1-1.06-.46,2.11,2.11,0,0,1-.41-1.4,2.61,2.61,0,0,1,.19-1,1.39,1.39,0,0,1,.53-.63,1.41,1.41,0,0,1,.77-.21,1.32,1.32,0,0,1,.7.16,1.38,1.38,0,0,1,.43.4h0l.09-.5H65v5.23h-.59Zm-1-.5a1.15,1.15,0,0,0,.59-.13.78.78,0,0,0,.33-.42,2.21,2.21,0,0,0,.11-.69V87.9a2,2,0,0,0-.23-1,.91.91,0,0,0-.82-.35.8.8,0,0,0-.72.38,2,2,0,0,0-.23,1,1.78,1.78,0,0,0,.24,1A.8.8,0,0,0,63.41,89.27Z"/><path class="cls-1" d="M69.19,86.08V89.7H68.7l-.08-.48h0a1.11,1.11,0,0,1-.3.31,1.32,1.32,0,0,1-.4.18,2.14,2.14,0,0,1-.45.05,1.72,1.72,0,0,1-.72-.13,1,1,0,0,1-.44-.43,1.61,1.61,0,0,1-.15-.75V86.08h.6v2.33a1,1,0,0,0,.19.65.82.82,0,0,0,.61.21,1.19,1.19,0,0,0,.64-.15.88.88,0,0,0,.33-.44,2.48,2.48,0,0,0,.1-.71V86.08Z"/><path class="cls-1" d="M70.64,84.73a.36.36,0,0,1,.24.09.37.37,0,0,1,.1.29.36.36,0,0,1-.1.28.37.37,0,0,1-.24.1.37.37,0,0,1-.25-.1.36.36,0,0,1-.1-.28.33.33,0,0,1,.35-.38Zm.29,1.35V89.7h-.6V86.08Z"/><path class="cls-1" d="M73.76,86H74a.6.6,0,0,1,.2,0l-.07.54-.19,0h-.2a1.1,1.1,0,0,0-.4.08,1,1,0,0,0-.34.25,1.21,1.21,0,0,0-.23.38,1.35,1.35,0,0,0-.08.5V89.7h-.6V86.08h.49l.07.67h0a1.72,1.72,0,0,1,.28-.37,1.41,1.41,0,0,1,.37-.27A1.14,1.14,0,0,1,73.76,86Z"/><path class="cls-1" d="M76.12,86a1.43,1.43,0,0,1,.79.2,1.25,1.25,0,0,1,.52.57,1.91,1.91,0,0,1,.18.86V88H75.13a1.37,1.37,0,0,0,.32.93,1.11,1.11,0,0,0,.84.32,2.71,2.71,0,0,0,.6-.06,4,4,0,0,0,.55-.19v.52a2.85,2.85,0,0,1-.54.18,3.87,3.87,0,0,1-.64.05,1.91,1.91,0,0,1-.91-.2,1.43,1.43,0,0,1-.61-.63,2.07,2.07,0,0,1-.22-1,2.41,2.41,0,0,1,.2-1,1.49,1.49,0,0,1,.56-.65A1.47,1.47,0,0,1,76.12,86Zm0,.48a.83.83,0,0,0-.67.28,1.28,1.28,0,0,0-.29.75H77a1.53,1.53,0,0,0-.1-.54.84.84,0,0,0-.28-.36A1,1,0,0,0,76.11,86.5Z"/><path class="cls-1" d="M79.8,89.76a1.36,1.36,0,0,1-1.08-.46,2.11,2.11,0,0,1-.4-1.4,2.14,2.14,0,0,1,.41-1.41A1.36,1.36,0,0,1,79.81,86a1.38,1.38,0,0,1,.86.26,1.33,1.33,0,0,1,.26.27h0c0-.06,0-.14,0-.26a1.48,1.48,0,0,1,0-.27V84.58h.59V89.7H81L81,89.21h0a1.16,1.16,0,0,1-.26.28,1.46,1.46,0,0,1-.37.2A1.51,1.51,0,0,1,79.8,89.76Zm.1-.49a.92.92,0,0,0,.8-.31,1.57,1.57,0,0,0,.23-.95V87.9a2,2,0,0,0-.22-1,.89.89,0,0,0-.82-.36.8.8,0,0,0-.72.38,1.88,1.88,0,0,0-.24,1,1.82,1.82,0,0,0,.24,1A.83.83,0,0,0,79.9,89.27Z"/><path class="cls-1" d="M329.5,81h-1.23V75.2h-2v-1h5.18v1h-2Z"/><path class="cls-1" d="M333.72,75.72a2.29,2.29,0,0,1,1.53.44,1.69,1.69,0,0,1,.53,1.37V81h-.86l-.24-.72h0a2.94,2.94,0,0,1-.46.47,1.52,1.52,0,0,1-.54.27,3,3,0,0,1-.73.08,2.07,2.07,0,0,1-.84-.17,1.37,1.37,0,0,1-.58-.54,1.78,1.78,0,0,1-.21-.91,1.4,1.4,0,0,1,.59-1.22,3.37,3.37,0,0,1,1.8-.44l.9,0v-.26a.89.89,0,0,0-.24-.71.93.93,0,0,0-.67-.22,2.37,2.37,0,0,0-.76.12c-.25.08-.48.17-.72.27l-.38-.85a4.75,4.75,0,0,1,.88-.33A4.42,4.42,0,0,1,333.72,75.72Zm.22,2.87a2,2,0,0,0-1.11.27.81.81,0,0,0-.31.66.63.63,0,0,0,.22.53.94.94,0,0,0,.57.16,1.4,1.4,0,0,0,.9-.3,1.1,1.1,0,0,0,.36-.9v-.44Z"/><path class="cls-1" d="M340,75.72h.27l.26,0-.11,1.12-.22,0H340a1.71,1.71,0,0,0-.55.09,1.37,1.37,0,0,0-.47.27,1.17,1.17,0,0,0-.33.45,1.71,1.71,0,0,0-.12.67V81H337.3V75.82h.93l.17.9h.06a2.1,2.1,0,0,1,.39-.51,1.77,1.77,0,0,1,.53-.36A1.57,1.57,0,0,1,340,75.72Z"/><path class="cls-1" d="M343.18,75.72a1.93,1.93,0,0,1,.88.19,1.69,1.69,0,0,1,.67.58h0l.11-.67h1v5.25a2.51,2.51,0,0,1-.28,1.25,1.71,1.71,0,0,1-.83.76,3.24,3.24,0,0,1-1.4.26,6.58,6.58,0,0,1-1-.07,4.59,4.59,0,0,1-.9-.24V82a5,5,0,0,0,1,.3,5.22,5.22,0,0,0,1.06.11,1.16,1.16,0,0,0,.91-.34,1.34,1.34,0,0,0,.31-1V81c0-.09,0-.2,0-.33s0-.23,0-.31h0a1.65,1.65,0,0,1-.65.59,2,2,0,0,1-.89.19,1.77,1.77,0,0,1-1.49-.71,3.25,3.25,0,0,1-.54-2,3.2,3.2,0,0,1,.55-2A1.79,1.79,0,0,1,343.18,75.72Zm.32,1a1,1,0,0,0-.63.2,1.18,1.18,0,0,0-.38.58,3,3,0,0,0-.13,1,2.33,2.33,0,0,0,.29,1.28,1,1,0,0,0,.87.44,1.51,1.51,0,0,0,.55-.09.79.79,0,0,0,.38-.26,1.31,1.31,0,0,0,.23-.49,2.81,2.81,0,0,0,.08-.7v-.19a3,3,0,0,0-.14-1,1,1,0,0,0-.41-.56A1.36,1.36,0,0,0,343.5,76.71Z"/><path class="cls-1" d="M349.55,75.72a2.43,2.43,0,0,1,1.21.28,1.91,1.91,0,0,1,.78.81,2.66,2.66,0,0,1,.28,1.28v.61h-3.44a1.59,1.59,0,0,0,.39,1.11,1.38,1.38,0,0,0,1,.39,3.6,3.6,0,0,0,.91-.11,4,4,0,0,0,.82-.29v1a2.84,2.84,0,0,1-.79.27,4.81,4.81,0,0,1-1,.09,3.11,3.11,0,0,1-1.35-.29,2.19,2.19,0,0,1-.92-.89,3.07,3.07,0,0,1-.34-1.49,3.36,3.36,0,0,1,.31-1.5,2.12,2.12,0,0,1,.84-.93A2.45,2.45,0,0,1,349.55,75.72Zm0,.89a1,1,0,0,0-.78.32,1.42,1.42,0,0,0-.36.93h2.24a1.64,1.64,0,0,0-.12-.65,1,1,0,0,0-.36-.44A1.16,1.16,0,0,0,349.55,76.61Z"/><path class="cls-1" d="M355.07,80.16a2.12,2.12,0,0,0,.44,0l.4-.1v.91a2.24,2.24,0,0,1-.51.15,3.31,3.31,0,0,1-.64.06A2,2,0,0,1,354,81a1.13,1.13,0,0,1-.58-.52,1.93,1.93,0,0,1-.22-1V76.73h-.7V76.2l.77-.42.38-1.11h.76v1.15h1.49v.91h-1.49v2.71a.66.66,0,0,0,.7.72Z"/><path class="cls-1" d="M365.2,77.53a3.91,3.91,0,0,1-.44,1.93,2.93,2.93,0,0,1-1.26,1.18,4.62,4.62,0,0,1-2,.39h-1.94V74.16h2.14a4.24,4.24,0,0,1,1.85.38,2.83,2.83,0,0,1,1.21,1.14A3.7,3.7,0,0,1,365.2,77.53Zm-1.29,0a3.25,3.25,0,0,0-.25-1.35,1.67,1.67,0,0,0-.75-.78,2.42,2.42,0,0,0-1.2-.26h-.9V80h.74a2.33,2.33,0,0,0,1.77-.61A2.54,2.54,0,0,0,363.91,77.57Z"/><path class="cls-1" d="M368.64,75.72a2.43,2.43,0,0,1,1.21.28,1.91,1.91,0,0,1,.78.81,2.66,2.66,0,0,1,.28,1.28v.61h-3.44a1.59,1.59,0,0,0,.39,1.11,1.38,1.38,0,0,0,1,.39,3.6,3.6,0,0,0,.91-.11,4,4,0,0,0,.82-.29v1a2.84,2.84,0,0,1-.79.27,4.81,4.81,0,0,1-1,.09,3.11,3.11,0,0,1-1.35-.29,2.19,2.19,0,0,1-.92-.89,3.07,3.07,0,0,1-.33-1.49,3.37,3.37,0,0,1,.3-1.5,2.12,2.12,0,0,1,.84-.93A2.45,2.45,0,0,1,368.64,75.72Zm0,.89a1,1,0,0,0-.78.32,1.53,1.53,0,0,0-.36.93h2.24a1.64,1.64,0,0,0-.12-.65,1,1,0,0,0-.36-.44A1.16,1.16,0,0,0,368.64,76.61Z"/><path class="cls-1" d="M373.15,81l-2-5.21h1.28l1,3a3.14,3.14,0,0,1,.13.4c0,.14.07.28.1.42a1.81,1.81,0,0,1,.05.36h0a3.35,3.35,0,0,1,.07-.37c0-.14.07-.28.11-.42s.08-.27.12-.39l1-3h1.28l-2,5.21Z"/><path class="cls-1" d="M377.81,73.8a.84.84,0,0,1,.47.14.59.59,0,0,1,.2.5.58.58,0,0,1-.2.49.78.78,0,0,1-.47.15.73.73,0,0,1-.48-.15.58.58,0,0,1-.2-.49.59.59,0,0,1,.2-.5A.78.78,0,0,1,377.81,73.8Zm.6,2V81H377.2V75.82Z"/><path class="cls-1" d="M382.07,81.13a2.84,2.84,0,0,1-1.28-.28A1.89,1.89,0,0,1,380,80a3.38,3.38,0,0,1-.29-1.52,3.23,3.23,0,0,1,.32-1.56,2,2,0,0,1,.89-.89,2.86,2.86,0,0,1,1.3-.28,3.25,3.25,0,0,1,.87.1,3,3,0,0,1,.66.23l-.36,1c-.2-.08-.4-.14-.59-.2a2.45,2.45,0,0,0-.58-.08,1.25,1.25,0,0,0-.72.19,1.11,1.11,0,0,0-.42.58,2.87,2.87,0,0,0-.13,1,2.55,2.55,0,0,0,.14.94,1.1,1.1,0,0,0,.41.56,1.2,1.2,0,0,0,.7.19,2.67,2.67,0,0,0,.78-.11,2.56,2.56,0,0,0,.63-.29v1a2.13,2.13,0,0,1-.64.27A4,4,0,0,1,382.07,81.13Z"/><path class="cls-1" d="M386.88,75.72a2.41,2.41,0,0,1,1.21.28,2,2,0,0,1,.79.81,2.78,2.78,0,0,1,.28,1.28v.61h-3.45a1.55,1.55,0,0,0,.4,1.11,1.36,1.36,0,0,0,1,.39,3.49,3.49,0,0,0,.91-.11,4.11,4.11,0,0,0,.83-.29v1a3,3,0,0,1-.8.27,4.78,4.78,0,0,1-1,.09,3.12,3.12,0,0,1-1.36-.29,2.19,2.19,0,0,1-.92-.89,3.07,3.07,0,0,1-.33-1.49,3.37,3.37,0,0,1,.3-1.5,2.12,2.12,0,0,1,.84-.93A2.45,2.45,0,0,1,386.88,75.72Zm0,.89a1,1,0,0,0-.78.32,1.53,1.53,0,0,0-.36.93H388a1.64,1.64,0,0,0-.12-.65,1,1,0,0,0-.36-.44A1.14,1.14,0,0,0,386.88,76.61Z"/><path class="cls-1" d="M317,89.7l-.58-1.49H314.5l-.57,1.49h-.61l1.88-4.84h.54l1.87,4.84Zm-1.3-3.49a1.15,1.15,0,0,1-.07-.19l-.09-.3-.07-.23c0,.09,0,.18-.07.27s-.05.18-.08.26,0,.14-.06.19l-.55,1.46h1.53Z"/><path class="cls-1" d="M319.91,86a1.36,1.36,0,0,1,1.08.46,2.09,2.09,0,0,1,.41,1.4,2.65,2.65,0,0,1-.19,1,1.37,1.37,0,0,1-.52.63,1.42,1.42,0,0,1-.78.21,1.55,1.55,0,0,1-.5-.07,1.23,1.23,0,0,1-.36-.19,1.6,1.6,0,0,1-.26-.26h0c0,.08,0,.17,0,.29s0,.22,0,.3v1.48h-.6V86.08h.49l.08.5h0a1.42,1.42,0,0,1,.26-.29,1.25,1.25,0,0,1,.36-.2A1.51,1.51,0,0,1,319.91,86Zm-.1.5a1.12,1.12,0,0,0-.59.13.82.82,0,0,0-.33.42,2.26,2.26,0,0,0-.1.7v.11a2.78,2.78,0,0,0,.09.76.85.85,0,0,0,.32.47,1,1,0,0,0,.62.16.8.8,0,0,0,.54-.18,1.13,1.13,0,0,0,.32-.49,2.28,2.28,0,0,0,.1-.72,1.77,1.77,0,0,0-.24-1A.8.8,0,0,0,319.81,86.52Z"/><path class="cls-1" d="M324.06,86a1.35,1.35,0,0,1,1.07.46,2.09,2.09,0,0,1,.41,1.4,2.48,2.48,0,0,1-.19,1,1.35,1.35,0,0,1-.51.63,1.65,1.65,0,0,1-1.28.14,1.17,1.17,0,0,1-.37-.19,1.6,1.6,0,0,1-.26-.26h0c0,.08,0,.17,0,.29s0,.22,0,.3v1.48h-.59V86.08h.48l.08.5h0a1.42,1.42,0,0,1,.26-.29,1.18,1.18,0,0,1,.37-.2A1.47,1.47,0,0,1,324.06,86Zm-.11.5a1.15,1.15,0,0,0-.59.13.81.81,0,0,0-.32.42,2.23,2.23,0,0,0-.11.7v.11a2.41,2.41,0,0,0,.1.76.85.85,0,0,0,.32.47,1,1,0,0,0,.61.16.85.85,0,0,0,.55-.18,1.12,1.12,0,0,0,.31-.49,2.27,2.27,0,0,0,.11-.72,1.77,1.77,0,0,0-.24-1A.82.82,0,0,0,324,86.52Z"/><path class="cls-1" d="M326.18,88.15v-.52h1.63v.52Z"/><path class="cls-1" d="M330.32,86.54h-.91V89.7h-.6V86.54h-.63v-.27l.63-.2v-.21a1.81,1.81,0,0,1,.14-.76,1,1,0,0,1,.4-.42,1.41,1.41,0,0,1,.64-.14,1.61,1.61,0,0,1,.39,0,2,2,0,0,1,.31.08l-.16.47-.25-.07a1.36,1.36,0,0,0-.29,0,.5.5,0,0,0-.44.2,1.11,1.11,0,0,0-.14.62v.23h.91Z"/><path class="cls-1" d="M332.66,86h.22a.64.64,0,0,1,.2,0l-.07.54-.2,0h-.19a1.06,1.06,0,0,0-.4.08,1,1,0,0,0-.34.25,1,1,0,0,0-.23.38,1.35,1.35,0,0,0-.09.5V89.7H331V86.08h.49l.06.67h0a1.72,1.72,0,0,1,.28-.37,1.41,1.41,0,0,1,.37-.27A1.14,1.14,0,0,1,332.66,86Z"/><path class="cls-1" d="M335,86a1.43,1.43,0,0,1,.79.2,1.25,1.25,0,0,1,.52.57,1.91,1.91,0,0,1,.17.86V88H334a1.37,1.37,0,0,0,.31.93,1.11,1.11,0,0,0,.84.32,2.74,2.74,0,0,0,.61-.06,4.5,4.5,0,0,0,.55-.19v.52a2.85,2.85,0,0,1-.54.18,4,4,0,0,1-.64.05,1.91,1.91,0,0,1-.91-.2,1.43,1.43,0,0,1-.61-.63,2.07,2.07,0,0,1-.22-1,2.26,2.26,0,0,1,.2-1,1.49,1.49,0,0,1,.56-.65A1.47,1.47,0,0,1,335,86Zm0,.48a.83.83,0,0,0-.67.28,1.28,1.28,0,0,0-.3.75h1.84a1.53,1.53,0,0,0-.09-.54.79.79,0,0,0-.29-.36A.89.89,0,0,0,335,86.5Z"/><path class="cls-1" d="M338.82,86a1.43,1.43,0,0,1,.79.2,1.25,1.25,0,0,1,.52.57,1.91,1.91,0,0,1,.18.86V88h-2.48a1.37,1.37,0,0,0,.32.93,1.08,1.08,0,0,0,.83.32,2.74,2.74,0,0,0,.61-.06,4.5,4.5,0,0,0,.55-.19v.52a2.85,2.85,0,0,1-.54.18,4,4,0,0,1-.64.05,1.91,1.91,0,0,1-.91-.2,1.43,1.43,0,0,1-.61-.63,2.07,2.07,0,0,1-.22-1,2.41,2.41,0,0,1,.2-1,1.49,1.49,0,0,1,.56-.65A1.47,1.47,0,0,1,338.82,86Zm0,.48a.83.83,0,0,0-.67.28,1.22,1.22,0,0,0-.29.75h1.84a1.53,1.53,0,0,0-.1-.54.79.79,0,0,0-.29-.36A.89.89,0,0,0,338.81,86.5Z"/><path class="cls-1" d="M341.94,89q-.06.24-.15.51c-.07.19-.13.37-.21.55s-.14.36-.22.52h-.43c0-.17.08-.36.13-.55s.08-.39.11-.58.07-.37.09-.52h.64Z"/><path class="cls-1" d="M348.67,89.7H348l-2.58-4h0c0,.1,0,.23,0,.37s0,.29,0,.45,0,.32,0,.49V89.7h-.56V84.89h.7l2.57,4h0c0-.07,0-.18,0-.33s0-.3,0-.47,0-.33,0-.47V84.89h.56Z"/><path class="cls-1" d="M353,87.88a2.41,2.41,0,0,1-.12.8,1.62,1.62,0,0,1-.33.59,1.45,1.45,0,0,1-.54.37,1.88,1.88,0,0,1-.69.12,1.76,1.76,0,0,1-.66-.12,1.5,1.5,0,0,1-.53-.37,1.81,1.81,0,0,1-.35-.59,2.41,2.41,0,0,1-.12-.8,2.36,2.36,0,0,1,.2-1,1.42,1.42,0,0,1,.58-.63,1.72,1.72,0,0,1,.9-.22,1.64,1.64,0,0,1,.86.22,1.44,1.44,0,0,1,.59.63A2.22,2.22,0,0,1,353,87.88Zm-2.73,0a2.31,2.31,0,0,0,.11.74,1,1,0,0,0,1.9,0,2.31,2.31,0,0,0,.11-.74,2,2,0,0,0-.12-.73,1,1,0,0,0-.34-.47,1,1,0,0,0-.61-.16.92.92,0,0,0-.8.36A1.8,1.8,0,0,0,350.31,87.88Z"/><path class="cls-1" d="M357.87,85.35a1.73,1.73,0,0,0-.69.13,1.46,1.46,0,0,0-.53.39,1.78,1.78,0,0,0-.33.61,2.88,2.88,0,0,0-.11.81,2.67,2.67,0,0,0,.18,1A1.51,1.51,0,0,0,357,89a1.72,1.72,0,0,0,.92.23,3.83,3.83,0,0,0,.6,0A4.92,4.92,0,0,0,359,89v.53a2.73,2.73,0,0,1-.56.15,4.52,4.52,0,0,1-.68,0,2.34,2.34,0,0,1-1.23-.3,1.81,1.81,0,0,1-.73-.86,3.49,3.49,0,0,1-.1-2.31,2.29,2.29,0,0,1,.44-.78,1.89,1.89,0,0,1,.73-.51,2.57,2.57,0,0,1,1-.18,3.23,3.23,0,0,1,.71.07,2.65,2.65,0,0,1,.62.21l-.24.51-.5-.18A2.23,2.23,0,0,0,357.87,85.35Z"/><path class="cls-1" d="M363.13,87.88a2.41,2.41,0,0,1-.12.8,1.63,1.63,0,0,1-.34.59,1.34,1.34,0,0,1-.53.37,1.92,1.92,0,0,1-.69.12,1.76,1.76,0,0,1-.66-.12,1.41,1.41,0,0,1-.53-.37,1.81,1.81,0,0,1-.35-.59,2.41,2.41,0,0,1-.12-.8,2.22,2.22,0,0,1,.2-1,1.37,1.37,0,0,1,.58-.63,1.72,1.72,0,0,1,.9-.22,1.64,1.64,0,0,1,.86.22,1.44,1.44,0,0,1,.59.63A2.22,2.22,0,0,1,363.13,87.88Zm-2.73,0a2.31,2.31,0,0,0,.11.74,1,1,0,0,0,1.9,0,2.31,2.31,0,0,0,.11-.74,2,2,0,0,0-.12-.73.93.93,0,0,0-.35-.47,1,1,0,0,0-.6-.16.91.91,0,0,0-.8.36A1.72,1.72,0,0,0,360.4,87.88Z"/><path class="cls-1" d="M365.81,86a1.14,1.14,0,0,1,1.3,1.33V89.7h-.58V87.39a1,1,0,0,0-.2-.66.79.79,0,0,0-.61-.21.94.94,0,0,0-.83.33,1.76,1.76,0,0,0-.23,1V89.7h-.59V86.08h.47l.09.5h0a1.14,1.14,0,0,1,.3-.32,1.27,1.27,0,0,1,.39-.18A1.63,1.63,0,0,1,365.81,86Z"/><path class="cls-1" d="M369.9,86.54H369V89.7h-.6V86.54h-.63v-.27l.63-.2v-.21a1.81,1.81,0,0,1,.14-.76.91.91,0,0,1,.4-.42,1.41,1.41,0,0,1,.64-.14,1.61,1.61,0,0,1,.39,0,2,2,0,0,1,.31.08l-.16.47-.25-.07a1.36,1.36,0,0,0-.29,0,.49.49,0,0,0-.44.2,1,1,0,0,0-.14.62v.23h.91Zm1-1.81a.36.36,0,0,1,.24.09.37.37,0,0,1,.11.29.36.36,0,0,1-.11.28.37.37,0,0,1-.24.1.37.37,0,0,1-.25-.1.4.4,0,0,1-.1-.28.4.4,0,0,1,.1-.29A.37.37,0,0,1,370.85,84.73Zm.29,1.35V89.7h-.59V86.08Z"/><path class="cls-1" d="M373.57,86a1.47,1.47,0,0,1,.64.13,1.29,1.29,0,0,1,.49.41h0l.09-.48h.47v3.68a1.86,1.86,0,0,1-.18.86,1.16,1.16,0,0,1-.53.52,2,2,0,0,1-.91.17,4.07,4.07,0,0,1-.72,0,2.84,2.84,0,0,1-.58-.17v-.55a2.34,2.34,0,0,0,.6.21,3.41,3.41,0,0,0,.73.07,1,1,0,0,0,.73-.27,1,1,0,0,0,.27-.75v-.14a2.2,2.2,0,0,1,0-.23c0-.1,0-.17,0-.21h0a1.2,1.2,0,0,1-.46.41,1.51,1.51,0,0,1-.65.13,1.32,1.32,0,0,1-1.1-.49,2.13,2.13,0,0,1-.39-1.37,2.19,2.19,0,0,1,.39-1.37A1.3,1.3,0,0,1,373.57,86Zm.08.5a.85.85,0,0,0-.52.16,1,1,0,0,0-.32.47,2.37,2.37,0,0,0-.11.75,1.76,1.76,0,0,0,.25,1,.82.82,0,0,0,.71.35,1.29,1.29,0,0,0,.47-.07.83.83,0,0,0,.33-.22,1.09,1.09,0,0,0,.19-.39,2.34,2.34,0,0,0,.06-.56V87.9a2.48,2.48,0,0,0-.11-.8.83.83,0,0,0-.35-.44A1.11,1.11,0,0,0,373.65,86.52Z"/><path class="cls-1" d="M382.08,89.7h-.71l-2.57-4h0c0,.1,0,.23,0,.37s0,.29,0,.45,0,.32,0,.49V89.7h-.55V84.89h.7l2.56,4h0c0-.07,0-.18,0-.33s0-.3,0-.47,0-.33,0-.47V84.89h.57Z"/><path class="cls-1" d="M384.7,86a1.46,1.46,0,0,1,.8.2,1.29,1.29,0,0,1,.51.57,1.91,1.91,0,0,1,.18.86V88h-2.47a1.37,1.37,0,0,0,.31.93,1.11,1.11,0,0,0,.84.32,2.8,2.8,0,0,0,.61-.06A4.5,4.5,0,0,0,386,89v.52a3.2,3.2,0,0,1-.55.18,3.87,3.87,0,0,1-.64.05,1.87,1.87,0,0,1-.9-.2,1.45,1.45,0,0,1-.62-.63,2.19,2.19,0,0,1-.22-1,2.41,2.41,0,0,1,.2-1,1.49,1.49,0,0,1,.56-.65A1.47,1.47,0,0,1,384.7,86Zm0,.48a.85.85,0,0,0-.67.28,1.28,1.28,0,0,0-.29.75h1.84a1.53,1.53,0,0,0-.09-.54.86.86,0,0,0-.29-.36A.92.92,0,0,0,384.69,86.5Z"/><path class="cls-1" d="M388.5,86a1.46,1.46,0,0,1,.8.2,1.29,1.29,0,0,1,.51.57,1.91,1.91,0,0,1,.18.86V88h-2.47a1.37,1.37,0,0,0,.31.93,1.11,1.11,0,0,0,.84.32,2.8,2.8,0,0,0,.61-.06,4.5,4.5,0,0,0,.55-.19v.52a3.2,3.2,0,0,1-.55.18,3.87,3.87,0,0,1-.64.05,1.87,1.87,0,0,1-.9-.2,1.45,1.45,0,0,1-.62-.63,2.19,2.19,0,0,1-.22-1,2.41,2.41,0,0,1,.2-1,1.56,1.56,0,0,1,.56-.65A1.47,1.47,0,0,1,388.5,86Zm0,.48a.85.85,0,0,0-.68.28,1.28,1.28,0,0,0-.29.75h1.84a1.53,1.53,0,0,0-.09-.54.86.86,0,0,0-.29-.36A.91.91,0,0,0,388.5,86.5Z"/><path class="cls-1" d="M392.19,89.76a1.36,1.36,0,0,1-1.08-.46,2.11,2.11,0,0,1-.41-1.4,2.14,2.14,0,0,1,.41-1.41,1.38,1.38,0,0,1,1.08-.47,1.51,1.51,0,0,1,.5.07,1.23,1.23,0,0,1,.36.19,1.33,1.33,0,0,1,.26.27h0c0-.06,0-.14,0-.26s0-.21,0-.27V84.58h.6V89.7h-.48l-.09-.49h0a1.16,1.16,0,0,1-.26.28,1.18,1.18,0,0,1-.37.2A1.45,1.45,0,0,1,392.19,89.76Zm.09-.49a1,1,0,0,0,.81-.31,1.64,1.64,0,0,0,.23-.95V87.9a2,2,0,0,0-.22-1,.89.89,0,0,0-.82-.36.8.8,0,0,0-.72.38,1.88,1.88,0,0,0-.24,1,1.82,1.82,0,0,0,.24,1A.82.82,0,0,0,392.28,89.27Z"/><path class="cls-1" d="M396.45,86a1.49,1.49,0,0,1,.8.2,1.29,1.29,0,0,1,.51.57,1.91,1.91,0,0,1,.18.86V88h-2.48a1.37,1.37,0,0,0,.32.93,1.11,1.11,0,0,0,.84.32,2.87,2.87,0,0,0,.61-.06,4.37,4.37,0,0,0,.54-.19v.52a2.85,2.85,0,0,1-.54.18,3.87,3.87,0,0,1-.64.05,1.93,1.93,0,0,1-.91-.2,1.43,1.43,0,0,1-.61-.63,2.07,2.07,0,0,1-.22-1,2.41,2.41,0,0,1,.2-1,1.49,1.49,0,0,1,.56-.65A1.47,1.47,0,0,1,396.45,86Zm0,.48a.83.83,0,0,0-.67.28,1.28,1.28,0,0,0-.29.75h1.84a1.33,1.33,0,0,0-.1-.54.84.84,0,0,0-.28-.36A1,1,0,0,0,396.44,86.5Z"/><path class="cls-1" d="M400.13,89.76a1.36,1.36,0,0,1-1.08-.46,2.16,2.16,0,0,1-.4-1.4,2.14,2.14,0,0,1,.41-1.41,1.36,1.36,0,0,1,1.08-.47,1.38,1.38,0,0,1,.86.26,1.33,1.33,0,0,1,.26.27h0c0-.06,0-.14,0-.26a1.48,1.48,0,0,1,0-.27V84.58h.59V89.7h-.48l-.08-.49h0a1.16,1.16,0,0,1-.26.28,1.46,1.46,0,0,1-.37.2A1.51,1.51,0,0,1,400.13,89.76Zm.1-.49A.92.92,0,0,0,401,89a1.56,1.56,0,0,0,.24-.95V87.9a1.94,1.94,0,0,0-.23-1,.89.89,0,0,0-.82-.36.8.8,0,0,0-.72.38,1.88,1.88,0,0,0-.24,1,1.82,1.82,0,0,0,.24,1A.83.83,0,0,0,400.23,89.27Z"/><path class="cls-2" d="M66.48,28.64a1.28,1.28,0,0,1,1.28,1.29V49.18H37V29.93a1.28,1.28,0,0,1,1.28-1.29ZM38.24,26.08a3.85,3.85,0,0,0-3.85,3.85V51.75H70.33V29.93a3.85,3.85,0,0,0-3.85-3.85ZM31.82,53H72.9a3.85,3.85,0,0,1-3.85,3.85H35.67A3.85,3.85,0,0,1,31.82,53"/><g class="cls-3"><path class="cls-1" d="M57.35,45.35h-2.6V40H49.86v5.31h-2.6V33h2.6v4.83h4.89V33h2.6Z"/></g><g id="路径_1" data-name="路径 1"><path class="cls-4" d="M142.76,46v-.5h3.55A1.53,1.53,0,0,0,147.83,44V39a1.53,1.53,0,0,0-1.52-1.53h-3.55v-.5a1,1,0,0,0-1-1H129.58a1,1,0,0,0-1,1v2h-2a1,1,0,0,0-1,1v3a1,1,0,0,0,1,1h2v2a1,1,0,0,0,1,1h12.17A1,1,0,0,0,142.76,46ZM126.54,40h2v3h-2Zm16.22,4.56V38.44h3.55a.51.51,0,0,1,.51.51V44a.51.51,0,0,1-.51.51Z"/></g><g id="路径_1-2" data-name="路径 1"><path class="cls-4" d="M80.47,36.92v.5H76.92A1.53,1.53,0,0,0,75.4,39V44a1.53,1.53,0,0,0,1.52,1.53h3.55V46a1,1,0,0,0,1,1H93.65a1,1,0,0,0,1-1V44h2a1,1,0,0,0,1-1V40a1,1,0,0,0-1-1h-2v-2a1,1,0,0,0-1-1H81.49A1,1,0,0,0,80.47,36.92ZM96.69,43h-2V40h2ZM80.47,38.44v6.08H76.92a.5.5,0,0,1-.5-.51V39a.5.5,0,0,1,.5-.51Z"/></g><rect class="cls-5" x="97.13" y="40.88" width="29" height="1.2"/><rect class="cls-1" x="275.77" y="54.68" width="21.25" height="1.2"/><rect class="cls-2" x="270.02" y="27.07" width="29.24" height="1.2"/><g id="路径_1-3" data-name="路径 1"><path class="cls-6" d="M253.39,23.11v.51h-3.55a1.52,1.52,0,0,0-1.52,1.52v5.07a1.52,1.52,0,0,0,1.52,1.52h3.55v.51a1,1,0,0,0,1,1h12.17a1,1,0,0,0,1-1v-2h2a1,1,0,0,0,1-1v-3a1,1,0,0,0-1-1h-2v-2a1,1,0,0,0-1-1H254.4A1,1,0,0,0,253.39,23.11Zm16.22,6.08h-2v-3h2Zm-16.22-4.56v6.09h-3.55a.5.5,0,0,1-.5-.51V25.14a.5.5,0,0,1,.5-.51Z"/></g><path class="cls-1" d="M314.35,34h8.58a.57.57,0,0,0,.57-.57V22a.58.58,0,0,0-.57-.57h-8.58a1.14,1.14,0,0,0-1.14-1.14h-10.3a1.14,1.14,0,0,0-1.14,1.14v3.43h-2.29A1.15,1.15,0,0,0,298.34,26v3.43a1.14,1.14,0,0,0,1.14,1.14h2.29V34a1.14,1.14,0,0,0,1.14,1.15h10.3A1.14,1.14,0,0,0,314.35,34Zm2.86-6.86a.56.56,0,0,1-.57-.57V24.24a.57.57,0,0,1,.57-.57h2.29a.58.58,0,0,1,.57.57v2.29a.57.57,0,0,1-.57.57Zm0,4.58a.57.57,0,0,1-.57-.57V28.82a.56.56,0,0,1,.57-.57h2.29a.57.57,0,0,1,.57.57v2.29a.58.58,0,0,1-.57.57Z"/><path id="路径_1-4" data-name="路径 1" class="cls-7" d="M263.19,58.72V51.85h-1.14v6.87Z"/><path id="路径_2" data-name="路径 2" class="cls-7" d="M258.62,58.72V51.85h-1.15v6.87Z"/><path id="路径_4" data-name="路径 4" class="cls-7" d="M254,49v.58h-4.57a1.15,1.15,0,0,0-1.15,1.14v1.14H254V53h-5.72v4.57H254v1.15h-5.72v1.14A1.15,1.15,0,0,0,249.47,61H254v.58a1.15,1.15,0,0,0,1.14,1.14h10.87a.85.85,0,0,0,.34-.11l1.55-1h1.54a1.16,1.16,0,0,0,1.15-1.15V58.15h1.71a.58.58,0,0,0,1.15,0h1.14A1.15,1.15,0,0,0,275.77,57V53.57a1.14,1.14,0,0,0-1.14-1.14h-1.14a.58.58,0,1,0-1.15,0h-1.71V50.14A1.16,1.16,0,0,0,269.48,49h-1.54l-1.55-1a.73.73,0,0,0-.34-.12H255.18A1.15,1.15,0,0,0,254,49Zm-2.29,5.72V53.57h1.15v1.14Zm0,2.29V55.86h1.15V57Zm22.88-3.43V57h-1.14V53.57Zm-2.29,0V57h-1.71V53.57Zm-8.58-2.86a.54.54,0,0,1,.58.57v8a.54.54,0,0,1-.58.57h-2.28a.54.54,0,0,1-.58-.57v-8a.54.54,0,0,1,.58-.57Zm-4.57,0a.54.54,0,0,1,.57.57v8a.54.54,0,0,1-.57.57H256.9a.54.54,0,0,1-.57-.57v-8a.54.54,0,0,1,.57-.57Z"/><path id="路径_1-5" data-name="路径 1" class="cls-7" d="M308.63,51.85v6.87h1.14V51.85Z"/><path id="路径_2-2" data-name="路径 2" class="cls-7" d="M313.2,51.85v6.87h1.15V51.85Z"/><path id="路径_4-2" data-name="路径 4" class="cls-7" d="M317.78,61.58V61h4.58a1.15,1.15,0,0,0,1.14-1.14V58.72h-5.72V57.57h5.72V53h-5.72V51.85h5.72V50.71a1.15,1.15,0,0,0-1.14-1.14h-4.58V49a1.15,1.15,0,0,0-1.14-1.14H305.77a.78.78,0,0,0-.34.12l-1.55,1h-1.54a1.15,1.15,0,0,0-1.14,1.15v2.29h-1.72a.57.57,0,1,0-1.14,0h-1.15a1.14,1.14,0,0,0-1.14,1.14V57a1.15,1.15,0,0,0,1.14,1.15h1.15a.57.57,0,0,0,1.14,0h1.72v2.28a1.15,1.15,0,0,0,1.14,1.15h1.54l1.55,1a.9.9,0,0,0,.34.11h10.87A1.14,1.14,0,0,0,317.78,61.58Zm2.29-5.72V57h-1.15V55.86Zm0-2.29v1.14h-1.15V53.57ZM297.19,57V53.57h1.15V57Zm2.29,0V53.57h1.72V57Zm8.58,2.86a.54.54,0,0,1-.57-.57v-8a.54.54,0,0,1,.57-.57h2.29a.54.54,0,0,1,.57.57v8a.54.54,0,0,1-.57.57Zm4.57,0a.54.54,0,0,1-.57-.57v-8a.54.54,0,0,1,.57-.57h2.29a.54.54,0,0,1,.57.57v8a.54.54,0,0,1-.57.57Z"/><path class="cls-2" d="M372,28.64a1.28,1.28,0,0,1,1.28,1.29V49.18h-30.8V29.93a1.28,1.28,0,0,1,1.28-1.29Zm-28.24-2.56a3.85,3.85,0,0,0-3.85,3.85V51.75h35.94V29.93A3.85,3.85,0,0,0,372,26.08Zm-6.42,27h41.08a3.85,3.85,0,0,1-3.85,3.85H341.18A3.85,3.85,0,0,1,337.33,53"/><g class="cls-3"><path class="cls-1" d="M359.05,44.42h-2.61V34.27h-3.35V32.1h9.3v2.17h-3.34Z"/></g><rect class="cls-8" x="157.86" y="8.77" width="79.98" height="65.41"/><line class="cls-9" x1="237.86" y1="69.01" x2="237.86" y2="69.01"/><line class="cls-9" x1="237.86" y1="13.95" x2="237.86" y2="13.95"/><polyline class="cls-9" points="237.86 74.19 237.86 74.14 237.86 74.03 237.86 73.8 237.86 73.53 237.86 73.17 237.86 72.71 237.86 72.21 237.86 71.67 237.86 71.06 237.86 70.4 237.86 69.69 237.86 68.97 237.86 68.24 237.86 67.49"/><polyline class="cls-9" points="237.86 67.49 237.86 15.47 237.86 14.72 237.86 13.99 237.86 13.27 237.86 12.56 237.86 11.9 237.86 11.29 237.86 10.75 237.86 10.25 237.86 9.79 237.86 9.43 237.86 9.16 237.86 8.93 237.86 8.82 237.86 8.77"/><line class="cls-9" x1="237.86" y1="10.52" x2="237.86" y2="10.52"/><line class="cls-9" x1="237.86" y1="13.92" x2="237.86" y2="13.92"/><line class="cls-9" x1="237.86" y1="72.44" x2="237.86" y2="72.44"/><line class="cls-9" x1="237.86" y1="69.04" x2="237.86" y2="69.04"/><polygon class="cls-10" points="239.6 8.77 242.42 9.84 242.42 73.12 239.6 74.19 239.6 8.77"/><rect class="cls-10" x="237.86" y="8.77" width="1.74" height="65.41"/><polygon class="cls-11" points="156.12 67.49 156.12 15.47 156.12 14.72 156.12 13.99 156.12 13.27 156.12 12.56 156.12 11.9 156.12 11.29 156.12 10.75 156.12 10.25 156.12 9.79 156.12 9.43 156.12 9.16 156.12 8.93 156.12 8.82 156.12 8.77 153.3 9.84 153.3 9.88 153.3 10.02 153.3 10.2 153.3 10.5 153.3 10.84 153.3 11.27 153.3 11.75 153.3 12.29 153.3 12.86 153.3 13.47 153.3 14.13 153.3 14.81 153.3 15.47 153.3 67.49 153.3 68.15 153.3 68.83 153.3 69.49 153.3 70.1 153.3 70.67 153.3 71.21 153.3 71.69 153.3 72.12 153.3 72.46 153.3 72.76 153.3 72.94 153.3 73.07 153.3 73.12 156.12 74.19 156.12 74.14 156.12 74.03 156.12 73.8 156.12 73.53 156.12 73.17 156.12 72.71 156.12 72.21 156.12 71.67 156.12 71.06 156.12 70.4 156.12 69.69 156.12 68.97 156.12 68.24 156.12 67.49"/><rect class="cls-10" x="156.12" y="8.77" width="1.74" height="65.41"/><path class="cls-1" d="M228.16,27.81h-8.24a1.28,1.28,0,0,1-1.28-1.28V22a1.28,1.28,0,0,1,1.28-1.28h8.24A1.28,1.28,0,0,1,229.44,22v4.58A1.28,1.28,0,0,1,228.16,27.81Zm-8.24-6.42a.56.56,0,0,0-.56.56v4.58a.56.56,0,0,0,.56.55h8.24a.56.56,0,0,0,.56-.55V22a.56.56,0,0,0-.56-.56Z"/><rect class="cls-1" x="222.21" y="25.25" width="3.66" height="0.73"/><rect class="cls-1" x="220.83" y="23.88" width="0.92" height="0.73"/><rect class="cls-1" x="222.67" y="23.88" width="0.91" height="0.73"/><rect class="cls-1" x="224.5" y="23.88" width="0.91" height="0.73"/><rect class="cls-1" x="226.33" y="23.88" width="0.92" height="0.73"/><rect class="cls-1" x="220.83" y="22.5" width="0.92" height="0.73"/><rect class="cls-1" x="222.67" y="22.5" width="0.91" height="0.73"/><rect class="cls-1" x="224.5" y="22.5" width="0.91" height="0.73"/><rect class="cls-1" x="226.33" y="22.5" width="0.92" height="0.73"/><polygon class="cls-1" points="235.41 23.81 229.89 23.81 229.89 23.08 232.28 23.08 232.28 20.51 233.01 20.51 233.01 23.08 235.41 23.08 235.41 23.81"/><path class="cls-1" d="M232.65,27.92a2.77,2.77,0,0,1-2.76-2.76V23.1a2.76,2.76,0,1,1,5.52,0v2.06A2.77,2.77,0,0,1,232.65,27.92Zm0-6.85a2,2,0,0,0-2,2v2.06a2,2,0,0,0,4.07,0V23.1A2,2,0,0,0,232.65,21.07Z"/><path class="cls-1" d="M231.31,59.83h-8.57a.38.38,0,0,1-.37-.37V54.7a.37.37,0,0,1,.37-.36h8.57a.36.36,0,0,1,.36.36v4.76A.37.37,0,0,1,231.31,59.83Zm-8.21-.73H231v-4H223.1Z"/><path class="cls-1" d="M229.71,61.92h-5.38a.36.36,0,0,1-.36-.36.37.37,0,0,1,.36-.37h5.38a.38.38,0,0,1,.37.37A.37.37,0,0,1,229.71,61.92Z"/><rect class="cls-1" x="226.56" y="59.46" width="0.73" height="2.09"/><path class="cls-1" d="M214.67,43.26h-1.16V38.74H212v-1h4.15v1h-1.49Z"/><path class="cls-1" d="M217.72,39a2.05,2.05,0,0,1,1.3.37,1.36,1.36,0,0,1,.45,1.12v2.8h-.8l-.23-.57h0a2.12,2.12,0,0,1-.36.37,1.35,1.35,0,0,1-.43.22,2.64,2.64,0,0,1-.6.06,1.6,1.6,0,0,1-.67-.14,1.08,1.08,0,0,1-.46-.44,1.44,1.44,0,0,1-.17-.75,1.09,1.09,0,0,1,.47-1,2.69,2.69,0,0,1,1.41-.35l.73,0v-.19a.66.66,0,0,0-.17-.49.74.74,0,0,0-.49-.15,2.08,2.08,0,0,0-.6.09,4.58,4.58,0,0,0-.58.22l-.38-.78a3.52,3.52,0,0,1,.75-.28A4,4,0,0,1,217.72,39Zm.16,2.36a1.27,1.27,0,0,0-.77.2.62.62,0,0,0-.21.49.43.43,0,0,0,.15.37.7.7,0,0,0,.4.11.89.89,0,0,0,.62-.22.76.76,0,0,0,.26-.62v-.34Z"/><path class="cls-1" d="M222.69,39h.2l.18,0L223,40.09l-.16,0h-.18a1.54,1.54,0,0,0-.43.06,1.21,1.21,0,0,0-.38.18.87.87,0,0,0-.26.33,1.21,1.21,0,0,0-.09.5v2.14h-1.15v-4.2h.87l.17.71h.05a1.72,1.72,0,0,1,.31-.4,1.6,1.6,0,0,1,.43-.28A1.27,1.27,0,0,1,222.69,39Z"/><path class="cls-1" d="M224.81,39a1.47,1.47,0,0,1,.7.16,1.34,1.34,0,0,1,.52.46h0l.09-.54h1v4.21a2.07,2.07,0,0,1-.23,1,1.49,1.49,0,0,1-.71.62,2.83,2.83,0,0,1-1.16.21,7.12,7.12,0,0,1-.83,0,3.25,3.25,0,0,1-.74-.2V44a3.69,3.69,0,0,0,.8.24,3.86,3.86,0,0,0,.84.08.87.87,0,0,0,.67-.24,1,1,0,0,0,.22-.71v-.09a2.62,2.62,0,0,1,0-.27c0-.09,0-.17,0-.24h0a1.28,1.28,0,0,1-.52.47,1.51,1.51,0,0,1-.68.15,1.34,1.34,0,0,1-1.16-.57,3.24,3.24,0,0,1,0-3.21A1.37,1.37,0,0,1,224.81,39Zm.36.93a.7.7,0,0,0-.45.15.81.81,0,0,0-.27.42,2.75,2.75,0,0,0-.08.7,1.72,1.72,0,0,0,.2,1,.68.68,0,0,0,.62.31,1.14,1.14,0,0,0,.39-.06.61.61,0,0,0,.26-.19,1,1,0,0,0,.16-.35,2,2,0,0,0,.05-.52v-.14a2.37,2.37,0,0,0-.09-.73.75.75,0,0,0-.28-.41A1,1,0,0,0,225.17,39.91Z"/><path class="cls-1" d="M229.75,39a2.2,2.2,0,0,1,1,.22,1.65,1.65,0,0,1,.66.65,2.19,2.19,0,0,1,.23,1v.56h-2.72a1.16,1.16,0,0,0,.29.76,1.06,1.06,0,0,0,.76.28,3.29,3.29,0,0,0,.74-.08,3.69,3.69,0,0,0,.69-.26V43a3,3,0,0,1-.65.23,4,4,0,0,1-.83.07,2.67,2.67,0,0,1-1.12-.23,1.76,1.76,0,0,1-.76-.72,2.32,2.32,0,0,1-.28-1.2A2.8,2.8,0,0,1,228,40a1.7,1.7,0,0,1,.7-.73A2.05,2.05,0,0,1,229.75,39Zm0,.82a.75.75,0,0,0-.55.21,1,1,0,0,0-.26.67h1.61a1.06,1.06,0,0,0-.09-.45.76.76,0,0,0-.27-.32A.82.82,0,0,0,229.76,39.8Z"/><path class="cls-1" d="M234,42.42a2.22,2.22,0,0,0,.37,0l.36-.1v.86a3.27,3.27,0,0,1-.46.13,2.77,2.77,0,0,1-.6.06,1.74,1.74,0,0,1-.67-.12.93.93,0,0,1-.47-.43,1.64,1.64,0,0,1-.18-.84v-2h-.54v-.48l.63-.39.33-.89h.73v.9h1.18v.86h-1.18v2a.42.42,0,0,0,.14.35A.52.52,0,0,0,234,42.42Z"/><path class="cls-1" d="M165.81,43.26h-1.17V40.89h-2.18v2.37H161.3v-5.5h1.16v2.16h2.18V37.76h1.17Z"/><path class="cls-1" d="M170.61,41.15a2.93,2.93,0,0,1-.14.93,1.81,1.81,0,0,1-.41.69,1.76,1.76,0,0,1-.64.43,2.54,2.54,0,0,1-.86.14,2.38,2.38,0,0,1-.81-.14,1.76,1.76,0,0,1-.64-.43,1.83,1.83,0,0,1-.42-.69,2.67,2.67,0,0,1-.15-.93,2.64,2.64,0,0,1,.24-1.18,1.75,1.75,0,0,1,.71-.74,2.38,2.38,0,0,1,1.1-.25,2.19,2.19,0,0,1,1,.25,1.77,1.77,0,0,1,.72.74A2.51,2.51,0,0,1,170.61,41.15Zm-2.9,0a2.33,2.33,0,0,0,.09.7.77.77,0,0,0,.28.42.78.78,0,0,0,.5.14.8.8,0,0,0,.5-.14.81.81,0,0,0,.27-.42,2.33,2.33,0,0,0,.09-.7,2.22,2.22,0,0,0-.09-.69.8.8,0,0,0-.28-.42.84.84,0,0,0-.5-.13.73.73,0,0,0-.66.31A1.76,1.76,0,0,0,167.71,41.15Z"/><path class="cls-1" d="M174.19,42a1.3,1.3,0,0,1-.2.73,1.38,1.38,0,0,1-.61.45,2.79,2.79,0,0,1-1,.15,4.06,4.06,0,0,1-.75-.06,3,3,0,0,1-.63-.19v-.94a4.45,4.45,0,0,0,.73.25,2.67,2.67,0,0,0,.69.1.82.82,0,0,0,.48-.1.29.29,0,0,0,.14-.26A.38.38,0,0,0,173,42a.8.8,0,0,0-.25-.2,6,6,0,0,0-.61-.27,5.21,5.21,0,0,1-.64-.34,1,1,0,0,1-.38-.4,1.29,1.29,0,0,1-.12-.59,1,1,0,0,1,.45-.88,2.26,2.26,0,0,1,1.21-.29,3.67,3.67,0,0,1,.75.08,3.33,3.33,0,0,1,.73.25l-.35.83a6.12,6.12,0,0,0-.58-.22,1.82,1.82,0,0,0-.56-.09.82.82,0,0,0-.39.07.21.21,0,0,0-.12.21.32.32,0,0,0,.06.18.89.89,0,0,0,.26.17l.56.25a4.49,4.49,0,0,1,.62.3,1.15,1.15,0,0,1,.4.39A1.13,1.13,0,0,1,174.19,42Z"/><path class="cls-1" d="M176.54,42.42a1.5,1.5,0,0,0,.37,0l.36-.09v.86a3.27,3.27,0,0,1-.46.13,2.77,2.77,0,0,1-.6.06,1.74,1.74,0,0,1-.67-.12,1,1,0,0,1-.47-.43,1.66,1.66,0,0,1-.18-.84v-2h-.54v-.49l.63-.38.33-.89H176v.9h1.18v.86H176v2a.45.45,0,0,0,.14.35A.52.52,0,0,0,176.54,42.42Z"/><polyline class="cls-1" points="169.24 32.37 169.24 30.28 174.78 24.74 176.26 23.26 178.35 23.26 183.99 23.26 183.99 24.74 176.87 24.74 170.72 30.89 170.72 32.57 169.24 32.57"/><path class="cls-1" d="M170.72,31.13h-1.48v1.59a1.87,1.87,0,1,0,1.48,0ZM170,33.52a.92.92,0,1,1-.91.92A.92.92,0,0,1,170,33.52Z"/><rect class="cls-1" x="183.26" y="23.26" width="29.65" height="1.48"/><path class="cls-1" d="M212.66,21.77a.49.49,0,0,1,.51,0l3.07,1.77a.54.54,0,0,1,0,.88l-3.07,1.78a.52.52,0,0,1-.51,0,.54.54,0,0,1-.26-.45v-1a.56.56,0,0,1,.07-.26l.34-.56-.34-.55a.6.6,0,0,1-.07-.27v-1A.54.54,0,0,1,212.66,21.77Zm.33.45Z"/><polyline class="cls-1" points="170.13 50.04 170.13 52.13 175.66 57.67 177.14 59.15 179.24 59.15 184.88 59.15 184.88 57.67 177.76 57.67 171.61 51.52 171.61 47.84 170.13 47.84"/><path class="cls-1" d="M214.12,59.15a1.87,1.87,0,1,0,0-1.48h-3.59v1.48Zm1.72-1.66a.92.92,0,1,1-.92.92A.92.92,0,0,1,215.84,57.49Z"/><rect class="cls-1" x="184.15" y="57.67" width="29.65" height="1.48"/><path class="cls-1" d="M168.65,50a.52.52,0,0,1,0-.51l1.77-3.07a.54.54,0,0,1,.89,0l1.77,3.07a.52.52,0,0,1,0,.51.5.5,0,0,1-.45.25h-.95a.48.48,0,0,1-.26-.07l-.56-.33-.55.33a.48.48,0,0,1-.26.07h-1A.5.5,0,0,1,168.65,50Zm.44-.33Z"/><path class="cls-1" d="M178.43,17.47h-.53l-1.26-1.71-.37.32v1.39h-.45V13.9h.45v1.76c.1-.11.2-.23.31-.34s.2-.23.31-.34l1-1.08h.53L177,15.45Z"/><path class="cls-1" d="M179.79,14.74a1.1,1.1,0,0,1,.59.15.91.91,0,0,1,.38.42,1.44,1.44,0,0,1,.14.64v.26h-1.84a1.08,1.08,0,0,0,.23.7.82.82,0,0,0,.63.23,2,2,0,0,0,.45,0,2.49,2.49,0,0,0,.41-.14v.38a2.49,2.49,0,0,1-.41.14,2.17,2.17,0,0,1-.47,0,1.37,1.37,0,0,1-.68-.16,1.05,1.05,0,0,1-.45-.46,1.54,1.54,0,0,1-.16-.75,1.94,1.94,0,0,1,.14-.76,1.1,1.1,0,0,1,.42-.48A1.15,1.15,0,0,1,179.79,14.74Zm0,.36a.65.65,0,0,0-.5.2,1,1,0,0,0-.22.56h1.37a1.24,1.24,0,0,0-.07-.4.56.56,0,0,0-.22-.26A.57.57,0,0,0,179.79,15.1Z"/><path class="cls-1" d="M181,14.79h.47l.58,1.52.09.26c0,.09.05.17.08.25a2.25,2.25,0,0,1,0,.22h0a2.69,2.69,0,0,1,.1-.32c0-.14.08-.27.13-.41l.55-1.52h.47l-1.15,3.05a2.27,2.27,0,0,1-.23.44.84.84,0,0,1-.75.39h-.21l-.15,0v-.35l.13,0h.16a.6.6,0,0,0,.27-.06.58.58,0,0,0,.19-.16,1.26,1.26,0,0,0,.14-.26l.14-.35Z"/><path class="cls-1" d="M184.27,14.59c0,.12,0,.22,0,.32s0,.18,0,.23h0a.94.94,0,0,1,.31-.28,1,1,0,0,1,.52-.12,1,1,0,0,1,.8.35,1.56,1.56,0,0,1,.3,1,1.77,1.77,0,0,1-.14.77,1,1,0,0,1-.38.46,1,1,0,0,1-.58.16,1,1,0,0,1-.52-.12.82.82,0,0,1-.31-.27h0l-.09.34h-.31v-3.8h.44Zm.75.52a.83.83,0,0,0-.45.11.54.54,0,0,0-.23.33,1.78,1.78,0,0,0-.07.56v0a1.43,1.43,0,0,0,.16.76.64.64,0,0,0,.6.26.6.6,0,0,0,.54-.26,1.37,1.37,0,0,0,.18-.77,1.33,1.33,0,0,0-.18-.76A.62.62,0,0,0,185,15.11Z"/><path class="cls-1" d="M189.13,16.12a1.8,1.8,0,0,1-.09.6,1.09,1.09,0,0,1-.25.43,1.11,1.11,0,0,1-.39.28,1.46,1.46,0,0,1-.52.09,1.3,1.3,0,0,1-.49-.09,1.21,1.21,0,0,1-.39-.28,1.41,1.41,0,0,1-.26-.43,1.8,1.8,0,0,1-.09-.6,1.73,1.73,0,0,1,.15-.75,1.09,1.09,0,0,1,.43-.47,1.3,1.3,0,0,1,.67-.16,1.24,1.24,0,0,1,.64.16,1.15,1.15,0,0,1,.43.47A1.6,1.6,0,0,1,189.13,16.12Zm-2,0a1.52,1.52,0,0,0,.08.55.65.65,0,0,0,.26.36.74.74,0,0,0,.44.12.79.79,0,0,0,.45-.12.69.69,0,0,0,.25-.36,1.51,1.51,0,0,0,.09-.55,1.45,1.45,0,0,0-.09-.54.72.72,0,0,0-.26-.35.74.74,0,0,0-.44-.12.67.67,0,0,0-.6.27A1.33,1.33,0,0,0,187.11,16.12Z"/><path class="cls-1" d="M190.74,14.74a1.08,1.08,0,0,1,.73.22.9.9,0,0,1,.23.68v1.83h-.32l-.08-.38h0a1.36,1.36,0,0,1-.24.24.74.74,0,0,1-.28.14,1.4,1.4,0,0,1-.38.05,1,1,0,0,1-.44-.09.63.63,0,0,1-.3-.26.88.88,0,0,1-.11-.45.7.7,0,0,1,.32-.61,1.74,1.74,0,0,1,1-.24l.45,0v-.16a.63.63,0,0,0-.14-.46.59.59,0,0,0-.41-.13,1.29,1.29,0,0,0-.4.06,3,3,0,0,0-.36.14l-.13-.33a2.34,2.34,0,0,1,.41-.16A2.08,2.08,0,0,1,190.74,14.74Zm.13,1.43a1.44,1.44,0,0,0-.69.16.47.47,0,0,0-.19.4.39.39,0,0,0,.13.33.59.59,0,0,0,.36.1A.87.87,0,0,0,191,17a.72.72,0,0,0,.23-.58v-.24Z"/><path class="cls-1" d="M193.68,14.74h.16l.16,0-.06.4-.14,0h-.15a.72.72,0,0,0-.29.06.79.79,0,0,0-.25.19.9.9,0,0,0-.18.28,1.06,1.06,0,0,0-.06.37v1.43h-.44V14.79h.36l.05.49h0a1.39,1.39,0,0,1,.21-.27,1.05,1.05,0,0,1,.27-.2A.77.77,0,0,1,193.68,14.74Z"/><path class="cls-1" d="M195.25,17.52a1,1,0,0,1-.8-.35,1.56,1.56,0,0,1-.3-1,1.57,1.57,0,0,1,.3-1,1,1,0,0,1,.8-.35,1.38,1.38,0,0,1,.37,0,1.15,1.15,0,0,1,.27.14,1.19,1.19,0,0,1,.19.2h0s0-.1,0-.19,0-.15,0-.2V13.67h.44v3.8h-.35l-.07-.36h0a1,1,0,0,1-.19.21.82.82,0,0,1-.28.14A1,1,0,0,1,195.25,17.52Zm.07-.37a.67.67,0,0,0,.59-.23,1.13,1.13,0,0,0,.18-.7v-.08a1.49,1.49,0,0,0-.17-.77.65.65,0,0,0-.61-.27.58.58,0,0,0-.53.29,1.36,1.36,0,0,0-.18.75,1.34,1.34,0,0,0,.18.75A.6.6,0,0,0,195.32,17.15Z"/><path class="cls-1" d="M199.57,13.84a1.08,1.08,0,0,1,.46.1.7.7,0,0,1,.3.26.76.76,0,0,1,.1.41.8.8,0,0,1-.2.54,2.32,2.32,0,0,1-.51.4l1,.93a1.07,1.07,0,0,0,.21-.36,2.53,2.53,0,0,0,.14-.44h.45a4.22,4.22,0,0,1-.2.6,2,2,0,0,1-.31.48l.73.71h-.6l-.43-.42a2.62,2.62,0,0,1-.34.24,1.61,1.61,0,0,1-.4.17,1.83,1.83,0,0,1-.49.06,1.57,1.57,0,0,1-.6-.11.87.87,0,0,1-.39-.34,1,1,0,0,1-.14-.53,1,1,0,0,1,.09-.44,1.19,1.19,0,0,1,.27-.33,2.67,2.67,0,0,1,.41-.28,2.43,2.43,0,0,1-.2-.25,1.17,1.17,0,0,1-.17-.28.93.93,0,0,1-.06-.34.73.73,0,0,1,.11-.42.72.72,0,0,1,.31-.26A1.27,1.27,0,0,1,199.57,13.84Zm-.22,1.92A2.08,2.08,0,0,0,199,16a.85.85,0,0,0-.2.23.62.62,0,0,0-.07.31A.53.53,0,0,0,199,17a.69.69,0,0,0,.49.17A1.31,1.31,0,0,0,200,17a1.53,1.53,0,0,0,.39-.25Zm.2-1.56a.53.53,0,0,0-.34.11.39.39,0,0,0-.13.31.63.63,0,0,0,.09.33,1.91,1.91,0,0,0,.28.34,1.75,1.75,0,0,0,.42-.32.59.59,0,0,0,.13-.36.38.38,0,0,0-.12-.29A.45.45,0,0,0,199.55,14.2Z"/><path class="cls-1" d="M204.87,17.47l-1.18-3.13h0c0,.07,0,.15,0,.25s0,.22,0,.34,0,.25,0,.37v2.17h-.42V13.9H204l1.1,2.92h0l1.12-2.92h.66v3.57h-.45v-2.2c0-.11,0-.23,0-.34s0-.23,0-.33,0-.19,0-.26h0l-1.19,3.13Z"/><path class="cls-1" d="M210,16.12a1.8,1.8,0,0,1-.09.6,1.22,1.22,0,0,1-.25.43,1.15,1.15,0,0,1-.4.28,1.36,1.36,0,0,1-.51.09,1.3,1.3,0,0,1-.49-.09,1.21,1.21,0,0,1-.39-.28,1.24,1.24,0,0,1-.26-.43,1.8,1.8,0,0,1-.09-.6,1.73,1.73,0,0,1,.15-.75,1.09,1.09,0,0,1,.43-.47,1.24,1.24,0,0,1,.66-.16,1.22,1.22,0,0,1,.64.16,1.17,1.17,0,0,1,.44.47A1.73,1.73,0,0,1,210,16.12Zm-2,0a1.77,1.77,0,0,0,.08.55.7.7,0,0,0,.26.36.79.79,0,0,0,.45.12.76.76,0,0,0,.44-.12.7.7,0,0,0,.26-.36,1.77,1.77,0,0,0,.08-.55,1.71,1.71,0,0,0-.08-.54.68.68,0,0,0-.71-.47.66.66,0,0,0-.59.27A1.25,1.25,0,0,0,208,16.12Z"/><path class="cls-1" d="M212.83,14.79v2.68h-.36l-.06-.36h0a.69.69,0,0,1-.22.23,1,1,0,0,1-.3.14,1.24,1.24,0,0,1-.33,0,1.21,1.21,0,0,1-.54-.1.68.68,0,0,1-.33-.32,1.27,1.27,0,0,1-.11-.56V14.79H211v1.72a.66.66,0,0,0,.14.48.58.58,0,0,0,.45.16.8.8,0,0,0,.47-.11.57.57,0,0,0,.25-.33,1.62,1.62,0,0,0,.07-.53V14.79Z"/><path class="cls-1" d="M215.33,16.73a.73.73,0,0,1-.13.43.8.8,0,0,1-.37.27,1.62,1.62,0,0,1-.57.09,2.31,2.31,0,0,1-.49-.05,1.6,1.6,0,0,1-.35-.12V17a3,3,0,0,0,.38.15,1.89,1.89,0,0,0,.47.06.86.86,0,0,0,.48-.1.34.34,0,0,0,.15-.29.35.35,0,0,0-.05-.18.7.7,0,0,0-.2-.16l-.41-.18a3.75,3.75,0,0,1-.44-.2.89.89,0,0,1-.29-.24.57.57,0,0,1-.1-.36.6.6,0,0,1,.28-.53,1.32,1.32,0,0,1,.73-.18,2.14,2.14,0,0,1,.45,0,1.57,1.57,0,0,1,.4.13l-.15.35a2.06,2.06,0,0,0-.35-.12,1.65,1.65,0,0,0-.38-.05.82.82,0,0,0-.42.09.25.25,0,0,0-.14.23.25.25,0,0,0,.07.19.63.63,0,0,0,.21.15c.11.05.24.11.41.17a3.75,3.75,0,0,1,.44.2.8.8,0,0,1,.27.24A.69.69,0,0,1,215.33,16.73Z"/><path class="cls-1" d="M216.91,14.74a1.1,1.1,0,0,1,.59.15.91.91,0,0,1,.38.42A1.44,1.44,0,0,1,218,16v.26h-1.84a1.08,1.08,0,0,0,.23.7.82.82,0,0,0,.63.23,2,2,0,0,0,.45,0,2.49,2.49,0,0,0,.41-.14v.38a2.49,2.49,0,0,1-.41.14,2.17,2.17,0,0,1-.47,0,1.37,1.37,0,0,1-.68-.16,1.05,1.05,0,0,1-.45-.46,1.54,1.54,0,0,1-.16-.75,1.94,1.94,0,0,1,.14-.76,1.1,1.1,0,0,1,.42-.48A1.15,1.15,0,0,1,216.91,14.74Zm0,.36a.65.65,0,0,0-.5.2,1,1,0,0,0-.22.56h1.37a1.24,1.24,0,0,0-.07-.4.56.56,0,0,0-.22-.26A.57.57,0,0,0,216.91,15.1Z"/><path class="cls-1" d="M193.14,62.85l-1.28,3.57h-.45l-1.27-3.57h.47l.8,2.29c0,.1.07.19.1.28s.05.18.07.26l.06.24a1.05,1.05,0,0,1,.06-.24c0-.08,0-.17.07-.26l.09-.29.8-2.28Z"/><path class="cls-1" d="M193.79,62.74a.27.27,0,0,1,.18.07A.25.25,0,0,1,194,63a.28.28,0,0,1-.07.21.27.27,0,0,1-.18.07.25.25,0,0,1-.19-.07.28.28,0,0,1-.07-.21.25.25,0,0,1,.07-.21A.25.25,0,0,1,193.79,62.74Zm.21,1v2.68h-.44V63.74Z"/><path class="cls-1" d="M195.8,66.47a1,1,0,0,1-.8-.34,1.56,1.56,0,0,1-.3-1,1.5,1.5,0,0,1,.31-1,1,1,0,0,1,.8-.36,1,1,0,0,1,.36.06.69.69,0,0,1,.27.14,1.26,1.26,0,0,1,.2.2h0s0-.11,0-.19a1.79,1.79,0,0,1,0-.21V62.62h.44v3.8h-.36l-.06-.36h0a1,1,0,0,1-.2.21.87.87,0,0,1-.27.15A1,1,0,0,1,195.8,66.47Zm.07-.36a.7.7,0,0,0,.6-.23,1.16,1.16,0,0,0,.17-.71v-.08a1.46,1.46,0,0,0-.16-.76.66.66,0,0,0-.61-.27.57.57,0,0,0-.53.28,1.4,1.4,0,0,0-.18.76,1.28,1.28,0,0,0,.18.74A.58.58,0,0,0,195.87,66.11Z"/><path class="cls-1" d="M199,63.69a1.16,1.16,0,0,1,.6.15,1.06,1.06,0,0,1,.38.43,1.55,1.55,0,0,1,.13.64v.26h-1.84a1,1,0,0,0,.24.69.78.78,0,0,0,.62.24,2,2,0,0,0,.45,0,2.49,2.49,0,0,0,.41-.14v.39a2,2,0,0,1-.88.17,1.41,1.41,0,0,1-.67-.15,1.08,1.08,0,0,1-.46-.46,1.61,1.61,0,0,1-.16-.76,1.73,1.73,0,0,1,.15-.75,1.1,1.1,0,0,1,.41-.49A1.18,1.18,0,0,1,199,63.69Zm0,.36a.63.63,0,0,0-.5.21,1,1,0,0,0-.22.56h1.37a1.19,1.19,0,0,0-.07-.4.57.57,0,0,0-.58-.37Z"/><path class="cls-1" d="M203.08,65.08a1.78,1.78,0,0,1-.09.59,1.26,1.26,0,0,1-.25.44,1.05,1.05,0,0,1-.39.27,1.46,1.46,0,0,1-.52.09,1.3,1.3,0,0,1-.49-.09,1.05,1.05,0,0,1-.39-.27,1.28,1.28,0,0,1-.26-.44,1.78,1.78,0,0,1-.09-.59,1.67,1.67,0,0,1,.15-.75,1,1,0,0,1,.43-.47,1.35,1.35,0,0,1,1.31,0,1.09,1.09,0,0,1,.43.47A1.54,1.54,0,0,1,203.08,65.08Zm-2,0a1.55,1.55,0,0,0,.09.55.7.7,0,0,0,.25.35.73.73,0,0,0,.45.13.68.68,0,0,0,.44-.13.67.67,0,0,0,.26-.35,1.55,1.55,0,0,0,.08-.55,1.77,1.77,0,0,0-.08-.55.69.69,0,0,0-.26-.34.75.75,0,0,0-.45-.13.68.68,0,0,0-.59.27A1.26,1.26,0,0,0,201.05,65.08Z"/><path class="cls-1" d="M164.74,84.48h-1.42l-2-3-.65.51v2.53H159.4V77.61h1.23v3.23l.4-.49.4-.5,1.86-2.24h1.4l-2.53,3Z"/><path class="cls-1" d="M167.61,79.16a2.43,2.43,0,0,1,1.21.29,2,2,0,0,1,.79.81,2.74,2.74,0,0,1,.28,1.27v.62h-3.45a1.58,1.58,0,0,0,.39,1.1,1.38,1.38,0,0,0,1,.39,3.57,3.57,0,0,0,.91-.1,5.15,5.15,0,0,0,.83-.29v1a4,4,0,0,1-.8.27,4.78,4.78,0,0,1-1,.09,3,3,0,0,1-1.36-.3,2.08,2.08,0,0,1-.92-.89,3,3,0,0,1-.33-1.48,3.41,3.41,0,0,1,.3-1.51,2.09,2.09,0,0,1,.84-.92A2.46,2.46,0,0,1,167.61,79.16Zm0,.9a1,1,0,0,0-.78.31,1.53,1.53,0,0,0-.36.93h2.24a1.59,1.59,0,0,0-.12-.64.93.93,0,0,0-.36-.44A1.08,1.08,0,0,0,167.61,80.06Z"/><path class="cls-1" d="M170.14,79.26h1.31l1,2.95c0,.13.09.25.13.37l.09.36c0,.12,0,.24,0,.36h0c0-.16.07-.33.12-.52s.11-.39.17-.57l1-2.95h1.31l-2.22,5.91a3.24,3.24,0,0,1-.49.88,1.83,1.83,0,0,1-.69.55,2,2,0,0,1-.9.19l-.41,0-.31-.06v-1l.25,0,.31,0a1.05,1.05,0,0,0,.52-.12,1.16,1.16,0,0,0,.37-.33,2,2,0,0,0,.24-.48l.15-.42Z"/><path class="cls-1" d="M181.76,84.48l-1.89-5.63h0q0,.2,0,.54c0,.24,0,.49,0,.76s0,.53,0,.77v3.56H178.8V77.61h1.71l1.81,5.4h0l1.89-5.4H186v6.87h-1.17V80.86c0-.22,0-.46,0-.72s0-.5,0-.74,0-.41,0-.54h0l-2,5.62Z"/><path class="cls-1" d="M189.73,79.16a2.37,2.37,0,0,1,1.2.29,2,2,0,0,1,.79.81,2.62,2.62,0,0,1,.28,1.27v.62h-3.45a1.63,1.63,0,0,0,.4,1.1,1.36,1.36,0,0,0,1,.39,3.62,3.62,0,0,0,.91-.1,5.06,5.06,0,0,0,.82-.29v1a3.77,3.77,0,0,1-.8.27,4.78,4.78,0,0,1-1,.09,2.92,2.92,0,0,1-1.35-.3,2.05,2.05,0,0,1-.93-.89,3,3,0,0,1-.33-1.48,3.41,3.41,0,0,1,.3-1.51,2.17,2.17,0,0,1,.85-.92A2.46,2.46,0,0,1,189.73,79.16Zm0,.9a1,1,0,0,0-.79.31,1.53,1.53,0,0,0-.36.93h2.24a1.59,1.59,0,0,0-.12-.64.93.93,0,0,0-.36-.44A1,1,0,0,0,189.73,80.06Z"/><path class="cls-1" d="M195.33,84.58a2.79,2.79,0,0,1-1.29-.29,1.89,1.89,0,0,1-.83-.87,3.37,3.37,0,0,1-.3-1.52,3.29,3.29,0,0,1,.33-1.57,2,2,0,0,1,.89-.88,2.86,2.86,0,0,1,1.3-.29,3.78,3.78,0,0,1,.87.1,3.59,3.59,0,0,1,.66.23l-.36,1a4.69,4.69,0,0,0-.6-.2,2,2,0,0,0-.57-.08,1.25,1.25,0,0,0-.72.19,1.13,1.13,0,0,0-.42.57,2.93,2.93,0,0,0-.13,1,2.78,2.78,0,0,0,.13.93,1.25,1.25,0,0,0,.42.57,1.28,1.28,0,0,0,.7.18,2.68,2.68,0,0,0,.78-.1,3,3,0,0,0,.63-.29v1a2.1,2.1,0,0,1-.64.26A3.4,3.4,0,0,1,195.33,84.58Z"/><path class="cls-1" d="M199.26,78.91q0,.3,0,.6c0,.19,0,.34,0,.44h.08a1.42,1.42,0,0,1,.4-.44,1.69,1.69,0,0,1,.54-.26,2,2,0,0,1,.61-.09,2.25,2.25,0,0,1,1,.21,1.39,1.39,0,0,1,.65.62,2.3,2.3,0,0,1,.22,1.09v3.4h-1.21V81.32a1.44,1.44,0,0,0-.23-.88.86.86,0,0,0-.73-.29,1.29,1.29,0,0,0-.76.2,1.11,1.11,0,0,0-.4.61,3.9,3.9,0,0,0-.11,1v2.54H198V77.16h1.22Z"/><path class="cls-1" d="M206.31,79.16a2.35,2.35,0,0,1,1.53.44,1.71,1.71,0,0,1,.53,1.38v3.5h-.86l-.24-.72h0a2.85,2.85,0,0,1-.46.46,1.38,1.38,0,0,1-.54.27,2.55,2.55,0,0,1-.73.09,1.92,1.92,0,0,1-.84-.18,1.29,1.29,0,0,1-.58-.53,1.8,1.8,0,0,1-.21-.91,1.39,1.39,0,0,1,.59-1.22,3.45,3.45,0,0,1,1.8-.45l.9,0V81a.91.91,0,0,0-.24-.71,1,1,0,0,0-.67-.21,2.37,2.37,0,0,0-.76.12,6.18,6.18,0,0,0-.72.26l-.38-.84a3.66,3.66,0,0,1,.88-.33A4.42,4.42,0,0,1,206.31,79.16Zm.22,2.87a1.89,1.89,0,0,0-1.11.28.78.78,0,0,0-.31.66.61.61,0,0,0,.22.53.94.94,0,0,0,.57.16,1.4,1.4,0,0,0,.9-.3,1.1,1.1,0,0,0,.36-.9V82Z"/><path class="cls-1" d="M212.68,79.16a2,2,0,0,1,1.37.46,1.89,1.89,0,0,1,.5,1.46v3.4h-1.22V81.32a1.38,1.38,0,0,0-.23-.88.86.86,0,0,0-.73-.29,1.07,1.07,0,0,0-1,.45,2.67,2.67,0,0,0-.27,1.33v2.55h-1.21V79.26h.93L211,80h.07a1.81,1.81,0,0,1,.42-.45,1.88,1.88,0,0,1,.56-.25A2.3,2.3,0,0,1,212.68,79.16Z"/><path class="cls-1" d="M216.67,77.25a.82.82,0,0,1,.47.14.54.54,0,0,1,.21.49.56.56,0,0,1-.21.5.75.75,0,0,1-.47.15.76.76,0,0,1-.48-.15.58.58,0,0,1-.19-.5.56.56,0,0,1,.19-.49A.83.83,0,0,1,216.67,77.25Zm.61,2v5.22h-1.21V79.26Z"/><path class="cls-1" d="M222.38,83a1.41,1.41,0,0,1-1,1.42,3.39,3.39,0,0,1-1.18.19,5.19,5.19,0,0,1-1-.08,3.28,3.28,0,0,1-.75-.24v-1a5.74,5.74,0,0,0,.86.31,3.49,3.49,0,0,0,.87.12,1.35,1.35,0,0,0,.73-.15.51.51,0,0,0,.22-.42.49.49,0,0,0-.09-.28,1,1,0,0,0-.34-.26,7.6,7.6,0,0,0-.76-.35,5.84,5.84,0,0,1-.83-.41,1.36,1.36,0,0,1-.5-.48,1.42,1.42,0,0,1-.17-.72,1.18,1.18,0,0,1,.56-1.06,2.67,2.67,0,0,1,1.47-.37,4.37,4.37,0,0,1,.91.1,4.23,4.23,0,0,1,.87.29l-.39.9a5.08,5.08,0,0,0-.71-.26,2.15,2.15,0,0,0-.71-.11,1.17,1.17,0,0,0-.6.12.36.36,0,0,0-.2.33.43.43,0,0,0,.1.29,1,1,0,0,0,.35.24l.73.31a5.47,5.47,0,0,1,.8.38,1.37,1.37,0,0,1,.52.49A1.34,1.34,0,0,1,222.38,83Z"/><path class="cls-1" d="M229.53,79.16a1.8,1.8,0,0,1,1.33.46,2,2,0,0,1,.45,1.46v3.4h-1.22V81.31a1.51,1.51,0,0,0-.21-.87.77.77,0,0,0-.67-.29,1,1,0,0,0-.91.41,2.22,2.22,0,0,0-.27,1.2v2.72h-1.21V81.31a1.72,1.72,0,0,0-.1-.64.7.7,0,0,0-.29-.39.82.82,0,0,0-.5-.13,1.14,1.14,0,0,0-.7.2,1.12,1.12,0,0,0-.36.61,3.36,3.36,0,0,0-.11,1v2.55h-1.21V79.26h.93l.17.69h.07a1.58,1.58,0,0,1,.4-.45,1.62,1.62,0,0,1,.53-.25,2,2,0,0,1,.59-.09,2.27,2.27,0,0,1,1,.2,1.29,1.29,0,0,1,.61.61h.1a1.39,1.39,0,0,1,.68-.61A2.19,2.19,0,0,1,229.53,79.16Z"/><path class="cls-1" d="M236.38,83a1.41,1.41,0,0,1-1,1.42,3.41,3.41,0,0,1-1.19.19,5.07,5.07,0,0,1-.94-.08,3.28,3.28,0,0,1-.75-.24v-1a5.74,5.74,0,0,0,.86.31,3.49,3.49,0,0,0,.87.12,1.29,1.29,0,0,0,.72-.15.49.49,0,0,0,.14-.7,1,1,0,0,0-.34-.26,7.6,7.6,0,0,0-.76-.35,5.84,5.84,0,0,1-.83-.41,1.36,1.36,0,0,1-.5-.48,1.42,1.42,0,0,1-.17-.72,1.18,1.18,0,0,1,.56-1.06,2.67,2.67,0,0,1,1.47-.37,4.37,4.37,0,0,1,.91.1,4.15,4.15,0,0,1,.86.29l-.38.9a5.59,5.59,0,0,0-.71-.26,2.17,2.17,0,0,0-.72-.11,1.16,1.16,0,0,0-.59.12.37.37,0,0,0-.21.33.48.48,0,0,0,.1.29,1.11,1.11,0,0,0,.36.24l.73.31a5.47,5.47,0,0,1,.8.38,1.53,1.53,0,0,1,.52.49A1.34,1.34,0,0,1,236.38,83Z"/><path class="cls-1" d="M175.77,91.49a3.39,3.39,0,0,1-.18,1.15,2.29,2.29,0,0,1-.49.85,1.94,1.94,0,0,1-.79.53,2.89,2.89,0,0,1-1.05.18,2.63,2.63,0,0,1-1-.18,2,2,0,0,1-.78-.53,2.34,2.34,0,0,1-.52-.85,3.39,3.39,0,0,1-.18-1.15,3.26,3.26,0,0,1,.3-1.47,2.1,2.1,0,0,1,.86-.91,2.7,2.7,0,0,1,1.33-.32,2.57,2.57,0,0,1,1.29.32,2.13,2.13,0,0,1,.87.91A3.13,3.13,0,0,1,175.77,91.49Zm-3.73,0a3.23,3.23,0,0,0,.13.94,1.17,1.17,0,0,0,.41.59,1.18,1.18,0,0,0,.7.2A1.2,1.2,0,0,0,174,93a1.15,1.15,0,0,0,.4-.59,3.23,3.23,0,0,0,.13-.94,3.13,3.13,0,0,0-.13-.94,1.08,1.08,0,0,0-1.12-.78,1,1,0,0,0-.94.45A2.25,2.25,0,0,0,172,91.49Z"/><path class="cls-1" d="M179.72,89.8h-1.26v4.31h-1.21V89.8h-.84v-.57l.84-.35v-.36a2.24,2.24,0,0,1,.21-1.06,1.23,1.23,0,0,1,.62-.55,2.52,2.52,0,0,1,.95-.17,3.54,3.54,0,0,1,.69.06,4.35,4.35,0,0,1,.51.14l-.3.91-.36-.09a2,2,0,0,0-.43-.05.59.59,0,0,0-.51.23,1,1,0,0,0-.17.61v.34h1.26Z"/><path class="cls-1" d="M188.66,91.68a2.65,2.65,0,0,1-.31,1.29,2.14,2.14,0,0,1-.91.9,3.33,3.33,0,0,1-1.56.33,2.74,2.74,0,0,1-2-.7,2.5,2.5,0,0,1-.69-1.84V87.23h1.23v4.31a1.67,1.67,0,0,0,.39,1.22,1.54,1.54,0,0,0,1.14.39,1.89,1.89,0,0,0,.88-.18,1.15,1.15,0,0,0,.49-.55,2.4,2.4,0,0,0,.16-.89v-4.3h1.22Z"/><path class="cls-1" d="M194.4,92.23a1.85,1.85,0,0,1-.3,1,2,2,0,0,1-.86.68,3.46,3.46,0,0,1-1.35.24,5.33,5.33,0,0,1-.71,0,4.15,4.15,0,0,1-.65-.13,4.08,4.08,0,0,1-.56-.21V92.66a7,7,0,0,0,.95.35,3.49,3.49,0,0,0,1.06.16,1.67,1.67,0,0,0,.68-.11.81.81,0,0,0,.39-.31.84.84,0,0,0,.12-.45.72.72,0,0,0-.16-.49,1.61,1.61,0,0,0-.48-.38,7.56,7.56,0,0,0-.79-.37c-.21-.09-.42-.19-.62-.3a2.46,2.46,0,0,1-.55-.41,1.9,1.9,0,0,1-.38-.57A1.79,1.79,0,0,1,190,89a1.71,1.71,0,0,1,1.09-1.65,3,3,0,0,1,1.2-.22,4.28,4.28,0,0,1,1,.11,6,6,0,0,1,.95.33l-.4,1a6.12,6.12,0,0,0-.81-.29,3.21,3.21,0,0,0-.81-.1,1.34,1.34,0,0,0-.56.1.76.76,0,0,0-.35.28.83.83,0,0,0-.11.43.82.82,0,0,0,.14.47,1.77,1.77,0,0,0,.45.36c.2.11.46.24.78.38a5.92,5.92,0,0,1,1,.5,1.93,1.93,0,0,1,.59.62A1.73,1.73,0,0,1,194.4,92.23Z"/><path class="cls-1" d="M197.77,87.23a4.18,4.18,0,0,1,2,.39,1.39,1.39,0,0,1,.69,1.34,2,2,0,0,1-.13.71,1.35,1.35,0,0,1-.39.52,1.51,1.51,0,0,1-.63.27v.05a1.9,1.9,0,0,1,.68.24,1.18,1.18,0,0,1,.48.51,1.82,1.82,0,0,1,.18.87,1.85,1.85,0,0,1-.3,1.07,1.74,1.74,0,0,1-.85.67,3.26,3.26,0,0,1-1.31.24H195.7V87.23Zm.16,2.8a1.54,1.54,0,0,0,1-.23.81.81,0,0,0,.28-.68.73.73,0,0,0-.33-.67,2.14,2.14,0,0,0-1-.2h-.9V90Zm-1,1v2H198a1.5,1.5,0,0,0,1.05-.29,1.06,1.06,0,0,0,.29-.77,1.09,1.09,0,0,0-.12-.53.82.82,0,0,0-.44-.34A2.31,2.31,0,0,0,198,91Z"/><path class="cls-1" d="M209.92,94.11h-1.41l-2-3-.65.51v2.54h-1.23V87.23h1.23v3.24c.13-.16.26-.33.4-.49l.4-.5,1.86-2.25h1.4l-2.53,3Z"/><path class="cls-1" d="M216,87.23l-2.38,6.88H212.3l-2.38-6.88h1.26l1.39,4.21a3.52,3.52,0,0,1,.14.45l.15.56c0,.18.08.35.11.5a3.68,3.68,0,0,1,.1-.5c.05-.19.09-.38.15-.56s.09-.33.13-.45l1.39-4.21Z"/><path class="cls-1" d="M219.85,94.11,218,88.47h0c0,.13,0,.31,0,.55s0,.49,0,.76,0,.53,0,.76v3.57h-1.11V87.23h1.72l1.81,5.4h0l1.88-5.4h1.72v6.88h-1.18V90.49c0-.22,0-.46,0-.72s0-.51,0-.74,0-.42,0-.55h0l-2,5.63Z"/><rect class="cls-12" width="412.99" height="103.98"/></g></g></svg>