<svg xmlns="http://www.w3.org/2000/svg" xmlns:xlink="http://www.w3.org/1999/xlink" width="800" height="800" viewBox="0 0 800 800" fill="none">
<path d="M400.368 639.85C320.243 639.85 259.598 607.496 259.598 607.496C198.953 575.141 166.976 515.947 166.976 515.947C135 456.753 135 376.602 135 376.602C135 297.921 167.712 236.154 167.712 236.154C200.423 174.386 261.068 140.193 261.068 140.193C321.713 106 400.368 106 400.368 106C475.347 106 536.727 139.825 536.727 139.825C598.107 173.65 631.553 235.418 631.553 235.418C665 297.186 665 376.602 665 376.602C665 462.635 628.613 523.3 628.613 523.3C592.226 583.965 526.068 613.378 526.068 613.378C543.71 647.939 563.558 695 563.558 695L454.764 695C438.592 659.704 427.566 638.379 427.566 638.379C410.659 639.85 400.368 639.85 400.368 639.85ZM251.144 376.602C251.144 428.075 269.889 466.68 269.889 466.68C288.634 505.285 321.713 526.977 321.713 526.977C354.792 548.669 400.368 548.669 400.368 548.669C445.208 548.669 477.92 526.977 477.92 526.977C510.631 505.285 529.376 466.68 529.376 466.68C548.121 428.075 548.121 376.602 548.121 376.602C548.121 329.541 530.111 288.73 530.111 288.73C512.101 247.919 478.655 221.447 478.655 221.447C445.208 194.975 398.897 194.975 398.897 194.975C355.527 194.975 322.448 220.344 322.448 220.344C289.369 245.713 270.257 286.524 270.257 286.524C251.144 327.335 251.144 376.602 251.144 376.602Z"   fill="#000000" >
</path>
</svg>
