<svg xmlns="http://www.w3.org/2000/svg" viewBox="0 0 2261.99 592.87"><defs><style>.cls-1,.cls-2{fill:#fff;}.cls-2{fill-rule:evenodd;}</style></defs><g id="Layer_2" data-name="Layer 2"><g id="Layer_1-2" data-name="Layer 1"><path class="cls-1" d="M6,592.48V280.54H65.32l117,139.53L299.14,280.54h59.78V592.48h-52.7V353.33L182.33,501.08,58,353.78v238.7Z"/><path class="cls-1" d="M406.27,310.88v-52h51.56v52Zm0,281.6V341.22h51.56V592.48Z"/><path class="cls-1" d="M508.11,592.48V341.22H705.67a53,53,0,0,1,7.55.48,55.27,55.27,0,0,1,7.41,1.5,56.4,56.4,0,0,1,7.13,2.52,54.72,54.72,0,0,1,6.72,3.47,59.93,59.93,0,0,1,6.21,4.27,61,61,0,0,1,5.63,5,60.42,60.42,0,0,1,9.19,11.93,55.23,55.23,0,0,1,5.8,13.82,54.27,54.27,0,0,1,1.46,7.37,55.26,55.26,0,0,1,.45,7.49V592.48H711.66V401.26a7.37,7.37,0,0,0-.12-1.62,7.29,7.29,0,0,0-.45-1.56,7.8,7.8,0,0,0-.75-1.43,8.31,8.31,0,0,0-1-1.25,6.81,6.81,0,0,0-1.14-1,7.14,7.14,0,0,0-1.32-.75,8,8,0,0,0-1.44-.46,7.66,7.66,0,0,0-1.51-.15h-136a5.49,5.49,0,0,0-.81,0,9.14,9.14,0,0,0-1.6.29c-.26.08-.51.17-.77.27a6.89,6.89,0,0,0-.73.34,8.23,8.23,0,0,0-1.36.89,9.37,9.37,0,0,0-1.15,1.15,7.89,7.89,0,0,0-.49.65,9.79,9.79,0,0,0-.76,1.43c-.1.25-.19.51-.27.77a7.29,7.29,0,0,0-.31,1.59,7.32,7.32,0,0,0,0,.81V592.48Z"/><path class="cls-1" d="M809,310.88v-52h51.56v52Zm0,281.6V341.22h51.56V592.48Z"/><path class="cls-1" d="M906.61,490.24V438.67h175.06v51.57Z"/><path class="cls-1" d="M1129.72,592.48V280.54h52.45v130h79.72l108.73-130h58.5v12.75L1308.67,436.7l120.45,143.42v12.75h-58.5l-108.73-130h-79.72V592.48Z"/><path class="cls-1" d="M1646.11,592.48,1465.38,280.54H1526l144.28,250.88,144.79-250.88h60.22L1694.8,592.48Z"/><path class="cls-1" d="M1909.06,592.49V280.54h59.4L2085.4,420.07,2202,280.54h60v312h-52.45V353.33L2085.4,501.08l-124.34-147.3V592.49Z"/><path class="cls-2" d="M29.4,187.72a31.88,31.88,0,0,1-14.7-4A35.3,35.3,0,0,1,4,173c-4-6.71-4-14.76-4-14.76V75.82A31.93,31.93,0,0,1,4,61.08,35,35,0,0,1,14.7,50.35c6.68-4,14.7-4,14.7-4H114a32.12,32.12,0,0,1,15,4,35.16,35.16,0,0,1,10.69,10.73c4,6.69,4,14.74,4,14.74v82.4a32.17,32.17,0,0,1-4,14.76,35.41,35.41,0,0,1-10.69,10.73c-6.68,4-15,4-15,4Zm0-20H114a9.56,9.56,0,0,0,9.48-9.52V75.82a10.5,10.5,0,0,0-2.79-6.71A10.39,10.39,0,0,0,114,66.32H29.4a10.44,10.44,0,0,0-6.68,2.79,10.44,10.44,0,0,0-2.79,6.71v82.4a10.5,10.5,0,0,0,2.79,6.71,10.33,10.33,0,0,0,6.68,2.81m139.47,76V46.32H283.06a31.76,31.76,0,0,1,14.7,4,35.16,35.16,0,0,1,10.69,10.73c4,6.69,4,14.74,4,14.74v82.4a32.11,32.11,0,0,1-4,14.76,35.41,35.41,0,0,1-10.69,10.73c-6.68,4-14.7,4-14.7,4H188.79v56.07Zm29.64-76h84.55a9.58,9.58,0,0,0,9.48-9.52V75.82a10.48,10.48,0,0,0-2.8-6.71,10.36,10.36,0,0,0-6.68-2.79H198.51a10.91,10.91,0,0,0-6.8,2.79,10.17,10.17,0,0,0-2.92,6.71v82.4a10.31,10.31,0,0,0,2.92,6.71,10.73,10.73,0,0,0,6.8,2.81m160.36,20a31.94,31.94,0,0,1-14.71-4A35.3,35.3,0,0,1,333.48,173c-4-6.71-4-14.76-4-14.76V75.82a31.93,31.93,0,0,1,4-14.74,35,35,0,0,1,10.68-10.73c6.69-4,14.71-4,14.71-4h84.55a32.17,32.17,0,0,1,14.95,4,35.06,35.06,0,0,1,10.68,10.73c4,6.69,4,14.74,4,14.74V127H349.39v31.21a10.5,10.5,0,0,0,2.79,6.71,10.35,10.35,0,0,0,6.69,2.81H473.05v20ZM349.39,107h103.5V75.82a10.5,10.5,0,0,0-2.79-6.71,10.37,10.37,0,0,0-6.68-2.79H358.87a9.53,9.53,0,0,0-9.48,9.5Zm148.93,80.69V46.32h114.2a31.76,31.76,0,0,1,14.7,4,35,35,0,0,1,10.69,10.73c4,6.69,4,14.74,4,14.74v111.9H622V75.82a10.48,10.48,0,0,0-2.8-6.71,10.36,10.36,0,0,0-6.68-2.79H528a10.91,10.91,0,0,0-6.8,2.79,10.17,10.17,0,0,0-2.92,6.71v111.9Zm198.28,0a32.23,32.23,0,0,1-15-4A34.21,34.21,0,0,1,671.08,173c-3.89-6.71-3.89-14.76-3.89-14.76V0h19.93V46.32h61v20h-61v91.9a10.52,10.52,0,0,0,2.78,6.71,10.35,10.35,0,0,0,6.7,2.81h51.49v20Zm99.12,0a31.88,31.88,0,0,1-14.7-4A35.26,35.26,0,0,1,770.33,173c-4-6.71-4-14.76-4-14.76V75.82a31.93,31.93,0,0,1,4-14.74A35,35,0,0,1,781,50.35c6.68-4,14.7-4,14.7-4h84.55a32.12,32.12,0,0,1,15,4A35.06,35.06,0,0,1,905.9,61.08c4,6.69,4,14.74,4,14.74V127H786.24v31.21a10.48,10.48,0,0,0,2.8,6.71,10.31,10.31,0,0,0,6.68,2.81H909.9v20ZM786.24,107H889.75V75.82a10.48,10.48,0,0,0-2.8-6.71,10.36,10.36,0,0,0-6.68-2.79H795.72a9.54,9.54,0,0,0-9.48,9.5Zm148.45,80.69V75.82a31.93,31.93,0,0,1,4-14.74,35,35,0,0,1,10.68-10.73c6.69-4,14.71-4,14.71-4h79.21v20H964.1a9.53,9.53,0,0,0-9.48,9.5v111.9Zm124.64,0V29.5a33.12,33.12,0,0,1,3.89-15A32.8,32.8,0,0,1,1073.8,3.9c6.68-3.9,14.93-3.9,14.93-3.9h51.51V20h-51.51a10.43,10.43,0,0,0-6.68,2.8,10.44,10.44,0,0,0-2.79,6.71V46.32h61v20h-61v121.4Zm128.05,0a31.88,31.88,0,0,1-14.7-4A35.26,35.26,0,0,1,1162,173c-4-6.71-4-14.76-4-14.76V107h123.45V75.82a10.47,10.47,0,0,0-2.81-6.71,10.32,10.32,0,0,0-6.67-2.79H1158v-20h114a32.15,32.15,0,0,1,14.94,4,35.06,35.06,0,0,1,10.68,10.73c4,6.69,4,14.74,4,14.74v111.9Zm0-20h94V127H1177.9v31.21a10.5,10.5,0,0,0,2.79,6.71,10.35,10.35,0,0,0,6.69,2.81m168.37,20a32,32,0,0,1-14.7-4A35.3,35.3,0,0,1,1330.37,173c-4-6.71-4-14.76-4-14.76V75.82a31.93,31.93,0,0,1,4-14.74,35,35,0,0,1,10.68-10.73,32.11,32.11,0,0,1,14.7-4h113.72v20H1355.75a9.53,9.53,0,0,0-9.47,9.5v82.4a10.5,10.5,0,0,0,2.79,6.71,10.33,10.33,0,0,0,6.68,2.81h114.19v20Zm168.86,0a31.93,31.93,0,0,1-14.7-4A35.44,35.44,0,0,1,1499.23,173c-4-6.71-4-14.76-4-14.76V75.82a32,32,0,0,1,4-14.74,35.16,35.16,0,0,1,10.68-10.73,32.09,32.09,0,0,1,14.7-4h84.55a32.12,32.12,0,0,1,14.95,4,35.06,35.06,0,0,1,10.68,10.73c4,6.69,4,14.74,4,14.74V127H1515.13v31.21a10.48,10.48,0,0,0,2.8,6.71,10.35,10.35,0,0,0,6.68,2.81h114.2v20ZM1515.13,107h103.51V75.82a10.48,10.48,0,0,0-2.8-6.71,10.34,10.34,0,0,0-6.68-2.79h-84.55a9.54,9.54,0,0,0-9.48,9.5Z"/></g></g></svg>