<?xml version="1.0" encoding="UTF-8" standalone="no"?>
<svg
   xmlns:dc="http://purl.org/dc/elements/1.1/"
   xmlns:cc="http://creativecommons.org/ns#"
   xmlns:rdf="http://www.w3.org/1999/02/22-rdf-syntax-ns#"
   xmlns:svg="http://www.w3.org/2000/svg"
   xmlns="http://www.w3.org/2000/svg"
   viewBox="0 0 12.598413 9.4488134"
   height="9.4488134"
   width="12.598413"
   xml:space="preserve"
   id="svg2"
   version="1.1"><metadata
     id="metadata8"><rdf:RDF><cc:Work
         rdf:about=""><dc:format>image/svg+xml</dc:format><dc:type
           rdf:resource="http://purl.org/dc/dcmitype/StillImage" /></cc:Work></rdf:RDF></metadata><defs
     id="defs6"><clipPath
       id="clipPath18"
       clipPathUnits="userSpaceOnUse"><path
         id="path16"
         d="M 0,7.087 H 9.449 V 0 H 0 Z" /></clipPath></defs><g
     transform="matrix(1.3333333,0,0,-1.3333333,0,9.4488133)"
     id="g10"><g
       id="g12"><g
         clip-path="url(#clipPath18)"
         id="g14"><g
           transform="translate(2e-4,0.8857)"
           id="g20"><path
             id="path22"
             style="fill:#ffffff;fill-opacity:1;fill-rule:nonzero;stroke:none"
             d="m 0,0 h 9.448 c 0,-0.489 -0.396,-0.886 -0.885,-0.886 H 0.886 C 0.396,-0.886 0,-0.489 0,0 m 1.477,6.201 c -0.49,0 -0.886,-0.396 -0.886,-0.886 v -5.02 h 8.267 v 5.02 c 0,0.49 -0.396,0.886 -0.885,0.886 z M 7.973,5.61 c 0.163,0 0.295,-0.131 0.295,-0.295 V 0.886 H 1.181 v 4.429 c 0,0.164 0.132,0.295 0.296,0.295 z" /></g><g
           transform="translate(5.8723,2.6523)"
           id="g24"><path
             id="path26"
             style="fill:#ffffff;fill-opacity:1;fill-rule:nonzero;stroke:none"
             d="M 0,0 H -0.6 V 1.223 H -1.723 V 0 h -0.599 v 2.835 h 0.599 V 1.723 H -0.6 V 2.835 H 0 Z" /></g></g></g></g></svg>