<svg xmlns="http://www.w3.org/2000/svg" xmlns:xlink="http://www.w3.org/1999/xlink" version="1.1" width="15.2754" height="5.72461" viewBox="0 0 15.2754 5.72461">
<defs>
<clipPath id="clip_0">
<path transform="matrix(1,0,0,-1,0,5.72461)" d="M0 5.725H15.275V0H0Z"/>
</clipPath>
</defs>
<path transform="matrix(1,0,0,-1,0,.0006098747)" d="M0 0V-.517L.521-.755V-3.528L0-3.768V-4.284H1.949V-3.768L1.427-3.528V-.755L1.949-.517V0Z" fill="#ffffff"/>
<g clip-path="url(#clip_0)">
<path transform="matrix(1,0,0,-1,4.2293,.9485097)" d="M0 0C.352 0 .634-.095 .846-.285 1.058-.475 1.164-.78 1.164-1.2V-3.336H.27V-1.422C.27-1.186 .228-1.009 .144-.891 .06-.773-.074-.714-.258-.714-.53-.714-.716-.807-.816-.993-.916-1.179-.966-1.446-.966-1.794V-3.336H-1.86V-.06H-1.176L-1.056-.479H-1.008C-.937-.368-.849-.277-.744-.207-.641-.137-.524-.085-.396-.051-.269-.017-.136 0 0 0" fill="#ffffff"/>
<path transform="matrix(1,0,0,-1,7.6073,1.6624098)" d="M0 0C-.156 0-.28-.032-.372-.096-.464-.16-.531-.257-.573-.387-.615-.518-.638-.68-.642-.876V-.972C-.642-1.185-.622-1.363-.582-1.509-.542-1.655-.474-1.767-.378-1.842-.282-1.918-.152-1.956 .012-1.956 .148-1.956 .26-1.918 .348-1.842 .436-1.767 .502-1.654 .546-1.506 .59-1.358 .612-1.178 .612-.966 .612-.646 .563-.405 .465-.243 .367-.081 .212 0 0 0M.288 .714C.656 .714 .954 .571 1.182 .285 1.41-.001 1.524-.422 1.524-.979 1.524-1.35 1.47-1.663 1.362-1.917 1.254-2.171 1.106-2.362 .918-2.49 .73-2.618 .512-2.682 .264-2.682 .108-2.682-.027-2.662-.141-2.622-.255-2.582-.352-2.53-.432-2.466-.512-2.402-.582-2.334-.642-2.262H-.689C-.674-2.338-.662-2.417-.654-2.499-.646-2.581-.642-2.662-.642-2.742V-4.062H-1.536V.654H-.81L-.684 .228H-.642C-.582 .315-.51 .396-.426 .471-.342 .545-.241 .604-.123 .647-.005 .692 .132 .714 .288 .714" fill="#ffffff"/>
<path transform="matrix(1,0,0,-1,12.6346,1.00811)" d="M0 0V-3.276H-.684L-.804-2.856H-.852C-.92-2.969-1.007-3.06-1.112-3.129-1.219-3.199-1.336-3.251-1.464-3.285-1.592-3.319-1.724-3.336-1.859-3.336-2.092-3.336-2.296-3.294-2.472-3.21-2.647-3.126-2.783-2.996-2.88-2.82-2.976-2.645-3.023-2.416-3.023-2.137V0H-2.13V-1.914C-2.13-2.146-2.088-2.322-2.004-2.442-1.92-2.563-1.786-2.622-1.602-2.622-1.418-2.622-1.274-2.58-1.173-2.496-1.07-2.412-.999-2.29-.957-2.13-.915-1.971-.894-1.774-.894-1.542V0Z" fill="#ffffff"/>
<path transform="matrix(1,0,0,-1,14.7108,3.63021)" d="M0 0C.101 0 .196 .01 .288 .029 .38 .05 .473 .073 .564 .102V-.564C.469-.604 .35-.64 .207-.669 .065-.699-.09-.714-.258-.714-.454-.714-.629-.683-.782-.618-.937-.555-1.059-.443-1.148-.285-1.238-.127-1.283 .092-1.283 .372V1.949H-1.71V2.328L-1.218 2.628-.96 3.317H-.39V2.622H.528V1.949H-.39V.372C-.39 .248-.354 .154-.281 .093-.21 .03-.115 0 0 0" fill="#ffffff"/>
</g>
</svg>
