<svg xmlns="http://www.w3.org/2000/svg" viewBox="0 0 19.9 14.17"><defs><style>.cls-1{isolation:isolate;}</style></defs><g id="Layer_2" data-name="Layer 2"><g id="oth"><g id="stacked-template1"><g id="logo"><path d="M0,1.18v9.18H19.9V1.18h-.8V9.55H.81V2H16.36V1.18Z"/><path d="M4.67,5.87a3.6,3.6,0,0,0-.22-1.49.72.72,0,0,0-.7-.44.72.72,0,0,0-.69.44,3.78,3.78,0,0,0-.22,1.49,3.72,3.72,0,0,0,.22,1.48.71.71,0,0,0,.69.45.72.72,0,0,0,.7-.45,3.52,3.52,0,0,0,.22-1.48m.66,0a3.47,3.47,0,0,1-.39,1.84,1.32,1.32,0,0,1-1.19.61,1.32,1.32,0,0,1-1.18-.61,3.43,3.43,0,0,1-.39-1.84A3.45,3.45,0,0,1,2.57,4a1.3,1.3,0,0,1,1.18-.61A1.3,1.3,0,0,1,4.94,4a3.45,3.45,0,0,1,.39,1.84"/><path d="M8.9,3.67v.65A2.62,2.62,0,0,0,8.32,4a2,2,0,0,0-.59-.09A1.14,1.14,0,0,0,7,4.15a.7.7,0,0,0-.26.57.63.63,0,0,0,.17.47,1.42,1.42,0,0,0,.65.28l.33.07a1.92,1.92,0,0,1,1,.49,1.3,1.3,0,0,1,.3.91,1.26,1.26,0,0,1-.42,1,1.78,1.78,0,0,1-1.21.36,3.14,3.14,0,0,1-.67-.08A3,3,0,0,1,6.2,8V7.35a2.75,2.75,0,0,0,.69.34,2.06,2.06,0,0,0,.65.11,1.14,1.14,0,0,0,.75-.22A.72.72,0,0,0,8.56,7a.73.73,0,0,0-.18-.54,1.31,1.31,0,0,0-.65-.29l-.34-.08a1.92,1.92,0,0,1-.95-.45,1.09,1.09,0,0,1-.3-.81,1.28,1.28,0,0,1,.43-1A1.64,1.64,0,0,1,7.7,3.42a2.91,2.91,0,0,1,.57.06,4.44,4.44,0,0,1,.63.19"/><path d="M10,3.51h.64V5.44h1.75V3.51h.64V8.22h-.64V6H10.67V8.22H10V3.51"/><path d="M13.49,3.51h.62l.45,3.83L15.1,4.8h.67l.54,2.54L17.84,0h.62L16.68,8.22h-.6l-.64-2.8-.64,2.8h-.61l-.7-4.71"/></g><g class="cls-1"><path d="M2.49,14a1,1,0,0,1-.31.12,1.19,1.19,0,0,1-.33,0A1,1,0,0,1,1,13.78a1.71,1.71,0,0,1-.31-1.1A1.71,1.71,0,0,1,1,11.58a1,1,0,0,1,.86-.4,1.19,1.19,0,0,1,.33,0,2,2,0,0,1,.31.12v.4a1.09,1.09,0,0,0-.31-.18,1,1,0,0,0-.33-.06.63.63,0,0,0-.57.29,1.64,1.64,0,0,0-.19.89,1.6,1.6,0,0,0,.19.88.62.62,0,0,0,.57.3.78.78,0,0,0,.33-.07,1.09,1.09,0,0,0,.31-.18Z"/><path d="M3.06,11.23h.5l1,2.38V11.23h.38v2.89h-.5l-1-2.38v2.38H3.06Z"/><path d="M6.37,11.18a.76.76,0,0,1,.69.38,2.09,2.09,0,0,1,.24,1.12,2.08,2.08,0,0,1-.24,1.11.75.75,0,0,1-.69.38.76.76,0,0,1-.7-.38,2.08,2.08,0,0,1-.24-1.11,2.09,2.09,0,0,1,.24-1.12A.78.78,0,0,1,6.37,11.18Zm0,.31a.43.43,0,0,0-.41.29,2.31,2.31,0,0,0-.13.9,2.25,2.25,0,0,0,.13.89.42.42,0,0,0,.41.29.41.41,0,0,0,.4-.29,2.23,2.23,0,0,0,.14-.89,2.28,2.28,0,0,0-.14-.9A.42.42,0,0,0,6.37,11.49Zm-.26,1.18a.28.28,0,0,1,.07-.19.24.24,0,0,1,.18-.07.26.26,0,0,1,.19.07.29.29,0,0,1,.08.19.25.25,0,0,1-.08.18.26.26,0,0,1-.19.08.25.25,0,0,1-.18-.08A.24.24,0,0,1,6.11,12.67Z"/><path d="M8.75,11.18a.78.78,0,0,1,.7.38,2.2,2.2,0,0,1,.23,1.12,2.19,2.19,0,0,1-.23,1.11.83.83,0,0,1-1.4,0,2.09,2.09,0,0,1-.23-1.11,2.1,2.1,0,0,1,.23-1.12A.78.78,0,0,1,8.75,11.18Zm0,.31a.44.44,0,0,0-.41.29,2.31,2.31,0,0,0-.13.9,2.25,2.25,0,0,0,.13.89.43.43,0,0,0,.82,0,2.25,2.25,0,0,0,.13-.89,2.31,2.31,0,0,0-.13-.9A.44.44,0,0,0,8.75,11.49Zm-.26,1.18a.29.29,0,0,1,.08-.19.22.22,0,0,1,.17-.07.25.25,0,0,1,.19.07.29.29,0,0,1,.08.19.25.25,0,0,1-.08.18.26.26,0,0,1-.19.08.25.25,0,0,1-.18-.08A.29.29,0,0,1,8.49,12.67Z"/><path d="M11.13,11.18a.78.78,0,0,1,.7.38,2.09,2.09,0,0,1,.24,1.12,2.08,2.08,0,0,1-.24,1.11.83.83,0,0,1-1.4,0,2.19,2.19,0,0,1-.23-1.11,2.2,2.2,0,0,1,.23-1.12A.78.78,0,0,1,11.13,11.18Zm0,.31a.44.44,0,0,0-.41.29,2.31,2.31,0,0,0-.13.9,2.25,2.25,0,0,0,.13.89.43.43,0,0,0,.82,0,2.25,2.25,0,0,0,.13-.89,2.31,2.31,0,0,0-.13-.9A.44.44,0,0,0,11.13,11.49Zm-.26,1.18a.29.29,0,0,1,.08-.19.27.27,0,0,1,.36,0,.29.29,0,0,1,.08.19.27.27,0,0,1-.26.26.22.22,0,0,1-.18-.08A.25.25,0,0,1,10.87,12.67Z"/><path d="M13.51,11.18a.78.78,0,0,1,.7.38,2.09,2.09,0,0,1,.24,1.12,2.08,2.08,0,0,1-.24,1.11.83.83,0,0,1-1.4,0,2.19,2.19,0,0,1-.23-1.11,2.2,2.2,0,0,1,.23-1.12A.78.78,0,0,1,13.51,11.18Zm0,.31a.43.43,0,0,0-.4.29,2.28,2.28,0,0,0-.14.9,2.23,2.23,0,0,0,.14.89.43.43,0,0,0,.81,0,2.23,2.23,0,0,0,.14-.89,2.28,2.28,0,0,0-.14-.9A.43.43,0,0,0,13.51,11.49Zm-.25,1.18a.28.28,0,0,1,.07-.19.27.27,0,0,1,.36,0,.25.25,0,0,1,.08.19.22.22,0,0,1-.08.18.24.24,0,0,1-.36,0A.24.24,0,0,1,13.26,12.67Z"/><path d="M15.23,13.79h.6V11.58l-.65.15v-.35l.65-.15h.39v2.56h.6v.33H15.23Z"/><path d="M17.49,11.23H19v.33H17.84v.71l.17,0h.17a1,1,0,0,1,.71.27,1,1,0,0,1,.26.71.94.94,0,0,1-.27.72,1,1,0,0,1-.76.26,2.77,2.77,0,0,1-.42,0,1.69,1.69,0,0,1-.34-.09v-.4a1.38,1.38,0,0,0,.36.15,1.5,1.5,0,0,0,.37,0,.64.64,0,0,0,.49-.17.62.62,0,0,0,.18-.48.65.65,0,0,0-.18-.48.72.72,0,0,0-.5-.17,1.55,1.55,0,0,0-.31,0,1.36,1.36,0,0,0-.28.11Z"/></g></g></g></g></svg>