<svg xmlns="http://www.w3.org/2000/svg" viewBox="0 0 14.15 18.43"><g id="Layer_2" data-name="Layer 2"><g id="oth"><g id="surface480"><path id="path2" d="M8,9.1A2.16,2.16,0,0,0,9.45,6.83a2.31,2.31,0,0,0-4.62,0A2.25,2.25,0,0,0,6.35,9.14l-1.64,4A6.61,6.61,0,0,1,.29,6.83a6.85,6.85,0,0,1,13.7,0,6.55,6.55,0,0,1-4.44,6.35Z"/></g><g id="flowRoot3742"><path id="path3756" d="M1.31,15.18a.72.72,0,0,1-.18.53.59.59,0,0,1-.48.19.58.58,0,0,1-.47-.19A.76.76,0,0,1,0,15.18a.78.78,0,0,1,.17-.53.66.66,0,0,1,.49-.19.64.64,0,0,1,.34.09.62.62,0,0,1,.23.25A.92.92,0,0,1,1.31,15.18Zm-.85,0a.72.72,0,0,0,0,.28.17.17,0,0,0,.16.09.13.13,0,0,0,.14-.09.7.7,0,0,0,0-.28.62.62,0,0,0,0-.27.16.16,0,0,0-.15-.09.16.16,0,0,0-.15.09A.64.64,0,0,0,.46,15.18Z"/><path id="path3758" d="M2.35,15.9a.57.57,0,0,1-.18,0A.44.44,0,0,1,2,15.74H2c0,.1,0,.16,0,.19v.55H1.57v-2h.36l.07.18H2a.38.38,0,0,1,.35-.21.4.4,0,0,1,.34.2,1,1,0,0,1,.12.52.9.9,0,0,1-.13.53A.39.39,0,0,1,2.35,15.9ZM2.2,14.84a.15.15,0,0,0-.14.08.43.43,0,0,0,0,.22v0a.59.59,0,0,0,0,.26.16.16,0,0,0,.15.08.14.14,0,0,0,.12-.08.86.86,0,0,0,0-.52A.14.14,0,0,0,2.2,14.84Z"/><path id="path3760" d="M3.72,15.9a.69.69,0,0,1-.51-.18A.72.72,0,0,1,3,15.19a.81.81,0,0,1,.17-.54.62.62,0,0,1,.48-.19.58.58,0,0,1,.45.17.64.64,0,0,1,.17.47v.21H3.49a.26.26,0,0,0,.08.19.33.33,0,0,0,.21.06.71.71,0,0,0,.21,0,1.19,1.19,0,0,0,.22-.08v.34a.58.58,0,0,1-.22.08A1.06,1.06,0,0,1,3.72,15.9Zm0-1.11a.18.18,0,0,0-.13.06A.2.2,0,0,0,3.5,15h.39a.26.26,0,0,0-.06-.16A.17.17,0,0,0,3.69,14.79Z"/><path id="path3762" d="M5.38,15.88v-.76a.41.41,0,0,0,0-.21.13.13,0,0,0-.12-.07.16.16,0,0,0-.16.1.66.66,0,0,0,0,.33v.61H4.55V14.49H4.9l0,.17H5a.46.46,0,0,1,.16-.15.6.6,0,0,1,.24,0,.42.42,0,0,1,.33.14.54.54,0,0,1,.12.38v.9Z"/><path id="path3764" d="M7.66,15.49a.37.37,0,0,1-.14.31.63.63,0,0,1-.39.1.81.81,0,0,1-.41-.08v-.25a.88.88,0,0,0,.42.11c.16,0,.25,0,.25-.16a.11.11,0,0,0,0-.08.22.22,0,0,0-.09-.07l-.18-.09a.78.78,0,0,1-.3-.18.36.36,0,0,1-.08-.24.33.33,0,0,1,.14-.27.64.64,0,0,1,.36-.09,1,1,0,0,1,.42.09l-.08.22a1,1,0,0,0-.35-.09c-.15,0-.22,0-.22.13A.14.14,0,0,0,7,15l.24.12a.68.68,0,0,1,.23.12.33.33,0,0,1,.11.13A.38.38,0,0,1,7.66,15.49Z"/><path id="path3766" d="M9.08,15.2a.77.77,0,0,1-.16.52.57.57,0,0,1-.45.18.53.53,0,0,1-.31-.08A.58.58,0,0,1,8,15.57a.87.87,0,0,1-.08-.37A.77.77,0,0,1,8,14.68a.58.58,0,0,1,.45-.18.53.53,0,0,1,.44.19A.73.73,0,0,1,9.08,15.2Zm-.93,0c0,.31.11.47.33.47s.32-.16.32-.47-.11-.47-.32-.47a.27.27,0,0,0-.25.12A.67.67,0,0,0,8.15,15.2Z"/><path id="path3768" d="M10.3,15.88l0-.18h0a.42.42,0,0,1-.17.15.41.41,0,0,1-.23.05.46.46,0,0,1-.35-.12.5.5,0,0,1-.12-.37v-.89h.28v.84a.37.37,0,0,0,.06.23.2.2,0,0,0,.19.08.27.27,0,0,0,.25-.11.64.64,0,0,0,.08-.36v-.68h.27v1.36Z"/><path id="path3770" d="M11.55,14.5h.13l0,.27-.12,0a.34.34,0,0,0-.27.12.44.44,0,0,0-.1.29v.71H10.9V14.52h.21l0,.24h0a.63.63,0,0,1,.17-.19A.36.36,0,0,1,11.55,14.5Z"/><path id="path3772" d="M12.44,15.9a.57.57,0,0,1-.44-.17,1,1,0,0,1,0-1.05.59.59,0,0,1,.46-.18.75.75,0,0,1,.37.08l-.09.23a.71.71,0,0,0-.28-.07c-.22,0-.33.15-.33.47a.55.55,0,0,0,.08.34.27.27,0,0,0,.24.11.73.73,0,0,0,.35-.09v.25a.52.52,0,0,1-.16.06A.62.62,0,0,1,12.44,15.9Z"/><path id="path3774" d="M13.66,15.9a.61.61,0,0,1-.47-.18.73.73,0,0,1-.17-.51.75.75,0,0,1,.16-.52.51.51,0,0,1,.43-.19.51.51,0,0,1,.4.16.64.64,0,0,1,.14.45v.16H13.3a.51.51,0,0,0,.1.3.37.37,0,0,0,.27.11.66.66,0,0,0,.21,0,.86.86,0,0,0,.21-.07v.23a.48.48,0,0,1-.2.07A.86.86,0,0,1,13.66,15.9Zm-.05-1.18a.29.29,0,0,0-.21.08.47.47,0,0,0-.09.26h.58a.4.4,0,0,0-.08-.26A.28.28,0,0,0,13.61,14.72Z"/><path id="path3776" d="M2.54,18.4H2.27V17h.27Zm-.29-1.72a.21.21,0,0,1,0-.12.21.21,0,0,1,.12,0,.18.18,0,0,1,.11,0,.2.2,0,0,1,0,.24.14.14,0,0,1-.11,0,.16.16,0,0,1-.12,0A.21.21,0,0,1,2.25,16.68Z"/><path id="path3778" d="M4.06,18.4H3.78v-.83a.38.38,0,0,0-.06-.24.22.22,0,0,0-.18-.08.32.32,0,0,0-.26.11.64.64,0,0,0-.08.36v.68H2.93V17h.21l0,.18h0a.46.46,0,0,1,.16-.15A.6.6,0,0,1,3.6,17c.3,0,.46.16.46.5Z"/><path id="path3780" d="M4.71,18.4H4.44V17h.27Zm-.29-1.72a.16.16,0,0,1,0-.12.18.18,0,0,1,.11,0,.17.17,0,0,1,.11.28.12.12,0,0,1-.11,0,.14.14,0,0,1-.11,0A.16.16,0,0,1,4.42,16.68Z"/><path id="path3782" d="M5.57,18.19a.64.64,0,0,0,.2,0v.22l-.11,0-.15,0c-.26,0-.39-.15-.39-.44v-.73H5v-.13l.19-.1.09-.29H5.4V17h.36v.22H5.4V18a.21.21,0,0,0,0,.15A.17.17,0,0,0,5.57,18.19Z"/><path id="path3784" d="M6.3,18.4H6V17H6.3ZM6,16.68a.16.16,0,0,1,0-.12.21.21,0,0,1,.12,0,.21.21,0,0,1,.11,0,.2.2,0,0,1,0,.24.15.15,0,0,1-.11,0A.14.14,0,0,1,6,16.68Z"/><path id="path3786" d="M7.49,18.4l0-.19h0a.7.7,0,0,1-.19.17.54.54,0,0,1-.24.05.42.42,0,0,1-.3-.11A.43.43,0,0,1,6.6,18a.38.38,0,0,1,.15-.32.73.73,0,0,1,.44-.11h.22V17.5a.3.3,0,0,0,0-.2.24.24,0,0,0-.18-.06.58.58,0,0,0-.19,0l-.17.07-.09-.2A.92.92,0,0,1,7,17.05l.23,0a.56.56,0,0,1,.37.11.47.47,0,0,1,.12.36v.91Zm-.4-.2a.31.31,0,0,0,.23-.08.33.33,0,0,0,.09-.25v-.12H7.25a.5.5,0,0,0-.28.07.2.2,0,0,0-.09.18.25.25,0,0,0,0,.15A.25.25,0,0,0,7.09,18.2Z"/><path id="path3788" d="M8.54,18.19a.69.69,0,0,0,.2,0v.22l-.12,0-.14,0c-.26,0-.39-.15-.39-.44v-.73H7.91v-.13L8.1,17l.09-.29h.17V17h.37v.22H8.36V18a.21.21,0,0,0,.05.15A.15.15,0,0,0,8.54,18.19Z"/><path id="path3790" d="M9.27,18.4H9V17h.28ZM9,16.68a.15.15,0,1,1,.26.12.17.17,0,0,1-.22,0A.16.16,0,0,1,9,16.68Z"/><path id="path3792" d="M10,18.4,9.46,17h.29l.26.79a2.11,2.11,0,0,1,.08.32h0a2.78,2.78,0,0,1,.08-.32l.26-.79h.29l-.49,1.36Z"/><path id="path3794" d="M11.48,18.43a.59.59,0,0,1-.46-.19.69.69,0,0,1-.17-.51.82.82,0,0,1,.15-.52.53.53,0,0,1,.43-.19.49.49,0,0,1,.4.16.64.64,0,0,1,.15.45v.16h-.85a.4.4,0,0,0,.1.3.34.34,0,0,0,.27.11.76.76,0,0,0,.21,0l.21-.07v.23a.6.6,0,0,1-.2.07A.88.88,0,0,1,11.48,18.43Zm-.05-1.19a.32.32,0,0,0-.21.08.47.47,0,0,0-.09.26h.58a.4.4,0,0,0-.07-.26A.29.29,0,0,0,11.43,17.24Z"/><g id="flowRoot3797"><path id="path3805" d="M12.52,16.85h.06l.07,0a.11.11,0,0,0,0-.06.08.08,0,0,0,0-.05.08.08,0,0,0-.07,0h-.06Zm.23-.08a.24.24,0,0,1,0,.08l-.07,0,.13.21H12.7l-.11-.19h-.07v.19h-.08v-.48h.14a.23.23,0,0,1,.13,0A.14.14,0,0,1,12.75,16.77Zm-.56.1a.35.35,0,0,1,.05-.2.43.43,0,0,1,.15-.15.42.42,0,0,1,.4,0,.43.43,0,0,1,.15.15.46.46,0,0,1,.05.2.49.49,0,0,1-.05.2.34.34,0,0,1-.15.14.36.36,0,0,1-.2.06.39.39,0,0,1-.21-.06.32.32,0,0,1-.14-.14A.37.37,0,0,1,12.19,16.87Zm.05,0a.34.34,0,0,0,0,.17.33.33,0,0,0,.13.13.38.38,0,0,0,.34,0,.4.4,0,0,0,.13-.13.38.38,0,0,0,0-.34.33.33,0,0,0-.13-.13.31.31,0,0,0-.34,0,.3.3,0,0,0-.13.12A.41.41,0,0,0,12.24,16.87Z"/></g></g></g></g></svg>