<svg xmlns="http://www.w3.org/2000/svg" viewBox="0 0 11.03 4.62"><g id="Layer_2" data-name="Layer 2"><g id="oth"><path d="M1.37.28A1.73,1.73,0,0,1,2.58.63a1.3,1.3,0,0,1,.38,1,1.61,1.61,0,0,1-.09.54,1.17,1.17,0,0,1-.28.46,1.29,1.29,0,0,1-.51.31A2.21,2.21,0,0,1,1.3,3H.91V4.56H0V.28ZM1.32,1H.91V2.29h.3a1.42,1.42,0,0,0,.44-.06A.7.7,0,0,0,1.94,2,.63.63,0,0,0,2,1.64a.61.61,0,0,0-.17-.47A.84.84,0,0,0,1.32,1Z"/><path d="M3.91,0a.64.64,0,0,1,.34.09.4.4,0,0,1,.14.35.39.39,0,0,1-.14.34.65.65,0,0,1-.34.1.65.65,0,0,1-.35-.1A.39.39,0,0,1,3.42.44.4.4,0,0,1,3.56.09.65.65,0,0,1,3.91,0Zm.44,1.28V4.56H3.46V1.28Z"/><path d="M6.91,1.22a1.21,1.21,0,0,1,.84.29,1.17,1.17,0,0,1,.32.91V4.56H7.18V2.65a1,1,0,0,0-.13-.54.47.47,0,0,0-.4-.17.57.57,0,0,0-.56.28,1.7,1.7,0,0,0-.15.8V4.56H5.05V1.28h.68l.12.42H5.9a1,1,0,0,1,.26-.27,1.39,1.39,0,0,1,.35-.16A1.75,1.75,0,0,1,6.91,1.22Z"/><path d="M11,3.59a1,1,0,0,1-.15.56,1,1,0,0,1-.47.35,2.18,2.18,0,0,1-.77.12,3.25,3.25,0,0,1-.59,0,2.11,2.11,0,0,1-.49-.14V3.69a2.93,2.93,0,0,0,.57.2A2.28,2.28,0,0,0,9.67,4,.68.68,0,0,0,10,3.89a.23.23,0,0,0,.11-.21.28.28,0,0,0,0-.15.77.77,0,0,0-.2-.15l-.47-.21a4.49,4.49,0,0,1-.5-.26.8.8,0,0,1-.29-.32.88.88,0,0,1-.1-.45.77.77,0,0,1,.35-.69,1.76,1.76,0,0,1,.95-.23,2.78,2.78,0,0,1,.58.06,3,3,0,0,1,.57.2l-.27.64L10.27,2a1.62,1.62,0,0,0-.44-.07.55.55,0,0,0-.29.06.16.16,0,0,0-.1.16.24.24,0,0,0,.05.14.6.6,0,0,0,.2.14l.43.19a3.22,3.22,0,0,1,.49.23,1,1,0,0,1,.31.31A.85.85,0,0,1,11,3.59Z"/></g></g></svg>