<svg xmlns="http://www.w3.org/2000/svg" viewBox="0 0 30 10.84"><g id="Layer_2" data-name="Layer 2"><g id="oth"><path d="M2.79,3.37A1.14,1.14,0,0,1,2.6,4a1.22,1.22,0,0,1-.53.44,2.21,2.21,0,0,1-.86.15,3,3,0,0,1-.43,0A2.47,2.47,0,0,1,.37,4.5,2.35,2.35,0,0,1,0,4.36V3.52l.63.24a2.16,2.16,0,0,0,.65.11.9.9,0,0,0,.36-.06.41.41,0,0,0,.2-.16.48.48,0,0,0,.06-.24.39.39,0,0,0-.11-.27,1.06,1.06,0,0,0-.3-.22l-.42-.21L.74,2.54a2.39,2.39,0,0,1-.33-.25,1,1,0,0,1-.26-.35,1.13,1.13,0,0,1-.1-.51A1.23,1.23,0,0,1,.22.78,1.12,1.12,0,0,1,.73.36,1.83,1.83,0,0,1,1.5.22a2.67,2.67,0,0,1,.64.07,4.88,4.88,0,0,1,.63.23l-.29.7A4.16,4.16,0,0,0,2,1,1.59,1.59,0,0,0,1.47,1,.65.65,0,0,0,1.18,1,.34.34,0,0,0,1,1.18a.4.4,0,0,0-.06.22A.39.39,0,0,0,1,1.66a.86.86,0,0,0,.27.2l.45.23a3.6,3.6,0,0,1,.56.32,1.21,1.21,0,0,1,.35.4A1.08,1.08,0,0,1,2.79,3.37Z"/><path d="M5.7,3.41c0-.06,0-.16-.07-.3s-.06-.28-.1-.43-.07-.3-.1-.43S5.38,2,5.36,2h0c0,.06,0,.15-.06.28s-.07.27-.1.43-.07.3-.1.43S5,3.35,5,3.43L4.74,4.56h-1L2.85,1.28h.89l.38,1.46c0,.1,0,.22.07.36l.06.4c0,.13,0,.23,0,.31h0c0-.06,0-.13,0-.23s0-.19,0-.29,0-.19.05-.27a.74.74,0,0,1,0-.16l.4-1.58h1l.38,1.58a1.41,1.41,0,0,1,.06.27l.06.37a1.9,1.9,0,0,1,0,.31h0c0-.07,0-.17,0-.3s0-.26.07-.41a2.45,2.45,0,0,1,.08-.36L7,1.28h.88l-1,3.28H6Z"/><path d="M8.6,0A.65.65,0,0,1,9,.09a.4.4,0,0,1,.14.35A.39.39,0,0,1,9,.78a.65.65,0,0,1-.35.1.62.62,0,0,1-.34-.1A.37.37,0,0,1,8.12.44.37.37,0,0,1,8.26.09.62.62,0,0,1,8.6,0Zm.45,1.28V4.56h-.9V1.28Z"/><path d="M11.12,3.91a1.36,1.36,0,0,0,.29,0l.28-.08v.67a2.28,2.28,0,0,1-.36.1,2.24,2.24,0,0,1-.46,0,1.25,1.25,0,0,1-.53-.1A.74.74,0,0,1,10,4.19a1.36,1.36,0,0,1-.13-.66V2H9.41V1.58l.5-.3.25-.69h.57v.69h.92V2h-.92V3.53a.35.35,0,0,0,.11.28A.39.39,0,0,0,11.12,3.91Z"/><path d="M13.44,4.62a1.78,1.78,0,0,1-.83-.18,1.16,1.16,0,0,1-.52-.55,2.14,2.14,0,0,1-.18-1,2.13,2.13,0,0,1,.2-1,1.34,1.34,0,0,1,.57-.56,1.86,1.86,0,0,1,.84-.18,2.42,2.42,0,0,1,.58.07,2.25,2.25,0,0,1,.44.16l-.27.69A2.66,2.66,0,0,0,13.88,2a1.13,1.13,0,0,0-.36-.06.67.67,0,0,0-.39.11.66.66,0,0,0-.23.33,1.73,1.73,0,0,0-.08.55,1.62,1.62,0,0,0,.08.54.73.73,0,0,0,.24.32.65.65,0,0,0,.38.1,1.55,1.55,0,0,0,.5-.07,2.06,2.06,0,0,0,.42-.21v.76a1.49,1.49,0,0,1-.43.19A2.26,2.26,0,0,1,13.44,4.62Z"/><path d="M15.85.93c0,.16,0,.31,0,.46s0,.25,0,.31h0a1.09,1.09,0,0,1,.25-.27,1.37,1.37,0,0,1,.32-.16,1.58,1.58,0,0,1,.38-.05,1.49,1.49,0,0,1,.62.13.91.91,0,0,1,.41.39,1.37,1.37,0,0,1,.15.68V4.56h-.9V2.65A.9.9,0,0,0,17,2.11a.47.47,0,0,0-.4-.17.66.66,0,0,0-.42.12.8.8,0,0,0-.22.37,2.49,2.49,0,0,0-.06.59V4.56H15V0h.9Z"/><path d="M20,1.22a1.58,1.58,0,0,1,1,.28,1.07,1.07,0,0,1,.35.88V4.56h-.62l-.18-.44h0a1.52,1.52,0,0,1-.29.28,1,1,0,0,1-.33.17,2,2,0,0,1-.47,0,1.27,1.27,0,0,1-.52-.11.9.9,0,0,1-.36-.34,1.17,1.17,0,0,1-.13-.59.87.87,0,0,1,.36-.77,2,2,0,0,1,1.1-.27l.57,0V2.38A.47.47,0,0,0,20.34,2,.56.56,0,0,0,20,1.88a1.53,1.53,0,0,0-.47.07,2.75,2.75,0,0,0-.45.17l-.3-.61a2.57,2.57,0,0,1,.59-.21A2.46,2.46,0,0,1,20,1.22Zm.12,1.83a1,1,0,0,0-.6.16.48.48,0,0,0-.16.38.34.34,0,0,0,.12.29.5.5,0,0,0,.31.09.68.68,0,0,0,.48-.18.57.57,0,0,0,.2-.48V3Z"/><path d="M22.93,1.06c0,.13,0,.25,0,.37s0,.21,0,.28h0a1.2,1.2,0,0,1,.36-.35,1,1,0,0,1,.57-.14,1.09,1.09,0,0,1,.89.43,2,2,0,0,1,.35,1.27,2.5,2.5,0,0,1-.16.93,1.26,1.26,0,0,1-.44.58,1.14,1.14,0,0,1-.66.19,1,1,0,0,1-.57-.13,1.4,1.4,0,0,1-.34-.29h-.06l-.15.36H22V0h.89Zm.64.88A.68.68,0,0,0,23.2,2a.56.56,0,0,0-.2.29,2.22,2.22,0,0,0-.07.49v.1a1.57,1.57,0,0,0,.14.73.54.54,0,0,0,.51.25A.48.48,0,0,0,24,3.64a1.37,1.37,0,0,0,.17-.74A1.27,1.27,0,0,0,24,2.18.52.52,0,0,0,23.57,1.94Z"/><path d="M26.49,4.56h-.9V0h.9Z"/><path d="M28.54,1.22a1.61,1.61,0,0,1,.78.18,1.17,1.17,0,0,1,.51.5,1.8,1.8,0,0,1,.17.81v.43H27.89a.88.88,0,0,0,.23.6.8.8,0,0,0,.59.21,2.65,2.65,0,0,0,.58-.06,3.42,3.42,0,0,0,.53-.19v.69a2.18,2.18,0,0,1-.51.17,3,3,0,0,1-.64.06,2,2,0,0,1-.87-.18,1.41,1.41,0,0,1-.6-.56A1.88,1.88,0,0,1,27,3a2.08,2.08,0,0,1,.19-1,1.25,1.25,0,0,1,.54-.57A1.69,1.69,0,0,1,28.54,1.22Zm0,.64a.61.61,0,0,0-.43.17.81.81,0,0,0-.2.52h1.26a1,1,0,0,0-.07-.35A.58.58,0,0,0,28.89,2,.63.63,0,0,0,28.54,1.86Z"/><path d="M8.74,9.25a1.67,1.67,0,0,1-.2.8,1.39,1.39,0,0,1-.59.56,2.07,2.07,0,0,1-1,.21,1.79,1.79,0,0,1-1.3-.44,1.54,1.54,0,0,1-.44-1.14V6.48h.9V9.1a1,1,0,0,0,.22.74.86.86,0,0,0,.64.22,1.15,1.15,0,0,0,.49-.1.66.66,0,0,0,.27-.32,1.47,1.47,0,0,0,.09-.55V6.48h.91Z"/><path d="M12.07,9.57a1.14,1.14,0,0,1-.19.66,1.22,1.22,0,0,1-.53.44,2.21,2.21,0,0,1-.86.15,3,3,0,0,1-.43,0,2.71,2.71,0,0,1-.41-.09,1.66,1.66,0,0,1-.37-.14V9.72l.63.24a2.16,2.16,0,0,0,.65.11.9.9,0,0,0,.36-.06.41.41,0,0,0,.2-.16.48.48,0,0,0,.06-.24.35.35,0,0,0-.11-.27,1.06,1.06,0,0,0-.3-.22l-.42-.21L10,8.74,9.69,8.5a1.38,1.38,0,0,1-.26-.36,1.13,1.13,0,0,1-.1-.51A1.15,1.15,0,0,1,9.51,7a1,1,0,0,1,.5-.42,1.83,1.83,0,0,1,.77-.14,2.67,2.67,0,0,1,.64.07,4.88,4.88,0,0,1,.63.23l-.29.7a4.16,4.16,0,0,0-.53-.18,1.51,1.51,0,0,0-.48-.07.65.65,0,0,0-.29.06.34.34,0,0,0-.18.15.4.4,0,0,0-.06.22.39.39,0,0,0,.09.26.86.86,0,0,0,.27.2l.45.23a3.6,3.6,0,0,1,.56.32A1.37,1.37,0,0,1,12,9,1.19,1.19,0,0,1,12.07,9.57Z"/><path d="M13.94,6.48a2.76,2.76,0,0,1,1.3.24.88.88,0,0,1,.44.84A1.23,1.23,0,0,1,15.6,8a.75.75,0,0,1-.23.32.68.68,0,0,1-.35.17v0a.93.93,0,0,1,.39.15.69.69,0,0,1,.27.31,1.15,1.15,0,0,1,.11.54,1.23,1.23,0,0,1-.19.67,1.25,1.25,0,0,1-.55.42,2.1,2.1,0,0,1-.84.15h-1.6V6.48ZM14,8.17a.91.91,0,0,0,.55-.12.44.44,0,0,0,.16-.37.38.38,0,0,0-.18-.35A1.17,1.17,0,0,0,14,7.22h-.48v1Zm-.52.72V10h.59a.79.79,0,0,0,.57-.16.55.55,0,0,0,.16-.42.51.51,0,0,0-.07-.28A.41.41,0,0,0,14.54,9a1.44,1.44,0,0,0-.46-.07Z"/><path d="M20.42,10.76h-3v-.63L18.5,9c.21-.22.39-.41.52-.56a2.07,2.07,0,0,0,.29-.4.93.93,0,0,0,.09-.4.49.49,0,0,0-.14-.38.55.55,0,0,0-.38-.13,1.07,1.07,0,0,0-.49.12,2.39,2.39,0,0,0-.49.32L17.41,7a3.68,3.68,0,0,1,.39-.3,2.14,2.14,0,0,1,.48-.23,2.54,2.54,0,0,1,.66-.08,1.59,1.59,0,0,1,.72.15,1.12,1.12,0,0,1,.47.41,1.1,1.1,0,0,1,.17.59,1.51,1.51,0,0,1-.14.65,2.37,2.37,0,0,1-.41.58c-.18.2-.4.41-.65.64l-.55.52v0h1.87Z"/><path d="M20.72,10.34a.47.47,0,0,1,.15-.39.64.64,0,0,1,.72,0,.47.47,0,0,1,.15.39.45.45,0,0,1-.15.38.6.6,0,0,1-.72,0A.45.45,0,0,1,20.72,10.34Z"/><path d="M25.05,8.62a4.32,4.32,0,0,1-.08.92,2.15,2.15,0,0,1-.25.69,1.24,1.24,0,0,1-.47.44,1.48,1.48,0,0,1-.7.15,1.34,1.34,0,0,1-.84-.26,1.6,1.6,0,0,1-.49-.76,3.74,3.74,0,0,1-.16-1.18,4.1,4.1,0,0,1,.15-1.19,1.44,1.44,0,0,1,.47-.76,1.39,1.39,0,0,1,.87-.26,1.35,1.35,0,0,1,.85.26,1.48,1.48,0,0,1,.49.76A3.77,3.77,0,0,1,25.05,8.62ZM23,8.62a6,6,0,0,0,.05.81,1.07,1.07,0,0,0,.19.49.41.41,0,0,0,.35.17.44.44,0,0,0,.36-.16,1.07,1.07,0,0,0,.19-.49,4.79,4.79,0,0,0,0-.82,4.79,4.79,0,0,0,0-.82,1.07,1.07,0,0,0-.19-.49.42.42,0,0,0-.36-.17.41.41,0,0,0-.35.17A1.07,1.07,0,0,0,23,7.8,6.09,6.09,0,0,0,23,8.62Z"/></g></g></svg>