<svg xmlns="http://www.w3.org/2000/svg" xmlns:xlink="http://www.w3.org/1999/xlink" version="1.1" width="30.0049" height="10.8379" viewBox="0 0 30.0049 10.8379">
<defs>
<clipPath id="clip_0">
<path transform="matrix(1,0,0,-1,0,10.8379)" d="M0 10.838H30.005V0H0Z"/>
</clipPath>
</defs>
<g clip-path="url(#clip_0)">
<path transform="matrix(1,0,0,-1,2.7899,3.3714004)" d="M0 0C0-.253-.062-.473-.187-.66-.311-.849-.489-.993-.724-1.096-.957-1.197-1.242-1.248-1.578-1.248-1.727-1.248-1.871-1.238-2.014-1.219-2.155-1.198-2.291-1.17-2.422-1.132-2.552-1.094-2.675-1.047-2.79-.99V-.145C-2.586-.232-2.375-.313-2.157-.388-1.939-.462-1.723-.498-1.507-.498-1.358-.498-1.239-.479-1.149-.438-1.06-.398-.993-.345-.951-.276-.909-.209-.889-.131-.889-.042-.889 .065-.926 .157-.999 .233-1.073 .31-1.173 .381-1.297 .446-1.421 .513-1.562 .583-1.723 .659-1.822 .708-1.931 .765-2.047 .83-2.162 .896-2.273 .979-2.38 1.076-2.485 1.175-2.572 1.294-2.641 1.434-2.708 1.573-2.742 1.741-2.742 1.937-2.742 2.193-2.684 2.412-2.565 2.595-2.447 2.776-2.279 2.915-2.062 3.012-1.844 3.107-1.587 3.155-1.29 3.155-1.066 3.155-.854 3.13-.651 3.077-.449 3.025-.238 2.951-.019 2.855L-.312 2.147C-.509 2.228-.685 2.289-.841 2.334-.996 2.378-1.156 2.399-1.32 2.399-1.433 2.399-1.528 2.382-1.608 2.346-1.688 2.31-1.749 2.26-1.791 2.195-1.833 2.132-1.854 2.056-1.854 1.968-1.854 1.867-1.824 1.782-1.765 1.713-1.704 1.643-1.614 1.575-1.494 1.512-1.374 1.447-1.225 1.371-1.044 1.283-.824 1.18-.638 1.071-.483 .96-.329 .848-.21 .716-.126 .563-.042 .411 0 .224 0 0" fill="#ffffff"/>
<path transform="matrix(1,0,0,-1,5.7,3.4134002)" d="M0 0C-.017 .067-.039 .168-.069 .303-.1 .437-.132 .58-.168 .734-.204 .889-.238 1.03-.271 1.16-.302 1.29-.324 1.386-.336 1.445H-.36C-.372 1.386-.394 1.29-.423 1.16-.453 1.03-.486 .889-.522 .734-.559 .58-.592 .436-.624 .3-.656 .163-.681 .06-.696-.013L-.96-1.146H-1.92L-2.851 2.13H-1.962L-1.584 .678C-1.557 .577-1.531 .457-1.509 .317-1.487 .178-1.466 .042-1.446-.088-1.426-.218-1.412-.32-1.404-.396H-1.38C-1.376-.341-1.368-.266-1.356-.172-1.344-.077-1.329 .02-1.312 .119-1.293 .22-1.277 .311-1.263 .393-1.249 .475-1.238 .529-1.23 .558L-.828 2.13H.156L.54 .558C.556 .501 .575 .411 .597 .287 .619 .163 .639 .037 .657-.091 .675-.219 .684-.32 .684-.396H.708C.716-.328 .729-.229 .75-.1 .77 .03 .793 .168 .818 .312 .845 .455 .872 .577 .899 .678L1.29 2.13H2.166L1.224-1.146H.252Z" fill="#ffffff"/>
<path transform="matrix(1,0,0,-1,0,10.8379)" d="M9.048 6.278H8.153V9.554H9.048ZM8.603 10.838C8.735 10.838 8.849 10.807 8.945 10.745 9.042 10.683 9.09 10.568 9.09 10.4 9.09 10.236 9.042 10.122 8.945 10.058 8.849 9.994 8.735 9.962 8.603 9.962 8.468 9.962 8.352 9.994 8.259 10.058 8.164 10.122 8.117 10.236 8.117 10.4 8.117 10.568 8.164 10.683 8.259 10.745 8.352 10.807 8.468 10.838 8.603 10.838" fill="#ffffff"/>
<path transform="matrix(1,0,0,-1,11.1229,3.9056)" d="M0 0C.101 0 .196 .01 .288 .029 .38 .05 .473 .073 .564 .102V-.564C.469-.604 .35-.64 .207-.669 .065-.699-.09-.714-.258-.714-.454-.714-.629-.683-.782-.618-.937-.555-1.059-.443-1.148-.285-1.238-.127-1.283 .092-1.283 .372V1.949H-1.71V2.328L-1.218 2.628-.96 3.317H-.39V2.622H.528V1.949H-.39V.372C-.39 .248-.354 .154-.281 .093-.21 .03-.115 0 0 0" fill="#ffffff"/>
<path transform="matrix(1,0,0,-1,13.4393,4.6194)" d="M0 0C-.324 0-.6 .059-.828 .177-1.056 .295-1.229 .478-1.35 .726-1.47 .974-1.53 1.292-1.53 1.68-1.53 2.079-1.462 2.405-1.326 2.657-1.189 2.909-1.001 3.096-.759 3.216-.517 3.336-.238 3.396 .078 3.396 .302 3.396 .497 3.374 .663 3.329 .829 3.285 .975 3.233 1.099 3.174L.834 2.483C.694 2.539 .563 2.586 .441 2.621 .319 2.657 .198 2.676 .078 2.676-.078 2.676-.208 2.639-.312 2.564-.416 2.49-.493 2.381-.543 2.234-.593 2.089-.618 1.905-.618 1.686-.618 1.47-.591 1.29-.537 1.148-.482 1.007-.404 .9-.3 .831-.196 .761-.07 .726 .078 .726 .267 .726 .433 .751 .576 .801 .72 .851 .86 .92 .996 1.008V.245C.86 .157 .717 .095 .567 .057 .417 .019 .229 0 0 0" fill="#ffffff"/>
<path transform="matrix(1,0,0,-1,15.8456,.9300003)" d="M0 0C0-.16-.005-.313-.016-.462-.025-.61-.034-.714-.042-.773H.006C.078-.662 .162-.571 .258-.501 .354-.431 .461-.379 .579-.345 .696-.311 .821-.294 .954-.294 1.189-.294 1.396-.336 1.571-.42 1.748-.504 1.885-.634 1.982-.81 2.081-.986 2.13-1.214 2.13-1.494V-3.63H1.235V-1.716C1.235-1.479 1.192-1.303 1.106-1.185 1.021-1.067 .888-1.008 .708-1.008 .527-1.008 .387-1.05 .285-1.134 .183-1.218 .109-1.34 .065-1.5 .021-1.66 0-1.855 0-2.088V-3.63H-.895V.93H0Z" fill="#ffffff"/>
<path transform="matrix(1,0,0,-1,20.1239,3.0540004)" d="M0 0C-.288-.008-.488-.06-.601-.156-.713-.252-.769-.378-.769-.534-.769-.67-.729-.767-.648-.825-.568-.883-.465-.912-.337-.912-.145-.912 .018-.854 .149-.741 .281-.627 .348-.466 .348-.258V.012ZM-.127 1.836C.313 1.836 .65 1.741 .885 1.551 1.118 1.361 1.235 1.07 1.235 .678V-1.506H.611L.437-1.062H.413C.321-1.178 .227-1.273 .129-1.35 .03-1.426-.081-1.48-.207-1.515-.333-1.549-.488-1.565-.673-1.565-.864-1.565-1.037-1.529-1.191-1.455-1.346-1.381-1.467-1.267-1.555-1.113-1.643-.959-1.687-.764-1.687-.528-1.687-.18-1.564 .077-1.32 .243-1.076 .409-.711 .5-.223 .517L.348 .534V.678C.348 .85 .303 .977 .213 1.056 .122 1.136-.003 1.176-.162 1.176-.322 1.176-.479 1.153-.631 1.107-.782 1.062-.935 1.004-1.087 .937L-1.381 1.542C-1.204 1.634-1.01 1.706-.796 1.758-.581 1.811-.358 1.836-.127 1.836" fill="#ffffff"/>
<path transform="matrix(1,0,0,-1,23.5731,1.9378004)" d="M0 0C-.156 0-.28-.032-.372-.096-.464-.16-.531-.257-.573-.387-.615-.518-.638-.68-.642-.876V-.972C-.642-1.288-.595-1.531-.501-1.701-.407-1.871-.236-1.956 .012-1.956 .196-1.956 .342-1.871 .45-1.701 .558-1.531 .612-1.286 .612-.966 .612-.646 .557-.405 .447-.243 .337-.081 .188 0 0 0M-.642 .876C-.642 .752-.646 .63-.654 .51-.662 .39-.67 .296-.678 .228H-.642C-.554 .364-.436 .479-.288 .573-.14 .667 .052 .714 .288 .714 .656 .714 .954 .571 1.182 .285 1.41-.001 1.524-.422 1.524-.979 1.524-1.35 1.471-1.663 1.365-1.917 1.259-2.171 1.112-2.362 .924-2.49 .736-2.618 .516-2.682 .264-2.682 .024-2.682-.165-2.639-.303-2.553-.44-2.467-.554-2.37-.642-2.262H-.702L-.852-2.622H-1.536V1.937H-.642Z" fill="#ffffff"/>
<path transform="matrix(1,0,0,-1,0,10.8379)" d="M26.489 6.278H25.594V10.837999H26.489Z" fill="#ffffff"/>
<path transform="matrix(1,0,0,-1,28.5409,1.8597002)" d="M0 0C-.172 0-.315-.057-.43-.168-.543-.28-.61-.454-.63-.69H.624C.624-.559 .601-.44 .555-.336 .509-.232 .439-.15 .348-.09 .256-.03 .14 0 0 0M-.006 .636C.298 .636 .559 .578 .776 .462 .995 .346 1.164 .178 1.284-.042 1.403-.263 1.464-.532 1.464-.853V-1.284H-.648C-.641-1.536-.565-1.734-.423-1.878-.281-2.022-.084-2.094 .168-2.094 .38-2.094 .571-2.073 .744-2.031 .916-1.989 1.094-1.924 1.277-1.836V-2.526C1.118-2.606 .948-2.665 .771-2.703 .593-2.741 .378-2.76 .126-2.76-.202-2.76-.492-2.699-.744-2.577-.996-2.455-1.194-2.271-1.338-2.022-1.482-1.774-1.555-1.462-1.555-1.086-1.555-.702-1.489-.383-1.359-.129-1.229 .125-1.048 .315-.816 .443-.584 .571-.314 .636-.006 .636" fill="#ffffff"/>
<path transform="matrix(1,0,0,-1,8.7352,9.248301)" d="M0 0C0-.296-.065-.562-.195-.801-.325-1.039-.521-1.227-.783-1.364-1.045-1.503-1.376-1.571-1.776-1.571-2.345-1.571-2.776-1.427-3.072-1.137-3.368-.847-3.517-.464-3.517 .013V2.772H-2.61V.15C-2.61-.202-2.538-.45-2.395-.594-2.25-.737-2.036-.81-1.752-.81-1.553-.81-1.391-.775-1.267-.708-1.143-.64-1.052-.534-.993-.39-.936-.246-.906-.063-.906 .156V2.772H0Z" fill="#ffffff"/>
<path transform="matrix(1,0,0,-1,12.0711,9.5716)" d="M0 0C0-.253-.062-.473-.187-.66-.311-.849-.489-.993-.724-1.096-.957-1.197-1.242-1.248-1.578-1.248-1.727-1.248-1.871-1.238-2.014-1.219-2.155-1.198-2.291-1.17-2.422-1.132-2.552-1.094-2.675-1.047-2.79-.99V-.145C-2.586-.232-2.375-.313-2.157-.388-1.939-.462-1.723-.498-1.507-.498-1.358-.498-1.239-.479-1.149-.438-1.06-.398-.993-.345-.951-.276-.909-.209-.889-.131-.889-.042-.889 .065-.926 .157-.999 .233-1.073 .31-1.173 .381-1.297 .446-1.421 .513-1.562 .583-1.723 .659-1.822 .708-1.931 .765-2.047 .83-2.162 .896-2.273 .979-2.38 1.076-2.485 1.175-2.572 1.294-2.641 1.434-2.708 1.573-2.742 1.741-2.742 1.937-2.742 2.193-2.684 2.412-2.565 2.595-2.447 2.776-2.279 2.915-2.062 3.012-1.844 3.107-1.587 3.155-1.29 3.155-1.066 3.155-.854 3.13-.651 3.077-.449 3.025-.238 2.951-.019 2.855L-.312 2.147C-.509 2.228-.685 2.289-.841 2.334-.996 2.378-1.156 2.399-1.32 2.399-1.433 2.399-1.528 2.382-1.608 2.346-1.688 2.31-1.749 2.26-1.791 2.195-1.833 2.132-1.854 2.056-1.854 1.968-1.854 1.867-1.824 1.782-1.765 1.713-1.704 1.643-1.614 1.575-1.494 1.512-1.374 1.447-1.225 1.371-1.044 1.283-.824 1.18-.638 1.071-.483 .96-.329 .848-.21 .716-.126 .563-.042 .411 0 .224 0 0" fill="#ffffff"/>
<path transform="matrix(1,0,0,-1,13.5174,8.8939)" d="M0 0V-1.116H.594C.865-1.116 1.056-1.063 1.164-.957 1.271-.852 1.326-.71 1.326-.534 1.326-.426 1.303-.332 1.257-.252 1.211-.172 1.132-.11 1.02-.066 .907-.022 .756 0 .563 0ZM.527 .72C.792 .72 .975 .762 1.077 .846 1.179 .93 1.229 1.052 1.229 1.212 1.229 1.376 1.17 1.494 1.05 1.565 .93 1.638 .739 1.674 .479 1.674H0V.72ZM.426 2.418C.998 2.418 1.43 2.338 1.722 2.178 2.014 2.018 2.16 1.735 2.16 1.332 2.16 1.172 2.134 1.025 2.082 .894 2.029 .762 1.955 .653 1.856 .569 1.759 .485 1.64 .432 1.5 .408V.378C1.644 .35 1.773 .3 1.89 .228 2.006 .156 2.098 .052 2.166-.084 2.233-.221 2.268-.4 2.268-.624 2.268-.884 2.205-1.107 2.079-1.293 1.953-1.479 1.771-1.621 1.536-1.719 1.3-1.817 1.02-1.866 .695-1.866H-.906V2.418Z" fill="#ffffff"/>
<path transform="matrix(1,0,0,-1,20.4168,10.7601)" d="M0 0H-2.994V.63L-1.92 1.716C-1.704 1.94-1.53 2.127-1.398 2.277-1.267 2.427-1.17 2.563-1.11 2.685-1.051 2.807-1.021 2.938-1.021 3.078-1.021 3.25-1.067 3.378-1.161 3.462-1.256 3.546-1.383 3.588-1.542 3.588-1.706 3.588-1.866 3.55-2.022 3.474-2.179 3.398-2.343 3.29-2.515 3.15L-3.007 3.732C-2.883 3.84-2.751 3.939-2.613 4.032-2.476 4.124-2.315 4.199-2.134 4.257-1.951 4.314-1.732 4.344-1.477 4.344-1.196 4.344-.955 4.293-.753 4.191-.552 4.089-.396 3.951-.285 3.777-.176 3.603-.12 3.406-.12 3.186-.12 2.95-.167 2.734-.262 2.538-.355 2.342-.491 2.148-.669 1.956-.848 1.764-1.062 1.552-1.314 1.32L-1.866 .804V.762H0Z" fill="#ffffff"/>
<path transform="matrix(1,0,0,-1,20.7166,10.3401)" d="M0 0C0 .184 .05 .313 .15 .387 .25 .461 .372 .498 .517 .498 .656 .498 .776 .461 .876 .387 .977 .313 1.026 .184 1.026 0 1.026-.176 .977-.303 .876-.381 .776-.459 .656-.498 .517-.498 .372-.498 .25-.459 .15-.381 .05-.303 0-.176 0 0" fill="#ffffff"/>
<path transform="matrix(1,0,0,-1,22.9608,8.6185)" d="M0 0C0-.323 .018-.595 .054-.812 .09-1.03 .15-1.194 .236-1.305 .323-1.415 .441-1.47 .594-1.47 .746-1.47 .864-1.416 .951-1.308 1.037-1.199 1.099-1.037 1.137-.818 1.175-.601 1.193-.327 1.193 0 1.193 .328 1.175 .602 1.137 .819 1.099 1.037 1.037 1.201 .951 1.312 .864 1.421 .746 1.477 .594 1.477 .441 1.477 .323 1.421 .236 1.312 .15 1.201 .09 1.037 .054 .819 .018 .602 0 .328 0 0M2.094 0C2.094-.344 2.066-.651 2.013-.924 1.959-1.195 1.873-1.427 1.755-1.616 1.637-1.807 1.482-1.952 1.293-2.052 1.103-2.151 .87-2.201 .594-2.201 .25-2.201-.032-2.113-.252-1.937-.473-1.762-.636-1.51-.741-1.182-.848-.854-.9-.46-.9 0-.9 .465-.853 .86-.756 1.188-.66 1.517-.502 1.769-.282 1.944-.062 2.12 .229 2.208 .594 2.208 .937 2.208 1.22 2.121 1.439 1.947 1.66 1.773 1.824 1.521 1.932 1.191 2.04 .861 2.094 .465 2.094 0" fill="#ffffff"/>
</g>
</svg>
