<svg xmlns="http://www.w3.org/2000/svg" viewBox="0 0 17.72 5.72"><g id="Layer_2" data-name="Layer 2"><g id="oth"><path d="M2.07,4.28H1.16V.76H0V0H3.23V.76H2.07Z"/><path d="M4.45.94a1.58,1.58,0,0,1,1,.29,1.07,1.07,0,0,1,.35.87V4.28H5.18L5,3.84H5a2,2,0,0,1-.29.29,1,1,0,0,1-.33.16,1.65,1.65,0,0,1-.47,0,1.13,1.13,0,0,1-.52-.11A.84.84,0,0,1,3,3.89a1.13,1.13,0,0,1-.13-.58.86.86,0,0,1,.36-.77,2.1,2.1,0,0,1,1.1-.28l.57,0V2.1a.49.49,0,0,0-.13-.38.58.58,0,0,0-.38-.12,1.49,1.49,0,0,0-.47.07,4.13,4.13,0,0,0-.45.17l-.3-.6A2.18,2.18,0,0,1,3.78,1,2.86,2.86,0,0,1,4.45.94Zm.12,1.84a1,1,0,0,0-.6.15.5.5,0,0,0-.17.38.33.33,0,0,0,.12.29.53.53,0,0,0,.32.09.72.72,0,0,0,.48-.17A.61.61,0,0,0,4.92,3V2.77Z"/><path d="M8.32,1h.15l.15,0-.07.84-.12,0H8.29A1.27,1.27,0,0,0,8,1.83.71.71,0,0,0,7.66,2a.64.64,0,0,0-.21.25,1,1,0,0,0-.07.4V4.28H6.49V1h.67l.14.55h0a1.36,1.36,0,0,1,.24-.31A1,1,0,0,1,8.32,1Z"/><path d="M10,1a1.19,1.19,0,0,1,.54.12,1.08,1.08,0,0,1,.41.36h0L11,1h.75V4.29a1.62,1.62,0,0,1-.18.79,1.18,1.18,0,0,1-.55.48,2.25,2.25,0,0,1-.91.16,4.31,4.31,0,0,1-.64,0,2.91,2.91,0,0,1-.58-.15V4.82A4.44,4.44,0,0,0,9.53,5a3.52,3.52,0,0,0,.66.06.67.67,0,0,0,.52-.19.8.8,0,0,0,.17-.55V4.26a1.48,1.48,0,0,1,0-.21c0-.07,0-.14,0-.19h0a1.08,1.08,0,0,1-.4.37,1.17,1.17,0,0,1-.53.11A1.05,1.05,0,0,1,9,3.9a2.09,2.09,0,0,1-.33-1.25A2,2,0,0,1,9.05,1.4,1.08,1.08,0,0,1,10,1Zm.28.72a.53.53,0,0,0-.35.12.67.67,0,0,0-.21.33,2,2,0,0,0-.07.54,1.43,1.43,0,0,0,.16.74.53.53,0,0,0,.49.24,1,1,0,0,0,.3,0,.43.43,0,0,0,.2-.15.66.66,0,0,0,.13-.28,2.15,2.15,0,0,0,0-.4V2.66a2.1,2.1,0,0,0-.07-.57.61.61,0,0,0-.23-.32A.75.75,0,0,0,10.25,1.67Z"/><path d="M13.82,1a1.73,1.73,0,0,1,.78.17,1.25,1.25,0,0,1,.51.51,1.67,1.67,0,0,1,.18.81v.43H13.18a.81.81,0,0,0,.22.59.77.77,0,0,0,.59.22,2.58,2.58,0,0,0,.58-.06,3.16,3.16,0,0,0,.53-.2v.69a2.21,2.21,0,0,1-.51.18,3,3,0,0,1-.64,0,2,2,0,0,1-.87-.18,1.36,1.36,0,0,1-.59-.55,1.79,1.79,0,0,1-.22-.94,2.13,2.13,0,0,1,.19-1A1.38,1.38,0,0,1,13,1.14,1.62,1.62,0,0,1,13.82,1Zm0,.63a.61.61,0,0,0-.43.17.83.83,0,0,0-.2.52h1.26a1,1,0,0,0-.07-.35.64.64,0,0,0-.21-.25A.63.63,0,0,0,13.82,1.58Z"/><path d="M17.15,3.63a1.36,1.36,0,0,0,.29,0l.28-.07v.66a2.22,2.22,0,0,1-.36.11,2.25,2.25,0,0,1-.46,0,1.44,1.44,0,0,1-.53-.09A.84.84,0,0,1,16,3.92a1.48,1.48,0,0,1-.13-.66V1.68h-.43V1.3l.5-.3.25-.69h.57V1h.92v.67h-.92V3.26a.36.36,0,0,0,.11.28A.43.43,0,0,0,17.15,3.63Z"/></g></g></svg>