<svg xmlns="http://www.w3.org/2000/svg" viewBox="0 0 30.35 7.09"><defs><style>.cls-1{fill-rule:evenodd;}</style></defs><g id="Layer_2" data-name="Layer 2"><g id="oth"><path d="M5.89,4.24h-.6V3H4.16V4.24h-.6V1.4h.6V2.51H5.29V1.4h.6Z"/><path d="M8,.59a.29.29,0,0,1,.3.3V5.31H1.18V.89a.29.29,0,0,1,.3-.3ZM1.48,0A.89.89,0,0,0,.59.89v5H8.86v-5A.89.89,0,0,0,8,0ZM0,6.2H9.45a.89.89,0,0,1-.89.89H.89A.89.89,0,0,1,0,6.2"/><path class="cls-1" d="M19.93,3.4a.57.57,0,0,0,0-.13.59.59,0,0,0,0-.14.68.68,0,0,0,0-.14l0-.14a.65.65,0,0,0,0-.13l0-.13s0-.09-.05-.13l-.06-.13-.06-.12a.75.75,0,0,0-.07-.12L19.46,2a.83.83,0,0,1-.08-.12l-.09-.1-.09-.11a.94.94,0,0,0-.1-.1l-.1-.1-.1-.09-.11-.08-.12-.08-.11-.08L18.44,1,18.31,1,18.18.92,18.06.87l-.14,0-.13,0-.14,0-.13,0-.14,0H13l-.14,0-.14,0-.14,0-.13,0-.13,0-.13.05L12,1,11.92,1l-.12.07-.12.08-.11.08-.11.08-.11.09-.1.1-.1.1-.09.11-.08.1A.83.83,0,0,0,10.9,2l-.08.12-.07.12-.06.12-.06.13a.69.69,0,0,1-.05.13l0,.13,0,.13,0,.14s0,.09,0,.14,0,.09,0,.14,0,.09,0,.13v.28s0,.1,0,.14,0,.09,0,.14,0,.09,0,.14l0,.13s0,.09,0,.14,0,.08,0,.13a.69.69,0,0,1,.05.13l.06.13.06.12.07.12.08.12a.76.76,0,0,0,.08.11.44.44,0,0,0,.08.11l.09.11.1.1.1.09.11.09.11.09.11.08L11.8,6l.12.07.12.07.13,0,.13,0,.13,0,.13,0,.14,0,.14,0h4.68l.13,0,.14,0,.13,0,.14,0,.12,0,.13,0L18.44,6,18.56,6a.41.41,0,0,0,.11-.07l.12-.08.11-.09.1-.09.1-.09.1-.1.09-.11.09-.11a.76.76,0,0,1,.08-.11L19.53,5a.75.75,0,0,0,.07-.12l.06-.12.06-.13s0-.09.05-.13,0-.09,0-.13a.74.74,0,0,0,0-.14l0-.13a.78.78,0,0,0,0-.14.68.68,0,0,0,0-.14.61.61,0,0,0,0-.14s0-.09,0-.14S19.93,3.45,19.93,3.4Zm-4.76.3c0,.06,0,.11,0,.16s0,.1,0,.15a1.16,1.16,0,0,1-.06.15,1,1,0,0,1-.07.15,1,1,0,0,1-.08.14l-.09.12-.11.12-.12.11-.13.09L14.32,5,14.17,5,14,5.1l-.15,0-.16,0h-.32l-.15,0-.16,0L12.93,5,12.79,5l-.14-.09-.13-.09-.12-.11a1.27,1.27,0,0,1-.1-.12l-.1-.12a1,1,0,0,1-.08-.14,1,1,0,0,1-.07-.15A.53.53,0,0,1,12,4a.83.83,0,0,1,0-.15.78.78,0,0,1,0-.16.81.81,0,0,1,0-.16.92.92,0,0,1,0-.16.77.77,0,0,1,0-.15.75.75,0,0,1,0-.16.88.88,0,0,1,.05-.15.61.61,0,0,1,.07-.14,1,1,0,0,1,.08-.14,1.13,1.13,0,0,1,.1-.13l.1-.12.12-.1.13-.1.14-.08L12.93,2,13.08,2l.16,0,.15,0h.32l.16,0L14,2a.66.66,0,0,1,.15.05l.15.07.13.08.13.1.12.1.11.12.09.13a1,1,0,0,1,.08.14.61.61,0,0,1,.07.14l.06.15c0,.05,0,.1,0,.16s0,.1,0,.15,0,.11,0,.16S15.17,3.65,15.17,3.7Z"/><path d="M28.88.59a.29.29,0,0,1,.29.3V5.31H22.09V.89a.29.29,0,0,1,.29-.3ZM22.38,0a.88.88,0,0,0-.88.89v5h8.26v-5A.88.88,0,0,0,28.88,0ZM20.91,6.2h9.44a.88.88,0,0,1-.88.89H21.79a.88.88,0,0,1-.88-.89"/><path d="M25.93,4.44h-.6V2.11h-.77v-.5H26.7v.5h-.77Z"/></g></g></svg>