<svg xmlns="http://www.w3.org/2000/svg" viewBox="0 0 11.98 17.01"><g id="Layer_2" data-name="Layer 2"><g id="oth"><path d="M6.73,1.38h-1v.16h1Zm-2.85.49a.86.86,0,0,0-.34.31h.34ZM9.06,3.36l-.37.38,0,.2h.45V3.36ZM5.67,6.42l-1.94-2,.32,3.7Zm.39,0,1.85,2L8.3,4.25h0V4.18ZM3.69,3.94,5.86,6.22l1.29-1.3H5.34V4.23H7.43v.4l.83-.84V3.05h.15l0-.51H3.57ZM8.93,9.86A.88.88,0,0,1,9,10a1,1,0,0,1-1.86.46H4.69V11H4.05v-.52a.19.19,0,0,1-.15-.15L3.76,8.76.41,12.17.21,12,3.73,8.39,3.35,4,0,.44V.05L3.32,3.54l-.09-1H2.82V2.18h.36a.64.64,0,0,0,0-.07,1.34,1.34,0,0,1,.68-.62V1.27h.59v0a6,6,0,0,1,.92-.12V1H7.08v.84H5.39V1.53a6,6,0,0,0-.92.13v.52h4c-.15-.37-.76-.54-1.36-.62V1.21a2.52,2.52,0,0,1,1.54.62A.44.44,0,0,1,9,1.65a.46.46,0,0,1,0,.91.48.48,0,0,1-.18,0l-.05.52H9l3-3V.39L9.36,3.05h.06v1.2H8.64L8.22,8.71,11.3,12l-.21.19ZM7,10a1,1,0,0,1,.87-1l0-.31-2-2.12L4.08,8.43l.15,1.71H7A.49.49,0,0,1,7,10Zm.47,0A.52.52,0,1,0,8,9.51.51.51,0,0,0,7.45,10Zm.18,0a.34.34,0,0,1,.67,0,.34.34,0,1,1-.67,0ZM1,14.6h9.9V17H1Z"/></g></g></svg>