<?xml version="1.0" encoding="UTF-8"?>
<svg id="_图层_2" data-name="图层 2" xmlns="http://www.w3.org/2000/svg" width="11.35mm" height="2mm" viewBox="0 0 32.16 5.67">
  <defs>
    <style>
      .cls-1 {
        fill: #020c08;
        fill-rule: evenodd;
        isolation: isolate;
        opacity: .8;
        stroke-width: 0px;
      }
    </style>
  </defs>
  <g id="_图层_1-2" data-name="图层 1">
    <g>
      <path id="_路径_2" data-name="路径 2" class="cls-1" d="M20.68,1.43h2.06v4.23h2.12c0-1.42,0-2.82,0-4.23h2.04c0,.72,0,1.42,0,2.12s0,1.4,0,2.11h2.15c0-1.36,0-2.7,0-4.03,0-1.03-.58-1.62-1.62-1.62-2.85,0-5.69,0-8.54,0h-.35c0,1.9,0,3.77,0,5.65h2.14c0-1.42,0-2.81,0-4.23Z"/>
      <path id="_路径_3" data-name="路径 3" class="cls-1" d="M15.99,5.67c1.01,0,1.63-.61,1.64-1.62,0-.82,0-1.64,0-2.45,0-.98-.63-1.6-1.62-1.6-2.12,0-4.25,0-6.37,0h-.36v1.41c2.07,0,4.11,0,6.17,0,0,.96,0,1.9,0,2.84-1.35,0-2.67,0-4.04,0v-1.93h-2.14c0,1.11,0,2.2,0,3.35h.35c2.12,0,4.25,0,6.37,0Z"/>
      <path id="_路径_4" data-name="路径 4" class="cls-1" d="M2.21,3.66h.1c1.27,0,2.5,0,3.76,0v1.99h2.24c0-1.89,0-3.76,0-5.63h-2.24c0,.76,0,1.51,0,2.27-1.27,0-2.5,0-3.75,0h-.11V.02H0c0,1.89,0,3.76,0,5.64h2.21c0-.68,0-1.34,0-2Z"/>
      <path id="_路径_5" data-name="路径 5" class="cls-1" d="M32.16.02h-2.19c0,1.89,0,3.76,0,5.63h2.19c0-1.89,0-3.75,0-5.63Z"/>
    </g>
  </g>
</svg>