<svg xmlns="http://www.w3.org/2000/svg" xmlns:xlink="http://www.w3.org/1999/xlink" width="2256" height="810.0986328125" viewBox="0 0 2256 810.0986328125" fill="none">
<path d="M0 590.256L0 278.31L59.3315 278.31L176.338 417.838L293.152 278.31L352.93 278.31L352.93 590.256L300.226 590.256L300.226 351.102L176.338 498.852L52.0027 351.548L52.0027 590.256L0 590.256Z"   fill="#FFFFFF" >
</path>
<path d="M400.281 308.652L400.281 256.64L451.838 256.64L451.838 308.652L400.281 308.652ZM400.281 590.257L400.281 338.992L451.838 338.992L451.838 590.257L400.281 590.257Z"   fill="#FFFFFF" >
</path>
<path d="M502.12 590.255L502.12 338.991L699.679 338.991C702.207 338.976 704.722 339.135 707.224 339.468C709.731 339.801 712.202 340.304 714.636 340.977C717.07 341.651 719.448 342.488 721.767 343.49C724.087 344.492 726.326 345.648 728.484 346.958C730.647 348.254 732.718 349.679 734.698 351.234C736.682 352.788 738.56 354.46 740.331 356.25C742.103 358.04 743.758 359.933 745.296 361.93C746.834 363.926 748.24 366.011 749.515 368.184C750.789 370.345 751.913 372.582 752.886 374.896C753.859 377.209 754.67 379.577 755.32 382.001C755.975 384.424 756.461 386.88 756.78 389.369C757.098 391.858 757.247 394.358 757.226 396.867L757.226 590.255L705.669 590.255L705.669 399.034C705.687 398.491 705.646 397.951 705.548 397.416C705.455 396.88 705.306 396.36 705.102 395.856C704.898 395.352 704.645 394.873 704.344 394.421C704.042 393.968 703.698 393.551 703.311 393.17C702.967 392.798 702.587 392.465 702.171 392.171C701.755 391.877 701.315 391.629 700.851 391.426C700.384 391.223 699.902 391.07 699.405 390.967C698.908 390.863 698.404 390.811 697.894 390.812L561.897 390.812C561.626 390.807 561.356 390.817 561.085 390.84C560.815 390.862 560.547 390.898 560.28 390.948C560.013 390.997 559.75 391.06 559.49 391.136C559.229 391.212 558.973 391.3 558.722 391.402C558.47 391.503 558.224 391.616 557.984 391.742C557.744 391.868 557.51 392.005 557.284 392.155C557.057 392.304 556.839 392.464 556.628 392.635C556.418 392.806 556.216 392.987 556.024 393.178C555.831 393.369 555.648 393.569 555.476 393.779C555.303 393.988 555.142 394.205 554.991 394.43C554.84 394.656 554.701 394.888 554.573 395.128C554.446 395.367 554.33 395.612 554.227 395.862C554.124 396.113 554.033 396.369 553.955 396.629C553.877 396.888 553.812 397.151 553.761 397.418C553.71 397.684 553.671 397.952 553.646 398.222C553.622 398.492 553.61 398.763 553.612 399.034L553.612 590.255L502.12 590.255Z"   fill="#FFFFFF" >
</path>
<path d="M802.982 308.652L802.982 256.64L854.539 256.64L854.539 308.652L802.982 308.652ZM802.982 590.257L802.982 338.992L854.539 338.992L854.539 590.257L802.982 590.257Z"   fill="#FFFFFF" >
</path>
<path d="M900.616 488.013L900.616 436.447L1075.68 436.447L1075.68 488.013L900.616 488.013Z"   fill="#FFFFFF" >
</path>
<path d="M1123.73 590.256L1123.73 278.31L1176.18 278.31L1176.18 408.277L1255.9 408.277L1364.63 278.31L1423.13 278.31L1423.13 291.058L1302.68 434.474L1423.13 577.89L1423.13 590.638L1364.63 590.638L1255.9 460.608L1176.18 460.608L1176.18 590.256L1123.73 590.256Z"   fill="#FFFFFF" >
</path>
<path d="M1640.12 590.256L1459.39 278.31L1520 278.31L1664.28 529.193L1809.07 278.31L1869.29 278.31L1688.81 590.256L1640.12 590.256Z"   fill="#FFFFFF" >
</path>
<path d="M1903.07 590.26L1903.07 278.31L1962.47 278.31L2079.41 417.84L2195.97 278.31L2256 278.31L2256 590.26L2203.55 590.26L2203.55 351.1L2079.41 498.85L1955.07 351.55L1955.07 590.26L1903.07 590.26Z"   fill="#FFFFFF" >
</path>
<path d="M16.9277 182.702C15.669 181.938 14.4614 181.1 13.305 180.189C12.1487 179.277 11.0521 178.299 10.0153 177.253C8.97858 176.207 8.00931 175.103 7.10756 173.939C6.20585 172.775 5.3783 171.56 4.62498 170.295C3.86885 169.055 3.20134 167.77 2.62244 166.439C2.04354 165.107 1.55873 163.742 1.16802 162.344C0.777312 160.945 0.484393 159.527 0.289266 158.088C0.0941383 156.649 -0.00135187 155.204 0.00279523 153.752L0.00279523 79.935C-0.0168536 78.4623 0.0670873 76.9956 0.254618 75.5348C0.442147 74.074 0.731406 72.6336 1.12239 71.2138C1.51338 69.7938 2.00221 68.4084 2.58889 67.0576C3.17557 65.7068 3.85429 64.4039 4.62498 63.1489C5.38615 61.9058 6.21944 60.7131 7.12487 59.5706C8.0303 58.4283 9.00127 57.3449 10.0378 56.3201C11.0744 55.2951 12.1689 54.3364 13.3214 53.4442C14.4739 52.5517 15.676 51.732 16.9277 50.985C18.1692 50.2084 19.4588 49.5223 20.7966 48.9269C22.1344 48.3314 23.5072 47.8324 24.9151 47.4297C26.323 47.027 27.7522 46.7246 29.2025 46.5226C30.6529 46.3206 32.1102 46.2209 33.5746 46.2237L109.719 46.2237C111.198 46.2094 112.671 46.294 114.139 46.4778C115.607 46.6617 117.055 46.943 118.485 47.3216C119.914 47.7004 121.312 48.1732 122.678 48.7399C124.044 49.3066 125.366 49.9623 126.644 50.707C127.897 51.44 129.097 52.25 130.246 53.137C131.395 54.0239 132.482 54.9804 133.508 56.0066C134.535 57.0327 135.491 58.1202 136.378 59.2689C137.265 60.4177 138.075 61.6183 138.808 62.8708C139.558 64.159 140.217 65.492 140.787 66.8696C141.356 68.247 141.83 69.6565 142.209 71.0981C142.588 72.5399 142.868 74.0005 143.049 75.4799C143.23 76.9594 143.311 78.4445 143.291 79.935L143.291 153.752C143.295 155.2 143.202 156.641 143.013 158.076C142.824 159.511 142.54 160.928 142.161 162.325C141.782 163.722 141.312 165.088 140.751 166.422C140.19 167.756 139.542 169.047 138.808 170.295C138.073 171.545 137.264 172.745 136.382 173.895C135.499 175.046 134.55 176.138 133.534 177.172C132.517 178.205 131.442 179.173 130.307 180.075C129.171 180.977 127.985 181.807 126.748 182.563C125.473 183.337 124.149 184.019 122.778 184.607C121.406 185.196 120 185.686 118.56 186.076C117.12 186.467 115.659 186.756 114.178 186.941C112.698 187.127 111.211 187.208 109.719 187.185L33.5746 187.185C32.1169 187.209 30.6647 187.131 29.2179 186.951C27.7711 186.772 26.3439 186.493 24.9362 186.113C23.5284 185.734 22.1539 185.259 20.8127 184.688C19.4714 184.116 18.1764 183.454 16.9277 182.702ZM34.7562 155.455L108.503 155.455C108.887 155.462 109.257 155.393 109.614 155.248C109.97 155.103 110.283 154.894 110.553 154.621C110.836 154.348 111.052 154.03 111.203 153.668C111.354 153.306 111.427 152.928 111.422 152.536L111.422 81.0122C111.427 80.6199 111.354 80.2424 111.203 79.8801C111.052 79.5177 110.836 79.2 110.553 78.9271C110.283 78.6539 109.97 78.445 109.614 78.3001C109.257 78.1553 108.887 78.0863 108.503 78.093L34.7562 78.093C34.3718 78.0863 34.0016 78.1553 33.6455 78.3001C33.2895 78.445 32.9762 78.6539 32.7057 78.9271C32.4235 79.2 32.2069 79.5177 32.0559 79.8801C31.9049 80.2424 31.8319 80.6199 31.8369 81.0122L31.8369 152.536C31.8319 152.928 31.9049 153.306 32.0559 153.668C32.2069 154.03 32.4235 154.348 32.7057 154.621C32.9762 154.894 33.2895 155.103 33.6455 155.248C34.0016 155.393 34.3718 155.462 34.7562 155.455Z"   fill="#FFFFFF" >
</path>
<path d="M169.078 243.278L169.078 46.2239L278.795 46.2239C280.275 46.2086 281.75 46.2958 283.218 46.4856C284.686 46.6751 286.134 46.9653 287.562 47.3562C288.991 47.747 290.385 48.2346 291.745 48.8189C293.105 49.4035 294.419 50.0793 295.685 50.8461C296.933 51.5859 298.129 52.4008 299.275 53.2907C300.42 54.1804 301.506 55.138 302.531 56.1635C303.557 57.1892 304.515 58.2748 305.404 59.4202C306.294 60.5657 307.109 61.7623 307.849 63.01C308.608 64.2815 309.276 65.5995 309.852 66.9639C310.429 68.3284 310.907 69.726 311.289 71.157C311.671 72.5881 311.953 74.0387 312.133 75.5085C312.314 76.9786 312.391 78.4541 312.367 79.9351L312.367 153.752C312.378 155.213 312.29 156.667 312.103 158.115C311.916 159.564 311.632 160.993 311.25 162.402C310.868 163.812 310.392 165.189 309.823 166.534C309.253 167.879 308.596 169.179 307.849 170.434C307.112 171.691 306.3 172.897 305.412 174.052C304.524 175.207 303.567 176.302 302.541 177.336C301.516 178.371 300.429 179.337 299.282 180.235C298.135 181.132 296.936 181.955 295.685 182.702C294.419 183.469 293.105 184.145 291.745 184.729C290.385 185.314 288.991 185.801 287.562 186.192C286.134 186.583 284.686 186.873 283.218 187.063C281.75 187.253 280.275 187.34 278.795 187.324L200.947 187.324L200.947 243.278L169.078 243.278ZM203.832 155.455L277.579 155.455C277.963 155.462 278.333 155.393 278.689 155.248C279.045 155.103 279.359 154.894 279.629 154.621C279.911 154.348 280.128 154.031 280.279 153.668C280.43 153.306 280.503 152.928 280.498 152.536L280.498 81.0125C280.503 80.62 280.43 80.2426 280.279 79.8802C280.128 79.5178 279.911 79.2002 279.629 78.9272C279.359 78.6541 279.045 78.4451 278.689 78.3003C278.333 78.1555 277.963 78.0864 277.579 78.0931L203.867 78.0931C203.674 78.0883 203.482 78.103 203.292 78.1373C203.102 78.1713 202.917 78.2243 202.738 78.2961C202.559 78.3677 202.389 78.4566 202.228 78.5627C202.066 78.669 201.917 78.7904 201.781 78.9269C201.645 79.0634 201.523 79.2122 201.417 79.3735C201.311 79.5347 201.222 79.7049 201.15 79.884C201.078 80.0633 201.025 80.248 200.991 80.438C200.957 80.628 200.942 80.8195 200.947 81.0125L200.947 152.536C200.942 152.729 200.957 152.92 200.991 153.11C201.025 153.3 201.078 153.485 201.15 153.664C201.222 153.843 201.311 154.014 201.417 154.175C201.523 154.336 201.645 154.485 201.781 154.621C201.917 154.758 202.066 154.879 202.228 154.986C202.389 155.092 202.559 155.181 202.738 155.252C202.917 155.324 203.102 155.377 203.292 155.411C203.482 155.445 203.674 155.46 203.867 155.455L203.832 155.455Z"   fill="#FFFFFF" >
</path>
<path d="M346.772 182.703C345.514 181.942 344.308 181.105 343.153 180.195C341.998 179.284 340.903 178.306 339.869 177.26C338.835 176.214 337.869 175.109 336.972 173.944C336.074 172.779 335.252 171.563 334.504 170.296C333.742 169.047 333.07 167.751 332.487 166.408C331.905 165.065 331.419 163.689 331.028 162.278C330.637 160.868 330.346 159.437 330.154 157.986C329.962 156.535 329.871 155.078 329.882 153.614L329.882 79.9361C329.862 78.4635 329.946 76.9968 330.134 75.5359C330.321 74.0751 330.611 72.6348 331.001 71.215C331.392 69.7949 331.881 68.4096 332.468 67.0588C333.055 65.708 333.733 64.4051 334.504 63.15C335.259 61.9054 336.088 60.7113 336.989 59.5679C337.89 58.4245 338.858 57.3403 339.892 56.3153C340.926 55.2903 342.018 54.3321 343.169 53.4405C344.32 52.5489 345.521 51.7308 346.772 50.9862C348.021 50.2239 349.317 49.5517 350.661 48.9694C352.003 48.3874 353.379 47.901 354.79 47.5101C356.201 47.1192 357.631 46.8279 359.082 46.636C360.532 46.444 361.99 46.3533 363.454 46.3639L439.598 46.3639C441.074 46.3493 442.544 46.4339 444.009 46.6176C445.475 46.8016 446.921 47.0829 448.346 47.4614C449.773 47.8403 451.169 48.313 452.534 48.8797C453.896 49.4467 455.214 50.1025 456.489 50.8471C457.742 51.5782 458.945 52.3865 460.096 53.2723C461.245 54.1583 462.333 55.1145 463.359 56.1409C464.386 57.1673 465.341 58.2554 466.227 59.4053C467.114 60.5549 467.922 61.7569 468.652 63.011C469.403 64.2867 470.063 65.6072 470.633 66.9726C471.206 68.338 471.683 69.7357 472.065 71.1656C472.447 72.5957 472.73 74.0449 472.913 75.5133C473.098 76.9818 473.184 78.4561 473.17 79.9361L473.17 132.832L361.751 132.832L361.751 152.537C361.746 152.926 361.817 153.301 361.963 153.662C362.107 154.023 362.314 154.343 362.585 154.622C362.863 154.896 363.183 155.106 363.544 155.251C363.906 155.395 364.281 155.464 364.67 155.456L473.17 155.456L473.17 187.326L363.454 187.326C361.99 187.336 360.532 187.245 359.082 187.054C357.631 186.862 356.201 186.57 354.79 186.179C353.379 185.788 352.003 185.302 350.661 184.72C349.317 184.138 348.021 183.466 346.772 182.703ZM361.751 104.264L441.371 104.264L441.371 81.0135C441.375 80.621 441.302 80.2436 441.152 79.8812C441.001 79.5189 440.785 79.2012 440.502 78.9283C440.231 78.6551 439.918 78.4461 439.564 78.3013C439.207 78.1565 438.836 78.0875 438.452 78.0942L364.67 78.0942C364.281 78.0865 363.906 78.1551 363.544 78.2999C363.183 78.4447 362.863 78.6542 362.585 78.9283C362.314 79.2075 362.107 79.5275 361.963 79.8885C361.817 80.2497 361.746 80.6247 361.751 81.0135L361.751 104.264Z"   fill="#FFFFFF" >
</path>
<path d="M498.958 187.325L498.958 46.2239L608.674 46.2239C610.155 46.2086 611.629 46.2958 613.098 46.4856C614.565 46.6751 616.013 46.9653 617.443 47.3562C618.87 47.747 620.263 48.2346 621.623 48.8189C622.983 49.4035 624.297 50.0793 625.564 50.8461C626.811 51.5859 628.008 52.4008 629.154 53.2907C630.299 54.1804 631.385 55.138 632.411 56.1635C633.437 57.1892 634.395 58.2748 635.285 59.4203C636.175 60.5657 636.989 61.7623 637.728 63.01C638.488 64.2815 639.155 65.5995 639.73 66.9639C640.307 68.3284 640.786 69.7261 641.169 71.157C641.551 72.5881 641.833 74.0387 642.013 75.5085C642.194 76.9786 642.271 78.4541 642.246 79.9351L642.246 187.325L610.377 187.325L610.377 81.0125C610.375 80.6214 610.298 80.2455 610.148 79.8847C609.997 79.5238 609.784 79.2046 609.508 78.9272C609.237 78.6541 608.924 78.4451 608.57 78.3003C608.213 78.1555 607.843 78.0864 607.458 78.0931L533.746 78.0931C533.357 78.0855 532.981 78.1541 532.62 78.2989C532.258 78.4437 531.939 78.6532 531.661 78.9272C531.39 79.2064 531.182 79.5265 531.039 79.8875C530.893 80.2487 530.822 80.6237 530.827 81.0125L530.827 187.325L498.958 187.325Z"   fill="#FFFFFF" >
</path>
<path d="M682.49 183.327C681.413 182.674 680.381 181.956 679.394 181.171C678.407 180.387 677.473 179.544 676.593 178.641C675.715 177.738 674.897 176.783 674.139 175.776C673.379 174.768 672.688 173.717 672.064 172.622C671.418 171.509 670.848 170.358 670.355 169.169C669.863 167.979 669.453 166.762 669.124 165.517C668.795 164.273 668.551 163.012 668.391 161.734C668.231 160.456 668.158 159.174 668.172 157.887L668.172 0L688.121 0L688.121 46.2226L749.182 46.2226L749.182 66.0323L688.121 66.0323L688.121 157.887C688.121 158.197 688.136 158.507 688.166 158.817C688.196 159.126 688.241 159.433 688.301 159.738C688.364 160.043 688.44 160.343 688.531 160.641C688.619 160.938 688.723 161.23 688.843 161.517C688.962 161.805 689.094 162.085 689.24 162.359C689.388 162.633 689.548 162.9 689.719 163.158C689.893 163.416 690.078 163.666 690.275 163.906C690.472 164.146 690.681 164.376 690.901 164.596C691.119 164.815 691.348 165.024 691.589 165.221C691.83 165.418 692.079 165.603 692.336 165.776C692.596 165.948 692.862 166.108 693.135 166.254C693.409 166.401 693.689 166.533 693.977 166.652C694.264 166.771 694.557 166.876 694.856 166.966C695.152 167.056 695.452 167.132 695.756 167.192C696.062 167.253 696.369 167.298 696.677 167.329C696.987 167.359 697.298 167.375 697.608 167.375L749.182 167.375L749.182 187.323L697.469 187.323C696.16 187.341 694.855 187.269 693.552 187.108C692.253 186.947 690.97 186.697 689.705 186.359C688.438 186.021 687.201 185.598 685.994 185.091C684.784 184.583 683.616 183.995 682.49 183.327Z"   fill="#FFFFFF" >
</path>
<path d="M781.955 183.328C780.859 182.674 779.808 181.955 778.803 181.17C777.795 180.386 776.84 179.543 775.939 178.641C775.035 177.738 774.192 176.784 773.409 175.777C772.624 174.771 771.904 173.719 771.251 172.624C770.588 171.516 770.004 170.369 769.499 169.181C768.994 167.994 768.572 166.777 768.234 165.531C767.898 164.286 767.648 163.024 767.483 161.744C767.319 160.464 767.242 159.178 767.254 157.888L767.254 75.6606C767.238 74.3726 767.312 73.0897 767.477 71.8119C767.639 70.5344 767.889 69.2741 768.227 68.031C768.563 66.788 768.985 65.5744 769.492 64.3902C770 63.2061 770.586 62.0626 771.251 60.9597C771.902 59.8624 772.619 58.8098 773.402 57.8019C774.185 56.7941 775.029 55.8389 775.932 54.9365C776.833 54.0341 777.788 53.1912 778.796 52.4078C779.804 51.6247 780.857 50.9073 781.955 50.2555C783.06 49.5892 784.207 49.0018 785.395 48.4935C786.582 47.9852 787.798 47.5606 789.044 47.2198C790.289 46.8789 791.551 46.6252 792.833 46.4587C794.114 46.2918 795.4 46.2136 796.69 46.2241L881.349 46.2241C882.659 46.209 883.962 46.2836 885.259 46.4479C886.557 46.6124 887.837 46.865 889.1 47.2059C890.362 47.5467 891.596 47.9724 892.801 48.4831C894.006 48.9937 895.17 49.5845 896.293 50.2555C897.397 50.9049 898.455 51.6208 899.47 52.403C900.485 53.1849 901.446 54.0272 902.354 54.9299C903.263 55.8323 904.111 56.7881 904.898 57.7971C905.689 58.8061 906.412 59.8603 907.067 60.9597C907.732 62.0628 908.319 63.2064 908.829 64.3906C909.336 65.5745 909.76 66.7879 910.101 68.0307C910.442 69.2733 910.695 70.5335 910.862 71.8112C911.029 73.089 911.108 74.3721 911.098 75.6606L911.098 126.749L787.237 126.749L787.237 158.027C787.226 158.652 787.279 159.271 787.397 159.884C787.513 160.498 787.69 161.093 787.929 161.67C788.17 162.247 788.465 162.794 788.815 163.31C789.167 163.826 789.568 164.301 790.018 164.735C790.453 165.181 790.929 165.578 791.446 165.928C791.963 166.278 792.509 166.572 793.086 166.811C793.663 167.05 794.258 167.228 794.869 167.347C795.483 167.466 796.102 167.522 796.725 167.515L911.064 167.515L911.064 187.325L796.725 187.325C795.432 187.34 794.144 187.266 792.86 187.103C791.577 186.94 790.311 186.69 789.062 186.352C787.813 186.014 786.594 185.592 785.406 185.085C784.215 184.579 783.065 183.993 781.955 183.328ZM787.203 106.869L890.837 106.869L890.837 75.5911C890.837 75.2801 890.822 74.97 890.792 74.6607C890.762 74.3514 890.717 74.0443 890.656 73.7394C890.596 73.4343 890.521 73.1329 890.431 72.8354C890.343 72.5377 890.239 72.2451 890.121 71.9576C890.003 71.67 889.871 71.389 889.725 71.1144C889.579 70.8396 889.421 70.5727 889.249 70.3137C889.078 70.0544 888.893 69.8042 888.696 69.563C888.502 69.3218 888.294 69.0907 888.074 68.8697C887.857 68.6486 887.628 68.4388 887.39 68.2403C887.149 68.0415 886.9 67.8549 886.642 67.6804C886.385 67.5059 886.121 67.3444 885.85 67.1959C885.577 67.0472 885.296 66.9122 885.009 66.791C884.724 66.6696 884.434 66.5625 884.137 66.4696C883.84 66.3769 883.539 66.2987 883.233 66.235C882.93 66.1715 882.624 66.1229 882.316 66.0894C882.005 66.0558 881.695 66.0372 881.384 66.0338L796.725 66.0338C796.102 66.027 795.483 66.083 794.869 66.2016C794.258 66.3203 793.663 66.499 793.086 66.7379C792.509 66.9767 791.963 67.271 791.446 67.6206C790.929 67.9702 790.453 68.368 790.018 68.814C789.568 69.2478 789.167 69.7228 788.815 70.239C788.465 70.7552 788.17 71.3018 787.929 71.8787C787.69 72.4556 787.513 73.0509 787.397 73.6647C787.279 74.2782 787.226 74.8971 787.237 75.5215L787.203 106.869Z"   fill="#FFFFFF" >
</path>
<path d="M934.661 187.324L934.661 75.6596C934.645 74.3716 934.719 73.0887 934.884 71.8109C935.046 70.5334 935.296 69.2731 935.634 68.0301C935.97 66.7871 936.392 65.5735 936.899 64.3893C937.407 63.2051 937.993 62.0616 938.658 60.9587C939.309 59.8614 940.026 58.8089 940.809 57.801C941.592 56.7931 942.435 55.838 943.339 54.9355C944.24 54.0331 945.195 53.1902 946.203 52.4068C947.211 51.6237 948.264 50.9063 949.362 50.2545C950.467 49.5882 951.614 49.0009 952.802 48.4925C953.989 47.9842 955.205 47.5596 956.452 47.2188C957.696 46.878 958.958 46.6243 960.24 46.4577C961.521 46.2909 962.807 46.2127 964.097 46.2231L1043.4 46.2231L1043.4 66.0328L964.097 66.0328C963.474 66.0261 962.855 66.082 962.242 66.2006C961.63 66.3193 961.035 66.498 960.459 66.7369C959.882 66.9758 959.335 67.27 958.818 67.6197C958.302 67.9692 957.826 68.3671 957.39 68.8131C956.94 69.2468 956.54 69.7218 956.187 70.238C955.838 70.7542 955.542 71.3008 955.301 71.8777C955.063 72.4546 954.885 73.0499 954.77 73.6637C954.651 74.2772 954.598 74.8962 954.61 75.5206L954.61 187.324L934.661 187.324Z"   fill="#FFFFFF" >
</path>
<path d="M1059.46 187.324L1059.46 29.4371C1059.45 28.1301 1059.53 26.8284 1059.69 25.5318C1059.85 24.2353 1060.1 22.9557 1060.44 21.6931C1060.78 20.4305 1061.2 19.1965 1061.71 17.9909C1062.21 16.7854 1062.79 15.6194 1063.46 14.4929C1064.08 13.4161 1064.77 12.3842 1065.53 11.3975C1066.29 10.4107 1067.11 9.4773 1067.99 8.5973C1068.87 7.71733 1069.8 6.89819 1070.79 6.13989C1071.77 5.3816 1072.81 4.69055 1073.88 4.06676C1075.01 3.39657 1076.18 2.80571 1077.39 2.29417C1078.61 1.78263 1079.84 1.35508 1081.11 1.01153C1082.38 0.667986 1083.67 0.411579 1084.97 0.242309C1086.27 0.0730383 1087.58 -0.00754634 1088.9 0.000555029L1140.47 0.000555029L1140.47 19.9493L1088.9 19.9493C1088.27 19.9426 1087.65 19.9986 1087.04 20.1171C1086.43 20.2357 1085.83 20.4144 1085.26 20.6533C1084.68 20.8922 1084.13 21.1865 1083.62 21.5361C1083.1 21.8857 1082.62 22.2835 1082.19 22.7296C1081.74 23.1633 1081.34 23.6383 1080.99 24.1545C1080.64 24.6707 1080.34 25.2172 1080.1 25.7942C1079.86 26.3711 1079.68 26.9664 1079.57 27.58C1079.45 28.1936 1079.4 28.8126 1079.41 29.4371L1079.41 46.2233L1140.47 46.2233L1140.47 66.033L1079.41 66.033L1079.41 187.324L1059.46 187.324Z"   fill="#FFFFFF" >
</path>
<path d="M1187.67 187.325C1186.38 187.338 1185.09 187.263 1183.81 187.099C1182.53 186.936 1181.27 186.685 1180.02 186.347C1178.78 186.009 1177.56 185.588 1176.37 185.082C1175.19 184.577 1174.04 183.992 1172.93 183.328C1171.83 182.674 1170.78 181.955 1169.78 181.17C1168.77 180.386 1167.82 179.543 1166.92 178.641C1166.01 177.738 1165.17 176.784 1164.39 175.777C1163.6 174.771 1162.88 173.719 1162.23 172.624C1161.56 171.516 1160.98 170.369 1160.48 169.181C1159.97 167.994 1159.55 166.777 1159.21 165.531C1158.87 164.286 1158.62 163.024 1158.46 161.744C1158.3 160.464 1158.22 159.178 1158.23 157.888L1158.23 106.8L1281.81 106.8L1281.81 75.5215C1281.81 75.2113 1281.79 74.902 1281.76 74.5936C1281.73 74.2852 1281.68 73.9792 1281.62 73.6754C1281.56 73.3715 1281.48 73.0713 1281.39 72.7749C1281.3 72.4786 1281.19 72.1874 1281.07 71.9012C1280.95 71.6153 1280.82 71.3358 1280.67 71.0627C1280.53 70.7895 1280.37 70.5242 1280.19 70.2668C1280.02 70.0091 1279.83 69.7605 1279.64 69.521C1279.44 69.2814 1279.23 69.052 1279.02 68.8328C1278.8 68.6134 1278.57 68.4052 1278.33 68.2083C1278.09 68.0114 1277.84 67.8265 1277.58 67.6536C1277.32 67.481 1277.06 67.3213 1276.78 67.1744C1276.51 67.0272 1276.23 66.8939 1275.95 66.7744C1275.66 66.6546 1275.37 66.549 1275.07 66.4578C1274.77 66.3662 1274.47 66.2894 1274.17 66.2273C1273.87 66.1652 1273.56 66.118 1273.25 66.0856C1272.95 66.0533 1272.64 66.0361 1272.33 66.0338L1158.23 66.0338L1158.23 46.2241L1272.33 46.2241C1273.63 46.209 1274.94 46.2836 1276.24 46.4479C1277.53 46.6124 1278.81 46.865 1280.08 47.2059C1281.34 47.5467 1282.57 47.9724 1283.78 48.4831C1284.98 48.9937 1286.15 49.5845 1287.27 50.2555C1288.37 50.9073 1289.42 51.6247 1290.43 52.4078C1291.44 53.1909 1292.39 54.0338 1293.29 54.9365C1294.2 55.8389 1295.04 56.7941 1295.82 57.8019C1296.61 58.8096 1297.32 59.8621 1297.97 60.9597C1298.64 62.0628 1299.23 63.2064 1299.74 64.3906C1300.24 65.5745 1300.67 66.7879 1301.01 68.0307C1301.35 69.2733 1301.6 70.5335 1301.77 71.8112C1301.94 73.089 1302.01 74.3721 1302.01 75.6606L1302.01 187.325L1187.67 187.325ZM1187.67 167.376L1281.81 167.376L1281.81 126.749L1178.14 126.749L1178.14 158.027C1178.13 158.652 1178.19 159.271 1178.3 159.884C1178.42 160.498 1178.6 161.093 1178.84 161.67C1179.08 162.247 1179.37 162.794 1179.72 163.31C1180.07 163.826 1180.47 164.301 1180.92 164.735C1181.37 165.17 1181.85 165.557 1182.37 165.895C1182.89 166.233 1183.44 166.516 1184.02 166.743C1184.61 166.97 1185.2 167.137 1185.81 167.243C1186.43 167.35 1187.05 167.394 1187.67 167.376Z"   fill="#FFFFFF" >
</path>
<path d="M1339.09 183.327C1337.99 182.673 1336.94 181.954 1335.93 181.17C1334.93 180.386 1333.97 179.542 1333.07 178.64C1332.17 177.738 1331.32 176.783 1330.54 175.777C1329.76 174.77 1329.04 173.718 1328.38 172.623C1327.72 171.516 1327.13 170.369 1326.62 169.182C1326.12 167.995 1325.69 166.778 1325.35 165.533C1325.01 164.288 1324.76 163.025 1324.59 161.745C1324.42 160.464 1324.34 159.178 1324.35 157.887L1324.35 75.6595C1324.34 74.3711 1324.42 73.088 1324.59 71.8102C1324.75 70.5325 1325.01 69.2723 1325.35 68.0297C1325.69 66.7869 1326.11 65.5735 1326.62 64.3896C1327.13 63.2054 1327.72 62.0618 1328.38 60.9587C1329.03 59.8611 1329.75 58.8086 1330.53 57.8009C1331.32 56.7931 1332.16 55.8379 1333.06 54.9355C1333.96 54.0328 1334.92 53.1899 1335.93 52.4068C1336.94 51.6237 1337.99 50.9063 1339.09 50.2545C1340.19 49.5884 1341.33 49.0013 1342.52 48.4932C1343.7 47.9848 1344.91 47.5603 1346.16 47.2194C1347.4 46.8786 1348.66 46.6248 1349.94 46.458C1351.22 46.2912 1352.5 46.2129 1353.79 46.223L1467.64 46.223L1467.64 66.0327L1353.79 66.0327C1353.48 66.0351 1353.17 66.0523 1352.86 66.0845C1352.55 66.117 1352.25 66.1642 1351.94 66.2263C1351.64 66.2887 1351.34 66.3655 1351.04 66.4567C1350.74 66.548 1350.45 66.6536 1350.17 66.7733C1349.88 66.8931 1349.6 67.0265 1349.33 67.1734C1349.05 67.3203 1348.79 67.4801 1348.53 67.653C1348.28 67.8256 1348.03 68.0104 1347.79 68.2073C1347.55 68.4042 1347.32 68.6124 1347.1 68.8318C1346.88 69.051 1346.67 69.2804 1346.47 69.5199C1346.28 69.7595 1346.09 70.0081 1345.92 70.2657C1345.75 70.5232 1345.59 70.7885 1345.44 71.0616C1345.29 71.3348 1345.16 71.6144 1345.04 71.9006C1344.92 72.1865 1344.81 72.4776 1344.72 72.7739C1344.63 73.0703 1344.56 73.3705 1344.49 73.6744C1344.43 73.9782 1344.38 74.2842 1344.35 74.5926C1344.32 74.9012 1344.3 75.2105 1344.3 75.5205L1344.3 157.887C1344.3 158.197 1344.32 158.507 1344.35 158.815C1344.38 159.124 1344.43 159.43 1344.49 159.733C1344.56 160.037 1344.63 160.337 1344.72 160.634C1344.81 160.93 1344.92 161.221 1345.04 161.508C1345.16 161.793 1345.29 162.073 1345.44 162.346C1345.59 162.619 1345.75 162.885 1345.92 163.142C1346.09 163.4 1346.28 163.648 1346.47 163.888C1346.67 164.127 1346.88 164.357 1347.1 164.576C1347.32 164.795 1347.55 165.004 1347.79 165.201C1348.03 165.397 1348.28 165.582 1348.53 165.755C1348.79 165.928 1349.05 166.088 1349.33 166.235C1349.6 166.381 1349.88 166.515 1350.17 166.635C1350.45 166.754 1350.74 166.86 1351.04 166.951C1351.34 167.043 1351.64 167.119 1351.94 167.182C1352.25 167.243 1352.55 167.291 1352.86 167.323C1353.17 167.355 1353.48 167.373 1353.79 167.375L1468.13 167.375L1468.13 187.324L1353.79 187.324C1352.5 187.339 1351.22 187.266 1349.94 187.103C1348.66 186.94 1347.4 186.69 1346.16 186.352C1344.91 186.014 1343.7 185.592 1342.52 185.085C1341.33 184.579 1340.19 183.992 1339.09 183.327Z"   fill="#FFFFFF" >
</path>
<path d="M1502.08 183.327C1500.98 182.673 1499.93 181.954 1498.93 181.17C1497.92 180.386 1496.97 179.543 1496.06 178.64C1495.16 177.738 1494.32 176.783 1493.53 175.777C1492.75 174.77 1492.03 173.719 1491.38 172.623C1490.72 171.514 1490.14 170.365 1489.65 169.176C1489.14 167.988 1488.73 166.771 1488.4 165.526C1488.07 164.28 1487.82 163.018 1487.66 161.739C1487.5 160.46 1487.43 159.176 1487.45 157.887L1487.45 75.6599C1487.44 74.3715 1487.52 73.0883 1487.69 71.8106C1487.85 70.5328 1488.11 69.2726 1488.45 68.03C1488.79 66.7872 1489.21 65.5739 1489.72 64.3899C1490.23 63.2057 1490.82 62.0621 1491.48 60.959C1492.13 59.8615 1492.85 58.8089 1493.63 57.8013C1494.41 56.7934 1495.26 55.8383 1496.16 54.9358C1497.06 54.0332 1498.02 53.1902 1499.03 52.4071C1500.03 51.624 1501.09 50.9066 1502.18 50.2548C1503.29 49.5887 1504.43 49.0016 1505.61 48.4935C1506.8 47.9852 1508.01 47.5606 1509.26 47.2198C1510.5 46.879 1511.76 46.6251 1513.03 46.4583C1514.31 46.2915 1515.6 46.2132 1516.88 46.2234L1601.44 46.2234C1602.75 46.2072 1604.06 46.281 1605.36 46.4448C1606.66 46.6086 1607.94 46.8609 1609.21 47.2017C1610.47 47.5425 1611.71 47.9685 1612.92 48.4796C1614.13 48.9909 1615.29 49.5827 1616.42 50.2548C1617.52 50.9066 1618.57 51.624 1619.58 52.4071C1620.59 53.1902 1621.54 54.0332 1622.44 54.9358C1623.34 55.8383 1624.19 56.7934 1624.97 57.8013C1625.75 58.8089 1626.47 59.8615 1627.12 60.959C1627.79 62.0619 1628.37 63.2054 1628.88 64.3896C1629.39 65.5737 1629.81 66.7873 1630.15 68.0304C1630.48 69.2734 1630.73 70.5337 1630.9 71.8112C1631.06 73.089 1631.14 74.3719 1631.12 75.6599L1631.12 126.748L1507.29 126.748L1507.29 158.026C1507.3 158.336 1507.31 158.646 1507.35 158.954C1507.38 159.263 1507.42 159.569 1507.49 159.873C1507.55 160.177 1507.62 160.477 1507.72 160.773C1507.81 161.069 1507.91 161.361 1508.03 161.647C1508.15 161.933 1508.29 162.212 1508.43 162.485C1508.58 162.758 1508.74 163.024 1508.91 163.281C1509.09 163.539 1509.27 163.788 1509.47 164.027C1509.67 164.267 1509.87 164.496 1510.09 164.715C1510.31 164.935 1510.54 165.143 1510.78 165.34C1511.02 165.537 1511.27 165.722 1511.53 165.894C1511.78 166.067 1512.05 166.227 1512.32 166.374C1512.6 166.521 1512.87 166.654 1513.16 166.774C1513.45 166.893 1513.74 166.999 1514.04 167.09C1514.33 167.182 1514.63 167.259 1514.94 167.321C1515.24 167.383 1515.54 167.43 1515.85 167.462C1516.16 167.495 1516.47 167.512 1516.78 167.514L1631.12 167.514L1631.12 187.324L1516.78 187.324C1515.49 187.34 1514.21 187.266 1512.93 187.103C1511.65 186.941 1510.39 186.69 1509.15 186.352C1507.91 186.014 1506.69 185.592 1505.51 185.085C1504.33 184.579 1503.18 183.993 1502.08 183.327ZM1507.29 106.869L1610.93 106.869L1610.93 75.5904C1610.94 74.966 1610.89 74.347 1610.77 73.7335C1610.65 73.1197 1610.47 72.5244 1610.24 71.9475C1609.99 71.3706 1609.7 70.824 1609.35 70.3078C1609 69.7916 1608.6 69.3166 1608.15 68.8829C1607.71 68.4369 1607.24 68.0391 1606.72 67.6894C1606.2 67.3398 1605.66 67.0456 1605.08 66.8067C1604.5 66.5678 1603.91 66.3891 1603.3 66.2704C1602.68 66.1518 1602.06 66.0959 1601.44 66.1026L1516.78 66.1026C1516.47 66.1049 1516.16 66.1221 1515.85 66.1544C1515.54 66.1868 1515.24 66.2341 1514.94 66.2962C1514.63 66.3583 1514.33 66.4351 1514.04 66.5266C1513.74 66.6179 1513.45 66.7234 1513.16 66.8432C1512.87 66.9627 1512.6 67.0961 1512.32 67.2432C1512.05 67.3901 1511.78 67.5498 1511.53 67.7225C1511.27 67.8953 1511.02 68.0802 1510.78 68.2771C1510.54 68.4741 1510.31 68.6823 1510.09 68.9017C1509.87 69.1208 1509.67 69.3502 1509.47 69.5898C1509.27 69.8293 1509.09 70.078 1508.91 70.3356C1508.74 70.593 1508.58 70.8583 1508.43 71.1315C1508.29 71.4046 1508.15 71.6842 1508.03 71.9701C1507.91 72.2562 1507.81 72.5474 1507.72 72.8438C1507.63 73.1401 1507.55 73.4403 1507.49 73.7443C1507.42 74.048 1507.38 74.3541 1507.35 74.6625C1507.31 74.9711 1507.3 75.2804 1507.29 75.5904L1507.29 106.869Z"   fill="#FFFFFF" >
</path>
<path d="M42.5521 778.374L28.2788 778.374L28.2788 696.369L0 696.369L0 684.085L70.7926 684.085L70.7926 696.369L42.5521 696.369L42.5521 778.374Z"   fill="#FFFFFF" >
</path>
<path d="M135.655 707.2L135.655 778.376L124.443 778.376L122.453 769.001L121.802 769.001C121.075 770.221 120.22 771.345 119.238 772.372C118.257 773.399 117.172 774.303 115.986 775.085C113.629 776.681 111.078 777.855 108.333 778.605C105.472 779.346 102.563 779.716 99.6079 779.715C97.1958 779.784 94.8053 779.589 92.4364 779.131C90.0672 778.672 87.7765 777.961 85.5641 776.998C84.5986 776.576 83.6757 776.076 82.7956 775.496C81.9154 774.916 81.0908 774.266 80.3217 773.546C79.5525 772.826 78.8499 772.045 78.2139 771.205C77.578 770.365 77.0178 769.477 76.5333 768.541C75.4542 766.24 74.6623 763.845 74.1577 761.354C73.6531 758.863 73.4501 756.348 73.5485 753.809L73.5485 707.2L88.0132 707.2L88.0132 751.704C87.9285 752.802 87.94 753.899 88.0476 754.995C88.1553 756.091 88.3576 757.17 88.6545 758.23C88.9515 759.291 89.3385 760.317 89.8155 761.31C90.2929 762.303 90.8528 763.246 91.4954 764.141C91.8449 764.501 92.2132 764.841 92.6002 765.161C92.9872 765.481 93.3906 765.778 93.8105 766.053C94.2305 766.328 94.6642 766.58 95.112 766.807C95.5597 767.034 96.0186 767.236 96.4888 767.412C96.9587 767.589 97.4369 767.739 97.9234 767.862C98.4101 767.986 98.9021 768.083 99.3993 768.152C99.8965 768.221 100.396 768.262 100.898 768.276C101.4 768.29 101.901 768.276 102.401 768.235C103.403 768.28 104.403 768.252 105.401 768.15C106.398 768.048 107.383 767.874 108.356 767.628C109.328 767.381 110.277 767.065 111.203 766.68C112.129 766.294 113.021 765.843 113.881 765.327C114.603 764.809 115.276 764.235 115.901 763.604C116.527 762.973 117.095 762.294 117.606 761.568C118.117 760.842 118.565 760.078 118.948 759.277C119.331 758.475 119.644 757.647 119.889 756.793C121.164 752.367 121.751 747.852 121.649 743.247L121.649 707.2L135.655 707.2Z"   fill="#FFFFFF" >
</path>
<path d="M190.068 705.859C191.437 705.866 192.802 705.943 194.163 706.088C195.447 706.166 196.723 706.319 197.99 706.547L196.535 719.596C195.401 719.307 194.253 719.09 193.091 718.946C191.821 718.781 190.546 718.692 189.265 718.678C187.95 718.668 186.648 718.791 185.359 719.049C184.07 719.307 182.821 719.693 181.612 720.209C180.981 720.474 180.365 720.77 179.764 721.098C179.163 721.425 178.58 721.782 178.015 722.168C177.45 722.555 176.906 722.969 176.384 723.411C175.861 723.852 175.361 724.319 174.885 724.811C174.41 725.303 173.96 725.818 173.537 726.355C173.113 726.893 172.718 727.45 172.351 728.028C171.984 728.605 171.647 729.2 171.34 729.812C171.033 730.424 170.758 731.049 170.514 731.689C169.939 733.183 169.512 734.719 169.235 736.297C168.958 737.874 168.836 739.463 168.869 741.064L168.869 778.565L154.94 778.565L154.94 707.198L166.037 707.198L167.874 719.864L168.371 719.864C169.886 717.3 171.697 714.965 173.805 712.862C175.931 710.739 178.354 709.043 181.076 707.772C182.486 707.125 183.949 706.64 185.466 706.318C186.983 705.995 188.517 705.842 190.068 705.859Z"   fill="#FFFFFF" >
</path>
<path d="M244.484 705.859C245.342 705.799 246.201 705.78 247.061 705.803C247.921 705.826 248.778 705.889 249.632 705.995C250.486 706.1 251.332 706.246 252.172 706.433C253.012 706.619 253.841 706.846 254.658 707.113C255.476 707.379 256.279 707.685 257.068 708.029C257.857 708.373 258.627 708.754 259.378 709.172C260.13 709.59 260.86 710.044 261.568 710.532C262.276 711.021 262.959 711.542 263.617 712.097C267.865 716.229 270.122 722.849 270.122 732.034L270.122 778.374L256.385 778.374L256.385 734.023C256.465 732.918 256.449 731.814 256.337 730.712C256.225 729.61 256.02 728.525 255.72 727.459C255.42 726.392 255.03 725.359 254.55 724.36C254.071 723.361 253.509 722.411 252.864 721.51C252.506 721.142 252.128 720.795 251.731 720.469C251.335 720.143 250.921 719.84 250.49 719.56C250.06 719.28 249.615 719.025 249.155 718.794C248.697 718.564 248.226 718.359 247.744 718.181C247.262 718.003 246.773 717.852 246.274 717.728C245.775 717.605 245.271 717.509 244.762 717.442C244.253 717.374 243.741 717.335 243.228 717.324C242.714 717.313 242.202 717.331 241.69 717.377C234.496 717.377 229.483 719.52 226.728 723.844C225.954 725.258 225.282 726.719 224.714 728.227C224.144 729.736 223.683 731.276 223.331 732.849C222.978 734.422 222.737 736.012 222.607 737.619C222.478 739.225 222.461 740.833 222.557 742.442L222.557 778.374L208.437 778.374L208.437 707.198L219.534 707.198L221.524 716.689L222.328 716.689C223.081 715.5 223.944 714.396 224.917 713.379C225.889 712.361 226.952 711.449 228.106 710.642C230.454 709.011 233.005 707.812 235.759 707.045C238.614 706.256 241.522 705.861 244.484 705.859Z"   fill="#FFFFFF" >
</path>
<path d="M348.223 728.207L371.183 684.085L386.489 684.085L355.341 741.983L355.341 778.566L341.182 778.566L341.182 742.327L309.957 684.085L325.263 684.085L348.223 728.207Z"   fill="#FFFFFF" >
</path>
<path d="M451.235 742.709C451.279 745.378 451.102 748.032 450.704 750.672C450.306 753.311 449.692 755.899 448.863 758.437C448.133 760.559 447.198 762.587 446.058 764.52C444.918 766.453 443.595 768.252 442.09 769.917C440.636 771.514 439.017 772.921 437.234 774.137C435.448 775.352 433.546 776.343 431.528 777.111C429.319 777.956 427.05 778.584 424.721 778.997C422.389 779.408 420.041 779.596 417.676 779.56C415.393 779.589 413.127 779.398 410.88 778.986C408.632 778.574 406.446 777.949 404.321 777.111C402.323 776.324 400.439 775.323 398.669 774.109C396.901 772.894 395.29 771.497 393.836 769.917C392.305 768.257 390.957 766.46 389.791 764.527C388.625 762.594 387.665 760.564 386.91 758.437C386.443 756.994 386.041 755.533 385.704 754.054C385.365 752.575 385.093 751.084 384.889 749.582C384.685 748.079 384.547 746.57 384.476 745.055C384.405 743.539 384.401 742.024 384.465 740.509C384.528 738.993 384.658 737.484 384.855 735.98C385.054 734.476 385.318 732.984 385.647 731.504C385.979 730.023 386.374 728.56 386.833 727.115C387.292 725.67 387.815 724.247 388.402 722.849C389.012 721.546 389.717 720.298 390.518 719.104C391.319 717.91 392.207 716.784 393.182 715.726C394.154 714.668 395.202 713.69 396.327 712.793C397.45 711.895 398.635 711.089 399.882 710.374C401.255 709.628 402.669 708.974 404.126 708.414C405.582 707.853 407.07 707.391 408.588 707.025C410.108 706.66 411.644 706.396 413.195 706.233C414.749 706.069 416.306 706.008 417.867 706.05C419.367 706.02 420.862 706.09 422.352 706.26C423.839 706.429 425.31 706.697 426.764 707.062C428.218 707.427 429.642 707.887 431.035 708.441C432.43 708.996 433.781 709.64 435.087 710.374C436.353 711.095 437.558 711.904 438.703 712.803C439.849 713.701 440.922 714.679 441.921 715.736C442.924 716.792 443.844 717.917 444.68 719.109C445.515 720.3 446.258 721.547 446.911 722.849C447.664 724.387 448.321 725.965 448.882 727.582C449.446 729.199 449.91 730.845 450.275 732.518C450.637 734.191 450.899 735.88 451.059 737.584C451.223 739.289 451.281 740.997 451.235 742.709ZM398.772 742.709C398.719 745.032 398.859 747.343 399.193 749.642C399.527 751.942 400.05 754.197 400.762 756.409C401.038 757.277 401.378 758.119 401.784 758.935C402.187 759.75 402.653 760.53 403.181 761.273C403.706 762.017 404.285 762.716 404.918 763.369C405.553 764.023 406.234 764.624 406.961 765.172C407.367 765.42 407.78 765.654 408.201 765.875C408.622 766.094 409.049 766.3 409.483 766.491C409.919 766.681 410.361 766.857 410.807 767.017C411.254 767.177 411.706 767.322 412.166 767.451C412.622 767.58 413.083 767.693 413.547 767.791C414.011 767.888 414.479 767.969 414.951 768.035C415.421 768.1 415.893 768.148 416.367 768.181C416.842 768.214 417.316 768.23 417.791 768.23C418.265 768.23 418.74 768.214 419.214 768.181C419.689 768.148 420.161 768.1 420.63 768.035C421.102 767.969 421.57 767.888 422.034 767.791C422.499 767.693 422.959 767.58 423.416 767.451C423.875 767.322 424.328 767.177 424.774 767.017C425.221 766.857 425.662 766.681 426.098 766.491C426.532 766.3 426.959 766.094 427.38 765.875C427.801 765.654 428.214 765.42 428.62 765.172C429.352 764.627 430.039 764.029 430.679 763.377C431.317 762.725 431.901 762.027 432.431 761.283C432.959 760.539 433.427 759.759 433.836 758.941C434.241 758.124 434.582 757.28 434.857 756.409C435.554 754.174 436.067 751.898 436.396 749.581C436.722 747.263 436.86 744.935 436.809 742.594C436.873 740.282 436.735 737.982 436.396 735.694C436.054 733.406 435.516 731.165 434.781 728.971C434.49 728.129 434.139 727.312 433.729 726.522C433.315 725.732 432.846 724.977 432.32 724.257C431.795 723.537 431.218 722.861 430.591 722.227C429.966 721.593 429.296 721.01 428.582 720.476C427.778 719.95 426.939 719.49 426.064 719.096C425.189 718.701 424.289 718.377 423.366 718.124C422.44 717.87 421.5 717.691 420.546 717.585C419.592 717.479 418.635 717.448 417.676 717.491C416.987 717.434 416.298 717.422 415.609 717.453C414.918 717.485 414.232 717.561 413.551 717.68C412.872 717.8 412.203 717.963 411.542 718.169C410.884 718.375 410.241 718.622 409.613 718.911C408.986 719.2 408.378 719.528 407.792 719.895C407.207 720.261 406.649 720.664 406.116 721.103C405.58 721.542 405.076 722.013 404.604 722.516C404.132 723.02 403.693 723.552 403.288 724.112C402.459 725.506 401.738 726.954 401.126 728.455C400.513 729.957 400.016 731.496 399.633 733.072C399.251 734.648 398.988 736.243 398.845 737.858C398.7 739.474 398.675 741.091 398.772 742.709Z"   fill="#FFFFFF" >
</path>
<path d="M527.579 707.2L527.579 778.376L516.328 778.376L514.377 769.001L513.688 769.001C512.969 770.22 512.121 771.344 511.143 772.371C510.169 773.398 509.091 774.303 507.91 775.085C505.55 776.675 502.999 777.848 500.257 778.605C497.394 779.344 494.486 779.714 491.532 779.715C489.113 779.782 486.717 779.586 484.342 779.128C481.967 778.669 479.669 777.96 477.45 776.998C476.514 776.565 475.62 776.055 474.767 775.47C473.918 774.885 473.123 774.232 472.383 773.512C471.644 772.792 470.97 772.015 470.363 771.18C469.756 770.346 469.223 769.466 468.763 768.541C467.684 766.24 466.892 763.845 466.387 761.354C465.882 758.863 465.679 756.348 465.779 753.809L465.779 707.2L479.899 707.2L479.899 751.704C479.817 752.803 479.831 753.901 479.941 754.998C480.053 756.095 480.259 757.173 480.557 758.234C480.858 759.295 481.248 760.321 481.728 761.313C482.21 762.305 482.774 763.247 483.419 764.141C483.769 764.501 484.138 764.841 484.525 765.161C484.911 765.481 485.314 765.778 485.735 766.053C486.155 766.328 486.589 766.58 487.036 766.807C487.485 767.034 487.944 767.236 488.413 767.412C488.883 767.589 489.361 767.739 489.848 767.862C490.335 767.986 490.828 768.083 491.325 768.152C491.82 768.221 492.319 768.262 492.822 768.277C493.324 768.29 493.825 768.277 494.325 768.235C495.328 768.282 496.328 768.255 497.325 768.155C498.323 768.054 499.309 767.88 500.283 767.634C501.255 767.388 502.204 767.072 503.13 766.685C504.054 766.298 504.946 765.845 505.805 765.327C506.53 764.812 507.206 764.239 507.833 763.609C508.459 762.979 509.027 762.301 509.54 761.574C510.05 760.848 510.497 760.083 510.879 759.28C511.262 758.478 511.573 757.649 511.813 756.793C513.104 752.369 513.703 747.854 513.612 743.247L513.612 707.2L527.579 707.2Z"   fill="#FFFFFF" >
</path>
<path d="M581.993 705.86C583.363 705.867 584.728 705.944 586.087 706.089C587.37 706.169 588.646 706.322 589.914 706.548L588.46 719.597C587.325 719.315 586.177 719.099 585.016 718.947C583.746 718.784 582.47 718.695 581.189 718.679C579.876 718.669 578.573 718.792 577.282 719.05C575.994 719.308 574.745 719.694 573.536 720.21C571.069 721.236 568.888 722.69 566.993 724.572C566.013 725.557 565.146 726.633 564.39 727.8C563.635 728.967 563.01 730.2 562.515 731.498C561.939 732.993 561.513 734.529 561.237 736.106C560.959 737.683 560.837 739.273 560.87 740.874L560.87 778.375L546.865 778.375L546.865 707.199L557.962 707.199L559.798 719.865L560.334 719.865C561.847 717.311 563.646 714.977 565.73 712.862C567.868 710.759 570.291 709.062 573 707.773C574.411 707.13 575.875 706.647 577.393 706.325C578.909 706.002 580.442 705.847 581.993 705.86Z"   fill="#FFFFFF" >
</path>
<path d="M633.651 778.374L633.651 684.085L647.886 684.085L647.886 766.091L688.18 766.091L688.18 778.374L633.651 778.374Z"   fill="#FFFFFF" >
</path>
<path d="M727.825 705.858C728.715 705.791 729.605 705.763 730.496 705.776C731.389 705.789 732.279 705.842 733.167 705.935C734.054 706.029 734.936 706.162 735.811 706.334C736.686 706.507 737.552 706.719 738.409 706.97C739.264 707.222 740.107 707.511 740.938 707.838C741.768 708.166 742.58 708.53 743.376 708.93C744.175 709.331 744.953 709.767 745.71 710.238C746.468 710.709 747.203 711.214 747.914 711.751C752.328 715.655 754.522 721.803 754.496 730.196L754.496 778.374L744.585 778.374L741.83 768.501L741.294 768.501C739.453 770.854 737.361 772.959 735.019 774.815C733.924 775.686 732.755 776.442 731.51 777.086C730.267 777.73 728.975 778.249 727.633 778.642C724.322 779.505 720.955 779.9 717.531 779.828C715.557 779.861 713.602 779.684 711.669 779.298C709.732 778.911 707.86 778.322 706.051 777.532C705.222 777.156 704.426 776.72 703.663 776.223C702.901 775.726 702.181 775.174 701.505 774.567C700.827 773.96 700.198 773.306 699.619 772.603C699.04 771.901 698.518 771.158 698.054 770.376C697.543 769.457 697.098 768.508 696.718 767.529C696.335 766.55 696.022 765.549 695.777 764.528C695.532 763.506 695.356 762.472 695.249 761.427C695.144 760.382 695.11 759.334 695.145 758.284C695.107 757.48 695.12 756.677 695.184 755.875C695.247 755.073 695.362 754.278 695.528 753.491C695.694 752.704 695.909 751.931 696.175 751.171C696.44 750.411 696.754 749.672 697.116 748.953C697.476 748.234 697.88 747.54 698.329 746.873C698.778 746.206 699.269 745.57 699.802 744.966C700.333 744.362 700.901 743.794 701.505 743.263C702.11 742.731 702.745 742.24 703.411 741.791C708.921 738.015 717.314 735.949 728.59 735.592L740.72 735.171L740.72 731.344C740.828 730.346 740.831 729.348 740.732 728.349C740.63 727.351 740.426 726.373 740.12 725.418C739.813 724.462 739.411 723.548 738.91 722.677C738.413 721.806 737.83 720.996 737.162 720.247C736.46 719.686 735.713 719.193 734.919 718.77C734.126 718.347 733.301 718 732.443 717.728C731.586 717.457 730.711 717.266 729.818 717.155C728.928 717.045 728.034 717.016 727.136 717.07C723.524 717.06 719.99 717.583 716.536 718.639C713.276 719.674 710.113 720.949 707.046 722.466L702.569 712.325C706.232 710.426 710.059 708.946 714.049 707.886C718.549 706.588 723.141 705.912 727.825 705.858ZM731.116 744.431C729.654 744.378 728.195 744.424 726.738 744.569C725.281 744.715 723.841 744.96 722.418 745.302C720.994 745.645 719.601 746.083 718.239 746.617C716.877 747.15 715.557 747.774 714.278 748.487C713.898 748.768 713.536 749.07 713.192 749.395C712.847 749.72 712.525 750.065 712.224 750.43C711.922 750.795 711.644 751.177 711.389 751.576C711.137 751.975 710.908 752.389 710.704 752.816C710.5 753.244 710.324 753.682 710.176 754.131C710.028 754.58 709.908 755.037 709.817 755.501C709.725 755.965 709.661 756.434 709.625 756.905C709.592 757.377 709.587 757.849 709.61 758.322C709.577 758.699 709.565 759.076 709.576 759.454C709.588 759.832 709.623 760.209 709.679 760.582C709.737 760.956 709.818 761.325 709.92 761.689C710.025 762.053 710.149 762.41 710.295 762.759C710.44 763.108 710.607 763.446 710.796 763.775C710.982 764.104 711.189 764.419 711.416 764.723C711.641 765.026 711.884 765.314 712.147 765.588C712.407 765.862 712.684 766.118 712.977 766.358C713.592 766.795 714.238 767.18 714.914 767.511C715.592 767.841 716.293 768.114 717.015 768.329C717.736 768.543 718.471 768.698 719.219 768.791C719.969 768.884 720.72 768.915 721.472 768.884C722.71 768.933 723.942 768.869 725.169 768.693C726.394 768.517 727.594 768.231 728.77 767.835C729.943 767.44 731.071 766.941 732.153 766.339C733.234 765.737 734.253 765.042 735.21 764.253C735.682 763.817 736.127 763.356 736.545 762.869C736.964 762.383 737.354 761.875 737.716 761.344C738.079 760.814 738.411 760.264 738.711 759.697C739.01 759.129 739.277 758.547 739.511 757.949C739.746 757.351 739.946 756.742 740.112 756.122C740.278 755.501 740.409 754.874 740.506 754.239C740.601 753.604 740.659 752.965 740.682 752.324C740.705 751.682 740.692 751.041 740.644 750.401L740.644 744.163L731.116 744.431Z"   fill="#FFFFFF" >
</path>
<path d="M808.912 705.859C809.892 705.829 810.87 705.854 811.847 705.935C812.824 706.017 813.794 706.153 814.755 706.344C815.717 706.536 816.666 706.781 817.602 707.08C818.536 707.38 819.449 707.731 820.342 708.134C821.237 708.537 822.106 708.99 822.948 709.492C823.79 709.994 824.601 710.542 825.382 711.136C826.162 711.73 826.906 712.367 827.613 713.046C828.322 713.725 828.989 714.441 829.614 715.196C834.818 721.357 837.267 730.503 837.267 742.786C837.364 746.264 837.113 749.717 836.513 753.145C835.914 756.572 834.979 759.906 833.708 763.144C833.471 763.771 833.208 764.387 832.92 764.993C832.634 765.598 832.326 766.192 831.994 766.774C831.66 767.356 831.305 767.924 830.93 768.478C830.553 769.032 830.155 769.571 829.736 770.095C829.318 770.618 828.879 771.124 828.42 771.613C827.964 772.103 827.488 772.574 826.993 773.026C826.498 773.478 825.986 773.911 825.458 774.324C824.93 774.736 824.387 775.128 823.828 775.498C823.272 775.868 822.7 776.216 822.114 776.542C821.527 776.868 820.93 777.171 820.323 777.45C819.713 777.73 819.093 777.985 818.463 778.216C817.836 778.448 817.199 778.655 816.554 778.836C815.908 779.018 815.258 779.175 814.602 779.306C813.944 779.437 813.282 779.543 812.616 779.623C811.95 779.703 811.283 779.756 810.615 779.784C809.946 779.812 809.277 779.814 808.606 779.79C805.356 779.845 802.18 779.386 799.078 778.413C796.542 777.549 794.233 776.273 792.151 774.586C790.325 773.123 788.679 771.478 787.215 769.65L786.297 769.65C786.526 771.219 786.756 773.094 786.947 775.237C787.138 777.38 787.215 779.331 787.215 781.015L787.215 810.098L773.209 810.098L773.209 707.198L784.689 707.198L786.641 716.688L787.33 716.688C788.817 714.715 790.513 712.942 792.419 711.369C794.511 709.652 796.845 708.377 799.422 707.543C802.488 706.44 805.652 705.879 808.912 705.859ZM805.621 717.339C804.703 717.293 803.786 717.313 802.87 717.4C801.954 717.486 801.048 717.638 800.153 717.855C799.26 718.072 798.386 718.352 797.531 718.695C796.679 719.038 795.855 719.441 795.06 719.903C794.383 720.358 793.751 720.866 793.161 721.427C792.572 721.988 792.033 722.594 791.543 723.245C791.056 723.897 790.624 724.584 790.249 725.308C789.877 726.031 789.567 726.781 789.32 727.556C787.998 731.753 787.36 736.052 787.406 740.452L787.406 742.557C787.307 747.283 787.881 751.926 789.128 756.486C789.35 757.346 789.64 758.183 789.997 758.995C790.357 759.808 790.781 760.585 791.271 761.327C791.758 762.07 792.304 762.767 792.909 763.418C793.511 764.07 794.164 764.667 794.868 765.211C795.677 765.747 796.523 766.215 797.405 766.615C798.291 767.015 799.201 767.341 800.137 767.595C801.074 767.848 802.024 768.026 802.988 768.126C803.953 768.227 804.919 768.25 805.889 768.195C806.764 768.234 807.635 768.193 808.503 768.071C809.37 767.949 810.219 767.75 811.051 767.472C811.883 767.194 812.681 766.842 813.446 766.417C814.212 765.992 814.932 765.5 815.609 764.943C816.274 764.34 816.894 763.693 817.468 763.003C818.045 762.313 818.569 761.586 819.041 760.823C819.513 760.059 819.93 759.266 820.292 758.443C820.652 757.621 820.953 756.777 821.195 755.912C822.53 751.508 823.155 747.005 823.07 742.404C823.157 740.82 823.133 739.237 822.998 737.657C822.863 736.076 822.619 734.512 822.267 732.966C821.915 731.419 821.457 729.904 820.893 728.421C820.329 726.939 819.665 725.502 818.899 724.112C818.555 723.557 818.174 723.028 817.755 722.526C817.339 722.023 816.89 721.551 816.408 721.109C815.929 720.668 815.42 720.261 814.881 719.889C814.346 719.517 813.786 719.183 813.202 718.888C812.62 718.592 812.02 718.338 811.403 718.124C810.786 717.911 810.157 717.74 809.517 717.613C808.876 717.485 808.229 717.401 807.576 717.362C806.923 717.323 806.272 717.328 805.621 717.377L805.621 717.339Z"   fill="#FFFFFF" >
</path>
<path d="M878.287 768.348C880.193 768.355 882.081 768.176 883.951 767.813C885.65 767.532 887.321 767.137 888.964 766.626L888.964 777.188C887.012 778.043 884.984 778.643 882.879 778.987C880.351 779.478 877.8 779.72 875.226 779.714C873.405 779.739 871.598 779.583 869.807 779.248C868.017 778.913 866.277 778.405 864.588 777.724C863.784 777.383 863.014 776.979 862.277 776.511C861.537 776.043 860.842 775.517 860.191 774.935C859.541 774.352 858.942 773.72 858.397 773.039C857.851 772.357 857.363 771.636 856.935 770.874C856.401 769.827 855.939 768.749 855.546 767.641C855.153 766.533 854.833 765.403 854.585 764.253C854.34 763.104 854.171 761.943 854.076 760.771C853.984 759.599 853.968 758.425 854.026 757.251L854.026 717.913L844.154 717.913L844.154 711.561L854.562 706.28L859.46 691.203L868.032 691.203L868.032 707.198L888.39 707.198L888.39 717.913L868.032 717.913L868.032 756.983C867.963 757.759 867.973 758.534 868.063 759.308C868.152 760.082 868.319 760.839 868.564 761.579C868.806 762.319 869.121 763.027 869.509 763.704C869.897 764.379 870.348 765.009 870.864 765.593C871.361 766.055 871.899 766.463 872.478 766.819C873.058 767.175 873.666 767.471 874.304 767.707C874.939 767.944 875.592 768.116 876.263 768.224C876.934 768.332 877.609 768.373 878.287 768.348Z"   fill="#FFFFFF" >
</path>
<path d="M963.354 742.71C963.4 745.38 963.221 748.036 962.818 750.676C962.413 753.317 961.788 755.903 960.943 758.437C960.229 760.562 959.304 762.592 958.169 764.525C957.034 766.459 955.713 768.257 954.208 769.917C952.752 771.511 951.132 772.915 949.349 774.13C947.563 775.345 945.662 776.339 943.647 777.112C941.437 777.957 939.169 778.585 936.839 778.997C934.508 779.409 932.159 779.597 929.794 779.561C927.511 779.591 925.246 779.399 922.998 778.987C920.751 778.575 918.565 777.95 916.44 777.112C914.442 776.324 912.558 775.324 910.788 774.109C909.02 772.895 907.409 771.498 905.955 769.917C904.424 768.257 903.076 766.461 901.91 764.528C900.744 762.595 899.784 760.565 899.028 758.437C898.556 756.988 898.15 755.519 897.808 754.033C897.466 752.546 897.19 751.047 896.981 749.536C896.775 748.025 896.634 746.508 896.56 744.984C896.489 743.461 896.485 741.937 896.549 740.413C896.61 738.889 896.741 737.371 896.943 735.859C897.142 734.347 897.407 732.846 897.739 731.358C898.073 729.869 898.472 728.399 898.937 726.946C899.401 725.493 899.929 724.064 900.521 722.658C901.13 721.356 901.836 720.108 902.637 718.913C903.438 717.719 904.326 716.593 905.3 715.535C906.272 714.477 907.321 713.499 908.446 712.602C909.568 711.705 910.753 710.899 912.001 710.183C913.373 709.437 914.788 708.784 916.244 708.223C917.701 707.663 919.188 707.2 920.706 706.835C922.227 706.47 923.763 706.206 925.314 706.042C926.867 705.879 928.425 705.818 929.986 705.859C931.486 705.83 932.981 705.9 934.471 706.07C935.958 706.239 937.429 706.506 938.883 706.871C940.337 707.236 941.76 707.696 943.153 708.251C944.549 708.805 945.899 709.449 947.206 710.183C948.476 710.917 949.687 711.74 950.837 712.654C951.985 713.567 953.06 714.56 954.063 715.634C955.066 716.707 955.983 717.848 956.814 719.057C957.646 720.266 958.384 721.531 959.03 722.85C959.783 724.388 960.439 725.966 961.001 727.583C961.564 729.2 962.029 730.845 962.394 732.518C962.756 734.192 963.017 735.881 963.178 737.585C963.341 739.29 963.4 740.998 963.354 742.71ZM910.891 742.71C910.837 745.033 910.978 747.344 911.312 749.643C911.646 751.942 912.169 754.198 912.881 756.409C913.151 757.28 913.489 758.123 913.895 758.94C914.298 759.757 914.762 760.537 915.288 761.281C915.813 762.025 916.395 762.723 917.033 763.375C917.668 764.028 918.35 764.627 919.08 765.172C919.486 765.421 919.899 765.655 920.32 765.875C920.741 766.095 921.168 766.301 921.602 766.491C922.038 766.682 922.479 766.858 922.926 767.018C923.372 767.178 923.825 767.323 924.284 767.452C924.741 767.581 925.201 767.694 925.666 767.791C926.13 767.889 926.598 767.97 927.07 768.035C927.539 768.1 928.011 768.149 928.486 768.182C928.96 768.215 929.435 768.231 929.909 768.231C930.384 768.231 930.858 768.215 931.333 768.182C931.807 768.149 932.279 768.1 932.749 768.035C933.221 767.97 933.689 767.889 934.153 767.791C934.617 767.694 935.078 767.581 935.534 767.452C935.994 767.323 936.446 767.178 936.893 767.018C937.339 766.858 937.781 766.682 938.217 766.491C938.651 766.301 939.078 766.095 939.499 765.875C939.92 765.655 940.333 765.421 940.739 765.172C941.471 764.628 942.157 764.03 942.797 763.378C943.435 762.726 944.019 762.027 944.55 761.283C945.078 760.54 945.546 759.759 945.954 758.942C946.36 758.124 946.701 757.28 946.976 756.409C947.673 754.175 948.185 751.899 948.514 749.581C948.841 747.264 948.979 744.935 948.928 742.595C948.992 740.283 948.854 737.983 948.514 735.694C948.173 733.406 947.634 731.166 946.9 728.972C946.609 728.13 946.258 727.313 945.847 726.523C945.434 725.733 944.964 724.978 944.439 724.258C943.914 723.538 943.337 722.861 942.709 722.228C942.085 721.594 941.415 721.01 940.7 720.477C939.902 719.955 939.069 719.497 938.202 719.105C937.331 718.713 936.438 718.39 935.519 718.136C934.601 717.883 933.668 717.703 932.722 717.594C931.773 717.486 930.823 717.452 929.871 717.492C929.182 717.435 928.493 717.422 927.805 717.454C927.113 717.486 926.427 717.561 925.746 717.681C925.067 717.801 924.398 717.964 923.737 718.17C923.079 718.376 922.436 718.623 921.808 718.912C921.181 719.201 920.574 719.528 919.987 719.895C919.403 720.262 918.844 720.665 918.311 721.104C917.775 721.543 917.271 722.014 916.799 722.517C916.327 723.021 915.889 723.552 915.483 724.112C914.636 725.5 913.896 726.943 913.263 728.442C912.631 729.941 912.113 731.478 911.71 733.054C911.309 734.63 911.027 736.227 910.864 737.846C910.701 739.464 910.659 741.085 910.738 742.71L910.891 742.71Z"   fill="#FFFFFF" >
</path>
<path d="M1014.06 705.86C1015.03 705.829 1016.01 705.852 1016.98 705.931C1017.96 706.01 1018.92 706.144 1019.88 706.333C1020.84 706.522 1021.79 706.765 1022.72 707.061C1023.65 707.357 1024.56 707.706 1025.45 708.105C1026.35 708.505 1027.22 708.954 1028.06 709.453C1028.9 709.951 1029.71 710.495 1030.49 711.086C1031.27 711.676 1032.01 712.308 1032.72 712.983C1033.42 713.658 1034.09 714.37 1034.72 715.121C1039.96 721.282 1042.56 730.428 1042.56 742.711C1042.66 746.189 1042.41 749.642 1041.81 753.069C1041.21 756.497 1040.28 759.83 1039.01 763.069C1038.77 763.696 1038.51 764.313 1038.22 764.919C1037.93 765.526 1037.63 766.121 1037.29 766.703C1036.96 767.286 1036.61 767.855 1036.23 768.41C1035.86 768.965 1035.46 769.505 1035.04 770.028C1034.62 770.553 1034.18 771.06 1033.73 771.55C1033.27 772.039 1032.8 772.511 1032.3 772.964C1031.81 773.416 1031.29 773.849 1030.77 774.262C1030.24 774.675 1029.69 775.067 1029.14 775.437C1028.58 775.807 1028 776.156 1027.42 776.482C1026.83 776.808 1026.24 777.11 1025.63 777.389C1025.02 777.669 1024.4 777.924 1023.77 778.155C1023.14 778.386 1022.5 778.592 1021.85 778.773C1021.21 778.955 1020.56 779.11 1019.9 779.24C1019.24 779.371 1018.58 779.476 1017.92 779.555C1017.25 779.633 1016.58 779.686 1015.91 779.713C1015.24 779.74 1014.57 779.741 1013.9 779.715C1010.67 779.773 1007.5 779.314 1004.41 778.337C1001.86 777.482 999.537 776.207 997.448 774.511C995.629 773.038 993.984 771.393 992.512 769.574L991.593 769.574C991.861 771.143 992.052 773.018 992.244 775.161C992.435 777.304 992.512 779.256 992.512 780.939L992.512 810.099L978.506 810.099L978.506 707.2L989.986 707.2L991.976 716.69L992.626 716.69C994.037 714.752 995.632 712.979 997.41 711.371C999.512 709.671 1001.85 708.395 1004.41 707.544C1007.53 706.426 1010.74 705.864 1014.06 705.86ZM1010.73 717.34C1009.81 717.294 1008.89 717.315 1007.97 717.401C1007.06 717.488 1006.15 717.639 1005.26 717.856C1004.37 718.074 1003.49 718.354 1002.64 718.696C1001.78 719.04 1000.96 719.442 1000.16 719.904C999.489 720.359 998.856 720.867 998.267 721.428C997.677 721.989 997.138 722.595 996.648 723.247C996.161 723.898 995.73 724.585 995.355 725.309C994.982 726.032 994.672 726.782 994.425 727.557C993.103 731.755 992.466 736.054 992.512 740.453L992.512 742.558C992.412 747.284 992.986 751.927 994.234 756.487C994.458 757.346 994.75 758.182 995.11 758.993C995.472 759.804 995.897 760.581 996.384 761.323C996.871 762.065 997.416 762.762 998.018 763.414C998.62 764.067 999.272 764.666 999.974 765.212C1000.78 765.748 1001.63 766.216 1002.51 766.616C1003.4 767.016 1004.31 767.343 1005.24 767.596C1006.18 767.85 1007.13 768.027 1008.09 768.127C1009.06 768.228 1010.02 768.251 1010.99 768.197C1011.87 768.236 1012.74 768.194 1013.61 768.072C1014.48 767.951 1015.32 767.751 1016.16 767.473C1016.99 767.195 1017.79 766.844 1018.55 766.418C1019.32 765.993 1020.04 765.502 1020.71 764.944C1022.06 763.731 1023.2 762.357 1024.16 760.823C1025.11 759.288 1025.84 757.651 1026.34 755.913C1027.64 751.504 1028.25 747.001 1028.18 742.405C1028.26 740.817 1028.23 739.231 1028.09 737.647C1027.95 736.064 1027.7 734.497 1027.35 732.947C1026.99 731.398 1026.53 729.88 1025.96 728.394C1025.4 726.908 1024.73 725.469 1023.97 724.075C1023.62 723.521 1023.23 722.994 1022.81 722.492C1022.39 721.991 1021.93 721.52 1021.45 721.08C1020.96 720.64 1020.45 720.235 1019.91 719.865C1019.37 719.495 1018.81 719.163 1018.22 718.869C1017.63 718.575 1017.03 718.323 1016.41 718.111C1015.79 717.899 1015.16 717.73 1014.52 717.605C1013.88 717.479 1013.23 717.397 1012.57 717.359C1011.92 717.321 1011.26 717.328 1010.61 717.379L1010.73 717.34Z"   fill="#FFFFFF" >
</path>
<path d="M1120.02 778.374L1083.4 778.374L1083.4 770.185L1094.65 766.894L1094.65 695.718L1083.4 692.274L1083.4 684.085L1120.02 684.085L1120.02 692.236L1108.92 695.68L1108.92 766.856L1120.02 770.147L1120.02 778.374Z"   fill="#FFFFFF" >
</path>
<path d="M1169.53 705.859C1170.39 705.799 1171.25 705.78 1172.11 705.803C1172.97 705.826 1173.83 705.889 1174.68 705.995C1175.53 706.1 1176.38 706.246 1177.22 706.433C1178.06 706.619 1178.89 706.846 1179.71 707.113C1180.52 707.379 1181.33 707.685 1182.12 708.029C1182.91 708.373 1183.68 708.754 1184.43 709.172C1185.18 709.59 1185.91 710.044 1186.62 710.532C1187.32 711.021 1188.01 711.542 1188.67 712.096C1193.07 716.229 1195.29 722.849 1195.29 732.034L1195.29 778.374L1181.28 778.374L1181.28 734.023C1181.36 732.919 1181.35 731.816 1181.24 730.715C1181.13 729.613 1180.93 728.529 1180.63 727.462C1180.34 726.396 1179.95 725.363 1179.47 724.363C1179 723.364 1178.44 722.413 1177.8 721.51C1177.44 721.143 1177.06 720.796 1176.67 720.47C1176.27 720.145 1175.85 719.842 1175.42 719.563C1174.99 719.283 1174.55 719.028 1174.09 718.798C1173.63 718.567 1173.16 718.363 1172.68 718.185C1172.2 718.007 1171.7 717.856 1171.2 717.732C1170.71 717.608 1170.2 717.512 1169.7 717.444C1169.19 717.376 1168.68 717.337 1168.16 717.326C1167.65 717.314 1167.13 717.332 1166.62 717.377C1159.39 717.377 1154.42 719.52 1151.62 723.844C1150.85 725.26 1150.18 726.721 1149.61 728.229C1149.05 729.738 1148.59 731.278 1148.23 732.851C1147.88 734.423 1147.64 736.013 1147.51 737.619C1147.38 739.225 1147.36 740.833 1147.45 742.442L1147.45 778.374L1133.49 778.374L1133.49 707.198L1144.58 707.198L1146.53 716.689L1147.34 716.689C1148.09 715.495 1148.96 714.389 1149.94 713.37C1150.92 712.353 1151.99 711.443 1153.15 710.642C1155.5 709.008 1158.05 707.809 1160.81 707.045C1163.66 706.262 1166.57 705.867 1169.53 705.859Z"   fill="#FFFFFF" >
</path>
<path d="M1239.83 768.348C1241.73 768.356 1243.62 768.178 1245.49 767.813C1247.19 767.537 1248.86 767.141 1250.5 766.626L1250.5 777.188C1248.56 778.038 1246.55 778.638 1244.46 778.987C1241.93 779.474 1239.38 779.716 1236.8 779.714C1234.98 779.74 1233.18 779.586 1231.39 779.251C1229.59 778.917 1227.86 778.407 1226.17 777.724C1225.36 777.385 1224.59 776.983 1223.85 776.516C1223.11 776.049 1222.42 775.524 1221.77 774.941C1221.12 774.359 1220.52 773.726 1219.97 773.043C1219.43 772.361 1218.94 771.637 1218.51 770.874C1217.98 769.827 1217.51 768.75 1217.12 767.642C1216.72 766.534 1216.4 765.405 1216.16 764.255C1215.91 763.105 1215.74 761.944 1215.65 760.771C1215.56 759.599 1215.54 758.425 1215.6 757.251L1215.6 717.913L1205.39 717.913L1205.39 711.561L1215.83 706.28L1220.69 691.203L1229.3 691.203L1229.3 707.198L1249.62 707.198L1249.62 717.913L1229.3 717.913L1229.3 756.983C1229.24 757.759 1229.25 758.534 1229.33 759.308C1229.42 760.082 1229.59 760.839 1229.84 761.579C1230.08 762.319 1230.39 763.027 1230.78 763.704C1231.17 764.379 1231.62 765.009 1232.14 765.593C1232.65 766.075 1233.2 766.5 1233.8 766.867C1234.4 767.234 1235.03 767.536 1235.69 767.773C1236.36 768.01 1237.03 768.177 1237.73 768.274C1238.43 768.371 1239.13 768.395 1239.83 768.348Z"   fill="#FFFFFF" >
</path>
<path d="M1324.74 742.71C1324.78 745.379 1324.61 748.033 1324.21 750.673C1323.81 753.312 1323.2 755.9 1322.37 758.438C1321.65 760.559 1320.72 762.586 1319.58 764.52C1318.45 766.452 1317.13 768.252 1315.63 769.918C1314.18 771.511 1312.56 772.915 1310.77 774.13C1308.99 775.346 1307.09 776.339 1305.07 777.112C1302.85 777.957 1300.58 778.585 1298.24 778.997C1295.91 779.409 1293.55 779.597 1291.18 779.561C1288.9 779.589 1286.63 779.397 1284.38 778.985C1282.14 778.573 1279.95 777.948 1277.83 777.112C1275.83 776.319 1273.95 775.316 1272.18 774.102C1270.41 772.888 1268.8 771.493 1267.34 769.918C1265.81 768.257 1264.46 766.461 1263.3 764.528C1262.13 762.595 1261.17 760.565 1260.41 758.438C1259.94 756.987 1259.54 755.519 1259.19 754.033C1258.85 752.546 1258.58 751.047 1258.37 749.537C1258.16 748.025 1258.02 746.508 1257.95 744.985C1257.87 743.461 1257.87 741.937 1257.93 740.413C1258 738.889 1258.13 737.371 1258.33 735.859C1258.53 734.347 1258.79 732.846 1259.12 731.358C1259.46 729.87 1259.86 728.399 1260.32 726.946C1260.79 725.493 1261.31 724.064 1261.91 722.658C1262.52 721.357 1263.22 720.109 1264.02 718.915C1264.83 717.721 1265.71 716.596 1266.69 715.538C1267.66 714.48 1268.71 713.502 1269.83 712.604C1270.95 711.707 1272.14 710.9 1273.39 710.183C1274.75 709.437 1276.16 708.784 1277.62 708.223C1279.07 707.662 1280.56 707.2 1282.07 706.835C1283.59 706.47 1285.12 706.205 1286.67 706.042C1288.22 705.879 1289.77 705.818 1291.33 705.859C1292.84 705.826 1294.35 705.894 1295.85 706.061C1297.36 706.229 1298.84 706.496 1300.31 706.861C1301.78 707.226 1303.21 707.686 1304.62 708.243C1306.03 708.799 1307.39 709.446 1308.71 710.183C1309.97 710.926 1311.17 711.756 1312.31 712.673C1313.45 713.59 1314.51 714.585 1315.51 715.657C1316.5 716.729 1317.41 717.868 1318.24 719.073C1319.07 720.279 1319.81 721.537 1320.45 722.85C1321.2 724.391 1321.85 725.97 1322.41 727.588C1322.96 729.206 1323.42 730.852 1323.78 732.524C1324.14 734.197 1324.4 735.885 1324.56 737.589C1324.72 739.292 1324.78 741 1324.74 742.71ZM1272.28 742.71C1272.23 745.032 1272.38 747.343 1272.71 749.641C1273.04 751.94 1273.56 754.196 1274.27 756.41C1274.54 757.278 1274.88 758.12 1275.29 758.936C1275.69 759.751 1276.16 760.531 1276.69 761.274C1277.21 762.018 1277.79 762.716 1278.42 763.37C1279.06 764.024 1279.74 764.624 1280.47 765.173C1280.87 765.422 1281.28 765.656 1281.71 765.877C1282.13 766.097 1282.56 766.303 1282.99 766.494C1283.43 766.685 1283.87 766.86 1284.32 767.021C1284.77 767.181 1285.22 767.326 1285.68 767.456C1286.14 767.585 1286.6 767.698 1287.06 767.796C1287.53 767.893 1288 767.975 1288.47 768.04C1288.94 768.105 1289.41 768.154 1289.89 768.187C1290.36 768.22 1290.84 768.236 1291.31 768.236C1291.79 768.236 1292.27 768.22 1292.74 768.187C1293.22 768.154 1293.69 768.105 1294.16 768.04C1294.63 767.975 1295.1 767.893 1295.57 767.796C1296.03 767.698 1296.49 767.585 1296.95 767.456C1297.41 767.326 1297.86 767.181 1298.31 767.021C1298.76 766.86 1299.2 766.685 1299.64 766.494C1300.07 766.303 1300.5 766.097 1300.92 765.877C1301.34 765.656 1301.76 765.422 1302.16 765.173C1302.89 764.624 1303.57 764.024 1304.21 763.37C1304.84 762.716 1305.42 762.018 1305.94 761.274C1306.47 760.531 1306.94 759.751 1307.34 758.936C1307.75 758.12 1308.09 757.278 1308.36 756.41C1309.07 754.176 1309.59 751.901 1309.92 749.584C1310.25 747.266 1310.4 744.937 1310.35 742.595C1310.41 740.282 1310.27 737.981 1309.92 735.693C1309.57 733.405 1309.03 731.164 1308.29 728.972C1307.99 728.13 1307.64 727.313 1307.23 726.523C1306.82 725.733 1306.35 724.978 1305.83 724.258C1305.3 723.538 1304.72 722.862 1304.1 722.228C1303.47 721.594 1302.8 721.011 1302.09 720.477C1301.28 719.951 1300.44 719.491 1299.57 719.096C1298.69 718.702 1297.79 718.378 1296.87 718.124C1295.94 717.871 1295 717.692 1294.05 717.586C1293.1 717.48 1292.14 717.448 1291.18 717.492C1290.49 717.437 1289.8 717.426 1289.11 717.459C1288.42 717.492 1287.74 717.569 1287.06 717.689C1286.38 717.81 1285.71 717.974 1285.05 718.18C1284.39 718.386 1283.75 718.634 1283.12 718.922C1282.49 719.211 1281.89 719.539 1281.3 719.905C1280.72 720.271 1280.16 720.673 1279.62 721.111C1279.09 721.549 1278.58 722.019 1278.11 722.521C1277.64 723.023 1277.2 723.554 1276.79 724.112C1275.97 725.509 1275.25 726.958 1274.64 728.46C1274.03 729.962 1273.54 731.5 1273.15 733.076C1272.77 734.651 1272.51 736.246 1272.36 737.861C1272.21 739.475 1272.19 741.092 1272.28 742.71Z"   fill="#FFFFFF" >
</path>
<path d="M1399.09 705.859C1399.98 705.791 1400.87 705.763 1401.76 705.776C1402.66 705.788 1403.55 705.841 1404.43 705.934C1405.32 706.027 1406.2 706.16 1407.08 706.333C1407.95 706.506 1408.82 706.718 1409.68 706.969C1410.53 707.22 1411.38 707.509 1412.21 707.837C1413.04 708.164 1413.85 708.529 1414.65 708.93C1415.44 709.331 1416.22 709.767 1416.98 710.239C1417.74 710.71 1418.47 711.214 1419.18 711.752C1419.77 712.354 1420.33 712.986 1420.85 713.648C1421.37 714.31 1421.86 714.999 1422.31 715.713C1422.75 716.427 1423.16 717.164 1423.53 717.922C1423.9 718.681 1424.23 719.457 1424.51 720.25C1424.8 721.044 1425.04 721.85 1425.24 722.67C1425.43 723.49 1425.59 724.318 1425.7 725.154C1425.8 725.99 1425.86 726.829 1425.88 727.672C1425.9 728.515 1425.87 729.357 1425.8 730.197L1425.8 778.375L1415.85 778.375L1413.06 768.502L1412.52 768.502C1410.69 770.865 1408.6 772.97 1406.25 774.816C1405.15 775.69 1403.99 776.449 1402.74 777.093C1401.5 777.737 1400.21 778.254 1398.86 778.643C1395.55 779.511 1392.18 779.906 1388.76 779.829C1386.79 779.86 1384.83 779.682 1382.9 779.295C1380.96 778.908 1379.09 778.321 1377.28 777.533C1376.45 777.157 1375.66 776.721 1374.9 776.224C1374.14 775.726 1373.43 775.175 1372.75 774.568C1372.07 773.961 1371.45 773.306 1370.88 772.604C1370.3 771.901 1369.78 771.159 1369.32 770.377C1368.81 769.46 1368.36 768.512 1367.98 767.533C1367.59 766.554 1367.28 765.554 1367.03 764.532C1366.79 763.509 1366.61 762.475 1366.51 761.43C1366.4 760.383 1366.37 759.335 1366.41 758.285C1366.38 757.482 1366.39 756.68 1366.45 755.879C1366.51 755.078 1366.63 754.284 1366.79 753.498C1366.96 752.711 1367.17 751.939 1367.43 751.18C1367.7 750.421 1368.01 749.682 1368.37 748.963C1368.73 748.243 1369.13 747.55 1369.58 746.883C1370.03 746.215 1370.52 745.579 1371.04 744.974C1371.57 744.369 1372.14 743.8 1372.74 743.268C1373.34 742.735 1373.97 742.243 1374.64 741.792C1380.15 738.016 1388.54 735.95 1399.82 735.593L1411.99 735.172L1411.99 731.345C1412.04 730.847 1412.07 730.347 1412.07 729.845C1412.07 729.344 1412.05 728.844 1412 728.345C1411.95 727.846 1411.87 727.352 1411.77 726.861C1411.67 726.37 1411.54 725.887 1411.38 725.41C1411.23 724.933 1411.05 724.465 1410.84 724.007C1410.64 723.549 1410.41 723.104 1410.16 722.67C1409.91 722.236 1409.64 721.817 1409.34 721.412C1409.04 721.007 1408.73 720.619 1408.39 720.248C1407.69 719.685 1406.94 719.192 1406.15 718.767C1405.36 718.343 1404.53 717.996 1403.67 717.724C1402.82 717.452 1401.94 717.262 1401.05 717.152C1400.16 717.042 1399.26 717.016 1398.37 717.071C1394.77 717.058 1391.25 717.581 1387.8 718.64C1384.53 719.675 1381.35 720.95 1378.28 722.467L1373.76 712.097C1377.42 710.197 1381.25 708.718 1385.24 707.658C1389.78 706.43 1394.39 705.831 1399.09 705.859ZM1402.42 744.432C1400.95 744.379 1399.49 744.425 1398.03 744.571C1396.57 744.717 1395.13 744.961 1393.7 745.304C1392.28 745.647 1390.88 746.085 1389.52 746.618C1388.15 747.151 1386.83 747.775 1385.55 748.489C1385.17 748.769 1384.8 749.071 1384.46 749.396C1384.12 749.721 1383.79 750.066 1383.49 750.431C1383.19 750.796 1382.91 751.178 1382.66 751.577C1382.4 751.976 1382.18 752.389 1381.97 752.817C1381.77 753.245 1381.59 753.683 1381.44 754.132C1381.3 754.581 1381.18 755.038 1381.08 755.502C1380.99 755.966 1380.93 756.434 1380.89 756.906C1380.86 757.378 1380.85 757.851 1380.88 758.323C1380.84 758.7 1380.83 759.077 1380.84 759.455C1380.86 759.833 1380.89 760.209 1380.95 760.584C1381.01 760.957 1381.09 761.326 1381.19 761.691C1381.29 762.055 1381.42 762.411 1381.56 762.76C1381.71 763.109 1381.88 763.447 1382.06 763.776C1382.25 764.104 1382.46 764.421 1382.68 764.724C1382.91 765.027 1383.15 765.316 1383.41 765.589C1383.68 765.862 1383.95 766.119 1384.25 766.359C1384.88 766.792 1385.54 767.169 1386.23 767.492C1386.92 767.815 1387.63 768.08 1388.37 768.285C1389.11 768.49 1389.85 768.633 1390.61 768.714C1391.37 768.796 1392.13 768.814 1392.89 768.77C1394.13 768.818 1395.36 768.754 1396.59 768.577C1397.81 768.401 1399.01 768.115 1400.19 767.719C1401.36 767.323 1402.49 766.825 1403.57 766.223C1404.66 765.622 1405.67 764.927 1406.63 764.14C1407.1 763.705 1407.53 763.245 1407.95 762.762C1408.36 762.278 1408.75 761.773 1409.1 761.246C1409.46 760.72 1409.79 760.175 1410.09 759.612C1410.38 759.049 1410.65 758.472 1410.88 757.88C1411.11 757.287 1411.31 756.684 1411.48 756.07C1411.64 755.455 1411.77 754.834 1411.87 754.205C1411.97 753.576 1412.03 752.943 1412.05 752.308C1412.08 751.672 1412.07 751.036 1412.03 750.402L1412.03 744.164L1402.42 744.432Z"   fill="#FFFFFF" >
</path>
<path d="M1548.9 778.374L1532.37 778.374L1501.49 734.941L1492.23 742.595L1492.23 778.374L1477.96 778.374L1477.96 684.085L1492.39 684.085L1492.39 729.661C1494.68 726.905 1496.94 724.227 1499.23 721.586L1506.12 713.665L1531.61 684.085L1547.99 684.085L1511.94 725.298L1548.9 778.374Z"   fill="#FFFFFF" >
</path>
<path d="M1627.5 684.085L1594.21 778.374L1579.4 778.374L1546.26 684.085L1560.92 684.085L1581.13 743.245C1581.93 745.35 1582.66 747.646 1583.38 750.057C1584.11 752.468 1584.72 754.878 1585.33 757.251C1585.94 759.47 1586.42 761.715 1586.79 763.986C1587.25 761.881 1587.75 759.624 1588.32 757.251C1588.89 754.878 1589.54 752.468 1590.31 749.98C1591.07 747.493 1591.76 745.235 1592.49 743.131L1612.7 684.085L1627.5 684.085Z"   fill="#FFFFFF" >
</path>
<path d="M1678.47 778.374L1649.93 698.014L1649.28 698.014C1649.28 699.774 1649.28 702.147 1649.66 705.17C1650.04 708.193 1649.97 711.369 1650.04 714.813C1650.12 718.257 1650.04 721.625 1650.04 724.954L1650.04 778.374L1637.07 778.374L1637.07 684.085L1657.43 684.085L1684.52 759.777L1685.06 759.777L1712.91 684.085L1733.46 684.085L1733.46 778.374L1719.69 778.374L1719.69 724.38C1719.69 721.28 1719.69 718.104 1719.88 714.775C1720.07 711.446 1720.15 708.384 1720.3 705.476C1720.45 702.568 1720.53 700.195 1720.61 698.358L1720.07 698.358L1690.76 778.374L1678.47 778.374Z"   fill="#FFFFFF" >
</path>
<path d="M1828.02 695.03C1825.87 694.999 1823.73 695.19 1821.62 695.603C1819.5 696.016 1817.45 696.641 1815.47 697.479C1813.66 698.296 1811.97 699.312 1810.39 700.528C1808.82 701.744 1807.41 703.125 1806.17 704.674C1804.81 706.373 1803.62 708.188 1802.62 710.12C1801.62 712.052 1800.81 714.063 1800.2 716.154C1798.77 721.156 1798.09 726.258 1798.17 731.46C1798.11 734.725 1798.35 737.966 1798.91 741.184C1799.46 744.402 1800.31 747.538 1801.46 750.593C1801.95 751.853 1802.53 753.069 1803.2 754.241C1803.87 755.413 1804.63 756.527 1805.47 757.585C1806.31 758.642 1807.22 759.631 1808.21 760.55C1809.2 761.469 1810.26 762.309 1811.37 763.068C1812.62 763.832 1813.91 764.501 1815.25 765.073C1816.59 765.646 1817.96 766.117 1819.37 766.487C1820.78 766.856 1822.21 767.12 1823.66 767.279C1825.11 767.437 1826.56 767.487 1828.02 767.431C1831.96 767.438 1835.86 767.068 1839.73 766.321C1843.61 765.525 1847.43 764.53 1851.21 763.336L1851.21 775.62C1847.49 777.047 1843.66 778.08 1839.73 778.719C1835.27 779.424 1830.78 779.755 1826.26 779.714C1824.18 779.788 1822.1 779.717 1820.03 779.501C1817.95 779.285 1815.91 778.927 1813.88 778.425C1811.86 777.924 1809.89 777.284 1807.95 776.507C1806.02 775.729 1804.15 774.822 1802.34 773.783C1800.75 772.787 1799.24 771.673 1797.81 770.442C1796.39 769.212 1795.07 767.879 1793.85 766.444C1792.63 765.009 1791.53 763.489 1790.55 761.883C1789.57 760.278 1788.72 758.607 1787.99 756.869C1786.33 752.805 1785.1 748.614 1784.3 744.295C1783.5 739.976 1783.15 735.621 1783.25 731.23C1783.21 727.906 1783.44 724.6 1783.94 721.312C1784.44 718.026 1785.21 714.801 1786.23 711.638C1787.09 708.781 1788.24 706.041 1789.66 703.418C1791.09 700.795 1792.76 698.343 1794.69 696.063C1796.62 693.89 1798.77 691.963 1801.14 690.283C1803.51 688.603 1806.04 687.213 1808.73 686.114C1811.81 684.891 1814.98 683.983 1818.24 683.391C1821.5 682.798 1824.78 682.532 1828.1 682.594C1832.82 682.602 1837.49 683.113 1842.1 684.124C1846.43 685.029 1850.57 686.458 1854.54 688.41L1849.26 700.311C1846.02 698.818 1842.71 697.543 1839.31 696.484C1835.62 695.446 1831.85 694.962 1828.02 695.03Z"   fill="#FFFFFF" >
</path>
<path d="M1929.84 742.709C1929.89 745.378 1929.71 748.032 1929.31 750.672C1928.92 753.311 1928.3 755.899 1927.47 758.437C1926.75 760.558 1925.82 762.585 1924.69 764.519C1923.55 766.452 1922.24 768.251 1920.74 769.917C1919.28 771.51 1917.66 772.914 1915.88 774.129C1914.09 775.345 1912.19 776.339 1910.18 777.111C1907.96 777.956 1905.68 778.584 1903.35 778.996C1901.01 779.408 1898.66 779.596 1896.29 779.56C1894.01 779.59 1891.75 779.399 1889.51 778.987C1887.27 778.575 1885.09 777.95 1882.97 777.111C1880.97 776.324 1879.08 775.323 1877.3 774.109C1875.52 772.894 1873.9 771.497 1872.45 769.917C1870.92 768.252 1869.58 766.453 1868.41 764.521C1867.25 762.589 1866.28 760.561 1865.52 758.437C1864.64 755.911 1863.98 753.327 1863.56 750.685C1863.13 748.043 1862.95 745.385 1862.99 742.709C1862.95 741.004 1863 739.302 1863.15 737.602C1863.29 735.903 1863.54 734.217 1863.88 732.546C1864.22 730.875 1864.66 729.228 1865.19 727.606C1865.72 725.985 1866.34 724.399 1867.05 722.849C1867.66 721.545 1868.36 720.295 1869.16 719.1C1869.96 717.905 1870.85 716.778 1871.82 715.719C1872.8 714.661 1873.84 713.684 1874.97 712.788C1876.09 711.891 1877.28 711.087 1878.53 710.374C1879.9 709.627 1881.31 708.974 1882.76 708.413C1884.22 707.853 1885.7 707.39 1887.22 707.025C1888.73 706.66 1890.26 706.396 1891.82 706.233C1893.36 706.069 1894.92 706.008 1896.48 706.05C1897.98 706.021 1899.48 706.091 1900.97 706.26C1902.46 706.43 1903.94 706.697 1905.39 707.062C1906.85 707.427 1908.28 707.887 1909.67 708.441C1911.07 708.996 1912.42 709.64 1913.73 710.374C1915 711.098 1916.2 711.909 1917.34 712.809C1918.49 713.709 1919.56 714.687 1920.56 715.743C1921.56 716.799 1922.48 717.923 1923.32 719.113C1924.16 720.304 1924.9 721.549 1925.56 722.849C1926.31 724.388 1926.96 725.966 1927.52 727.584C1928.08 729.202 1928.54 730.847 1928.9 732.52C1929.26 734.193 1929.52 735.882 1929.68 737.586C1929.84 739.291 1929.89 740.998 1929.84 742.709ZM1877.42 742.709C1877.37 745.031 1877.51 747.34 1877.84 749.639C1878.16 751.937 1878.68 754.194 1879.37 756.409C1879.65 757.28 1879.99 758.124 1880.39 758.941C1880.8 759.758 1881.27 760.539 1881.8 761.283C1882.33 762.027 1882.91 762.725 1883.55 763.377C1884.19 764.029 1884.88 764.627 1885.61 765.172C1886.01 765.42 1886.43 765.654 1886.85 765.875C1887.27 766.094 1887.7 766.3 1888.13 766.491C1888.57 766.682 1889.01 766.857 1889.45 767.017C1889.9 767.177 1890.35 767.322 1890.81 767.451C1891.27 767.58 1891.73 767.693 1892.19 767.791C1892.66 767.888 1893.13 767.969 1893.6 768.035C1894.07 768.1 1894.54 768.148 1895.01 768.181C1895.49 768.214 1895.96 768.23 1896.44 768.23C1896.91 768.23 1897.39 768.214 1897.86 768.181C1898.34 768.148 1898.81 768.1 1899.28 768.035C1899.75 767.969 1900.22 767.888 1900.68 767.791C1901.15 767.693 1901.61 767.58 1902.06 767.451C1902.52 767.322 1902.98 767.177 1903.42 767.017C1903.87 766.857 1904.31 766.681 1904.75 766.491C1905.18 766.3 1905.61 766.094 1906.03 765.875C1906.45 765.654 1906.86 765.42 1907.27 765.172C1907.98 764.618 1908.65 764.013 1909.27 763.357C1909.89 762.7 1910.46 762 1910.97 761.257C1911.48 760.514 1911.93 759.736 1912.33 758.923C1912.72 758.11 1913.05 757.272 1913.31 756.409C1914.02 754.176 1914.54 751.9 1914.87 749.583C1915.21 747.265 1915.35 744.936 1915.3 742.594C1915.37 740.283 1915.24 737.983 1914.91 735.695C1914.58 733.407 1914.04 731.166 1913.31 728.971C1913.03 728.127 1912.68 727.31 1912.27 726.518C1911.85 725.727 1911.39 724.971 1910.86 724.251C1910.34 723.531 1909.76 722.854 1909.13 722.222C1908.5 721.589 1907.83 721.007 1907.11 720.476C1906.31 719.949 1905.48 719.488 1904.6 719.093C1903.73 718.698 1902.83 718.373 1901.9 718.12C1900.97 717.867 1900.03 717.687 1899.08 717.582C1898.12 717.476 1897.17 717.446 1896.21 717.491C1895.52 717.436 1894.83 717.425 1894.14 717.458C1893.45 717.491 1892.77 717.568 1892.09 717.688C1891.41 717.809 1890.74 717.973 1890.08 718.179C1889.42 718.385 1888.78 718.633 1888.15 718.921C1887.52 719.21 1886.92 719.537 1886.33 719.904C1885.75 720.27 1885.19 720.672 1884.65 721.11C1884.12 721.548 1883.61 722.018 1883.14 722.52C1882.67 723.022 1882.23 723.553 1881.82 724.112C1881.01 725.511 1880.3 726.962 1879.7 728.466C1879.1 729.969 1878.61 731.509 1878.24 733.084C1877.87 734.659 1877.61 736.253 1877.47 737.866C1877.34 739.479 1877.32 741.094 1877.42 742.709Z"   fill="#FFFFFF" >
</path>
<path d="M1980.97 705.859C1981.83 705.799 1982.69 705.78 1983.55 705.803C1984.41 705.826 1985.26 705.889 1986.12 705.995C1986.97 706.1 1987.82 706.246 1988.66 706.433C1989.5 706.619 1990.33 706.846 1991.14 707.113C1991.96 707.379 1992.76 707.685 1993.56 708.029C1994.34 708.373 1995.11 708.754 1995.86 709.172C1996.62 709.59 1997.35 710.044 1998.06 710.532C1998.76 711.021 1999.44 711.542 2000.1 712.097C2004.5 716.229 2006.72 722.849 2006.72 732.034L2006.72 778.374L1992.83 778.374L1992.83 734.023C1992.91 732.919 1992.9 731.816 1992.79 730.715C1992.68 729.613 1992.48 728.529 1992.19 727.462C1991.89 726.396 1991.5 725.363 1991.03 724.363C1990.55 723.364 1989.99 722.413 1989.35 721.51C1988.99 721.143 1988.61 720.796 1988.22 720.47C1987.82 720.145 1987.4 719.842 1986.97 719.563C1986.54 719.283 1986.1 719.028 1985.64 718.798C1985.18 718.567 1984.71 718.363 1984.23 718.185C1983.75 718.007 1983.26 717.856 1982.76 717.732C1982.26 717.608 1981.76 717.512 1981.25 717.444C1980.74 717.376 1980.23 717.337 1979.71 717.326C1979.2 717.314 1978.69 717.332 1978.18 717.377C1970.94 717.377 1965.97 719.52 1963.18 723.844C1962.41 725.26 1961.74 726.721 1961.17 728.229C1960.6 729.738 1960.14 731.278 1959.79 732.851C1959.43 734.423 1959.19 736.013 1959.06 737.619C1958.93 739.225 1958.91 740.833 1959 742.442L1959 778.374L1945 778.374L1945 707.198L1956.1 707.198L1958.09 716.689L1958.89 716.689C1959.64 715.495 1960.51 714.389 1961.49 713.37C1962.47 712.353 1963.54 711.443 1964.71 710.642C1967.05 709.008 1969.6 707.809 1972.36 707.045C1975.18 706.273 1978.05 705.877 1980.97 705.859Z"   fill="#FFFFFF" >
</path>
<path d="M2072.77 758.323C2072.81 759.363 2072.76 760.398 2072.63 761.43C2072.5 762.462 2072.29 763.477 2071.99 764.475C2071.7 765.473 2071.33 766.441 2070.88 767.38C2070.44 768.319 2069.92 769.216 2069.33 770.071C2068.7 770.902 2068.02 771.681 2067.28 772.409C2066.54 773.137 2065.75 773.807 2064.91 774.416C2064.07 775.026 2063.19 775.57 2062.27 776.047C2061.35 776.525 2060.4 776.931 2059.42 777.265C2056.92 778.143 2054.36 778.788 2051.74 779.199C2049.12 779.611 2046.49 779.782 2043.84 779.714C2039.51 779.769 2035.21 779.399 2030.95 778.605C2027.54 777.901 2024.26 776.816 2021.11 775.352L2021.11 763.068C2024.67 764.633 2028.33 765.909 2032.09 766.895C2036.05 768.064 2040.1 768.663 2044.22 768.694C2045.22 768.775 2046.21 768.782 2047.2 768.715C2048.2 768.647 2049.18 768.506 2050.15 768.293C2051.13 768.079 2052.08 767.794 2053.01 767.438C2053.94 767.081 2054.84 766.658 2055.7 766.168C2055.98 765.988 2056.25 765.791 2056.5 765.576C2056.75 765.362 2056.99 765.132 2057.21 764.886C2057.43 764.641 2057.64 764.383 2057.83 764.111C2058.02 763.839 2058.19 763.556 2058.34 763.262C2058.49 762.968 2058.62 762.665 2058.73 762.354C2058.85 762.043 2058.94 761.726 2059.01 761.403C2059.08 761.08 2059.13 760.753 2059.16 760.424C2059.19 760.094 2059.2 759.764 2059.19 759.433C2059.19 758.669 2059.09 757.921 2058.86 757.189C2058.64 756.458 2058.32 755.777 2057.89 755.147C2057.2 754.336 2056.44 753.608 2055.6 752.962C2054.77 752.317 2053.87 751.769 2052.91 751.32C2049.49 749.487 2045.96 747.918 2042.31 746.614C2038.37 745.034 2034.54 743.21 2030.83 741.141C2029.38 740.361 2028.05 739.424 2026.82 738.332C2025.59 737.239 2024.5 736.02 2023.56 734.674C2023.12 733.946 2022.74 733.19 2022.41 732.406C2022.09 731.623 2021.82 730.819 2021.6 729.996C2021.4 729.173 2021.25 728.339 2021.16 727.495C2021.07 726.65 2021.04 725.803 2021.07 724.955C2021.05 724.25 2021.07 723.546 2021.14 722.845C2021.21 722.143 2021.33 721.449 2021.49 720.763C2021.65 720.076 2021.86 719.403 2022.11 718.744C2022.36 718.084 2022.65 717.444 2022.98 716.824C2023.32 716.203 2023.69 715.607 2024.11 715.036C2024.52 714.464 2024.97 713.922 2025.45 713.41C2025.94 712.898 2026.45 712.42 2027 711.976C2027.55 711.532 2028.12 711.126 2028.73 710.758C2030.21 709.871 2031.74 709.097 2033.33 708.436C2034.93 707.776 2036.56 707.235 2038.23 706.813C2039.9 706.392 2041.6 706.095 2043.31 705.922C2045.03 705.75 2046.75 705.703 2048.47 705.783C2052.59 705.761 2056.66 706.181 2060.68 707.046C2064.54 707.913 2068.27 709.188 2071.85 710.872L2067.22 721.549C2064.13 720.232 2060.96 719.11 2057.73 718.181C2054.49 717.267 2051.19 716.808 2047.82 716.804C2046.15 716.698 2044.5 716.814 2042.87 717.152C2041.23 717.489 2039.67 718.036 2038.18 718.794C2037.93 718.924 2037.68 719.072 2037.45 719.236C2037.22 719.4 2037 719.579 2036.79 719.774C2036.58 719.969 2036.39 720.177 2036.21 720.398C2036.03 720.619 2035.87 720.852 2035.72 721.096C2035.58 721.339 2035.45 721.592 2035.34 721.854C2035.23 722.116 2035.13 722.384 2035.06 722.658C2034.98 722.932 2034.93 723.211 2034.89 723.493C2034.86 723.775 2034.84 724.058 2034.85 724.342C2034.84 725.136 2034.97 725.907 2035.24 726.656C2035.5 727.405 2035.88 728.088 2036.38 728.705C2037.13 729.525 2037.95 730.257 2038.85 730.902C2039.76 731.547 2040.72 732.09 2041.74 732.531C2044.3 733.756 2047.74 735.287 2052.18 737.047C2055.98 738.419 2059.65 740.065 2063.2 741.983C2064.62 742.777 2065.92 743.727 2067.1 744.834C2068.28 745.94 2069.32 747.171 2070.21 748.527C2070.65 749.26 2071.04 750.021 2071.37 750.811C2071.71 751.6 2071.98 752.41 2072.2 753.239C2072.42 754.068 2072.57 754.909 2072.67 755.761C2072.76 756.612 2072.8 757.466 2072.77 758.323Z"   fill="#FFFFFF" >
</path>
<path d="M2149.49 742.71C2149.55 745.379 2149.37 748.034 2148.97 750.674C2148.57 753.315 2147.96 755.902 2147.12 758.437C2146.41 760.562 2145.48 762.592 2144.35 764.525C2143.21 766.459 2141.89 768.257 2140.39 769.917C2138.93 771.511 2137.31 772.915 2135.52 774.13C2133.74 775.345 2131.84 776.339 2129.82 777.112C2127.62 777.957 2125.34 778.585 2123.01 778.997C2120.68 779.409 2118.34 779.597 2115.97 779.561C2113.69 779.591 2111.42 779.399 2109.18 778.987C2106.93 778.575 2104.74 777.95 2102.62 777.112C2100.62 776.324 2098.74 775.323 2096.97 774.109C2095.2 772.895 2093.59 771.497 2092.13 769.917C2090.6 768.258 2089.24 766.462 2088.07 764.53C2086.9 762.597 2085.93 760.566 2085.17 758.437C2084.3 755.908 2083.66 753.323 2083.24 750.682C2082.82 748.041 2082.64 745.384 2082.68 742.71C2082.61 740.994 2082.64 739.279 2082.77 737.566C2082.9 735.853 2083.12 734.152 2083.45 732.465C2083.77 730.778 2084.19 729.114 2084.7 727.474C2085.21 725.835 2085.81 724.229 2086.51 722.658C2087.12 721.356 2087.82 720.108 2088.62 718.913C2089.42 717.719 2090.31 716.593 2091.28 715.535C2092.26 714.477 2093.31 713.499 2094.43 712.602C2095.55 711.705 2096.74 710.899 2097.99 710.183C2099.36 709.437 2100.77 708.784 2102.23 708.223C2103.69 707.663 2105.17 707.2 2106.69 706.835C2108.21 706.47 2109.75 706.206 2111.3 706.042C2112.85 705.879 2114.41 705.818 2115.97 705.859C2117.47 705.83 2118.97 705.9 2120.45 706.07C2121.94 706.239 2123.41 706.506 2124.87 706.871C2126.32 707.236 2127.75 707.696 2129.14 708.251C2130.53 708.805 2131.89 709.449 2133.19 710.183C2134.48 710.912 2135.7 711.732 2136.87 712.643C2138.03 713.554 2139.13 714.546 2140.14 715.619C2141.16 716.692 2142.1 717.835 2142.95 719.047C2143.79 720.258 2144.55 721.526 2145.21 722.85C2145.96 724.389 2146.61 725.967 2147.17 727.585C2147.73 729.202 2148.19 730.848 2148.55 732.521C2148.91 734.194 2149.17 735.883 2149.33 737.587C2149.49 739.291 2149.54 740.999 2149.49 742.71ZM2097.07 742.71C2097.01 745.033 2097.16 747.344 2097.49 749.643C2097.82 751.942 2098.35 754.198 2099.06 756.409C2099.33 757.281 2099.66 758.126 2100.06 758.944C2100.46 759.762 2100.93 760.543 2101.46 761.288C2101.98 762.032 2102.56 762.73 2103.2 763.381C2103.84 764.033 2104.53 764.63 2105.26 765.172C2105.66 765.421 2106.08 765.655 2106.5 765.875C2106.92 766.095 2107.35 766.301 2107.78 766.491C2108.22 766.682 2108.66 766.858 2109.1 767.018C2109.55 767.178 2110 767.323 2110.46 767.452C2110.92 767.581 2111.38 767.694 2111.84 767.791C2112.31 767.889 2112.78 767.97 2113.25 768.035C2113.72 768.1 2114.19 768.149 2114.66 768.182C2115.14 768.215 2115.61 768.231 2116.09 768.231C2116.56 768.231 2117.04 768.215 2117.51 768.182C2117.98 768.149 2118.46 768.1 2118.93 768.035C2119.4 767.97 2119.87 767.889 2120.33 767.791C2120.79 767.694 2121.25 767.581 2121.71 767.452C2122.17 767.323 2122.62 767.178 2123.07 767.018C2123.52 766.858 2123.96 766.682 2124.39 766.491C2124.83 766.301 2125.26 766.095 2125.68 765.875C2126.1 765.655 2126.51 765.421 2126.92 765.172C2127.65 764.63 2128.33 764.033 2128.97 763.381C2129.61 762.73 2130.19 762.032 2130.72 761.288C2131.24 760.543 2131.71 759.762 2132.11 758.944C2132.51 758.126 2132.85 757.281 2133.12 756.409C2133.83 754.178 2134.35 751.904 2134.69 749.585C2135.02 747.267 2135.16 744.937 2135.1 742.595C2135.16 740.283 2135.02 737.984 2134.68 735.697C2134.33 733.409 2133.8 731.168 2133.08 728.972C2132.79 728.127 2132.43 727.309 2132.02 726.517C2131.61 725.725 2131.13 724.969 2130.6 724.249C2130.08 723.529 2129.5 722.852 2128.86 722.22C2128.23 721.588 2127.56 721.007 2126.84 720.477C2126.05 719.958 2125.23 719.502 2124.37 719.111C2123.51 718.72 2122.62 718.398 2121.72 718.145C2120.81 717.892 2119.88 717.71 2118.95 717.601C2118.01 717.491 2117.07 717.455 2116.12 717.492C2115.44 717.436 2114.75 717.425 2114.05 717.457C2113.36 717.489 2112.68 717.566 2112 717.686C2111.31 717.806 2110.64 717.969 2109.98 718.176C2109.32 718.382 2108.68 718.629 2108.05 718.918C2107.42 719.206 2106.81 719.534 2106.22 719.9C2105.64 720.267 2105.07 720.669 2104.54 721.107C2104 721.546 2103.5 722.016 2103.02 722.519C2102.55 723.022 2102.11 723.553 2101.7 724.112C2100.86 725.503 2100.12 726.948 2099.5 728.448C2098.87 729.947 2098.36 731.485 2097.96 733.061C2097.56 734.636 2097.28 736.232 2097.12 737.849C2096.96 739.466 2096.91 741.087 2096.99 742.71L2097.07 742.71Z"   fill="#FFFFFF" >
</path>
<path d="M2178.58 778.374L2164.57 778.374L2164.57 678L2178.58 678L2178.58 778.374Z"   fill="#FFFFFF" >
</path>
<path d="M2225.87 705.86C2227.27 705.816 2228.67 705.865 2230.06 706.006C2231.45 706.147 2232.82 706.379 2234.18 706.702C2235.54 707.025 2236.88 707.437 2238.18 707.936C2239.49 708.436 2240.75 709.019 2241.98 709.686C2243.1 710.336 2244.16 711.065 2245.17 711.871C2246.18 712.678 2247.12 713.555 2248 714.501C2248.88 715.448 2249.68 716.454 2250.41 717.52C2251.14 718.585 2251.79 719.699 2252.35 720.86C2253.62 723.543 2254.56 726.336 2255.18 729.238C2255.79 732.141 2256.06 735.076 2255.99 738.042L2255.99 745.696L2208.16 745.696C2208.1 747.209 2208.18 748.715 2208.4 750.214C2208.62 751.712 2208.97 753.178 2209.46 754.611C2209.95 756.044 2210.57 757.42 2211.32 758.739C2212.06 760.057 2212.92 761.297 2213.9 762.456C2214.39 762.952 2214.92 763.421 2215.46 763.862C2216.01 764.303 2216.58 764.715 2217.18 765.096C2217.76 765.477 2218.37 765.827 2219 766.144C2219.63 766.461 2220.27 766.745 2220.93 766.995C2221.59 767.244 2222.26 767.459 2222.93 767.639C2223.62 767.818 2224.3 767.962 2225 768.069C2225.69 768.177 2226.39 768.247 2227.09 768.282C2227.8 768.315 2228.5 768.313 2229.2 768.273C2233.33 768.322 2237.41 767.901 2241.45 767.01C2245.24 766.078 2248.91 764.803 2252.47 763.183L2252.47 774.664C2249 776.213 2245.42 777.399 2241.72 778.222C2237.42 779.08 2233.08 779.476 2228.7 779.409C2227.13 779.439 2225.56 779.375 2223.99 779.217C2222.42 779.058 2220.87 778.807 2219.33 778.462C2217.79 778.117 2216.28 777.681 2214.8 777.155C2213.31 776.628 2211.86 776.014 2210.45 775.314C2209.14 774.637 2207.89 773.866 2206.7 773C2205.51 772.135 2204.39 771.184 2203.35 770.15C2202.3 769.115 2201.33 768.007 2200.45 766.827C2199.57 765.646 2198.79 764.406 2198.09 763.107C2197.32 761.563 2196.64 759.977 2196.06 758.349C2195.48 756.721 2195.01 755.063 2194.64 753.376C2194.26 751.689 2194 749.985 2193.84 748.264C2193.69 746.544 2193.63 744.82 2193.69 743.093C2193.64 741.348 2193.69 739.606 2193.83 737.866C2193.97 736.126 2194.21 734.4 2194.55 732.687C2194.89 730.975 2195.32 729.286 2195.85 727.622C2196.38 725.959 2197 724.33 2197.71 722.735C2198.31 721.43 2199 720.175 2199.79 718.971C2200.57 717.766 2201.44 716.624 2202.39 715.546C2203.33 714.467 2204.36 713.462 2205.45 712.532C2206.55 711.602 2207.7 710.755 2208.92 709.992C2210.2 709.262 2211.53 708.625 2212.9 708.08C2214.27 707.534 2215.67 707.087 2217.11 706.738C2218.54 706.388 2219.99 706.14 2221.46 705.993C2222.93 705.846 2224.4 705.802 2225.87 705.86ZM2225.87 716.689C2225.31 716.665 2224.75 716.671 2224.19 716.707C2223.63 716.743 2223.08 716.809 2222.52 716.904C2221.97 717 2221.43 717.125 2220.89 717.279C2220.35 717.433 2219.82 717.615 2219.29 717.825C2218.77 718.036 2218.27 718.274 2217.77 718.539C2217.28 718.804 2216.8 719.094 2216.34 719.41C2215.87 719.727 2215.43 720.067 2215 720.431C2214.57 720.794 2214.17 721.18 2213.78 721.587C2212.96 722.553 2212.22 723.58 2211.58 724.67C2210.93 725.759 2210.38 726.895 2209.92 728.078C2209.47 729.26 2209.11 730.472 2208.86 731.715C2208.61 732.957 2208.46 734.211 2208.42 735.478L2241.98 735.478C2242.02 733.805 2241.89 732.145 2241.6 730.497C2241.31 728.848 2240.86 727.243 2240.26 725.682C2240.01 725.007 2239.7 724.356 2239.35 723.729C2238.99 723.101 2238.59 722.505 2238.14 721.94C2237.69 721.375 2237.2 720.848 2236.68 720.359C2236.14 719.87 2235.58 719.425 2234.98 719.023C2234.3 718.607 2233.6 718.244 2232.86 717.933C2232.13 717.622 2231.38 717.368 2230.6 717.17C2229.83 716.973 2229.05 716.833 2228.26 716.753C2227.46 716.672 2226.67 716.651 2225.87 716.689Z"   fill="#FFFFFF" >
</path>
</svg>
