<svg xmlns="http://www.w3.org/2000/svg" xmlns:xlink="http://www.w3.org/1999/xlink" width="1373" height="266" viewBox="0 0 1373 266" fill="none">
<g >
<path     fill="#FFFFFF"  d="M29.8854 222.44L29.3454 222.44L29.3454 257L19.8054 257L19.8054 215L37.0254 215L42.7254 245.06L42.8454 245.66L42.9654 245.06L48.6654 215L65.8854 215L65.8854 257L56.3454 257L56.3454 222.44L55.8654 222.44L48.6654 257L37.0254 257L29.8854 222.44ZM80.8654 224.6L80.8654 257L71.2654 257L71.2654 224.6L80.8654 224.6ZM71.2654 210.86L80.8654 210.86L80.8654 220.46L71.2654 220.46L71.2654 210.86ZM95.2454 224.48L95.2454 228.38Q97.4654 226.46 100.315 225.38Q103.165 224.3 105.985 224.3Q110.605 224.3 113.335 227Q116.065 229.7 116.065 234.02L116.065 256.88L106.465 256.88L106.465 235.64Q106.465 233.9 105.025 232.79Q103.585 231.68 101.605 231.68Q100.345 231.68 98.4554 232.52Q96.5654 233.36 95.2454 234.56L95.2454 256.88L85.6454 256.88L85.6454 224.48L95.2454 224.48ZM130.445 224.6L130.445 257L120.845 257L120.845 224.6L130.445 224.6ZM120.845 210.86L130.445 210.86L130.445 220.46L120.845 220.46L120.845 210.86ZM154.605 235.1L154.605 242.06L136.185 242.06L136.185 235.1L154.605 235.1ZM186.625 256.94Q182.665 250.4 180.085 246.98Q177.505 243.56 173.665 240.02L170.125 240.02L170.125 257L160.225 257L160.225 215L170.125 215L170.125 231.98L172.345 231.98L184.045 215L194.845 215L180.445 235.52Q185.305 239.96 188.905 244.7Q192.505 249.44 196.945 256.94L186.625 256.94ZM195.605 215L206.345 215L216.425 250.34L216.665 250.34L226.745 215L237.485 215L224.525 257L208.565 257L195.605 215ZM249.765 222.44L249.225 222.44L249.225 257L239.685 257L239.685 215L256.905 215L262.605 245.06L262.725 245.66L262.845 245.06L268.545 215L285.765 215L285.765 257L276.225 257L276.225 222.44L275.745 222.44L268.545 257L256.905 257L249.765 222.44ZM304.405 224.6L304.405 234.44L294.565 234.44L294.565 224.6L304.405 224.6ZM294.565 247.16L304.405 247.16L304.405 257L294.565 257L294.565 247.16ZM346.159 215Q352.759 215 356.569 218.54Q360.379 222.08 360.379 228.62Q360.379 235.1 356.569 238.64Q352.759 242.18 346.159 242.18L335.959 242.18L335.959 257L326.059 257L326.059 215L346.159 215ZM345.259 234.26Q348.259 234.26 349.879 232.64Q351.499 231.02 351.499 228.62Q351.499 226.16 349.879 224.54Q348.259 222.92 345.259 222.92L335.959 222.92L335.959 234.26L345.259 234.26ZM379.019 257.78Q373.919 257.78 370.049 255.68Q366.179 253.58 364.079 249.71Q361.979 245.84 361.979 240.56Q361.979 232.46 366.539 228.14Q371.099 223.82 379.019 223.82Q386.879 223.82 391.439 228.14Q395.999 232.46 395.999 240.56Q395.999 245.84 393.899 249.71Q391.799 253.58 387.959 255.68Q384.119 257.78 379.019 257.78ZM371.459 240.56Q371.459 245.18 373.559 248Q375.659 250.82 379.019 250.82Q382.379 250.82 384.449 248Q386.519 245.18 386.519 240.56Q386.519 235.76 384.509 233.27Q382.499 230.78 379.019 230.78Q375.539 230.78 373.499 233.27Q371.459 235.76 371.459 240.56ZM408.399 224.6L408.399 228.08Q409.959 226.4 412.149 225.47Q414.339 224.54 416.499 224.54Q417.999 224.54 419.319 224.96L419.319 232.34Q417.639 231.92 416.139 231.92Q413.859 231.92 411.819 232.67Q409.779 233.42 408.399 235.04L408.399 257L398.799 257L398.799 224.6L408.399 224.6ZM423.799 224.6L423.799 215.36L432.799 215.36L432.799 224.6L439.039 224.6L439.039 231.92L432.799 231.92L432.799 245.84Q432.799 247.58 433.069 248.48Q433.339 249.38 434.059 249.71Q434.779 250.04 436.159 250.04Q437.059 250.04 437.689 249.98Q438.319 249.92 438.799 249.8L438.799 257.18Q436.279 257.48 434.119 257.48Q429.979 257.48 427.939 256.64Q425.899 255.8 424.849 253.73Q423.799 251.66 423.799 247.82L423.799 231.92L419.119 231.92L419.119 224.6L423.799 224.6ZM455.039 257.78Q450.479 257.78 447.089 255.62Q443.699 253.46 441.869 249.68Q440.039 245.9 440.039 240.86Q440.039 235.88 441.869 232.01Q443.699 228.14 447.029 225.98Q450.359 223.82 454.799 223.82Q456.839 223.82 458.909 224.57Q460.979 225.32 462.779 226.64L462.779 224.6L472.379 224.6L472.379 249.44Q472.379 254.3 473.579 257L464.579 257Q464.159 256.16 463.859 254.84Q460.139 257.78 455.039 257.78ZM449.219 240.86Q449.219 243.62 450.329 245.9Q451.439 248.18 453.269 249.53Q455.099 250.88 457.139 250.88Q458.579 250.88 460.379 250.25Q462.179 249.62 463.499 247.52L463.499 234.08Q462.179 231.98 460.409 231.38Q458.639 230.78 457.139 230.78Q455.099 230.78 453.269 232.1Q451.439 233.42 450.329 235.73Q449.219 238.04 449.219 240.86ZM493.959 257.78Q488.679 257.78 484.899 254.84Q484.599 256.16 484.179 257L475.179 257Q476.379 254.3 476.379 249.5L476.379 210.86L485.979 210.86L485.979 226.7Q487.779 225.32 489.849 224.6Q491.919 223.88 493.959 223.88Q498.399 223.88 501.729 226.04Q505.059 228.2 506.889 232.07Q508.719 235.94 508.719 240.92Q508.719 245.84 506.919 249.68Q505.119 253.52 501.759 255.65Q498.399 257.78 493.959 257.78ZM484.959 247.1Q486.219 249.5 488.139 250.22Q490.059 250.94 491.619 250.94Q493.659 250.94 495.489 249.59Q497.319 248.24 498.429 245.96Q499.539 243.68 499.539 240.92Q499.539 238.1 498.429 235.76Q497.319 233.42 495.489 232.1Q493.659 230.78 491.619 230.78Q490.059 230.78 488.139 231.53Q486.219 232.28 484.959 234.62L484.959 247.1ZM522.439 257.48Q517.039 257.48 514.279 254.45Q511.519 251.42 511.519 245.54L511.519 210.86L521.119 210.86L521.119 243.14Q521.119 245.54 521.479 246.8Q521.839 248.06 522.679 248.72Q523.339 249.26 524.149 249.41Q524.959 249.56 526.999 249.56L526.999 257.48L522.439 257.48ZM558.059 255.26Q555.779 256.64 552.749 257.3Q549.719 257.96 546.899 257.96Q537.299 257.96 532.349 253.4Q527.399 248.84 527.399 240.62Q527.399 232.46 531.809 228.11Q536.219 223.76 543.839 223.76Q551.399 223.76 555.809 228.11Q560.219 232.46 560.219 240.62Q560.219 241.52 560.099 243.2L536.759 243.2Q538.079 250.94 546.899 250.94Q553.079 250.94 558.059 247.28L558.059 255.26ZM551.159 236.48Q550.379 233.48 548.459 232.04Q546.539 230.6 543.839 230.6Q541.319 230.6 539.549 232.1Q537.779 233.6 537.059 236.48L551.159 236.48ZM583.312 208.4L583.312 266L575.872 266L575.872 208.4L583.312 208.4ZM620.986 257.78Q614.386 257.78 609.586 255.29Q604.786 252.8 602.176 248Q599.566 243.2 599.566 236.48Q599.566 229.64 602.176 224.6Q604.786 219.56 609.616 216.89Q614.446 214.22 620.986 214.22Q627.526 214.22 632.326 216.89Q637.126 219.56 639.736 224.6Q642.346 229.64 642.346 236.48Q642.346 243.26 639.736 248.03Q637.126 252.8 632.386 255.29Q627.646 257.78 620.986 257.78ZM610.066 236.48Q610.066 242.96 612.946 246.71Q615.826 250.46 620.986 250.46Q626.086 250.46 628.966 246.71Q631.846 242.96 631.846 236.48Q631.846 232.22 630.586 228.86Q629.326 225.5 626.836 223.58Q624.346 221.66 620.986 221.66Q617.626 221.66 615.166 223.58Q612.706 225.5 611.386 228.86Q610.066 232.22 610.066 236.48ZM643.046 224.6L652.766 224.6L660.506 251.12L660.806 251.12L668.606 224.6L678.266 224.6L668.006 257L653.306 257L643.046 224.6ZM709.026 255.26Q706.746 256.64 703.716 257.3Q700.686 257.96 697.866 257.96Q688.266 257.96 683.316 253.4Q678.366 248.84 678.366 240.62Q678.366 232.46 682.776 228.11Q687.186 223.76 694.806 223.76Q702.366 223.76 706.776 228.11Q711.186 232.46 711.186 240.62Q711.186 241.52 711.066 243.2L687.726 243.2Q689.046 250.94 697.866 250.94Q704.046 250.94 709.026 247.28L709.026 255.26ZM702.126 236.48Q701.346 233.48 699.426 232.04Q697.506 230.6 694.806 230.6Q692.286 230.6 690.516 232.1Q688.746 233.6 688.026 236.48L702.126 236.48ZM723.586 224.6L723.586 228.08Q725.146 226.4 727.336 225.47Q729.526 224.54 731.686 224.54Q733.186 224.54 734.506 224.96L734.506 232.34Q732.826 231.92 731.326 231.92Q729.046 231.92 727.006 232.67Q724.966 233.42 723.586 235.04L723.586 257L713.986 257L713.986 224.6L723.586 224.6ZM768.399 257.78Q759.939 257.78 754.929 253.22Q749.919 248.66 749.919 240.68L749.919 215L759.819 215L759.819 240.68Q759.819 243.32 760.989 245.24Q762.159 247.16 764.139 248.21Q766.119 249.26 768.399 249.26Q770.739 249.26 772.689 248.21Q774.639 247.16 775.779 245.21Q776.919 243.26 776.919 240.68L776.919 215L786.819 215L786.819 240.68Q786.819 248.66 781.809 253.22Q776.799 257.78 768.399 257.78ZM807.139 257.72Q806.479 257.78 805.099 257.78Q796.999 257.78 790.699 254.3L790.699 245.48Q793.999 247.52 797.959 248.9Q801.919 250.28 805.159 250.28Q807.799 250.28 809.329 248.96Q810.859 247.64 810.859 245.96Q810.859 243.62 809.059 241.67Q807.259 239.72 803.299 238.52Q798.739 237.08 796.189 235.61Q793.639 234.14 792.349 231.92Q791.059 229.7 791.059 226.28Q791.059 223.04 792.619 220.37Q794.179 217.7 797.209 216.08Q800.239 214.46 804.439 214.28Q804.979 214.22 806.119 214.22Q809.239 214.22 812.389 214.85Q815.539 215.48 817.699 216.44L817.699 224.18Q815.359 223.16 812.239 222.5Q809.119 221.84 806.719 221.84Q803.659 221.84 802.039 222.92Q800.419 224 800.419 225.92Q800.419 227.66 802.159 229.04Q803.899 230.42 807.559 231.68Q811.939 232.94 814.699 234.53Q817.459 236.12 819.019 238.67Q820.579 241.22 820.579 245.06Q820.579 248.72 818.899 251.54Q817.219 254.36 814.189 255.95Q811.159 257.54 807.139 257.72ZM824.099 215L843.419 215Q849.239 215 852.599 217.85Q855.959 220.7 855.959 225.98Q855.959 228.32 854.459 230.54Q852.959 232.76 850.439 234.38Q854.099 235.94 856.319 238.76Q858.539 241.58 858.539 244.82Q858.539 250.4 854.819 253.7Q851.099 257 844.799 257L824.099 257L824.099 215ZM842.219 249.74Q845.219 249.74 846.869 248.03Q848.519 246.32 848.519 243.5Q848.519 241.22 846.509 239.78Q844.499 238.34 840.479 238.34L833.999 238.34L833.999 249.74L842.219 249.74ZM840.779 232.52Q843.239 232.52 844.619 230.81Q845.999 229.1 845.999 227.06Q845.999 224.66 844.559 222.95Q843.119 221.24 839.699 221.24L833.999 221.24L833.999 232.52L840.779 232.52ZM882.233 208.4L882.233 266L874.793 266L874.793 208.4L882.233 208.4ZM914.806 257.72Q914.146 257.78 912.766 257.78Q904.667 257.78 898.367 254.3L898.367 245.48Q901.667 247.52 905.626 248.9Q909.586 250.28 912.826 250.28Q915.466 250.28 916.996 248.96Q918.526 247.64 918.526 245.96Q918.526 243.62 916.727 241.67Q914.927 239.72 910.966 238.52Q906.406 237.08 903.857 235.61Q901.306 234.14 900.016 231.92Q898.727 229.7 898.727 226.28Q898.727 223.04 900.286 220.37Q901.846 217.7 904.876 216.08Q907.906 214.46 912.107 214.28Q912.646 214.22 913.786 214.22Q916.906 214.22 920.057 214.85Q923.206 215.48 925.366 216.44L925.366 224.18Q923.026 223.16 919.906 222.5Q916.786 221.84 914.386 221.84Q911.326 221.84 909.706 222.92Q908.086 224 908.086 225.92Q908.086 227.66 909.826 229.04Q911.566 230.42 915.227 231.68Q919.607 232.94 922.367 234.53Q925.126 236.12 926.686 238.67Q928.246 241.22 928.246 245.06Q928.246 248.72 926.566 251.54Q924.886 254.36 921.857 255.95Q918.826 257.54 914.806 257.72ZM960.627 255.26Q958.346 256.64 955.317 257.3Q952.286 257.96 949.466 257.96Q939.867 257.96 934.917 253.4Q929.966 248.84 929.966 240.62Q929.966 232.46 934.377 228.11Q938.786 223.76 946.406 223.76Q953.966 223.76 958.377 228.11Q962.786 232.46 962.786 240.62Q962.786 241.52 962.667 243.2L939.326 243.2Q940.646 250.94 949.466 250.94Q955.646 250.94 960.627 247.28L960.627 255.26ZM953.727 236.48Q952.947 233.48 951.026 232.04Q949.107 230.6 946.406 230.6Q943.886 230.6 942.117 232.1Q940.346 233.6 939.627 236.48L953.727 236.48ZM979.386 257.78Q974.826 257.78 971.436 255.62Q968.047 253.46 966.216 249.68Q964.386 245.9 964.386 240.86Q964.386 235.88 966.216 232.01Q968.047 228.14 971.376 225.98Q974.706 223.82 979.146 223.82Q981.186 223.82 983.256 224.57Q985.326 225.32 987.126 226.64L987.126 224.6L996.727 224.6L996.727 249.44Q996.727 254.3 997.927 257L988.927 257Q988.506 256.16 988.206 254.84Q984.487 257.78 979.386 257.78ZM973.566 240.86Q973.566 243.62 974.677 245.9Q975.786 248.18 977.617 249.53Q979.446 250.88 981.487 250.88Q982.927 250.88 984.727 250.25Q986.526 249.62 987.846 247.52L987.846 234.08Q986.526 231.98 984.756 231.38Q982.987 230.78 981.487 230.78Q979.446 230.78 977.617 232.1Q975.786 233.42 974.677 235.73Q973.566 238.04 973.566 240.86ZM1010.33 224.54L1010.33 227.96Q1012.49 226.22 1015.13 225.26Q1017.77 224.3 1020.47 224.3Q1023.17 224.3 1025.15 225.29Q1027.13 226.28 1028.27 228.02Q1030.49 226.22 1033.13 225.26Q1035.77 224.3 1038.47 224.3Q1043.03 224.3 1045.49 227Q1047.95 229.7 1047.95 234.02L1047.95 257L1038.35 257L1038.35 235.64Q1038.35 233.9 1037.18 232.79Q1036.01 231.68 1034.09 231.68Q1033.25 231.68 1032.11 232.04Q1030.97 232.4 1029.89 233Q1029.95 233.36 1029.95 234.02L1029.95 257L1020.35 257L1020.35 235.64Q1020.35 233.9 1019.18 232.79Q1018.01 231.68 1016.09 231.68Q1014.95 231.68 1013.27 232.34Q1011.59 233 1010.33 234.08L1010.33 257L1000.73 257L1000.73 224.54L1010.33 224.54ZM1062.87 257.48Q1057.47 257.48 1054.71 254.45Q1051.95 251.42 1051.95 245.54L1051.95 210.86L1061.55 210.86L1061.55 243.14Q1061.55 245.54 1061.91 246.8Q1062.27 248.06 1063.11 248.72Q1063.77 249.26 1064.58 249.41Q1065.39 249.56 1067.43 249.56L1067.43 257.48L1062.87 257.48ZM1098.49 255.26Q1096.21 256.64 1093.18 257.3Q1090.15 257.96 1087.33 257.96Q1077.73 257.96 1072.78 253.4Q1067.83 248.84 1067.83 240.62Q1067.83 232.46 1072.24 228.11Q1076.65 223.76 1084.27 223.76Q1091.83 223.76 1096.24 228.11Q1100.65 232.46 1100.65 240.62Q1100.65 241.52 1100.53 243.2L1077.19 243.2Q1078.51 250.94 1087.33 250.94Q1093.51 250.94 1098.49 247.28L1098.49 255.26ZM1091.59 236.48Q1090.81 233.48 1088.89 232.04Q1086.97 230.6 1084.27 230.6Q1081.75 230.6 1079.98 232.1Q1078.21 233.6 1077.49 236.48L1091.59 236.48ZM1116.47 257.72Q1112.81 257.9 1109.06 257.15Q1105.31 256.4 1102.55 254.84L1102.55 246.2Q1105.01 248 1108.46 249.17Q1111.91 250.34 1114.55 250.16Q1116.41 250.04 1117.25 249.35Q1118.09 248.66 1118.21 247.94Q1118.51 246.08 1117.31 245.12Q1116.11 244.16 1112.81 243.26Q1109.15 242.24 1106.99 240.89Q1104.83 239.54 1103.72 237.83Q1102.61 236.12 1102.61 233.48Q1102.61 230.72 1104.05 228.53Q1105.49 226.34 1108.61 225.08Q1111.73 223.82 1115.33 223.82Q1118.03 223.82 1120.79 224.33Q1123.55 224.84 1125.41 225.68L1125.41 233.42Q1123.49 232.46 1120.88 231.71Q1118.27 230.96 1116.35 230.96Q1112.27 230.96 1111.91 233.12Q1111.73 234.38 1113.08 235.34Q1114.43 236.3 1116.95 237.08Q1120.55 238.22 1122.86 239.42Q1125.17 240.62 1126.49 242.54Q1127.81 244.46 1127.81 247.46Q1127.81 251.9 1124.63 254.69Q1121.45 257.48 1116.47 257.72ZM1143.21 257.72Q1139.55 257.9 1135.8 257.15Q1132.05 256.4 1129.29 254.84L1129.29 246.2Q1131.75 248 1135.2 249.17Q1138.65 250.34 1141.29 250.16Q1143.15 250.04 1143.99 249.35Q1144.83 248.66 1144.95 247.94Q1145.25 246.08 1144.05 245.12Q1142.85 244.16 1139.55 243.26Q1135.89 242.24 1133.73 240.89Q1131.57 239.54 1130.46 237.83Q1129.35 236.12 1129.35 233.48Q1129.35 230.72 1130.79 228.53Q1132.23 226.34 1135.35 225.08Q1138.47 223.82 1142.07 223.82Q1144.77 223.82 1147.53 224.33Q1150.29 224.84 1152.15 225.68L1152.15 233.42Q1150.23 232.46 1147.62 231.71Q1145.01 230.96 1143.09 230.96Q1139.01 230.96 1138.65 233.12Q1138.47 234.38 1139.82 235.34Q1141.17 236.3 1143.69 237.08Q1147.29 238.22 1149.6 239.42Q1151.91 240.62 1153.23 242.54Q1154.55 244.46 1154.55 247.46Q1154.55 251.9 1151.37 254.69Q1148.19 257.48 1143.21 257.72ZM1192.7 257.78Q1185.86 257.78 1180.55 255.26Q1175.24 252.74 1172.21 247.94Q1169.18 243.14 1169.18 236.54Q1169.18 229.58 1172.12 224.57Q1175.06 219.56 1180.34 216.89Q1185.62 214.22 1192.4 214.22Q1195.76 214.22 1199.18 214.88Q1202.6 215.54 1204.82 216.56L1204.82 224Q1198.76 221.78 1193.54 221.78Q1187.3 221.78 1183.43 225.44Q1179.56 229.1 1179.56 236.54Q1179.56 240.5 1181.48 243.53Q1183.4 246.56 1186.52 248.24Q1189.64 249.92 1193.24 250.16L1194.56 250.22Q1197.32 250.22 1200.02 249.44Q1202.72 248.66 1204.82 247.34L1204.82 255.62Q1202.24 256.82 1199.33 257.3Q1196.42 257.78 1192.7 257.78ZM1224.66 257.78Q1219.56 257.78 1215.69 255.68Q1211.82 253.58 1209.72 249.71Q1207.62 245.84 1207.62 240.56Q1207.62 232.46 1212.18 228.14Q1216.74 223.82 1224.66 223.82Q1232.52 223.82 1237.08 228.14Q1241.64 232.46 1241.64 240.56Q1241.64 245.84 1239.54 249.71Q1237.44 253.58 1233.6 255.68Q1229.76 257.78 1224.66 257.78ZM1217.1 240.56Q1217.1 245.18 1219.2 248Q1221.3 250.82 1224.66 250.82Q1228.02 250.82 1230.09 248Q1232.16 245.18 1232.16 240.56Q1232.16 235.76 1230.15 233.27Q1228.14 230.78 1224.66 230.78Q1221.18 230.78 1219.14 233.27Q1217.1 235.76 1217.1 240.56ZM1254.04 224.48L1254.04 228.38Q1256.26 226.46 1259.11 225.38Q1261.96 224.3 1264.78 224.3Q1269.4 224.3 1272.13 227Q1274.86 229.7 1274.86 234.02L1274.86 256.88L1265.26 256.88L1265.26 235.64Q1265.26 233.9 1263.82 232.79Q1262.38 231.68 1260.4 231.68Q1259.14 231.68 1257.25 232.52Q1255.36 233.36 1254.04 234.56L1254.04 256.88L1244.44 256.88L1244.44 224.48L1254.04 224.48ZM1281.38 224.6L1281.38 215.36L1290.38 215.36L1290.38 224.6L1296.62 224.6L1296.62 231.92L1290.38 231.92L1290.38 245.84Q1290.38 247.58 1290.65 248.48Q1290.92 249.38 1291.64 249.71Q1292.36 250.04 1293.74 250.04Q1294.64 250.04 1295.27 249.98Q1295.9 249.92 1296.38 249.8L1296.38 257.18Q1293.86 257.48 1291.7 257.48Q1287.56 257.48 1285.52 256.64Q1283.48 255.8 1282.43 253.73Q1281.38 251.66 1281.38 247.82L1281.38 231.92L1276.7 231.92L1276.7 224.6L1281.38 224.6ZM1308.42 224.6L1308.42 228.08Q1309.98 226.4 1312.17 225.47Q1314.36 224.54 1316.52 224.54Q1318.02 224.54 1319.34 224.96L1319.34 232.34Q1317.66 231.92 1316.16 231.92Q1313.88 231.92 1311.84 232.67Q1309.8 233.42 1308.42 235.04L1308.42 257L1298.82 257L1298.82 224.6L1308.42 224.6ZM1337.14 257.78Q1332.04 257.78 1328.17 255.68Q1324.3 253.58 1322.2 249.71Q1320.1 245.84 1320.1 240.56Q1320.1 232.46 1324.66 228.14Q1329.22 223.82 1337.14 223.82Q1345 223.82 1349.56 228.14Q1354.12 232.46 1354.12 240.56Q1354.12 245.84 1352.02 249.71Q1349.92 253.58 1346.08 255.68Q1342.24 257.78 1337.14 257.78ZM1329.58 240.56Q1329.58 245.18 1331.68 248Q1333.78 250.82 1337.14 250.82Q1340.5 250.82 1342.57 248Q1344.64 245.18 1344.64 240.56Q1344.64 235.76 1342.63 233.27Q1340.62 230.78 1337.14 230.78Q1333.66 230.78 1331.62 233.27Q1329.58 235.76 1329.58 240.56ZM1367.84 257.48Q1362.44 257.48 1359.68 254.45Q1356.92 251.42 1356.92 245.54L1356.92 210.86L1366.52 210.86L1366.52 243.14Q1366.52 245.54 1366.88 246.8Q1367.24 248.06 1368.08 248.72Q1368.74 249.26 1369.55 249.41Q1370.36 249.56 1372.4 249.56L1372.4 257.48L1367.84 257.48Z">
</path>
</g>
<path d="M70.7799 151.843C64.2945 151.843 58.8899 148.59 58.8899 148.59C53.4854 145.336 50.2427 139.913 50.2427 139.913C47 134.49 47 127.982 47 127.982L47 61.3289C47 54.8214 50.2427 49.3984 50.2427 49.3984C53.4854 43.9754 58.8899 40.7216 58.8899 40.7216C64.2945 37.4678 70.7799 37.4678 70.7799 37.4678L139.172 37.4678C145.854 37.4678 151.258 40.7216 151.258 40.7216C156.663 43.9754 159.905 49.3984 159.905 49.3984C163.148 54.8214 163.148 61.3289 163.148 61.3289L163.148 127.982C163.148 134.49 159.905 139.913 159.905 139.913C156.663 145.336 151.258 148.59 151.258 148.59C145.854 151.843 139.172 151.843 139.172 151.843L70.7799 151.843ZM70.7799 135.673L139.172 135.673C142.316 135.673 144.576 133.405 144.576 133.405C146.836 131.137 146.836 127.982 146.836 127.982L146.836 61.3289C146.836 58.1738 144.576 55.906 144.576 55.906C142.316 53.6382 139.172 53.6382 139.172 53.6382L70.7799 53.6382C67.6354 53.6382 65.3754 55.906 65.3754 55.906C63.1153 58.1738 63.1153 61.3289 63.1153 61.3289L63.1153 127.982C63.1153 131.137 65.3754 133.405 65.3754 133.405C67.6354 135.673 70.7799 135.673 70.7799 135.673ZM183.587 197.199L183.587 37.4678L275.955 37.4678C282.441 37.4678 287.845 40.7216 287.845 40.7216C293.25 43.9754 296.492 49.3984 296.492 49.3984C299.735 54.8214 299.735 61.3289 299.735 61.3289L299.735 127.982C299.735 134.49 296.492 139.913 296.492 139.913C293.25 145.336 287.845 148.59 287.845 148.59C282.441 151.843 275.955 151.843 275.955 151.843L199.702 151.843L199.702 197.199L183.587 197.199ZM207.563 135.673L275.955 135.673C279.1 135.673 281.36 133.405 281.36 133.405C283.62 131.137 283.62 127.982 283.62 127.982L283.62 61.3289C283.62 58.1738 281.36 55.906 281.36 55.906C279.1 53.6382 275.955 53.6382 275.955 53.6382L207.563 53.6382C204.419 53.6382 202.061 55.906 202.061 55.906C199.702 58.1738 199.702 61.3289 199.702 61.3289L199.702 127.982C199.702 131.137 202.061 133.405 202.061 133.405C204.419 135.673 207.563 135.673 207.563 135.673ZM337.272 151.843C330.786 151.843 325.382 148.59 325.382 148.59C319.977 145.336 316.735 139.913 316.735 139.913C313.492 134.49 313.492 127.982 313.492 127.982L313.492 61.3289C313.492 54.8214 316.735 49.3984 316.735 49.3984C319.977 43.9754 325.382 40.7216 325.382 40.7216C330.786 37.4678 337.272 37.4678 337.272 37.4678L405.664 37.4678C412.346 37.4678 417.75 40.7216 417.75 40.7216C423.155 43.9754 426.397 49.3984 426.397 49.3984C429.64 54.8214 429.64 61.3289 429.64 61.3289L429.64 102.741L329.607 102.741L329.607 127.982C329.607 131.137 331.867 133.405 331.867 133.405C334.127 135.673 337.272 135.673 337.272 135.673L429.64 135.673L429.64 151.843L337.272 151.843ZM329.607 86.5704L413.328 86.5704L413.328 61.3289C413.328 58.1738 411.068 55.906 411.068 55.906C408.808 53.6382 405.664 53.6382 405.664 53.6382L337.272 53.6382C334.127 53.6382 331.867 55.906 331.867 55.906C329.607 58.1738 329.607 61.3289 329.607 61.3289L329.607 86.5704ZM450.079 151.843L450.079 37.4678L542.447 37.4678C548.933 37.4678 554.337 40.7216 554.337 40.7216C559.742 43.9754 562.984 49.3984 562.984 49.3984C566.227 54.8214 566.227 61.3289 566.227 61.3289L566.227 151.843L550.112 151.843L550.112 61.3289C550.112 58.1738 547.852 55.906 547.852 55.906C545.592 53.6382 542.447 53.6382 542.447 53.6382L474.055 53.6382C470.911 53.6382 468.553 55.906 468.553 55.906C466.194 58.1738 466.194 61.3289 466.194 61.3289L466.194 151.843L450.079 151.843ZM610.446 151.843C603.764 151.843 598.359 148.59 598.359 148.59C592.955 145.336 589.81 139.913 589.81 139.913C586.666 134.49 586.666 127.982 586.666 127.982L586.666 0L602.781 0L602.781 37.4678L652.11 37.4678L652.11 53.6382L602.781 53.6382L602.781 127.982C602.781 131.137 605.041 133.405 605.041 133.405C607.301 135.673 610.446 135.673 610.446 135.673L652.11 135.673L652.11 151.843L610.446 151.843ZM690.629 151.843C684.144 151.843 678.739 148.59 678.739 148.59C673.335 145.336 670.092 139.913 670.092 139.913C666.849 134.49 666.849 127.982 666.849 127.982L666.849 61.3289C666.849 54.8214 670.092 49.3984 670.092 49.3984C673.335 43.9754 678.739 40.7216 678.739 40.7216C684.144 37.4678 690.629 37.4678 690.629 37.4678L759.021 37.4678C765.703 37.4678 771.108 40.7216 771.108 40.7216C776.512 43.9754 779.755 49.3984 779.755 49.3984C782.997 54.8214 782.997 61.3289 782.997 61.3289L782.997 102.741L682.965 102.741L682.965 127.982C682.965 131.137 685.225 133.405 685.225 133.405C687.485 135.673 690.629 135.673 690.629 135.673L782.997 135.673L782.997 151.843L690.629 151.843ZM682.965 86.5704L766.686 86.5704L766.686 61.3289C766.686 58.1738 764.426 55.906 764.426 55.906C762.166 53.6382 759.021 53.6382 759.021 53.6382L690.629 53.6382C687.485 53.6382 685.225 55.906 685.225 55.906C682.965 58.1738 682.965 61.3289 682.965 61.3289L682.965 86.5704ZM803.043 151.843L803.043 61.3289C803.043 54.8214 806.286 49.3984 806.286 49.3984C809.529 43.9754 814.933 40.7216 814.933 40.7216C820.338 37.4678 826.823 37.4678 826.823 37.4678L890.891 37.4678L890.891 53.6382L826.823 53.6382C823.679 53.6382 821.419 55.906 821.419 55.906C819.159 58.1738 819.159 61.3289 819.159 61.3289L819.159 151.843L803.043 151.843ZM903.862 151.843L903.862 23.8611C903.862 17.1563 907.007 11.7334 907.007 11.7334C910.151 6.31037 915.556 3.15519 915.556 3.15519C920.96 0 927.642 0 927.642 0L969.306 0L969.306 16.1703L927.642 16.1703C924.498 16.1703 922.238 18.4381 922.238 18.4381C919.978 20.7059 919.978 23.8611 919.978 23.8611L919.978 37.4678L969.306 37.4678L969.306 53.6382L919.978 53.6382L919.978 151.843L903.862 151.843ZM1007.43 151.843C1000.95 151.843 995.543 148.59 995.543 148.59C990.138 145.336 986.895 139.913 986.895 139.913C983.653 134.49 983.653 127.982 983.653 127.982L983.653 86.5704L1083.49 86.5704L1083.49 61.3289C1083.49 58.1738 1081.23 55.906 1081.23 55.906C1078.97 53.6382 1075.82 53.6382 1075.82 53.6382L983.653 53.6382L983.653 37.4678L1075.82 37.4678C1082.51 37.4678 1087.91 40.7216 1087.91 40.7216C1093.32 43.9754 1096.56 49.3984 1096.56 49.3984C1099.8 54.8214 1099.8 61.3289 1099.8 61.3289L1099.8 151.843L1007.43 151.843ZM1007.43 135.673L1083.49 135.673L1083.49 102.741L999.768 102.741L999.768 127.982C999.768 131.137 1002.03 133.405 1002.03 133.405C1004.29 135.673 1007.43 135.673 1007.43 135.673ZM1143.63 151.843C1137.14 151.843 1131.74 148.59 1131.74 148.59C1126.33 145.336 1123.09 139.913 1123.09 139.913C1119.85 134.49 1119.85 127.982 1119.85 127.982L1119.85 61.3289C1119.85 54.8214 1123.09 49.3984 1123.09 49.3984C1126.33 43.9754 1131.74 40.7216 1131.74 40.7216C1137.14 37.4678 1143.63 37.4678 1143.63 37.4678L1235.6 37.4678L1235.6 53.6382L1143.63 53.6382C1140.48 53.6382 1138.22 55.906 1138.22 55.906C1135.96 58.1738 1135.96 61.3289 1135.96 61.3289L1135.96 127.982C1135.96 131.137 1138.22 133.405 1138.22 133.405C1140.48 135.673 1143.63 135.673 1143.63 135.673L1235.99 135.673L1235.99 151.843L1143.63 151.843ZM1280.21 151.843C1273.73 151.843 1268.32 148.59 1268.32 148.59C1262.92 145.336 1259.68 139.913 1259.68 139.913C1256.43 134.49 1256.43 127.982 1256.43 127.982L1256.43 61.3289C1256.43 54.8214 1259.68 49.3984 1259.68 49.3984C1262.92 43.9754 1268.32 40.7216 1268.32 40.7216C1273.73 37.4678 1280.21 37.4678 1280.21 37.4678L1348.61 37.4678C1355.29 37.4678 1360.69 40.7216 1360.69 40.7216C1366.1 43.9754 1369.34 49.3984 1369.34 49.3984C1372.58 54.8214 1372.58 61.3289 1372.58 61.3289L1372.58 102.741L1272.55 102.741L1272.55 127.982C1272.55 131.137 1274.81 133.405 1274.81 133.405C1277.07 135.673 1280.21 135.673 1280.21 135.673L1372.58 135.673L1372.58 151.843L1280.21 151.843ZM1272.55 86.5704L1356.27 86.5704L1356.27 61.3289C1356.27 58.1738 1354.01 55.906 1354.01 55.906C1351.75 53.6382 1348.61 53.6382 1348.61 53.6382L1280.21 53.6382C1277.07 53.6382 1274.81 55.906 1274.81 55.906C1272.55 58.1738 1272.55 61.3289 1272.55 61.3289L1272.55 86.5704Z" fill-rule="evenodd"  fill="#FFFFFF" >
</path>
</svg>
