<svg xmlns="http://www.w3.org/2000/svg" xmlns:xlink="http://www.w3.org/1999/xlink" width="1325.5816650390625" height="264.919921875" viewBox="0 0 1325.5816650390625 264.919921875" fill="none"><g opacity="1"  transform="translate(0 0)"><g opacity="1"  transform="translate(0 0)"><path id="文本 1" fill-rule="evenodd" style="fill:#FFFFFF" opacity="1" d="M42.4325 222.44L41.8925 222.44L41.8925 257L32.3525 257L32.3525 215L49.5725 215L55.2725 245.06L55.3925 245.66L55.5125 245.06L61.2125 215L78.4325 215L78.4325 257L68.8925 257L68.8925 222.44L68.4125 222.44L61.2125 257L49.5725 257L42.4325 222.44ZM93.4125 224.6L93.4125 257L83.8125 257L83.8125 224.6L93.4125 224.6ZM83.8125 210.86L93.4125 210.86L93.4125 220.46L83.8125 220.46L83.8125 210.86ZM107.793 224.48L107.793 228.38C110.013 226.46 112.863 225.38 112.863 225.38C115.713 224.3 118.533 224.3 118.533 224.3C123.153 224.3 125.883 227 125.883 227C128.613 229.7 128.613 234.02 128.613 234.02L128.613 256.88L119.013 256.88L119.013 235.64C119.013 233.9 117.573 232.79 117.573 232.79C116.133 231.68 114.153 231.68 114.153 231.68C112.893 231.68 111.003 232.52 111.003 232.52C109.113 233.36 107.793 234.56 107.793 234.56L107.793 256.88L98.1925 256.88L98.1925 224.48L107.793 224.48ZM142.993 224.6L142.993 257L133.393 257L133.393 224.6L142.993 224.6ZM133.393 210.86L142.993 210.86L142.993 220.46L133.393 220.46L133.393 210.86ZM167.153 235.1L167.153 242.06L148.733 242.06L148.733 235.1L167.153 235.1ZM199.173 256.94C195.213 250.4 192.633 246.98 192.633 246.98C190.053 243.56 186.213 240.02 186.213 240.02L182.673 240.02L182.673 257L172.773 257L172.773 215L182.673 215L182.673 231.98L184.893 231.98L196.593 215L207.393 215L192.993 235.52C197.853 239.96 201.453 244.7 201.453 244.7C205.053 249.44 209.493 256.94 209.493 256.94L199.173 256.94ZM208.153 215L218.893 215L228.973 250.34L229.213 250.34L239.293 215L250.033 215L237.073 257L221.113 257L208.153 215ZM262.313 222.44L261.773 222.44L261.773 257L252.233 257L252.233 215L269.453 215L275.153 245.06L275.273 245.66L275.393 245.06L281.093 215L298.313 215L298.313 257L288.773 257L288.773 222.44L288.293 222.44L281.093 257L269.453 257L262.313 222.44ZM316.953 224.6L316.953 234.44L307.113 234.44L307.113 224.6L316.953 224.6ZM307.113 247.16L316.953 247.16L316.953 257L307.113 257L307.113 247.16ZM358.826 257.78C352.226 257.78 347.426 255.29 347.426 255.29C342.626 252.8 340.016 248 340.016 248C337.406 243.2 337.406 236.48 337.406 236.48C337.406 229.64 340.016 224.6 340.016 224.6C342.626 219.56 347.456 216.89 347.456 216.89C352.286 214.22 358.826 214.22 358.826 214.22C365.366 214.22 370.166 216.89 370.166 216.89C374.966 219.56 377.576 224.6 377.576 224.6C380.186 229.64 380.186 236.48 380.186 236.48C380.186 243.26 377.576 248.03 377.576 248.03C374.966 252.8 370.226 255.29 370.226 255.29C365.486 257.78 358.826 257.78 358.826 257.78ZM347.906 236.48C347.906 242.96 350.786 246.71 350.786 246.71C353.666 250.46 358.826 250.46 358.826 250.46C363.926 250.46 366.806 246.71 366.806 246.71C369.686 242.96 369.686 236.48 369.686 236.48C369.686 232.22 368.426 228.86 368.426 228.86C367.166 225.5 364.676 223.58 364.676 223.58C362.186 221.66 358.826 221.66 358.826 221.66C355.466 221.66 353.006 223.58 353.006 223.58C350.546 225.5 349.226 228.86 349.226 228.86C347.906 232.22 347.906 236.48 347.906 236.48ZM393.186 224.48L393.186 228.38C395.406 226.46 398.256 225.38 398.256 225.38C401.106 224.3 403.926 224.3 403.926 224.3C408.546 224.3 411.276 227 411.276 227C414.006 229.7 414.006 234.02 414.006 234.02L414.006 256.88L404.406 256.88L404.406 235.64C404.406 233.9 402.966 232.79 402.966 232.79C401.526 231.68 399.546 231.68 399.546 231.68C398.286 231.68 396.396 232.52 396.396 232.52C394.506 233.36 393.186 234.56 393.186 234.56L393.186 256.88L383.586 256.88L383.586 224.48L393.186 224.48ZM447.466 255.26C445.186 256.64 442.156 257.3 442.156 257.3C439.126 257.96 436.306 257.96 436.306 257.96C426.706 257.96 421.756 253.4 421.756 253.4C416.806 248.84 416.806 240.62 416.806 240.62C416.806 232.46 421.216 228.11 421.216 228.11C425.626 223.76 433.246 223.76 433.246 223.76C440.806 223.76 445.216 228.11 445.216 228.11C449.626 232.46 449.626 240.62 449.626 240.62C449.626 241.52 449.506 243.2 449.506 243.2L426.166 243.2C427.486 250.94 436.306 250.94 436.306 250.94C442.486 250.94 447.466 247.28 447.466 247.28L447.466 255.26ZM440.566 236.48C439.786 233.48 437.866 232.04 437.866 232.04C435.946 230.6 433.246 230.6 433.246 230.6C430.726 230.6 428.956 232.1 428.956 232.1C427.186 233.6 426.466 236.48 426.466 236.48L440.566 236.48ZM466.06 215L475.96 215L475.96 257L466.06 257L466.06 215ZM490.34 224.48L490.34 228.38C492.56 226.46 495.41 225.38 495.41 225.38C498.26 224.3 501.08 224.3 501.08 224.3C505.7 224.3 508.43 227 508.43 227C511.16 229.7 511.16 234.02 511.16 234.02L511.16 256.88L501.56 256.88L501.56 235.64C501.56 233.9 500.12 232.79 500.12 232.79C498.68 231.68 496.7 231.68 496.7 231.68C495.44 231.68 493.55 232.52 493.55 232.52C491.66 233.36 490.34 234.56 490.34 234.56L490.34 256.88L480.74 256.88L480.74 224.48L490.34 224.48ZM517.68 224.6L517.68 215.36L526.68 215.36L526.68 224.6L532.92 224.6L532.92 231.92L526.68 231.92L526.68 245.84C526.68 247.58 526.95 248.48 526.95 248.48C527.22 249.38 527.94 249.71 527.94 249.71C528.66 250.04 530.04 250.04 530.04 250.04C530.94 250.04 531.57 249.98 531.57 249.98C532.2 249.92 532.68 249.8 532.68 249.8L532.68 257.18C530.16 257.48 528 257.48 528 257.48C523.86 257.48 521.82 256.64 521.82 256.64C519.78 255.8 518.73 253.73 518.73 253.73C517.68 251.66 517.68 247.82 517.68 247.82L517.68 231.92L513 231.92L513 224.6L517.68 224.6ZM564.58 255.26C562.3 256.64 559.27 257.3 559.27 257.3C556.24 257.96 553.42 257.96 553.42 257.96C543.82 257.96 538.87 253.4 538.87 253.4C533.92 248.84 533.92 240.62 533.92 240.62C533.92 232.46 538.33 228.11 538.33 228.11C542.74 223.76 550.36 223.76 550.36 223.76C557.92 223.76 562.33 228.11 562.33 228.11C566.74 232.46 566.74 240.62 566.74 240.62C566.74 241.52 566.62 243.2 566.62 243.2L543.28 243.2C544.6 250.94 553.42 250.94 553.42 250.94C559.6 250.94 564.58 247.28 564.58 247.28L564.58 255.26ZM557.68 236.48C556.9 233.48 554.98 232.04 554.98 232.04C553.06 230.6 550.36 230.6 550.36 230.6C547.84 230.6 546.07 232.1 546.07 232.1C544.3 233.6 543.58 236.48 543.58 236.48L557.68 236.48ZM579.14 224.6L579.14 228.08C580.7 226.4 582.89 225.47 582.89 225.47C585.08 224.54 587.24 224.54 587.24 224.54C588.74 224.54 590.06 224.96 590.06 224.96L590.06 232.34C588.38 231.92 586.88 231.92 586.88 231.92C584.6 231.92 582.56 232.67 582.56 232.67C580.52 233.42 579.14 235.04 579.14 235.04L579.14 257L569.54 257L569.54 224.6L579.14 224.6ZM595.14 231.92L589.44 231.92L589.44 224.6L595.14 224.6L595.14 220.34C595.14 216.5 596.19 214.43 596.19 214.43C597.24 212.36 599.79 211.52 599.79 211.52C602.34 210.68 606.48 210.68 606.48 210.68C607.74 210.68 609.18 210.77 609.18 210.77C610.62 210.86 611.76 210.98 611.76 210.98L611.76 218.24C611.28 218.12 610.14 218.06 610.14 218.06C609 218 608.1 218 608.1 218C606.72 218 606 218.33 606 218.33C605.28 218.66 605.01 219.56 605.01 219.56C604.74 220.46 604.74 222.2 604.74 222.2L604.74 224.6L612.66 224.6L612.66 231.92L604.74 231.92L604.74 257L595.14 257L595.14 231.92ZM627.82 257.78C623.26 257.78 619.87 255.62 619.87 255.62C616.48 253.46 614.65 249.68 614.65 249.68C612.82 245.9 612.82 240.86 612.82 240.86C612.82 235.88 614.65 232.01 614.65 232.01C616.48 228.14 619.81 225.98 619.81 225.98C623.14 223.82 627.58 223.82 627.58 223.82C629.62 223.82 631.69 224.57 631.69 224.57C633.76 225.32 635.56 226.64 635.56 226.64L635.56 224.6L645.16 224.6L645.16 249.44C645.16 254.3 646.36 257 646.36 257L637.36 257C636.94 256.16 636.64 254.84 636.64 254.84C632.92 257.78 627.82 257.78 627.82 257.78ZM622 240.86C622 243.62 623.11 245.9 623.11 245.9C624.22 248.18 626.05 249.53 626.05 249.53C627.88 250.88 629.92 250.88 629.92 250.88C631.36 250.88 633.16 250.25 633.16 250.25C634.96 249.62 636.28 247.52 636.28 247.52L636.28 234.08C634.96 231.98 633.19 231.38 633.19 231.38C631.42 230.78 629.92 230.78 629.92 230.78C627.88 230.78 626.05 232.1 626.05 232.1C624.22 233.42 623.11 235.73 623.11 235.73C622 238.04 622 240.86 622 240.86ZM676.16 255.92C671.54 257.78 666.68 257.78 666.68 257.78C661.58 257.78 657.29 255.71 657.29 255.71C653 253.64 650.48 249.83 650.48 249.83C647.96 246.02 647.96 241.04 647.96 241.04C647.96 235.82 650.36 231.92 650.36 231.92C652.76 228.02 656.93 225.95 656.93 225.95C661.1 223.88 666.26 223.88 666.26 223.88C670.94 223.88 675.74 225.56 675.74 225.56L675.74 232.94C672.08 231.38 668.24 231.38 668.24 231.38C663.5 231.38 660.38 233.63 660.38 233.63C657.26 235.88 657.26 241.04 657.26 241.04C657.26 243.98 658.88 246.02 658.88 246.02C660.5 248.06 663.08 249.11 663.08 249.11C665.66 250.16 668.54 250.16 668.54 250.16C670.76 250.16 672.77 249.53 672.77 249.53C674.78 248.9 676.16 247.76 676.16 247.76L676.16 255.92ZM708.42 255.26C706.14 256.64 703.11 257.3 703.11 257.3C700.08 257.96 697.26 257.96 697.26 257.96C687.66 257.96 682.71 253.4 682.71 253.4C677.76 248.84 677.76 240.62 677.76 240.62C677.76 232.46 682.17 228.11 682.17 228.11C686.58 223.76 694.2 223.76 694.2 223.76C701.76 223.76 706.17 228.11 706.17 228.11C710.58 232.46 710.58 240.62 710.58 240.62C710.58 241.52 710.46 243.2 710.46 243.2L687.12 243.2C688.44 250.94 697.26 250.94 697.26 250.94C703.44 250.94 708.42 247.28 708.42 247.28L708.42 255.26ZM701.52 236.48C700.74 233.48 698.82 232.04 698.82 232.04C696.9 230.6 694.2 230.6 694.2 230.6C691.68 230.6 689.91 232.1 689.91 232.1C688.14 233.6 687.42 236.48 687.42 236.48L701.52 236.48ZM717.34 247.16L726.04 247.16L719.14 264.92L712.12 264.92L717.34 247.16ZM759.693 257.72C759.033 257.78 757.653 257.78 757.653 257.78C749.553 257.78 743.253 254.3 743.253 254.3L743.253 245.48C746.553 247.52 750.513 248.9 750.513 248.9C754.473 250.28 757.713 250.28 757.713 250.28C760.353 250.28 761.883 248.96 761.883 248.96C763.413 247.64 763.413 245.96 763.413 245.96C763.413 243.62 761.613 241.67 761.613 241.67C759.813 239.72 755.853 238.52 755.853 238.52C751.293 237.08 748.743 235.61 748.743 235.61C746.193 234.14 744.903 231.92 744.903 231.92C743.613 229.7 743.613 226.28 743.613 226.28C743.613 223.04 745.173 220.37 745.173 220.37C746.733 217.7 749.763 216.08 749.763 216.08C752.793 214.46 756.993 214.28 756.993 214.28C757.533 214.22 758.673 214.22 758.673 214.22C761.793 214.22 764.943 214.85 764.943 214.85C768.093 215.48 770.253 216.44 770.253 216.44L770.253 224.18C767.913 223.16 764.793 222.5 764.793 222.5C761.673 221.84 759.273 221.84 759.273 221.84C756.213 221.84 754.593 222.92 754.593 222.92C752.973 224 752.973 225.92 752.973 225.92C752.973 227.66 754.713 229.04 754.713 229.04C756.453 230.42 760.113 231.68 760.113 231.68C764.493 232.94 767.253 234.53 767.253 234.53C770.013 236.12 771.573 238.67 771.573 238.67C773.133 241.22 773.133 245.06 773.133 245.06C773.133 248.72 771.453 251.54 771.453 251.54C769.773 254.36 766.743 255.95 766.743 255.95C763.713 257.54 759.693 257.72 759.693 257.72ZM778.573 224.6L778.573 215.36L787.573 215.36L787.573 224.6L793.813 224.6L793.813 231.92L787.573 231.92L787.573 245.84C787.573 247.58 787.843 248.48 787.843 248.48C788.113 249.38 788.833 249.71 788.833 249.71C789.553 250.04 790.933 250.04 790.933 250.04C791.833 250.04 792.463 249.98 792.463 249.98C793.093 249.92 793.573 249.8 793.573 249.8L793.573 257.18C791.053 257.48 788.893 257.48 788.893 257.48C784.753 257.48 782.713 256.64 782.713 256.64C780.673 255.8 779.623 253.73 779.623 253.73C778.573 251.66 778.573 247.82 778.573 247.82L778.573 231.92L773.893 231.92L773.893 224.6L778.573 224.6ZM809.813 257.78C805.253 257.78 801.863 255.62 801.863 255.62C798.473 253.46 796.643 249.68 796.643 249.68C794.813 245.9 794.813 240.86 794.813 240.86C794.813 235.88 796.643 232.01 796.643 232.01C798.473 228.14 801.803 225.98 801.803 225.98C805.133 223.82 809.573 223.82 809.573 223.82C811.613 223.82 813.683 224.57 813.683 224.57C815.753 225.32 817.553 226.64 817.553 226.64L817.553 224.6L827.153 224.6L827.153 249.44C827.153 254.3 828.353 257 828.353 257L819.353 257C818.933 256.16 818.633 254.84 818.633 254.84C814.913 257.78 809.813 257.78 809.813 257.78ZM803.993 240.86C803.993 243.62 805.103 245.9 805.103 245.9C806.213 248.18 808.043 249.53 808.043 249.53C809.873 250.88 811.913 250.88 811.913 250.88C813.353 250.88 815.153 250.25 815.153 250.25C816.953 249.62 818.273 247.52 818.273 247.52L818.273 234.08C816.953 231.98 815.183 231.38 815.183 231.38C813.413 230.78 811.913 230.78 811.913 230.78C809.873 230.78 808.043 232.1 808.043 232.1C806.213 233.42 805.103 235.73 805.103 235.73C803.993 238.04 803.993 240.86 803.993 240.86ZM848.733 257.78C843.453 257.78 839.673 254.84 839.673 254.84C839.373 256.16 838.953 257 838.953 257L829.953 257C831.153 254.3 831.153 249.5 831.153 249.5L831.153 210.86L840.753 210.86L840.753 226.7C842.553 225.32 844.623 224.6 844.623 224.6C846.693 223.88 848.733 223.88 848.733 223.88C853.173 223.88 856.503 226.04 856.503 226.04C859.833 228.2 861.663 232.07 861.663 232.07C863.493 235.94 863.493 240.92 863.493 240.92C863.493 245.84 861.693 249.68 861.693 249.68C859.893 253.52 856.533 255.65 856.533 255.65C853.173 257.78 848.733 257.78 848.733 257.78ZM839.733 247.1C840.993 249.5 842.913 250.22 842.913 250.22C844.833 250.94 846.393 250.94 846.393 250.94C848.433 250.94 850.263 249.59 850.263 249.59C852.093 248.24 853.203 245.96 853.203 245.96C854.313 243.68 854.313 240.92 854.313 240.92C854.313 238.1 853.203 235.76 853.203 235.76C852.093 233.42 850.263 232.1 850.263 232.1C848.433 230.78 846.393 230.78 846.393 230.78C844.833 230.78 842.913 231.53 842.913 231.53C840.993 232.28 839.733 234.62 839.733 234.62L839.733 247.1ZM877.213 257.48C871.813 257.48 869.053 254.45 869.053 254.45C866.293 251.42 866.293 245.54 866.293 245.54L866.293 210.86L875.893 210.86L875.893 243.14C875.893 245.54 876.253 246.8 876.253 246.8C876.613 248.06 877.453 248.72 877.453 248.72C878.113 249.26 878.923 249.41 878.923 249.41C879.733 249.56 881.773 249.56 881.773 249.56L881.773 257.48L877.213 257.48ZM912.833 255.26C910.553 256.64 907.523 257.3 907.523 257.3C904.493 257.96 901.673 257.96 901.673 257.96C892.073 257.96 887.123 253.4 887.123 253.4C882.173 248.84 882.173 240.62 882.173 240.62C882.173 232.46 886.583 228.11 886.583 228.11C890.993 223.76 898.613 223.76 898.613 223.76C906.173 223.76 910.583 228.11 910.583 228.11C914.993 232.46 914.993 240.62 914.993 240.62C914.993 241.52 914.873 243.2 914.873 243.2L891.533 243.2C892.853 250.94 901.673 250.94 901.673 250.94C907.853 250.94 912.833 247.28 912.833 247.28L912.833 255.26ZM905.933 236.48C905.153 233.48 903.233 232.04 903.233 232.04C901.313 230.6 898.613 230.6 898.613 230.6C896.093 230.6 894.323 232.1 894.323 232.1C892.553 233.6 891.833 236.48 891.833 236.48L905.933 236.48ZM931.247 215L959.087 215L959.087 223.1L941.147 223.1L941.147 232.22L956.627 232.22L956.627 239.78L941.147 239.78L941.147 257L931.247 257L931.247 215ZM975.687 257.78C971.127 257.78 967.737 255.62 967.737 255.62C964.347 253.46 962.517 249.68 962.517 249.68C960.687 245.9 960.687 240.86 960.687 240.86C960.687 235.88 962.517 232.01 962.517 232.01C964.347 228.14 967.677 225.98 967.677 225.98C971.007 223.82 975.447 223.82 975.447 223.82C977.487 223.82 979.557 224.57 979.557 224.57C981.627 225.32 983.427 226.64 983.427 226.64L983.427 224.6L993.027 224.6L993.027 249.44C993.027 254.3 994.227 257 994.227 257L985.227 257C984.807 256.16 984.507 254.84 984.507 254.84C980.787 257.78 975.687 257.78 975.687 257.78ZM969.867 240.86C969.867 243.62 970.977 245.9 970.977 245.9C972.087 248.18 973.917 249.53 973.917 249.53C975.747 250.88 977.787 250.88 977.787 250.88C979.227 250.88 981.027 250.25 981.027 250.25C982.827 249.62 984.147 247.52 984.147 247.52L984.147 234.08C982.827 231.98 981.057 231.38 981.057 231.38C979.287 230.78 977.787 230.78 977.787 230.78C975.747 230.78 973.917 232.1 973.917 232.1C972.087 233.42 970.977 235.73 970.977 235.73C969.867 238.04 969.867 240.86 969.867 240.86ZM1010.05 257.72C1006.39 257.9 1002.64 257.15 1002.64 257.15C998.887 256.4 996.127 254.84 996.127 254.84L996.127 246.2C998.587 248 1002.04 249.17 1002.04 249.17C1005.49 250.34 1008.13 250.16 1008.13 250.16C1009.99 250.04 1010.83 249.35 1010.83 249.35C1011.67 248.66 1011.79 247.94 1011.79 247.94C1012.09 246.08 1010.89 245.12 1010.89 245.12C1009.69 244.16 1006.39 243.26 1006.39 243.26C1002.73 242.24 1000.57 240.89 1000.57 240.89C998.407 239.54 997.297 237.83 997.297 237.83C996.187 236.12 996.187 233.48 996.187 233.48C996.187 230.72 997.627 228.53 997.627 228.53C999.067 226.34 1002.19 225.08 1002.19 225.08C1005.31 223.82 1008.91 223.82 1008.91 223.82C1011.61 223.82 1014.37 224.33 1014.37 224.33C1017.13 224.84 1018.99 225.68 1018.99 225.68L1018.99 233.42C1017.07 232.46 1014.46 231.71 1014.46 231.71C1011.85 230.96 1009.93 230.96 1009.93 230.96C1005.85 230.96 1005.49 233.12 1005.49 233.12C1005.31 234.38 1006.66 235.34 1006.66 235.34C1008.01 236.3 1010.53 237.08 1010.53 237.08C1014.13 238.22 1016.44 239.42 1016.44 239.42C1018.75 240.62 1020.07 242.54 1020.07 242.54C1021.39 244.46 1021.39 247.46 1021.39 247.46C1021.39 251.9 1018.21 254.69 1018.21 254.69C1015.03 257.48 1010.05 257.72 1010.05 257.72ZM1026.29 224.6L1026.29 215.36L1035.29 215.36L1035.29 224.6L1041.53 224.6L1041.53 231.92L1035.29 231.92L1035.29 245.84C1035.29 247.58 1035.56 248.48 1035.56 248.48C1035.83 249.38 1036.55 249.71 1036.55 249.71C1037.27 250.04 1038.65 250.04 1038.65 250.04C1039.55 250.04 1040.18 249.98 1040.18 249.98C1040.81 249.92 1041.29 249.8 1041.29 249.8L1041.29 257.18C1038.77 257.48 1036.61 257.48 1036.61 257.48C1032.47 257.48 1030.43 256.64 1030.43 256.64C1028.39 255.8 1027.34 253.73 1027.34 253.73C1026.29 251.66 1026.29 247.82 1026.29 247.82L1026.29 231.92L1021.61 231.92L1021.61 224.6L1026.29 224.6ZM1047.69 247.16L1056.39 247.16L1049.49 264.92L1042.47 264.92L1047.69 247.16ZM1097.24 257.78C1090.4 257.78 1085.09 255.26 1085.09 255.26C1079.78 252.74 1076.75 247.94 1076.75 247.94C1073.72 243.14 1073.72 236.54 1073.72 236.54C1073.72 229.58 1076.66 224.57 1076.66 224.57C1079.6 219.56 1084.88 216.89 1084.88 216.89C1090.16 214.22 1096.94 214.22 1096.94 214.22C1100.3 214.22 1103.72 214.88 1103.72 214.88C1107.14 215.54 1109.36 216.56 1109.36 216.56L1109.36 224C1103.3 221.78 1098.08 221.78 1098.08 221.78C1091.84 221.78 1087.97 225.44 1087.97 225.44C1084.1 229.1 1084.1 236.54 1084.1 236.54C1084.1 240.5 1086.02 243.53 1086.02 243.53C1087.94 246.56 1091.06 248.24 1091.06 248.24C1094.18 249.92 1097.78 250.16 1097.78 250.16L1099.1 250.22C1101.86 250.22 1104.56 249.44 1104.56 249.44C1107.26 248.66 1109.36 247.34 1109.36 247.34L1109.36 255.62C1106.78 256.82 1103.87 257.3 1103.87 257.3C1100.96 257.78 1097.24 257.78 1097.24 257.78ZM1122.96 224.6L1122.96 228.08C1124.52 226.4 1126.71 225.47 1126.71 225.47C1128.9 224.54 1131.06 224.54 1131.06 224.54C1132.56 224.54 1133.88 224.96 1133.88 224.96L1133.88 232.34C1132.2 231.92 1130.7 231.92 1130.7 231.92C1128.42 231.92 1126.38 232.67 1126.38 232.67C1124.34 233.42 1122.96 235.04 1122.96 235.04L1122.96 257L1113.36 257L1113.36 224.6L1122.96 224.6ZM1151.68 257.78C1146.58 257.78 1142.71 255.68 1142.71 255.68C1138.84 253.58 1136.74 249.71 1136.74 249.71C1134.64 245.84 1134.64 240.56 1134.64 240.56C1134.64 232.46 1139.2 228.14 1139.2 228.14C1143.76 223.82 1151.68 223.82 1151.68 223.82C1159.54 223.82 1164.1 228.14 1164.1 228.14C1168.66 232.46 1168.66 240.56 1168.66 240.56C1168.66 245.84 1166.56 249.71 1166.56 249.71C1164.46 253.58 1160.62 255.68 1160.62 255.68C1156.78 257.78 1151.68 257.78 1151.68 257.78ZM1144.12 240.56C1144.12 245.18 1146.22 248 1146.22 248C1148.32 250.82 1151.68 250.82 1151.68 250.82C1155.04 250.82 1157.11 248 1157.11 248C1159.18 245.18 1159.18 240.56 1159.18 240.56C1159.18 235.76 1157.17 233.27 1157.17 233.27C1155.16 230.78 1151.68 230.78 1151.68 230.78C1148.2 230.78 1146.16 233.27 1146.16 233.27C1144.12 235.76 1144.12 240.56 1144.12 240.56ZM1184.48 257.72C1180.82 257.9 1177.07 257.15 1177.07 257.15C1173.32 256.4 1170.56 254.84 1170.56 254.84L1170.56 246.2C1173.02 248 1176.47 249.17 1176.47 249.17C1179.92 250.34 1182.56 250.16 1182.56 250.16C1184.42 250.04 1185.26 249.35 1185.26 249.35C1186.1 248.66 1186.22 247.94 1186.22 247.94C1186.52 246.08 1185.32 245.12 1185.32 245.12C1184.12 244.16 1180.82 243.26 1180.82 243.26C1177.16 242.24 1175 240.89 1175 240.89C1172.84 239.54 1171.73 237.83 1171.73 237.83C1170.62 236.12 1170.62 233.48 1170.62 233.48C1170.62 230.72 1172.06 228.53 1172.06 228.53C1173.5 226.34 1176.62 225.08 1176.62 225.08C1179.74 223.82 1183.34 223.82 1183.34 223.82C1186.04 223.82 1188.8 224.33 1188.8 224.33C1191.56 224.84 1193.42 225.68 1193.42 225.68L1193.42 233.42C1191.5 232.46 1188.89 231.71 1188.89 231.71C1186.28 230.96 1184.36 230.96 1184.36 230.96C1180.28 230.96 1179.92 233.12 1179.92 233.12C1179.74 234.38 1181.09 235.34 1181.09 235.34C1182.44 236.3 1184.96 237.08 1184.96 237.08C1188.56 238.22 1190.87 239.42 1190.87 239.42C1193.18 240.62 1194.5 242.54 1194.5 242.54C1195.82 244.46 1195.82 247.46 1195.82 247.46C1195.82 251.9 1192.64 254.69 1192.64 254.69C1189.46 257.48 1184.48 257.72 1184.48 257.72ZM1211.22 257.72C1207.56 257.9 1203.81 257.15 1203.81 257.15C1200.06 256.4 1197.3 254.84 1197.3 254.84L1197.3 246.2C1199.76 248 1203.21 249.17 1203.21 249.17C1206.66 250.34 1209.3 250.16 1209.3 250.16C1211.16 250.04 1212 249.35 1212 249.35C1212.84 248.66 1212.96 247.94 1212.96 247.94C1213.26 246.08 1212.06 245.12 1212.06 245.12C1210.86 244.16 1207.56 243.26 1207.56 243.26C1203.9 242.24 1201.74 240.89 1201.74 240.89C1199.58 239.54 1198.47 237.83 1198.47 237.83C1197.36 236.12 1197.36 233.48 1197.36 233.48C1197.36 230.72 1198.8 228.53 1198.8 228.53C1200.24 226.34 1203.36 225.08 1203.36 225.08C1206.48 223.82 1210.08 223.82 1210.08 223.82C1212.78 223.82 1215.54 224.33 1215.54 224.33C1218.3 224.84 1220.16 225.68 1220.16 225.68L1220.16 233.42C1218.24 232.46 1215.63 231.71 1215.63 231.71C1213.02 230.96 1211.1 230.96 1211.1 230.96C1207.02 230.96 1206.66 233.12 1206.66 233.12C1206.48 234.38 1207.83 235.34 1207.83 235.34C1209.18 236.3 1211.7 237.08 1211.7 237.08C1215.3 238.22 1217.61 239.42 1217.61 239.42C1219.92 240.62 1221.24 242.54 1221.24 242.54C1222.56 244.46 1222.56 247.46 1222.56 247.46C1222.56 251.9 1219.38 254.69 1219.38 254.69C1216.2 257.48 1211.22 257.72 1211.22 257.72ZM1244.32 235.1L1244.32 242.06L1225.9 242.06L1225.9 235.1L1244.32 235.1ZM1270.16 257.78C1263.56 257.78 1258.76 255.29 1258.76 255.29C1253.96 252.8 1251.35 248 1251.35 248C1248.74 243.2 1248.74 236.48 1248.74 236.48C1248.74 229.64 1251.35 224.6 1251.35 224.6C1253.96 219.56 1258.79 216.89 1258.79 216.89C1263.62 214.22 1270.16 214.22 1270.16 214.22C1276.7 214.22 1281.5 216.89 1281.5 216.89C1286.3 219.56 1288.91 224.6 1288.91 224.6C1291.52 229.64 1291.52 236.48 1291.52 236.48C1291.52 243.26 1288.91 248.03 1288.91 248.03C1286.3 252.8 1281.56 255.29 1281.56 255.29C1276.82 257.78 1270.16 257.78 1270.16 257.78ZM1259.24 236.48C1259.24 242.96 1262.12 246.71 1262.12 246.71C1265 250.46 1270.16 250.46 1270.16 250.46C1275.26 250.46 1278.14 246.71 1278.14 246.71C1281.02 242.96 1281.02 236.48 1281.02 236.48C1281.02 232.22 1279.76 228.86 1279.76 228.86C1278.5 225.5 1276.01 223.58 1276.01 223.58C1273.52 221.66 1270.16 221.66 1270.16 221.66C1266.8 221.66 1264.34 223.58 1264.34 223.58C1261.88 225.5 1260.56 228.86 1260.56 228.86C1259.24 232.22 1259.24 236.48 1259.24 236.48ZM1310.64 257.72C1309.98 257.78 1308.6 257.78 1308.6 257.78C1300.5 257.78 1294.2 254.3 1294.2 254.3L1294.2 245.48C1297.5 247.52 1301.46 248.9 1301.46 248.9C1305.42 250.28 1308.66 250.28 1308.66 250.28C1311.3 250.28 1312.83 248.96 1312.83 248.96C1314.36 247.64 1314.36 245.96 1314.36 245.96C1314.36 243.62 1312.56 241.67 1312.56 241.67C1310.76 239.72 1306.8 238.52 1306.8 238.52C1302.24 237.08 1299.69 235.61 1299.69 235.61C1297.14 234.14 1295.85 231.92 1295.85 231.92C1294.56 229.7 1294.56 226.28 1294.56 226.28C1294.56 223.04 1296.12 220.37 1296.12 220.37C1297.68 217.7 1300.71 216.08 1300.71 216.08C1303.74 214.46 1307.94 214.28 1307.94 214.28C1308.48 214.22 1309.62 214.22 1309.62 214.22C1312.74 214.22 1315.89 214.85 1315.89 214.85C1319.04 215.48 1321.2 216.44 1321.2 216.44L1321.2 224.18C1318.86 223.16 1315.74 222.5 1315.74 222.5C1312.62 221.84 1310.22 221.84 1310.22 221.84C1307.16 221.84 1305.54 222.92 1305.54 222.92C1303.92 224 1303.92 225.92 1303.92 225.92C1303.92 227.66 1305.66 229.04 1305.66 229.04C1307.4 230.42 1311.06 231.68 1311.06 231.68C1315.44 232.94 1318.2 234.53 1318.2 234.53C1320.96 236.12 1322.52 238.67 1322.52 238.67C1324.08 241.22 1324.08 245.06 1324.08 245.06C1324.08 248.72 1322.4 251.54 1322.4 251.54C1320.72 254.36 1317.69 255.95 1317.69 255.95C1314.66 257.54 1310.64 257.72 1310.64 257.72Z"></path><path id="文本 1" fill-rule="evenodd" style="fill:#FFFFFF" opacity="1" d="M23.7799 151.843C17.2945 151.843 11.8899 148.59 11.8899 148.59C6.48543 145.336 3.24271 139.913 3.24271 139.913C0 134.49 0 127.982 0 127.982L0 61.3289C0 54.8214 3.24271 49.3984 3.24271 49.3984C6.48543 43.9754 11.8899 40.7216 11.8899 40.7216C17.2945 37.4678 23.7799 37.4678 23.7799 37.4678L92.1717 37.4678C98.8536 37.4678 104.258 40.7216 104.258 40.7216C109.663 43.9754 112.905 49.3984 112.905 49.3984C116.148 54.8214 116.148 61.3289 116.148 61.3289L116.148 127.982C116.148 134.49 112.905 139.913 112.905 139.913C109.663 145.336 104.258 148.59 104.258 148.59C98.8536 151.843 92.1717 151.843 92.1717 151.843L23.7799 151.843ZM23.7799 135.673L92.1717 135.673C95.3161 135.673 97.5762 133.405 97.5762 133.405C99.8362 131.137 99.8362 127.982 99.8362 127.982L99.8362 61.3289C99.8362 58.1738 97.5762 55.906 97.5762 55.906C95.3161 53.6382 92.1717 53.6382 92.1717 53.6382L23.7799 53.6382C20.6354 53.6382 18.3754 55.906 18.3754 55.906C16.1153 58.1738 16.1153 61.3289 16.1153 61.3289L16.1153 127.982C16.1153 131.137 18.3754 133.405 18.3754 133.405C20.6354 135.673 23.7799 135.673 23.7799 135.673ZM136.587 197.199L136.587 37.4678L228.955 37.4678C235.441 37.4678 240.845 40.7216 240.845 40.7216C246.25 43.9754 249.492 49.3984 249.492 49.3984C252.735 54.8214 252.735 61.3289 252.735 61.3289L252.735 127.982C252.735 134.49 249.492 139.913 249.492 139.913C246.25 145.336 240.845 148.59 240.845 148.59C235.441 151.843 228.955 151.843 228.955 151.843L152.702 151.843L152.702 197.199L136.587 197.199ZM160.563 135.673L228.955 135.673C232.1 135.673 234.36 133.405 234.36 133.405C236.62 131.137 236.62 127.982 236.62 127.982L236.62 61.3289C236.62 58.1738 234.36 55.906 234.36 55.906C232.1 53.6382 228.955 53.6382 228.955 53.6382L160.563 53.6382C157.419 53.6382 155.061 55.906 155.061 55.906C152.702 58.1738 152.702 61.3289 152.702 61.3289L152.702 127.982C152.702 131.137 155.061 133.405 155.061 133.405C157.419 135.673 160.563 135.673 160.563 135.673ZM290.272 151.843C283.786 151.843 278.382 148.59 278.382 148.59C272.977 145.336 269.735 139.913 269.735 139.913C266.492 134.49 266.492 127.982 266.492 127.982L266.492 61.3289C266.492 54.8214 269.735 49.3984 269.735 49.3984C272.977 43.9754 278.382 40.7216 278.382 40.7216C283.786 37.4678 290.272 37.4678 290.272 37.4678L358.664 37.4678C365.346 37.4678 370.75 40.7216 370.75 40.7216C376.155 43.9754 379.397 49.3984 379.397 49.3984C382.64 54.8214 382.64 61.3289 382.64 61.3289L382.64 102.741L282.607 102.741L282.607 127.982C282.607 131.137 284.867 133.405 284.867 133.405C287.127 135.673 290.272 135.673 290.272 135.673L382.64 135.673L382.64 151.843L290.272 151.843ZM282.607 86.5704L366.328 86.5704L366.328 61.3289C366.328 58.1738 364.068 55.906 364.068 55.906C361.808 53.6382 358.664 53.6382 358.664 53.6382L290.272 53.6382C287.127 53.6382 284.867 55.906 284.867 55.906C282.607 58.1738 282.607 61.3289 282.607 61.3289L282.607 86.5704ZM403.079 151.843L403.079 37.4678L495.447 37.4678C501.933 37.4678 507.337 40.7216 507.337 40.7216C512.742 43.9754 515.984 49.3984 515.984 49.3984C519.227 54.8214 519.227 61.3289 519.227 61.3289L519.227 151.843L503.112 151.843L503.112 61.3289C503.112 58.1738 500.852 55.906 500.852 55.906C498.592 53.6382 495.447 53.6382 495.447 53.6382L427.055 53.6382C423.911 53.6382 421.553 55.906 421.553 55.906C419.194 58.1738 419.194 61.3289 419.194 61.3289L419.194 151.843L403.079 151.843ZM563.446 151.843C556.764 151.843 551.359 148.59 551.359 148.59C545.955 145.336 542.81 139.913 542.81 139.913C539.666 134.49 539.666 127.982 539.666 127.982L539.666 0L555.781 0L555.781 37.4678L605.11 37.4678L605.11 53.6382L555.781 53.6382L555.781 127.982C555.781 131.137 558.041 133.405 558.041 133.405C560.301 135.673 563.446 135.673 563.446 135.673L605.11 135.673L605.11 151.843L563.446 151.843ZM643.629 151.843C637.144 151.843 631.739 148.59 631.739 148.59C626.335 145.336 623.092 139.913 623.092 139.913C619.849 134.49 619.849 127.982 619.849 127.982L619.849 61.3289C619.849 54.8214 623.092 49.3984 623.092 49.3984C626.335 43.9754 631.739 40.7216 631.739 40.7216C637.144 37.4678 643.629 37.4678 643.629 37.4678L712.021 37.4678C718.703 37.4678 724.108 40.7216 724.108 40.7216C729.512 43.9754 732.755 49.3984 732.755 49.3984C735.997 54.8214 735.997 61.3289 735.997 61.3289L735.997 102.741L635.965 102.741L635.965 127.982C635.965 131.137 638.225 133.405 638.225 133.405C640.485 135.673 643.629 135.673 643.629 135.673L735.997 135.673L735.997 151.843L643.629 151.843ZM635.965 86.5704L719.686 86.5704L719.686 61.3289C719.686 58.1738 717.426 55.906 717.426 55.906C715.166 53.6382 712.021 53.6382 712.021 53.6382L643.629 53.6382C640.485 53.6382 638.225 55.906 638.225 55.906C635.965 58.1738 635.965 61.3289 635.965 61.3289L635.965 86.5704ZM756.043 151.843L756.043 61.3289C756.043 54.8214 759.286 49.3984 759.286 49.3984C762.529 43.9754 767.933 40.7216 767.933 40.7216C773.338 37.4678 779.823 37.4678 779.823 37.4678L843.891 37.4678L843.891 53.6382L779.823 53.6382C776.679 53.6382 774.419 55.906 774.419 55.906C772.159 58.1738 772.159 61.3289 772.159 61.3289L772.159 151.843L756.043 151.843ZM856.862 151.843L856.862 23.8611C856.862 17.1563 860.007 11.7334 860.007 11.7334C863.151 6.31037 868.556 3.15519 868.556 3.15519C873.96 0 880.642 0 880.642 0L922.306 0L922.306 16.1703L880.642 16.1703C877.498 16.1703 875.238 18.4381 875.238 18.4381C872.978 20.7059 872.978 23.8611 872.978 23.8611L872.978 37.4678L922.306 37.4678L922.306 53.6382L872.978 53.6382L872.978 151.843L856.862 151.843ZM960.433 151.843C953.947 151.843 948.543 148.59 948.543 148.59C943.138 145.336 939.895 139.913 939.895 139.913C936.653 134.49 936.653 127.982 936.653 127.982L936.653 86.5704L1036.49 86.5704L1036.49 61.3289C1036.49 58.1738 1034.23 55.906 1034.23 55.906C1031.97 53.6382 1028.82 53.6382 1028.82 53.6382L936.653 53.6382L936.653 37.4678L1028.82 37.4678C1035.51 37.4678 1040.91 40.7216 1040.91 40.7216C1046.32 43.9754 1049.56 49.3984 1049.56 49.3984C1052.8 54.8214 1052.8 61.3289 1052.8 61.3289L1052.8 151.843L960.433 151.843ZM960.433 135.673L1036.49 135.673L1036.49 102.741L952.768 102.741L952.768 127.982C952.768 131.137 955.028 133.405 955.028 133.405C957.288 135.673 960.433 135.673 960.433 135.673ZM1096.63 151.843C1090.14 151.843 1084.74 148.59 1084.74 148.59C1079.33 145.336 1076.09 139.913 1076.09 139.913C1072.85 134.49 1072.85 127.982 1072.85 127.982L1072.85 61.3289C1072.85 54.8214 1076.09 49.3984 1076.09 49.3984C1079.33 43.9754 1084.74 40.7216 1084.74 40.7216C1090.14 37.4678 1096.63 37.4678 1096.63 37.4678L1188.6 37.4678L1188.6 53.6382L1096.63 53.6382C1093.48 53.6382 1091.22 55.906 1091.22 55.906C1088.96 58.1738 1088.96 61.3289 1088.96 61.3289L1088.96 127.982C1088.96 131.137 1091.22 133.405 1091.22 133.405C1093.48 135.673 1096.63 135.673 1096.63 135.673L1188.99 135.673L1188.99 151.843L1096.63 151.843ZM1233.21 151.843C1226.73 151.843 1221.32 148.59 1221.32 148.59C1215.92 145.336 1212.68 139.913 1212.68 139.913C1209.43 134.49 1209.43 127.982 1209.43 127.982L1209.43 61.3289C1209.43 54.8214 1212.68 49.3984 1212.68 49.3984C1215.92 43.9754 1221.32 40.7216 1221.32 40.7216C1226.73 37.4678 1233.21 37.4678 1233.21 37.4678L1301.61 37.4678C1308.29 37.4678 1313.69 40.7216 1313.69 40.7216C1319.1 43.9754 1322.34 49.3984 1322.34 49.3984C1325.58 54.8214 1325.58 61.3289 1325.58 61.3289L1325.58 102.741L1225.55 102.741L1225.55 127.982C1225.55 131.137 1227.81 133.405 1227.81 133.405C1230.07 135.673 1233.21 135.673 1233.21 135.673L1325.58 135.673L1325.58 151.843L1233.21 151.843ZM1225.55 86.5704L1309.27 86.5704L1309.27 61.3289C1309.27 58.1738 1307.01 55.906 1307.01 55.906C1304.75 53.6382 1301.61 53.6382 1301.61 53.6382L1233.21 53.6382C1230.07 53.6382 1227.81 55.906 1227.81 55.906C1225.55 58.1738 1225.55 61.3289 1225.55 61.3289L1225.55 86.5704Z"></path></g></g></svg>