<?xml version="1.0" encoding="UTF-8"?>
<svg id="_图层_2" data-name="图层 2" xmlns="http://www.w3.org/2000/svg" width="16.91mm" height="3.39mm" viewBox="0 0 47.94 9.6">
  <defs>
    <style>
      .cls-1 {
        fill: #020c08;
        fill-rule: evenodd;
        isolation: isolate;
        opacity: .8;
        stroke-width: 0px;
      }
    </style>
  </defs>
  <g id="_图层_1-2" data-name="图层 1">
    <g>
      <path id="_减去顶层" data-name="减去顶层" class="cls-1" d="M0,4.8C0,2.15,2.15,0,4.8,0c2.65,0,4.8,2.15,4.8,4.8s-2.15,4.8-4.8,4.8S0,7.45,0,4.8ZM7.1,3.42c.14.14.36.14.49,0,.14-.14.14-.36,0-.49l-1.39-1.39c-.14-.14-.36-.14-.49,0l-1.39,1.39c-.14.14-.14.36,0,.49.14.14.36.14.49,0l.8-.8v3.33c0,.19.16.35.35.35s.35-.16.35-.35v-3.33s.8.8.8.8ZM3.42,7.6l1.39-1.39c.14-.14.14-.36,0-.49-.14-.14-.36-.14-.49,0l-.8.8v-3.33c0-.19-.16-.35-.35-.35s-.35.16-.35.35v3.33s-.8-.8-.8-.8c-.14-.14-.36-.14-.49,0-.14.14-.14.36,0,.49l1.39,1.39c.14.14.36.14.49,0Z"/>
      <path id="_路径_1" data-name="路径 1" class="cls-1" d="M29.54,4.62l-2.54-1.52s-.02-.01-.04-.02c-.01,0-.03-.01-.04-.01-.01,0-.03,0-.04,0-.01,0-.03,0-.04,0-.01,0-.03,0-.04,0-.01,0-.03,0-.04,0-.01,0-.03,0-.04.01-.01,0-.03.01-.04.02-.01,0-.02.01-.04.02-.01,0-.02.02-.03.03-.01,0-.02.02-.03.03,0,.01-.02.02-.02.04,0,.01-.01.02-.02.04,0,.01-.01.03-.01.04,0,.01,0,.03,0,.04,0,.01,0,.03,0,.04v1.08h-7.53s1.62-2.58,1.62-2.58c.03-.05.07-.1.11-.14.04-.04.09-.08.14-.11.05-.03.11-.05.16-.07.06-.01.12-.02.17-.02h.75c.02.05.04.11.07.16.03.05.06.1.09.14.03.05.07.09.11.13.04.04.08.08.13.11.05.03.09.06.14.09.05.03.1.05.16.06.05.02.11.03.16.04.06,0,.11.01.17.01.04,0,.07,0,.11-.01.04,0,.07-.01.11-.02.03,0,.07-.02.1-.03.03-.01.07-.03.1-.04.03-.02.06-.03.1-.05.03-.02.06-.04.09-.06.03-.02.06-.04.08-.07.03-.02.05-.05.08-.07.02-.03.05-.05.07-.08.02-.03.04-.06.06-.09.02-.03.04-.06.05-.09.02-.03.03-.06.04-.1.01-.03.02-.07.03-.1,0-.03.02-.07.03-.1,0-.04.01-.07.02-.11s0-.07,0-.11,0-.07,0-.11c0-.04,0-.07-.02-.11,0-.04-.02-.07-.03-.1,0-.03-.02-.07-.03-.1-.01-.03-.03-.07-.04-.1-.02-.03-.03-.06-.05-.09-.02-.03-.04-.06-.06-.09-.02-.03-.05-.06-.07-.08-.02-.03-.05-.05-.08-.07-.03-.02-.05-.05-.08-.07-.03-.02-.06-.04-.09-.06-.03-.02-.06-.04-.1-.05-.03-.02-.07-.03-.1-.04-.03-.01-.07-.02-.1-.03-.03,0-.07-.02-.11-.02-.04,0-.07,0-.11-.01-.05,0-.1,0-.15.01-.05,0-.1.02-.15.03-.05.01-.1.03-.14.05-.05.02-.09.04-.13.07-.04.03-.08.06-.12.09-.04.03-.08.07-.11.11-.03.04-.07.08-.09.12-.03.04-.05.09-.08.13h-.81c-.07,0-.14,0-.21.01-.07,0-.14.02-.2.04-.07.02-.13.04-.2.06-.06.03-.13.05-.19.09-.06.03-.12.07-.17.11-.06.04-.11.08-.16.13-.05.05-.1.1-.14.15-.04.05-.08.11-.12.17l-1.91,3.07h-.65s-.02-.06-.03-.09c-.01-.03-.02-.06-.04-.09-.01-.03-.03-.06-.04-.08-.02-.03-.03-.05-.05-.08s-.03-.05-.05-.08c-.02-.03-.04-.05-.06-.07-.02-.02-.04-.05-.06-.07-.02-.02-.04-.05-.07-.07-.02-.02-.05-.04-.07-.06-.02-.02-.05-.04-.07-.06-.03-.02-.05-.04-.08-.05-.03-.02-.05-.03-.08-.05-.03-.02-.05-.03-.08-.04-.03-.01-.06-.03-.09-.04-.03-.01-.06-.02-.09-.03-.03-.01-.06-.02-.09-.03-.03,0-.06-.02-.09-.02-.03,0-.06-.01-.09-.02-.03,0-.06,0-.09-.01-.03,0-.06,0-.09,0-.03,0-.06,0-.09,0-.03,0-.06,0-.09,0-.03,0-.06,0-.09,0-.03,0-.06,0-.09.01-.03,0-.06.01-.09.02-.03,0-.06.02-.09.03-.03,0-.06.02-.09.03-.03.01-.06.02-.09.04-.03.01-.06.03-.08.04-.03.01-.06.03-.08.05-.03.02-.05.03-.08.05-.03.02-.05.04-.08.06-.02.02-.05.04-.07.06-.02.02-.05.04-.07.06-.02.02-.04.04-.07.07-.02.02-.04.05-.06.07-.02.02-.04.05-.06.08-.02.03-.04.05-.05.08-.02.03-.03.05-.05.08-.01.03-.03.06-.04.08-.01.03-.03.06-.04.09-.01.03-.02.06-.03.09,0,.03-.02.06-.03.09,0,.03-.02.06-.02.09,0,.03-.01.06-.02.09,0,.03,0,.06-.01.09,0,.03,0,.06,0,.09,0,.03,0,.06,0,.09,0,.03,0,.06,0,.09,0,.03,0,.06.01.09,0,.03.01.06.02.09,0,.03.01.06.02.09,0,.03.02.06.03.09.01.03.02.06.03.09.01.03.03.06.04.09.01.03.03.06.04.08.02.03.03.05.05.08.02.03.03.05.05.08.02.03.04.05.06.07.02.02.04.05.06.07.02.02.04.05.07.07.02.02.05.04.07.06.02.02.05.04.07.06.03.02.05.04.08.05.03.02.05.03.08.05.03.02.06.03.08.04.03.01.06.03.09.04.03.01.06.02.09.03.03.01.06.02.09.03.03,0,.06.02.09.02.03,0,.06.01.09.02.03,0,.06,0,.09.01s.06,0,.09,0c.03,0,.06,0,.09,0,.03,0,.06,0,.09,0,.03,0,.06,0,.09,0,.03,0,.06,0,.09-.02.03,0,.06-.01.09-.02.03,0,.06-.02.09-.03.03,0,.06-.02.09-.03.03-.01.06-.02.09-.04.03-.01.06-.03.08-.04.03-.01.06-.03.08-.05.03-.02.05-.03.08-.05.03-.02.05-.04.08-.06.02-.02.05-.04.07-.06.02-.02.05-.04.07-.06.02-.02.04-.05.06-.07.02-.02.04-.05.06-.07.02-.02.04-.05.06-.08.02-.03.04-.05.05-.08.02-.03.03-.05.05-.08.01-.03.03-.06.04-.08.01-.03.03-.06.04-.09.01-.03.02-.06.03-.09,0-.03.02-.06.03-.09h2.6s1.91,3.05,1.91,3.05c.04.06.08.11.12.17.04.05.09.1.14.15.05.05.1.09.16.13.06.04.11.08.17.11.06.03.12.06.19.09.06.03.13.05.2.06.07.02.13.03.2.04.07,0,.14.01.21.01h1.19v.42s2.02,0,2.02,0v-2.02s-2.02,0-2.02,0v.68h-1.19c-.06,0-.12,0-.17-.02-.06-.02-.11-.04-.16-.07-.05-.03-.1-.06-.14-.11-.04-.04-.08-.09-.11-.14l-1.61-2.56h5.52v1.05s0,.06.01.08c0,.03.02.05.03.08.01.02.03.05.05.07.02.02.04.04.07.05.05.03.1.04.16.04.06,0,.11-.01.17-.05l2.54-1.52s.02-.01.03-.02c.01,0,.02-.02.03-.03,0,0,.02-.02.03-.03,0-.01.02-.02.02-.03,0-.01.01-.02.02-.04,0-.01,0-.03.01-.04,0-.01,0-.03,0-.04,0-.01,0-.03,0-.04s0-.03,0-.04c0-.01,0-.03,0-.04,0-.01,0-.03-.01-.04,0-.01-.01-.03-.02-.04,0-.01-.01-.02-.02-.03,0-.01-.02-.02-.03-.03,0,0-.02-.02-.03-.03-.01,0-.02-.02-.03-.02h.01Z"/>
      <path id="_路径_1-2" data-name="路径 1" class="cls-1" d="M43.14,0h-4.11c-.08,0-.16,0-.24,0-.08,0-.16,0-.23.02-.08,0-.16.02-.23.03-.08.01-.16.02-.23.04-.08.02-.15.03-.23.05-.08.02-.15.04-.23.06-.08.02-.15.05-.22.07s-.15.05-.22.08c-.07.03-.14.06-.22.1-.07.03-.14.07-.21.11-.07.04-.14.08-.2.12-.07.04-.13.08-.2.13-.07.04-.13.09-.19.14-.06.05-.13.1-.19.14-.06.05-.12.1-.18.15-.06.05-.12.11-.17.16-.06.06-.11.11-.16.17-.05.06-.1.12-.15.18-.05.06-.1.12-.14.19-.05.06-.09.13-.14.19s-.09.13-.13.2c-.04.07-.08.14-.12.2-.04.07-.07.14-.11.21-.03.07-.07.14-.1.22-.03.07-.06.15-.08.22-.03.07-.05.15-.07.22-.02.08-.04.15-.06.23s-.04.15-.05.23c-.02.08-.03.15-.04.23-.01.08-.02.16-.03.23,0,.08-.01.16-.02.23,0,.08,0,.16,0,.24s0,.16,0,.24c0,.08,0,.16.02.23,0,.08.02.16.03.23.01.08.02.16.04.23.02.08.03.15.05.23.02.08.04.15.06.23.02.08.05.15.07.22.03.07.05.15.08.22.03.07.06.14.1.22.03.07.07.14.11.21.04.07.08.14.12.2.04.07.08.13.13.2.04.07.09.13.14.19.05.06.1.13.14.19.05.06.1.12.15.18.05.06.11.12.16.17.06.06.11.11.17.16s.12.1.18.15.12.1.19.14c.06.05.13.09.19.14.07.04.13.09.2.13.07.04.14.08.2.12.07.04.14.07.21.11.07.03.14.07.22.1.07.03.15.06.22.08.07.03.15.05.22.07.08.02.15.04.23.06.08.02.15.04.23.05.08.02.15.03.23.04.08.01.16.02.23.03.08,0,.16.01.23.02.08,0,.16,0,.24,0h4.11c.08,0,.16,0,.24,0,.08,0,.16,0,.23-.02.08,0,.16-.02.23-.03.08-.01.16-.02.23-.04.08-.02.15-.03.23-.05.08-.02.15-.04.23-.06.08-.02.15-.05.22-.07.07-.03.15-.05.22-.08.07-.03.14-.06.22-.1.07-.03.14-.07.21-.11.07-.04.14-.08.2-.12.07-.04.13-.08.2-.13.07-.04.13-.09.19-.14.06-.05.13-.1.19-.14.06-.05.12-.1.18-.15s.12-.11.17-.16c.06-.06.11-.11.16-.17.05-.06.1-.12.15-.18.05-.06.1-.12.14-.19.05-.06.09-.13.14-.19.04-.07.09-.13.13-.2.04-.07.08-.14.12-.2.04-.07.07-.14.11-.21.03-.07.07-.14.1-.22.03-.07.06-.15.08-.22.03-.07.05-.15.07-.22.02-.08.04-.15.06-.23.02-.08.04-.15.05-.23.02-.08.03-.15.04-.23.01-.08.02-.16.03-.23,0-.08.01-.16.02-.23,0-.08,0-.16,0-.24s0-.16,0-.24c0-.08,0-.16-.02-.23,0-.08-.02-.16-.03-.23-.01-.08-.02-.16-.04-.23-.02-.08-.03-.15-.05-.23s-.04-.15-.06-.23c-.02-.08-.05-.15-.07-.22-.03-.07-.05-.15-.08-.22-.03-.07-.06-.14-.1-.22-.03-.07-.07-.14-.11-.21-.04-.07-.08-.14-.12-.2-.04-.07-.08-.13-.13-.2s-.09-.13-.14-.19c-.05-.06-.1-.13-.14-.19-.05-.06-.1-.12-.15-.18-.05-.06-.11-.12-.16-.17-.06-.06-.11-.11-.17-.16-.06-.05-.12-.1-.18-.15-.06-.05-.12-.1-.19-.14-.06-.05-.13-.09-.19-.14-.07-.04-.13-.09-.2-.13-.07-.04-.14-.08-.2-.12-.07-.04-.14-.07-.21-.11-.07-.03-.14-.07-.22-.1-.07-.03-.15-.06-.22-.08-.07-.03-.15-.05-.22-.07-.08-.02-.15-.04-.23-.06-.08-.02-.15-.04-.23-.05-.08-.02-.15-.03-.23-.04-.08-.01-.16-.02-.23-.03-.08,0-.16-.01-.23-.02s-.16,0-.24,0ZM42.8,7.2c-.08,0-.16,0-.24-.01-.08,0-.16-.02-.23-.03-.08-.02-.15-.03-.23-.06-.08-.02-.15-.05-.22-.08-.07-.03-.14-.06-.21-.1-.07-.04-.14-.08-.2-.12-.07-.04-.13-.09-.19-.14-.06-.05-.12-.1-.17-.16-.06-.06-.11-.11-.16-.17-.05-.06-.1-.12-.14-.19-.04-.07-.08-.13-.12-.2-.04-.07-.07-.14-.1-.21-.03-.07-.06-.15-.08-.22-.02-.08-.04-.15-.06-.23-.02-.08-.03-.15-.03-.23,0-.08-.01-.16-.01-.24s0-.16.01-.24c0-.08.02-.16.03-.23.02-.08.03-.15.06-.23.02-.08.05-.15.08-.22.03-.07.06-.14.1-.21.04-.07.08-.14.12-.2.04-.07.09-.13.14-.19.05-.06.1-.12.16-.17.06-.06.11-.11.17-.16.06-.05.12-.1.19-.14.07-.04.13-.08.2-.12.07-.04.14-.07.21-.1.07-.03.15-.06.22-.08.08-.02.15-.04.23-.06.08-.02.15-.03.23-.03.08,0,.16-.01.24-.01s.16,0,.24.01c.08,0,.16.02.23.03.08.02.15.03.23.06.08.02.15.05.22.08.07.03.14.06.21.1.07.04.14.08.2.12.07.04.13.09.19.14.06.05.12.1.17.16.06.06.11.11.16.17.05.06.1.12.14.19.04.07.08.13.12.2.04.07.07.14.1.21.03.07.06.15.08.22s.04.15.06.23c.02.08.03.15.03.23,0,.08.01.16.01.24s0,.16-.01.24c0,.08-.02.16-.03.23-.02.08-.03.15-.06.23-.02.08-.05.15-.08.22-.03.07-.06.14-.1.21-.04.07-.08.14-.12.2-.04.07-.09.13-.14.19-.05.06-.1.12-.16.17-.06.06-.11.11-.17.16-.06.05-.12.1-.19.14-.07.04-.13.08-.2.12-.07.04-.14.07-.21.1-.07.03-.15.06-.22.08-.08.02-.15.04-.23.06-.08.02-.15.03-.23.03-.08,0-.16.01-.24.01Z"/>
    </g>
  </g>
</svg>