<?xml version="1.0" encoding="UTF-8"?>
<svg id="_图层_2" data-name="图层 2" xmlns="http://www.w3.org/2000/svg" width="15.38mm" height="3.39mm" viewBox="0 0 43.59 9.6">
  <defs>
    <style>
      .cls-1 {
        fill: #020c08;
        fill-rule: evenodd;
        isolation: isolate;
        opacity: .8;
        stroke-width: 0px;
      }
    </style>
  </defs>
  <g id="_图层_1-2" data-name="图层 1">
    <g>
      <path id="_文本_1" data-name="文本 1" class="cls-1" d="M35.58,6.51v1.22h-4.62c.08-.69.45-1.31.45-1.31.38-.62,1.48-1.65,1.48-1.65.89-.83,1.09-1.12,1.09-1.12.27-.41.27-.81.27-.81,0-.44-.24-.68-.24-.68-.24-.24-.65-.24-.65-.24-.41,0-.66.25-.66.25-.24.25-.28.83-.28.83l-1.31-.13c.12-1.09.74-1.56.74-1.56.62-.47,1.55-.47,1.55-.47,1.02,0,1.6.55,1.6.55.58.55.58,1.36.58,1.36,0,.46-.17.88-.17.88-.17.42-.53.88-.53.88-.24.3-.86.88-.86.88-.62.57-.79.76-.79.76-.17.19-.27.37-.27.37h2.62ZM36.75,7.73v-1.32h1.32v1.32h-1.32ZM41.36.83c1,0,1.56.71,1.56.71.67.84.67,2.8.67,2.8,0,1.95-.68,2.8-.68,2.8-.56.7-1.56.7-1.56.7-1,0-1.62-.77-1.62-.77-.61-.77-.61-2.75-.61-2.75,0-1.94.68-2.79.68-2.79.56-.7,1.56-.7,1.56-.7ZM41.36,1.92c-.24,0-.43.15-.43.15-.19.15-.29.55-.29.55-.14.51-.14,1.72-.14,1.72,0,1.21.12,1.66.12,1.66.12.45.31.6.31.6.19.15.42.15.42.15.24,0,.43-.15.43-.15.19-.15.29-.55.29-.55.14-.51.14-1.72.14-1.72,0-1.21-.12-1.66-.12-1.66-.12-.45-.31-.6-.31-.6-.19-.15-.42-.15-.42-.15Z"/>
      <path id="_减去顶层" data-name="减去顶层" class="cls-1" d="M0,4.8C0,2.15,2.15,0,4.8,0c2.65,0,4.8,2.15,4.8,4.8s-2.15,4.8-4.8,4.8S0,7.45,0,4.8ZM7.1,3.42c.14.14.36.14.49,0,.14-.14.14-.36,0-.49l-1.39-1.39c-.14-.14-.36-.14-.49,0l-1.39,1.39c-.14.14-.14.36,0,.49.14.14.36.14.49,0l.8-.8v3.33c0,.19.16.35.35.35s.35-.16.35-.35v-3.33s.8.8.8.8ZM3.42,7.6l1.39-1.39c.14-.14.14-.36,0-.49-.14-.14-.36-.14-.49,0l-.8.8v-3.33c0-.19-.16-.35-.35-.35s-.35.16-.35.35v3.33s-.8-.8-.8-.8c-.14-.14-.36-.14-.49,0-.14.14-.14.36,0,.49l1.39,1.39c.14.14.36.14.49,0Z"/>
      <path id="_路径_1" data-name="路径 1" class="cls-1" d="M27.79,4.62l-2.54-1.52s-.02-.01-.04-.02c-.01,0-.03-.01-.04-.01-.01,0-.03,0-.04,0-.01,0-.03,0-.04,0-.01,0-.03,0-.04,0-.01,0-.03,0-.04,0-.01,0-.03,0-.04.01-.01,0-.03.01-.04.02-.01,0-.02.01-.04.02-.01,0-.02.02-.03.03-.01,0-.02.02-.03.03,0,.01-.02.02-.02.04,0,.01-.01.02-.02.04,0,.01-.01.03-.01.04,0,.01,0,.03,0,.04,0,.01,0,.03,0,.04v1.08h-7.53s1.62-2.58,1.62-2.58c.03-.05.07-.1.11-.14.04-.04.09-.08.14-.11.05-.03.11-.05.16-.07.06-.01.12-.02.17-.02h.75c.02.05.04.11.07.16.03.05.06.1.09.14.03.05.07.09.11.13.04.04.08.08.13.11.05.03.09.06.14.09.05.03.1.05.16.06.05.02.11.03.16.04.06,0,.11.01.17.01.04,0,.07,0,.11-.01.04,0,.07-.01.11-.02.03,0,.07-.02.1-.03.03-.01.07-.03.1-.04.03-.02.06-.03.1-.05.03-.02.06-.04.09-.06.03-.02.06-.04.08-.07.03-.02.05-.05.08-.07.02-.03.05-.05.07-.08.02-.03.04-.06.06-.09.02-.03.04-.06.05-.09.02-.03.03-.06.04-.1.01-.03.02-.07.03-.1s.02-.07.03-.1c0-.04.01-.07.02-.11s0-.07,0-.11,0-.07,0-.11c0-.04,0-.07-.02-.11,0-.04-.02-.07-.03-.1,0-.03-.02-.07-.03-.1-.01-.03-.03-.07-.04-.1-.02-.03-.03-.06-.05-.09-.02-.03-.04-.06-.06-.09-.02-.03-.05-.06-.07-.08-.02-.03-.05-.05-.08-.07-.03-.02-.05-.05-.08-.07-.03-.02-.06-.04-.09-.06-.03-.02-.06-.04-.1-.05-.03-.02-.07-.03-.1-.04-.03-.01-.07-.02-.1-.03-.03,0-.07-.02-.11-.02-.04,0-.07,0-.11-.01-.05,0-.1,0-.15.01-.05,0-.1.02-.15.03-.05.01-.1.03-.14.05-.05.02-.09.04-.13.07-.04.03-.08.06-.12.09-.04.03-.08.07-.11.11-.03.04-.07.08-.09.12-.03.04-.05.09-.08.13h-.81c-.07,0-.14,0-.21.01-.07,0-.14.02-.2.04-.07.02-.13.04-.2.06-.06.03-.13.05-.19.09-.06.03-.12.07-.17.11-.06.04-.11.08-.16.13-.05.05-.1.1-.14.15-.04.05-.08.11-.12.17l-1.91,3.07h-.65s-.02-.06-.03-.09c-.01-.03-.02-.06-.04-.09-.01-.03-.03-.06-.04-.08-.02-.03-.03-.05-.05-.08-.02-.03-.03-.05-.05-.08-.02-.03-.04-.05-.06-.07-.02-.02-.04-.05-.06-.07-.02-.02-.04-.05-.07-.07-.02-.02-.05-.04-.07-.06-.02-.02-.05-.04-.07-.06-.03-.02-.05-.04-.08-.05-.03-.02-.05-.03-.08-.05-.03-.02-.05-.03-.08-.04-.03-.01-.06-.03-.09-.04-.03-.01-.06-.02-.09-.03-.03-.01-.06-.02-.09-.03-.03,0-.06-.02-.09-.02-.03,0-.06-.01-.09-.02-.03,0-.06,0-.09-.01-.03,0-.06,0-.09,0-.03,0-.06,0-.09,0-.03,0-.06,0-.09,0-.03,0-.06,0-.09,0-.03,0-.06,0-.09.01-.03,0-.06.01-.09.02-.03,0-.06.02-.09.03-.03,0-.06.02-.09.03-.03.01-.06.02-.09.04-.03.01-.06.03-.08.04-.03.01-.06.03-.08.05-.03.02-.05.03-.08.05-.03.02-.05.04-.08.06-.02.02-.05.04-.07.06-.02.02-.05.04-.07.06-.02.02-.04.04-.07.07-.02.02-.04.05-.06.07-.02.02-.04.05-.06.08-.02.03-.04.05-.05.08-.02.03-.03.05-.05.08-.02.03-.03.06-.04.08-.01.03-.03.06-.04.09-.01.03-.02.06-.03.09,0,.03-.02.06-.03.09,0,.03-.02.06-.02.09,0,.03-.01.06-.02.09,0,.03,0,.06-.01.09,0,.03,0,.06,0,.09,0,.03,0,.06,0,.09,0,.03,0,.06,0,.09,0,.03,0,.06.01.09,0,.03.01.06.02.09,0,.03.01.06.02.09,0,.03.02.06.03.09.01.03.02.06.03.09.01.03.03.06.04.09.01.03.03.06.04.08.02.03.03.05.05.08.02.03.03.05.05.08.02.03.04.05.06.07.02.02.04.05.06.07.02.02.04.05.07.07.02.02.05.04.07.06.02.02.05.04.07.06.03.02.05.04.08.05.03.02.05.03.08.05.03.02.06.03.08.04.03.01.06.03.09.04.03.01.06.02.09.03.03.01.06.02.09.03.03,0,.06.02.09.02.03,0,.06.01.09.02.03,0,.06,0,.09.01s.06,0,.09,0c.03,0,.06,0,.09,0,.03,0,.06,0,.09,0,.03,0,.06,0,.09,0,.03,0,.06,0,.09-.02.03,0,.06-.01.09-.02.03,0,.06-.02.09-.03.03,0,.06-.02.09-.03.03-.01.06-.02.09-.04.03-.01.06-.03.08-.04.03-.01.06-.03.08-.05.03-.02.05-.03.08-.05.03-.02.05-.04.08-.06.02-.02.05-.04.07-.06.02-.02.05-.04.07-.06.02-.02.04-.05.06-.07.02-.02.04-.05.06-.07.02-.02.04-.05.06-.08.02-.03.04-.05.05-.08.02-.03.03-.05.05-.08.01-.03.03-.06.04-.08.01-.03.03-.06.04-.09.01-.03.02-.06.03-.09,0-.03.02-.06.03-.09h2.6s1.91,3.05,1.91,3.05c.04.06.08.11.12.17.04.05.09.1.14.15.05.05.1.09.16.13.06.04.11.08.17.11.06.03.12.06.19.09.06.03.13.05.2.06.07.02.13.03.2.04.07,0,.14.01.21.01h1.19v.42s2.02,0,2.02,0v-2.02s-2.02,0-2.02,0v.68h-1.19c-.06,0-.12,0-.17-.02-.06-.02-.11-.04-.16-.07s-.1-.06-.14-.11c-.04-.04-.08-.09-.11-.14l-1.61-2.56h5.52v1.05s0,.06.01.08c0,.03.02.05.03.08.01.02.03.05.05.07.02.02.04.04.07.05.05.03.1.04.16.04.06,0,.11-.01.17-.05l2.54-1.52s.02-.01.03-.02c.01,0,.02-.02.03-.03,0,0,.02-.02.03-.03,0-.01.02-.02.02-.03,0-.01.01-.02.02-.04,0-.01,0-.03.01-.04,0-.01,0-.03,0-.04,0-.01,0-.03,0-.04s0-.03,0-.04c0-.01,0-.03,0-.04,0-.01,0-.03-.01-.04,0-.01-.01-.03-.02-.04,0-.01-.01-.02-.02-.03,0-.01-.02-.02-.03-.03,0,0-.02-.02-.03-.03-.01,0-.02-.02-.03-.02h.01Z"/>
    </g>
  </g>
</svg>