<?xml version="1.0" encoding="UTF-8"?>
<svg id="_图层_2" data-name="图层 2" xmlns="http://www.w3.org/2000/svg" width="14.88mm" height="3.44mm" viewBox="0 0 42.18 9.75">
  <defs>
    <style>
      .cls-1 {
        fill: #020c08;
        fill-rule: evenodd;
        isolation: isolate;
        opacity: .8;
        stroke-width: 0px;
      }
    </style>
  </defs>
  <g id="_图层_1-2" data-name="图层 1">
    <g>
      <path id="_文本_1" data-name="文本 1" class="cls-1" d="M15.21,7.73V2.02s-2.04,0-2.04,0V.86h5.46v1.16h-2.03s0,5.71,0,5.71h-1.39ZM20.5,4.27l-1.2-.22c.2-.72.69-1.07.69-1.07.49-.35,1.46-.35,1.46-.35.88,0,1.31.21,1.31.21.43.21.61.53.61.53.18.32.18,1.18.18,1.18v1.54c-.01.66.05.97.05.97.06.31.24.67.24.67h-1.3c-.05-.13-.13-.39-.13-.39-.03-.12-.05-.15-.05-.15-.34.33-.72.49-.72.49-.38.16-.82.16-.82.16-.77,0-1.21-.42-1.21-.42-.44-.42-.44-1.05-.44-1.05,0-.42.2-.75.2-.75.2-.33.56-.51.56-.51.36-.18,1.05-.31,1.05-.31.92-.17,1.28-.32,1.28-.32v-.13c0-.38-.19-.54-.19-.54-.19-.16-.71-.16-.71-.16-.35,0-.55.14-.55.14-.2.14-.32.49-.32.49ZM22.26,5.34c-.25.08-.8.2-.8.2-.55.12-.72.23-.72.23-.26.18-.26.46-.26.46,0,.28.21.48.21.48.21.2.52.2.52.2.36,0,.68-.23.68-.23.24-.18.31-.44.31-.44.05-.17.05-.64.05-.64v-.26ZM26.11,7.73h-1.32V2.75h1.22v.71c.31-.5.56-.66.56-.66.25-.16.57-.16.57-.16.45,0,.87.25.87.25l-.41,1.15c-.33-.22-.62-.22-.62-.22-.28,0-.47.15-.47.15-.19.15-.3.55-.3.55-.11.4-.11,1.67-.11,1.67v1.54ZM28.47,8.06l1.5.18c.04.26.17.36.17.36.19.14.59.14.59.14.52,0,.77-.15.77-.15.17-.1.26-.33.26-.33.06-.16.06-.6.06-.6v-.73c-.59.81-1.49.81-1.49.81-1,0-1.59-.85-1.59-.85-.46-.67-.46-1.67-.46-1.67,0-1.25.6-1.91.6-1.91.6-.66,1.5-.66,1.5-.66.92,0,1.52.81,1.52.81v-.7h1.23v4.47c0,.88-.15,1.32-.15,1.32-.15.44-.41.68-.41.68-.26.25-.7.39-.7.39-.44.14-1.11.14-1.11.14-1.27,0-1.8-.43-1.8-.43-.53-.43-.53-1.1-.53-1.1,0-.07,0-.16,0-.16ZM29.64,5.14c0,.79.31,1.16.31,1.16.31.37.76.37.76.37.48,0,.82-.38.82-.38.33-.38.33-1.12.33-1.12,0-.77-.32-1.15-.32-1.15-.32-.38-.81-.38-.81-.38-.47,0-.78.37-.78.37-.31.37-.31,1.12-.31,1.12ZM37.34,6.15l1.31.22c-.25.72-.8,1.1-.8,1.1-.55.38-1.37.38-1.37.38-1.3,0-1.92-.85-1.92-.85-.49-.68-.49-1.72-.49-1.72,0-1.24.65-1.94.65-1.94.65-.7,1.64-.7,1.64-.7,1.11,0,1.75.73,1.75.73.64.73.61,2.25.61,2.25h-3.3c.01.59.32.91.32.91.3.33.76.33.76.33.31,0,.52-.17.52-.17.21-.17.32-.54.32-.54ZM37.41,4.81c-.01-.57-.3-.87-.3-.87-.28-.3-.68-.3-.68-.3-.43,0-.71.31-.71.31-.28.31-.28.85-.28.85h1.97ZM42.07,2.75v1.05h-.9s0,2.01,0,2.01c0,.61.03.71.03.71.03.1.12.17.12.17.09.07.22.07.22.07.18,0,.53-.13.53-.13l.11,1.02c-.46.2-1.04.2-1.04.2-.36,0-.64-.12-.64-.12-.29-.12-.42-.31-.42-.31-.13-.19-.19-.51-.19-.51-.04-.23-.04-.93-.04-.93v-2.17s-.6,0-.6,0v-1.05h.6s0-.99,0-.99l1.32-.77v1.76s.9,0,.9,0Z"/>
      <path id="_减去顶层" data-name="减去顶层" class="cls-1" d="M4.8,9.6C2.15,9.6,0,7.45,0,4.8S2.15,0,4.8,0s4.8,2.15,4.8,4.8c0,2.65-2.15,4.8-4.8,4.8ZM8.02,4.46l-1.92-1.92c-.19-.19-.49-.19-.68,0-.19.19-.19.49,0,.68l1.1,1.1H1.92c-.27,0-.48.21-.48.48s.21.48.48.48h4.6s-1.1,1.1-1.1,1.1c-.19.19-.19.49,0,.68.19.19.49.19.68,0l1.92-1.92c.19-.19.19-.49,0-.68Z"/>
    </g>
  </g>
</svg>