<?xml version="1.0" encoding="UTF-8"?>
<svg id="_图层_2" data-name="图层 2" xmlns="http://www.w3.org/2000/svg" width="12.06mm" height="3.39mm" viewBox="0 0 34.18 9.6">
  <defs>
    <style>
      .cls-1 {
        fill: #020c08;
        fill-rule: evenodd;
        isolation: isolate;
        opacity: .8;
        stroke-width: 0px;
      }
    </style>
  </defs>
  <g id="_图层_1-2" data-name="图层 1">
    <g>
      <path id="_文本_1" data-name="文本 1" class="cls-1" d="M13.66,7.73V.86h1.39v2.7s2.72,0,2.72,0V.86h1.39v6.87h-1.39v-3s-2.72,0-2.72,0v3h-1.39ZM20.28,5.17c0-.66.32-1.27.32-1.27.32-.61.92-.94.92-.94.59-.32,1.32-.32,1.32-.32,1.13,0,1.85.73,1.85.73.72.73.72,1.85.72,1.85,0,1.13-.73,1.87-.73,1.87-.73.74-1.84.74-1.84.74-.68,0-1.31-.31-1.31-.31-.62-.31-.94-.91-.94-.91-.32-.6-.32-1.46-.32-1.46ZM21.63,5.24c0,.74.35,1.13.35,1.13.35.39.87.39.87.39.52,0,.86-.39.86-.39.35-.39.35-1.14.35-1.14,0-.73-.35-1.13-.35-1.13-.35-.39-.86-.39-.86-.39-.52,0-.87.39-.87.39-.35.39-.35,1.13-.35,1.13ZM25.98,6.31l1.32-.2c.08.38.34.58.34.58.26.2.72.2.72.2.51,0,.77-.19.77-.19.17-.13.17-.35.17-.35,0-.15-.09-.25-.09-.25-.1-.09-.44-.17-.44-.17-1.59-.35-2.02-.64-2.02-.64-.59-.4-.59-1.12-.59-1.12,0-.65.51-1.09.51-1.09.51-.44,1.58-.44,1.58-.44,1.02,0,1.52.33,1.52.33.5.33.68.98.68.98l-1.24.23c-.08-.29-.3-.45-.3-.45-.22-.15-.64-.15-.64-.15-.52,0-.75.15-.75.15-.15.1-.15.27-.15.27,0,.14.13.24.13.24.18.13,1.23.37,1.23.37,1.05.24,1.47.59,1.47.59.41.35.41.98.41.98,0,.68-.57,1.18-.57,1.18-.57.49-1.69.49-1.69.49-1.02,0-1.61-.41-1.61-.41-.59-.41-.78-1.12-.78-1.12ZM34.07,2.75v1.05h-.9s0,2.01,0,2.01c0,.61.03.71.03.71.03.1.12.17.12.17.09.07.22.07.22.07.18,0,.53-.13.53-.13l.11,1.02c-.46.2-1.04.2-1.04.2-.36,0-.64-.12-.64-.12-.29-.12-.42-.31-.42-.31-.13-.19-.19-.51-.19-.51-.04-.23-.04-.93-.04-.93v-2.17s-.6,0-.6,0v-1.05h.6s0-.99,0-.99l1.32-.77v1.76s.9,0,.9,0Z"/>
      <path id="_减去顶层" data-name="减去顶层" class="cls-1" d="M4.8,9.6C2.15,9.6,0,7.45,0,4.8,0,2.15,2.15,0,4.8,0s4.8,2.15,4.8,4.8-2.15,4.8-4.8,4.8ZM8.02,4.46l-1.92-1.92c-.19-.19-.49-.19-.68,0-.19.19-.19.49,0,.68l1.1,1.1H1.92c-.27,0-.48.21-.48.48s.21.48.48.48h4.6s-1.1,1.1-1.1,1.1c-.19.19-.19.49,0,.68.19.19.49.19.68,0l1.92-1.92c.19-.19.19-.49,0-.68Z"/>
    </g>
  </g>
</svg>