<?xml version="1.0" encoding="UTF-8" standalone="no"?>
<!-- Created with Inkscape (http://www.inkscape.org/) -->

<svg
   version="1.1"
   id="svg2"
   width="377.95334"
   height="226.772"
   viewBox="0 0 377.95334 226.772"
   xmlns="http://www.w3.org/2000/svg"
   xmlns:svg="http://www.w3.org/2000/svg">
  <defs
     id="defs6">
    <clipPath
       clipPathUnits="userSpaceOnUse"
       id="clipPath16">
      <path
         d="M 0,170.079 H 283.465 V 0 H 0 Z"
         id="path14" />
    </clipPath>
    <clipPath
       clipPathUnits="userSpaceOnUse"
       id="clipPath240">
      <path
         d="M 21.508,91.2144 H 261.957 V 45.4959 H 21.508 Z"
         id="path238" />
    </clipPath>
  </defs>
  <g
     id="g8"
     transform="matrix(1.3333333,0,0,-1.3333333,0,226.772)">
    <g
       id="g10">
      <g
         id="g12"
         clip-path="url(#clipPath16)">
        <g
           id="g18"
           transform="translate(185.2108,130.8171)">
          <path
             d="M 0,0 C -0.995,0 -1.802,-0.807 -1.802,-1.802"
             style="fill:none;stroke:#ffffff;stroke-width:0.3;stroke-linecap:round;stroke-linejoin:round;stroke-miterlimit:10;stroke-dasharray:none;stroke-opacity:1"
             id="path20" />
        </g>
        <g
           id="g22"
           transform="translate(183.4852,121.7673)">
          <path
             d="M 0,0 V 7.209"
             style="fill:none;stroke:#ffffff;stroke-width:0.3;stroke-linecap:round;stroke-linejoin:round;stroke-miterlimit:10;stroke-dasharray:none;stroke-opacity:1"
             id="path24" />
        </g>
        <g
           id="g26"
           transform="translate(202.2753,129.0154)">
          <path
             d="M 0,0 C 0,0.995 -0.807,1.802 -1.802,1.802"
             style="fill:none;stroke:#ffffff;stroke-width:0.3;stroke-linecap:round;stroke-linejoin:round;stroke-miterlimit:10;stroke-dasharray:none;stroke-opacity:1"
             id="path28" />
        </g>
        <g
           id="g30"
           transform="translate(185.2494,130.8171)">
          <path
             d="M 0,0 H 15.262"
             style="fill:none;stroke:#ffffff;stroke-width:0.3;stroke-linecap:round;stroke-linejoin:round;stroke-miterlimit:10;stroke-dasharray:none;stroke-opacity:1"
             id="path32" />
        </g>
        <g
           id="g34"
           transform="translate(183.4086,121.8054)">
          <path
             d="M 0,0 C 0,-0.995 0.807,-1.802 1.802,-1.802"
             style="fill:none;stroke:#ffffff;stroke-width:0.3;stroke-linecap:round;stroke-linejoin:round;stroke-miterlimit:10;stroke-dasharray:none;stroke-opacity:1"
             id="path36" />
        </g>
        <g
           id="g38"
           transform="translate(200.5116,119.9265)">
          <path
             d="M 0,0 H -15.262"
             style="fill:none;stroke:#ffffff;stroke-width:0.3;stroke-linecap:round;stroke-linejoin:round;stroke-miterlimit:10;stroke-dasharray:none;stroke-opacity:1"
             id="path40" />
        </g>
        <g
           id="g42"
           transform="translate(200.473,120.0037)">
          <path
             d="M 0,0 C 0.996,0 1.802,0.807 1.802,1.802"
             style="fill:none;stroke:#ffffff;stroke-width:0.3;stroke-linecap:round;stroke-linejoin:round;stroke-miterlimit:10;stroke-dasharray:none;stroke-opacity:1"
             id="path44" />
        </g>
        <g
           id="g46"
           transform="translate(202.3519,128.9763)">
          <path
             d="M 0,0 V -7.209"
             style="fill:none;stroke:#ffffff;stroke-width:0.3;stroke-linecap:round;stroke-linejoin:round;stroke-miterlimit:10;stroke-dasharray:none;stroke-opacity:1"
             id="path48" />
        </g>
        <g
           id="g50"
           transform="translate(218.5233,110.198)">
          <path
             d="m 0,0 c 6.963,-0.242 13.503,3.335 17.057,9.328 3.553,5.993 3.552,13.447 -10e-4,19.441 -3.554,5.992 -10.095,9.568 -17.058,9.325"
             style="fill:none;stroke:#ffffff;stroke-width:0.3;stroke-linecap:round;stroke-linejoin:round;stroke-miterlimit:10;stroke-dasharray:none;stroke-opacity:1"
             id="path52" />
        </g>
        <g
           id="g54"
           transform="translate(45.5897,148.2273)">
          <path
             d="M 0,0 H 172.945"
             style="fill:none;stroke:#ffffff;stroke-width:0.3;stroke-linecap:round;stroke-linejoin:round;stroke-miterlimit:10;stroke-dasharray:none;stroke-opacity:1"
             id="path56" />
        </g>
        <g
           id="g58"
           transform="translate(45.5209,148.2917)">
          <path
             d="m 0,0 c -6.883,0.239 -13.36,-3.255 -16.94,-9.139 -3.581,-5.883 -3.708,-13.242 -0.333,-19.246 3.375,-6.004 9.726,-9.719 16.613,-9.719"
             style="fill:none;stroke:#ffffff;stroke-width:0.3;stroke-linecap:round;stroke-linejoin:round;stroke-miterlimit:10;stroke-dasharray:none;stroke-opacity:1"
             id="path60" />
        </g>
        <g
           id="g62"
           transform="translate(218.5346,110.1101)">
          <path
             d="M 0,0 H -173.635"
             style="fill:none;stroke:#ffffff;stroke-width:0.3;stroke-linecap:round;stroke-linejoin:round;stroke-miterlimit:10;stroke-dasharray:none;stroke-opacity:1"
             id="path64" />
        </g>
        <g
           id="g66"
           transform="translate(45.5936,152.6638)">
          <path
             d="m 0,0 c -8.426,0.264 -16.341,-4.05 -20.708,-11.285 -4.367,-7.236 -4.509,-16.271 -0.371,-23.639 4.139,-7.368 11.914,-11.926 20.344,-11.925"
             style="fill:none;stroke:#ffffff;stroke-width:0.3;stroke-linecap:round;stroke-linejoin:round;stroke-miterlimit:10;stroke-dasharray:none;stroke-opacity:1"
             id="path68" />
        </g>
        <g
           id="g70"
           transform="translate(45.5897,148.2273)">
          <path
             d="M 0,0 V 4.371"
             style="fill:none;stroke:#ffffff;stroke-width:0.3;stroke-linecap:round;stroke-linejoin:round;stroke-miterlimit:10;stroke-dasharray:none;stroke-opacity:1"
             id="path72" />
        </g>
        <g
           id="g74"
           transform="translate(218.5346,148.2273)">
          <path
             d="M 0,0 -0.077,4.371 H -172.945"
             style="fill:none;stroke:#ffffff;stroke-width:0.3;stroke-linecap:round;stroke-linejoin:round;stroke-miterlimit:10;stroke-dasharray:none;stroke-opacity:1"
             id="path76" />
        </g>
        <g
           id="g78"
           transform="translate(218.4496,105.7498)">
          <path
             d="m 0,0 c 8.514,-0.268 16.5,4.137 20.836,11.494 4.338,7.357 4.339,16.498 0.003,23.854 -4.336,7.356 -12.32,11.758 -20.834,11.489"
             style="fill:none;stroke:#ffffff;stroke-width:0.3;stroke-linecap:round;stroke-linejoin:round;stroke-miterlimit:10;stroke-dasharray:none;stroke-opacity:1"
             id="path80" />
        </g>
        <g
           id="g82"
           transform="translate(218.5346,110.1101)">
          <path
             d="M 0,0 -0.077,-4.371 H -173.635"
             style="fill:none;stroke:#ffffff;stroke-width:0.3;stroke-linecap:round;stroke-linejoin:round;stroke-miterlimit:10;stroke-dasharray:none;stroke-opacity:1"
             id="path84" />
        </g>
        <g
           id="g86"
           transform="translate(220.682,105.739)">
          <path
             d="M 0,0 H -0.69"
             style="fill:none;stroke:#ffffff;stroke-width:0.3;stroke-linecap:round;stroke-linejoin:round;stroke-miterlimit:10;stroke-dasharray:none;stroke-opacity:1"
             id="path88" />
        </g>
        <g
           id="g90"
           transform="translate(219.9916,152.5984)">
          <path
             d="M 0,0 H 0.69"
             style="fill:none;stroke:#ffffff;stroke-width:0.3;stroke-linecap:round;stroke-linejoin:round;stroke-miterlimit:10;stroke-dasharray:none;stroke-opacity:1"
             id="path92" />
        </g>
        <g
           id="g94"
           transform="translate(186.3998,130.4343)">
          <path
             d="M 0,0 H -1.457"
             style="fill:none;stroke:#ffffff;stroke-width:0.3;stroke-linecap:round;stroke-linejoin:round;stroke-miterlimit:10;stroke-dasharray:none;stroke-opacity:1"
             id="path96" />
        </g>
        <g
           id="g98"
           transform="translate(201.5853,130.4343)">
          <path
             d="M 0,0 H -0.69"
             style="fill:none;stroke:#ffffff;stroke-width:0.3;stroke-linecap:round;stroke-linejoin:round;stroke-miterlimit:10;stroke-dasharray:none;stroke-opacity:1"
             id="path100" />
        </g>
        <g
           id="g102"
           transform="translate(184.9428,130.4343)">
          <path
             d="M 0,0 V 0.307"
             style="fill:none;stroke:#ffffff;stroke-width:0.3;stroke-linecap:round;stroke-linejoin:round;stroke-miterlimit:10;stroke-dasharray:none;stroke-opacity:1"
             id="path104" />
        </g>
        <g
           id="g106"
           transform="translate(186.3998,130.4343)">
          <path
             d="M 0,0 V -8.283 H 14.495 V -7.21"
             style="fill:none;stroke:#ffffff;stroke-width:0.3;stroke-linecap:round;stroke-linejoin:round;stroke-miterlimit:10;stroke-dasharray:none;stroke-opacity:1"
             id="path108" />
        </g>
        <g
           id="g110"
           transform="translate(187.0897,122.1511)">
          <path
             d="M 0,0 V 8.283"
             style="fill:none;stroke:#ffffff;stroke-width:0.3;stroke-linecap:round;stroke-linejoin:round;stroke-miterlimit:10;stroke-dasharray:none;stroke-opacity:1"
             id="path112" />
        </g>
        <g
           id="g114"
           transform="translate(200.8949,130.4343)">
          <path
             d="m 0,0 h -1.841 -1.84 -1.764 -1.841"
             style="fill:none;stroke:#ffffff;stroke-width:0.3;stroke-linecap:round;stroke-linejoin:round;stroke-miterlimit:10;stroke-dasharray:none;stroke-opacity:1"
             id="path116" />
        </g>
        <g
           id="g118"
           transform="translate(193.6088,123.2244)">
          <path
             d="M 0,0 H 1.841 3.605"
             style="fill:none;stroke:#ffffff;stroke-width:0.3;stroke-linecap:round;stroke-linejoin:round;stroke-miterlimit:10;stroke-dasharray:none;stroke-opacity:1"
             id="path120" />
        </g>
        <g
           id="g122"
           transform="translate(197.2138,123.2244)">
          <path
             d="M 0,0 H 1.84 3.681"
             style="fill:none;stroke:#ffffff;stroke-width:0.3;stroke-linecap:round;stroke-linejoin:round;stroke-miterlimit:10;stroke-dasharray:none;stroke-opacity:1"
             id="path124" />
        </g>
        <g
           id="g126"
           transform="translate(195.4496,130.4343)">
          <path
             d="M 0,0 V -7.21"
             style="fill:none;stroke:#ffffff;stroke-width:0.3;stroke-linecap:round;stroke-linejoin:round;stroke-miterlimit:10;stroke-dasharray:none;stroke-opacity:1"
             id="path128" />
        </g>
        <g
           id="g130"
           transform="translate(193.6088,130.4343)">
          <path
             d="M 0,0 V -7.21"
             style="fill:none;stroke:#ffffff;stroke-width:0.3;stroke-linecap:round;stroke-linejoin:round;stroke-miterlimit:10;stroke-dasharray:none;stroke-opacity:1"
             id="path132" />
        </g>
        <g
           id="g134"
           transform="translate(199.0541,123.2244)">
          <path
             d="M 0,0 V 7.21"
             style="fill:none;stroke:#ffffff;stroke-width:0.3;stroke-linecap:round;stroke-linejoin:round;stroke-miterlimit:10;stroke-dasharray:none;stroke-opacity:1"
             id="path136" />
        </g>
        <g
           id="g138"
           transform="translate(200.8949,123.2244)">
          <path
             d="M 0,0 V 7.21"
             style="fill:none;stroke:#ffffff;stroke-width:0.3;stroke-linecap:round;stroke-linejoin:round;stroke-miterlimit:10;stroke-dasharray:none;stroke-opacity:1"
             id="path140" />
        </g>
        <g
           id="g142"
           transform="translate(197.2138,123.2244)">
          <path
             d="M 0,0 V 7.21"
             style="fill:none;stroke:#ffffff;stroke-width:0.3;stroke-linecap:round;stroke-linejoin:round;stroke-miterlimit:10;stroke-dasharray:none;stroke-opacity:1"
             id="path144" />
        </g>
        <g
           id="g146"
           transform="translate(184.9428,130.4343)">
          <path
             d="M 0,0 V 0.307"
             style="fill:none;stroke:#ffffff;stroke-width:0.3;stroke-linecap:round;stroke-linejoin:round;stroke-miterlimit:10;stroke-dasharray:none;stroke-opacity:1"
             id="path148" />
        </g>
        <g
           id="g150"
           transform="translate(201.5853,130.4343)">
          <path
             d="M 0,0 H -0.69"
             style="fill:none;stroke:#ffffff;stroke-width:0.3;stroke-linecap:round;stroke-linejoin:round;stroke-miterlimit:10;stroke-dasharray:none;stroke-opacity:1"
             id="path152" />
        </g>
        <g
           id="g154"
           transform="translate(193.6088,130.4343)">
          <path
             d="M 0,0 H -8.666"
             style="fill:none;stroke:#ffffff;stroke-width:0.3;stroke-linecap:round;stroke-linejoin:round;stroke-miterlimit:10;stroke-dasharray:none;stroke-opacity:1"
             id="path156" />
        </g>
        <g
           id="g158"
           transform="translate(119.7528,127.4431)">
          <path
             d="M 0,0 V 2.53"
             style="fill:none;stroke:#ffffff;stroke-width:0.3;stroke-linecap:round;stroke-linejoin:round;stroke-miterlimit:10;stroke-dasharray:none;stroke-opacity:1"
             id="path160" />
        </g>
        <g
           id="g162"
           transform="translate(145.0619,129.9734)">
          <path
             d="m 0,0 v -2.53 h -1.458 -22.394 -1.457"
             style="fill:none;stroke:#ffffff;stroke-width:0.3;stroke-linecap:round;stroke-linejoin:round;stroke-miterlimit:10;stroke-dasharray:none;stroke-opacity:1"
             id="path164" />
        </g>
        <g
           id="g166"
           transform="translate(119.7528,129.9734)">
          <path
             d="m 0,0 h 1.457 22.395 1.457"
             style="fill:none;stroke:#ffffff;stroke-width:0.3;stroke-linecap:round;stroke-linejoin:round;stroke-miterlimit:10;stroke-dasharray:none;stroke-opacity:1"
             id="path168" />
        </g>
        <path
           d="m 143.298,129.437 h -21.781 v -1.457 h 21.781 z"
           style="fill:none;stroke:#ffffff;stroke-width:0.3;stroke-linecap:round;stroke-linejoin:round;stroke-miterlimit:10;stroke-dasharray:none;stroke-opacity:1"
           id="path170" />
        <g
           id="g172"
           transform="translate(143.6044,129.9734)">
          <path
             d="M 0,0 -0.307,-0.536"
             style="fill:none;stroke:#ffffff;stroke-width:0.3;stroke-linecap:round;stroke-linejoin:round;stroke-miterlimit:10;stroke-dasharray:none;stroke-opacity:1"
             id="path174" />
        </g>
        <g
           id="g176"
           transform="translate(143.2977,127.9802)">
          <path
             d="M 0,0 0.307,-0.537"
             style="fill:none;stroke:#ffffff;stroke-width:0.3;stroke-linecap:round;stroke-linejoin:round;stroke-miterlimit:10;stroke-dasharray:none;stroke-opacity:1"
             id="path178" />
        </g>
        <g
           id="g180"
           transform="translate(121.517,129.4373)">
          <path
             d="M 0,0 -0.307,0.536"
             style="fill:none;stroke:#ffffff;stroke-width:0.3;stroke-linecap:round;stroke-linejoin:round;stroke-miterlimit:10;stroke-dasharray:none;stroke-opacity:1"
             id="path182" />
        </g>
        <g
           id="g184"
           transform="translate(121.2099,127.4431)">
          <path
             d="M 0,0 0.307,0.537"
             style="fill:none;stroke:#ffffff;stroke-width:0.3;stroke-linecap:round;stroke-linejoin:round;stroke-miterlimit:10;stroke-dasharray:none;stroke-opacity:1"
             id="path186" />
        </g>
        <g
           id="g188"
           transform="translate(144.0648,132.9646)">
          <path
             d="M 0,0 H -23.315"
             style="fill:none;stroke:#ffffff;stroke-width:0.3;stroke-linecap:round;stroke-linejoin:round;stroke-miterlimit:10;stroke-dasharray:none;stroke-opacity:1"
             id="path190" />
        </g>
        <g
           id="g192"
           transform="translate(120.7113,133.0417)">
          <path
             d="M 0,0 C -1.715,0 -3.106,-1.391 -3.106,-3.106"
             style="fill:none;stroke:#ffffff;stroke-width:0.3;stroke-linecap:round;stroke-linejoin:round;stroke-miterlimit:10;stroke-dasharray:none;stroke-opacity:1"
             id="path194" />
        </g>
        <g
           id="g196"
           transform="translate(117.682,129.8972)">
          <path
             d="M 0,0 V -2.378"
             style="fill:none;stroke:#ffffff;stroke-width:0.3;stroke-linecap:round;stroke-linejoin:round;stroke-miterlimit:10;stroke-dasharray:none;stroke-opacity:1"
             id="path198" />
        </g>
        <g
           id="g200"
           transform="translate(117.6054,127.5583)">
          <path
             d="M 0,0 C 0,-1.716 1.391,-3.106 3.106,-3.106"
             style="fill:none;stroke:#ffffff;stroke-width:0.3;stroke-linecap:round;stroke-linejoin:round;stroke-miterlimit:10;stroke-dasharray:none;stroke-opacity:1"
             id="path202" />
        </g>
        <g
           id="g204"
           transform="translate(120.7499,124.4519)">
          <path
             d="M 0,0 H 23.315"
             style="fill:none;stroke:#ffffff;stroke-width:0.3;stroke-linecap:round;stroke-linejoin:round;stroke-miterlimit:10;stroke-dasharray:none;stroke-opacity:1"
             id="path206" />
        </g>
        <g
           id="g208"
           transform="translate(144.0263,124.4519)">
          <path
             d="M 0,0 C 1.716,0 3.106,1.391 3.106,3.106"
             style="fill:none;stroke:#ffffff;stroke-width:0.3;stroke-linecap:round;stroke-linejoin:round;stroke-miterlimit:10;stroke-dasharray:none;stroke-opacity:1"
             id="path210" />
        </g>
        <g
           id="g212"
           transform="translate(147.1327,127.5193)">
          <path
             d="M 0,0 V 2.378"
             style="fill:none;stroke:#ffffff;stroke-width:0.3;stroke-linecap:round;stroke-linejoin:round;stroke-miterlimit:10;stroke-dasharray:none;stroke-opacity:1"
             id="path214" />
        </g>
        <g
           id="g216"
           transform="translate(147.1327,129.9353)">
          <path
             d="M 0,0 C 0,1.716 -1.391,3.106 -3.106,3.106"
             style="fill:none;stroke:#ffffff;stroke-width:0.3;stroke-linecap:round;stroke-linejoin:round;stroke-miterlimit:10;stroke-dasharray:none;stroke-opacity:1"
             id="path218" />
        </g>
        <path
           d="m 54.92,128.716 h -5.829 v 5.828 h 5.829 z"
           style="fill:none;stroke:#ffffff;stroke-width:0.3;stroke-linecap:round;stroke-linejoin:round;stroke-miterlimit:10;stroke-dasharray:none;stroke-opacity:1"
           id="path220" />
        <path
           d="m 100.348,128.716 h -5.829 v 5.828 h 5.829 z"
           style="fill:none;stroke:#ffffff;stroke-width:0.3;stroke-linecap:round;stroke-linejoin:round;stroke-miterlimit:10;stroke-dasharray:none;stroke-opacity:1"
           id="path222" />
        <path
           d="m 91.263,128.716 h -5.829 v 5.828 h 5.829 z"
           style="fill:none;stroke:#ffffff;stroke-width:0.3;stroke-linecap:round;stroke-linejoin:round;stroke-miterlimit:10;stroke-dasharray:none;stroke-opacity:1"
           id="path224" />
        <path
           d="m 82.177,128.716 h -5.829 v 5.828 h 5.829 z"
           style="fill:none;stroke:#ffffff;stroke-width:0.3;stroke-linecap:round;stroke-linejoin:round;stroke-miterlimit:10;stroke-dasharray:none;stroke-opacity:1"
           id="path226" />
        <path
           d="m 73.091,128.716 h -5.829 v 5.828 h 5.829 z"
           style="fill:none;stroke:#ffffff;stroke-width:0.3;stroke-linecap:round;stroke-linejoin:round;stroke-miterlimit:10;stroke-dasharray:none;stroke-opacity:1"
           id="path228" />
        <path
           d="m 64.005,128.716 h -5.829 v 5.828 h 5.829 z"
           style="fill:none;stroke:#ffffff;stroke-width:0.3;stroke-linecap:round;stroke-linejoin:round;stroke-miterlimit:10;stroke-dasharray:none;stroke-opacity:1"
           id="path230" />
        <path
           d="M 103.316,126.371 H 46.124 v 10.517 h 57.192 z"
           style="fill:none;stroke:#ffffff;stroke-width:0.3;stroke-linecap:round;stroke-linejoin:round;stroke-miterlimit:10;stroke-dasharray:none;stroke-opacity:1"
           id="path232" />
        <g
           id="g234">
          <g
             id="g236" />
          <g
             id="g324">
            <g
               clip-path="url(#clipPath240)"
               id="g322">
              <path
                 d="m 163.991,56.036 h -6.084 v 2.833 h 6.084 z"
                 style="fill:#ffffff;fill-opacity:1;fill-rule:nonzero;stroke:none"
                 id="path242" />
              <path
                 d="m 87.132,56.036 h -6.084 v 2.833 h 6.084 z"
                 style="fill:#ffffff;fill-opacity:1;fill-rule:nonzero;stroke:none"
                 id="path244" />
              <g
                 transform="translate(204.307,56.1433)"
                 id="g248">
                <path
                   d="M 0,0 H -3.503 V -3.881 H -6.355 V 0 h -3.503 v 2.622 h 3.503 v 3.877 h 2.852 V 2.622 H 0 Z"
                   style="fill:#ffffff;fill-opacity:1;fill-rule:nonzero;stroke:none"
                   id="path246" />
              </g>
              <g
                 transform="translate(127.4481,56.1433)"
                 id="g252">
                <path
                   d="M 0,0 H -3.502 V -3.881 H -6.355 V 0 h -3.502 v 2.622 h 3.502 v 3.877 h 2.853 V 2.622 H 0 Z"
                   style="fill:#ffffff;fill-opacity:1;fill-rule:nonzero;stroke:none"
                   id="path250" />
              </g>
              <g
                 transform="translate(229.8344,62.2917)"
                 id="g256">
                <path
                   d="m 0,0 c -0.435,0.916 -0.86,1.864 -1.285,2.852 -0.42,0.983 -0.819,1.957 -1.203,2.924 -0.379,0.963 -0.727,1.884 -1.045,2.765 -0.317,0.881 -0.594,1.67 -0.824,2.361 h 2.703 c 0.205,-0.63 0.43,-1.311 0.681,-2.038 C -0.722,8.137 -0.465,7.41 -0.209,6.687 0.052,5.966 0.297,5.274 0.538,4.608 0.773,3.948 0.999,3.375 1.219,2.894 1.424,3.375 1.644,3.943 1.89,4.604 2.131,5.27 2.381,5.96 2.643,6.683 c 0.261,0.721 0.512,1.449 0.763,2.176 0.251,0.727 0.476,1.408 0.68,2.043 H 6.699 C 6.458,10.206 6.176,9.417 5.858,8.541 5.541,7.66 5.193,6.739 4.814,5.771 4.435,4.809 4.041,3.83 3.621,2.847 3.201,1.858 2.776,0.911 2.34,0 Z"
                   style="fill:#ef4849;fill-opacity:1;fill-rule:nonzero;stroke:none"
                   id="path254" />
              </g>
              <g
                 transform="translate(242.5141,62.071)"
                 id="g260">
                <path
                   d="m 0,0 c -1.777,0 -3.124,0.492 -4.056,1.48 -0.927,0.983 -1.388,2.386 -1.388,4.2 0,0.901 0.139,1.705 0.425,2.417 0.282,0.706 0.671,1.305 1.163,1.792 0.491,0.486 1.08,0.854 1.761,1.106 0.681,0.25 1.419,0.379 2.218,0.379 0.46,0 0.88,-0.036 1.26,-0.103 0.378,-0.067 0.706,-0.148 0.988,-0.235 0.286,-0.088 0.522,-0.18 0.712,-0.276 0.184,-0.093 0.322,-0.17 0.404,-0.221 L 2.781,8.557 C 2.448,8.736 2.053,8.89 1.607,9.013 1.162,9.141 0.661,9.202 0.092,9.202 -0.287,9.202 -0.656,9.141 -1.019,9.013 -1.378,8.89 -1.7,8.686 -1.977,8.408 -2.253,8.132 -2.479,7.773 -2.648,7.333 -2.812,6.894 -2.898,6.355 -2.898,5.726 c 0,-0.502 0.056,-0.973 0.169,-1.41 0.107,-0.434 0.286,-0.808 0.532,-1.121 0.246,-0.317 0.569,-0.568 0.968,-0.747 0.399,-0.184 0.881,-0.276 1.449,-0.276 0.353,0 0.676,0.02 0.958,0.061 0.281,0.041 0.532,0.092 0.753,0.149 0.22,0.06 0.414,0.122 0.583,0.199 C 2.683,2.653 2.832,2.72 2.97,2.786 L 3.646,0.82 C 3.303,0.609 2.811,0.42 2.187,0.251 1.557,0.082 0.824,0 0,0"
                   style="fill:#ef4849;fill-opacity:1;fill-rule:nonzero;stroke:none"
                   id="path258" />
              </g>
              <g
                 transform="translate(252.3148,62.071)"
                 id="g264">
                <path
                   d="m 0,0 c -1.776,0 -3.124,0.492 -4.056,1.48 -0.926,0.983 -1.387,2.386 -1.387,4.2 0,0.901 0.138,1.705 0.425,2.417 0.281,0.706 0.67,1.305 1.163,1.792 0.491,0.486 1.08,0.854 1.761,1.106 0.681,0.25 1.418,0.379 2.218,0.379 0.46,0 0.88,-0.036 1.259,-0.103 0.379,-0.067 0.707,-0.148 0.988,-0.235 0.287,-0.088 0.523,-0.18 0.712,-0.276 0.185,-0.093 0.323,-0.17 0.405,-0.221 L 2.781,8.557 C 2.448,8.736 2.054,8.89 1.608,9.013 1.163,9.141 0.661,9.202 0.092,9.202 -0.286,9.202 -0.655,9.141 -1.019,9.013 -1.377,8.89 -1.7,8.686 -1.976,8.408 -2.252,8.132 -2.478,7.773 -2.647,7.333 -2.811,6.894 -2.898,6.355 -2.898,5.726 c 0,-0.502 0.057,-0.973 0.169,-1.41 0.107,-0.434 0.287,-0.808 0.533,-1.121 0.245,-0.317 0.568,-0.568 0.967,-0.747 0.399,-0.184 0.881,-0.276 1.449,-0.276 0.354,0 0.676,0.02 0.958,0.061 0.282,0.041 0.532,0.092 0.753,0.149 0.22,0.06 0.415,0.122 0.584,0.199 0.169,0.072 0.317,0.139 0.456,0.205 L 3.646,0.82 C 3.303,0.609 2.812,0.42 2.187,0.251 1.557,0.082 0.825,0 0,0"
                   style="fill:#ef4849;fill-opacity:1;fill-rule:nonzero;stroke:none"
                   id="path262" />
              </g>
              <g
                 transform="translate(164.6268,84.7253)"
                 id="g268">
                <path
                   d="M 0,0 H 1.981 V -10.901 H 0 v 4.828 h -4.737 v -4.828 H -6.719 V 0 h 1.982 V -4.357 H 0 Z"
                   style="fill:#f58837;fill-opacity:1;fill-rule:nonzero;stroke:none"
                   id="path266" />
              </g>
              <g
                 transform="translate(173.6698,77.946)"
                 id="g272">
                <path
                   d="m 0,0 c 0,0.819 -0.179,1.464 -0.527,1.94 -0.354,0.477 -0.845,0.717 -1.47,0.717 -0.63,0 -1.121,-0.24 -1.475,-0.717 C -3.82,1.464 -3.999,0.819 -3.999,0 c 0,-0.83 0.179,-1.485 0.527,-1.966 0.354,-0.481 0.845,-0.722 1.475,-0.722 0.625,0 1.116,0.241 1.47,0.722 C -0.179,-1.485 0,-0.83 0,0 m 1.951,0 c 0,-0.65 -0.097,-1.245 -0.286,-1.777 -0.19,-0.538 -0.456,-0.994 -0.8,-1.372 -0.348,-0.374 -0.762,-0.671 -1.254,-0.881 -0.486,-0.21 -1.024,-0.313 -1.608,-0.313 -0.589,0 -1.127,0.103 -1.608,0.313 -0.481,0.21 -0.896,0.507 -1.244,0.881 -0.343,0.378 -0.615,0.834 -0.809,1.372 C -5.853,-1.245 -5.95,-0.65 -5.95,0 c 0,0.65 0.097,1.239 0.292,1.767 0.194,0.532 0.466,0.983 0.819,1.362 0.353,0.379 0.768,0.671 1.249,0.875 0.482,0.205 1.014,0.308 1.593,0.308 0.574,0 1.106,-0.103 1.592,-0.308 C 0.087,3.8 0.502,3.508 0.85,3.129 1.193,2.75 1.465,2.299 1.659,1.767 1.854,1.239 1.951,0.65 1.951,0"
                   style="fill:#f58837;fill-opacity:1;fill-rule:nonzero;stroke:none"
                   id="path270" />
              </g>
              <g
                 transform="translate(178.7035,75.1912)"
                 id="g276">
                <path
                   d="m 0,0 c 0.502,0 0.871,0.062 1.101,0.184 0.231,0.118 0.348,0.328 0.348,0.62 0,0.271 -0.122,0.497 -0.374,0.675 -0.245,0.18 -0.65,0.375 -1.218,0.584 -0.343,0.124 -0.661,0.256 -0.953,0.4 -0.286,0.143 -0.537,0.308 -0.742,0.497 -0.21,0.188 -0.379,0.414 -0.497,0.681 -0.123,0.271 -0.184,0.599 -0.184,0.983 0,0.758 0.281,1.352 0.834,1.787 0.559,0.435 1.311,0.655 2.269,0.655 0.481,0 0.942,-0.045 1.382,-0.138 C 2.407,6.841 2.74,6.754 2.96,6.672 L 2.612,5.131 C 2.402,5.224 2.136,5.311 1.808,5.387 1.485,5.469 1.106,5.505 0.676,5.505 0.287,5.505 -0.025,5.443 -0.266,5.311 -0.507,5.177 -0.63,4.978 -0.63,4.706 -0.63,4.567 -0.604,4.45 -0.558,4.342 -0.512,4.24 -0.43,4.143 -0.312,4.05 -0.199,3.963 -0.046,3.871 0.144,3.784 0.328,3.696 0.563,3.605 0.835,3.508 1.286,3.344 1.669,3.175 1.982,3.017 2.294,2.852 2.556,2.667 2.76,2.463 2.965,2.258 3.114,2.022 3.211,1.762 3.303,1.5 3.349,1.187 3.349,0.819 3.349,0.03 3.058,-0.563 2.479,-0.968 1.895,-1.367 1.065,-1.572 -0.015,-1.572 c -0.722,0 -1.306,0.061 -1.746,0.178 -0.441,0.123 -0.753,0.221 -0.927,0.292 L -2.36,0.486 C -2.079,0.373 -1.736,0.261 -1.347,0.158 -0.952,0.051 -0.502,0 0,0"
                   style="fill:#f58837;fill-opacity:1;fill-rule:nonzero;stroke:none"
                   id="path274" />
              </g>
              <g
                 transform="translate(182.7953,84.2244)"
                 id="g280">
                <path
                   d="M 0,0 1.905,0.312 V -2.171 H 4.829 V -3.765 H 1.905 v -3.348 c 0,-0.66 0.102,-1.131 0.312,-1.413 0.21,-0.287 0.569,-0.425 1.071,-0.425 0.348,0 0.655,0.035 0.921,0.107 0.267,0.072 0.482,0.143 0.636,0.205 l 0.317,-1.51 C 4.941,-10.242 4.649,-10.34 4.296,-10.441 3.938,-10.539 3.518,-10.59 3.037,-10.59 c -0.589,0 -1.076,0.076 -1.47,0.236 -0.394,0.158 -0.707,0.383 -0.938,0.686 -0.23,0.297 -0.394,0.66 -0.485,1.085 C 0.046,-8.157 0,-7.677 0,-7.129 Z"
                   style="fill:#f58837;fill-opacity:1;fill-rule:nonzero;stroke:none"
                   id="path278" />
              </g>
              <g
                 transform="translate(193.3187,75.4568)"
                 id="g284">
                <path
                   d="m 0,0 c 0.118,-0.01 0.266,-0.015 0.456,-0.021 0.189,-0.004 0.445,-0.009 0.773,-0.009 1.331,0 2.325,0.338 2.98,1.013 0.656,0.681 0.983,1.623 0.983,2.842 0,1.24 -0.322,2.187 -0.963,2.848 C 3.589,7.334 2.602,7.666 1.26,7.666 0.671,7.666 0.25,7.646 0,7.615 Z M 7.266,3.825 C 7.266,2.883 7.123,2.059 6.826,1.362 6.534,0.666 6.12,0.082 5.576,-0.384 5.039,-0.85 4.389,-1.198 3.625,-1.423 2.867,-1.648 2.022,-1.761 1.101,-1.761 c -0.441,0 -0.937,0.02 -1.496,0.056 -0.553,0.036 -1.085,0.112 -1.587,0.23 V 9.11 c 0.502,0.119 1.04,0.19 1.603,0.22 0.568,0.031 1.07,0.047 1.511,0.047 0.911,0 1.746,-0.108 2.504,-0.323 C 4.389,8.839 5.039,8.506 5.576,8.051 6.12,7.595 6.534,7.016 6.826,6.319 7.123,5.623 7.266,4.788 7.266,3.825"
                   style="fill:#f58837;fill-opacity:1;fill-rule:nonzero;stroke:none"
                   id="path282" />
              </g>
              <g
                 transform="translate(83.7377,85.4685)"
                 id="g288">
                <path
                   d="m 0,0 v -1.716 h -3.354 v -9.186 h -1.998 v 9.186 H -8.7 V 0 Z"
                   style="fill:#ffffff;fill-opacity:1;fill-rule:nonzero;stroke:none"
                   id="path286" />
              </g>
              <g
                 transform="translate(86.7899,75.9031)"
                 id="g292">
                <path
                   d="M 0,0 C 0.583,0 1.029,0.03 1.336,0.097 V 2.201 C 1.229,2.232 1.08,2.263 0.88,2.299 0.681,2.329 0.461,2.345 0.22,2.345 0.01,2.345 -0.205,2.329 -0.42,2.299 -0.635,2.263 -0.825,2.207 -0.999,2.125 -1.173,2.038 -1.311,1.92 -1.418,1.771 -1.521,1.618 -1.572,1.429 -1.572,1.198 -1.572,0.747 -1.434,0.435 -1.147,0.261 -0.866,0.087 -0.481,0 0,0 m -0.159,7.097 c 0.63,0 1.158,-0.081 1.587,-0.236 C 1.859,6.703 2.202,6.482 2.463,6.195 2.719,5.914 2.903,5.571 3.011,5.167 3.124,4.762 3.174,4.321 3.174,3.84 V -1.147 C 2.883,-1.209 2.437,-1.285 1.848,-1.378 1.254,-1.465 0.583,-1.511 -0.159,-1.511 c -0.492,0 -0.942,0.046 -1.352,0.144 -0.409,0.092 -0.758,0.245 -1.044,0.455 -0.293,0.21 -0.518,0.481 -0.681,0.819 -0.16,0.333 -0.241,0.748 -0.241,1.239 0,0.477 0.092,0.872 0.276,1.199 0.18,0.323 0.43,0.589 0.748,0.794 0.312,0.205 0.676,0.353 1.091,0.44 0.414,0.087 0.844,0.133 1.3,0.133 0.205,0 0.425,-0.01 0.661,-0.041 C 0.83,3.646 1.075,3.604 1.336,3.538 v 0.317 c 0,0.22 -0.025,0.431 -0.077,0.63 C 1.203,4.686 1.111,4.859 0.983,5.013 0.85,5.161 0.676,5.279 0.461,5.366 0.245,5.448 -0.021,5.489 -0.348,5.489 -0.789,5.489 -1.193,5.458 -1.557,5.396 -1.926,5.336 -2.223,5.259 -2.453,5.177 l -0.241,1.542 c 0.246,0.081 0.594,0.169 1.055,0.25 0.461,0.082 0.958,0.128 1.48,0.128"
                   style="fill:#ffffff;fill-opacity:1;fill-rule:nonzero;stroke:none"
                   id="path290" />
              </g>
              <g
                 transform="translate(96.35,81.0798)"
                 id="g296">
                <path
                   d="M 0,0 C -0.159,0.052 -0.374,0.107 -0.65,0.164 -0.932,0.22 -1.254,0.251 -1.618,0.251 -1.828,0.251 -2.053,0.23 -2.289,0.189 -2.524,0.144 -2.688,0.107 -2.785,0.077 v -6.591 h -1.9 v 7.835 c 0.363,0.133 0.824,0.266 1.372,0.384 0.553,0.123 1.163,0.18 1.834,0.18 0.127,0 0.271,-0.006 0.44,-0.021 C -0.87,1.849 -0.702,1.828 -0.532,1.803 -0.369,1.771 -0.204,1.741 -0.046,1.705 0.113,1.67 0.236,1.634 0.333,1.603 Z"
                   style="fill:#ffffff;fill-opacity:1;fill-rule:nonzero;stroke:none"
                   id="path294" />
              </g>
              <g
                 transform="translate(98.87,78.8933)"
                 id="g300">
                <path
                   d="m 0,0 c 0,-0.81 0.179,-1.398 0.527,-1.772 0.354,-0.374 0.804,-0.558 1.362,-0.558 0.303,0 0.589,0.041 0.855,0.128 0.272,0.082 0.487,0.184 0.656,0.297 V 2.36 C 3.262,2.392 3.098,2.417 2.898,2.442 2.698,2.474 2.448,2.483 2.14,2.483 1.449,2.483 0.922,2.259 0.553,1.803 0.184,1.342 0,0.742 0,0 m 5.305,-3.492 c 0,-1.312 -0.333,-2.275 -0.998,-2.878 -0.672,-0.609 -1.691,-0.917 -3.063,-0.917 -0.502,0 -0.994,0.047 -1.47,0.128 -0.476,0.082 -0.911,0.195 -1.3,0.333 l 0.348,1.618 c 0.323,-0.138 0.697,-0.246 1.111,-0.333 0.41,-0.082 0.86,-0.123 1.341,-0.123 0.769,0 1.311,0.159 1.639,0.472 0.323,0.312 0.487,0.783 0.487,1.397 v 0.317 C 3.21,-3.574 2.959,-3.667 2.652,-3.759 2.345,-3.855 1.987,-3.902 1.592,-3.902 c -0.527,0 -1.003,0.082 -1.439,0.251 -0.435,0.169 -0.809,0.415 -1.121,0.738 -0.307,0.327 -0.548,0.731 -0.722,1.223 -0.174,0.487 -0.261,1.049 -0.261,1.69 0,0.6 0.092,1.147 0.276,1.649 0.184,0.506 0.451,0.937 0.804,1.29 0.349,0.359 0.779,0.635 1.28,0.834 0.508,0.201 1.076,0.298 1.716,0.298 0.619,0 1.208,-0.046 1.761,-0.138 0.558,-0.097 1.03,-0.195 1.419,-0.302 z"
                   style="fill:#ffffff;fill-opacity:1;fill-rule:nonzero;stroke:none"
                   id="path298" />
              </g>
              <g
                 transform="translate(111.0316,79.4929)"
                 id="g304">
                <path
                   d="m 0,0 c 0,0.261 -0.036,0.507 -0.113,0.742 -0.071,0.24 -0.179,0.441 -0.322,0.614 -0.139,0.175 -0.313,0.313 -0.517,0.411 -0.205,0.101 -0.451,0.148 -0.733,0.148 -0.292,0 -0.548,-0.052 -0.773,-0.164 C -2.678,1.643 -2.863,1.494 -3.016,1.32 -3.165,1.142 -3.283,0.937 -3.37,0.706 -3.452,0.476 -3.508,0.24 -3.539,0 Z m -5.525,-0.851 c 0,0.723 0.107,1.358 0.322,1.901 0.215,0.548 0.502,0.998 0.861,1.361 0.353,0.364 0.762,0.635 1.223,0.819 0.467,0.185 0.937,0.277 1.419,0.277 1.132,0 2.018,-0.354 2.653,-1.055 C 1.583,1.751 1.9,0.701 1.9,-0.696 1.9,-0.8 1.9,-0.917 1.895,-1.05 1.89,-1.178 1.879,-1.296 1.869,-1.403 h -5.428 c 0.056,-0.661 0.287,-1.173 0.702,-1.532 0.415,-0.363 1.014,-0.543 1.802,-0.543 0.461,0 0.881,0.041 1.265,0.124 0.384,0.086 0.686,0.173 0.906,0.265 L 1.368,-4.646 C 1.26,-4.696 1.116,-4.753 0.937,-4.809 0.753,-4.865 0.542,-4.916 0.307,-4.968 0.072,-5.014 -0.184,-5.055 -0.456,-5.086 c -0.276,-0.03 -0.553,-0.046 -0.835,-0.046 -0.722,0 -1.352,0.109 -1.889,0.323 -0.532,0.215 -0.973,0.512 -1.321,0.896 -0.343,0.384 -0.604,0.835 -0.769,1.352 -0.168,0.522 -0.255,1.091 -0.255,1.71"
                   style="fill:#ffffff;fill-opacity:1;fill-rule:nonzero;stroke:none"
                   id="path302" />
              </g>
              <g
                 transform="translate(114.2221,84.9666)"
                 id="g308">
                <path
                   d="M 0,0 1.905,0.312 V -2.171 H 4.829 V -3.764 H 1.905 v -3.348 c 0,-0.661 0.102,-1.132 0.312,-1.414 0.21,-0.287 0.569,-0.425 1.071,-0.425 0.348,0 0.655,0.036 0.921,0.107 0.266,0.073 0.481,0.144 0.635,0.205 l 0.318,-1.51 c -0.221,-0.092 -0.513,-0.19 -0.866,-0.292 -0.358,-0.097 -0.778,-0.149 -1.259,-0.149 -0.589,0 -1.076,0.076 -1.471,0.236 -0.394,0.159 -0.706,0.384 -0.937,0.686 -0.23,0.297 -0.394,0.66 -0.485,1.086 C 0.046,-8.157 0,-7.676 0,-7.129 Z"
                   style="fill:#ffffff;fill-opacity:1;fill-rule:nonzero;stroke:none"
                   id="path306" />
              </g>
              <g
                 transform="translate(125.3754,76.2)"
                 id="g312">
                <path
                   d="m 0,0 c 0.117,-0.011 0.266,-0.016 0.456,-0.021 0.189,-0.004 0.445,-0.01 0.773,-0.01 1.332,0 2.325,0.338 2.98,1.013 0.655,0.682 0.983,1.624 0.983,2.843 0,1.239 -0.322,2.187 -0.963,2.847 C 3.589,7.333 2.601,7.666 1.259,7.666 0.67,7.666 0.25,7.646 0,7.614 Z M 7.266,3.825 C 7.266,2.883 7.123,2.059 6.826,1.362 6.534,0.665 6.119,0.082 5.576,-0.385 5.039,-0.851 4.388,-1.198 3.625,-1.424 2.867,-1.649 2.022,-1.762 1.101,-1.762 c -0.441,0 -0.937,0.021 -1.496,0.056 -0.553,0.036 -1.085,0.113 -1.587,0.231 V 9.109 c 0.502,0.119 1.04,0.19 1.603,0.221 0.568,0.03 1.07,0.046 1.51,0.046 0.912,0 1.746,-0.107 2.504,-0.322 C 4.388,8.838 5.039,8.505 5.576,8.05 6.119,7.594 6.534,7.015 6.826,6.318 7.123,5.622 7.266,4.787 7.266,3.825"
                   style="fill:#ffffff;fill-opacity:1;fill-rule:nonzero;stroke:none"
                   id="path310" />
              </g>
              <g
                 transform="translate(32.9135,71.0378)"
                 id="g316">
                <path
                   d="m 0,0 c 0.169,0 0.343,-0.005 0.522,-0.011 0.18,-0.004 0.343,-0.014 0.502,-0.035 V -6.938 C 0.906,-6.949 0.773,-6.954 0.625,-6.959 c -0.154,-0.01 -0.333,-0.01 -0.543,-0.01 -1.229,0 -2.141,0.307 -2.729,0.927 -0.595,0.619 -0.891,1.475 -0.891,2.565 0,1.142 0.281,2.007 0.85,2.596 C -2.12,-0.292 -1.224,0 0,0"
                   style="fill:#ffffff;fill-opacity:1;fill-rule:nonzero;stroke:none"
                   id="path314" />
              </g>
              <g
                 transform="translate(59.3578,65.0925)"
                 id="g320">
                <path
                   d="M 0,0 C -0.292,-0.707 -0.707,-1.285 -1.25,-1.746 -1.788,-2.207 -2.448,-2.555 -3.221,-2.785 -4,-3.016 -4.871,-3.134 -5.833,-3.134 c -0.44,0 -0.958,0.021 -1.542,0.057 -0.588,0.035 -1.167,0.112 -1.73,0.23 V 7.769 c 0.563,0.107 1.157,0.178 1.767,0.214 0.614,0.037 1.141,0.051 1.582,0.051 0.932,0 1.782,-0.101 2.54,-0.311 0.763,-0.21 1.413,-0.538 1.961,-0.994 C -0.712,6.278 -0.292,5.705 0,5.003 0.297,4.297 0.44,3.451 0.44,2.469 0.44,1.526 0.297,0.702 0,0 m -11.62,-2.99 h -2.063 c -0.702,1.25 -1.459,2.478 -2.279,3.697 -0.819,1.214 -1.69,2.366 -2.611,3.446 V -2.99 h -2.423 V 7.912 h 1.997 c 0.343,-0.349 0.728,-0.773 1.148,-1.275 0.419,-0.502 0.85,-1.039 1.285,-1.614 0.43,-0.568 0.865,-1.162 1.295,-1.776 0.431,-0.614 0.835,-1.203 1.214,-1.771 v 6.436 h 2.437 z m -11.66,0.363 c -0.292,-0.117 -0.768,-0.24 -1.418,-0.374 -0.65,-0.128 -1.449,-0.194 -2.407,-0.194 -0.814,0 -1.557,0.129 -2.222,0.379 -0.666,0.251 -1.235,0.62 -1.711,1.101 -0.47,0.482 -0.835,1.075 -1.09,1.777 -0.256,0.701 -0.384,1.505 -0.384,2.407 0,0.911 0.137,1.719 0.425,2.422 0.281,0.701 0.67,1.3 1.162,1.787 0.491,0.486 1.071,0.855 1.737,1.106 0.665,0.25 1.376,0.379 2.135,0.379 0.511,0 0.977,-0.036 1.387,-0.102 0.415,-0.067 0.773,-0.149 1.07,-0.236 0.303,-0.087 0.548,-0.179 0.743,-0.276 0.194,-0.093 0.333,-0.17 0.415,-0.221 l -0.707,-1.966 c -0.338,0.179 -0.722,0.333 -1.157,0.465 -0.435,0.129 -0.912,0.195 -1.424,0.195 -1.142,0 -1.966,-0.317 -2.479,-0.952 -0.506,-0.635 -0.762,-1.501 -0.762,-2.601 0,-0.532 0.066,-1.02 0.189,-1.454 0.129,-0.436 0.318,-0.81 0.569,-1.127 0.251,-0.313 0.563,-0.559 0.941,-0.733 0.38,-0.169 0.82,-0.256 1.322,-0.256 0.271,0 0.507,0.005 0.702,0.016 0.194,0.01 0.363,0.03 0.512,0.062 v 3.789 h 2.452 z M 6.42,23.5 H 81.061 V 4.573 H 6.42 Z m 0,-21.549 H 42.424 V -16.975 H 6.42 Z m 38.626,0 H 81.061 V -16.975 H 45.046 Z M 83.683,23.5 H 158.58 V 4.573 H 83.683 Z m 0,-21.549 h 36.02 v -18.926 h -36.02 z m 38.642,0 H 158.58 V -16.975 H 122.325 Z M 161.202,23.5 h 29.675 c 5.019,0 9.1,-4.081 9.1,-9.095 V -7.881 c 0,-5.013 -4.081,-9.094 -9.1,-9.094 H 161.202 Z M -37.85,14.405 V -7.881 c 0,-6.462 5.254,-11.716 11.717,-11.716 h 217.01 c 6.463,0 11.722,5.254 11.722,11.716 v 22.286 c 0,6.463 -5.259,11.717 -11.722,11.717 h -217.01 c -6.463,0 -11.717,-5.254 -11.717,-11.717"
                   style="fill:#ffffff;fill-opacity:1;fill-rule:nonzero;stroke:none"
                   id="path318" />
              </g>
            </g>
          </g>
        </g>
        <g
           id="g326"
           transform="translate(53.768,71.0281)">
          <path
             d="m 0,0 c -0.169,0 -0.343,-0.006 -0.522,-0.011 -0.18,-0.005 -0.343,-0.015 -0.502,-0.035 v -6.892 c 0.118,-0.011 0.251,-0.016 0.399,-0.021 0.154,-0.011 0.333,-0.011 0.543,-0.011 1.229,0 2.141,0.308 2.729,0.927 0.595,0.62 0.892,1.475 0.892,2.565 0,1.143 -0.282,2.008 -0.851,2.597 C 2.12,-0.292 1.224,0 0,0"
             style="fill:#ffffff;fill-opacity:1;fill-rule:nonzero;stroke:none"
             id="path328" />
        </g>
        <g
           id="g330"
           transform="translate(241.3173,23.2224)">
          <path
             d="M 0,0 H -2.187 V 7.328 C -2.481,7.132 -2.811,6.953 -3.171,6.793 -3.535,6.63 -3.886,6.491 -4.228,6.372 l -0.662,1.69 c 0.285,0.117 0.581,0.251 0.889,0.404 0.309,0.15 0.609,0.317 0.903,0.499 0.294,0.181 0.574,0.373 0.844,0.574 0.27,0.198 0.512,0.413 0.727,0.638 H 0 Z m -1.751,15.995 c -6.024,0 -10.907,-4.883 -10.907,-10.907 0,-6.024 4.883,-10.906 10.907,-10.906 6.023,0 10.907,4.882 10.907,10.906 0,6.024 -4.884,10.907 -10.907,10.907"
             style="fill:#ffffff;fill-opacity:1;fill-rule:nonzero;stroke:none"
             id="path332" />
        </g>
        <g
           id="g334"
           transform="translate(204.0814,23.1052)">
          <path
             d="m 0,0 h -6.783 c -0.019,0.107 -0.029,0.243 -0.029,0.411 v 0.352 c 0,0.47 0.074,0.9 0.227,1.293 0.15,0.391 0.349,0.757 0.595,1.094 0.244,0.337 0.521,0.653 0.83,0.947 0.308,0.294 0.614,0.588 0.917,0.882 0.235,0.224 0.454,0.437 0.66,0.637 0.206,0.201 0.387,0.398 0.545,0.589 0.155,0.191 0.277,0.382 0.366,0.57 0.088,0.192 0.133,0.386 0.133,0.581 0,0.431 -0.124,0.735 -0.367,0.912 -0.244,0.176 -0.55,0.264 -0.911,0.264 -0.266,0 -0.512,-0.043 -0.741,-0.126 C -4.79,8.324 -5,8.227 -5.189,8.114 -5.38,8 -5.545,7.888 -5.682,7.775 -5.82,7.662 -5.923,7.571 -5.99,7.505 l -1.087,1.527 c 0.43,0.4 0.932,0.732 1.506,0.989 0.571,0.261 1.185,0.39 1.842,0.39 0.598,0 1.112,-0.069 1.542,-0.205 0.43,-0.137 0.786,-0.33 1.063,-0.581 0.28,-0.249 0.486,-0.552 0.617,-0.911 0.134,-0.356 0.198,-0.76 0.198,-1.209 0,-0.373 -0.071,-0.732 -0.219,-1.073 C -0.674,6.09 -0.865,5.758 -1.1,5.439 -1.336,5.122 -1.599,4.816 -1.893,4.521 -2.187,4.228 -2.476,3.951 -2.761,3.686 -2.906,3.549 -3.066,3.394 -3.236,3.224 -3.408,3.052 -3.573,2.878 -3.729,2.7 -3.886,2.526 -4.025,2.361 -4.147,2.211 -4.269,2.058 -4.345,1.934 -4.374,1.835 H 0 Z m -3.539,16.112 c -6.024,0 -10.907,-4.883 -10.907,-10.907 0,-6.023 4.883,-10.906 10.907,-10.906 6.024,0 10.907,4.883 10.907,10.906 0,6.024 -4.883,10.907 -10.907,10.907"
             style="fill:#ffffff;fill-opacity:1;fill-rule:nonzero;stroke:none"
             id="path336" />
        </g>
        <g
           id="g338"
           transform="translate(164.7997,24.9431)">
          <path
             d="m 0,0 c -0.155,-0.396 -0.401,-0.741 -0.733,-1.03 -0.333,-0.289 -0.756,-0.514 -1.27,-0.676 -0.514,-0.16 -1.123,-0.241 -1.828,-0.241 -0.266,0 -0.543,0.016 -0.836,0.05 -0.295,0.036 -0.579,0.081 -0.854,0.14 -0.272,0.058 -0.523,0.122 -0.748,0.192 -0.225,0.067 -0.401,0.131 -0.528,0.188 l 0.425,1.821 c 0.253,-0.107 0.581,-0.221 0.976,-0.343 0.396,-0.122 0.888,-0.184 1.477,-0.184 0.676,0 1.168,0.126 1.483,0.382 0.314,0.254 0.469,0.597 0.469,1.028 0,0.265 -0.055,0.487 -0.17,0.669 -0.112,0.179 -0.265,0.327 -0.461,0.44 -0.196,0.112 -0.428,0.191 -0.698,0.234 -0.27,0.046 -0.554,0.067 -0.858,0.067 h -0.853 v 1.761 h 0.97 c 0.215,0 0.423,0.02 0.624,0.061 0.201,0.038 0.38,0.104 0.536,0.198 0.157,0.091 0.282,0.22 0.375,0.38 0.093,0.162 0.138,0.365 0.138,0.609 0,0.187 -0.038,0.349 -0.117,0.485 C -2.56,6.367 -2.66,6.479 -2.782,6.568 -2.904,6.657 -3.045,6.724 -3.208,6.767 -3.37,6.812 -3.532,6.834 -3.7,6.834 -4.121,6.834 -4.51,6.77 -4.866,6.643 -5.225,6.516 -5.55,6.358 -5.844,6.172 l -0.779,1.601 c 0.158,0.098 0.342,0.201 0.552,0.308 0.211,0.107 0.443,0.206 0.698,0.294 0.253,0.089 0.526,0.163 0.815,0.22 0.287,0.06 0.596,0.089 0.918,0.089 0.595,0 1.114,-0.072 1.549,-0.213 0.435,-0.141 0.796,-0.342 1.078,-0.6 C -0.729,7.61 -0.519,7.307 -0.38,6.96 -0.244,6.613 -0.174,6.236 -0.174,5.825 -0.174,5.424 -0.287,5.036 -0.514,4.658 -0.738,4.283 -1.042,3.996 -1.424,3.801 -0.894,3.585 -0.485,3.266 -0.198,2.837 0.091,2.412 0.237,1.9 0.237,1.301 0.237,0.83 0.158,0.397 0,0 m -3.28,14.274 c -6.024,0 -10.907,-4.882 -10.907,-10.906 0,-6.024 4.883,-10.907 10.907,-10.907 6.024,0 10.907,4.883 10.907,10.907 0,6.024 -4.883,10.906 -10.907,10.906"
             style="fill:#ffffff;fill-opacity:1;fill-rule:nonzero;stroke:none"
             id="path340" />
        </g>
        <g
           id="g342"
           transform="translate(120.0756,27.9841)">
          <path
             d="M 0,0 H 2.306 V 3.438 C 1.924,2.938 1.518,2.393 1.087,1.807 0.657,1.219 0.294,0.617 0,0"
             style="fill:#ffffff;fill-opacity:1;fill-rule:nonzero;stroke:none"
             id="path344" />
        </g>
        <g
           id="g346"
           transform="translate(125.6132,26.1912)">
          <path
             d="M 0,0 H -1.087 V -2.275 H -3.231 V 0 h -4.391 v 1.602 c 0.215,0.43 0.485,0.918 0.808,1.461 0.323,0.544 0.681,1.101 1.078,1.674 0.397,0.572 0.815,1.134 1.257,1.681 0.44,0.55 0.88,1.042 1.322,1.484 h 2.07 V 1.793 l 1.087,0 z m -3.117,13.026 c -6.024,0 -10.907,-4.882 -10.907,-10.906 0,-6.024 4.883,-10.907 10.907,-10.907 6.024,0 10.907,4.883 10.907,10.907 0,6.024 -4.883,10.906 -10.907,10.906"
             style="fill:#ffffff;fill-opacity:1;fill-rule:nonzero;stroke:none"
             id="path348" />
        </g>
        <g
           id="g350"
           transform="translate(86.6825,25.0935)">
          <path
             d="m 0,0 c -0.167,-0.401 -0.416,-0.748 -0.748,-1.042 -0.335,-0.294 -0.753,-0.523 -1.257,-0.69 -0.505,-0.165 -1.095,-0.249 -1.769,-0.249 -0.266,0 -0.542,0.016 -0.83,0.05 -0.289,0.035 -0.568,0.078 -0.838,0.134 -0.268,0.052 -0.512,0.11 -0.727,0.167 -0.215,0.06 -0.38,0.117 -0.499,0.177 l 0.397,1.807 c 0.246,-0.108 0.568,-0.212 0.97,-0.316 0.401,-0.102 0.882,-0.155 1.439,-0.155 0.676,0 1.164,0.134 1.467,0.404 0.304,0.27 0.457,0.585 0.457,0.946 0,0.285 -0.065,0.538 -0.191,0.758 -0.127,0.22 -0.347,0.405 -0.663,0.55 -0.313,0.148 -0.733,0.261 -1.262,0.339 -0.528,0.077 -1.195,0.117 -1.995,0.117 0.107,0.911 0.193,1.836 0.262,2.775 0.07,0.94 0.122,1.822 0.163,2.644 h 5.507 V 6.58 H -3.789 C -3.81,6.227 -3.832,5.887 -3.855,5.56 -3.879,5.232 -3.905,4.945 -3.937,4.699 -2.507,4.602 -1.451,4.267 -0.772,3.693 -0.091,3.122 0.249,2.326 0.249,1.308 0.249,0.837 0.165,0.401 0,0 m -3.21,14.124 c -6.024,0 -10.907,-4.883 -10.907,-10.907 0,-6.024 4.883,-10.906 10.907,-10.906 6.024,0 10.907,4.882 10.907,10.906 0,6.024 -4.883,10.907 -10.907,10.907"
             style="fill:#ffffff;fill-opacity:1;fill-rule:nonzero;stroke:none"
             id="path352" />
        </g>
        <g
           id="g354"
           transform="translate(44.2865,28.075)">
          <path
             d="m 0,0 c -0.215,0 -0.444,-0.019 -0.688,-0.06 -0.247,-0.038 -0.437,-0.092 -0.574,-0.16 0,-0.04 -0.002,-0.097 -0.007,-0.176 -0.005,-0.08 -0.007,-0.146 -0.007,-0.206 0,-0.351 0.024,-0.686 0.074,-0.999 0.048,-0.313 0.131,-0.588 0.248,-0.822 0.118,-0.234 0.275,-0.419 0.471,-0.55 0.196,-0.133 0.44,-0.198 0.734,-0.198 0.244,0 0.452,0.05 0.624,0.152 0.172,0.103 0.313,0.235 0.425,0.39 0.113,0.158 0.196,0.33 0.251,0.522 0.053,0.19 0.079,0.375 0.079,0.551 0,0.5 -0.124,0.882 -0.373,1.153 C 1.006,-0.134 0.588,0 0,0"
             style="fill:#ffffff;fill-opacity:1;fill-rule:nonzero;stroke:none"
             id="path356" />
        </g>
        <g
           id="g358"
           transform="translate(47.8788,25.3435)">
          <path
             d="m 0,0 c -0.143,-0.411 -0.358,-0.784 -0.647,-1.116 -0.29,-0.332 -0.655,-0.608 -1.1,-0.822 -0.447,-0.215 -0.973,-0.323 -1.58,-0.323 -1.224,0 -2.153,0.387 -2.789,1.159 -0.638,0.775 -0.956,1.84 -0.956,3.203 0,0.977 0.153,1.845 0.456,2.598 0.304,0.755 0.737,1.389 1.301,1.903 0.561,0.513 1.242,0.905 2.041,1.173 0.795,0.27 1.694,0.409 2.693,0.42 0.019,-0.302 0.039,-0.599 0.06,-0.888 C -0.502,7.018 -0.482,6.716 -0.463,6.403 -0.963,6.394 -1.429,6.346 -1.867,6.265 -2.301,6.181 -2.698,6.05 -3.054,5.875 -3.413,5.698 -3.724,5.471 -3.986,5.191 -4.252,4.911 -4.458,4.572 -4.603,4.171 c 0.215,0.098 0.435,0.167 0.66,0.205 0.224,0.038 0.435,0.06 0.63,0.06 0.636,0 1.179,-0.086 1.624,-0.258 0.444,-0.172 0.81,-0.405 1.094,-0.699 C -0.311,3.186 -0.105,2.844 0.021,2.452 0.148,2.061 0.213,1.645 0.213,1.204 0.213,0.812 0.141,0.411 0,0 m -3.43,13.874 c -6.024,0 -10.906,-4.883 -10.906,-10.907 0,-6.024 4.882,-10.906 10.906,-10.906 6.024,0 10.908,4.882 10.908,10.906 0,6.024 -4.884,10.907 -10.908,10.907"
             style="fill:#ffffff;fill-opacity:1;fill-rule:nonzero;stroke:none"
             id="path360" />
        </g>
      </g>
    </g>
  </g>
</svg>
