<svg xmlns="http://www.w3.org/2000/svg" viewBox="0 0 283.46 170.08"><defs><style>.cls-1,.cls-6{fill:none;}.cls-1{stroke:#000;stroke-linecap:round;stroke-linejoin:round;stroke-width:0.3px;}.cls-2{isolation:isolate;}.cls-3{fill:#2a2b2a;}.cls-4{fill:#ef4849;}.cls-5{fill:#f58837;}</style></defs><g id="Layer_2" data-name="Layer 2"><g id="Layer_3" data-name="Layer 3"><path class="cls-1" d="M185.21,39.26a1.81,1.81,0,0,0-1.8,1.8"/><line class="cls-1" x1="183.49" y1="48.31" x2="183.49" y2="41.1"/><path class="cls-1" d="M202.28,41.06a1.81,1.81,0,0,0-1.81-1.8"/><line class="cls-1" x1="185.25" y1="39.26" x2="200.51" y2="39.26"/><path class="cls-1" d="M183.41,48.27a1.81,1.81,0,0,0,1.8,1.81"/><line class="cls-1" x1="200.51" y1="50.15" x2="185.25" y2="50.15"/><path class="cls-1" d="M200.47,50.08a1.81,1.81,0,0,0,1.81-1.81"/><line class="cls-1" x1="202.35" y1="41.1" x2="202.35" y2="48.31"/><path class="cls-1" d="M218.52,59.88a19.06,19.06,0,1,0,0-38.09"/><line class="cls-1" x1="45.59" y1="21.85" x2="218.53" y2="21.85"/><path class="cls-1" d="M45.52,21.79a19.06,19.06,0,1,0-.66,38.1"/><line class="cls-1" x1="218.53" y1="59.97" x2="44.9" y2="59.97"/><path class="cls-1" d="M45.59,17.42a23.42,23.42,0,1,0-.73,46.84"/><line class="cls-1" x1="45.59" y1="21.85" x2="45.59" y2="17.48"/><polyline class="cls-1" points="218.53 21.85 218.46 17.48 45.59 17.48"/><path class="cls-1" d="M218.45,64.33a23.43,23.43,0,1,0,0-46.84"/><polyline class="cls-1" points="218.53 59.97 218.46 64.34 44.9 64.34"/><line class="cls-1" x1="220.68" y1="64.34" x2="219.99" y2="64.34"/><line class="cls-1" x1="219.99" y1="17.48" x2="220.68" y2="17.48"/><line class="cls-1" x1="186.4" y1="39.64" x2="184.94" y2="39.64"/><line class="cls-1" x1="201.59" y1="39.64" x2="200.89" y2="39.64"/><line class="cls-1" x1="184.94" y1="39.64" x2="184.94" y2="39.34"/><polyline class="cls-1" points="186.4 39.65 186.4 47.93 200.9 47.93 200.9 46.85"/><line class="cls-1" x1="187.09" y1="47.93" x2="187.09" y2="39.64"/><polyline class="cls-1" points="200.9 39.65 199.05 39.65 197.21 39.65 195.45 39.65 193.61 39.65"/><polyline class="cls-1" points="193.61 46.85 195.45 46.85 197.21 46.85"/><polyline class="cls-1" points="197.21 46.85 199.05 46.85 200.9 46.85"/><line class="cls-1" x1="195.45" y1="39.64" x2="195.45" y2="46.85"/><line class="cls-1" x1="193.61" y1="39.64" x2="193.61" y2="46.85"/><line class="cls-1" x1="199.05" y1="46.85" x2="199.05" y2="39.64"/><line class="cls-1" x1="200.89" y1="46.85" x2="200.89" y2="39.64"/><line class="cls-1" x1="197.21" y1="46.85" x2="197.21" y2="39.64"/><line class="cls-1" x1="184.94" y1="39.64" x2="184.94" y2="39.34"/><line class="cls-1" x1="201.59" y1="39.64" x2="200.89" y2="39.64"/><line class="cls-1" x1="193.61" y1="39.64" x2="184.94" y2="39.64"/><line class="cls-1" x1="119.75" y1="42.64" x2="119.75" y2="40.1"/><polyline class="cls-1" points="145.06 40.1 145.06 42.64 143.6 42.64 121.21 42.64 119.75 42.64"/><polyline class="cls-1" points="119.75 40.1 121.21 40.1 143.6 40.1 145.06 40.1"/><polyline class="cls-1" points="143.3 42.1 143.3 40.64 121.52 40.64 121.52 42.1 143.3 42.1"/><line class="cls-1" x1="143.6" y1="40.1" x2="143.3" y2="40.64"/><line class="cls-1" x1="143.3" y1="42.1" x2="143.6" y2="42.64"/><line class="cls-1" x1="121.52" y1="40.64" x2="121.21" y2="40.1"/><line class="cls-1" x1="121.21" y1="42.64" x2="121.52" y2="42.1"/><line class="cls-1" x1="144.06" y1="37.11" x2="120.75" y2="37.11"/><path class="cls-1" d="M120.71,37a3.1,3.1,0,0,0-3.1,3.1"/><line class="cls-1" x1="117.68" y1="40.18" x2="117.68" y2="42.56"/><path class="cls-1" d="M117.61,42.52a3.1,3.1,0,0,0,3.1,3.11"/><line class="cls-1" x1="120.75" y1="45.63" x2="144.06" y2="45.63"/><path class="cls-1" d="M144,45.63a3.1,3.1,0,0,0,3.1-3.11"/><line class="cls-1" x1="147.13" y1="42.56" x2="147.13" y2="40.18"/><path class="cls-1" d="M147.13,40.14A3.1,3.1,0,0,0,144,37"/><rect class="cls-1" x="49.09" y="35.53" width="5.83" height="5.83"/><rect class="cls-1" x="94.52" y="35.53" width="5.83" height="5.83"/><rect class="cls-1" x="85.43" y="35.53" width="5.83" height="5.83"/><rect class="cls-1" x="76.35" y="35.53" width="5.83" height="5.83"/><rect class="cls-1" x="67.26" y="35.53" width="5.83" height="5.83"/><rect class="cls-1" x="58.18" y="35.53" width="5.83" height="5.83"/><rect class="cls-1" x="46.12" y="33.19" width="57.19" height="10.52"/><g class="cls-2"><path class="cls-3" d="M164,114h-6.08v-2.83H164Z"/><path class="cls-3" d="M87.13,114H81.05v-2.83h6.08Z"/><path class="cls-3" d="M204.31,113.93H200.8v3.89H198v-3.89h-3.5v-2.62H198v-3.87h2.85v3.87h3.51Z"/><path class="cls-3" d="M127.45,113.93H124v3.89h-2.86v-3.89h-3.5v-2.62h3.5v-3.87H124v3.87h3.5Z"/><path class="cls-4" d="M229.83,107.79c-.43-.92-.86-1.87-1.28-2.85s-.82-2-1.2-2.93-.73-1.88-1-2.76-.59-1.67-.82-2.37h2.7c.21.63.43,1.32.68,2s.51,1.46.76,2.18.51,1.41.75,2.08.46,1.23.68,1.71c.21-.48.43-1,.67-1.71s.5-1.35.76-2.08.51-1.44.76-2.17.48-1.41.68-2.05h2.61q-.36,1.05-.84,2.37c-.31.88-.66,1.8-1,2.77s-.78,1.94-1.19,2.92-.85,1.94-1.29,2.85Z"/><path class="cls-4" d="M242.51,108a5.29,5.29,0,0,1-4-1.48,5.9,5.9,0,0,1-1.39-4.2,6.37,6.37,0,0,1,.43-2.42,5.18,5.18,0,0,1,1.16-1.79A4.8,4.8,0,0,1,240.42,97a6.39,6.39,0,0,1,2.22-.38,8.09,8.09,0,0,1,2.25.34,4.57,4.57,0,0,1,.71.28l.4.22-.71,2a5.44,5.44,0,0,0-2.68-.64,3.59,3.59,0,0,0-1.12.18,2.54,2.54,0,0,0-1,.61,3,3,0,0,0-.67,1.07,4.5,4.5,0,0,0-.25,1.61,5.74,5.74,0,0,0,.16,1.41,2.85,2.85,0,0,0,.54,1.12,2.48,2.48,0,0,0,1,.75,3.54,3.54,0,0,0,1.45.28,5.54,5.54,0,0,0,1-.07c.28,0,.53-.09.75-.14s.42-.13.59-.2l.45-.21.68,2a5.68,5.68,0,0,1-1.46.57A8.46,8.46,0,0,1,242.51,108Z"/><path class="cls-4" d="M252.31,108a5.29,5.29,0,0,1-4.05-1.48,5.9,5.9,0,0,1-1.39-4.2,6.37,6.37,0,0,1,.43-2.42,5.18,5.18,0,0,1,1.16-1.79A4.8,4.8,0,0,1,250.22,97a6.39,6.39,0,0,1,2.22-.38,8.09,8.09,0,0,1,2.25.34,4.57,4.57,0,0,1,.71.28l.4.22-.7,2a6.18,6.18,0,0,0-1.18-.46,5.74,5.74,0,0,0-1.51-.18,3.49,3.49,0,0,0-1.11.18,2.5,2.5,0,0,0-1,.61,3,3,0,0,0-.67,1.07,4.5,4.5,0,0,0-.25,1.61,5.29,5.29,0,0,0,.17,1.41,2.71,2.71,0,0,0,.53,1.12,2.44,2.44,0,0,0,1,.75,3.5,3.5,0,0,0,1.45.28,5.49,5.49,0,0,0,1-.07c.28,0,.54-.09.76-.14s.41-.13.58-.2l.46-.21.67,2a5.68,5.68,0,0,1-1.46.57A8.46,8.46,0,0,1,252.31,108Z"/><path class="cls-5" d="M164.63,85.35h2V96.26h-2V91.43h-4.74v4.83h-2V85.35h2v4.36h4.74Z"/><path class="cls-5" d="M175.62,92.13a5.27,5.27,0,0,1-.29,1.78,4,4,0,0,1-.79,1.37,3.63,3.63,0,0,1-1.26.88,4.21,4.21,0,0,1-3.22,0,3.64,3.64,0,0,1-1.24-.88,4.21,4.21,0,0,1-.81-1.37,5.27,5.27,0,0,1-.29-1.78,5.11,5.11,0,0,1,.29-1.76,4.07,4.07,0,0,1,.82-1.37,3.66,3.66,0,0,1,1.25-.87,3.92,3.92,0,0,1,1.59-.31,4,4,0,0,1,1.6.31,3.56,3.56,0,0,1,1.25.87,4.21,4.21,0,0,1,.81,1.37A5.11,5.11,0,0,1,175.62,92.13Zm-2,0a3.21,3.21,0,0,0-.53-1.94,1.88,1.88,0,0,0-2.94,0,3.21,3.21,0,0,0-.53,1.94,3.29,3.29,0,0,0,.53,2,1.86,1.86,0,0,0,2.94,0A3.29,3.29,0,0,0,173.67,92.13Z"/><path class="cls-5" d="M178.7,94.89a2.33,2.33,0,0,0,1.1-.19.61.61,0,0,0,.35-.62.79.79,0,0,0-.37-.67,5.32,5.32,0,0,0-1.22-.59,7.53,7.53,0,0,1-.95-.4,2.89,2.89,0,0,1-.74-.49,2.1,2.1,0,0,1-.5-.68,2.43,2.43,0,0,1-.19-1,2.15,2.15,0,0,1,.84-1.78,3.56,3.56,0,0,1,2.27-.66,6.87,6.87,0,0,1,1.38.14,6.11,6.11,0,0,1,1,.26l-.34,1.54a4.3,4.3,0,0,0-.81-.26,4.72,4.72,0,0,0-1.13-.12,1.85,1.85,0,0,0-.94.2.65.65,0,0,0-.37.6.87.87,0,0,0,.08.37.7.7,0,0,0,.24.29,2.35,2.35,0,0,0,.46.26c.18.09.42.18.69.28a10.18,10.18,0,0,1,1.15.49,3.38,3.38,0,0,1,.77.55,1.86,1.86,0,0,1,.45.71,2.62,2.62,0,0,1,.14.94,2,2,0,0,1-.87,1.79,4.36,4.36,0,0,1-2.49.6,6.91,6.91,0,0,1-1.75-.18A8.85,8.85,0,0,1,176,96l.32-1.59a8.8,8.8,0,0,0,1,.33A5,5,0,0,0,178.7,94.89Z"/><path class="cls-5" d="M182.8,85.85l1.9-.31V88h2.92v1.59H184.7V93a2.41,2.41,0,0,0,.31,1.41,1.23,1.23,0,0,0,1.07.43,3.57,3.57,0,0,0,.92-.11,4,4,0,0,0,.64-.21L188,96a8.49,8.49,0,0,1-.87.3,5.21,5.21,0,0,1-1.26.14,4,4,0,0,1-1.47-.23,2.2,2.2,0,0,1-.94-.69,2.61,2.61,0,0,1-.48-1.08A6.46,6.46,0,0,1,182.8,93Z"/><path class="cls-5" d="M200.58,90.8a6.21,6.21,0,0,1-.44,2.46A4.53,4.53,0,0,1,198.89,95a5.05,5.05,0,0,1-1.95,1,8.63,8.63,0,0,1-2.52.34c-.44,0-.94,0-1.5,0a11.12,11.12,0,0,1-1.58-.23V85.51a9,9,0,0,1,1.6-.22c.57,0,1.07,0,1.51,0a8.91,8.91,0,0,1,2.5.32,5,5,0,0,1,1.94,1,4.46,4.46,0,0,1,1.25,1.73A6.32,6.32,0,0,1,200.58,90.8Zm-7.26,3.82.45,0h.78a4,4,0,0,0,3-1A3.84,3.84,0,0,0,194.58,87a11.71,11.71,0,0,0-1.26.05Z"/><path class="cls-3" d="M83.74,84.61v1.72H80.38v9.18h-2V86.33H75V84.61Z"/><path class="cls-3" d="M86.63,87.08a4.86,4.86,0,0,1,1.59.23,2.53,2.53,0,0,1,1,.67,2.38,2.38,0,0,1,.55,1A5,5,0,0,1,90,90.34v5c-.29.06-.73.14-1.32.23a13.58,13.58,0,0,1-2,.14,5.69,5.69,0,0,1-1.35-.15,2.79,2.79,0,0,1-1-.45,2.19,2.19,0,0,1-.68-.82A2.86,2.86,0,0,1,83.31,93a2.34,2.34,0,0,1,.28-1.2,2.18,2.18,0,0,1,.75-.79,2.87,2.87,0,0,1,1.09-.44,6,6,0,0,1,1.3-.14,5.29,5.29,0,0,1,.66,0,5.93,5.93,0,0,1,.74.14v-.32a2.59,2.59,0,0,0-.08-.63,1.5,1.5,0,0,0-.28-.53,1.32,1.32,0,0,0-.52-.35,2.31,2.31,0,0,0-.81-.12,7.55,7.55,0,0,0-1.21.09,5.23,5.23,0,0,0-.89.22l-.24-1.54a7.46,7.46,0,0,1,1.05-.25A7.77,7.77,0,0,1,86.63,87.08Zm.16,7.1a6.57,6.57,0,0,0,1.34-.1V92l-.46-.09a4.43,4.43,0,0,0-.66,0,4.6,4.6,0,0,0-.64,0,2,2,0,0,0-.58.17,1.31,1.31,0,0,0-.42.35,1.06,1.06,0,0,0-.15.58,1,1,0,0,0,.42.93A2.13,2.13,0,0,0,86.79,94.18Z"/><path class="cls-3" d="M96.35,89c-.16,0-.37-.11-.65-.17a5.5,5.5,0,0,0-1-.08,4.06,4.06,0,0,0-.67.06l-.5.11v6.59h-1.9V87.68A10,10,0,0,1,93,87.29a8.6,8.6,0,0,1,1.83-.18l.44,0,.51.07.48.09.38.11Z"/><path class="cls-3" d="M104.17,94.68a3.75,3.75,0,0,1-1,2.88,4.49,4.49,0,0,1-3.07.91,8,8,0,0,1-1.47-.13,7.71,7.71,0,0,1-1.3-.33l.35-1.62a6.06,6.06,0,0,0,1.11.34,7,7,0,0,0,1.34.12,2.33,2.33,0,0,0,1.64-.47,1.85,1.85,0,0,0,.49-1.4v-.32a4.13,4.13,0,0,1-.75.28,3.43,3.43,0,0,1-1.06.15A3.92,3.92,0,0,1,99,94.84a3.18,3.18,0,0,1-1.12-.74,3.35,3.35,0,0,1-.72-1.22,5.13,5.13,0,0,1-.26-1.69,4.84,4.84,0,0,1,.27-1.65A3.55,3.55,0,0,1,98,88.25a3.66,3.66,0,0,1,1.28-.84,4.63,4.63,0,0,1,1.72-.3,11.11,11.11,0,0,1,1.76.14c.55.1,1,.2,1.41.3Zm-5.3-3.49A2.55,2.55,0,0,0,99.4,93a1.79,1.79,0,0,0,1.36.56,2.91,2.91,0,0,0,.85-.13,2.4,2.4,0,0,0,.66-.3V88.82l-.5-.08a5.35,5.35,0,0,0-.76,0,1.94,1.94,0,0,0-1.59.68A2.79,2.79,0,0,0,98.87,91.19Z"/><path class="cls-3" d="M105.51,91.44a5,5,0,0,1,.32-1.9,4,4,0,0,1,.86-1.37,3.43,3.43,0,0,1,1.22-.81,3.74,3.74,0,0,1,1.42-.28,3.39,3.39,0,0,1,2.65,1,4.58,4.58,0,0,1,1,3.15v.36l0,.35h-5.43a2.21,2.21,0,0,0,.7,1.53,2.7,2.7,0,0,0,1.81.54,6.13,6.13,0,0,0,1.26-.12,5.11,5.11,0,0,0,.91-.27l.25,1.56a2.85,2.85,0,0,1-.43.16c-.19.06-.4.11-.63.16s-.49.09-.76.12a7.89,7.89,0,0,1-.84,0,5,5,0,0,1-1.89-.33,3.54,3.54,0,0,1-1.32-.89,3.93,3.93,0,0,1-.77-1.35A5.52,5.52,0,0,1,105.51,91.44Zm5.52-.85a2.35,2.35,0,0,0-.11-.75,1.69,1.69,0,0,0-.32-.61,1.6,1.6,0,0,0-.52-.41,1.67,1.67,0,0,0-.73-.15,1.78,1.78,0,0,0-.78.16,1.7,1.7,0,0,0-.55.44,2,2,0,0,0-.36.61,3.5,3.5,0,0,0-.17.71Z"/><path class="cls-3" d="M114.22,85.11l1.91-.31v2.48h2.92v1.6h-2.92v3.34a2.43,2.43,0,0,0,.31,1.42,1.26,1.26,0,0,0,1.07.42,3.6,3.6,0,0,0,.92-.1l.64-.21.31,1.51a8.48,8.48,0,0,1-.86.29,4.73,4.73,0,0,1-1.26.15,3.91,3.91,0,0,1-1.47-.23,2.16,2.16,0,0,1-.94-.69,2.65,2.65,0,0,1-.48-1.09,6.27,6.27,0,0,1-.15-1.45Z"/><path class="cls-3" d="M132.64,90.05a6.23,6.23,0,0,1-.44,2.47A4.6,4.6,0,0,1,131,94.26a5.08,5.08,0,0,1-1.95,1,8.68,8.68,0,0,1-2.52.34q-.66,0-1.5-.06a9,9,0,0,1-1.59-.23V84.77a8.93,8.93,0,0,1,1.61-.22c.56,0,1.07,0,1.51,0a9,9,0,0,1,2.5.33,5,5,0,0,1,1.94,1,4.41,4.41,0,0,1,1.25,1.73A6.3,6.3,0,0,1,132.64,90.05Zm-7.26,3.83.45,0h.77a4,4,0,0,0,3-1,3.94,3.94,0,0,0,1-2.85,3.87,3.87,0,0,0-1-2.84,4,4,0,0,0-3-1,11.63,11.63,0,0,0-1.25.05Z"/><path class="cls-3" d="M32.91,99h.53l.5,0V106l-.4,0H33a3.59,3.59,0,0,1-2.73-.93,3.52,3.52,0,0,1-.89-2.56,3.6,3.6,0,0,1,.85-2.6A3.56,3.56,0,0,1,32.91,99Z"/><path class="cls-3" d="M21.51,90.58v22.29a11.72,11.72,0,0,0,11.71,11.71h217A11.73,11.73,0,0,0,262,112.87V90.58a11.74,11.74,0,0,0-11.72-11.72h-217A11.73,11.73,0,0,0,21.51,90.58Zm199.05-9.09h29.68a9.1,9.1,0,0,1,9.09,9.09v22.29a9.1,9.1,0,0,1-9.09,9.09H220.56ZM181.68,103h36.26V122H181.68ZM143,103h36V122H143Zm0-21.54h74.9v18.92H143ZM104.4,103h36V122h-36Zm-38.62,0h36V122h-36Zm0-21.54h74.64v18.92H65.78Zm-29.7,26.12a9.47,9.47,0,0,1-1.42.38,13.44,13.44,0,0,1-2.41.19A6.31,6.31,0,0,1,30,107.8a4.71,4.71,0,0,1-1.71-1.1,4.9,4.9,0,0,1-1.09-1.78,6.87,6.87,0,0,1-.38-2.4,6.3,6.3,0,0,1,.42-2.42,5.09,5.09,0,0,1,1.16-1.79,4.8,4.8,0,0,1,1.74-1.11,6,6,0,0,1,2.13-.38,8.25,8.25,0,0,1,1.39.11,7,7,0,0,1,1.07.23,4.29,4.29,0,0,1,.74.28,3.56,3.56,0,0,1,.42.22l-.71,2a6.41,6.41,0,0,0-1.15-.46,5,5,0,0,0-1.43-.2,3,3,0,0,0-2.48,1,4.08,4.08,0,0,0-.76,2.6,5.42,5.42,0,0,0,.19,1.45,3.34,3.34,0,0,0,.57,1.13,2.52,2.52,0,0,0,.94.73,3.2,3.2,0,0,0,1.32.26l.7,0a3.56,3.56,0,0,0,.52-.06v-3.79h2.45Zm11.66.37H45.67c-.7-1.25-1.45-2.48-2.27-3.7a37.66,37.66,0,0,0-2.62-3.45V108H38.36V97.07h2c.34.35.73.78,1.15,1.28s.85,1,1.28,1.61.87,1.17,1.3,1.78.83,1.2,1.21,1.77V97.07h2.44Zm11.62-3a4.52,4.52,0,0,1-1.25,1.74,5.38,5.38,0,0,1-2,1,9.21,9.21,0,0,1-2.61.35c-.45,0-1,0-1.55-.06a11.07,11.07,0,0,1-1.73-.23V97.22A14.26,14.26,0,0,1,52,97c.61,0,1.14,0,1.58,0a9.56,9.56,0,0,1,2.54.31,5.13,5.13,0,0,1,2,1A4.3,4.3,0,0,1,59.36,100a6.68,6.68,0,0,1,.44,2.54A6.48,6.48,0,0,1,59.36,105Z"/></g><path class="cls-3" d="M53.77,99.05h-.52l-.51,0V106l.4,0h.55a3.61,3.61,0,0,0,2.73-.93,3.56,3.56,0,0,0,.89-2.56,3.65,3.65,0,0,0-.85-2.6A3.6,3.6,0,0,0,53.77,99.05Z"/><path class="cls-3" d="M239.57,130.86a10.91,10.91,0,1,0,10.9,10.91A10.9,10.9,0,0,0,239.57,130.86Zm1.75,16h-2.19v-7.33a6.94,6.94,0,0,1-1,.53c-.37.17-.72.3-1.06.42l-.66-1.69c.28-.11.58-.25.89-.4s.61-.32.9-.5.57-.37.84-.57a5.76,5.76,0,0,0,.73-.64h1.53Z"/><path class="cls-3" d="M200.54,130.86a10.91,10.91,0,1,0,10.91,10.91A10.9,10.9,0,0,0,200.54,130.86ZM204.08,147H197.3a2.22,2.22,0,0,1,0-.41v-.35a3.37,3.37,0,0,1,.23-1.29,5.06,5.06,0,0,1,.59-1.1,7.35,7.35,0,0,1,.83-.94l.92-.88.66-.64a7.07,7.07,0,0,0,.54-.59,2.63,2.63,0,0,0,.37-.57,1.36,1.36,0,0,0,.13-.58,1,1,0,0,0-.37-.91,1.47,1.47,0,0,0-.91-.27,2,2,0,0,0-.74.13,3.65,3.65,0,0,0-.63.29,4.15,4.15,0,0,0-.49.34,3.49,3.49,0,0,0-.31.27L197,137.94a5.64,5.64,0,0,1,1.51-1,4.4,4.4,0,0,1,1.84-.39,5,5,0,0,1,1.54.21,2.82,2.82,0,0,1,1.07.58,2.19,2.19,0,0,1,.61.91,3.3,3.3,0,0,1,.2,1.21,2.63,2.63,0,0,1-.22,1.07,4.3,4.3,0,0,1-.57,1,7.54,7.54,0,0,1-.79.92c-.3.3-.58.57-.87.84s-.31.29-.47.46-.34.35-.5.52l-.42.49a1.32,1.32,0,0,0-.22.38h4.37Z"/><path class="cls-3" d="M161.52,130.86a10.91,10.91,0,1,0,10.91,10.91A10.91,10.91,0,0,0,161.52,130.86Zm3.28,14.28a2.74,2.74,0,0,1-.73,1,3.73,3.73,0,0,1-1.27.67,7.09,7.09,0,0,1-2.67.19,7.53,7.53,0,0,1-.85-.14c-.27-.06-.52-.12-.75-.19a5,5,0,0,1-.53-.19l.43-1.82c.25.11.58.22,1,.35a5.2,5.2,0,0,0,1.48.18,2.35,2.35,0,0,0,1.48-.38,1.25,1.25,0,0,0,.47-1,1.17,1.17,0,0,0-.17-.67,1.22,1.22,0,0,0-.46-.44,2,2,0,0,0-.7-.23,4.64,4.64,0,0,0-.85-.07h-.86v-1.76h1a3.21,3.21,0,0,0,.63-.06,1.67,1.67,0,0,0,.53-.2,1.06,1.06,0,0,0,.38-.38,1.25,1.25,0,0,0,.14-.61,1,1,0,0,0-.12-.49,1.18,1.18,0,0,0-.3-.33,1.22,1.22,0,0,0-.43-.2,1.61,1.61,0,0,0-.49-.07,3.68,3.68,0,0,0-1.17.19,5.45,5.45,0,0,0-1,.47l-.78-1.6c.15-.1.34-.2.55-.31a6.74,6.74,0,0,1,.7-.29,6,6,0,0,1,.81-.22,4.56,4.56,0,0,1,.92-.09,5.14,5.14,0,0,1,1.55.21,3.3,3.3,0,0,1,1.08.6,2.61,2.61,0,0,1,.63.92,3,3,0,0,1,.21,1.13,2.32,2.32,0,0,1-.34,1.17,2.35,2.35,0,0,1-.91.86,2.56,2.56,0,0,1,1.22,1,2.66,2.66,0,0,1,.44,1.54A3.46,3.46,0,0,1,164.8,145.14Z"/><path class="cls-3" d="M120.08,142.09h2.3v-3.43c-.38.5-.79,1-1.22,1.63A11.29,11.29,0,0,0,120.08,142.09Z"/><path class="cls-3" d="M122.5,130.86a10.91,10.91,0,1,0,10.9,10.91A10.9,10.9,0,0,0,122.5,130.86Zm3.11,13h-1.08v2.27h-2.15v-2.27H118v-1.6c.22-.43.49-.92.81-1.46s.68-1.11,1.08-1.68.81-1.13,1.25-1.68a16.3,16.3,0,0,1,1.33-1.48h2.07v6.1h1.08Z"/><path class="cls-3" d="M83.47,130.86a10.91,10.91,0,1,0,10.91,10.91A10.9,10.9,0,0,0,83.47,130.86ZM86.68,145a2.72,2.72,0,0,1-.75,1,3.66,3.66,0,0,1-1.25.69,5.91,5.91,0,0,1-1.77.25,8,8,0,0,1-.83-.05c-.29,0-.57-.08-.84-.14l-.73-.16a3,3,0,0,1-.5-.18l.4-1.81a7.33,7.33,0,0,0,1,.32,6,6,0,0,0,1.44.15,2.19,2.19,0,0,0,1.47-.4,1.25,1.25,0,0,0,.45-.95,1.48,1.48,0,0,0-.19-.76,1.38,1.38,0,0,0-.66-.55,4.55,4.55,0,0,0-1.26-.33,13.82,13.82,0,0,0-2-.12c.11-.91.2-1.84.27-2.78s.12-1.82.16-2.64h5.51v1.84H82.89q0,.53-.06,1c0,.32,0,.61-.08.86a5.4,5.4,0,0,1,3.16,1,3,3,0,0,1,1,2.39A3.36,3.36,0,0,1,86.68,145Z"/><path class="cls-3" d="M44.29,142a4.2,4.2,0,0,0-.69.06,2.46,2.46,0,0,0-.58.16v.18a1.62,1.62,0,0,0,0,.21,6.24,6.24,0,0,0,.07,1,3.12,3.12,0,0,0,.25.83,1.5,1.5,0,0,0,.47.55,1.32,1.32,0,0,0,.74.2,1.21,1.21,0,0,0,.62-.16,1.45,1.45,0,0,0,.43-.39,1.92,1.92,0,0,0,.25-.52,2.15,2.15,0,0,0,.08-.55,1.63,1.63,0,0,0-.38-1.15A1.65,1.65,0,0,0,44.29,142Z"/><path class="cls-3" d="M44.45,130.86a10.91,10.91,0,1,0,10.91,10.91A10.91,10.91,0,0,0,44.45,130.86Zm3.43,13.88a3.34,3.34,0,0,1-1.75,1.93,3.54,3.54,0,0,1-1.58.33,3.42,3.42,0,0,1-2.79-1.16,4.9,4.9,0,0,1-.95-3.21,7,7,0,0,1,.45-2.59,5.27,5.27,0,0,1,1.3-1.91,5.77,5.77,0,0,1,2-1.17,8.69,8.69,0,0,1,2.7-.42l.06.89q0,.44.06.9a8.86,8.86,0,0,0-1.41.14,4.89,4.89,0,0,0-1.19.39,3.48,3.48,0,0,0-.93.68,2.89,2.89,0,0,0-.61,1,3,3,0,0,1,.66-.2,3.52,3.52,0,0,1,.63-.06,4.58,4.58,0,0,1,1.62.26,2.89,2.89,0,0,1,1.09.7,2.55,2.55,0,0,1,.62,1,4,4,0,0,1,.19,1.25A3.81,3.81,0,0,1,47.88,144.74Z"/><rect class="cls-6" width="283.46" height="170.08"/></g></g></svg>