<svg xmlns="http://www.w3.org/2000/svg" viewBox="0 0 226.77 119.06"><defs><style>.cls-1{font-size:10.23px;font-family:ArialMT, Arial;}.cls-2{letter-spacing:-0.06em;}.cls-3,.cls-5{fill:none;}.cls-3{stroke:#000;stroke-linecap:round;stroke-linejoin:round;stroke-width:0.5px;}.cls-4{font-size:12px;font-family:KozGoPr6N-Regular-83pv-RKSJ-H, Kozuka Gothic Pr6N;}</style></defs><g id="Layer_2" data-name="Layer 2"><g id="Layer_3" data-name="Layer 3"><text class="cls-1" transform="translate(100.16 46.45)">Host</text><text class="cls-1" transform="translate(150.14 34.45)">Switcher of<tspan x="-0.85" y="12">USB-</tspan><tspan class="cls-2" x="23.58" y="12">A</tspan><tspan x="29.83" y="12" xml:space="preserve"> Port</tspan></text><text class="cls-1" transform="translate(33.76 34.45)">Extension<tspan x="12.51" y="12">Pins</tspan></text><path class="cls-3" d="M166.25,91.63a1.79,1.79,0,0,0-1.79,1.79"/><line class="cls-3" x1="164.54" y1="100.63" x2="164.54" y2="93.46"/><path class="cls-3" d="M183.22,93.42a1.8,1.8,0,0,0-1.8-1.79"/><line class="cls-3" x1="166.29" y1="91.63" x2="181.46" y2="91.63"/><path class="cls-3" d="M164.46,100.59a1.79,1.79,0,0,0,1.79,1.79"/><line class="cls-3" x1="181.46" y1="102.46" x2="166.29" y2="102.46"/><path class="cls-3" d="M181.42,102.38a1.8,1.8,0,0,0,1.8-1.79"/><line class="cls-3" x1="183.29" y1="93.46" x2="183.29" y2="100.63"/><path class="cls-3" d="M199.37,112.13a18.95,18.95,0,1,0,0-37.87"/><line class="cls-3" x1="27.47" y1="74.33" x2="199.38" y2="74.33"/><path class="cls-3" d="M27.4,74.26a18.95,18.95,0,1,0-.65,37.88"/><line class="cls-3" x1="199.38" y1="112.21" x2="26.78" y2="112.21"/><path class="cls-3" d="M27.47,69.92a23.28,23.28,0,1,0-.73,46.56"/><line class="cls-3" x1="27.47" y1="74.33" x2="27.47" y2="69.98"/><polyline class="cls-3" points="199.38 74.33 199.3 69.98 27.47 69.98"/><path class="cls-3" d="M199.29,116.55a23.29,23.29,0,1,0,0-46.56"/><polyline class="cls-3" points="199.38 112.21 199.3 116.56 26.79 116.56"/><line class="cls-3" x1="201.51" y1="116.56" x2="200.83" y2="116.56"/><line class="cls-3" x1="200.83" y1="69.98" x2="201.51" y2="69.98"/><line class="cls-3" x1="167.44" y1="92.01" x2="165.99" y2="92.01"/><line class="cls-3" x1="182.53" y1="92.01" x2="181.84" y2="92.01"/><line class="cls-3" x1="165.99" y1="92.01" x2="165.99" y2="91.71"/><polyline class="cls-3" points="167.44 92.01 167.44 100.25 181.84 100.25 181.84 99.18"/><line class="cls-3" x1="168.12" y1="100.25" x2="168.12" y2="92.01"/><polyline class="cls-3" points="181.84 92.01 180.01 92.01 178.18 92.01 176.43 92.01 174.6 92.01"/><polyline class="cls-3" points="174.6 99.18 176.43 99.18 178.18 99.18"/><polyline class="cls-3" points="178.18 99.18 180.01 99.18 181.84 99.18"/><line class="cls-3" x1="176.43" y1="92.01" x2="176.43" y2="99.18"/><line class="cls-3" x1="174.6" y1="92.01" x2="174.6" y2="99.18"/><line class="cls-3" x1="180.01" y1="99.18" x2="180.01" y2="92.01"/><line class="cls-3" x1="181.84" y1="99.18" x2="181.84" y2="92.01"/><line class="cls-3" x1="178.18" y1="99.18" x2="178.18" y2="92.01"/><line class="cls-3" x1="165.99" y1="92.01" x2="165.99" y2="91.71"/><line class="cls-3" x1="182.53" y1="92.01" x2="181.84" y2="92.01"/><line class="cls-3" x1="174.6" y1="92.01" x2="165.99" y2="92.01"/><line class="cls-3" x1="101.19" y1="94.99" x2="101.19" y2="92.47"/><polyline class="cls-3" points="126.34 92.47 126.34 94.98 124.9 94.98 102.64 94.98 101.19 94.98"/><polyline class="cls-3" points="101.19 92.47 102.64 92.47 124.9 92.47 126.34 92.47"/><polyline class="cls-3" points="124.59 94.45 124.59 93 102.94 93 102.94 94.45 124.59 94.45"/><line class="cls-3" x1="124.9" y1="92.47" x2="124.59" y2="93"/><line class="cls-3" x1="124.59" y1="94.45" x2="124.9" y2="94.99"/><line class="cls-3" x1="102.94" y1="93" x2="102.64" y2="92.47"/><line class="cls-3" x1="102.64" y1="94.99" x2="102.94" y2="94.45"/><line class="cls-3" x1="125.35" y1="89.5" x2="102.18" y2="89.5"/><path class="cls-3" d="M102.14,89.42a3.09,3.09,0,0,0-3.09,3.09"/><line class="cls-3" x1="99.13" y1="92.55" x2="99.13" y2="94.91"/><path class="cls-3" d="M99.05,94.87A3.09,3.09,0,0,0,102.14,98"/><line class="cls-3" x1="102.18" y1="97.96" x2="125.35" y2="97.96"/><path class="cls-3" d="M125.32,98a3.08,3.08,0,0,0,3.08-3.09"/><line class="cls-3" x1="128.4" y1="94.91" x2="128.4" y2="92.55"/><path class="cls-3" d="M128.4,92.51a3.08,3.08,0,0,0-3.08-3.09"/><rect class="cls-3" x="75.68" y="87.56" width="5.79" height="5.79" transform="translate(157.16 180.92) rotate(180)"/><rect class="cls-3" x="30.53" y="87.56" width="5.79" height="5.79" transform="translate(66.84 180.92) rotate(180)"/><rect class="cls-3" x="39.56" y="87.56" width="5.79" height="5.79" transform="translate(84.91 180.92) rotate(180)"/><rect class="cls-3" x="48.59" y="87.56" width="5.79" height="5.79" transform="translate(102.97 180.92) rotate(180)"/><rect class="cls-3" x="57.62" y="87.56" width="5.79" height="5.79" transform="translate(121.03 180.92) rotate(180)"/><rect class="cls-3" x="66.65" y="87.56" width="5.79" height="5.79" transform="translate(139.09 180.92) rotate(180)"/><rect class="cls-3" x="27.58" y="85.23" width="56.85" height="10.45" transform="translate(112 180.92) rotate(180)"/><text class="cls-4" transform="translate(104.14 63.01)">①</text><text class="cls-4" transform="translate(169.73 63.01)">⑤</text><text class="cls-4" transform="translate(49.34 63.01)">⑥</text><rect class="cls-5" width="226.77" height="119.06"/></g></g></svg>