<?xml version="1.0" encoding="UTF-8"?>
<svg id="_图层_2" data-name="图层 2" xmlns="http://www.w3.org/2000/svg" width="338.22" height="343.99" xmlns:xlink="http://www.w3.org/1999/xlink" viewBox="0 0 338.22 343.99">
  <defs>
    <style>
      .cls-1 {
        clip-path: url(#clippath);
      }

      .cls-2, .cls-3, .cls-4 {
        stroke-width: 0px;
      }

      .cls-2, .cls-5 {
        fill: none;
      }

      .cls-3 {
        fill: #040000;
        fill-rule: evenodd;
        isolation: isolate;
        opacity: .8;
      }

      .cls-5 {
        stroke: #000;
        stroke-linecap: round;
        stroke-linejoin: round;
        stroke-width: .5px;
      }

      .cls-6 {
        opacity: .96;
      }

      .cls-4 {
        fill: #231815;
      }
    </style>
    <clipPath id="clippath">
      <polyline class="cls-2" points="53.64 340.85 285 340.85 285 8.77 53.64 8.77 53.64 340.85"/>
    </clipPath>
  </defs>
  <g id="_图层_3" data-name="图层 3">
    <g>
      <rect class="cls-2" width="338.22" height="343.99"/>
      <g>
        <g class="cls-1">
          <path class="cls-5" d="M224.7,319.06c7.77,4.49,19.47,5.83,29.62,3.4,10.16-2.43,16.78-8.15,16.78-14.49"/>
          <path class="cls-5" d="M67.63,222.14c0,4.16,2.86,8.15,7.96,11.09"/>
          <line class="cls-5" x1="75.63" y1="233.22" x2="224.65" y2="319.05"/>
          <line class="cls-5" x1="224.65" y1="321.26" x2="227.69" y2="323.01"/>
          <path class="cls-5" d="M227.76,322.94c4.3,2.46,10.13,3.85,16.21,3.84,6.08,0,11.9-1.4,16.18-3.87"/>
          <path class="cls-5" d="M224.7,321.17c7.77,4.49,19.47,5.83,29.62,3.4,10.16-2.43,16.78-8.15,16.78-14.49"/>
          <line class="cls-5" x1="75.63" y1="235.34" x2="78.67" y2="237.18"/>
          <line class="cls-5" x1="78.67" y1="237.18" x2="227.69" y2="323.01"/>
          <line class="cls-5" x1="224.65" y1="321.26" x2="75.63" y2="235.34"/>
          <path class="cls-5" d="M78.58,237.08s.04.02.06.04"/>
          <path class="cls-5" d="M67.63,224.26c0,4.16,2.86,8.15,7.96,11.09"/>
          <line class="cls-5" x1="224.65" y1="319.05" x2="224.65" y2="321.26"/>
          <line class="cls-5" x1="75.63" y1="233.22" x2="75.63" y2="235.34"/>
          <line class="cls-5" x1="260.07" y1="323.01" x2="263.1" y2="321.17"/>
          <line class="cls-5" x1="78.57" y1="237.09" x2="75.54" y2="235.34"/>
          <line class="cls-5" x1="271.01" y1="308.01" x2="271.01" y2="310.13"/>
          <line class="cls-5" x1="67.63" y1="222.19" x2="67.63" y2="224.3"/>
          <polyline class="cls-5" points="201.1 107.2 223.18 119.99 234.31 113.55"/>
          <polyline class="cls-5" points="201.1 107.2 212.14 100.85 212.14 106.56 206.07 110.05"/>
          <line class="cls-5" x1="234.31" y1="113.55" x2="212.14" y2="100.85"/>
          <line class="cls-5" x1="212.14" y1="106.56" x2="217.66" y2="109.68"/>
          <line class="cls-5" x1="228.15" y1="115.75" x2="229.34" y2="116.4"/>
          <path class="cls-5" d="M75.51,28.4c-10.55,6.13-10.51,16.03.07,22.14"/>
          <line class="cls-5" x1="75.63" y1="50.53" x2="78.67" y2="45.2"/>
          <path class="cls-5" d="M110.73,26.46c-9.01-5.02-23.39-4.92-32.21.21-8.81,5.13-8.76,13.38.12,18.47"/>
          <line class="cls-5" x1="224.65" y1="136.36" x2="227.69" y2="131.02"/>
          <line class="cls-5" x1="227.69" y1="131.02" x2="78.67" y2="45.2"/>
          <line class="cls-5" x1="75.63" y1="50.53" x2="224.65" y2="136.36"/>
          <path class="cls-5" d="M227.76,130.96c8.93,5.12,23.4,5.12,32.33,0,8.93-5.12,8.93-13.42,0-18.54"/>
          <path class="cls-5" d="M224.7,136.37c10.6,6.12,27.78,6.13,38.41.02,10.62-6.1,10.67-16.02.11-22.16"/>
          <line class="cls-5" x1="110.68" y1="26.43" x2="259.98" y2="112.44"/>
          <line class="cls-5" x1="75.63" y1="52.65" x2="75.63" y2="50.53"/>
          <line class="cls-5" x1="75.63" y1="52.65" x2="224.65" y2="138.48"/>
          <line class="cls-5" x1="224.65" y1="138.48" x2="224.65" y2="136.36"/>
          <path class="cls-5" d="M67.63,41.57c0,4.16,2.86,8.15,7.96,11.09"/>
          <path class="cls-5" d="M185.46,86.28c2.21-1.28,2.21-3.34,0-4.62"/>
          <line class="cls-5" x1="185.46" y1="86.32" x2="181.69" y2="88.53"/>
          <path class="cls-5" d="M173.69,88.49c2.21,1.28,5.79,1.28,8,0"/>
          <line class="cls-5" x1="173.69" y1="88.53" x2="151.89" y2="75.92"/>
          <path class="cls-5" d="M151.89,71.27c-2.21,1.28-2.21,3.34,0,4.62"/>
          <line class="cls-5" x1="151.89" y1="71.32" x2="155.66" y2="69.21"/>
          <path class="cls-5" d="M163.66,69.15c-2.21-1.28-5.79-1.28-8,0"/>
          <line class="cls-5" x1="163.57" y1="69.21" x2="185.46" y2="81.72"/>
          <line class="cls-5" x1="185.46" y1="85.49" x2="185.46" y2="81.72"/>
          <line class="cls-5" x1="163.57" y1="72.7" x2="163.57" y2="69.21"/>
          <line class="cls-5" x1="155.66" y1="72.7" x2="155.66" y2="69.21"/>
          <line class="cls-5" x1="151.89" y1="75.1" x2="151.89" y2="71.32"/>
          <path class="cls-5" d="M224.7,138.48c7.77,4.49,19.47,5.83,29.62,3.4,10.16-2.43,16.78-8.15,16.78-14.49"/>
          <line class="cls-5" x1="78.57" y1="26.62" x2="75.54" y2="28.46"/>
          <line class="cls-5" x1="260.07" y1="112.54" x2="263.1" y2="114.28"/>
          <line class="cls-5" x1="67.63" y1="41.61" x2="67.63" y2="39.5"/>
          <line class="cls-5" x1="271.01" y1="127.44" x2="271.01" y2="125.32"/>
          <path class="cls-5" d="M67.63,41.57c0,4.16,2.86,8.15,7.96,11.09"/>
          <path class="cls-5" d="M67.63,222.14c0,4.16,2.86,8.15,7.96,11.09"/>
          <line class="cls-5" x1="75.63" y1="52.65" x2="75.63" y2="233.22"/>
          <line class="cls-5" x1="75.63" y1="52.65" x2="224.65" y2="138.48"/>
          <line class="cls-5" x1="224.65" y1="319.05" x2="75.63" y2="233.22"/>
          <line class="cls-5" x1="224.65" y1="138.48" x2="224.65" y2="319.05"/>
          <path class="cls-5" d="M224.7,138.48c7.77,4.49,19.47,5.83,29.62,3.4,10.16-2.43,16.78-8.15,16.78-14.49"/>
          <path class="cls-5" d="M224.7,319.06c7.77,4.49,19.47,5.83,29.62,3.4,10.16-2.43,16.78-8.15,16.78-14.49"/>
          <line class="cls-5" x1="67.63" y1="41.61" x2="67.63" y2="222.19"/>
          <line class="cls-5" x1="271.01" y1="127.44" x2="271.01" y2="308.01"/>
          <line class="cls-5" x1="206.35" y1="110.14" x2="206.07" y2="110.05"/>
          <line class="cls-5" x1="206.44" y1="110.14" x2="206.16" y2="109.96"/>
          <line class="cls-5" x1="206.35" y1="110.14" x2="206.07" y2="110.05"/>
          <polyline class="cls-5" points="158.33 79.6 158.33 78.41 177.19 89.35 177.19 89.45"/>
          <polyline class="cls-5" points="167.34 84.85 167.34 84.39 166.51 83.93"/>
          <polyline class="cls-5" points="165.78 83.93 165.78 83.47 164.95 83.01"/>
          <polyline class="cls-5" points="170.47 86.59 170.47 86.23 169.64 85.77"/>
          <line class="cls-5" x1="175.81" y1="89.26" x2="174.61" y2="88.62"/>
          <polyline class="cls-5" points="168.91 85.67 168.91 85.31 168.08 84.85"/>
          <polyline class="cls-5" points="164.22 83.01 164.22 82.55 163.39 82.09"/>
          <polyline class="cls-5" points="172.03 87.51 172.03 87.05 171.3 86.59"/>
          <polyline class="cls-5" points="160.81 81.07 160.81 80.61 158.88 79.51"/>
          <polyline class="cls-5" points="153.64 76.94 153.64 75 157.41 72.8 157.41 79.14"/>
          <polyline class="cls-5" points="161.82 77.95 161.82 72.8 183.62 85.4 183.62 87.33"/>
          <path class="cls-5" d="M184.54,86.64c0-.48-.32-.93-.9-1.27"/>
          <path class="cls-5" d="M152.87,74.27c-.64.38-1.06.86-1.2,1.39"/>
          <path class="cls-5" d="M185.69,86.06c-.14-.53-.56-1.01-1.2-1.39"/>
          <line class="cls-5" x1="184.54" y1="84.75" x2="162.65" y2="72.24"/>
          <path class="cls-5" d="M162.69,72.16c-1.67-.99-4.38-.99-6.05,0"/>
          <line class="cls-5" x1="156.58" y1="72.24" x2="152.81" y2="74.36"/>
          <path class="cls-5" d="M153.58,74.73c-.71.41-1.05.98-.93,1.55"/>
          <line class="cls-5" x1="153.54" y1="74.82" x2="157.32" y2="72.61"/>
          <path class="cls-5" d="M161.97,72.61c-1.28-.74-3.34-.74-4.62,0"/>
          <line class="cls-5" x1="161.92" y1="72.61" x2="183.72" y2="85.21"/>
          <path class="cls-5" d="M184.71,86.67c.11-.57-.23-1.14-.93-1.55"/>
          <path class="cls-5" d="M161.84,72.77c-1.2-.7-3.15-.7-4.36,0"/>
          <path class="cls-5" d="M157.94,78.9c-.16.06-.3.13-.44.21"/>
          <path class="cls-5" d="M153.71,74.98c-.58.34-.9.79-.9,1.27"/>
          <line class="cls-5" x1="162.65" y1="72.24" x2="162.74" y2="72.24"/>
          <line class="cls-5" x1="184.54" y1="84.75" x2="184.54" y2="84.75"/>
          <line class="cls-5" x1="156.58" y1="72.24" x2="156.49" y2="72.24"/>
          <line class="cls-5" x1="152.81" y1="74.36" x2="152.72" y2="74.36"/>
          <polyline class="cls-5" points="183.62 85.4 183.72 85.31 183.72 85.21"/>
          <polyline class="cls-5" points="161.82 72.8 161.82 72.7 161.92 72.61"/>
          <polyline class="cls-5" points="153.54 74.82 153.64 74.91 153.64 75"/>
          <polyline class="cls-5" points="157.41 72.8 157.41 72.7 157.32 72.61"/>
          <path class="cls-5" d="M179.01,89.35c.3-.15.47-.37.47-.6"/>
          <path class="cls-5" d="M177.21,89.31c.08.05.18.09.28.13"/>
          <path class="cls-5" d="M157.96,77.9c0,.21.14.41.39.55"/>
          <line class="cls-5" x1="178.29" y1="87.79" x2="159.43" y2="76.94"/>
          <path class="cls-5" d="M159.46,76.88c-.09-.05-.24-.05-.33,0-.09.05-.09.14,0,.2"/>
          <line class="cls-5" x1="159.06" y1="77.12" x2="177.92" y2="87.97"/>
          <path class="cls-5" d="M177.99,87.93c.09.05.24.05.33,0,.09-.05.09-.14,0-.2"/>
          <path class="cls-5" d="M178.91,87.67c-.14-.08-.33-.05-.53.08"/>
          <path class="cls-5" d="M178.01,87.93c-.43.27-.79.9-.81,1.41"/>
          <path class="cls-5" d="M159.15,77.08c-.43.27-.79.9-.81,1.41"/>
          <path class="cls-5" d="M160.05,76.81c-.14-.08-.33-.05-.53.08"/>
          <polyline class="cls-5" points="160.81 80.61 160.81 80.61 160.81 81.07"/>
          <polyline class="cls-5" points="158.88 79.97 158.88 79.51 160.81 80.61"/>
          <polyline class="cls-5" points="167.25 84.75 167.25 84.39 167.34 84.39"/>
          <polyline class="cls-5" points="166.51 84.39 166.51 83.93 167.25 84.39"/>
          <polyline class="cls-5" points="172.03 87.51 172.03 87.15 172.03 87.05"/>
          <polyline class="cls-5" points="172.03 87.15 171.21 86.69 171.3 86.59"/>
          <line class="cls-5" x1="171.21" y1="86.69" x2="171.21" y2="87.05"/>
          <polyline class="cls-5" points="165.69 83.93 165.69 83.47 165.78 83.47"/>
          <polyline class="cls-5" points="164.95 83.47 164.95 83.01 165.69 83.47"/>
          <polyline class="cls-5" points="164.12 83.01 164.12 82.55 164.22 82.55"/>
          <polyline class="cls-5" points="163.39 82.55 163.39 82.09 164.12 82.55"/>
          <polyline class="cls-5" points="170.47 86.23 170.47 86.23 170.47 86.59"/>
          <polyline class="cls-5" points="169.64 86.13 169.64 85.77 170.47 86.23"/>
          <polyline class="cls-5" points="168.91 85.31 168.91 85.31 168.91 85.67"/>
          <polyline class="cls-5" points="168.08 85.21 168.08 84.85 168.91 85.31"/>
          <polyline class="cls-5" points="174.61 88.89 174.61 88.62 175.71 89.26"/>
          <polyline class="cls-5" points="157.87 78.96 157.68 79.05 157.5 79.14"/>
          <polyline class="cls-5" points="151.52 75.65 151.52 75.56 151.61 75.46 151.61 75.37 151.7 75.28 151.8 75.19 151.89 75.1 151.98 75 152.07 74.91 152.16 74.82 152.26 74.73 152.35 74.64 152.44 74.54 152.53 74.54 152.62 74.45 152.72 74.36 156.49 72.24 156.67 72.15 156.86 72.06 157.04 71.97 157.22 71.88 157.41 71.78 157.59 71.78 157.78 71.69 157.96 71.69 158.14 71.6 158.33 71.6 158.6 71.51 158.79 71.51 158.97 71.51 159.25 71.51 159.43 71.51 159.62 71.42 159.89 71.51 160.08 71.51 160.26 71.51 160.54 71.51 160.72 71.51 160.9 71.6 161.09 71.6 161.36 71.69 161.55 71.69 161.73 71.78 161.92 71.78 162.1 71.88 162.28 71.97 162.47 72.06 162.56 72.15 162.74 72.24 184.54 84.75 184.64 84.85 184.82 84.94 184.91 84.94 185 85.03 185.1 85.12 185.19 85.21 185.28 85.31 185.37 85.4 185.37 85.49 185.46 85.58 185.56 85.58 185.65 85.67 185.65 85.77 185.74 85.86 185.74 85.95 185.83 86.04"/>
          <line class="cls-5" x1="184.54" y1="86.69" x2="184.54" y2="86.78"/>
          <polyline class="cls-5" points="152.81 76.48 152.72 76.38 152.72 76.29"/>
          <line class="cls-5" x1="179.39" y1="88.8" x2="179.39" y2="89.26"/>
          <line class="cls-5" x1="157.87" y1="77.95" x2="157.87" y2="79.42"/>
          <polyline class="cls-5" points="157.87 77.95 157.87 77.86 157.87 77.76 157.96 77.67 157.96 77.58 157.96 77.49 158.05 77.4 158.05 77.3 158.05 77.21 158.14 77.21 158.24 77.12 158.24 77.03 158.33 77.03 158.42 76.94 158.42 76.84 158.51 76.84 158.6 76.84 158.7 76.75 158.79 76.75 158.97 76.66 159.06 76.66 159.25 76.66 159.43 76.66 159.62 76.75 159.8 76.75 159.89 76.84 159.98 76.84 178.84 87.7 178.93 87.79 179.03 87.88 179.21 88.07 179.3 88.16 179.3 88.34 179.39 88.43 179.39 88.62 179.39 88.71 179.39 88.8"/>
          <line class="cls-5" x1="212.14" y1="106.83" x2="206.35" y2="110.24"/>
          <line class="cls-5" x1="213.34" y1="107.57" x2="207.54" y2="110.97"/>
          <polyline class="cls-5" points="215.82 112.9 214.62 112.17 215.82 111.43"/>
          <polyline class="cls-5" points="216.46 110.42 212.6 108.21 207.73 111.06"/>
          <line class="cls-5" x1="215.82" y1="112.9" x2="213.43" y2="114.28"/>
          <line class="cls-5" x1="215.82" y1="114.28" x2="214.62" y2="115.02"/>
          <line class="cls-5" x1="215.27" y1="115.39" x2="215.82" y2="115.02"/>
          <line class="cls-5" x1="225.02" y1="110.7" x2="223.55" y2="108.03"/>
          <polyline class="cls-5" points="228.15 117.13 228.15 110.7 226.58 109.87"/>
          <line class="cls-5" x1="223.55" y1="108.03" x2="221.98" y2="107.2"/>
          <polyline class="cls-5" points="215.82 115.66 215.82 110.7 217.38 111.62 218.95 114.28"/>
          <polyline class="cls-5" points="218.95 114.28 220.42 113.36 221.98 114.28 221.98 119.25"/>
          <line class="cls-5" x1="223.55" y1="108.03" x2="217.38" y2="111.62"/>
          <line class="cls-5" x1="221.98" y1="107.2" x2="215.82" y2="110.7"/>
          <line class="cls-5" x1="220.42" y1="113.36" x2="226.58" y2="109.87"/>
          <line class="cls-5" x1="221.98" y1="114.28" x2="228.15" y2="110.7"/>
          <polyline class="cls-5" points="215.91 109.22 215.82 109.32 215.73 109.32 215.54 109.32 215.45 109.41 215.36 109.41 215.27 109.5 214.99 109.59 216.46 110.42"/>
          <polyline class="cls-5" points="215.82 112.9 214.62 112.17 215.82 111.43"/>
        </g>
        <g>
          <g>
            <path id="_文本_1" data-name="文本 1" class="cls-3" d="M148.19,110.34v-5.84s.98.57.98.57v2.3s1.93,1.11,1.93,1.11v-2.3s.98.57.98.57v5.83s-.98-.57-.98-.57v-2.55s-1.93-1.11-1.93-1.11v2.55s-.98-.57-.98-.57ZM152.88,110.87c0-.56.23-.95.23-.95.23-.39.65-.42.65-.42.42-.03.94.27.94.27.8.46,1.31,1.38,1.31,1.38.51.92.51,1.87.51,1.87,0,.96-.52,1.29-.52,1.29-.52.33-1.3-.12-1.3-.12-.48-.28-.92-.79-.92-.79-.44-.52-.67-1.16-.67-1.16-.23-.64-.23-1.37-.23-1.37ZM153.84,111.48c0,.63.25,1.11.25,1.11.25.48.61.69.61.69.37.21.61.02.61.02.25-.19.25-.83.25-.83,0-.62-.25-1.1-.25-1.1-.25-.48-.61-.69-.61-.69-.37-.21-.61-.02-.61-.02-.25.19-.25.82-.25.82ZM156.92,114.16l.94.37c.06.36.24.63.24.63.18.27.51.46.51.46.36.21.54.15.54.15.12-.04.12-.23.12-.23,0-.13-.07-.25-.07-.25-.07-.12-.31-.33-.31-.33-1.13-.95-1.43-1.37-1.43-1.37-.42-.58-.42-1.19-.42-1.19,0-.55.36-.71.36-.71.36-.17,1.12.27,1.12.27.72.42,1.08.9,1.08.9.35.48.48,1.11.48,1.11l-.88-.31c-.06-.28-.21-.5-.21-.5-.16-.22-.45-.39-.45-.39-.37-.21-.53-.18-.53-.18-.11.03-.11.17-.11.17,0,.12.09.26.09.26.13.18.87.82.87.82.74.63,1.04,1.1,1.04,1.1.29.47.29,1,.29,1,0,.58-.4.77-.4.77-.4.18-1.2-.27-1.2-.27-.72-.41-1.14-1.01-1.14-1.01-.42-.59-.55-1.27-.55-1.27ZM162.65,114.43v.89s-.64-.37-.64-.37v1.7c0,.52.02.61.02.61.02.1.08.19.08.19.06.09.16.15.16.15.13.07.37.11.37.11l.08.91c-.33-.02-.74-.26-.74-.26-.25-.15-.45-.36-.45-.36-.2-.22-.3-.43-.3-.43-.09-.22-.13-.51-.13-.51-.03-.21-.03-.8-.03-.8v-1.84s-.43-.25-.43-.25v-.89s.43.25.43.25v-.84s.94-.11.94-.11v1.49s.64.37.64.37Z"/>
            <path id="_减去顶层" data-name="减去顶层" class="cls-3" d="M141.9,108.31c-1.88-1.08-3.41-3.79-3.41-6.04s1.53-3.2,3.41-2.12,3.41,3.79,3.41,6.04-1.52,3.2-3.41,2.12ZM144.19,105.26l-1.36-2.42c-.13-.24-.35-.36-.48-.28-.13.08-.13.34,0,.58l.78,1.39-3.27-1.88c-.19-.11-.34-.01-.34.21s.15.5.34.6l3.27,1.88-.78.49c-.13.08-.13.34,0,.58.13.24.35.36.48.28l1.36-.85c.13-.08.13-.34,0-.58Z"/>
          </g>
          <g>
            <path id="_文本_1-2" data-name="文本 1" class="cls-3" d="M89.98,234.22v-4.88s-1.46-.82-1.46-.82v-.99s3.92,2.2,3.92,2.2v.99s-1.46-.82-1.46-.82v4.88s-1-.56-1-.56ZM93.78,233.39l-.86-.67c.14-.54.5-.63.5-.63.35-.1,1.05.29,1.05.29.63.35.94.71.94.71.31.35.44.7.44.7.13.35.13,1.08.13,1.08v1.31c-.01.56.03.85.03.85.05.29.17.67.17.67l-.93-.52c-.04-.13-.09-.38-.09-.38-.02-.11-.03-.15-.03-.15-.24.14-.52.13-.52.13-.28-.01-.59-.19-.59-.19-.55-.31-.87-.84-.87-.84-.32-.53-.32-1.08-.32-1.08,0-.36.14-.56.14-.56.14-.2.41-.21.41-.21.26,0,.75.16.75.16.66.22.92.24.92.24v-.11c0-.32-.13-.54-.13-.54-.13-.21-.51-.42-.51-.42-.25-.14-.39-.1-.39-.1-.14.04-.23.29-.23.29ZM95.04,235.01c-.18-.03-.57-.15-.57-.15-.39-.12-.51-.09-.51-.09-.18.05-.18.29-.18.29,0,.24.15.49.15.49.15.26.38.38.38.38.26.14.49.07.49.07.17-.06.23-.25.23-.25.04-.12.04-.53.04-.53v-.22ZM97.81,238.6l-.94-.53v-4.25s.88.49.88.49v.6c.23-.3.4-.34.4-.34.18-.04.41.09.41.09.32.18.62.56.62.56l-.29.82c-.24-.32-.44-.43-.44-.43-.2-.11-.34-.06-.34-.06-.14.05-.22.35-.22.35-.08.3-.08,1.38-.08,1.38v1.31ZM99.49,239.83l1.08.76c.03.24.12.38.12.38.13.2.42.36.42.36.37.21.55.18.55.18.12-.02.19-.18.19-.18.04-.12.04-.49.04-.49v-.62c-.42.45-1.07.09-1.07.09-.72-.4-1.14-1.36-1.14-1.36-.33-.76-.33-1.61-.33-1.61,0-1.07.43-1.39.43-1.39.43-.32,1.07.04,1.07.04.66.37,1.09,1.3,1.09,1.3v-.6s.88.5.88.5v3.81c0,.75-.1,1.07-.1,1.07-.1.31-.29.42-.29.42-.19.11-.5.05-.5.05-.31-.06-.79-.32-.79-.32-.91-.51-1.29-1.09-1.29-1.09-.38-.58-.38-1.15-.38-1.15,0-.06,0-.13,0-.13ZM100.33,237.81c0,.68.22,1.11.22,1.11.22.44.54.62.54.62.35.19.58,0,.58,0,.24-.19.24-.82.24-.82,0-.66-.23-1.11-.23-1.11-.23-.45-.58-.64-.58-.64-.34-.19-.56,0-.56,0-.22.19-.22.84-.22.84ZM105.84,241.75l.94.71c-.18.51-.57.62-.57.62-.39.1-.98-.23-.98-.23-.93-.52-1.38-1.5-1.38-1.5-.35-.78-.35-1.66-.35-1.66,0-1.06.46-1.4.46-1.4.46-.34,1.17.06,1.17.06.79.45,1.25,1.33,1.25,1.33.46.88.44,2.16.44,2.16l-2.36-1.32c0,.51.23.91.23.91.22.4.54.58.54.58.22.12.37.06.37.06.15-.06.23-.34.23-.34ZM105.89,240.65c0-.49-.21-.86-.21-.86-.2-.37-.49-.53-.49-.53-.31-.17-.51-.02-.51-.02-.2.16-.2.62-.2.62l1.41.79ZM109.23,240.76v.9s-.64-.36-.64-.36v1.71c0,.52.02.62.02.62.02.1.08.19.08.19.07.09.16.15.16.15.13.07.38.1.38.1l.08.92c-.33-.02-.74-.25-.74-.25-.25-.14-.46-.36-.46-.36-.2-.22-.3-.43-.3-.43-.1-.22-.13-.51-.13-.51-.03-.21-.03-.81-.03-.81v-1.85s-.43-.24-.43-.24v-.9s.43.24.43.24v-.84s.95-.13.95-.13v1.5s.64.36.64.36Z"/>
            <path id="_减去顶层-2" data-name="减去顶层" class="cls-3" d="M82.51,231.63c-1.91-1.07-3.45-3.77-3.45-6.04s1.55-3.24,3.45-2.17,3.45,3.77,3.45,6.04-1.54,3.24-3.45,2.17ZM84.83,228.53l-1.38-2.42c-.13-.24-.35-.36-.49-.27-.13.08-.13.34,0,.58l.79,1.38-3.31-1.85c-.19-.11-.35,0-.35.22s.15.5.34.6l3.31,1.85-.79.5c-.13.08-.13.34,0,.58.13.24.35.36.49.27l1.38-.87c.13-.08.13-.34,0-.58Z"/>
          </g>
          <g>
            <path id="_文本_1-3" data-name="文本 1" class="cls-3" d="M213.44,302.46v1.03s-3.24-1.82-3.24-1.82c.05-.56.32-.93.32-.93.26-.38,1.04-.81,1.04-.81.62-.35.77-.52.77-.52.19-.24.19-.57.19-.57,0-.37-.17-.67-.17-.67-.17-.29-.46-.46-.46-.46-.29-.16-.46-.05-.46-.05-.17.11-.2.59-.2.59l-.92-.63c.08-.87.52-1.03.52-1.03.43-.16,1.08.21,1.08.21.71.4,1.12,1.09,1.12,1.09.41.69.41,1.38.41,1.38,0,.39-.12.68-.12.68-.12.29-.37.54-.37.54-.17.16-.6.4-.6.4-.44.24-.55.33-.55.33-.12.09-.19.2-.19.2l1.83,1.03ZM214.26,303.95v-1.11s.92.52.92.52v1.11s-.92-.52-.92-.52ZM217.49,299.93c.7.39,1.09,1.22,1.09,1.22.47.98.47,2.63.47,2.63,0,1.65-.47,2.1-.47,2.1-.39.37-1.09-.02-1.09-.02-.7-.39-1.13-1.29-1.13-1.29-.43-.89-.43-2.56-.43-2.56,0-1.64.47-2.1.47-2.1.39-.37,1.09.02,1.09.02ZM217.49,300.86c-.17-.09-.3-.04-.3-.04-.13.06-.2.35-.2.35-.1.38-.09,1.4-.09,1.4,0,1.02.09,1.45.09,1.45.09.43.22.63.22.63.13.2.3.29.3.29.17.09.3.04.3.04.13-.06.2-.35.2-.35.1-.37.09-1.4.09-1.4,0-1.02-.09-1.45-.09-1.45-.09-.43-.22-.63-.22-.63-.13-.2-.3-.3-.3-.3Z"/>
            <path id="_减去顶层-3" data-name="减去顶层" class="cls-3" d="M188.44,286.99c0-2.25,1.51-3.22,3.38-2.17,1.87,1.05,3.38,3.71,3.38,5.96,0,2.25-1.51,3.22-3.38,2.17-1.87-1.05-3.38-3.71-3.38-5.96ZM193.44,288.63c.1.17.25.26.35.19.1-.06.1-.25,0-.42l-.98-1.73c-.1-.17-.25-.26-.35-.19l-.98.63c-.1.06-.1.25,0,.42.1.17.25.26.35.19l.56-.36v2.82c0,.16.11.36.25.43s.24,0,.24-.16v-2.82s.56.99.56.99ZM190.85,290.71l.98-.63c.1-.06.1-.25,0-.42-.1-.17-.25-.26-.35-.19l-.56.36v-2.82c0-.16-.11-.36-.25-.43s-.24,0-.24.16v2.82s-.56-.99-.56-.99c-.1-.17-.25-.26-.35-.19-.1.06-.1.25,0,.42l.98,1.73c.1.17.25.26.35.19Z"/>
            <path id="_路径_1" data-name="路径 1" class="cls-3" d="M207.97,297.79l-1.78-2.29s-.02-.02-.03-.03c0,0-.02-.02-.03-.03,0,0-.02-.02-.03-.02,0,0-.02-.01-.03-.02,0,0-.02-.01-.03-.01,0,0-.02,0-.03,0,0,0-.02,0-.03,0,0,0-.02,0-.03,0,0,0-.02,0-.03,0,0,0-.02,0-.02.01,0,0-.01,0-.02.02,0,0-.01.01-.02.02,0,0,0,.02-.01.02,0,0,0,.02-.01.03,0,.01,0,.02,0,.03,0,.01,0,.02,0,.03v.91s-5.29-2.97-5.29-2.97l1.14-1.54s.05-.06.08-.07c.03-.02.06-.03.1-.03.04,0,.07,0,.11,0,.04,0,.08.03.12.05l.53.3c.01.05.03.11.05.16.02.05.04.1.06.16.02.05.05.1.08.15.03.05.06.1.09.14.03.05.07.09.1.13.04.04.07.08.11.12.04.04.08.07.12.1.04.03.08.06.12.08.03.01.05.02.08.03.02,0,.05.02.07.02.02,0,.05.01.07.01.02,0,.05,0,.07,0,.02,0,.05,0,.07,0,.02,0,.04,0,.06-.01.02,0,.04-.01.06-.02.02,0,.04-.02.05-.03.02-.01.03-.03.05-.04.02-.02.03-.03.04-.05.01-.02.03-.04.04-.06.01-.02.02-.04.03-.07,0-.02.02-.05.02-.07s.01-.05.02-.08c0-.03,0-.06.01-.08s0-.06,0-.09,0-.06,0-.09c0-.03,0-.06-.01-.1,0-.03-.01-.07-.02-.1,0-.03-.02-.07-.02-.1,0-.03-.02-.07-.03-.1-.01-.03-.02-.07-.04-.1-.01-.03-.03-.07-.04-.1-.02-.03-.03-.06-.05-.1-.02-.03-.04-.06-.05-.09-.02-.03-.04-.06-.06-.09-.02-.03-.04-.06-.06-.09-.02-.03-.04-.05-.07-.08-.02-.03-.05-.05-.07-.07-.02-.02-.05-.05-.07-.07-.02-.02-.05-.04-.07-.06-.02-.02-.05-.04-.08-.05-.04-.02-.07-.04-.11-.05-.04-.01-.07-.02-.1-.03-.03,0-.07-.01-.1-.01-.03,0-.06,0-.09,0-.03,0-.06.02-.09.03-.03.01-.05.03-.08.05-.02.02-.05.04-.07.06-.02.02-.04.05-.05.08l-.57-.32s-.1-.05-.14-.07c-.05-.02-.1-.04-.14-.05-.05-.01-.09-.02-.14-.02-.04,0-.09,0-.13,0-.04,0-.08.01-.12.03-.04.01-.08.03-.11.05-.03.02-.07.04-.1.07-.03.03-.06.06-.08.1l-1.34,1.84-.46-.26s-.02-.06-.02-.09c0-.03-.02-.06-.03-.09,0-.03-.02-.06-.03-.09-.01-.03-.02-.06-.03-.09-.01-.03-.02-.06-.04-.09-.01-.03-.03-.06-.04-.09-.01-.03-.03-.06-.04-.08-.02-.03-.03-.06-.05-.08-.02-.03-.03-.05-.05-.08-.02-.03-.03-.05-.05-.08-.02-.03-.04-.05-.05-.08-.02-.03-.04-.05-.06-.07-.02-.02-.04-.05-.06-.07-.02-.02-.04-.05-.06-.07-.02-.02-.04-.04-.06-.06-.02-.02-.04-.04-.06-.06-.02-.02-.04-.04-.06-.06-.02-.02-.04-.04-.07-.05-.02-.02-.04-.03-.07-.05-.02-.02-.04-.03-.07-.04-.02-.01-.04-.03-.07-.04-.02-.01-.04-.02-.07-.03-.02-.01-.04-.02-.07-.03-.02,0-.04-.02-.07-.02-.02,0-.04-.01-.06-.02-.02,0-.04-.01-.06-.01-.02,0-.04,0-.06,0-.02,0-.04,0-.06,0-.02,0-.04,0-.06,0-.02,0-.04,0-.06,0-.02,0-.04,0-.06.01-.02,0-.04.01-.05.02-.02,0-.03.01-.05.02-.02,0-.03.02-.05.03-.02,0-.03.02-.05.03-.01.01-.03.02-.04.04-.01.01-.03.03-.04.04-.01.01-.02.03-.04.05-.01.02-.02.03-.03.05-.01.02-.02.04-.03.05,0,.02-.02.04-.03.06,0,.02-.02.04-.02.06,0,.02-.01.04-.02.07,0,.02-.01.05-.01.07,0,.02,0,.05-.01.07,0,.02,0,.05,0,.08,0,.03,0,.05,0,.08,0,.03,0,.05,0,.08,0,.03,0,.05,0,.08,0,.03,0,.06,0,.08,0,.03,0,.06.01.09,0,.03.01.06.02.09,0,.03.01.06.02.09,0,.03.02.06.02.09,0,.03.02.06.03.09,0,.03.02.06.03.09.01.03.02.06.03.09.01.03.02.06.04.09.01.03.03.06.04.09.01.03.03.06.04.08.02.03.03.06.05.08.02.03.03.05.05.08.02.03.03.05.05.08.02.03.04.05.05.08.02.03.04.05.06.07.02.02.04.05.06.07.02.02.04.05.06.07.02.02.04.04.06.06.02.02.04.04.06.06.02.02.04.04.06.06.02.02.04.04.07.05.02.02.04.03.07.05s.04.03.07.04c.02.01.04.03.07.04.02.01.04.02.07.03.02.01.04.02.07.03.02,0,.04.02.07.02.02,0,.04.01.06.02.02,0,.04.01.06.01.02,0,.04,0,.06,0,.02,0,.04,0,.06,0,.02,0,.04,0,.06,0,.02,0,.04,0,.06,0,.02,0,.04,0,.06-.01.02,0,.04-.01.05-.02.02,0,.03-.01.05-.02.02,0,.03-.02.05-.03.02-.01.03-.02.05-.03.01-.01.03-.02.04-.04.01-.01.03-.03.04-.04.01-.01.02-.03.04-.05.01-.02.02-.03.03-.05.01-.02.02-.04.03-.05,0-.02.02-.04.03-.06,0-.02.02-.04.02-.06,0-.02.01-.04.02-.07l1.82,1.02,1.34,3.33c.03.06.05.13.08.19.03.06.06.12.1.18.03.06.07.12.11.17.04.06.08.11.12.16.04.05.09.1.13.15.04.05.09.09.14.13.05.04.09.08.14.11.05.03.1.06.14.09l.84.47v.36s1.42.8,1.42.8v-1.71s-1.42-.8-1.42-.8v.58s-.83-.47-.83-.47c-.04-.02-.08-.05-.12-.09-.04-.04-.08-.08-.11-.12s-.07-.09-.1-.14c-.03-.05-.06-.1-.08-.16l-1.13-2.8,3.88,2.18v.89s0,.05,0,.08c0,.03.01.05.02.08.01.03.02.05.04.08.01.02.03.05.05.07.03.04.07.07.11.1.04.02.08.03.12.03l1.78-.29s.02,0,.02,0c0,0,.01,0,.02-.01,0,0,.01,0,.02-.02,0,0,.01-.01.02-.02,0,0,0-.02.01-.02,0,0,0-.02,0-.03,0,0,0-.02,0-.03,0-.01,0-.02,0-.03s0-.02,0-.04c0-.01,0-.02,0-.04,0-.01,0-.03,0-.04,0-.01,0-.03-.01-.04,0-.01-.01-.03-.02-.04,0-.01-.01-.03-.02-.04,0-.01-.01-.02-.02-.04,0-.01-.02-.02-.02-.03h0Z"/>
          </g>
          <g>
            <path id="_文本_1-4" data-name="文本 1" class="cls-3" d="M205.17,154.19v-5.81s.97.56.97.56v2.28s1.91,1.1,1.91,1.1v-2.28s.97.56.97.56v5.8s-.97-.56-.97-.56v-2.54s-1.91-1.1-1.91-1.1v2.54s-.97-.56-.97-.56ZM209.81,154.69c0-.55.23-.94.23-.94.23-.39.64-.42.64-.42.42-.03.93.26.93.26.79.46,1.3,1.37,1.3,1.37.51.91.51,1.86.51,1.86,0,.95-.51,1.29-.51,1.29-.51.33-1.29-.11-1.29-.11-.48-.28-.92-.79-.92-.79-.44-.51-.66-1.15-.66-1.15-.23-.63-.23-1.36-.23-1.36ZM210.76,155.29c0,.63.25,1.1.25,1.1.25.47.61.68.61.68.36.21.61.02.61.02.24-.19.24-.83.24-.83,0-.62-.24-1.09-.24-1.09-.24-.47-.61-.68-.61-.68-.36-.21-.61-.02-.61-.02-.25.19-.25.82-.25.82ZM213.81,157.95l.93.36c.06.36.24.63.24.63.18.27.51.46.51.46.36.21.54.15.54.15.12-.04.12-.23.12-.23,0-.13-.07-.25-.07-.25-.07-.12-.31-.32-.31-.32-1.12-.94-1.42-1.35-1.42-1.35-.41-.58-.41-1.18-.41-1.18,0-.55.36-.71.36-.71.36-.17,1.11.27,1.11.27.72.41,1.06.89,1.06.89.35.48.48,1.11.48,1.11l-.87-.31c-.06-.28-.21-.5-.21-.5-.16-.22-.44-.39-.44-.39-.36-.21-.52-.18-.52-.18-.11.03-.11.17-.11.17,0,.12.09.25.09.25.12.18.86.81.86.81.74.63,1.03,1.09,1.03,1.09.29.46.29.99.29.99,0,.58-.4.76-.4.76-.4.19-1.19-.27-1.19-.27-.71-.41-1.13-1-1.13-1-.42-.59-.54-1.26-.54-1.26ZM219.47,158.2v.89s-.63-.36-.63-.36v1.69c0,.51.02.61.02.61.02.1.08.19.08.19.06.09.16.14.16.14.13.07.37.11.37.11l.08.91c-.32-.02-.73-.25-.73-.25-.25-.14-.45-.36-.45-.36-.2-.22-.29-.43-.29-.43-.09-.21-.13-.51-.13-.51-.03-.21-.03-.8-.03-.8v-1.83s-.42-.24-.42-.24v-.89s.42.24.42.24v-.83s.93-.12.93-.12v1.48s.63.36.63.36ZM201.83,153.45v-7.61s.73.42.73.42v7.61s-.73-.42-.73-.42ZM180.69,140.21v-4.83s-1.44-.83-1.44-.83v-.98s3.85,2.21,3.85,2.21v.98s-1.43-.82-1.43-.82v4.83s-.98-.56-.98-.56ZM184.42,139.42l-.84-.67c.14-.53.49-.62.49-.62.35-.09,1.03.3,1.03.3.62.36.92.71.92.71.3.35.43.69.43.69.12.34.12,1.07.12,1.07v1.3c0,.56.03.84.03.84.04.29.17.66.17.66l-.92-.53c-.04-.13-.09-.38-.09-.38-.02-.11-.03-.15-.03-.15-.24.14-.51.12-.51.12-.27-.02-.58-.19-.58-.19-.54-.31-.85-.84-.85-.84-.31-.53-.31-1.07-.31-1.07,0-.36.14-.56.14-.56.14-.2.4-.2.4-.2.26,0,.74.16.74.16.65.23.9.24.9.24v-.11c0-.32-.13-.53-.13-.53-.13-.21-.5-.42-.5-.42-.25-.14-.39-.1-.39-.1-.14.04-.22.28-.22.28ZM185.66,141.04c-.18-.03-.56-.15-.56-.15-.39-.12-.51-.1-.51-.1-.18.05-.18.29-.18.29,0,.23.15.49.15.49.15.25.37.38.37.38.25.14.48.08.48.08.17-.05.22-.24.22-.24.04-.12.04-.52.04-.52v-.22ZM188.38,144.62l-.93-.53v-4.21s.86.5.86.5v.6c.22-.3.4-.33.4-.33.18-.03.4.1.4.1.32.18.61.56.61.56l-.29.81c-.23-.32-.44-.43-.44-.43-.19-.11-.33-.06-.33-.06-.14.05-.21.34-.21.34-.08.29-.08,1.37-.08,1.37v1.3ZM190.03,145.85l1.06.76c.03.24.12.38.12.38.13.19.42.36.42.36.36.21.54.18.54.18.12-.02.18-.18.18-.18.04-.11.04-.49.04-.49v-.61c-.42.44-1.05.08-1.05.08-.71-.41-1.12-1.36-1.12-1.36-.32-.75-.32-1.6-.32-1.6,0-1.06.42-1.37.42-1.37.42-.32,1.05.05,1.05.05.65.37,1.07,1.3,1.07,1.3v-.59s.87.5.87.5v3.78c0,.75-.1,1.06-.1,1.06-.1.31-.29.41-.29.41-.18.1-.49.05-.49.05-.31-.06-.78-.33-.78-.33-.89-.51-1.26-1.09-1.26-1.09-.37-.58-.37-1.14-.37-1.14,0-.06,0-.13,0-.13ZM190.86,143.86c0,.67.22,1.11.22,1.11.22.44.53.62.53.62.34.2.57.01.57.01.23-.18.23-.81.23-.81,0-.65-.22-1.1-.22-1.1-.22-.45-.57-.64-.57-.64-.33-.19-.55,0-.55,0-.22.19-.22.83-.22.83ZM196.27,147.82l.92.72c-.18.51-.56.61-.56.61-.38.1-.96-.23-.96-.23-.91-.52-1.35-1.49-1.35-1.49-.35-.77-.35-1.65-.35-1.65,0-1.05.45-1.38.45-1.38.45-.33,1.15.07,1.15.07.78.45,1.23,1.33,1.23,1.33.45.88.43,2.15.43,2.15l-2.32-1.33c0,.5.22.9.22.9.21.4.53.58.53.58.22.12.37.07.37.07.15-.06.22-.33.22-.33ZM196.32,146.72c0-.49-.21-.85-.21-.85-.2-.37-.48-.53-.48-.53-.3-.17-.5-.02-.5-.02-.2.15-.19.61-.19.61l1.38.8ZM199.6,146.86v.89s-.63-.36-.63-.36v1.7c0,.52.02.61.02.61.02.1.08.19.08.19.06.09.16.15.16.15.13.07.37.11.37.11l.08.91c-.32-.02-.73-.25-.73-.25-.25-.14-.45-.36-.45-.36-.2-.22-.29-.43-.29-.43-.09-.21-.13-.51-.13-.51-.03-.21-.03-.8-.03-.8v-1.83s-.43-.24-.43-.24v-.89s.42.24.42.24v-.84s.93-.12.93-.12v1.49s.63.36.63.36Z"/>
            <g>
              <path id="_减去顶层-4" data-name="减去顶层" class="cls-3" d="M181.95,127.28c0-2.25,1.51-3.19,3.38-2.12,1.87,1.08,3.38,3.76,3.38,6.01s-1.51,3.19-3.38,2.12c-1.87-1.07-3.38-3.76-3.38-6.01ZM186.96,129c.1.17.25.26.35.2.1-.06.1-.25,0-.42l-.98-1.74c-.1-.17-.25-.26-.35-.2l-.98.61c-.1.06-.1.25,0,.42.1.17.25.26.35.2l.56-.35v2.82c0,.16.11.36.25.44s.24,0,.24-.15v-2.82s.56,1,.56,1ZM184.36,131.04l.98-.61c.1-.06.1-.25,0-.42-.1-.17-.25-.26-.35-.2l-.56.35v-2.82c0-.16-.11-.36-.25-.44s-.24,0-.24.15v2.82s-.56-1-.56-1c-.1-.17-.25-.26-.35-.2-.1.06-.1.25,0,.42l.98,1.74c.1.17.25.26.35.2Z"/>
              <path id="_路径_1-2" data-name="路径 1" class="cls-3" d="M202.73,139.09l-1.78-2.31s-.02-.02-.03-.03c0,0-.02-.02-.03-.03,0,0-.02-.02-.03-.02,0,0-.02-.01-.03-.02,0,0-.02-.01-.03-.02,0,0-.02,0-.03-.01,0,0-.02,0-.03,0,0,0-.02,0-.03,0,0,0-.02,0-.03,0,0,0-.02,0-.02.01,0,0-.01,0-.02.02,0,0-.01.01-.02.02,0,0,0,.02-.01.02,0,0,0,.02-.01.03,0,.01,0,.02,0,.03,0,.01,0,.02,0,.03v.91s-5.29-3.05-5.29-3.05l1.14-1.52s.05-.05.08-.07c.03-.02.06-.03.1-.03.04,0,.07,0,.11.01.04.01.08.03.12.05l.53.31c.01.05.03.11.05.16.02.05.04.11.06.16.02.05.05.1.08.15.03.05.06.1.09.14.03.05.07.09.1.13.04.04.07.08.11.12.04.04.08.07.12.1.04.03.08.06.12.08.03.01.05.02.08.03.02,0,.05.02.07.02.02,0,.05.01.07.01.02,0,.05,0,.07,0,.02,0,.05,0,.07,0,.02,0,.04,0,.06-.01.02,0,.04-.01.06-.02.02,0,.04-.02.05-.03.02-.01.03-.03.05-.04.02-.02.03-.03.04-.05.01-.02.03-.04.04-.06.01-.02.02-.04.03-.06,0-.02.02-.05.02-.07,0-.03.01-.05.02-.08,0-.03,0-.05.01-.08s0-.06,0-.09,0-.06,0-.09c0-.03,0-.06-.01-.1,0-.03-.01-.07-.02-.1,0-.03-.02-.07-.02-.1,0-.03-.02-.07-.03-.1-.01-.03-.02-.07-.04-.1-.01-.03-.03-.07-.04-.1-.02-.03-.03-.07-.05-.1-.02-.03-.04-.06-.05-.09-.02-.03-.04-.06-.06-.09-.02-.03-.04-.06-.06-.09-.02-.03-.04-.05-.07-.08-.02-.03-.05-.05-.07-.07-.02-.02-.05-.05-.07-.07-.02-.02-.05-.04-.07-.06-.02-.02-.05-.04-.08-.05-.04-.02-.07-.04-.11-.05-.04-.01-.07-.03-.1-.03-.03,0-.07-.01-.1-.01-.03,0-.06,0-.09,0-.03,0-.06.01-.09.03-.03.01-.05.03-.08.05-.02.02-.05.04-.07.06-.02.02-.04.05-.05.08l-.57-.33s-.1-.05-.14-.07c-.05-.02-.1-.04-.14-.05-.05-.01-.09-.02-.14-.03-.04,0-.09,0-.13,0-.04,0-.08.01-.12.02-.04.01-.08.03-.11.05-.04.02-.07.04-.1.07-.03.03-.06.06-.08.09l-1.35,1.82-.46-.26s-.02-.06-.02-.09c0-.03-.02-.06-.03-.09,0-.03-.02-.06-.03-.09-.01-.03-.02-.06-.03-.09s-.02-.06-.04-.09c-.01-.03-.03-.06-.04-.09-.01-.03-.03-.06-.04-.09-.02-.03-.03-.06-.05-.08-.02-.03-.03-.05-.05-.08-.02-.03-.03-.05-.05-.08-.02-.03-.04-.05-.05-.08-.02-.03-.04-.05-.06-.07-.02-.02-.04-.05-.06-.07-.02-.02-.04-.05-.06-.07-.02-.02-.04-.04-.06-.06-.02-.02-.04-.04-.06-.06-.02-.02-.04-.04-.06-.06-.02-.02-.04-.04-.07-.05-.02-.02-.04-.03-.07-.05-.02-.02-.04-.03-.07-.04-.02-.01-.04-.03-.07-.04-.02-.01-.04-.02-.07-.04-.02-.01-.04-.02-.07-.03-.02,0-.04-.02-.07-.03-.02,0-.04-.01-.06-.02-.02,0-.04-.01-.06-.02-.02,0-.04,0-.06,0-.02,0-.04,0-.06,0-.02,0-.04,0-.06,0-.02,0-.04,0-.06,0-.02,0-.04,0-.06.01-.02,0-.04.01-.05.02-.02,0-.03.01-.05.02-.02,0-.03.02-.05.03-.02,0-.03.02-.05.03-.01.01-.03.02-.04.04-.01.01-.03.03-.04.04-.01.01-.02.03-.04.05-.01.02-.02.03-.03.05-.01.02-.02.04-.03.05,0,.02-.02.04-.03.06,0,.02-.02.04-.02.06,0,.02-.01.04-.02.07,0,.02-.01.05-.01.07,0,.02,0,.05-.01.07,0,.02,0,.05,0,.08,0,.03,0,.05,0,.08,0,.03,0,.05,0,.08,0,.03,0,.05,0,.08,0,.03,0,.06,0,.08,0,.03,0,.06.01.09,0,.03.01.06.02.09,0,.03.01.06.02.09,0,.03.02.06.02.09,0,.03.02.06.03.09,0,.03.02.06.03.09.01.03.02.06.03.09.01.03.02.06.04.09.01.03.03.06.04.09.01.03.03.06.04.09.02.03.03.06.05.08.02.03.03.05.05.08.02.03.03.05.05.08.02.03.04.05.05.08.02.03.04.05.06.07.02.02.04.05.06.07.02.02.04.05.06.07.02.02.04.04.06.06.02.02.04.04.06.06.02.02.04.04.06.06.02.02.04.04.07.05.02.02.04.03.07.05s.04.03.07.04c.02.01.04.03.07.04.02.01.04.02.07.03.02.01.04.02.07.03.02,0,.04.02.07.03.02,0,.04.01.06.02.02,0,.04.01.06.01.02,0,.04,0,.06,0,.02,0,.04,0,.06,0,.02,0,.04,0,.06,0,.02,0,.04,0,.06,0,.02,0,.04,0,.06-.01.02,0,.04-.01.05-.02.02,0,.03-.01.05-.02.02,0,.03-.02.05-.03.02,0,.03-.02.05-.03.01-.01.03-.02.04-.04.01-.01.03-.03.04-.04.01-.01.02-.03.04-.05.01-.02.02-.03.03-.05.01-.02.02-.04.03-.05,0-.02.02-.04.03-.06,0-.02.02-.04.02-.06,0-.02.01-.04.02-.07l1.83,1.05,1.34,3.35c.03.06.05.13.08.19.03.06.06.12.1.18.04.06.07.12.11.18.04.06.08.11.12.16.04.05.09.1.13.15.04.05.09.09.14.13.05.04.09.08.14.11.05.03.1.07.14.09l.84.48v.36s1.42.82,1.42.82v-1.71s-1.42-.82-1.42-.82v.58s-.83-.48-.83-.48c-.04-.02-.08-.05-.12-.09-.04-.04-.08-.08-.11-.12-.04-.05-.07-.09-.1-.15-.03-.05-.06-.11-.08-.16l-1.13-2.81,3.88,2.23v.89s0,.05,0,.08c0,.03.01.05.02.08.01.03.02.05.04.08.01.03.03.05.05.07.03.04.07.08.11.1.04.03.08.03.12.03l1.78-.26s.02,0,.02,0c0,0,.01,0,.02-.01,0,0,.01,0,.02-.02,0,0,.01-.01.02-.02,0,0,0-.02.01-.02,0,0,0-.02,0-.03,0,0,0-.02,0-.03,0-.01,0-.02,0-.03s0-.02,0-.04c0-.01,0-.02,0-.04,0-.01,0-.03,0-.04,0-.01,0-.03-.01-.04,0-.01-.01-.03-.02-.04,0-.01-.01-.03-.02-.04,0-.01-.01-.02-.02-.04,0-.01-.02-.02-.02-.03h0Z"/>
              <path id="_路径_1-3" data-name="路径 1" class="cls-3" d="M212.27,140.68l-2.88-1.66c-.06-.03-.11-.06-.17-.09-.06-.03-.11-.06-.16-.08-.05-.03-.11-.05-.16-.07-.05-.02-.11-.04-.16-.06-.05-.02-.11-.03-.16-.05-.05-.01-.11-.03-.16-.04-.05-.01-.11-.02-.16-.03s-.1-.01-.15-.02c-.05,0-.1,0-.15,0-.05,0-.1,0-.15,0-.05,0-.1,0-.14.02-.05,0-.09.02-.14.03-.05.01-.09.02-.14.04-.04.01-.09.03-.13.05-.04.02-.08.04-.13.06-.04.02-.08.04-.12.07-.04.02-.08.05-.11.08-.04.03-.07.06-.11.09-.03.03-.07.06-.1.1-.03.03-.06.07-.1.11s-.06.08-.09.12c-.03.04-.06.08-.08.13-.03.04-.05.09-.07.13-.02.05-.05.09-.07.14-.02.05-.04.1-.06.15-.02.05-.04.1-.05.16-.02.05-.03.11-.04.17s-.03.11-.04.17c-.01.06-.02.12-.03.18,0,.06-.01.12-.02.19,0,.06,0,.13-.01.19,0,.06,0,.13,0,.2s0,.13,0,.2c0,.07,0,.14.01.21,0,.07.01.14.02.21,0,.07.02.14.03.21.01.07.02.14.04.22.01.07.03.14.04.22.02.07.03.15.05.22.02.07.04.15.06.22.02.07.04.15.07.22.02.07.05.15.07.22.03.07.05.15.08.22.03.07.06.15.09.22.03.07.06.15.1.22.03.07.07.14.1.22.03.07.07.14.11.21.04.07.07.14.11.21.04.07.08.14.12.21s.08.14.13.2.09.13.13.2c.04.06.09.13.14.19.05.06.09.13.14.19.05.06.1.12.14.18.05.06.1.12.15.17.05.06.1.11.15.17.05.05.1.11.15.16.05.05.1.1.16.15.05.05.11.1.16.14.05.05.11.09.16.14.05.04.11.09.16.13.05.04.11.08.16.12.05.04.11.07.16.11.06.03.11.07.17.1l2.88,1.66c.06.03.11.06.17.09.05.03.11.06.16.08.05.02.11.05.16.07.05.02.11.04.16.06.05.02.11.03.16.05.05.01.11.03.16.04.05.01.1.02.16.03.05,0,.1.01.15.02.05,0,.1,0,.15,0,.05,0,.1,0,.15,0,.05,0,.1,0,.14-.02.05,0,.09-.02.14-.03.05-.01.09-.02.13-.04.04-.01.09-.03.13-.05.04-.02.08-.04.12-.06s.08-.04.12-.07c.04-.02.08-.05.11-.08.04-.03.07-.06.11-.09.03-.03.07-.06.1-.1.03-.03.06-.07.1-.11.03-.04.06-.08.09-.12.03-.04.06-.08.08-.13.03-.04.05-.09.07-.13.02-.05.05-.09.07-.14.02-.05.04-.1.06-.15.02-.05.04-.1.05-.16.02-.05.03-.11.04-.17.01-.06.03-.11.04-.17.01-.06.02-.12.03-.18,0-.06.01-.12.02-.19,0-.06,0-.13.01-.19,0-.06,0-.13,0-.2s0-.13,0-.2c0-.07,0-.14-.01-.21,0-.07-.01-.14-.02-.21,0-.07-.02-.14-.03-.21-.01-.07-.02-.14-.04-.21s-.03-.14-.04-.22c-.02-.07-.03-.15-.05-.22-.02-.07-.04-.15-.06-.22-.02-.07-.04-.15-.07-.22-.02-.07-.05-.15-.07-.22-.03-.07-.05-.15-.08-.22-.03-.07-.06-.15-.09-.22s-.06-.15-.1-.22c-.03-.07-.07-.14-.1-.22-.03-.07-.07-.14-.11-.21-.04-.07-.07-.14-.11-.21-.04-.07-.08-.14-.12-.21-.04-.07-.08-.14-.13-.2-.04-.07-.09-.13-.13-.2-.04-.06-.09-.13-.13-.19-.05-.06-.09-.13-.14-.19-.05-.06-.1-.12-.14-.18-.05-.06-.1-.12-.15-.17-.05-.06-.1-.11-.15-.17-.05-.05-.1-.11-.15-.16-.05-.05-.1-.1-.16-.15-.05-.05-.11-.1-.16-.14-.05-.05-.11-.09-.16-.14-.05-.04-.11-.09-.16-.13-.05-.04-.11-.08-.16-.12-.05-.04-.11-.07-.16-.11s-.11-.07-.17-.1ZM212.03,146.62c-.06-.03-.11-.07-.16-.1-.05-.04-.11-.08-.16-.12-.05-.04-.11-.09-.16-.14-.05-.05-.1-.1-.16-.16-.05-.05-.1-.11-.15-.17-.05-.06-.1-.12-.14-.18-.05-.06-.09-.13-.13-.19-.04-.07-.08-.13-.12-.2-.04-.07-.08-.14-.11-.21-.03-.07-.07-.14-.1-.22-.03-.07-.06-.15-.08-.22-.03-.07-.05-.15-.07-.22-.02-.07-.04-.15-.06-.22-.02-.07-.03-.14-.04-.22-.01-.07-.02-.14-.02-.21,0-.07,0-.14,0-.2s0-.13,0-.19c0-.06.01-.12.02-.18.01-.06.02-.12.04-.17.02-.05.03-.11.06-.16.02-.05.04-.1.07-.14.03-.04.05-.08.08-.12.03-.04.06-.07.1-.1.03-.03.07-.06.11-.08.04-.02.08-.05.12-.06.04-.02.09-.03.13-.04.05-.01.09-.02.14-.02.05,0,.1,0,.15,0,.05,0,.1.01.16.02.05.01.11.03.16.04.05.02.11.04.16.06.05.03.11.05.16.09s.11.07.16.1c.05.04.11.08.16.12.05.04.11.09.16.14.05.05.1.1.16.16.05.05.1.11.15.17.05.06.1.12.14.18.05.06.09.13.13.19.04.07.08.13.12.2.04.07.08.14.11.21.03.07.07.14.1.22.03.07.06.15.08.22.03.07.05.15.07.22.02.07.04.15.06.22s.03.14.04.22c.01.07.02.14.02.21,0,.07,0,.14,0,.2s0,.13,0,.19c0,.06-.01.12-.02.18-.01.06-.02.12-.04.17-.02.05-.03.11-.06.16-.02.05-.04.1-.07.14-.03.04-.05.08-.08.12-.03.04-.06.07-.1.1-.03.03-.07.06-.11.08-.04.02-.08.05-.12.06-.04.02-.09.03-.13.04-.05.01-.09.02-.14.02-.05,0-.1,0-.15,0-.05,0-.1-.01-.16-.02-.05-.01-.11-.03-.16-.04-.05-.02-.11-.04-.16-.06-.05-.03-.11-.05-.16-.09Z"/>
            </g>
          </g>
          <g>
            <path id="_路径_2" data-name="路径 2" class="cls-3" d="M152.92,265.87l1.46.82v3.59c.51.29,1,.56,1.5.84,0-1.21,0-2.39,0-3.59l1.44.81v1.8c0,.59,0,1.19,0,1.79l1.53.86v-3.43c0-.88-.41-1.6-1.15-2.02-2.02-1.13-4.03-2.26-6.05-3.4l-.25-.14c0,1.62,0,3.2,0,4.8l1.52.85c0-1.2,0-2.39,0-3.59Z"/>
            <path id="_路径_3" data-name="路径 3" class="cls-3" d="M149.59,267.62c.72.4,1.16.13,1.16-.72,0-.69,0-1.39,0-2.09,0-.83-.45-1.61-1.15-2.01-1.51-.85-3.01-1.69-4.52-2.54l-.26-.15v1.2c1.47.82,2.92,1.64,4.38,2.46v2.41c-.96-.54-1.9-1.06-2.87-1.61v-1.64c-.52-.29-1.01-.57-1.52-.85,0,.95,0,1.87,0,2.85l.25.14c1.51.85,3.02,1.69,4.52,2.54Z"/>
            <path id="_路径_4" data-name="路径 4" class="cls-3" d="M139.81,260.42l.07.04c.9.51,1.78,1,2.67,1.5v1.69c.54.3,1.07.6,1.59.89,0-1.61,0-3.19,0-4.79l-1.59-.89c0,.64,0,1.28,0,1.93-.9-.51-1.78-1-2.67-1.5l-.08-.04v-1.93c-.54-.3-1.05-.59-1.57-.88,0,1.61,0,3.2,0,4.8l1.57.88c0-.58,0-1.14,0-1.7Z"/>
            <path id="_路径_5" data-name="路径 5" class="cls-3" d="M161.05,269.24l-1.55-.87v4.78c.53.29,1.03.58,1.55.87,0-1.6,0-3.18,0-4.78Z"/>
          </g>
          <g>
            <g>
              <path id="_文本_1-5" data-name="文本 1" class="cls-3" d="M88.19,149.41l-.05-.03v3.72s-.86-.49-.86-.49v-4.52s1.56.89,1.56.89l.51,3.53v.07s.02-.06.02-.06l.52-2.94,1.56.88v4.52s-.86-.49-.86-.49v-3.72s-.04-.02-.04-.02l-.65,3.35-1.05-.6-.64-4.09ZM92.98,152.36v3.49s-.87-.49-.87-.49v-3.49s.87.49.87.49ZM92.11,150.39l.87.49v1.03s-.87-.49-.87-.49v-1.03ZM94.46,153.19v.42c.2-.09.46-.06.46-.06.26.03.51.17.51.17.42.24.66.67.66.67.25.43.25.9.25.9v2.46s-.87-.49-.87-.49v-2.29c0-.19-.13-.38-.13-.38-.13-.19-.31-.29-.31-.29-.11-.06-.28-.07-.28-.07-.17,0-.29.05-.29.05v2.4s-.87-.49-.87-.49v-3.49s.87.49.87.49ZM97.82,155.11v3.49s-.87-.49-.87-.49v-3.49s.87.49.87.49ZM96.95,153.14l.87.49v1.03s-.87-.49-.87-.49v-1.03ZM100.18,157.58v.75s-1.66-.94-1.66-.94v-.75s1.66.94,1.66.94ZM103.25,161.67c-.36-.91-.59-1.41-.59-1.41-.23-.5-.58-1.08-.58-1.08l-.32-.18v1.83s-.89-.51-.89-.51v-4.52s.89.51.89.51v1.83s.2.11.2.11l1.06-1.23.97.55-1.3,1.47c.44.73.76,1.42.76,1.42.32.69.72,1.73.72,1.73l-.93-.53ZM104.24,157.73l.97.55.91,4.31h.02s.91-3.27.91-3.27l.97.55-1.17,3.85-1.44-.82-1.17-5.18ZM109.3,161.4l-.05-.03v3.71s-.86-.49-.86-.49v-4.51s1.55.88,1.55.88l.51,3.52v.07s.02-.06.02-.06l.51-2.94,1.55.88v4.51s-.86-.49-.86-.49v-3.71s-.04-.02-.04-.02l-.65,3.34-1.05-.6-.64-4.08ZM114.39,164.53v1.06s-.89-.5-.89-.5v-1.06s.89.5.89.5ZM113.51,166.45l.89.5v1.06s-.89-.5-.89-.5v-1.06ZM118.52,170.44c-.59-.34-1.03-.85-1.03-.85-.43-.51-.67-1.16-.67-1.16-.23-.65-.23-1.37-.23-1.37,0-.73.23-1.14.23-1.14.23-.41.67-.45.67-.45.43-.04,1.02.29,1.02.29.59.33,1.02.87,1.02.87.43.53.67,1.21.67,1.21.23.67.23,1.41.23,1.41,0,.73-.23,1.11-.23,1.11-.23.38-.66.4-.66.4-.43.03-1.02-.31-1.02-.31ZM117.54,167.6c0,.7.26,1.25.26,1.25.26.55.72.81.72.81.46.26.72,0,.72,0,.26-.26.26-.95.26-.95,0-.46-.11-.88-.11-.88-.11-.43-.34-.76-.34-.76-.22-.33-.53-.51-.53-.51-.3-.17-.52-.09-.52-.09-.22.08-.34.37-.34.37-.12.29-.12.75-.12.75ZM121.79,168.72v.42c.2-.09.46-.06.46-.06.26.03.51.17.51.17.42.24.66.67.66.67.25.43.25.89.25.89v2.45s-.86-.49-.86-.49v-2.28c0-.19-.13-.38-.13-.38-.13-.19-.31-.29-.31-.29-.11-.06-.28-.07-.28-.07-.17,0-.29.06-.29.06v2.4s-.86-.49-.86-.49v-3.48s.86.49.86.49ZM126.84,174.9c-.2.03-.48-.05-.48-.05-.27-.08-.53-.23-.53-.23-.86-.49-1.31-1.23-1.31-1.23-.44-.74-.44-1.62-.44-1.62,0-.88.4-1.12.4-1.12.4-.24,1.08.15,1.08.15.68.39,1.07,1.08,1.07,1.08.4.69.4,1.57.4,1.57,0,.1-.01.27-.01.27l-2.1-1.19c.12.9.91,1.35.91,1.35.55.32,1,.18,1,.18v.86ZM126.22,172.53c-.07-.36-.24-.61-.24-.61-.17-.25-.41-.39-.41-.39-.23-.13-.39-.06-.39-.06-.16.07-.22.34-.22.34l1.27.72ZM128.87,171.73l.89.5v4.5s-.89-.5-.89-.5v-4.5ZM131.23,174.09v.42c.2-.09.45-.06.45-.06.26.03.51.17.51.17.41.24.66.66.66.66.24.43.24.89.24.89v2.45s-.86-.49-.86-.49v-2.28c0-.19-.13-.38-.13-.38-.13-.19-.31-.29-.31-.29-.11-.06-.28-.07-.28-.07-.17,0-.29.06-.29.06v2.39s-.86-.49-.86-.49v-3.47s.86.49.86.49ZM133.86,175.6v-.99s.81.46.81.46v.99s.56.32.56.32v.78s-.56-.32-.56-.32v1.49c0,.19.02.3.02.3.02.11.09.18.09.18.06.07.19.14.19.14.08.05.14.07.14.07.06.03.1.04.1.04v.79c-.23-.1-.42-.21-.42-.21-.37-.21-.55-.4-.55-.4-.18-.19-.28-.47-.28-.47-.09-.28-.09-.69-.09-.69v-1.7s-.42-.24-.42-.24v-.78s.42.24.42.24ZM138.24,181.37c-.2.03-.48-.05-.48-.05-.27-.08-.52-.23-.52-.23-.86-.49-1.3-1.23-1.3-1.23-.44-.74-.44-1.62-.44-1.62,0-.87.4-1.12.4-1.12.4-.24,1.08.15,1.08.15.68.38,1.07,1.08,1.07,1.08.4.69.39,1.57.39,1.57,0,.1-.01.27-.01.27l-2.09-1.19c.12.9.91,1.35.91,1.35.55.31,1,.18,1,.18v.86ZM137.62,179.01c-.07-.36-.24-.61-.24-.61-.17-.25-.41-.39-.41-.39-.23-.13-.38-.06-.38-.06-.16.07-.22.34-.22.34l1.26.72ZM139.72,178.93v.37c.14-.1.34-.09.34-.09.2.01.39.12.39.12.13.08.25.19.25.19v.79c-.15-.13-.28-.21-.28-.21-.2-.12-.39-.14-.39-.14-.18-.02-.31.08-.31.08v2.35s-.86-.49-.86-.49v-3.47s.86.49.86.49ZM141.34,180.63l-.51-.29v-.78s.51.29.51.29v-.46c0-.41.09-.58.09-.58.09-.17.32-.13.32-.13.23.04.6.25.6.25.11.06.24.15.24.15.13.08.23.15.23.15v.78s-.14-.1-.14-.1c-.1-.06-.18-.11-.18-.11-.12-.07-.19-.07-.19-.07-.06,0-.09.08-.09.08-.02.08-.02.27-.02.27v.26s.71.4.71.4v.78s-.71-.4-.71-.4v2.69s-.86-.49-.86-.49v-2.69ZM144.44,185.17c-.41-.23-.71-.64-.71-.64-.3-.4-.47-.9-.47-.9-.16-.5-.16-1.04-.16-1.04,0-.53.16-.85.16-.85.16-.32.46-.38.46-.38.3-.06.7.16.7.16.18.1.37.29.37.29.19.19.35.42.35.42v-.22s.86.49.86.49v2.66c0,.52.11.87.11.87l-.81-.46c-.04-.11-.06-.27-.06-.27-.33.13-.79-.13-.79-.13ZM143.92,183.06c0,.3.1.6.1.6.1.3.26.54.26.54.16.24.35.34.35.34.13.07.29.1.29.1.16.02.28-.13.28-.13v-1.44c-.12-.29-.28-.45-.28-.45-.16-.15-.29-.23-.29-.23-.18-.1-.35-.06-.35-.06-.16.05-.26.24-.26.24-.1.19-.1.49-.1.49ZM148.94,187.52c-.41-.04-.85-.28-.85-.28-.46-.26-.84-.7-.84-.7-.38-.44-.61-.98-.61-.98-.23-.54-.23-1.07-.23-1.07,0-.56.21-.85.21-.85.21-.3.59-.31.59-.31.37,0,.83.25.83.25.42.24.85.66.85.66v.79c-.33-.35-.67-.55-.67-.55-.42-.24-.7-.16-.7-.16-.28.08-.28.63-.28.63,0,.31.14.62.14.62.14.3.38.54.38.54.23.24.49.39.49.39.2.11.38.15.38.15.18.03.3-.02.3-.02v.87ZM152,189.19c-.2.03-.47-.05-.47-.05-.27-.08-.52-.23-.52-.23-.86-.49-1.3-1.23-1.3-1.23-.44-.74-.44-1.62-.44-1.62,0-.87.39-1.12.39-1.12.39-.24,1.08.15,1.08.15.68.38,1.07,1.07,1.07,1.07.39.69.39,1.56.39,1.56,0,.1-.01.27-.01.27l-2.09-1.19c.12.9.91,1.34.91,1.34.55.31,1,.17,1,.17v.85ZM151.39,186.83c-.07-.36-.24-.61-.24-.61-.17-.25-.41-.39-.41-.39-.23-.13-.38-.06-.38-.06-.16.07-.22.34-.22.34l1.26.72ZM152.98,188.88l.78.44-.62,1.55-.63-.36.47-1.64ZM157.12,192.36c-.06-.03-.18-.1-.18-.1-.72-.41-1.29-1.1-1.29-1.1v-.94c.29.39.65.73.65.73.35.35.64.51.64.51.24.13.37.07.37.07.14-.06.14-.24.14-.24,0-.25-.16-.55-.16-.55-.16-.3-.51-.63-.51-.63-.41-.39-.63-.67-.63-.67-.23-.29-.34-.59-.34-.59-.12-.3-.12-.67-.12-.67,0-.35.14-.55.14-.55.14-.21.41-.23.41-.23.27-.02.65.17.65.17.05.02.15.08.15.08.28.16.56.39.56.39.28.23.47.44.47.44v.83c-.21-.23-.49-.46-.49-.46-.28-.23-.49-.35-.49-.35-.27-.16-.42-.12-.42-.12-.14.03-.14.24-.14.24,0,.19.16.42.16.42.16.24.48.56.48.56.39.36.64.67.64.67.25.31.39.66.39.66.14.35.14.76.14.76,0,.39-.15.61-.15.61-.15.22-.42.23-.42.23-.27.02-.63-.17-.63-.17ZM158.98,189.88v-.99s.8.46.8.46v.99s.56.32.56.32v.78s-.56-.32-.56-.32v1.49c0,.19.02.3.02.3.02.11.09.18.09.18.06.07.19.14.19.14.08.05.14.07.14.07.06.03.1.04.1.04v.79c-.22-.1-.42-.21-.42-.21-.37-.21-.55-.4-.55-.4-.18-.19-.28-.47-.28-.47-.09-.27-.09-.69-.09-.69v-1.7s-.42-.24-.42-.24v-.78s.42.24.42.24ZM161.95,195.11c-.41-.23-.71-.63-.71-.63-.3-.4-.47-.9-.47-.9-.16-.5-.16-1.04-.16-1.04,0-.53.16-.85.16-.85.16-.32.46-.38.46-.38.3-.06.69.16.69.16.18.1.37.29.37.29.18.19.35.42.35.42v-.22s.86.49.86.49v2.66c0,.52.11.87.11.87l-.8-.46c-.04-.11-.06-.27-.06-.27-.33.13-.79-.13-.79-.13ZM161.43,193.01c0,.3.1.6.1.6.1.3.26.54.26.54.16.24.35.34.35.34.13.07.29.1.29.1.16.02.28-.13.28-.13v-1.44c-.12-.29-.28-.45-.28-.45-.16-.15-.29-.23-.29-.23-.18-.1-.35-.05-.35-.05-.16.05-.26.24-.26.24-.1.19-.1.49-.1.49ZM165.59,197.18c-.47-.27-.81-.77-.81-.77-.03.13-.06.19-.06.19l-.8-.46c.11-.23.11-.74.11-.74v-4.13s.86.49.86.49v1.69c.16-.06.35-.03.35-.03.18.03.37.13.37.13.4.22.69.62.69.62.3.4.46.91.46.91.16.51.16,1.04.16,1.04,0,.53-.16.85-.16.85-.16.32-.46.38-.46.38-.3.06-.7-.17-.7-.17ZM164.79,195.58c.11.32.28.49.28.49.17.17.31.25.31.25.18.1.34.05.34.05.16-.05.26-.24.26-.24.1-.19.1-.48.1-.48,0-.3-.1-.61-.1-.61-.1-.31-.26-.54-.26-.54-.16-.23-.34-.34-.34-.34-.14-.08-.31-.1-.31-.1-.17-.02-.28.17-.28.17v1.33ZM168.31,198.69c-.48-.27-.73-.74-.73-.74-.25-.46-.25-1.09-.25-1.09v-3.71s.85.49.85.49v3.45c0,.26.03.41.03.41.03.15.11.27.11.27.06.09.13.15.13.15.07.06.25.16.25.16v.85s-.41-.23-.41-.23ZM171.66,200.36c-.2.03-.47-.05-.47-.05-.27-.08-.52-.23-.52-.23-.85-.49-1.3-1.22-1.3-1.22-.44-.74-.44-1.62-.44-1.62,0-.87.39-1.11.39-1.11.39-.24,1.07.14,1.07.14.67.38,1.07,1.07,1.07,1.07.39.69.39,1.56.39,1.56,0,.1-.01.27-.01.27l-2.08-1.18c.12.89.9,1.34.9,1.34.55.31.99.17.99.17v.85ZM171.04,198c-.07-.36-.24-.61-.24-.61-.17-.25-.41-.39-.41-.39-.22-.13-.38-.06-.38-.06-.16.07-.22.34-.22.34l1.26.71ZM173.65,197.19l2.48,1.41v.87s-1.6-.91-1.6-.91v.97s1.38.78,1.38.78v.81s-1.38-.78-1.38-.78v1.84s-.88-.5-.88-.5v-4.49ZM177.78,204.11c-.41-.23-.71-.63-.71-.63-.3-.4-.46-.9-.46-.9-.16-.5-.16-1.03-.16-1.03,0-.53.16-.85.16-.85.16-.32.46-.38.46-.38.3-.06.69.16.69.16.18.1.37.29.37.29.18.18.34.42.34.42v-.22s.85.49.85.49v2.65c0,.52.11.87.11.87l-.8-.45c-.04-.11-.06-.27-.06-.27-.33.13-.78-.13-.78-.13ZM177.27,202.01c0,.29.1.59.1.59.1.3.26.54.26.54.16.24.34.34.34.34.13.07.29.1.29.1.16.02.28-.13.28-.13v-1.44c-.12-.29-.27-.44-.27-.44-.16-.15-.29-.23-.29-.23-.18-.1-.34-.05-.34-.05-.16.05-.26.24-.26.24-.1.19-.1.49-.1.49ZM181.01,205.94c-.33-.17-.66-.43-.66-.43-.33-.27-.58-.58-.58-.58v-.92c.22.32.53.62.53.62.31.3.54.41.54.41.17.08.24.05.24.05.07-.03.09-.1.09-.1.03-.18-.08-.35-.08-.35-.11-.16-.4-.43-.4-.43-.33-.29-.52-.55-.52-.55-.19-.25-.29-.49-.29-.49-.1-.24-.1-.52-.1-.52,0-.29.13-.46.13-.46.13-.16.41-.14.41-.14.28.02.6.2.6.2.24.14.49.33.49.33.25.19.41.38.41.38v.83c-.17-.2-.4-.41-.4-.41-.23-.21-.4-.31-.4-.31-.36-.21-.39,0-.39,0-.02.13.1.3.1.3.12.17.34.38.34.38.32.3.53.55.53.55.21.24.32.52.32.52.12.27.12.59.12.59,0,.47-.28.61-.28.61-.28.14-.72-.09-.72-.09ZM182.63,203.32v-.99s.8.45.8.45v.99s.55.31.55.31v.78s-.55-.31-.55-.31v1.49c0,.19.02.3.02.3.02.11.09.18.09.18.06.07.19.14.19.14.08.05.14.07.14.07.06.03.1.04.1.04v.79c-.22-.1-.42-.2-.42-.2-.37-.21-.55-.4-.55-.4-.18-.19-.27-.47-.27-.47-.09-.27-.09-.68-.09-.68v-1.7s-.42-.24-.42-.24v-.78s.42.24.42.24ZM184.71,206.91l.77.44-.61,1.55-.62-.35.46-1.63ZM189.47,210.74c-.61-.34-1.08-.88-1.08-.88-.47-.54-.74-1.2-.74-1.2-.27-.66-.27-1.37-.27-1.37,0-.74.26-1.13.26-1.13.26-.39.73-.4.73-.4.47-.02,1.07.32,1.07.32.3.17.6.41.6.41.3.24.5.46.5.46v.79c-.54-.54-1-.81-1-.81-.55-.31-.9-.12-.9-.12-.34.2-.34.99-.34.99,0,.42.17.84.17.84.17.42.45.76.45.76.28.34.6.54.6.54l.12.07c.24.14.48.19.48.19.24.05.43.02.43.02v.88c-.23,0-.49-.1-.49-.1-.26-.1-.59-.28-.59-.28ZM191.93,208.6v.37c.14-.1.33-.09.33-.09.19.01.39.12.39.12.13.08.25.19.25.19v.79c-.15-.13-.28-.21-.28-.21-.2-.11-.38-.14-.38-.14-.18-.02-.3.08-.3.08v2.34s-.85-.48-.85-.48v-3.46s.85.48.85.48ZM194.65,213.69c-.45-.26-.8-.68-.8-.68-.34-.42-.53-.94-.53-.94-.19-.52-.19-1.08-.19-1.08,0-.86.4-1.09.4-1.09.4-.23,1.11.17,1.11.17.7.4,1.1,1.09,1.1,1.09.4.69.4,1.55.4,1.55,0,.56-.19.87-.19.87-.19.31-.53.34-.53.34-.34.03-.79-.23-.79-.23ZM193.98,211.47c0,.49.19.9.19.9.19.41.48.58.48.58.3.17.48-.03.48-.03.18-.2.18-.69.18-.69,0-.51-.18-.88-.18-.88-.18-.37-.49-.54-.49-.54-.31-.18-.49-.01-.49-.01-.18.16-.18.67-.18.67ZM197.73,215.43c-.32-.16-.66-.43-.66-.43-.33-.27-.58-.57-.58-.57v-.92c.22.32.52.61.52.61.31.3.54.41.54.41.16.08.24.05.24.05.07-.03.09-.1.09-.1.03-.18-.08-.35-.08-.35-.11-.16-.4-.42-.4-.42-.32-.29-.52-.55-.52-.55-.19-.25-.29-.49-.29-.49-.1-.24-.1-.52-.1-.52,0-.29.13-.46.13-.46.13-.16.4-.14.4-.14.28.02.6.2.6.2.24.14.48.33.48.33.24.19.41.38.41.38v.82c-.17-.2-.4-.41-.4-.41-.23-.21-.4-.31-.4-.31-.36-.21-.39,0-.39,0-.02.13.1.3.1.3.12.17.34.38.34.38.32.3.52.55.52.55.2.24.32.52.32.52.12.27.12.59.12.59,0,.47-.28.61-.28.61-.28.14-.72-.09-.72-.09ZM200.28,216.88c-.32-.16-.66-.43-.66-.43-.33-.27-.58-.57-.58-.57v-.92c.22.32.52.61.52.61.31.3.54.41.54.41.16.08.24.05.24.05.07-.03.08-.1.08-.1.03-.18-.08-.35-.08-.35-.11-.16-.4-.42-.4-.42-.32-.29-.52-.55-.52-.55-.19-.25-.29-.49-.29-.49-.1-.24-.1-.52-.1-.52,0-.29.13-.46.13-.46.13-.16.4-.14.4-.14.28.02.59.2.59.2.24.14.48.33.48.33.24.19.41.38.41.38v.82c-.17-.2-.4-.41-.4-.41-.23-.21-.4-.31-.4-.31-.36-.21-.39,0-.39,0-.02.13.1.3.1.3.12.17.34.38.34.38.32.3.52.55.52.55.2.24.32.52.32.52.12.27.12.59.12.59,0,.47-.28.61-.28.61-.28.14-.72-.09-.72-.09ZM203.38,216.23v.74s-1.63-.93-1.63-.93v-.74s1.63.93,1.63.93ZM205.85,220.05c-.58-.33-1.01-.84-1.01-.84-.42-.51-.66-1.15-.66-1.15-.23-.64-.23-1.36-.23-1.36,0-.73.23-1.13.23-1.13.23-.41.66-.45.66-.45.43-.04,1.01.29,1.01.29.58.33,1,.85,1,.85.42.53.66,1.19.66,1.19.23.67.23,1.4.23,1.4,0,.72-.23,1.1-.23,1.1-.23.38-.65.4-.65.4-.42.03-1.01-.31-1.01-.31ZM204.88,217.23c0,.69.25,1.23.25,1.23.25.54.71.8.71.8.45.26.71,0,.71,0,.25-.25.25-.94.25-.94,0-.45-.11-.87-.11-.87-.11-.42-.33-.75-.33-.75-.22-.33-.52-.5-.52-.5-.3-.17-.51-.09-.51-.09-.22.08-.33.37-.33.37-.12.29-.12.75-.12.75ZM209.6,222.18c-.06-.03-.18-.1-.18-.1-.72-.41-1.27-1.09-1.27-1.09v-.94c.29.38.64.73.64.73.35.35.64.51.64.51.23.13.37.07.37.07.14-.06.14-.24.14-.24,0-.25-.16-.55-.16-.55-.16-.3-.51-.62-.51-.62-.4-.38-.63-.67-.63-.67-.23-.28-.34-.59-.34-.59-.11-.3-.11-.67-.11-.67,0-.34.14-.55.14-.55.14-.21.41-.23.41-.23.27-.02.64.17.64.17.05.02.15.08.15.08.28.16.55.38.55.38.28.23.47.44.47.44v.82c-.21-.23-.48-.45-.48-.45-.28-.23-.49-.35-.49-.35-.27-.15-.41-.12-.41-.12-.14.03-.14.24-.14.24,0,.19.15.42.15.42.15.23.48.55.48.55.39.35.63.66.63.66.24.31.38.66.38.66.14.35.14.76.14.76,0,.39-.15.61-.15.61-.15.22-.42.23-.42.23-.27.02-.62-.17-.62-.17Z"/>
              <path id="_文本_1-6" data-name="文本 1" class="cls-3" d="M93.65,143.34c-.59-.34-1.09-.97-1.09-.97-.49-.64-.79-1.39-.79-1.39-.3-.76-.3-1.47-.3-1.47v-7.25c0-.71.3-1.13.3-1.13.3-.42.79-.49.79-.49.49-.07,1.09.27,1.09.27l6.24,3.56c.61.35,1.1.98,1.1.98.49.63.79,1.39.79,1.39.3.76.3,1.47.3,1.47v7.25c0,.71-.3,1.13-.3,1.13-.3.42-.79.49-.79.49-.49.07-1.1-.27-1.1-.27l-6.24-3.55ZM93.65,141.58l6.24,3.55c.29.16.49.03.49.03.21-.13.21-.47.21-.47v-7.25c0-.34-.2-.71-.2-.71-.21-.36-.49-.53-.49-.53l-6.24-3.56c-.29-.16-.49-.03-.49-.03-.21.13-.21.47-.21.47v7.25c0,.34.21.71.21.71.21.36.49.53.49.53ZM103.94,154.13v-17.36s8.42,4.8,8.42,4.8c.59.34,1.08.97,1.08.97.49.63.79,1.39.79,1.39.29.76.29,1.46.29,1.46v7.24c0,.71-.3,1.13-.3,1.13-.3.42-.79.49-.79.49-.49.07-1.08-.26-1.08-.26l-6.94-3.95v4.93s-1.47-.84-1.47-.84ZM106.13,148.68l6.23,3.55c.29.16.49.03.49.03.21-.13.21-.47.21-.47v-7.24c0-.34-.2-.71-.2-.71-.21-.36-.49-.53-.49-.53l-6.23-3.55c-.29-.16-.5-.04-.5-.04-.21.12-.22.47-.22.47v7.24c0,.34.21.71.21.71.21.37.5.53.5.53ZM117.93,157.16c-.59-.34-1.08-.97-1.08-.97-.49-.63-.79-1.39-.79-1.39-.29-.76-.29-1.46-.29-1.46v-7.24c0-.71.3-1.13.3-1.13.29-.42.79-.49.79-.49.49-.07,1.08.26,1.08.26l6.21,3.54c.61.35,1.1.98,1.1.98.49.63.78,1.39.78,1.39.29.76.29,1.46.29,1.46v4.49s-9.09-5.18-9.09-5.18v2.74c0,.34.21.71.21.71.21.36.49.53.49.53l8.39,4.78v1.75s-8.39-4.78-8.39-4.78ZM117.23,149.68l7.61,4.34v-2.74c0-.34-.2-.71-.2-.71-.21-.36-.49-.53-.49-.53l-6.21-3.54c-.29-.16-.49-.03-.49-.03-.21.13-.21.47-.21.47v2.74ZM128.18,162.99v-12.4s8.38,4.78,8.38,4.78c.59.34,1.08.97,1.08.97.49.63.78,1.39.78,1.39.29.76.29,1.46.29,1.46v9.81s-1.46-.83-1.46-.83v-9.81c0-.34-.2-.7-.2-.7-.2-.36-.49-.52-.49-.52l-6.2-3.54c-.29-.16-.5-.04-.5-.04-.21.12-.21.47-.21.47v9.82s-1.46-.83-1.46-.83ZM142.71,171.27c-.6-.34-1.09-.98-1.09-.98-.49-.63-.77-1.38-.77-1.38-.28-.75-.28-1.45-.28-1.45v-13.86s1.46.83,1.46.83v4.06s4.46,2.55,4.46,2.55v1.75s-4.46-2.54-4.46-2.54v8.05c0,.34.2.7.2.7.2.36.49.52.49.52l3.77,2.15v1.75s-3.77-2.15-3.77-2.15ZM149.96,175.4c-.59-.33-1.07-.96-1.07-.96-.49-.63-.78-1.38-.78-1.38-.29-.75-.29-1.46-.29-1.46v-7.22c0-.7.29-1.12.29-1.12.29-.42.78-.49.78-.49.49-.07,1.07.26,1.07.26l6.18,3.52c.6.34,1.09.97,1.09.97.49.63.78,1.38.78,1.38.29.75.29,1.46.29,1.46v4.48s-9.03-5.15-9.03-5.15v2.73c0,.34.2.7.2.7.2.36.49.52.49.52l8.34,4.75v1.75s-8.34-4.75-8.34-4.75ZM149.27,167.94l7.56,4.31v-2.73c0-.34-.2-.7-.2-.7-.2-.36-.49-.52-.49-.52l-6.18-3.52c-.28-.16-.49-.03-.49-.03-.2.13-.2.47-.2.47v2.73ZM160.11,181.17v-9.79c0-.7.29-1.12.29-1.12.29-.42.78-.49.78-.49.49-.07,1.07.26,1.07.26l5.77,3.29v1.75s-5.77-3.29-5.77-3.29c-.28-.16-.49-.03-.49-.03-.2.13-.2.47-.2.47v9.79s-1.45-.83-1.45-.83ZM169.19,186.35v-13.83c0-.72.28-1.15.28-1.15.28-.42.77-.49.77-.49.49-.06,1.09.28,1.09.28l3.75,2.14v1.75s-3.75-2.14-3.75-2.14c-.28-.16-.49-.03-.49-.03-.2.13-.2.47-.2.47v1.47s4.44,2.53,4.44,2.53v1.75s-4.44-2.53-4.44-2.53v10.61s-1.45-.83-1.45-.83ZM178.51,191.65c-.58-.33-1.07-.96-1.07-.96-.49-.63-.78-1.38-.78-1.38-.29-.75-.29-1.45-.29-1.45v-4.47s8.97,5.11,8.97,5.11v-2.72c0-.34-.2-.7-.2-.7-.2-.36-.48-.52-.48-.52l-8.28-4.72v-1.75s8.28,4.72,8.28,4.72c.6.34,1.08.97,1.08.97.48.63.78,1.38.78,1.38.29.75.29,1.45.29,1.45v9.76s-8.29-4.72-8.29-4.72ZM178.51,189.9l6.83,3.89v-3.55s-7.52-4.29-7.52-4.29v2.73c0,.34.2.7.2.7.2.36.49.52.49.52ZM190.74,198.61c-.58-.33-1.07-.96-1.07-.96-.48-.63-.78-1.38-.78-1.38-.29-.75-.29-1.45-.29-1.45v-7.19c0-.7.29-1.12.29-1.12.29-.42.78-.49.78-.49.49-.07,1.07.26,1.07.26l8.24,4.7v1.74s-8.24-4.7-8.24-4.7c-.28-.16-.48-.03-.48-.03-.2.13-.2.47-.2.47v7.19c0,.34.2.7.2.7.2.36.48.52.48.52l8.28,4.71v1.74s-8.28-4.71-8.28-4.71ZM202.97,205.58c-.58-.33-1.06-.96-1.06-.96-.48-.63-.77-1.38-.77-1.38-.29-.75-.29-1.45-.29-1.45v-7.18c0-.7.29-1.12.29-1.12.29-.42.77-.49.77-.49.48-.07,1.06.26,1.06.26l6.12,3.49c.6.34,1.08.97,1.08.97.48.63.77,1.37.77,1.37.29.75.29,1.45.29,1.45v4.46s-8.94-5.1-8.94-5.1v2.72c0,.34.2.7.2.7.2.36.48.52.48.52l8.26,4.7v1.74s-8.26-4.7-8.26-4.7ZM202.29,198.15l7.49,4.27v-2.72c0-.34-.2-.7-.2-.7-.2-.36-.48-.52-.48-.52l-6.12-3.49c-.28-.16-.48-.03-.48-.03-.2.13-.2.47-.2.47v2.72Z"/>
            </g>
            <g class="cls-6">
              <path class="cls-4" d="M102.79,171.93v-4.58s1.32.75,1.32.75c.3.17.53.32.68.45.22.18.41.4.56.65.2.32.35.67.45,1.04.1.37.15.77.15,1.18,0,.35-.03.64-.1.87-.07.23-.16.4-.26.52s-.22.19-.35.22c-.13.03-.28.02-.46-.03-.18-.05-.38-.14-.62-.27l-1.39-.79ZM103.3,171.68l.82.47c.25.14.45.23.6.25.14.03.26.01.34-.04.12-.08.21-.22.28-.42.07-.2.1-.48.1-.83,0-.48-.07-.88-.2-1.22-.13-.33-.29-.6-.48-.79-.14-.14-.36-.29-.66-.47l-.81-.46v3.5Z"/>
              <path class="cls-4" d="M106.65,172.46c0-.61.14-.99.43-1.12.24-.11.53-.07.87.13.38.22.69.54.94.98s.36.92.36,1.44c0,.43-.05.73-.16.92-.11.18-.26.29-.47.3-.2.02-.43-.04-.67-.18-.39-.22-.7-.55-.94-.98-.24-.43-.36-.93-.36-1.49ZM107.13,172.73c0,.42.08.79.23,1.09.16.3.35.52.59.65s.43.14.58.01.23-.4.23-.84c0-.41-.08-.77-.23-1.07-.16-.3-.35-.51-.58-.65s-.43-.14-.59-.02c-.16.12-.23.4-.23.82Z"/>
              <path class="cls-4" d="M110.53,176.32l-.85-3.8.49.28.44,2.17.16.81s.05-.23.14-.6l.44-1.69.48.27.42,2.16.14.71.16-.55.48-1.65.46.26-.87,2.82-.49-.28-.44-2.24-.11-.63-.56,2.23-.49-.28Z"/>
              <path class="cls-4" d="M114.1,178.35v-3.32s.42.24.42.24v.47c.2-.25.5-.26.88-.04.17.09.32.22.46.37.14.15.25.31.31.46.07.16.12.32.15.5.02.11.03.3.03.56v2.04s-.47-.27-.47-.27v-2.02c0-.23-.02-.41-.05-.54s-.1-.26-.2-.38c-.09-.12-.2-.22-.33-.29-.2-.11-.37-.14-.52-.07-.15.07-.22.32-.22.74v1.81s-.47-.27-.47-.27Z"/>
              <path class="cls-4" d="M117.29,180.15v-4.58s.47.27.47.27v4.58s-.47-.27-.47-.27Z"/>
              <path class="cls-4" d="M118.52,179.2c0-.61.14-.99.43-1.12.24-.11.53-.07.87.13.38.22.69.54.94.98s.36.92.36,1.44c0,.43-.05.73-.16.91-.11.18-.26.28-.47.3-.2.02-.43-.04-.67-.18-.39-.22-.7-.55-.94-.98-.24-.43-.36-.93-.36-1.49ZM119.01,179.47c0,.42.08.79.23,1.09s.35.52.59.65.43.14.58.01.23-.4.23-.84c0-.41-.08-.77-.23-1.07-.16-.3-.35-.51-.58-.65s-.43-.14-.59-.02-.23.39-.23.82Z"/>
              <path class="cls-4" d="M123.7,183.38c-.17.08-.34.11-.5.09-.16-.02-.33-.08-.52-.18-.3-.17-.54-.39-.7-.67-.16-.27-.25-.54-.25-.82,0-.16.03-.29.09-.39.06-.1.14-.16.24-.19.1-.02.21-.02.34,0,.09.02.23.07.42.15.38.16.66.26.84.28,0-.08,0-.12,0-.14,0-.23-.04-.42-.13-.56-.12-.2-.3-.36-.54-.49-.22-.13-.38-.17-.49-.14-.1.03-.18.15-.23.36l-.46-.34c.04-.21.11-.36.21-.45s.23-.12.42-.1c.18.02.39.1.63.24s.43.28.58.43.26.3.33.44.12.3.15.46c.02.1.02.28.02.53v.75c0,.52,0,.86.03,1.01.02.15.06.3.12.47l-.49-.28c-.05-.14-.08-.3-.09-.46ZM123.66,182.1c-.17-.01-.43-.09-.77-.22-.19-.08-.33-.12-.41-.12-.08,0-.14.02-.19.08s-.07.13-.07.23c0,.15.05.3.14.45.1.15.23.28.42.39s.34.15.48.13.24-.09.31-.21c.05-.1.08-.27.08-.52v-.2Z"/>
              <path class="cls-4" d="M126.87,185.59v-.42c-.18.23-.43.25-.77.05-.22-.13-.42-.31-.61-.56-.19-.25-.33-.54-.43-.85-.1-.32-.15-.65-.15-.99s.05-.6.14-.82.23-.35.42-.38c.18-.04.39,0,.62.14.17.09.32.22.45.38.13.16.24.33.32.51v-1.64s.47.27.47.27v4.57s-.44-.25-.44-.25ZM125.39,183.09c0,.42.07.78.22,1.08.15.29.33.5.53.61s.38.12.52,0c.14-.12.22-.39.22-.8,0-.45-.07-.83-.22-1.12s-.33-.5-.54-.62-.38-.12-.52,0c-.14.12-.21.41-.21.84Z"/>
              <path class="cls-4" d="M131.77,187.95c-.17.08-.34.11-.5.09-.16-.02-.33-.08-.52-.18-.3-.17-.54-.39-.7-.66-.16-.27-.25-.54-.25-.82,0-.16.03-.29.09-.39.06-.1.14-.16.24-.19.1-.02.21-.02.34,0,.09.02.23.07.42.15.38.16.66.25.84.28,0-.08,0-.12,0-.14,0-.23-.04-.42-.13-.56-.12-.2-.3-.36-.53-.49-.22-.13-.38-.17-.49-.14-.1.03-.18.15-.23.36l-.46-.34c.04-.21.11-.36.21-.45s.23-.12.41-.1c.18.02.39.1.63.24s.43.28.58.43.26.3.33.44.12.3.15.46c.02.1.02.28.02.53v.75c0,.52,0,.86.03,1.01.02.15.06.3.12.47l-.49-.28c-.05-.14-.08-.3-.09-.46ZM131.73,186.68c-.17-.01-.43-.09-.77-.22-.19-.08-.33-.12-.41-.12-.08,0-.14.02-.19.08s-.07.13-.07.23c0,.15.05.3.14.45.09.15.23.28.42.39s.34.15.48.13.24-.09.31-.21c.05-.1.08-.27.08-.52v-.2Z"/>
              <path class="cls-4" d="M133.14,190.41v-4.58s.43.24.43.24v.43c.1-.11.21-.17.34-.19.13-.01.28.03.46.14.24.13.44.32.63.57s.32.53.41.85c.09.32.14.63.14.95,0,.34-.05.62-.15.83-.1.21-.25.34-.44.37-.19.03-.4,0-.61-.13-.16-.09-.3-.21-.42-.36-.12-.15-.23-.31-.31-.47v1.61s-.47-.27-.47-.27ZM133.57,187.75c0,.43.07.78.22,1.07s.32.49.52.6.39.11.54-.01c.15-.13.22-.41.22-.85s-.07-.78-.22-1.07c-.15-.29-.32-.49-.52-.61s-.38-.1-.53.03c-.15.14-.23.42-.23.84Z"/>
              <path class="cls-4" d="M136.32,192.22v-4.58s.43.24.43.24v.43c.1-.11.21-.17.34-.19.13-.01.28.03.46.14.24.13.44.32.62.57s.32.53.41.85c.09.32.14.63.14.95,0,.34-.05.62-.15.83-.1.21-.25.34-.44.37-.19.03-.4,0-.61-.13-.16-.09-.3-.21-.42-.36-.12-.15-.23-.31-.31-.47v1.61s-.47-.27-.47-.27ZM136.75,189.55c0,.42.07.78.22,1.07s.32.49.52.6.39.11.54-.01c.15-.13.22-.41.22-.85s-.07-.78-.22-1.07c-.15-.29-.32-.49-.52-.61s-.38-.1-.53.03c-.15.14-.23.42-.23.84Z"/>
              <path class="cls-4" d="M141.31,193.77v-2.87s-.41-.23-.41-.23v-.44s.41.23.41.23v-.35c0-.22.02-.38.05-.47.05-.12.12-.19.24-.22.11-.03.27.02.48.14.13.07.28.18.44.31l-.07.45c-.1-.08-.19-.14-.28-.19-.14-.08-.24-.1-.3-.06-.06.04-.09.16-.09.36v.31s.54.31.54.31v.44s-.54-.31-.54-.31v2.87s-.47-.26-.47-.26Z"/>
              <path class="cls-4" d="M142.88,194.67v-3.31s.42.24.42.24v.5c.11-.17.21-.27.3-.3.09-.02.19,0,.3.06.16.09.32.24.48.45l-.16.43c-.11-.15-.23-.25-.34-.32-.1-.06-.19-.07-.28-.05s-.14.1-.17.21c-.05.17-.08.37-.08.61v1.73s-.47-.27-.47-.27Z"/>
              <path class="cls-4" d="M144.7,194.04c0-.61.14-.98.43-1.12.24-.11.53-.07.87.13.38.22.69.54.93.97s.36.91.36,1.44c0,.43-.05.73-.16.91-.11.18-.26.28-.47.3-.2.02-.43-.04-.67-.18-.39-.22-.7-.54-.94-.98-.24-.43-.36-.93-.36-1.49ZM145.18,194.32c0,.42.08.78.23,1.08s.35.51.58.65.43.14.58.01.23-.4.23-.84c0-.41-.08-.76-.23-1.06-.15-.3-.35-.51-.58-.64s-.43-.14-.58-.02-.23.39-.23.82Z"/>
              <path class="cls-4" d="M148.05,197.6v-3.31s.42.24.42.24v.46c.09-.11.2-.18.35-.19s.31.03.49.13c.2.12.37.26.5.44.13.17.22.37.28.58.22-.26.5-.29.85-.1.27.16.48.37.63.63s.22.59.22.96v2.27s-.46-.26-.46-.26v-2.08c0-.22-.02-.39-.05-.51-.03-.12-.09-.23-.17-.33-.08-.11-.17-.19-.28-.25-.19-.11-.35-.12-.48-.04s-.19.29-.19.63v1.92s-.47-.27-.47-.27v-2.15c0-.25-.04-.46-.11-.62s-.2-.3-.37-.4c-.13-.07-.25-.1-.36-.08-.11.02-.19.09-.24.23-.05.13-.08.35-.08.65v1.72s-.47-.27-.47-.27Z"/>
              <path class="cls-4" d="M154.21,199.44c0-.61.14-.98.43-1.12.24-.11.53-.07.87.12.38.21.69.54.93.97s.36.91.36,1.44c0,.43-.05.73-.16.91-.11.18-.26.28-.46.3-.2.02-.43-.04-.67-.18-.39-.22-.7-.54-.94-.98-.24-.43-.36-.93-.36-1.48ZM154.69,199.71c0,.42.08.78.23,1.08s.35.51.58.65.42.14.58.01.23-.4.23-.84c0-.41-.08-.76-.23-1.06-.15-.3-.35-.51-.58-.64s-.43-.14-.58-.02-.23.39-.23.82Z"/>
              <path class="cls-4" d="M157.55,204.25v-4.57s.43.24.43.24v.43c.1-.11.21-.17.34-.19.13-.01.28.03.46.13.23.13.44.32.62.57s.32.53.41.85c.09.32.14.63.14.95,0,.34-.05.61-.15.83-.1.21-.25.34-.44.37-.19.04-.4,0-.61-.13-.16-.09-.3-.21-.42-.36-.12-.15-.23-.31-.3-.47v1.61s-.47-.26-.47-.26ZM157.97,201.59c0,.42.07.78.22,1.06s.32.48.52.6.38.11.53-.01c.15-.13.22-.41.22-.85s-.07-.78-.22-1.07c-.14-.29-.32-.49-.52-.61s-.37-.1-.53.03c-.15.14-.23.42-.23.84Z"/>
              <path class="cls-4" d="M162.6,204.79l.48.34c-.08.29-.22.48-.42.55s-.47.01-.79-.17c-.4-.23-.72-.56-.96-.99-.24-.43-.35-.91-.35-1.45s.12-.92.36-1.09.55-.15.93.07.67.53.9.96c.23.43.35.92.35,1.47,0,.03,0,.08,0,.15l-2.05-1.16c.02.37.1.7.26.98.15.28.35.48.58.61.17.1.32.13.44.09s.22-.16.29-.35ZM161.07,203.01l1.54.87c-.02-.29-.08-.53-.18-.73-.15-.3-.34-.52-.58-.65-.21-.12-.39-.14-.54-.05-.15.09-.23.27-.24.55Z"/>
              <path class="cls-4" d="M163.88,206.58v-3.3s.42.24.42.24v.47c.2-.25.49-.26.88-.05.17.09.32.22.46.37.14.15.24.3.31.46.07.15.12.32.15.49.02.11.03.3.03.56v2.03s-.47-.26-.47-.26v-2.01c0-.23-.02-.41-.05-.54s-.1-.26-.19-.38c-.09-.12-.2-.21-.32-.28-.2-.11-.37-.13-.51-.06-.14.07-.22.31-.22.74v1.8s-.47-.26-.47-.26Z"/>
              <path class="cls-4" d="M168.06,208.45l.07.53c-.13-.04-.25-.09-.35-.15-.17-.1-.3-.2-.39-.32-.09-.12-.16-.24-.2-.37s-.06-.36-.06-.69v-1.9s-.34-.19-.34-.19v-.43s.34.19.34.19v-.82s.46-.07.46-.07v1.15s.47.27.47.27v.43s-.47-.27-.47-.27v1.93c0,.16,0,.27.02.32.02.06.04.11.08.15.04.05.09.09.16.13.05.03.12.06.2.09Z"/>
              <path class="cls-4" d="M170.61,209.33l.48.34c-.08.29-.22.48-.42.55s-.47.01-.79-.17c-.4-.23-.72-.56-.96-.99-.24-.43-.35-.91-.35-1.45s.12-.92.36-1.09.55-.15.93.07.67.53.9.96c.23.43.35.92.35,1.47,0,.03,0,.08,0,.15l-2.05-1.16c.02.37.1.7.26.98.15.28.35.48.57.61.17.1.32.13.44.09s.22-.16.29-.35ZM169.08,207.56l1.53.87c-.02-.29-.08-.53-.18-.72-.15-.3-.34-.52-.58-.65-.21-.12-.39-.14-.54-.05-.15.09-.23.27-.24.55Z"/>
              <path class="cls-4" d="M171.88,211.11v-3.3s.42.24.42.24v.5c.11-.17.21-.27.3-.3.09-.02.19,0,.3.06.16.09.32.24.48.45l-.16.43c-.11-.15-.23-.25-.34-.32-.1-.06-.19-.07-.27-.05s-.14.1-.17.21c-.05.17-.08.37-.08.61v1.73s-.47-.26-.47-.26Z"/>
              <path class="cls-4" d="M173.98,212.3v-2.86s-.41-.23-.41-.23v-.43s.41.23.41.23v-.35c0-.22.02-.38.05-.47.04-.12.12-.19.24-.22.11-.03.27.02.47.13.13.07.28.18.43.3l-.07.45c-.1-.08-.19-.14-.27-.19-.14-.08-.24-.1-.3-.06-.06.04-.09.16-.09.36v.3s.54.3.54.3v.43s-.54-.3-.54-.3v2.86s-.46-.26-.46-.26Z"/>
              <path class="cls-4" d="M177.34,213.8c-.17.08-.34.11-.5.09-.16-.02-.33-.08-.51-.18-.3-.17-.53-.39-.7-.66-.16-.27-.24-.54-.24-.82,0-.16.03-.29.09-.39.06-.1.14-.16.24-.19.1-.02.21-.02.34,0,.09.02.23.07.41.15.38.16.65.25.83.28,0-.08,0-.12,0-.14,0-.23-.04-.41-.13-.56-.12-.19-.3-.36-.53-.49-.22-.12-.38-.17-.48-.14-.1.03-.18.15-.23.36l-.46-.33c.04-.21.11-.36.2-.45s.23-.12.41-.1c.18.02.39.1.62.24s.42.27.57.42.25.29.32.43.12.29.14.46c.02.1.02.28.02.53v.74c0,.52.01.85.03,1,.02.15.06.3.12.46l-.49-.28c-.05-.14-.08-.3-.09-.46ZM177.3,212.53c-.17-.01-.42-.09-.76-.22-.19-.08-.33-.12-.41-.12-.08,0-.14.02-.18.08s-.06.13-.06.23c0,.15.05.3.14.45.09.15.23.28.41.38s.34.14.48.13.24-.09.31-.21c.05-.1.07-.27.07-.52v-.2Z"/>
              <path class="cls-4" d="M180.49,214.79l.46.33c-.05.35-.18.57-.38.67-.21.1-.46.06-.76-.11-.38-.21-.68-.53-.91-.96-.23-.42-.34-.91-.34-1.46,0-.36.05-.64.15-.85s.25-.33.45-.35c.2-.02.42.04.66.17.3.17.54.4.73.69s.31.61.36.98l-.45-.17c-.04-.25-.12-.45-.23-.63-.11-.17-.24-.3-.4-.39-.23-.13-.42-.14-.57-.02-.15.12-.22.4-.22.83s.07.8.21,1.09c.14.28.33.49.55.61.18.1.33.12.46.06.12-.07.2-.23.23-.49Z"/>
              <path class="cls-4" d="M183.44,216.6l.48.34c-.08.29-.22.48-.42.55s-.47.01-.78-.17c-.4-.23-.72-.56-.95-.99-.24-.43-.35-.91-.35-1.45s.12-.92.36-1.09.55-.15.92.07.67.53.9.96c.23.43.35.92.35,1.46,0,.03,0,.08,0,.15l-2.04-1.16c.02.37.1.7.26.98.15.28.34.48.57.61.17.1.32.13.44.09s.22-.16.29-.35ZM181.91,214.84l1.53.87c-.02-.29-.08-.53-.18-.72-.15-.3-.34-.52-.58-.65-.21-.12-.39-.14-.54-.05-.15.09-.23.27-.24.55Z"/>
              <path class="cls-4" d="M184.84,218.46v-.64s.53.3.53.3v.64s-.53-.3-.53-.3Z"/>
              <path class="cls-4" d="M188.18,219.15l.46.33c-.05.35-.18.57-.38.67-.21.1-.46.06-.76-.11-.38-.21-.68-.53-.9-.95-.23-.42-.34-.91-.34-1.46,0-.35.05-.64.15-.85s.25-.33.45-.35c.2-.02.42.04.65.17.3.17.54.4.73.69.19.29.31.61.36.98l-.45-.17c-.04-.25-.12-.45-.23-.63-.11-.17-.24-.3-.4-.39-.23-.13-.42-.14-.57-.02-.15.12-.22.4-.22.83s.07.8.21,1.09c.14.28.33.48.55.61.18.1.33.12.46.06.12-.07.2-.23.23-.49Z"/>
              <path class="cls-4" d="M189.07,219.21c0-.61.14-.98.42-1.11.24-.11.52-.07.86.12.38.21.68.54.92.97s.36.91.36,1.43c0,.42-.05.73-.16.91-.11.18-.26.28-.46.3-.2.02-.42-.04-.66-.17-.38-.22-.69-.54-.93-.97-.24-.43-.35-.92-.36-1.48ZM189.55,219.48c0,.42.08.78.23,1.08s.35.51.58.64.42.13.57,0,.23-.4.23-.83c0-.41-.08-.76-.23-1.06-.15-.3-.34-.51-.57-.64s-.42-.14-.58-.02-.23.39-.23.81Z"/>
              <path class="cls-4" d="M192.39,222.74v-3.29s.41.24.41.24v.46c.09-.11.2-.18.34-.19s.31.03.49.13c.2.11.37.26.5.44.13.17.22.37.27.58.22-.26.5-.29.84-.1.27.15.48.36.63.63s.22.58.22.96v2.26s-.46-.26-.46-.26v-2.07c0-.22-.02-.39-.05-.51-.03-.12-.09-.23-.16-.33-.08-.11-.17-.19-.28-.25-.19-.11-.35-.12-.48-.04s-.19.29-.19.63v1.91s-.46-.26-.46-.26v-2.14c0-.25-.04-.46-.11-.62s-.2-.3-.37-.4c-.13-.07-.25-.1-.36-.08-.11.02-.19.09-.24.23-.05.13-.07.35-.07.64v1.71s-.46-.26-.46-.26Z"/>
              <path class="cls-4" d="M101.67,176.22l.48.22c.02.24.08.46.16.66.08.19.21.39.39.58.17.19.37.35.59.47.19.11.37.17.51.19s.26-.02.33-.09c.07-.08.11-.19.11-.33s-.04-.29-.1-.44-.18-.3-.35-.47c-.1-.11-.33-.31-.68-.61s-.6-.54-.74-.71c-.18-.22-.32-.44-.41-.66-.09-.22-.14-.44-.14-.65,0-.23.06-.42.17-.55s.27-.2.48-.18c.21.01.45.1.71.24.28.16.54.36.75.59.22.23.38.49.5.77s.18.55.19.83l-.49-.23c-.03-.3-.11-.57-.27-.81-.15-.23-.37-.43-.67-.6s-.53-.23-.67-.18c-.14.06-.21.18-.21.37,0,.17.05.33.15.49.1.16.35.42.77.76.41.35.7.6.85.77.22.25.39.5.5.75s.16.5.16.74-.06.44-.18.59c-.12.15-.29.22-.5.22-.22,0-.47-.09-.74-.24-.35-.2-.64-.42-.87-.68-.24-.25-.42-.54-.55-.86-.13-.32-.2-.63-.21-.94Z"/>
              <path class="cls-4" d="M106.6,179.99l.07.53c-.13-.04-.25-.09-.36-.15-.17-.1-.3-.2-.4-.32-.09-.12-.16-.24-.2-.37s-.06-.36-.06-.7v-1.91s-.35-.2-.35-.2v-.44s.35.2.35.2v-.82s.47-.07.47-.07v1.16s.47.27.47.27v.44s-.47-.27-.47-.27v1.94c0,.16,0,.27.02.32.02.06.04.11.08.16.04.05.09.09.16.13.05.03.12.06.21.1Z"/>
              <path class="cls-4" d="M109.09,181.49c-.17.08-.34.11-.5.09-.16-.02-.34-.08-.52-.18-.31-.17-.54-.39-.7-.67-.16-.27-.25-.54-.25-.82,0-.16.03-.29.09-.39.06-.1.14-.16.24-.19.1-.02.21-.02.34,0,.09.02.23.07.42.15.38.16.66.26.84.28,0-.08,0-.12,0-.14,0-.23-.04-.42-.13-.56-.12-.2-.3-.36-.54-.49-.22-.13-.39-.17-.49-.14-.11.03-.18.15-.23.36l-.46-.34c.04-.21.11-.36.21-.45s.23-.12.42-.1c.18.02.39.1.63.24s.43.28.58.43.26.3.33.44.12.3.15.47c.02.11.02.28.02.53v.75c0,.52,0,.86.03,1.01.02.15.06.31.12.47l-.49-.28c-.05-.14-.08-.3-.09-.46ZM109.06,180.22c-.17-.01-.43-.09-.77-.22-.19-.08-.33-.12-.41-.12-.08,0-.14.02-.19.08s-.07.13-.07.23c0,.15.05.3.14.46.1.15.23.28.42.39s.34.15.48.13.25-.09.31-.21c.05-.1.08-.27.08-.52v-.2Z"/>
              <path class="cls-4" d="M110.47,182.68v-3.32s.42.24.42.24v.5c.11-.17.21-.27.3-.3.09-.02.19,0,.3.06.16.09.32.24.48.46l-.16.43c-.12-.15-.23-.25-.35-.32-.1-.06-.2-.07-.28-.05s-.14.1-.18.21c-.05.17-.08.37-.08.61v1.74s-.47-.27-.47-.27Z"/>
              <path class="cls-4" d="M113.5,183.9l.07.53c-.13-.04-.25-.09-.36-.15-.17-.1-.3-.2-.4-.32-.09-.12-.16-.24-.2-.37s-.06-.36-.06-.7v-1.91s-.35-.2-.35-.2v-.44s.35.2.35.2v-.82s.47-.07.47-.07v1.16s.47.27.47.27v.44s-.47-.27-.47-.27v1.94c0,.16,0,.27.02.32.02.06.04.11.08.15.04.05.09.09.16.13.05.03.12.06.21.1Z"/>
              <path class="cls-4" d="M115.86,187.01l-.05-.56c.1.09.19.16.27.2.1.06.19.09.25.08s.11-.04.15-.09c.03-.04.08-.15.14-.34,0-.03.02-.06.04-.11l-1.05-3.92.51.29.58,2.25c.07.29.14.58.2.88.05-.23.12-.44.19-.65l.59-1.6.47.27-1.06,2.77c-.11.3-.2.5-.26.6-.08.14-.18.22-.29.24s-.24,0-.39-.09c-.09-.05-.19-.13-.3-.24Z"/>
              <path class="cls-4" d="M118.6,185.63c0-.61.14-.99.43-1.12.24-.11.53-.07.87.13.38.22.69.54.94.98s.36.92.36,1.44c0,.43-.05.73-.16.92-.11.18-.26.29-.47.31-.2.02-.43-.04-.67-.18-.39-.22-.7-.55-.94-.98-.24-.43-.36-.93-.36-1.49ZM119.08,185.9c0,.42.08.79.23,1.09s.35.52.59.65.43.14.58.01.23-.4.23-.84c0-.41-.08-.77-.23-1.06-.16-.3-.35-.51-.58-.65s-.43-.14-.59-.02-.23.39-.23.82Z"/>
              <path class="cls-4" d="M123.78,190.22v-.49c-.22.25-.51.27-.88.06-.16-.09-.32-.22-.46-.37-.14-.16-.25-.31-.32-.46-.07-.15-.12-.32-.15-.5-.02-.12-.03-.3-.03-.54v-2.05s.47.27.47.27v1.84c0,.29,0,.5.03.61.03.17.09.32.19.45.1.14.21.25.36.33s.27.11.4.1.21-.09.26-.2c.05-.12.08-.32.08-.6v-1.78s.47.27.47.27v3.31s-.42-.24-.42-.24Z"/>
              <path class="cls-4" d="M125.14,190.99v-3.31s.42.24.42.24v.5c.11-.17.21-.27.3-.3.09-.02.19,0,.3.06.16.09.32.24.48.45l-.16.43c-.11-.15-.23-.25-.34-.32-.1-.06-.19-.07-.28-.05s-.14.1-.17.21c-.05.17-.08.37-.08.61v1.73s-.47-.27-.47-.27Z"/>
              <path class="cls-4" d="M128.65,191.99l.46.18c.03.24.1.45.22.63.12.18.29.34.5.46s.38.16.48.11.16-.14.16-.28c0-.13-.05-.25-.14-.38-.06-.09-.22-.24-.48-.46-.34-.3-.58-.52-.72-.68-.13-.15-.23-.31-.3-.49-.07-.17-.1-.34-.1-.5,0-.15.03-.27.09-.36.06-.09.13-.15.23-.18.07-.02.17-.02.3,0,.13.03.26.08.41.16.22.12.41.27.57.44.16.17.29.34.36.51.08.17.13.37.16.6l-.46-.19c-.02-.18-.08-.35-.18-.5-.1-.15-.24-.28-.42-.38-.22-.12-.37-.17-.46-.13-.09.03-.14.11-.14.22,0,.07.02.15.06.23.04.08.1.17.18.25.05.05.19.17.41.38.33.29.56.51.7.65.13.14.23.3.31.47s.11.35.11.54-.05.34-.14.45c-.09.11-.22.17-.39.16-.17,0-.37-.07-.58-.19-.36-.2-.63-.45-.82-.73-.19-.29-.31-.62-.36-1Z"/>
              <path class="cls-4" d="M133.62,194.73l.48.35c-.08.3-.22.48-.42.55s-.47.01-.79-.17c-.41-.23-.73-.56-.96-.99-.24-.43-.36-.92-.36-1.46s.12-.92.36-1.09.55-.15.93.07.67.53.91.97c.23.43.35.92.35,1.47,0,.03,0,.08,0,.15l-2.06-1.17c.02.37.1.7.26.98.15.28.35.49.58.62.17.1.32.13.44.09s.22-.16.29-.35ZM132.08,192.95l1.55.88c-.02-.29-.08-.53-.18-.73-.15-.3-.34-.52-.58-.65-.22-.12-.4-.14-.54-.05-.15.09-.23.27-.24.56Z"/>
              <path class="cls-4" d="M136.71,197.14c-.17.08-.34.11-.5.09-.16-.02-.33-.08-.52-.18-.3-.17-.54-.39-.7-.66-.16-.27-.24-.54-.24-.82,0-.16.03-.29.09-.39.06-.1.14-.16.24-.19.1-.02.21-.02.34,0,.09.02.23.07.42.15.38.16.66.25.84.28,0-.08,0-.12,0-.14,0-.23-.04-.42-.13-.56-.12-.2-.3-.36-.53-.49-.22-.12-.38-.17-.49-.14-.1.03-.18.15-.23.36l-.46-.33c.04-.21.11-.36.21-.45s.23-.12.41-.1c.18.02.39.1.63.24s.43.28.58.43.26.29.33.43.12.3.15.46c.02.1.02.28.02.53v.75c0,.52,0,.86.03,1.01.02.15.06.3.12.46l-.49-.28c-.05-.14-.08-.3-.09-.46ZM136.67,195.86c-.17-.01-.43-.09-.77-.22-.19-.08-.33-.12-.41-.12-.08,0-.14.02-.18.08s-.07.13-.07.23c0,.15.05.3.14.45.09.15.23.28.42.39s.34.15.48.13.24-.09.31-.21c.05-.1.08-.27.08-.52v-.2Z"/>
              <path class="cls-4" d="M138.08,198.33v-3.31s.42.24.42.24v.46c.09-.11.2-.18.35-.2s.31.03.49.13c.2.12.37.26.5.44.13.17.22.37.28.58.22-.26.5-.29.85-.1.27.16.49.37.63.63s.22.59.22.96v2.27s-.47-.26-.47-.26v-2.08c0-.22-.02-.39-.05-.51-.03-.12-.09-.23-.17-.33-.08-.11-.17-.19-.28-.25-.19-.11-.36-.12-.48-.04s-.19.29-.19.63v1.92s-.47-.27-.47-.27v-2.15c0-.25-.04-.46-.11-.63s-.2-.3-.37-.4c-.13-.07-.25-.1-.37-.08-.11.02-.19.09-.24.23-.05.13-.08.35-.08.65v1.72s-.47-.27-.47-.27Z"/>
              <path class="cls-4" d="M142.73,200.96v-4.56s.47.27.47.27v4.56s-.47-.27-.47-.27Z"/>
              <path class="cls-4" d="M146.02,201.76l.48.34c-.08.3-.22.48-.42.55s-.47.01-.79-.17c-.4-.23-.72-.56-.96-.99-.24-.43-.36-.92-.36-1.45s.12-.92.36-1.09.55-.15.93.07.67.53.9.96c.23.43.35.92.35,1.47,0,.03,0,.08,0,.15l-2.06-1.17c.02.37.1.7.26.98.15.28.35.49.58.62.17.1.32.13.44.09s.22-.16.29-.35ZM144.49,199.98l1.54.87c-.02-.29-.08-.53-.18-.73-.15-.3-.34-.52-.58-.65-.21-.12-.4-.14-.54-.05-.15.09-.23.27-.24.55Z"/>
              <path class="cls-4" d="M147.12,202.46l.46.17c.03.24.1.45.22.63.12.18.28.34.5.46s.37.16.48.11.16-.14.16-.28c0-.13-.05-.25-.14-.38-.06-.09-.22-.24-.48-.46-.34-.3-.58-.52-.71-.67-.13-.15-.23-.31-.3-.49-.07-.17-.1-.34-.1-.5,0-.15.03-.27.08-.36.06-.09.13-.15.23-.18.07-.02.17-.02.3,0,.13.03.26.08.4.16.22.12.41.27.57.44.16.17.28.34.36.51.08.17.13.37.16.6l-.46-.18c-.02-.18-.08-.35-.18-.5-.1-.15-.24-.28-.42-.38-.21-.12-.37-.17-.46-.13-.09.03-.14.11-.14.22,0,.07.02.15.06.23.04.08.1.16.18.25.05.05.18.17.41.38.33.29.56.51.69.65.13.14.23.3.31.47s.11.35.11.54-.05.34-.14.45c-.09.11-.22.17-.39.16-.17,0-.37-.07-.58-.19-.36-.2-.63-.45-.82-.73-.19-.28-.31-.62-.36-1Z"/>
              <path class="cls-4" d="M149.99,204.09l.46.17c.03.24.1.45.22.63.12.18.28.34.5.46s.37.16.48.11.16-.14.16-.28c0-.13-.05-.25-.14-.38-.06-.09-.22-.24-.48-.46-.34-.3-.58-.52-.71-.67-.13-.15-.23-.31-.3-.49-.07-.17-.1-.34-.1-.5,0-.15.03-.27.08-.36.06-.09.13-.15.23-.18.07-.02.17-.02.3,0,.13.03.26.08.4.16.22.12.41.27.57.44.16.17.28.34.36.51.08.17.13.37.16.6l-.46-.18c-.02-.18-.08-.35-.18-.5-.1-.15-.24-.28-.42-.38-.21-.12-.37-.17-.46-.13-.09.03-.14.11-.14.22,0,.07.02.15.06.23.04.08.1.16.18.25.05.05.18.17.41.38.33.29.56.51.69.65.13.14.23.3.31.47s.11.35.11.54-.05.34-.14.45c-.09.11-.22.17-.39.16-.17,0-.37-.07-.58-.19-.36-.2-.63-.45-.82-.73-.19-.28-.31-.62-.36-1Z"/>
              <path class="cls-4" d="M154.78,207.78v-4.56s.5.29.5.29v2.26s1.89-1.19,1.89-1.19l.68.39-1.6.94,1.67,3.66-.66-.38-1.35-3.07-.62.37v1.58s-.5-.29-.5-.29Z"/>
              <path class="cls-4" d="M159.65,210.54l-1.47-5.39.54.31.99,3.87c.08.31.15.6.2.86.06-.22.13-.43.2-.63l1.03-2.73.51.29-1.49,3.71-.52-.29Z"/>
              <path class="cls-4" d="M162.3,212.04v-4.56s.76.43.76.43l.9,3.74c.08.35.14.61.18.78.04-.14.11-.35.2-.62l.91-2.65.68.38v4.56s-.48-.27-.48-.27v-3.81s-1.1,3.19-1.1,3.19l-.45-.26-1.1-4.5v3.88s-.48-.27-.48-.27Z"/>
              <path class="cls-4" d="M170.37,215.4l.46.33c-.05.35-.18.57-.38.67-.21.1-.46.06-.76-.11-.38-.21-.68-.53-.91-.96-.23-.43-.34-.91-.34-1.46,0-.36.05-.64.15-.85s.25-.33.45-.35c.2-.02.42.04.66.17.3.17.54.4.73.69s.31.62.36.98l-.45-.17c-.04-.25-.12-.46-.23-.63-.11-.17-.24-.3-.4-.39-.23-.13-.43-.14-.57-.02-.15.12-.22.4-.22.83s.07.81.21,1.09c.14.28.33.49.55.61.18.1.34.12.46.06.12-.07.2-.23.23-.49Z"/>
              <path class="cls-4" d="M171.26,215.47c0-.61.14-.98.42-1.12.24-.11.52-.07.86.12.38.21.69.54.93.97s.36.91.36,1.43c0,.42-.05.73-.16.91-.11.18-.26.28-.46.31-.2.02-.42-.04-.66-.17-.38-.22-.7-.54-.93-.97-.24-.43-.36-.92-.36-1.48ZM171.74,215.74c0,.42.08.78.23,1.08s.35.51.58.64.42.13.58.01.23-.4.23-.83c0-.41-.08-.76-.23-1.06-.15-.3-.35-.51-.58-.64s-.43-.14-.58-.02-.23.39-.23.82Z"/>
              <path class="cls-4" d="M174.59,219.01v-3.3s.42.24.42.24v.47c.2-.25.49-.26.87-.05.17.09.32.22.46.37.14.15.24.3.31.46.07.15.12.32.14.49.02.11.03.3.03.56v2.03s-.47-.26-.47-.26v-2.01c0-.23-.02-.41-.05-.54s-.1-.26-.19-.38c-.09-.12-.2-.21-.32-.28-.2-.11-.37-.13-.51-.06-.14.07-.22.31-.22.74v1.8s-.47-.26-.47-.26Z"/>
              <path class="cls-4" d="M178.76,220.87l.07.53c-.13-.04-.25-.09-.35-.15-.17-.1-.3-.2-.39-.32-.09-.12-.16-.24-.2-.36s-.06-.36-.06-.69v-1.9s-.34-.19-.34-.19v-.43s.34.19.34.19v-.82s.46-.07.46-.07v1.15s.47.27.47.27v.43s-.47-.27-.47-.27v1.93c0,.16,0,.27.02.32.02.06.04.11.08.15.04.05.09.09.16.13.05.03.12.06.2.09Z"/>
              <path class="cls-4" d="M179.42,221.74v-3.3s.42.24.42.24v.5c.11-.17.21-.27.3-.3.09-.02.19,0,.3.06.16.09.32.24.48.45l-.16.43c-.11-.15-.23-.25-.34-.31-.1-.06-.19-.07-.27-.04s-.14.1-.17.21c-.05.17-.08.37-.08.61v1.73s-.46-.26-.46-.26Z"/>
              <path class="cls-4" d="M181.23,221.12c0-.61.14-.98.42-1.12.24-.11.52-.07.86.12.38.21.69.54.92.97s.36.91.36,1.43c0,.42-.05.73-.16.91-.11.18-.26.28-.46.31-.2.02-.42-.04-.66-.17-.38-.22-.69-.54-.93-.97-.24-.43-.36-.92-.36-1.48ZM181.71,221.39c0,.42.08.78.23,1.08s.35.51.58.64.42.13.58,0,.23-.4.23-.83c0-.41-.08-.76-.23-1.06-.15-.3-.35-.51-.57-.64s-.42-.14-.58-.02-.23.39-.23.82Z"/>
              <path class="cls-4" d="M184.54,224.65v-4.55s.46.26.46.26v4.55s-.46-.26-.46-.26Z"/>
              <path class="cls-4" d="M187.62,226.39v-3.29s.42.24.42.24v.47c.2-.25.49-.26.87-.05.17.09.32.22.46.36.14.15.24.3.31.46.07.15.12.32.14.49.02.11.03.3.03.56v2.02s-.46-.26-.46-.26v-2c0-.23-.02-.41-.05-.54s-.1-.26-.19-.38c-.09-.12-.2-.21-.32-.28-.2-.11-.37-.13-.51-.06-.14.07-.22.31-.21.74v1.8s-.46-.26-.46-.26Z"/>
              <path class="cls-4" d="M190.6,226.43c0-.61.14-.98.42-1.11.24-.11.52-.07.86.12.38.21.68.54.92.97s.36.91.36,1.43c0,.42-.05.73-.16.91-.11.18-.26.28-.46.3-.2.02-.42-.04-.66-.17-.38-.22-.69-.54-.93-.97-.24-.43-.35-.92-.35-1.48ZM191.07,226.7c0,.42.08.78.23,1.08s.35.51.58.64.42.13.57,0,.23-.4.23-.83c0-.41-.08-.76-.23-1.06-.15-.3-.34-.51-.57-.64s-.42-.14-.58-.01-.23.39-.23.81Z"/>
              <path class="cls-4" d="M194.42,230.24l-.84-3.77.48.27.44,2.15.16.8s.05-.23.14-.6l.43-1.68.48.27.41,2.14.14.71.16-.55.47-1.64.45.26-.85,2.81-.48-.27-.44-2.22-.11-.62-.55,2.22-.48-.27Z"/>
            </g>
            <g>
              <path class="cls-4" d="M96.16,183.26v-4.58s.77.43.77.43l.91,3.76c.08.35.15.61.18.78.04-.14.11-.35.2-.62l.92-2.67.68.39v4.58s-.49-.28-.49-.28v-3.84s-1.12,3.2-1.12,3.2l-.46-.26-1.11-4.53v3.9s-.49-.28-.49-.28Z"/>
              <path class="cls-4" d="M100.42,184.01c0-.61.14-.99.43-1.12.24-.11.53-.07.88.13.38.22.7.54.94.98s.36.92.36,1.45c0,.43-.05.73-.16.92-.11.18-.26.29-.47.31-.21.02-.43-.04-.67-.18-.39-.22-.7-.55-.94-.98-.24-.43-.36-.93-.36-1.49ZM100.9,184.28c0,.43.08.79.23,1.09s.35.52.59.65.43.14.58.01.23-.4.23-.84c0-.41-.08-.77-.23-1.07-.16-.3-.35-.51-.58-.65s-.43-.14-.59-.02-.23.4-.23.82Z"/>
              <path class="cls-4" d="M105.38,188.48v-.42c-.18.23-.44.25-.78.05-.22-.13-.43-.31-.61-.56-.19-.25-.33-.54-.43-.86-.1-.32-.15-.65-.15-.99s.05-.61.14-.82.23-.35.42-.38c.19-.04.39,0,.62.14.17.09.32.22.45.38.13.16.24.33.32.51v-1.64s.47.27.47.27v4.58s-.44-.25-.44-.25ZM103.89,185.98c0,.43.07.78.23,1.08.15.3.33.5.53.62s.38.12.53,0c.14-.12.22-.39.22-.8,0-.45-.07-.83-.22-1.12s-.33-.5-.54-.62-.38-.12-.53,0c-.14.13-.21.41-.21.85Z"/>
              <path class="cls-4" d="M108.46,189.15l.49.35c-.08.3-.22.48-.43.55s-.47.01-.8-.17c-.41-.23-.73-.56-.97-1-.24-.43-.36-.92-.36-1.46s.12-.92.36-1.1.55-.15.94.07.68.53.91.97c.24.43.35.93.35,1.47,0,.03,0,.08,0,.15l-2.07-1.17c.02.37.1.7.26.98.16.28.35.49.58.62.17.1.32.13.44.09s.22-.16.29-.35ZM106.92,187.37l1.55.88c-.02-.29-.08-.53-.18-.73-.15-.3-.34-.52-.58-.66-.22-.12-.4-.14-.55-.05-.15.09-.23.28-.24.56Z"/>
              <path class="cls-4" d="M109.53,190.82v-4.58s.47.27.47.27v4.58s-.47-.27-.47-.27Z"/>
              <path class="cls-4" d="M110.87,188.9v-.64s.54.3.54.3v.64s-.54-.3-.54-.3ZM110.87,191.58v-.64s.54.3.54.3v.64s-.54-.3-.54-.3Z"/>
              <path class="cls-4" d="M113.75,193.21v-4.58s.51.29.51.29v4.04s1.89,1.07,1.89,1.07v.54s-2.4-1.36-2.4-1.36Z"/>
              <path class="cls-4" d="M116.84,194.96v-4.58s.51.29.51.29v4.58s-.51-.29-.51-.29Z"/>
              <path class="cls-4" d="M120.03,194.97v-.54s1.62.92,1.62.92v1.7c-.25.1-.51.13-.77.1s-.54-.13-.82-.28c-.38-.21-.72-.5-1.03-.87-.31-.37-.54-.78-.7-1.23-.16-.45-.24-.9-.24-1.35s.08-.82.23-1.11c.16-.3.38-.46.67-.48s.63.07,1.01.29c.28.16.53.35.75.59.22.23.4.48.53.75s.22.57.29.91l-.46-.11c-.06-.27-.13-.49-.21-.67s-.21-.36-.37-.53-.33-.31-.53-.42c-.23-.13-.43-.2-.6-.21-.17-.01-.31.02-.41.1-.1.08-.18.18-.24.32-.1.23-.15.51-.15.84,0,.41.06.78.18,1.12.12.34.29.64.51.9s.46.46.72.6c.22.12.43.2.64.21s.37,0,.48-.05v-.85s-1.13-.64-1.13-.64Z"/>
              <path class="cls-4" d="M122.21,195.74c0-.54.05-.95.14-1.23.09-.28.23-.45.42-.53.18-.07.41-.03.69.12.21.12.39.27.54.45s.28.4.38.64.18.51.24.81.09.68.09,1.13c0,.54-.05.94-.14,1.22s-.23.45-.41.53c-.18.08-.42.03-.7-.12-.37-.21-.66-.53-.87-.97-.25-.52-.38-1.21-.38-2.07ZM122.69,196.01c0,.75.07,1.29.22,1.62.15.33.33.56.54.68s.4.1.54-.07c.15-.17.22-.62.22-1.37s-.07-1.29-.22-1.62c-.15-.33-.33-.56-.55-.68s-.39-.11-.52.04c-.16.19-.24.66-.24,1.41Z"/>
              <path class="cls-4" d="M127.65,200.53v.54s-2.53-1.43-2.53-1.43c0-.14.01-.26.05-.36.06-.17.17-.31.31-.43.14-.12.35-.23.61-.34.42-.17.7-.34.84-.49s.22-.34.22-.55c0-.22-.07-.45-.2-.68-.13-.23-.31-.4-.52-.52-.23-.13-.41-.15-.54-.06s-.2.27-.21.56l-.48-.33c.03-.41.16-.67.37-.77s.51-.05.87.15.66.49.87.86c.21.37.32.73.32,1.09,0,.18-.03.34-.09.49s-.17.27-.31.38c-.15.11-.39.24-.72.39-.28.12-.46.21-.54.27s-.15.12-.2.19l1.88,1.06Z"/>
              <path class="cls-4" d="M128.32,201.45v-4.57s1.43.81,1.43.81c.29.17.53.34.7.54.18.19.31.41.41.66.1.25.15.48.15.69,0,.2-.04.36-.13.48s-.22.19-.4.19c.23.21.41.45.53.72.12.27.19.53.19.8,0,.21-.04.39-.11.53-.08.14-.17.23-.28.27s-.25.03-.42-.01c-.17-.04-.37-.14-.62-.27l-1.46-.82ZM128.83,199.09l.83.47c.22.13.38.2.48.22.13.03.23,0,.29-.06.06-.07.1-.18.1-.34s-.03-.3-.09-.45c-.06-.15-.15-.28-.26-.38s-.31-.24-.58-.39l-.76-.43v1.38ZM128.83,201.2l.95.54c.16.09.28.15.34.17.12.04.21.05.29.04s.14-.06.19-.15.08-.2.08-.34c0-.17-.04-.34-.11-.51s-.17-.31-.3-.44c-.13-.12-.32-.25-.56-.39l-.88-.5v1.57Z"/>
              <path class="cls-4" d="M131.72,201.12c0-.54.05-.95.14-1.23.09-.28.23-.45.42-.53.18-.07.41-.03.69.12.2.12.38.27.54.45s.28.4.38.64.18.51.24.81.09.68.09,1.13c0,.54-.05.94-.14,1.22s-.23.45-.41.53c-.18.08-.41.03-.69-.12-.37-.21-.66-.53-.87-.96-.25-.52-.38-1.21-.38-2.07ZM132.2,201.39c0,.75.07,1.29.22,1.62.15.33.33.56.54.68s.4.1.54-.07c.15-.17.22-.62.22-1.37s-.07-1.29-.22-1.62c-.15-.33-.33-.56-.55-.68s-.39-.11-.52.04c-.16.19-.24.66-.24,1.41Z"/>
              <path class="cls-4" d="M136.45,206.05l-.47-.27v-3.57c-.11.07-.26.11-.44.13-.18.03-.35.03-.49.01v-.54c.26,0,.49-.05.69-.15s.33-.22.42-.37l.3.17v4.59Z"/>
              <path class="cls-4" d="M139.4,209.06v-5.99s.41.23.41.23v5.99s-.41-.23-.41-.23Z"/>
              <path class="cls-4" d="M142.19,209.3v-4.57s1.31.74,1.31.74c.3.17.52.32.68.45.22.18.4.4.56.64.2.32.35.66.45,1.03.1.37.15.76.15,1.17,0,.35-.03.63-.1.86-.07.23-.15.4-.26.52s-.22.19-.35.22c-.13.03-.28.02-.46-.03-.18-.05-.38-.14-.61-.27l-1.38-.78ZM142.69,209.04l.81.46c.25.14.45.23.59.25.14.03.26.01.34-.04.12-.08.21-.22.28-.42.07-.2.1-.48.1-.82,0-.48-.07-.88-.2-1.21-.13-.33-.29-.59-.48-.79-.14-.14-.35-.29-.65-.46l-.8-.45v3.49Z"/>
              <path class="cls-4" d="M147.86,211.44l.48.34c-.08.3-.22.48-.42.55s-.47.01-.79-.17c-.4-.23-.72-.56-.96-.99-.24-.43-.36-.92-.36-1.45s.12-.92.36-1.09.55-.15.93.07.67.53.9.96c.23.43.35.92.35,1.47,0,.03,0,.08,0,.15l-2.06-1.16c.02.37.1.7.26.98.15.28.35.49.58.62.17.1.32.13.44.09s.22-.16.29-.35ZM146.33,209.67l1.54.87c-.02-.29-.08-.53-.18-.73-.15-.3-.34-.52-.58-.65-.21-.12-.4-.14-.54-.05-.15.09-.23.27-.24.55Z"/>
              <path class="cls-4" d="M148.75,212.02l.46.17c.03.24.1.45.22.63.12.18.28.34.5.46s.37.16.48.11.16-.14.16-.28c0-.13-.05-.25-.14-.38-.06-.09-.22-.24-.48-.46-.34-.3-.58-.52-.71-.67-.13-.15-.23-.31-.3-.49-.07-.17-.1-.34-.1-.5,0-.15.03-.27.08-.36.06-.09.13-.15.23-.18.07-.02.17-.02.3,0,.13.03.26.08.4.16.22.12.41.27.57.43.16.17.28.34.36.51.08.17.13.37.16.6l-.46-.18c-.02-.18-.08-.35-.18-.5-.1-.15-.24-.28-.42-.38-.21-.12-.37-.17-.46-.13-.09.03-.14.11-.14.22,0,.07.02.15.06.23.04.08.1.16.18.25.05.05.18.17.41.38.33.29.56.51.69.65.13.14.23.3.31.47s.11.35.11.54-.05.34-.14.45c-.09.11-.22.17-.39.16-.17,0-.37-.07-.58-.19-.36-.2-.63-.45-.82-.73-.19-.28-.31-.62-.36-1Z"/>
              <path class="cls-4" d="M151.6,210.7v-.64s.47.26.47.26v.64s-.47-.26-.47-.26ZM151.6,214.62v-3.3s.47.26.47.26v3.3s-.47-.26-.47-.26Z"/>
              <path class="cls-4" d="M152.69,215.51l.45.34c.02.18.07.33.16.46.12.17.27.31.48.42.22.12.38.16.5.13s.2-.14.24-.3c.02-.1.04-.33.03-.7-.2.17-.46.17-.76,0-.38-.21-.67-.54-.88-.99s-.31-.9-.31-1.35c0-.32.05-.58.14-.79s.23-.34.41-.38c.18-.04.39,0,.64.14.33.18.59.49.8.93v-.4s.43.24.43.24v2.86c0,.51-.04.85-.13,1.02-.09.16-.23.26-.42.27-.19.02-.42-.05-.7-.21-.33-.19-.59-.43-.8-.72-.2-.29-.3-.61-.29-.97ZM153.08,213.75c0,.43.07.79.22,1.07s.32.48.54.6.39.12.54,0,.22-.39.22-.81-.07-.75-.22-1.04c-.15-.29-.33-.49-.54-.61s-.38-.12-.53,0c-.15.12-.22.38-.22.78Z"/>
              <path class="cls-4" d="M155.73,216.96v-3.3s.42.24.42.24v.47c.2-.25.49-.26.88-.05.17.09.32.22.46.37.14.15.24.3.31.46.07.15.12.32.15.5.02.11.03.3.03.56v2.03s-.47-.26-.47-.26v-2.01c0-.23-.02-.41-.05-.54s-.1-.26-.19-.38c-.09-.12-.2-.21-.33-.28-.2-.11-.37-.13-.52-.06-.14.07-.22.32-.22.74v1.8s-.47-.26-.47-.26Z"/>
              <path class="cls-4" d="M160.57,218.63l.48.34c-.08.3-.22.48-.42.55s-.47.01-.79-.17c-.4-.23-.72-.56-.96-.99-.24-.43-.35-.91-.35-1.45s.12-.92.36-1.09.55-.15.93.07.67.53.9.96c.23.43.35.92.35,1.47,0,.03,0,.08,0,.15l-2.05-1.16c.02.37.1.7.26.98.15.28.35.48.58.61.17.1.32.13.44.09s.22-.16.29-.35ZM159.04,216.86l1.54.87c-.02-.29-.08-.53-.18-.73-.15-.3-.34-.52-.58-.65-.21-.12-.39-.14-.54-.05-.15.09-.23.27-.24.55Z"/>
              <path class="cls-4" d="M163.43,221.31v-.42c-.17.23-.43.25-.77.06-.22-.12-.42-.31-.6-.56-.18-.25-.33-.53-.43-.85-.1-.32-.15-.64-.15-.98s.05-.6.14-.82.23-.35.41-.38c.18-.04.39,0,.61.13.17.09.31.22.44.38.13.16.23.33.32.51v-1.63s.46.26.46.26v4.56s-.43-.24-.43-.24ZM161.95,218.83c0,.42.07.78.22,1.07.15.29.32.5.53.61s.38.11.52,0c.14-.12.21-.38.21-.8,0-.45-.07-.82-.22-1.12s-.32-.5-.54-.62-.38-.11-.52,0c-.14.13-.21.41-.21.84Z"/>
              <path class="cls-4" d="M166.5,223.05l-.43-.24v-4.56s.47.26.47.26v1.62c.2-.18.45-.19.75-.02.17.1.33.23.48.39.15.17.28.35.37.56.1.2.17.43.23.67.06.24.08.48.08.72,0,.57-.12.94-.35,1.11-.23.18-.51.17-.84-.01s-.58-.49-.76-.92v.41ZM166.49,221.37c0,.4.05.71.13.93.15.37.35.63.6.77.2.12.38.11.53-.02s.22-.4.22-.82-.07-.79-.21-1.08c-.14-.28-.31-.48-.52-.6s-.38-.11-.53.02-.22.39-.22.79Z"/>
              <path class="cls-4" d="M169,225.73l-.05-.55c.1.09.19.16.27.2.1.06.19.08.25.08s.11-.04.15-.09c.03-.04.08-.15.14-.34,0-.03.02-.06.04-.11l-1.04-3.9.5.28.57,2.23c.07.29.14.58.2.88.05-.23.12-.44.19-.64l.59-1.59.47.26-1.05,2.76c-.11.3-.2.5-.26.6-.08.14-.18.22-.28.24s-.23,0-.38-.09c-.09-.05-.19-.13-.3-.24Z"/>
              <path class="cls-4" d="M174.07,227.33v-4.01s-1.25-.71-1.25-.71v-.54s3,1.7,3,1.7v.54s-1.25-.71-1.25-.71v4.01s-.5-.28-.5-.28Z"/>
              <path class="cls-4" d="M177.57,228.25l.48.34c-.08.29-.22.48-.42.55s-.47.02-.79-.17c-.4-.23-.72-.56-.95-.99-.24-.43-.35-.91-.35-1.45s.12-.92.36-1.09.55-.15.93.06.67.53.9.96c.23.43.35.92.35,1.46,0,.03,0,.08,0,.15l-2.05-1.16c.02.37.1.7.26.98.15.28.34.48.57.61.17.1.32.13.44.09s.22-.16.29-.35ZM176.04,226.48l1.53.87c-.02-.29-.08-.53-.18-.72-.15-.3-.34-.52-.58-.65-.21-.12-.39-.14-.54-.05-.15.09-.23.27-.24.55Z"/>
              <path class="cls-4" d="M180.43,229.72l.46.33c-.05.35-.18.57-.38.67-.21.1-.46.06-.76-.11-.38-.21-.68-.53-.91-.95-.23-.42-.34-.91-.34-1.46,0-.36.05-.64.15-.85.1-.21.25-.33.45-.35.2-.02.42.04.66.17.3.17.54.4.73.69s.31.61.36.98l-.45-.17c-.04-.25-.12-.45-.23-.63-.11-.17-.24-.3-.4-.39-.23-.13-.42-.14-.57-.02-.15.12-.22.4-.22.83s.07.8.21,1.09c.14.28.33.48.55.61.18.1.33.12.46.06.12-.07.2-.23.23-.49Z"/>
              <path class="cls-4" d="M181.28,231.41v-4.55s.46.26.46.26v1.63c.22-.18.49-.18.82.01.2.11.38.26.53.44.15.18.26.38.32.58.07.21.1.47.1.79v2.09s-.46-.26-.46-.26v-2.09c0-.28-.05-.51-.15-.7-.1-.18-.24-.33-.43-.43-.14-.08-.27-.11-.39-.09-.12.02-.21.08-.26.2-.05.12-.08.3-.08.56v1.8s-.46-.26-.46-.26Z"/>
              <path class="cls-4" d="M183.91,232.9l1-1.15-.93-2.11.58.33.42,1.01c.08.19.14.35.19.48.08-.09.15-.17.21-.25l.46-.52.55.31-.95,1.01,1.02,2.32-.57-.32-.56-1.34-.15-.36-.72.89-.56-.32Z"/>
              <path class="cls-4" d="M186.51,234.37l1.45-3.72.54.31,1.55,5.42-.57-.32-.44-1.63-1.58-.89-.42,1.14-.53-.3ZM187.6,233.12l1.28.73-.39-1.48c-.12-.45-.21-.82-.27-1.09-.05.26-.12.51-.2.75l-.42,1.1Z"/>
              <path class="cls-4" d="M190.38,236.56v-3.29s.42.24.42.24v.5c.11-.17.2-.27.3-.3.09-.02.19,0,.3.06.16.09.32.24.48.45l-.16.43c-.11-.15-.23-.25-.34-.31-.1-.06-.19-.07-.27-.04s-.14.1-.17.21c-.05.17-.08.37-.08.61v1.72s-.46-.26-.46-.26Z"/>
              <path class="cls-4" d="M193.16,237.63l.07.53c-.13-.04-.25-.09-.35-.15-.17-.1-.3-.2-.39-.32-.09-.12-.16-.24-.2-.36s-.06-.36-.06-.69v-1.89s-.34-.19-.34-.19v-.43s.34.19.34.19v-.81s.46-.07.46-.07v1.15s.47.26.47.26v.43s-.47-.26-.47-.26v1.93c0,.16,0,.27.02.32.02.06.04.11.08.15.04.05.09.09.16.13.05.03.12.06.2.09Z"/>
              <path class="cls-4" d="M193.61,234.48v-.64s.46.26.46.26v.64s-.46-.26-.46-.26ZM193.61,238.39v-3.29s.46.26.46.26v3.29s-.46-.26-.46-.26Z"/>
              <path class="cls-4" d="M194.6,237.96l.46.17c.03.24.1.44.21.63.12.18.28.34.49.46s.37.16.47.11.15-.14.15-.28c0-.13-.05-.25-.14-.37-.06-.09-.22-.24-.47-.46-.34-.3-.58-.52-.71-.67-.13-.15-.23-.31-.3-.48-.07-.17-.1-.34-.1-.5,0-.15.03-.27.08-.36.06-.09.13-.15.23-.18.07-.02.17-.02.29,0,.12.03.26.08.4.16.21.12.4.27.57.43.16.17.28.33.36.51.08.17.13.37.16.6l-.45-.18c-.02-.18-.08-.35-.18-.5-.1-.15-.24-.28-.42-.38-.21-.12-.36-.16-.46-.13-.09.03-.14.11-.14.22,0,.07.02.15.06.23.04.08.1.16.18.25.05.05.18.17.41.37.33.29.56.51.69.65.13.14.23.3.3.47s.11.35.11.54-.04.34-.14.45c-.09.11-.22.17-.39.16-.17,0-.36-.07-.58-.19-.36-.2-.63-.44-.81-.73-.19-.28-.31-.61-.36-.99Z"/>
              <path class="cls-4" d="M199.2,241.14c-.17.08-.34.11-.5.09-.16-.02-.33-.08-.51-.18-.3-.17-.53-.39-.69-.66-.16-.27-.24-.54-.24-.81,0-.16.03-.29.09-.39.06-.1.14-.16.24-.19.1-.02.21-.02.33,0,.09.02.23.07.41.15.37.16.65.25.83.28,0-.08,0-.12,0-.14,0-.23-.04-.41-.13-.56-.12-.19-.29-.36-.53-.49-.22-.12-.38-.17-.48-.14-.1.03-.18.15-.23.36l-.45-.33c.04-.21.11-.36.2-.45s.23-.12.41-.1c.18.02.39.1.62.23s.42.27.57.42.25.29.32.43.12.29.14.46c.02.1.02.28.02.53v.74c0,.52.01.85.03,1,.02.15.06.3.12.46l-.48-.27c-.05-.14-.08-.29-.09-.46ZM199.17,239.88c-.17-.01-.42-.09-.76-.22-.19-.08-.33-.11-.4-.12-.08,0-.14.02-.18.08s-.06.13-.06.23c0,.15.05.3.14.45.09.15.23.28.41.38s.34.14.48.13.24-.09.31-.21c.05-.1.07-.27.07-.52v-.2Z"/>
              <path class="cls-4" d="M200.35,242.2v-3.29s.42.24.42.24v.47c.2-.25.49-.26.87-.05.16.09.32.21.45.36.14.15.24.3.31.46.07.15.12.32.14.49.02.11.03.3.03.56v2.02s-.46-.26-.46-.26v-2c0-.23-.02-.41-.05-.54s-.1-.26-.19-.38c-.09-.12-.2-.21-.32-.28-.2-.11-.37-.13-.51-.06-.14.07-.21.31-.21.74v1.8s-.46-.26-.46-.26Z"/>
            </g>
          </g>
        </g>
      </g>
    </g>
  </g>
</svg>