<?xml version="1.0" encoding="UTF-8"?>
<svg id="_图层_2" data-name="图层 2" xmlns="http://www.w3.org/2000/svg" width="312.53" height="255.26" xmlns:xlink="http://www.w3.org/1999/xlink" viewBox="0 0 312.53 255.26">
  <defs>
    <style>
      .cls-1 {
        clip-path: url(#clippath);
      }

      .cls-2, .cls-3 {
        stroke-width: 0px;
      }

      .cls-2, .cls-4 {
        fill: none;
      }

      .cls-5 {
        clip-path: url(#clippath-1);
      }

      .cls-3 {
        fill: #040000;
        fill-rule: evenodd;
        isolation: isolate;
        opacity: .8;
      }

      .cls-4 {
        stroke: #000;
        stroke-linecap: round;
        stroke-linejoin: round;
        stroke-width: .5px;
      }
    </style>
    <clipPath id="clippath">
      <polyline class="cls-2" points="241.56 225.9 310.35 225.9 310.35 6.04 241.56 6.04 241.56 225.9"/>
    </clipPath>
    <clipPath id="clippath-1">
      <polyline class="cls-2" points="0 225.24 244.4 225.24 244.4 5.38 0 5.38 0 225.24"/>
    </clipPath>
  </defs>
  <g id="_图层_5" data-name="图层 5">
    <g>
      <g>
        <g class="cls-1">
          <line class="cls-4" x1="256.9" y1="208.42" x2="256.9" y2="208.42"/>
          <line class="cls-4" x1="295.02" y1="208.42" x2="295.02" y2="208.42"/>
          <polyline class="cls-4" points="298.62 208.42 298.47 208.42 298.08 208.42 297.39 208.42 296.4 208.42 295.17 208.42 293.71 208.42 292.02 208.42 290.18 208.42 288.11 208.42 285.89 208.42 283.59 208.42 281.14 208.42 278.6 208.42 276.07 208.42 273.62 208.42 271.09 208.42 268.64 208.42 266.26 208.42 264.03 208.42 261.96 208.42 260.05 208.42 258.36 208.42 256.9 208.42 255.67 208.42 254.68 208.42 253.91 208.42 253.45 208.42 253.3 208.42"/>
          <line class="cls-4" x1="260.58" y1="208.42" x2="260.58" y2="208.42"/>
          <line class="cls-4" x1="267.02" y1="208.42" x2="267.02" y2="208.42"/>
          <line class="cls-4" x1="253.3" y1="210.64" x2="256.9" y2="214.24"/>
          <polyline class="cls-4" points="253.3 208.42 253.3 210.64 253.45 210.64 253.91 210.64 254.68 210.64 255.67 210.64 256.9 210.64 258.36 210.64 260.05 210.64 261.96 210.64 264.03 210.64 266.26 210.64 268.64 210.64 271.09 210.64 273.62 210.64 276.07 210.64 278.6 210.64 281.14 210.64 283.59 210.64 285.89 210.64 288.11 210.64 290.18 210.64 292.02 210.64 293.71 210.64 295.17 210.64 296.4 210.64 297.39 210.64 298.08 210.64 298.47 210.64 298.62 210.64 295.02 214.24 294.86 214.24 294.48 214.24 293.79 214.24 292.87 214.24 291.64 214.24 290.26 214.24 288.65 214.24 286.89 214.24 284.89 214.24 282.82 214.24 280.6 214.24 278.37 214.24 276.07 214.24 273.85 214.24 271.55 214.24 269.4 214.24 267.25 214.24 265.26 214.24 263.5 214.24 261.81 214.24 260.43 214.24 259.2 214.24 258.21 214.24 257.52 214.24 257.06 214.24 256.9 214.24"/>
          <line class="cls-4" x1="298.62" y1="208.42" x2="298.62" y2="210.64"/>
          <polyline class="cls-4" points="256.9 18.46 257.06 18.46 257.52 18.46 258.21 18.46 259.2 18.46 260.43 18.46 261.81 18.46 263.5 18.46 265.26 18.46 267.25 18.46 269.4 18.46 271.55 18.46 273.85 18.46 276.07 18.46 278.37 18.46 280.6 18.46 282.82 18.46 284.89 18.46 286.89 18.46 288.65 18.46 290.26 18.46 291.64 18.46 292.87 18.46 293.79 18.46 294.48 18.46 294.86 18.46 295.02 18.46 298.62 22.06 298.47 22.06 298.08 22.06 297.39 22.06 296.4 22.06 295.17 22.06 293.71 22.06 292.02 22.06 290.18 22.06 288.11 22.06 285.89 22.06 283.59 22.06 281.14 22.06 278.6 22.06 276.07 22.06 273.62 22.06 271.09 22.06 268.64 22.06 266.26 22.06 264.03 22.06 261.96 22.06 260.05 22.06 258.36 22.06 256.9 22.06 255.67 22.06 254.68 22.06 253.91 22.06 253.45 22.06 253.3 22.06 256.9 18.46"/>
          <line class="cls-4" x1="298.62" y1="24.29" x2="298.62" y2="22.06"/>
          <polyline class="cls-4" points="298.62 24.29 298.47 24.29 298.08 24.29 297.39 24.29 296.4 24.29 295.17 24.29 293.71 24.29 292.02 24.29 290.18 24.29 288.11 24.29 285.89 24.29 283.59 24.29 281.14 24.29 278.6 24.29 276.07 24.29 273.62 24.29 271.09 24.29 268.64 24.29 266.26 24.29 264.03 24.29 261.96 24.29 260.05 24.29 258.36 24.29 256.9 24.29 255.67 24.29 254.68 24.29 253.91 24.29 253.45 24.29 253.3 24.29 253.3 22.06"/>
          <polyline class="cls-4" points="298.62 208.42 298.62 24.29 298.47 24.29 298.08 24.29 297.39 24.29 296.4 24.29 295.17 24.29 293.71 24.29 292.02 24.29 290.18 24.29 288.11 24.29 285.89 24.29 283.59 24.29 281.14 24.29 278.6 24.29 276.07 24.29 273.62 24.29 271.09 24.29 268.64 24.29 266.26 24.29 264.03 24.29 261.96 24.29 260.05 24.29 258.36 24.29 256.9 24.29 255.67 24.29 254.68 24.29 253.91 24.29 253.45 24.29 253.3 24.29 253.3 208.42 253.45 208.42 253.91 208.42 254.68 208.42 255.67 208.42 256.9 208.42 258.36 208.42 260.05 208.42 261.96 208.42 264.03 208.42 266.26 208.42 268.64 208.42 271.09 208.42 273.62 208.42 276.07 208.42 278.6 208.42 281.14 208.42 283.59 208.42 285.89 208.42 288.11 208.42 290.18 208.42 292.02 208.42 293.71 208.42 295.17 208.42 296.4 208.42 297.39 208.42 298.08 208.42 298.47 208.42 298.62 208.42"/>
          <line class="cls-4" x1="274.69" y1="17.69" x2="274.69" y2="18.46"/>
          <polyline class="cls-4" points="274.69 17.69 281.9 17.69 281.9 18.46"/>
          <polyline class="cls-4" points="253.3 192.24 253.22 192.24 253.22 192.31 253.22 192.39 253.22 192.47 253.22 192.54 253.22 192.62 253.22 192.7 253.22 192.77 253.22 192.85 253.22 192.93 253.22 193"/>
          <polyline class="cls-4" points="253.3 35.1 253.22 35.1 253.22 35.18"/>
          <polyline class="cls-4" points="253.22 34.33 253.22 34.33 253.3 34.33"/>
          <polyline class="cls-4" points="253.3 42.62 253.22 42.62 253.22 42.54 253.22 42.46 253.22 42.39 253.22 42.31 253.22 42.16 253.22 42.08 253.22 42 253.22 41.85 253.22 41.7 253.22 41.54 253.22 41.39 253.22 41.24 253.22 41.08"/>
          <polyline class="cls-4" points="253.3 34.33 253.22 34.33 253.22 34.41 253.22 34.49 253.22 34.56 253.22 34.64 253.22 34.72 253.22 34.79 253.22 34.87 253.22 34.95 253.22 35.02 253.22 35.1"/>
          <polyline class="cls-4" points="253.3 45.68 253.22 45.68 253.22 45.76 253.3 45.76"/>
          <line class="cls-4" x1="253.22" y1="45.91" x2="253.22" y2="45.76"/>
          <polyline class="cls-4" points="253.3 47.37 253.22 47.37 253.22 47.45 253.3 47.45"/>
          <polyline class="cls-4" points="253.3 48.29 253.22 48.29 253.22 47.45"/>
          <polyline class="cls-4" points="253.3 50.67 253.22 50.67 253.22 50.59 253.22 50.52 253.22 50.44 253.22 50.36 253.22 50.29 253.22 50.13 253.22 50.06 253.22 48.29"/>
          <polyline class="cls-4" points="253.3 50.75 253.22 50.75 253.22 50.67"/>
          <polyline class="cls-4" points="253.3 51.59 253.22 51.59 253.22 50.75"/>
          <polyline class="cls-4" points="253.3 51.74 253.22 51.74 253.22 51.67 253.22 51.59"/>
          <polyline class="cls-4" points="253.3 45.91 253.22 45.91 253.22 47.37"/>
          <polyline class="cls-4" points="253.22 36.71 253.3 36.71 253.22 36.71 253.22 37.63 253.3 37.63"/>
          <polyline class="cls-4" points="253.3 39.93 253.22 39.93 253.22 39.86 253.22 39.78 253.22 39.7 253.22 39.55 253.22 39.47 253.22 39.32 253.22 37.63"/>
          <polyline class="cls-4" points="253.3 40.01 253.22 40.01 253.22 39.93"/>
          <polyline class="cls-4" points="253.3 40.93 253.22 40.93 253.22 40.01"/>
          <polyline class="cls-4" points="253.3 41.08 253.22 41.08 253.22 41.01 253.22 40.93"/>
          <polyline class="cls-4" points="253.3 35.18 253.22 35.18 253.22 36.71"/>
          <polyline class="cls-4" points="253.22 41.08 253.22 41.08 253.3 41.08"/>
          <polyline class="cls-4" points="253.3 200.59 253.22 200.59 253.22 200.52 253.22 200.44 253.22 200.36 253.22 200.29 253.22 200.21 253.22 200.13 253.22 200.06 253.22 199.98 253.22 199.9 253.22 199.83 253.22 199.75 253.22 199.67 253.22 199.6 253.22 199.52 253.22 199.44 253.22 199.37 253.22 199.29 253.22 199.21 253.22 199.14 253.22 199.06 253.22 198.98"/>
          <polyline class="cls-4" points="253.3 193 253.22 193 253.22 193.08"/>
          <polyline class="cls-4" points="253.22 194.61 253.3 194.61 253.22 194.61 253.22 195.53 253.3 195.53"/>
          <polyline class="cls-4" points="253.3 197.83 253.22 197.83 253.22 197.76 253.22 197.68 253.22 197.6 253.22 197.53 253.22 197.45 253.22 197.37 253.22 197.22 253.22 195.53"/>
          <polyline class="cls-4" points="253.3 197.91 253.22 197.91 253.22 197.83"/>
          <polyline class="cls-4" points="253.3 198.75 253.22 198.75 253.22 197.91"/>
          <polyline class="cls-4" points="253.3 198.98 253.22 198.98 253.22 198.91 253.22 198.83 253.22 198.75"/>
          <polyline class="cls-4" points="253.3 193.08 253.22 193.08 253.22 194.61"/>
          <polyline class="cls-4" points="253.3 53.43 253.22 53.43 253.22 53.35 253.22 53.28 253.22 53.2 253.22 53.12 253.22 53.05 253.22 52.97 253.22 52.89 253.22 52.82 253.22 52.74 253.22 52.66 253.22 52.59 253.22 52.43 253.22 52.36 253.22 52.28 253.22 52.2 253.22 52.13 253.22 52.05 253.22 51.97 253.22 51.9 253.22 51.74"/>
          <line class="cls-4" x1="298.62" y1="142.39" x2="298.7" y2="142.39"/>
          <polyline class="cls-4" points="298.62 42 298.7 42 298.7 41.93 298.7 41.85 298.7 41.77 298.7 41.7 298.7 41.62 298.7 41.54 298.7 41.47 298.7 41.31 298.7 41.24 298.7 41.08 298.7 41.01 298.7 40.85 298.7 40.7 298.7 40.55 298.7 40.39 298.7 40.24 298.7 40.09 298.7 39.86 298.7 39.7 298.7 39.55 298.7 39.32 298.7 39.17 298.7 38.94 298.7 38.78 298.7 38.55 298.7 38.32 298.7 38.17 298.7 37.94 298.7 37.71 298.7 37.48 298.7 37.33 298.7 37.1 298.7 36.87 298.7 36.71 298.7 36.48 298.7 36.33 298.7 36.17 298.7 35.94 298.7 35.79 298.7 35.64 298.7 35.48 298.7 35.33 298.7 35.18 298.7 35.02 298.7 34.87 298.7 34.72 298.7 34.64 298.7 34.49 298.7 34.41 298.7 34.33 298.7 34.18 298.7 34.1 298.7 34.03 298.7 33.95 298.7 33.87 298.7 33.8 298.62 33.8"/>
          <polyline class="cls-4" points="298.7 33.8 298.7 33.8 298.62 33.8"/>
          <polyline class="cls-4" points="298.62 116.77 298.7 116.77 298.7 116.7"/>
          <polyline class="cls-4" points="298.62 199.9 298.7 199.9 298.7 199.83 298.7 199.75 298.7 199.67 298.7 199.6 298.7 199.52 298.7 199.44 298.7 199.37 298.7 199.21 298.7 199.14 298.7 198.98 298.7 198.83 298.7 198.75 298.7 198.6 298.7 198.45 298.7 198.29 298.7 198.14 298.7 197.91 298.7 197.76 298.7 197.6 298.7 197.45 298.7 197.22 298.7 197.07 298.7 196.84 298.7 196.61 298.7 196.45 298.7 196.22 298.7 195.99 298.7 195.84 298.7 195.61 298.7 195.38 298.7 195.15 298.7 195 298.7 194.77 298.7 194.61 298.7 194.38 298.7 194.23 298.7 194 298.7 193.85 298.7 193.69 298.7 193.54 298.7 193.31 298.7 193.16 298.7 193.08 298.7 192.93 298.7 192.77 298.7 192.62 298.7 192.54 298.7 192.39 298.7 192.31 298.7 192.16 298.7 192.08 298.7 192.01 298.7 191.93 298.7 191.85 298.7 191.77 298.7 191.7 298.62 191.7"/>
          <polyline class="cls-4" points="298.62 127.28 298.7 127.28 298.7 127.2"/>
          <polyline class="cls-4" points="298.62 103.74 298.7 103.74 298.7 103.66 298.7 103.58 298.7 103.51 298.7 103.43 298.7 103.35 298.7 103.28 298.7 103.12 298.7 103.05 298.7 102.89 298.7 102.82 298.7 102.66 298.7 102.51 298.7 102.36 298.7 102.2 298.7 102.05 298.7 101.9 298.7 101.74 298.7 101.59 298.7 101.44 298.7 101.28 298.7 101.05 298.7 93.84 298.7 93.61 298.7 93.46 298.7 93.31 298.7 93.15 298.7 93 298.7 92.85 298.7 92.69 298.7 92.54 298.7 92.39 298.7 92.23 298.7 92.08 298.7 92 298.7 91.85 298.7 91.77 298.7 91.62 298.7 91.54 298.7 91.47 298.7 91.39 298.7 91.31 298.7 91.24 298.62 91.24"/>
          <polyline class="cls-4" points="298.62 108.65 298.7 108.65 298.7 103.74"/>
          <polyline class="cls-4" points="298.62 142.39 298.7 142.39 298.7 142.31"/>
          <polyline class="cls-4" points="298.62 137.63 298.7 137.63 298.7 137.71"/>
          <polyline class="cls-4" points="298.62 143.69 298.7 143.69 298.7 142.39"/>
          <polyline class="cls-4" points="298.62 51.9 298.7 51.9 298.7 51.82 298.7 51.74"/>
          <polyline class="cls-4" points="298.62 45.15 298.7 45.15 298.7 45.84"/>
          <polyline class="cls-4" points="298.62 127.2 298.7 127.2 298.7 122.6 298.62 122.6"/>
          <polyline class="cls-4" points="298.62 116.62 298.7 116.62 298.7 112.1 298.62 112.1"/>
          <polyline class="cls-4" points="298.62 132.19 298.7 132.19 298.7 132.11 298.62 132.11"/>
          <polyline class="cls-4" points="298.62 131.5 298.7 131.5 298.7 131.57 298.7 131.65 298.7 131.73 298.7 131.8 298.7 131.88 298.7 131.96 298.7 132.04 298.7 132.11 298.62 132.11"/>
          <polyline class="cls-4" points="298.62 128.97 298.7 128.97 298.7 129.04 298.7 129.12 298.7 129.2 298.7 129.27 298.7 129.35 298.7 129.43 298.7 129.5 298.7 129.58 298.7 129.66 298.7 129.73 298.7 129.81 298.7 129.89 298.7 129.96 298.7 130.04 298.7 130.12 298.7 130.19 298.7 130.27 298.7 130.42 298.7 130.5 298.7 130.58 298.7 130.65 298.7 130.73 298.7 130.81 298.7 130.88 298.7 130.96 298.7 131.04 298.7 131.11 298.7 131.19 298.7 131.27 298.7 131.34 298.7 131.42 298.7 131.5"/>
          <polyline class="cls-4" points="298.62 133.72 298.7 133.72 298.7 133.65 298.7 133.57 298.7 133.49 298.7 133.42 298.7 133.34 298.7 133.26 298.7 133.19 298.7 133.11 298.7 132.96 298.62 132.96"/>
          <polyline class="cls-4" points="298.7 132.19 298.7 132.27 298.7 132.42 298.7 132.5 298.7 132.57 298.7 132.73 298.7 132.8 298.7 132.88 298.7 132.96"/>
          <polyline class="cls-4" points="298.62 111.64 298.7 111.64 298.7 112.1"/>
          <polyline class="cls-4" points="298.62 142.31 298.7 142.31 298.7 137.71 298.62 137.71"/>
          <polyline class="cls-4" points="298.62 200.06 298.7 200.06 298.7 199.98 298.7 199.9"/>
          <line class="cls-4" x1="298.62" y1="143.69" x2="298.7" y2="143.69"/>
          <polyline class="cls-4" points="298.62 122.53 298.7 122.53 298.7 122.6"/>
          <polyline class="cls-4" points="298.7 111.64 298.7 111.64 298.62 111.64"/>
          <polyline class="cls-4" points="298.62 117.46 298.7 117.46 298.7 116.77"/>
          <polyline class="cls-4" points="298.62 87.1 298.7 87.1 298.7 91.24"/>
          <polyline class="cls-4" points="298.62 134.87 298.7 134.87 298.7 134.41 298.62 134.41"/>
          <polyline class="cls-4" points="298.62 134.18 298.7 134.18 298.7 134.26 298.7 134.34 298.7 134.41"/>
          <polyline class="cls-4" points="298.62 133.8 298.7 133.8 298.7 133.88 298.7 133.95 298.7 134.03 298.7 134.11 298.7 134.18"/>
          <line class="cls-4" x1="298.7" y1="133.72" x2="298.7" y2="133.8"/>
          <polyline class="cls-4" points="298.62 134.95 298.7 134.95 298.7 134.87"/>
          <polyline class="cls-4" points="298.62 116.7 298.7 116.7 298.7 116.62"/>
          <polyline class="cls-4" points="298.62 128.43 298.7 128.43 298.7 127.28"/>
          <polyline class="cls-4" points="298.62 52.05 298.7 52.05 298.7 51.97 298.7 51.9"/>
          <polyline class="cls-4" points="298.62 53.51 298.7 53.51 298.7 53.43 298.7 53.35 298.7 53.28 298.7 53.2 298.7 53.12 298.7 53.05 298.7 52.89 298.7 52.82 298.7 52.66 298.7 52.59 298.7 52.43 298.7 52.28 298.7 52.2 298.7 52.13 298.7 52.05"/>
          <polyline class="cls-4" points="298.62 51.74 298.7 51.74 298.7 46.83 298.62 46.83"/>
          <polyline class="cls-4" points="298.62 45.84 298.7 45.84 298.7 46.83"/>
        </g>
        <g class="cls-5">
          <line class="cls-4" x1="29.14" y1="207.76" x2="29.14" y2="207.76"/>
          <line class="cls-4" x1="215.26" y1="207.76" x2="215.26" y2="207.76"/>
          <polyline class="cls-4" points="232.75 207.76 232.59 207.76 232.21 207.76 231.52 207.76 230.52 207.76 229.3 207.76 227.92 207.76 226.23 207.76 224.31 207.76 222.32 207.76 220.09 207.76 217.79 207.76 215.42 207.76 212.89 207.76 210.43 207.76 34.28 207.76 31.75 207.76 29.29 207.76 26.84 207.76 24.46 207.76 22.24 207.76 20.17 207.76 18.33 207.76 16.64 207.76 15.11 207.76 13.88 207.76 12.96 207.76 12.19 207.76 11.81 207.76 11.66 207.76"/>
          <line class="cls-4" x1="221.24" y1="207.76" x2="221.24" y2="207.76"/>
          <line class="cls-4" x1="226.84" y1="207.76" x2="226.84" y2="207.76"/>
          <line class="cls-4" x1="215.34" y1="207.76" x2="215.34" y2="207.76"/>
          <line class="cls-4" x1="210.43" y1="209.98" x2="34.28" y2="209.98"/>
          <polyline class="cls-4" points="15.26 213.59 15.41 213.59 15.87 213.59 16.49 213.59 17.48 213.59 18.64 213.59 20.09 213.59 21.7 213.59 23.54 213.59 25.46 213.59 27.53 213.59 29.75 213.59 32.06 213.59 34.28 213.59 210.36 213.59"/>
          <polyline class="cls-4" points="34.28 209.98 31.75 209.98 29.29 209.98 26.84 209.98 24.46 209.98 22.24 209.98 20.17 209.98 18.33 209.98 16.64 209.98 15.11 209.98 13.88 209.98 12.96 209.98 12.19 209.98 11.81 209.98 11.66 209.98"/>
          <polyline class="cls-4" points="210.36 213.59 212.66 213.59 214.88 213.59 217.03 213.59 219.1 213.59 221.01 213.59 222.86 213.59 224.39 213.59 225.85 213.59 227 213.59 227.92 213.59 228.61 213.59 228.99 213.59 229.14 213.59"/>
          <polyline class="cls-4" points="232.75 209.98 232.59 209.98 232.21 209.98 231.52 209.98 230.52 209.98 229.3 209.98 227.92 209.98 226.23 209.98 224.31 209.98 222.32 209.98 220.09 209.98 217.79 209.98 215.42 209.98 212.89 209.98 210.43 209.98"/>
          <line class="cls-4" x1="17.56" y1="207.76" x2="17.56" y2="207.76"/>
          <line class="cls-4" x1="23.16" y1="207.76" x2="23.16" y2="207.76"/>
          <line class="cls-4" x1="29.06" y1="207.76" x2="29.06" y2="207.76"/>
          <line class="cls-4" x1="15.26" y1="213.59" x2="11.66" y2="209.98"/>
          <line class="cls-4" x1="229.14" y1="213.59" x2="232.75" y2="209.98"/>
          <line class="cls-4" x1="11.66" y1="207.76" x2="11.66" y2="209.98"/>
          <line class="cls-4" x1="232.75" y1="207.76" x2="232.75" y2="209.98"/>
          <polyline class="cls-4" points="210.43 21.41 212.89 21.41 215.42 21.41 217.79 21.41 220.09 21.41 222.32 21.41 224.31 21.41 226.23 21.41 227.92 21.41 229.3 21.41 230.52 21.41 231.52 21.41 232.21 21.41 232.59 21.41 232.75 21.41"/>
          <polyline class="cls-4" points="229.14 17.8 228.99 17.8 228.61 17.8 227.92 17.8 227 17.8 225.85 17.8 224.39 17.8 222.86 17.8 221.01 17.8 219.1 17.8 217.03 17.8 214.88 17.8 212.66 17.8 210.36 17.8"/>
          <polyline class="cls-4" points="34.28 17.8 32.06 17.8 29.75 17.8 27.53 17.8 25.46 17.8 23.54 17.8 21.7 17.8 20.09 17.8 18.64 17.8 17.48 17.8 16.49 17.8 15.87 17.8 15.41 17.8 15.26 17.8"/>
          <polyline class="cls-4" points="11.66 21.41 11.81 21.41 12.19 21.41 12.96 21.41 13.88 21.41 15.11 21.41 16.64 21.41 18.33 21.41 20.17 21.41 22.24 21.41 24.46 21.41 26.84 21.41 29.29 21.41 31.75 21.41 34.28 21.41"/>
          <line class="cls-4" x1="210.36" y1="17.8" x2="34.28" y2="17.8"/>
          <line class="cls-4" x1="34.28" y1="21.41" x2="210.43" y2="21.41"/>
          <polyline class="cls-4" points="11.66 23.63 11.81 23.63 12.19 23.63 12.96 23.63 13.88 23.63 15.11 23.63 16.64 23.63 18.33 23.63 20.17 23.63 22.24 23.63 24.46 23.63 26.84 23.63 29.29 23.63 31.75 23.63 34.28 23.63 210.43 23.63 212.89 23.63 215.42 23.63 217.79 23.63 220.09 23.63 222.32 23.63 224.31 23.63 226.23 23.63 227.92 23.63 229.3 23.63 230.52 23.63 231.52 23.63 232.21 23.63 232.59 23.63 232.75 23.63"/>
          <line class="cls-4" x1="229.14" y1="17.8" x2="232.75" y2="21.41"/>
          <line class="cls-4" x1="15.26" y1="17.8" x2="11.66" y2="21.41"/>
          <line class="cls-4" x1="232.75" y1="23.63" x2="232.75" y2="21.41"/>
          <line class="cls-4" x1="11.66" y1="23.63" x2="11.66" y2="21.41"/>
          <line class="cls-4" x1="34.28" y1="23.63" x2="210.43" y2="23.63"/>
          <line class="cls-4" x1="210.43" y1="207.76" x2="34.28" y2="207.76"/>
          <polyline class="cls-4" points="232.75 23.63 232.59 23.63 232.21 23.63 231.52 23.63 230.52 23.63 229.3 23.63 227.92 23.63 226.23 23.63 224.31 23.63 222.32 23.63 220.09 23.63 217.79 23.63 215.42 23.63 212.89 23.63 210.43 23.63"/>
          <polyline class="cls-4" points="232.75 207.76 232.59 207.76 232.21 207.76 231.52 207.76 230.52 207.76 229.3 207.76 227.92 207.76 226.23 207.76 224.31 207.76 222.32 207.76 220.09 207.76 217.79 207.76 215.42 207.76 212.89 207.76 210.43 207.76"/>
          <polyline class="cls-4" points="34.28 23.63 31.75 23.63 29.29 23.63 26.84 23.63 24.46 23.63 22.24 23.63 20.17 23.63 18.33 23.63 16.64 23.63 15.11 23.63 13.88 23.63 12.96 23.63 12.19 23.63 11.81 23.63 11.66 23.63"/>
          <polyline class="cls-4" points="34.28 207.76 31.75 207.76 29.29 207.76 26.84 207.76 24.46 207.76 22.24 207.76 20.17 207.76 18.33 207.76 16.64 207.76 15.11 207.76 13.88 207.76 12.96 207.76 12.19 207.76 11.81 207.76 11.66 207.76"/>
          <line class="cls-4" x1="232.75" y1="23.63" x2="232.75" y2="207.76"/>
          <line class="cls-4" x1="11.66" y1="23.63" x2="11.66" y2="207.76"/>
          <line class="cls-4" x1="58.82" y1="17.8" x2="59.59" y2="17.03"/>
          <polyline class="cls-4" points="54.14 17.8 54.14 17.03 55.91 17.03 56.67 17.8"/>
          <polyline class="cls-4" points="59.59 17.03 61.35 17.03 61.35 17.8"/>
        </g>
        <g>
          <g>
            <path id="_文本_1" data-name="文本 1" class="cls-3" d="M125.49,40.03v-5.89h1.19v2.32s2.33,0,2.33,0v-2.32h1.19v5.89h-1.19v-2.57s-2.33,0-2.33,0v2.57h-1.19ZM131.15,37.83c0-.56.28-1.09.28-1.09.28-.53.79-.8.79-.8.51-.28,1.13-.28,1.13-.28.97,0,1.59.63,1.59.63.62.63.62,1.59.62,1.59,0,.97-.62,1.6-.62,1.6-.62.64-1.57.64-1.57.64-.59,0-1.12-.27-1.12-.27-.53-.27-.81-.78-.81-.78-.28-.51-.28-1.25-.28-1.25ZM132.31,37.89c0,.63.3.97.3.97.3.34.74.34.74.34.44,0,.74-.34.74-.34.3-.34.3-.98.3-.98,0-.63-.3-.96-.3-.96-.3-.34-.74-.34-.74-.34-.44,0-.74.34-.74.34-.3.34-.3.97-.3.97ZM136.04,38.81l1.13-.17c.07.33.29.5.29.5.22.17.62.17.62.17.44,0,.66-.16.66-.16.15-.11.15-.3.15-.3,0-.13-.08-.21-.08-.21-.08-.08-.38-.15-.38-.15-1.37-.3-1.73-.55-1.73-.55-.51-.35-.51-.96-.51-.96,0-.55.44-.93.44-.93.44-.38,1.36-.38,1.36-.38.88,0,1.3.29,1.3.29.43.29.59.84.59.84l-1.06.2c-.07-.25-.26-.38-.26-.38-.19-.13-.54-.13-.54-.13-.45,0-.64.12-.64.12-.13.09-.13.23-.13.23,0,.12.11.2.11.2.15.11,1.05.32,1.05.32.9.2,1.26.5,1.26.5.35.3.35.84.35.84,0,.59-.49,1.01-.49,1.01-.49.42-1.45.42-1.45.42-.87,0-1.38-.35-1.38-.35-.51-.35-.66-.96-.66-.96ZM142.97,35.76v.9h-.77s0,1.72,0,1.72c0,.52.02.61.02.61.02.09.1.14.1.14.08.06.19.06.19.06.16,0,.45-.11.45-.11l.1.88c-.39.17-.89.17-.89.17-.31,0-.55-.1-.55-.1-.25-.1-.36-.27-.36-.27-.11-.16-.16-.44-.16-.44-.04-.2-.04-.8-.04-.8v-1.86s-.52,0-.52,0v-.9h.52s0-.85,0-.85l1.13-.66v1.51s.77,0,.77,0Z"/>
            <path id="_减去顶层" data-name="减去顶层" class="cls-3" d="M117.89,41.63c-2.27,0-4.11-1.84-4.11-4.11s1.84-4.11,4.11-4.11,4.11,1.84,4.11,4.11-1.84,4.11-4.11,4.11ZM120.65,37.22l-1.65-1.65c-.16-.16-.42-.16-.58,0-.16.16-.16.42,0,.58l.94.94h-3.94c-.23,0-.41.18-.41.41s.18.41.41.41h3.94s-.94.94-.94.94c-.16.16-.16.42,0,.58.16.16.42.16.58,0l1.65-1.65c.16-.16.16-.42,0-.58Z"/>
          </g>
          <g>
            <path id="_文本_1-2" data-name="文本 1" class="cls-3" d="M188.68,197.82v-4.89s-1.75,0-1.75,0v-1h4.68v1h-1.74s0,4.89,0,4.89h-1.19ZM193.22,194.86l-1.02-.18c.17-.62.59-.92.59-.92.42-.3,1.25-.3,1.25-.3.75,0,1.12.18,1.12.18.37.18.52.45.52.45.15.28.15,1.01.15,1.01v1.32c-.01.56.04.83.04.83.05.27.2.57.2.57h-1.12c-.04-.11-.11-.33-.11-.33-.03-.1-.04-.13-.04-.13-.29.28-.62.42-.62.42-.33.14-.7.14-.7.14-.66,0-1.04-.36-1.04-.36-.38-.36-.38-.9-.38-.9,0-.36.17-.64.17-.64.17-.28.48-.43.48-.43.31-.15.9-.26.9-.26.79-.15,1.1-.28,1.1-.28v-.11c0-.33-.16-.46-.16-.46-.16-.14-.61-.14-.61-.14-.3,0-.47.12-.47.12-.17.12-.27.42-.27.42ZM194.73,195.77c-.22.07-.69.17-.69.17-.47.1-.61.2-.61.2-.22.16-.22.4-.22.4,0,.24.18.41.18.41.18.17.45.17.45.17.31,0,.58-.2.58-.2.2-.15.27-.37.27-.37.04-.14.04-.55.04-.55v-.22ZM198.03,197.82h-1.13v-4.27h1.05v.61c.27-.43.48-.57.48-.57.21-.14.49-.14.49-.14.39,0,.74.21.74.21l-.35.98c-.29-.18-.53-.18-.53-.18-.24,0-.4.13-.4.13-.16.13-.26.47-.26.47-.09.34-.09,1.43-.09,1.43v1.32ZM200.04,198.1l1.29.16c.03.22.15.31.15.31.16.12.51.12.51.12.44,0,.66-.13.66-.13.15-.09.22-.29.22-.29.05-.14.05-.52.05-.52v-.62c-.51.69-1.28.69-1.28.69-.86,0-1.36-.73-1.36-.73-.39-.57-.39-1.43-.39-1.43,0-1.07.52-1.64.52-1.64.52-.57,1.28-.57,1.28-.57.79,0,1.31.69,1.31.69v-.6h1.06v3.83c0,.76-.12,1.13-.12,1.13-.12.37-.35.59-.35.59-.22.21-.6.33-.6.33-.38.12-.95.12-.95.12-1.08,0-1.54-.37-1.54-.37-.45-.37-.45-.94-.45-.94,0-.06,0-.14,0-.14ZM201.05,195.6c0,.68.26.99.26.99.26.32.65.32.65.32.41,0,.7-.32.7-.32.29-.32.29-.96.29-.96,0-.66-.27-.98-.27-.98-.27-.32-.69-.32-.69-.32-.41,0-.67.32-.67.32-.26.32-.26.96-.26.96ZM207.64,196.47l1.12.19c-.22.62-.68.94-.68.94-.47.32-1.17.32-1.17.32-1.11,0-1.65-.73-1.65-.73-.42-.58-.42-1.47-.42-1.47,0-1.06.55-1.66.55-1.66.55-.6,1.4-.6,1.4-.6.95,0,1.5.63,1.5.63.55.63.53,1.93.53,1.93h-2.83c.01.5.27.78.27.78.26.28.65.28.65.28.27,0,.45-.14.45-.14.18-.14.27-.47.27-.47ZM207.71,195.32c-.01-.49-.25-.74-.25-.74-.24-.26-.59-.26-.59-.26-.37,0-.61.27-.61.27-.24.27-.24.73-.24.73h1.69ZM211.7,193.56v.9h-.77s0,1.72,0,1.72c0,.52.02.61.02.61.02.09.1.14.1.14.08.06.19.06.19.06.16,0,.45-.11.45-.11l.1.88c-.39.17-.89.17-.89.17-.31,0-.55-.1-.55-.1-.24-.1-.36-.27-.36-.27-.11-.16-.16-.44-.16-.44-.04-.2-.04-.8-.04-.8v-1.86s-.52,0-.52,0v-.9h.52s0-.85,0-.85l1.13-.66v1.51s.77,0,.77,0Z"/>
            <path id="_减去顶层-2" data-name="减去顶层" class="cls-3" d="M179.77,199.42c-2.27,0-4.11-1.84-4.11-4.11s1.84-4.11,4.11-4.11,4.11,1.84,4.11,4.11-1.84,4.11-4.11,4.11ZM182.52,195.02l-1.65-1.65c-.16-.16-.42-.16-.58,0-.16.16-.16.42,0,.58l.94.94h-3.94c-.23,0-.41.18-.41.41s.18.41.41.41h3.94s-.94.94-.94.94c-.16.16-.16.42,0,.58.16.16.42.16.58,0l1.65-1.65c.16-.16.16-.42,0-.58Z"/>
          </g>
          <g>
            <path id="_文本_1-3" data-name="文本 1" class="cls-3" d="M72.59,196.84v1.05h-3.96c.06-.59.39-1.13.39-1.13.32-.53,1.27-1.41,1.27-1.41.76-.71.94-.96.94-.96.23-.35.23-.69.23-.69,0-.38-.2-.58-.2-.58-.2-.2-.56-.2-.56-.2-.35,0-.56.21-.56.21-.21.21-.24.71-.24.71l-1.12-.11c.1-.93.63-1.34.63-1.34.53-.41,1.33-.41,1.33-.41.87,0,1.37.47,1.37.47.5.47.5,1.17.5,1.17,0,.4-.14.76-.14.76-.14.36-.45.75-.45.75-.2.26-.74.75-.74.75-.53.49-.68.65-.68.65-.14.16-.23.31-.23.31h2.24ZM73.59,197.89v-1.13h1.13v1.13h-1.13ZM77.54,191.98c.86,0,1.34.61,1.34.61.57.72.57,2.4.57,2.4,0,1.67-.58,2.4-.58,2.4-.48.6-1.33.6-1.33.6-.86,0-1.39-.66-1.39-.66-.53-.66-.53-2.36-.53-2.36,0-1.66.58-2.39.58-2.39.48-.6,1.33-.6,1.33-.6ZM77.54,192.91c-.2,0-.37.13-.37.13-.16.13-.25.47-.25.47-.12.44-.12,1.47-.12,1.47,0,1.04.1,1.42.1,1.42.1.39.26.52.26.52.16.13.36.13.36.13.2,0,.37-.13.37-.13.16-.13.25-.47.25-.47.12-.43.12-1.47.12-1.47,0-1.04-.1-1.42-.1-1.42-.1-.39-.26-.52-.26-.52-.16-.13-.36-.13-.36-.13Z"/>
            <path id="_减去顶层-3" data-name="减去顶层" class="cls-3" d="M42.11,195.38c0-2.27,1.84-4.11,4.11-4.11s4.11,1.84,4.11,4.11c0,2.27-1.84,4.11-4.11,4.11-2.27,0-4.11-1.84-4.11-4.11ZM48.19,194.2c.12.12.3.12.42,0,.12-.12.12-.3,0-.42l-1.19-1.19c-.12-.12-.3-.12-.42,0l-1.19,1.19c-.12.12-.12.3,0,.42.12.12.3.12.42,0l.68-.68v2.86c0,.16.13.3.3.3s.3-.13.3-.3v-2.86s.68.68.68.68ZM45.04,197.77l1.19-1.19c.12-.12.12-.3,0-.42-.12-.12-.3-.12-.42,0l-.68.68v-2.86c0-.16-.13-.3-.3-.3s-.3.13-.3.3v2.86s-.68-.68-.68-.68c-.12-.12-.3-.12-.42,0-.12.12-.12.3,0,.42l1.19,1.19c.12.12.3.12.42,0Z"/>
            <path id="_路径_1" data-name="路径 1" class="cls-3" d="M65.91,195.22l-2.17-1.31s-.02-.01-.03-.02c-.01,0-.02,0-.03-.01-.01,0-.02,0-.04,0-.01,0-.02,0-.04,0-.01,0-.02,0-.04,0-.01,0-.02,0-.04,0-.01,0-.02,0-.03.01-.01,0-.02,0-.03.02-.01,0-.02.01-.03.02,0,0-.02.02-.03.02,0,0-.02.02-.02.03,0,0-.01.02-.02.03,0,.01-.01.02-.02.03,0,.01,0,.02-.01.03,0,.01,0,.02,0,.04,0,.01,0,.02,0,.04v.92h-6.45s1.39-2.21,1.39-2.21c.03-.04.06-.08.09-.12.04-.04.08-.07.12-.09.04-.02.09-.04.14-.06.05-.01.1-.02.15-.02h.65s.04.09.06.13c.02.04.05.08.08.12.03.04.06.08.1.11.03.03.07.06.11.09.04.03.08.05.12.08.04.02.09.04.13.06.05.02.09.03.14.03.05,0,.1.01.14.01.03,0,.06,0,.09-.01.03,0,.06-.01.09-.02.03,0,.06-.02.09-.03.03-.01.06-.02.09-.04.03-.01.05-.03.08-.04.03-.02.05-.03.08-.05.02-.02.05-.04.07-.06.02-.02.05-.04.07-.06.02-.02.04-.05.06-.07.02-.02.04-.05.05-.08.02-.03.03-.05.05-.08.01-.03.03-.06.04-.08.01-.03.02-.06.03-.09s.02-.06.02-.09c0-.03.01-.06.01-.09s0-.06,0-.09,0-.06,0-.09c0-.03,0-.06-.01-.09,0-.03-.01-.06-.02-.09,0-.03-.02-.06-.03-.09-.01-.03-.02-.06-.04-.08-.01-.03-.03-.05-.05-.08-.02-.03-.03-.05-.05-.08-.02-.02-.04-.05-.06-.07-.02-.02-.04-.04-.07-.06-.02-.02-.05-.04-.07-.06-.02-.02-.05-.03-.08-.05-.03-.02-.05-.03-.08-.04-.03-.01-.06-.02-.09-.04-.03-.01-.06-.02-.09-.03-.03,0-.06-.01-.09-.02-.03,0-.06,0-.09-.01-.04,0-.09,0-.13,0-.04,0-.09.02-.13.03-.04.01-.08.03-.12.05-.04.02-.08.04-.12.06-.04.02-.07.05-.11.08-.03.03-.06.06-.09.09-.03.03-.06.07-.08.1-.02.04-.05.07-.07.11h-.69c-.06,0-.12,0-.18,0-.06,0-.12.02-.17.03-.06.01-.11.03-.17.05-.05.02-.11.05-.16.08-.05.03-.1.06-.15.1-.05.03-.09.07-.14.11-.04.04-.08.08-.12.13-.04.05-.07.09-.1.14l-1.64,2.63h-.56s-.02-.05-.03-.08c-.01-.02-.02-.05-.03-.07-.01-.02-.02-.05-.04-.07-.01-.02-.03-.05-.04-.07-.01-.02-.03-.04-.05-.07-.02-.02-.03-.04-.05-.06-.02-.02-.03-.04-.05-.06-.02-.02-.04-.04-.06-.06-.02-.02-.04-.04-.06-.05-.02-.02-.04-.03-.06-.05-.02-.02-.04-.03-.07-.05-.02-.01-.05-.03-.07-.04-.02-.01-.05-.03-.07-.04-.02-.01-.05-.02-.07-.03-.02-.01-.05-.02-.08-.03-.03,0-.05-.02-.08-.03-.03,0-.05-.01-.08-.02-.03,0-.05-.01-.08-.02-.03,0-.05,0-.08-.01-.03,0-.05,0-.08,0-.03,0-.05,0-.08,0-.03,0-.05,0-.08,0-.03,0-.05,0-.08,0-.03,0-.05,0-.08.01-.03,0-.05.01-.08.02-.03,0-.05.01-.08.02-.03,0-.05.02-.08.03-.03,0-.05.02-.07.03-.02.01-.05.02-.07.04-.02.01-.05.03-.07.04-.02.01-.05.03-.07.04-.02.02-.04.03-.07.05-.02.02-.04.03-.06.05-.02.02-.04.04-.06.06-.02.02-.04.04-.06.06-.02.02-.04.04-.05.06-.02.02-.03.04-.05.06-.02.02-.03.04-.04.07-.01.02-.03.05-.04.07-.01.02-.02.05-.04.07-.01.02-.02.05-.03.07,0,.03-.02.05-.03.08,0,.03-.02.05-.02.08,0,.03-.01.05-.02.08,0,.03,0,.05-.01.08,0,.03,0,.05,0,.08,0,.03,0,.05,0,.08,0,.03,0,.05,0,.08,0,.03,0,.05,0,.08,0,.03,0,.05.01.08,0,.03,0,.05.02.08,0,.03.01.05.02.08,0,.03.02.05.02.08,0,.03.02.05.03.08.01.02.02.05.03.07.01.02.02.05.04.07.01.02.03.05.04.07.01.02.03.04.05.07.02.02.03.04.05.06.02.02.04.04.05.06.02.02.04.04.06.06.02.02.04.04.06.05.02.02.04.03.06.05.02.02.04.03.07.05.02.01.05.03.07.04.02.01.05.03.07.04.02.01.05.02.07.03.02.01.05.02.08.03.03,0,.05.02.08.03.03,0,.05.01.08.02.03,0,.05.01.08.02.03,0,.05,0,.08.01s.05,0,.08,0c.03,0,.05,0,.08,0,.03,0,.05,0,.08,0,.03,0,.05,0,.08,0,.03,0,.05,0,.08-.01.03,0,.05-.01.08-.02.03,0,.05-.01.08-.02.03,0,.05-.02.08-.03.03,0,.05-.02.07-.03.02-.01.05-.02.07-.04.02-.01.05-.03.07-.04.02-.01.05-.03.07-.04.02-.02.04-.03.07-.05.02-.02.04-.03.06-.05.02-.02.04-.04.06-.06.02-.02.04-.04.06-.06.02-.02.04-.04.05-.06.02-.02.03-.04.05-.06.02-.02.03-.04.04-.07.01-.02.03-.05.04-.07.01-.02.02-.05.04-.07.01-.02.02-.05.03-.07,0-.03.02-.05.03-.08,0-.03.02-.05.02-.08h2.22s1.64,2.61,1.64,2.61c.03.05.06.1.1.14.04.05.08.09.12.13.04.04.09.08.14.11.05.03.1.07.15.1.05.03.1.05.16.08.05.02.11.04.17.05.06.01.12.03.17.03.06,0,.12.01.18,0h1.02v.36s1.73,0,1.73,0v-1.73s-1.73,0-1.73,0v.58h-1.02c-.05,0-.1,0-.15-.02-.05-.01-.1-.03-.14-.06s-.08-.05-.12-.09c-.04-.04-.07-.07-.09-.12l-1.38-2.19h4.73v.9s0,.05,0,.07c0,.02.02.05.03.07.01.02.03.04.05.06.02.02.04.03.06.04.04.02.09.03.13.04.05,0,.1-.01.14-.04l2.18-1.31s.02-.01.03-.02c0,0,.02-.02.03-.02,0,0,.02-.02.02-.03,0,0,.01-.02.02-.03,0-.01.01-.02.02-.03,0-.01,0-.02.01-.03,0-.01,0-.02,0-.03,0-.01,0-.02,0-.04s0-.02,0-.04c0-.01,0-.02,0-.03,0-.01,0-.02-.01-.03,0-.01,0-.02-.02-.03,0-.01-.01-.02-.02-.03,0,0-.01-.02-.02-.03,0,0-.02-.02-.03-.02,0,0-.02-.01-.03-.02h.01Z"/>
          </g>
          <g>
            <path id="_文本_1-4" data-name="文本 1" class="cls-3" d="M43.11,50.72v-5.89h1.19v2.32s2.33,0,2.33,0v-2.32h1.19v5.89h-1.19v-2.57s-2.33,0-2.33,0v2.57h-1.19ZM48.77,48.53c0-.56.28-1.09.28-1.09.28-.53.79-.8.79-.8.51-.28,1.13-.28,1.13-.28.97,0,1.59.63,1.59.63.62.63.62,1.59.62,1.59,0,.97-.62,1.6-.62,1.6-.62.64-1.57.64-1.57.64-.59,0-1.12-.27-1.12-.27-.53-.27-.81-.78-.81-.78-.28-.51-.28-1.25-.28-1.25ZM49.93,48.59c0,.63.3.97.3.97.3.34.74.34.74.34.44,0,.74-.34.74-.34.3-.34.3-.98.3-.98,0-.63-.3-.96-.3-.96-.3-.34-.74-.34-.74-.34-.44,0-.74.34-.74.34-.3.34-.3.97-.3.97ZM53.66,49.5l1.13-.17c.07.33.29.5.29.5.22.17.62.17.62.17.44,0,.66-.16.66-.16.15-.11.15-.3.15-.3,0-.13-.08-.21-.08-.21-.08-.08-.38-.15-.38-.15-1.37-.3-1.73-.55-1.73-.55-.51-.35-.51-.96-.51-.96,0-.55.44-.93.44-.93.44-.38,1.36-.38,1.36-.38.88,0,1.3.29,1.3.29.43.29.59.84.59.84l-1.06.2c-.07-.25-.26-.38-.26-.38-.19-.13-.54-.13-.54-.13-.45,0-.64.12-.64.12-.13.09-.13.23-.13.23,0,.12.11.2.11.2.15.11,1.05.32,1.05.32.9.2,1.26.5,1.26.5.35.3.35.84.35.84,0,.59-.49,1.01-.49,1.01-.49.42-1.45.42-1.45.42-.87,0-1.38-.35-1.38-.35-.51-.35-.66-.96-.66-.96ZM60.59,46.45v.9h-.77s0,1.72,0,1.72c0,.52.02.61.02.61.02.09.1.14.1.14.08.06.19.06.19.06.16,0,.45-.11.45-.11l.1.88c-.39.17-.89.17-.89.17-.31,0-.55-.1-.55-.1-.24-.1-.36-.27-.36-.27-.11-.16-.16-.44-.16-.44-.04-.2-.04-.8-.04-.8v-1.86s-.52,0-.52,0v-.9h.52s0-.85,0-.85l1.13-.66v1.51s.77,0,.77,0ZM63.53,52.45v-7.72h.9v7.72h-.9ZM69.08,50.72v-4.89s-1.75,0-1.75,0v-1h4.68v1h-1.74s0,4.89,0,4.89h-1.19ZM73.61,47.75l-1.02-.18c.17-.62.59-.92.59-.92.42-.3,1.25-.3,1.25-.3.75,0,1.12.18,1.12.18.37.18.52.45.52.45.15.28.15,1.01.15,1.01v1.32c-.01.56.04.83.04.83.05.27.2.57.2.57h-1.12c-.04-.11-.11-.33-.11-.33-.03-.1-.04-.13-.04-.13-.29.28-.62.42-.62.42-.33.14-.7.14-.7.14-.66,0-1.04-.36-1.04-.36-.38-.36-.38-.9-.38-.9,0-.36.17-.64.17-.64.17-.28.48-.43.48-.43.31-.15.9-.26.9-.26.79-.15,1.1-.28,1.1-.28v-.11c0-.33-.16-.46-.16-.46-.16-.14-.61-.14-.61-.14-.3,0-.47.12-.47.12-.17.12-.27.42-.27.42ZM75.12,48.67c-.22.07-.69.17-.69.17-.47.1-.61.2-.61.2-.22.16-.22.4-.22.4,0,.24.18.41.18.41.18.17.45.17.45.17.31,0,.58-.2.58-.2.2-.15.27-.37.27-.37.04-.14.04-.55.04-.55v-.22ZM78.42,50.72h-1.13v-4.27h1.05v.61c.27-.43.48-.57.48-.57.21-.14.49-.14.49-.14.39,0,.74.21.74.21l-.35.98c-.29-.18-.53-.18-.53-.18-.24,0-.4.13-.4.13-.16.13-.26.47-.26.47-.09.34-.09,1.43-.09,1.43v1.32ZM80.44,51l1.29.16c.03.22.15.31.15.31.16.12.51.12.51.12.44,0,.66-.13.66-.13.15-.09.22-.29.22-.29.05-.14.05-.52.05-.52v-.62c-.51.69-1.28.69-1.28.69-.86,0-1.36-.73-1.36-.73-.39-.57-.39-1.43-.39-1.43,0-1.07.52-1.64.52-1.64.52-.57,1.28-.57,1.28-.57.79,0,1.31.69,1.31.69v-.6h1.06v3.83c0,.76-.12,1.13-.12,1.13-.12.37-.35.59-.35.59-.22.21-.6.33-.6.33-.38.12-.95.12-.95.12-1.08,0-1.54-.37-1.54-.37-.45-.37-.45-.94-.45-.94,0-.06,0-.14,0-.14ZM81.45,48.5c0,.68.26.99.26.99.26.32.65.32.65.32.41,0,.7-.32.7-.32.29-.32.29-.96.29-.96,0-.66-.27-.98-.27-.98-.27-.32-.69-.32-.69-.32-.41,0-.67.32-.67.32-.26.32-.26.96-.26.96ZM88.04,49.36l1.12.19c-.22.62-.68.94-.68.94-.47.32-1.17.32-1.17.32-1.11,0-1.65-.73-1.65-.73-.42-.58-.42-1.47-.42-1.47,0-1.06.55-1.66.55-1.66.55-.6,1.4-.6,1.4-.6.95,0,1.5.63,1.5.63.55.63.53,1.93.53,1.93h-2.83c.01.5.27.78.27.78.26.28.65.28.65.28.27,0,.45-.14.45-.14.18-.14.27-.47.27-.47ZM88.1,48.22c-.01-.49-.25-.74-.25-.74-.24-.25-.59-.25-.59-.25-.37,0-.61.27-.61.27-.24.27-.24.73-.24.73h1.69ZM92.1,46.45v.9h-.77s0,1.72,0,1.72c0,.52.02.61.02.61.02.09.1.14.1.14.08.06.19.06.19.06.16,0,.45-.11.45-.11l.1.88c-.39.17-.89.17-.89.17-.31,0-.55-.1-.55-.1-.24-.1-.36-.27-.36-.27-.11-.16-.16-.44-.16-.44-.04-.2-.04-.8-.04-.8v-1.86s-.52,0-.52,0v-.9h.52s0-.85,0-.85l1.13-.66v1.51s.77,0,.77,0Z"/>
            <g>
              <path id="_减去顶层-4" data-name="减去顶层" class="cls-3" d="M47.03,37.51c0-2.27,1.84-4.11,4.11-4.11,2.27,0,4.11,1.84,4.11,4.11s-1.84,4.11-4.11,4.11c-2.27,0-4.11-1.84-4.11-4.11ZM53.12,36.34c.12.12.3.12.42,0,.12-.12.12-.3,0-.42l-1.19-1.19c-.12-.12-.3-.12-.42,0l-1.19,1.19c-.12.12-.12.3,0,.42.12.12.3.12.42,0l.68-.68v2.86c0,.16.13.3.3.3s.3-.13.3-.3v-2.86s.68.68.68.68ZM49.96,39.91l1.19-1.19c.12-.12.12-.3,0-.42-.12-.12-.3-.12-.42,0l-.68.68v-2.86c0-.16-.13-.3-.3-.3s-.3.13-.3.3v2.86s-.68-.68-.68-.68c-.12-.12-.3-.12-.42,0-.12.12-.12.3,0,.42l1.19,1.19c.12.12.3.12.42,0Z"/>
              <path id="_路径_1-2" data-name="路径 1" class="cls-3" d="M72.34,37.36l-2.17-1.31s-.02-.01-.03-.02c-.01,0-.02,0-.03-.01-.01,0-.02,0-.04,0-.01,0-.02,0-.04,0-.01,0-.02,0-.04,0-.01,0-.02,0-.04,0-.01,0-.02,0-.03.01-.01,0-.02,0-.03.02-.01,0-.02.01-.03.02,0,0-.02.02-.03.02,0,0-.02.02-.02.03,0,0-.01.02-.02.03,0,.01-.01.02-.02.03,0,.01,0,.02-.01.03,0,.01,0,.02,0,.04,0,.01,0,.02,0,.04v.92h-6.45s1.39-2.21,1.39-2.21c.03-.04.06-.08.09-.12.04-.04.08-.07.12-.09.04-.02.09-.04.14-.06.05-.01.1-.02.15-.02h.65s.04.09.06.13c.02.04.05.08.08.12.03.04.06.08.1.11.03.03.07.06.11.09.04.03.08.05.12.08.04.02.09.04.13.06.05.02.09.03.14.03.05,0,.1.01.14.01.03,0,.06,0,.09-.01.03,0,.06-.01.09-.02.03,0,.06-.02.09-.03.03-.01.06-.02.09-.04.03-.01.05-.03.08-.04.03-.02.05-.03.08-.05.02-.02.05-.04.07-.06.02-.02.05-.04.07-.06.02-.02.04-.05.06-.07.02-.02.04-.05.05-.08.02-.03.03-.05.05-.08.01-.03.03-.06.04-.08.01-.03.02-.06.03-.09,0-.03.02-.06.02-.09,0-.03.01-.06.01-.09s0-.06,0-.09,0-.06,0-.09c0-.03,0-.06-.01-.09,0-.03-.01-.06-.02-.09,0-.03-.02-.06-.03-.09-.01-.03-.02-.06-.04-.08-.01-.03-.03-.05-.05-.08-.02-.03-.03-.05-.05-.08-.02-.02-.04-.05-.06-.07-.02-.02-.04-.04-.07-.06-.02-.02-.05-.04-.07-.06-.02-.02-.05-.03-.08-.05-.03-.02-.05-.03-.08-.04-.03-.01-.06-.02-.09-.04-.03-.01-.06-.02-.09-.03-.03,0-.06-.01-.09-.02-.03,0-.06,0-.09-.01-.04,0-.09,0-.13,0-.04,0-.09.02-.13.03-.04.01-.08.03-.12.05-.04.02-.08.04-.12.06-.04.02-.07.05-.11.08-.03.03-.06.06-.09.09-.03.03-.06.07-.08.1-.02.04-.05.07-.07.11h-.69c-.06,0-.12,0-.18,0-.06,0-.12.02-.17.03-.06.01-.11.03-.17.05-.05.02-.11.05-.16.08-.05.03-.1.06-.15.1-.05.03-.09.07-.14.11-.04.04-.08.08-.12.13-.04.05-.07.09-.1.14l-1.64,2.63h-.56s-.02-.05-.03-.08c-.01-.02-.02-.05-.03-.07-.01-.02-.02-.05-.04-.07-.01-.02-.03-.05-.04-.07s-.03-.04-.05-.07c-.02-.02-.03-.04-.05-.06-.02-.02-.03-.04-.05-.06-.02-.02-.04-.04-.06-.06-.02-.02-.04-.04-.06-.05-.02-.02-.04-.03-.06-.05-.02-.02-.04-.03-.07-.05-.02-.01-.05-.03-.07-.04-.02-.01-.05-.03-.07-.04-.02-.01-.05-.02-.07-.03-.02-.01-.05-.02-.08-.03-.03,0-.05-.02-.08-.03-.03,0-.05-.01-.08-.02-.03,0-.05-.01-.08-.02-.03,0-.05,0-.08-.01-.03,0-.05,0-.08,0-.03,0-.05,0-.08,0-.03,0-.05,0-.08,0-.03,0-.05,0-.08,0-.03,0-.05,0-.08.01-.03,0-.05.01-.08.02-.03,0-.05.01-.08.02-.03,0-.05.02-.08.03-.03,0-.05.02-.07.03-.02.01-.05.02-.07.04-.02.01-.05.03-.07.04-.02.01-.05.03-.07.04-.02.02-.04.03-.07.05-.02.02-.04.03-.06.05-.02.02-.04.04-.06.06-.02.02-.04.04-.06.06-.02.02-.04.04-.05.06-.02.02-.03.04-.05.06-.02.02-.03.04-.04.07-.01.02-.03.05-.04.07-.01.02-.02.05-.04.07-.01.02-.02.05-.03.07,0,.03-.02.05-.03.08,0,.03-.02.05-.02.08,0,.03-.01.05-.02.08,0,.03,0,.05-.01.08,0,.03,0,.05,0,.08,0,.03,0,.05,0,.08,0,.03,0,.05,0,.08,0,.03,0,.05,0,.08,0,.03,0,.05.01.08,0,.03,0,.05.02.08,0,.03.01.05.02.08,0,.03.02.05.02.08,0,.03.02.05.03.08.01.02.02.05.03.07.01.02.02.05.04.07.01.02.03.05.04.07.01.02.03.04.05.07.02.02.03.04.05.06.02.02.04.04.05.06.02.02.04.04.06.06.02.02.04.04.06.05.02.02.04.03.06.05.02.02.04.03.07.05.02.01.05.03.07.04.02.01.05.03.07.04.02.01.05.02.07.03.02.01.05.02.08.03.03,0,.05.02.08.03.03,0,.05.01.08.02.03,0,.05.01.08.02.03,0,.05,0,.08.01s.05,0,.08,0c.03,0,.05,0,.08,0,.03,0,.05,0,.08,0,.03,0,.05,0,.08,0,.03,0,.05,0,.08-.01.03,0,.05-.01.08-.02.03,0,.05-.01.08-.02.03,0,.05-.02.08-.03.03,0,.05-.02.07-.03.02-.01.05-.02.07-.04.02-.01.05-.03.07-.04.02-.01.05-.03.07-.04.02-.02.04-.03.07-.05.02-.02.04-.03.06-.05.02-.02.04-.04.06-.06.02-.02.04-.04.06-.06.02-.02.04-.04.05-.06.02-.02.03-.04.05-.06.02-.02.03-.04.04-.07.01-.02.03-.05.04-.07.01-.02.02-.05.04-.07.01-.02.02-.05.03-.07,0-.03.02-.05.03-.08,0-.03.02-.05.02-.08h2.22s1.64,2.61,1.64,2.61c.03.05.06.1.1.14.04.05.08.09.12.13.04.04.09.08.14.11.05.03.1.07.15.1.05.03.1.05.16.08.05.02.11.04.17.05.06.01.12.03.17.03.06,0,.12.01.18,0h1.02v.36s1.73,0,1.73,0v-1.73s-1.73,0-1.73,0v.58h-1.02c-.05,0-.1,0-.15-.02-.05-.01-.1-.03-.14-.06-.04-.02-.08-.05-.12-.09-.04-.04-.07-.07-.09-.12l-1.38-2.19h4.73v.9s0,.05,0,.07c0,.02.02.05.03.07.01.02.03.04.05.06.02.02.04.03.06.04.04.02.09.03.13.04.05,0,.1-.01.14-.04l2.18-1.31s.02-.01.03-.02c0,0,.02-.02.03-.02,0,0,.02-.02.02-.03,0,0,.01-.02.02-.03,0-.01.01-.02.02-.03,0-.01,0-.02.01-.03,0-.01,0-.02,0-.03,0-.01,0-.02,0-.04s0-.02,0-.04c0-.01,0-.02,0-.03,0-.01,0-.02-.01-.03,0-.01,0-.02-.02-.03,0-.01-.01-.02-.02-.03,0,0-.01-.02-.02-.03,0,0-.02-.02-.03-.02,0,0-.02-.01-.03-.02h.01Z"/>
              <path id="_路径_1-3" data-name="路径 1" class="cls-3" d="M83.99,33.4h-3.52c-.07,0-.13,0-.2,0-.07,0-.13,0-.2.01-.07,0-.13.01-.2.02-.07,0-.13.02-.2.03-.07.01-.13.03-.2.04-.07.02-.13.03-.19.05-.06.02-.13.04-.19.06s-.13.05-.19.07c-.06.03-.12.05-.18.08-.06.03-.12.06-.18.09-.06.03-.12.06-.18.1-.06.03-.11.07-.17.11-.06.04-.11.08-.17.12-.05.04-.11.08-.16.12-.05.04-.1.09-.15.13-.05.05-.1.09-.15.14-.05.05-.09.1-.14.15-.05.05-.09.1-.13.15-.04.05-.08.11-.12.16-.04.05-.08.11-.12.17s-.07.11-.11.17c-.03.06-.07.12-.1.18-.03.06-.06.12-.09.18-.03.06-.06.12-.08.18-.03.06-.05.12-.07.19-.02.06-.04.13-.06.19-.02.06-.04.13-.05.19s-.03.13-.04.2c-.01.07-.02.13-.03.2,0,.07-.02.13-.02.2,0,.07-.01.13-.01.2,0,.07,0,.13,0,.2s0,.13,0,.2c0,.07,0,.13.01.2,0,.07.01.13.02.2,0,.07.02.13.03.2.01.07.03.13.04.2.02.07.03.13.05.19.02.06.04.13.06.19.02.06.05.13.07.19.03.06.05.12.08.18.03.06.06.12.09.18.03.06.06.12.1.18.03.06.07.11.11.17.04.06.08.11.12.17.04.05.08.11.12.16.04.05.09.1.13.15.05.05.09.1.14.15.05.05.1.09.15.14s.1.09.15.13.11.08.16.12c.05.04.11.08.17.12.06.04.11.07.17.11.06.03.12.07.18.1.06.03.12.06.18.09.06.03.12.06.18.08.06.03.13.05.19.07.06.02.13.04.19.06.06.02.13.04.19.05.07.02.13.03.2.04.07.01.13.02.2.03.07,0,.13.02.2.02.07,0,.13.01.2.01.07,0,.13,0,.2,0h3.52c.07,0,.13,0,.2,0,.07,0,.13,0,.2-.01.07,0,.13-.01.2-.02.07,0,.13-.02.2-.03.07-.01.13-.03.2-.04.07-.02.13-.03.19-.05.06-.02.13-.04.19-.06.06-.02.13-.05.19-.07.06-.03.12-.05.18-.08.06-.03.12-.06.18-.09.06-.03.12-.06.18-.1.06-.03.11-.07.17-.11.06-.04.11-.08.17-.12.05-.04.11-.08.16-.12.05-.04.1-.09.15-.13s.1-.09.15-.14c.05-.05.09-.1.14-.15.05-.05.09-.1.13-.15.04-.05.08-.11.12-.16.04-.05.08-.11.12-.17.04-.06.07-.11.11-.17.03-.06.07-.12.1-.18.03-.06.06-.12.09-.18.03-.06.06-.12.08-.18.03-.06.05-.12.07-.19.02-.06.04-.13.06-.19.02-.06.04-.13.05-.19.02-.07.03-.13.04-.2.01-.07.02-.13.03-.2,0-.07.02-.13.02-.2,0-.07.01-.13.01-.2,0-.07,0-.13,0-.2s0-.13,0-.2c0-.07,0-.13-.01-.2,0-.07-.01-.13-.02-.2,0-.07-.02-.13-.03-.2-.01-.07-.03-.13-.04-.2s-.03-.13-.05-.19c-.02-.06-.04-.13-.06-.19-.02-.06-.05-.13-.07-.19-.03-.06-.05-.12-.08-.18-.03-.06-.06-.12-.09-.18-.03-.06-.06-.12-.1-.18-.03-.06-.07-.11-.11-.17s-.08-.11-.12-.17c-.04-.05-.08-.11-.12-.16-.04-.05-.09-.1-.13-.15-.05-.05-.09-.1-.14-.15-.05-.05-.1-.09-.15-.14-.05-.05-.1-.09-.15-.13-.05-.04-.11-.08-.16-.12-.05-.04-.11-.08-.17-.12-.06-.04-.11-.07-.17-.11-.06-.03-.12-.07-.18-.1-.06-.03-.12-.06-.18-.09-.06-.03-.12-.06-.18-.08-.06-.03-.13-.05-.19-.07-.06-.02-.13-.04-.19-.06-.06-.02-.13-.04-.19-.05-.07-.02-.13-.03-.2-.04-.07-.01-.13-.02-.2-.03-.07,0-.13-.02-.2-.02-.07,0-.13-.01-.2-.01s-.13,0-.2,0ZM83.7,39.57c-.07,0-.13,0-.2,0-.07,0-.13-.02-.2-.03-.07-.01-.13-.03-.2-.05-.06-.02-.13-.04-.19-.07-.06-.03-.12-.05-.18-.09-.06-.03-.12-.07-.17-.1-.06-.04-.11-.08-.16-.12-.05-.04-.1-.09-.15-.14-.05-.05-.09-.1-.14-.15-.04-.05-.08-.11-.12-.16-.04-.06-.07-.11-.1-.17-.03-.06-.06-.12-.09-.18-.03-.06-.05-.13-.07-.19-.02-.06-.04-.13-.05-.2-.01-.07-.02-.13-.03-.2,0-.07,0-.13,0-.2s0-.13,0-.2c0-.07.02-.13.03-.2.01-.07.03-.13.05-.2.02-.06.04-.13.07-.19.03-.06.05-.12.09-.18.03-.06.07-.12.1-.17.04-.06.08-.11.12-.16.04-.05.09-.1.14-.15.05-.05.1-.09.15-.14.05-.04.11-.08.16-.12.06-.04.11-.07.17-.1.06-.03.12-.06.18-.09.06-.03.13-.05.19-.07.06-.02.13-.04.2-.05.07-.01.13-.02.2-.03.07,0,.13,0,.2,0s.13,0,.2,0c.07,0,.13.02.2.03.07.01.13.03.2.05.06.02.13.04.19.07.06.03.12.05.18.09.06.03.12.07.17.1.06.04.11.08.16.12.05.04.1.09.15.14.05.05.09.1.14.15.04.05.08.11.12.16.04.06.07.11.1.17.03.06.06.12.09.18.03.06.05.13.07.19s.04.13.05.2c.01.07.02.13.03.2,0,.07,0,.13,0,.2s0,.13,0,.2c0,.07-.02.13-.03.2-.01.07-.03.13-.05.2-.02.06-.04.13-.07.19-.03.06-.05.12-.09.18-.03.06-.07.12-.1.17-.04.06-.08.11-.12.16-.04.05-.09.1-.14.15-.05.05-.1.09-.15.14-.05.04-.11.08-.16.12-.06.04-.11.07-.17.1-.06.03-.12.06-.18.09-.06.03-.13.05-.19.07-.06.02-.13.04-.2.05-.07.01-.13.02-.2.03-.07,0-.13,0-.2,0Z"/>
            </g>
          </g>
          <g>
            <path id="_路径_2" data-name="路径 2" class="cls-3" d="M131.19,194.17h1.76v3.62c.62,0,1.21,0,1.82,0,0-1.22,0-2.41,0-3.62h1.74v1.82c0,.6,0,1.2,0,1.8h1.85c0-1.16,0-2.31,0-3.46,0-.88-.5-1.38-1.39-1.38-2.44,0-4.88,0-7.31,0h-.3c0,1.63,0,3.23,0,4.84h1.83c0-1.22,0-2.41,0-3.62Z"/>
            <path id="_路径_3" data-name="路径 3" class="cls-3" d="M127.18,197.81c.87,0,1.4-.52,1.4-1.39,0-.7,0-1.4,0-2.1,0-.84-.54-1.37-1.38-1.37-1.82,0-3.64,0-5.46,0h-.31v1.21c1.77,0,3.53,0,5.28,0v2.43h-3.46v-1.65h-1.83v2.87h.3c1.82,0,3.64,0,5.46,0Z"/>
            <path id="_路径_4" data-name="路径 4" class="cls-3" d="M115.37,196.08h.09c1.09,0,2.14,0,3.22,0v1.71h1.91v-4.83h-1.92v1.95h-3.22s-.06,0-.09,0v-1.94h-1.89c0,1.62,0,3.22,0,4.83h1.89c0-.58,0-1.15,0-1.71Z"/>
            <path id="_路径_5" data-name="路径 5" class="cls-3" d="M141.03,192.97h-1.87c0,1.62,0,3.23,0,4.82h1.87v-4.82Z"/>
          </g>
        </g>
      </g>
      <rect class="cls-2" x="2.5" width="310.03" height="255.26"/>
    </g>
  </g>
</svg>