<?xml version="1.0" encoding="UTF-8"?>
<svg id="_图层_2" data-name="图层 2" xmlns="http://www.w3.org/2000/svg" width="337.18" height="255.26" xmlns:xlink="http://www.w3.org/1999/xlink" viewBox="0 0 337.18 255.26">
  <defs>
    <style>
      .cls-1 {
        clip-path: url(#clippath);
      }

      .cls-2, .cls-3 {
        stroke-width: 0px;
      }

      .cls-2, .cls-4 {
        fill: none;
      }

      .cls-5 {
        clip-path: url(#clippath-1);
      }

      .cls-3 {
        fill: #040000;
        fill-rule: evenodd;
        isolation: isolate;
        opacity: .8;
      }

      .cls-4 {
        stroke: #000;
        stroke-linecap: round;
        stroke-linejoin: round;
        stroke-width: .5px;
      }
    </style>
    <clipPath id="clippath">
      <polyline class="cls-2" points="266.86 225.04 335.65 225.04 335.65 5.17 266.86 5.17 266.86 225.04"/>
    </clipPath>
    <clipPath id="clippath-1">
      <polyline class="cls-2" points="25.3 224.38 269.7 224.38 269.7 4.51 25.3 4.51 25.3 224.38"/>
    </clipPath>
  </defs>
  <g id="_图层_5" data-name="图层 5">
    <g>
      <g>
        <g class="cls-1">
          <line class="cls-4" x1="282.2" y1="207.55" x2="282.2" y2="207.55"/>
          <line class="cls-4" x1="320.31" y1="207.55" x2="320.31" y2="207.55"/>
          <polyline class="cls-4" points="323.92 207.55 323.76 207.55 323.38 207.55 322.69 207.55 321.69 207.55 320.47 207.55 319.01 207.55 317.32 207.55 315.48 207.55 313.41 207.55 311.19 207.55 308.89 207.55 306.43 207.55 303.9 207.55 301.37 207.55 298.92 207.55 296.39 207.55 293.93 207.55 291.56 207.55 289.33 207.55 287.26 207.55 285.34 207.55 283.66 207.55 282.2 207.55 280.97 207.55 279.98 207.55 279.21 207.55 278.75 207.55 278.6 207.55"/>
          <line class="cls-4" x1="285.88" y1="207.55" x2="285.88" y2="207.55"/>
          <line class="cls-4" x1="292.32" y1="207.55" x2="292.32" y2="207.55"/>
          <line class="cls-4" x1="278.6" y1="209.78" x2="282.2" y2="213.38"/>
          <polyline class="cls-4" points="278.6 207.55 278.6 209.78 278.75 209.78 279.21 209.78 279.98 209.78 280.97 209.78 282.2 209.78 283.66 209.78 285.34 209.78 287.26 209.78 289.33 209.78 291.56 209.78 293.93 209.78 296.39 209.78 298.92 209.78 301.37 209.78 303.9 209.78 306.43 209.78 308.89 209.78 311.19 209.78 313.41 209.78 315.48 209.78 317.32 209.78 319.01 209.78 320.47 209.78 321.69 209.78 322.69 209.78 323.38 209.78 323.76 209.78 323.92 209.78 320.31 213.38 320.16 213.38 319.78 213.38 319.09 213.38 318.17 213.38 316.94 213.38 315.56 213.38 313.95 213.38 312.18 213.38 310.19 213.38 308.12 213.38 305.9 213.38 303.67 213.38 301.37 213.38 299.15 213.38 296.85 213.38 294.7 213.38 292.55 213.38 290.56 213.38 288.79 213.38 287.11 213.38 285.73 213.38 284.5 213.38 283.5 213.38 282.81 213.38 282.35 213.38 282.2 213.38"/>
          <line class="cls-4" x1="323.92" y1="207.55" x2="323.92" y2="209.78"/>
          <polyline class="cls-4" points="282.2 17.6 282.35 17.6 282.81 17.6 283.5 17.6 284.5 17.6 285.73 17.6 287.11 17.6 288.79 17.6 290.56 17.6 292.55 17.6 294.7 17.6 296.85 17.6 299.15 17.6 301.37 17.6 303.67 17.6 305.9 17.6 308.12 17.6 310.19 17.6 312.18 17.6 313.95 17.6 315.56 17.6 316.94 17.6 318.17 17.6 319.09 17.6 319.78 17.6 320.16 17.6 320.31 17.6 323.92 21.2 323.76 21.2 323.38 21.2 322.69 21.2 321.69 21.2 320.47 21.2 319.01 21.2 317.32 21.2 315.48 21.2 313.41 21.2 311.19 21.2 308.89 21.2 306.43 21.2 303.9 21.2 301.37 21.2 298.92 21.2 296.39 21.2 293.93 21.2 291.56 21.2 289.33 21.2 287.26 21.2 285.34 21.2 283.66 21.2 282.2 21.2 280.97 21.2 279.98 21.2 279.21 21.2 278.75 21.2 278.6 21.2 282.2 17.6"/>
          <line class="cls-4" x1="323.92" y1="23.42" x2="323.92" y2="21.2"/>
          <polyline class="cls-4" points="323.92 23.42 323.76 23.42 323.38 23.42 322.69 23.42 321.69 23.42 320.47 23.42 319.01 23.42 317.32 23.42 315.48 23.42 313.41 23.42 311.19 23.42 308.89 23.42 306.43 23.42 303.9 23.42 301.37 23.42 298.92 23.42 296.39 23.42 293.93 23.42 291.56 23.42 289.33 23.42 287.26 23.42 285.34 23.42 283.66 23.42 282.2 23.42 280.97 23.42 279.98 23.42 279.21 23.42 278.75 23.42 278.6 23.42 278.6 21.2"/>
          <polyline class="cls-4" points="323.92 207.55 323.92 23.42 323.76 23.42 323.38 23.42 322.69 23.42 321.69 23.42 320.47 23.42 319.01 23.42 317.32 23.42 315.48 23.42 313.41 23.42 311.19 23.42 308.89 23.42 306.43 23.42 303.9 23.42 301.37 23.42 298.92 23.42 296.39 23.42 293.93 23.42 291.56 23.42 289.33 23.42 287.26 23.42 285.34 23.42 283.66 23.42 282.2 23.42 280.97 23.42 279.98 23.42 279.21 23.42 278.75 23.42 278.6 23.42 278.6 207.55 278.75 207.55 279.21 207.55 279.98 207.55 280.97 207.55 282.2 207.55 283.66 207.55 285.34 207.55 287.26 207.55 289.33 207.55 291.56 207.55 293.93 207.55 296.39 207.55 298.92 207.55 301.37 207.55 303.9 207.55 306.43 207.55 308.89 207.55 311.19 207.55 313.41 207.55 315.48 207.55 317.32 207.55 319.01 207.55 320.47 207.55 321.69 207.55 322.69 207.55 323.38 207.55 323.76 207.55 323.92 207.55"/>
          <line class="cls-4" x1="299.99" y1="16.83" x2="299.99" y2="17.6"/>
          <polyline class="cls-4" points="299.99 16.83 307.2 16.83 307.2 17.6"/>
          <polyline class="cls-4" points="278.6 191.37 278.52 191.37 278.52 191.45 278.52 191.52 278.52 191.6 278.52 191.68 278.52 191.75 278.52 191.83 278.52 191.91 278.52 191.98 278.52 192.06 278.52 192.14"/>
          <polyline class="cls-4" points="278.6 34.24 278.52 34.24 278.52 34.31"/>
          <polyline class="cls-4" points="278.52 33.47 278.52 33.47 278.6 33.47"/>
          <polyline class="cls-4" points="278.6 41.75 278.52 41.75 278.52 41.68 278.52 41.6 278.52 41.52 278.52 41.44 278.52 41.29 278.52 41.21 278.52 41.14 278.52 40.98 278.52 40.83 278.52 40.68 278.52 40.52 278.52 40.37 278.52 40.22"/>
          <polyline class="cls-4" points="278.6 33.47 278.52 33.47 278.52 33.55 278.52 33.62 278.52 33.7 278.52 33.78 278.52 33.85 278.52 33.93 278.52 34.01 278.52 34.08 278.52 34.16 278.52 34.24"/>
          <polyline class="cls-4" points="278.6 44.82 278.52 44.82 278.52 44.9 278.6 44.9"/>
          <line class="cls-4" x1="278.52" y1="45.05" x2="278.52" y2="44.9"/>
          <polyline class="cls-4" points="278.6 46.51 278.52 46.51 278.52 46.58 278.6 46.58"/>
          <polyline class="cls-4" points="278.6 47.43 278.52 47.43 278.52 46.58"/>
          <polyline class="cls-4" points="278.6 49.8 278.52 49.8 278.52 49.73 278.52 49.65 278.52 49.57 278.52 49.5 278.52 49.42 278.52 49.27 278.52 49.19 278.52 47.43"/>
          <polyline class="cls-4" points="278.6 49.88 278.52 49.88 278.52 49.8"/>
          <polyline class="cls-4" points="278.6 50.72 278.52 50.72 278.52 49.88"/>
          <polyline class="cls-4" points="278.6 50.88 278.52 50.88 278.52 50.8 278.52 50.72"/>
          <polyline class="cls-4" points="278.6 45.05 278.52 45.05 278.52 46.51"/>
          <polyline class="cls-4" points="278.52 35.85 278.6 35.85 278.52 35.85 278.52 36.77 278.6 36.77"/>
          <polyline class="cls-4" points="278.6 39.07 278.52 39.07 278.52 38.99 278.52 38.91 278.52 38.84 278.52 38.68 278.52 38.61 278.52 38.45 278.52 36.77"/>
          <polyline class="cls-4" points="278.6 39.14 278.52 39.14 278.52 39.07"/>
          <polyline class="cls-4" points="278.6 40.06 278.52 40.06 278.52 39.14"/>
          <polyline class="cls-4" points="278.6 40.22 278.52 40.22 278.52 40.14 278.52 40.06"/>
          <polyline class="cls-4" points="278.6 34.31 278.52 34.31 278.52 35.85"/>
          <polyline class="cls-4" points="278.52 40.22 278.52 40.22 278.6 40.22"/>
          <polyline class="cls-4" points="278.6 199.73 278.52 199.73 278.52 199.65 278.52 199.58 278.52 199.5 278.52 199.42 278.52 199.35 278.52 199.27 278.52 199.19 278.52 199.12 278.52 199.04 278.52 198.96 278.52 198.89 278.52 198.81 278.52 198.73 278.52 198.66 278.52 198.58 278.52 198.5 278.52 198.43 278.52 198.35 278.52 198.27 278.52 198.2 278.52 198.12"/>
          <polyline class="cls-4" points="278.6 192.14 278.52 192.14 278.52 192.21"/>
          <polyline class="cls-4" points="278.52 193.75 278.6 193.75 278.52 193.75 278.52 194.67 278.6 194.67"/>
          <polyline class="cls-4" points="278.6 196.97 278.52 196.97 278.52 196.89 278.52 196.81 278.52 196.74 278.52 196.66 278.52 196.58 278.52 196.51 278.52 196.35 278.52 194.67"/>
          <polyline class="cls-4" points="278.6 197.04 278.52 197.04 278.52 196.97"/>
          <polyline class="cls-4" points="278.6 197.89 278.52 197.89 278.52 197.04"/>
          <polyline class="cls-4" points="278.6 198.12 278.52 198.12 278.52 198.04 278.52 197.97 278.52 197.89"/>
          <polyline class="cls-4" points="278.6 192.21 278.52 192.21 278.52 193.75"/>
          <polyline class="cls-4" points="278.6 52.56 278.52 52.56 278.52 52.49 278.52 52.41 278.52 52.33 278.52 52.26 278.52 52.18 278.52 52.1 278.52 52.03 278.52 51.95 278.52 51.87 278.52 51.8 278.52 51.72 278.52 51.57 278.52 51.49 278.52 51.41 278.52 51.34 278.52 51.26 278.52 51.18 278.52 51.11 278.52 51.03 278.52 50.88"/>
          <line class="cls-4" x1="323.92" y1="141.52" x2="323.99" y2="141.52"/>
          <polyline class="cls-4" points="323.92 41.14 323.99 41.14 323.99 41.06 323.99 40.98 323.99 40.91 323.99 40.83 323.99 40.75 323.99 40.68 323.99 40.6 323.99 40.45 323.99 40.37 323.99 40.22 323.99 40.14 323.99 39.99 323.99 39.83 323.99 39.68 323.99 39.53 323.99 39.37 323.99 39.22 323.99 38.99 323.99 38.84 323.99 38.68 323.99 38.45 323.99 38.3 323.99 38.07 323.99 37.92 323.99 37.69 323.99 37.46 323.99 37.3 323.99 37.07 323.99 36.84 323.99 36.61 323.99 36.46 323.99 36.23 323.99 36 323.99 35.85 323.99 35.62 323.99 35.46 323.99 35.31 323.99 35.08 323.99 34.93 323.99 34.77 323.99 34.62 323.99 34.47 323.99 34.31 323.99 34.16 323.99 34.01 323.99 33.85 323.99 33.78 323.99 33.62 323.99 33.55 323.99 33.47 323.99 33.32 323.99 33.24 323.99 33.16 323.99 33.09 323.99 33.01 323.99 32.93 323.92 32.93"/>
          <polyline class="cls-4" points="323.99 32.93 323.99 32.93 323.92 32.93"/>
          <polyline class="cls-4" points="323.92 115.91 323.99 115.91 323.99 115.83"/>
          <polyline class="cls-4" points="323.92 199.04 323.99 199.04 323.99 198.96 323.99 198.89 323.99 198.81 323.99 198.73 323.99 198.66 323.99 198.58 323.99 198.5 323.99 198.35 323.99 198.27 323.99 198.12 323.99 197.97 323.99 197.89 323.99 197.74 323.99 197.58 323.99 197.43 323.99 197.27 323.99 197.04 323.99 196.89 323.99 196.74 323.99 196.58 323.99 196.35 323.99 196.2 323.99 195.97 323.99 195.74 323.99 195.59 323.99 195.36 323.99 195.13 323.99 194.97 323.99 194.74 323.99 194.51 323.99 194.28 323.99 194.13 323.99 193.9 323.99 193.75 323.99 193.52 323.99 193.36 323.99 193.13 323.99 192.98 323.99 192.83 323.99 192.67 323.99 192.44 323.99 192.29 323.99 192.21 323.99 192.06 323.99 191.91 323.99 191.75 323.99 191.68 323.99 191.52 323.99 191.45 323.99 191.29 323.99 191.22 323.99 191.14 323.99 191.06 323.99 190.99 323.99 190.91 323.99 190.83 323.92 190.83"/>
          <polyline class="cls-4" points="323.92 126.42 323.99 126.42 323.99 126.34"/>
          <polyline class="cls-4" points="323.92 102.87 323.99 102.87 323.99 102.8 323.99 102.72 323.99 102.64 323.99 102.57 323.99 102.49 323.99 102.41 323.99 102.26 323.99 102.18 323.99 102.03 323.99 101.95 323.99 101.8 323.99 101.65 323.99 101.49 323.99 101.34 323.99 101.18 323.99 101.03 323.99 100.88 323.99 100.72 323.99 100.57 323.99 100.42 323.99 100.19 323.99 92.98 323.99 92.75 323.99 92.6 323.99 92.44 323.99 92.29 323.99 92.14 323.99 91.98 323.99 91.83 323.99 91.68 323.99 91.52 323.99 91.37 323.99 91.22 323.99 91.14 323.99 90.99 323.99 90.91 323.99 90.76 323.99 90.68 323.99 90.6 323.99 90.53 323.99 90.45 323.99 90.37 323.92 90.37"/>
          <polyline class="cls-4" points="323.92 107.78 323.99 107.78 323.99 102.87"/>
          <polyline class="cls-4" points="323.92 141.52 323.99 141.52 323.99 141.45"/>
          <polyline class="cls-4" points="323.92 136.77 323.99 136.77 323.99 136.84"/>
          <polyline class="cls-4" points="323.92 142.83 323.99 142.83 323.99 141.52"/>
          <polyline class="cls-4" points="323.92 51.03 323.99 51.03 323.99 50.95 323.99 50.88"/>
          <polyline class="cls-4" points="323.92 44.28 323.99 44.28 323.99 44.97"/>
          <polyline class="cls-4" points="323.92 126.34 323.99 126.34 323.99 121.74 323.92 121.74"/>
          <polyline class="cls-4" points="323.92 115.76 323.99 115.76 323.99 111.23 323.92 111.23"/>
          <polyline class="cls-4" points="323.92 131.32 323.99 131.32 323.99 131.25 323.92 131.25"/>
          <polyline class="cls-4" points="323.92 130.63 323.99 130.63 323.99 130.71 323.99 130.79 323.99 130.86 323.99 130.94 323.99 131.02 323.99 131.09 323.99 131.17 323.99 131.25 323.92 131.25"/>
          <polyline class="cls-4" points="323.92 128.1 323.99 128.1 323.99 128.18 323.99 128.26 323.99 128.33 323.99 128.41 323.99 128.49 323.99 128.56 323.99 128.64 323.99 128.72 323.99 128.79 323.99 128.87 323.99 128.95 323.99 129.02 323.99 129.1 323.99 129.18 323.99 129.25 323.99 129.33 323.99 129.41 323.99 129.56 323.99 129.64 323.99 129.71 323.99 129.79 323.99 129.87 323.99 129.94 323.99 130.02 323.99 130.1 323.99 130.17 323.99 130.25 323.99 130.33 323.99 130.4 323.99 130.48 323.99 130.56 323.99 130.63"/>
          <polyline class="cls-4" points="323.92 132.86 323.99 132.86 323.99 132.78 323.99 132.7 323.99 132.63 323.99 132.55 323.99 132.47 323.99 132.4 323.99 132.32 323.99 132.24 323.99 132.09 323.92 132.09"/>
          <polyline class="cls-4" points="323.99 131.32 323.99 131.4 323.99 131.55 323.99 131.63 323.99 131.71 323.99 131.86 323.99 131.94 323.99 132.01 323.99 132.09"/>
          <polyline class="cls-4" points="323.92 110.77 323.99 110.77 323.99 111.23"/>
          <polyline class="cls-4" points="323.92 141.45 323.99 141.45 323.99 136.84 323.92 136.84"/>
          <polyline class="cls-4" points="323.92 199.19 323.99 199.19 323.99 199.12 323.99 199.04"/>
          <line class="cls-4" x1="323.92" y1="142.83" x2="323.99" y2="142.83"/>
          <polyline class="cls-4" points="323.92 121.66 323.99 121.66 323.99 121.74"/>
          <polyline class="cls-4" points="323.99 110.77 323.99 110.77 323.92 110.77"/>
          <polyline class="cls-4" points="323.92 116.6 323.99 116.6 323.99 115.91"/>
          <polyline class="cls-4" points="323.92 86.23 323.99 86.23 323.99 90.37"/>
          <polyline class="cls-4" points="323.92 134.01 323.99 134.01 323.99 133.55 323.92 133.55"/>
          <polyline class="cls-4" points="323.92 133.32 323.99 133.32 323.99 133.39 323.99 133.47 323.99 133.55"/>
          <polyline class="cls-4" points="323.92 132.93 323.99 132.93 323.99 133.01 323.99 133.09 323.99 133.16 323.99 133.24 323.99 133.32"/>
          <line class="cls-4" x1="323.99" y1="132.86" x2="323.99" y2="132.93"/>
          <polyline class="cls-4" points="323.92 134.08 323.99 134.08 323.99 134.01"/>
          <polyline class="cls-4" points="323.92 115.83 323.99 115.83 323.99 115.76"/>
          <polyline class="cls-4" points="323.92 127.57 323.99 127.57 323.99 126.42"/>
          <polyline class="cls-4" points="323.92 51.18 323.99 51.18 323.99 51.11 323.99 51.03"/>
          <polyline class="cls-4" points="323.92 52.64 323.99 52.64 323.99 52.56 323.99 52.49 323.99 52.41 323.99 52.33 323.99 52.26 323.99 52.18 323.99 52.03 323.99 51.95 323.99 51.8 323.99 51.72 323.99 51.57 323.99 51.41 323.99 51.34 323.99 51.26 323.99 51.18"/>
          <polyline class="cls-4" points="323.92 50.88 323.99 50.88 323.99 45.97 323.92 45.97"/>
          <polyline class="cls-4" points="323.92 44.97 323.99 44.97 323.99 45.97"/>
        </g>
        <g class="cls-5">
          <line class="cls-4" x1="54.44" y1="206.89" x2="54.44" y2="206.89"/>
          <line class="cls-4" x1="240.56" y1="206.89" x2="240.56" y2="206.89"/>
          <polyline class="cls-4" points="258.05 206.89 257.89 206.89 257.51 206.89 256.82 206.89 255.82 206.89 254.6 206.89 253.21 206.89 251.53 206.89 249.61 206.89 247.62 206.89 245.39 206.89 243.09 206.89 240.71 206.89 238.18 206.89 235.73 206.89 59.58 206.89 57.05 206.89 54.59 206.89 52.14 206.89 49.76 206.89 47.54 206.89 45.47 206.89 43.63 206.89 41.94 206.89 40.41 206.89 39.18 206.89 38.26 206.89 37.49 206.89 37.11 206.89 36.95 206.89"/>
          <line class="cls-4" x1="246.54" y1="206.89" x2="246.54" y2="206.89"/>
          <line class="cls-4" x1="252.14" y1="206.89" x2="252.14" y2="206.89"/>
          <line class="cls-4" x1="240.64" y1="206.89" x2="240.64" y2="206.89"/>
          <line class="cls-4" x1="235.73" y1="209.12" x2="59.58" y2="209.12"/>
          <polyline class="cls-4" points="40.56 212.72 40.71 212.72 41.17 212.72 41.79 212.72 42.78 212.72 43.93 212.72 45.39 212.72 47 212.72 48.84 212.72 50.76 212.72 52.83 212.72 55.05 212.72 57.35 212.72 59.58 212.72 235.65 212.72"/>
          <polyline class="cls-4" points="59.58 209.12 57.05 209.12 54.59 209.12 52.14 209.12 49.76 209.12 47.54 209.12 45.47 209.12 43.63 209.12 41.94 209.12 40.41 209.12 39.18 209.12 38.26 209.12 37.49 209.12 37.11 209.12 36.95 209.12"/>
          <polyline class="cls-4" points="235.65 212.72 237.95 212.72 240.18 212.72 242.32 212.72 244.4 212.72 246.31 212.72 248.15 212.72 249.69 212.72 251.14 212.72 252.29 212.72 253.21 212.72 253.9 212.72 254.29 212.72 254.44 212.72"/>
          <polyline class="cls-4" points="258.05 209.12 257.89 209.12 257.51 209.12 256.82 209.12 255.82 209.12 254.6 209.12 253.21 209.12 251.53 209.12 249.61 209.12 247.62 209.12 245.39 209.12 243.09 209.12 240.71 209.12 238.18 209.12 235.73 209.12"/>
          <line class="cls-4" x1="42.86" y1="206.89" x2="42.86" y2="206.89"/>
          <line class="cls-4" x1="48.46" y1="206.89" x2="48.46" y2="206.89"/>
          <line class="cls-4" x1="54.36" y1="206.89" x2="54.36" y2="206.89"/>
          <line class="cls-4" x1="40.56" y1="212.72" x2="36.95" y2="209.12"/>
          <line class="cls-4" x1="254.44" y1="212.72" x2="258.05" y2="209.12"/>
          <line class="cls-4" x1="36.95" y1="206.89" x2="36.95" y2="209.12"/>
          <line class="cls-4" x1="258.05" y1="206.89" x2="258.05" y2="209.12"/>
          <polyline class="cls-4" points="235.73 20.54 238.18 20.54 240.71 20.54 243.09 20.54 245.39 20.54 247.62 20.54 249.61 20.54 251.53 20.54 253.21 20.54 254.6 20.54 255.82 20.54 256.82 20.54 257.51 20.54 257.89 20.54 258.05 20.54"/>
          <polyline class="cls-4" points="254.44 16.94 254.29 16.94 253.9 16.94 253.21 16.94 252.29 16.94 251.14 16.94 249.69 16.94 248.15 16.94 246.31 16.94 244.4 16.94 242.32 16.94 240.18 16.94 237.95 16.94 235.65 16.94"/>
          <polyline class="cls-4" points="59.58 16.94 57.35 16.94 55.05 16.94 52.83 16.94 50.76 16.94 48.84 16.94 47 16.94 45.39 16.94 43.93 16.94 42.78 16.94 41.79 16.94 41.17 16.94 40.71 16.94 40.56 16.94"/>
          <polyline class="cls-4" points="36.95 20.54 37.11 20.54 37.49 20.54 38.26 20.54 39.18 20.54 40.41 20.54 41.94 20.54 43.63 20.54 45.47 20.54 47.54 20.54 49.76 20.54 52.14 20.54 54.59 20.54 57.05 20.54 59.58 20.54"/>
          <line class="cls-4" x1="235.65" y1="16.94" x2="59.58" y2="16.94"/>
          <line class="cls-4" x1="59.58" y1="20.54" x2="235.73" y2="20.54"/>
          <polyline class="cls-4" points="36.95 22.76 37.11 22.76 37.49 22.76 38.26 22.76 39.18 22.76 40.41 22.76 41.94 22.76 43.63 22.76 45.47 22.76 47.54 22.76 49.76 22.76 52.14 22.76 54.59 22.76 57.05 22.76 59.58 22.76 235.73 22.76 238.18 22.76 240.71 22.76 243.09 22.76 245.39 22.76 247.62 22.76 249.61 22.76 251.53 22.76 253.21 22.76 254.6 22.76 255.82 22.76 256.82 22.76 257.51 22.76 257.89 22.76 258.05 22.76"/>
          <line class="cls-4" x1="254.44" y1="16.94" x2="258.05" y2="20.54"/>
          <line class="cls-4" x1="40.56" y1="16.94" x2="36.95" y2="20.54"/>
          <line class="cls-4" x1="258.05" y1="22.76" x2="258.05" y2="20.54"/>
          <line class="cls-4" x1="36.95" y1="22.76" x2="36.95" y2="20.54"/>
          <line class="cls-4" x1="59.58" y1="22.76" x2="235.73" y2="22.76"/>
          <line class="cls-4" x1="235.73" y1="206.89" x2="59.58" y2="206.89"/>
          <polyline class="cls-4" points="258.05 22.76 257.89 22.76 257.51 22.76 256.82 22.76 255.82 22.76 254.6 22.76 253.21 22.76 251.53 22.76 249.61 22.76 247.62 22.76 245.39 22.76 243.09 22.76 240.71 22.76 238.18 22.76 235.73 22.76"/>
          <polyline class="cls-4" points="258.05 206.89 257.89 206.89 257.51 206.89 256.82 206.89 255.82 206.89 254.6 206.89 253.21 206.89 251.53 206.89 249.61 206.89 247.62 206.89 245.39 206.89 243.09 206.89 240.71 206.89 238.18 206.89 235.73 206.89"/>
          <polyline class="cls-4" points="59.58 22.76 57.05 22.76 54.59 22.76 52.14 22.76 49.76 22.76 47.54 22.76 45.47 22.76 43.63 22.76 41.94 22.76 40.41 22.76 39.18 22.76 38.26 22.76 37.49 22.76 37.11 22.76 36.95 22.76"/>
          <polyline class="cls-4" points="59.58 206.89 57.05 206.89 54.59 206.89 52.14 206.89 49.76 206.89 47.54 206.89 45.47 206.89 43.63 206.89 41.94 206.89 40.41 206.89 39.18 206.89 38.26 206.89 37.49 206.89 37.11 206.89 36.95 206.89"/>
          <line class="cls-4" x1="258.05" y1="22.76" x2="258.05" y2="206.89"/>
          <line class="cls-4" x1="36.95" y1="22.76" x2="36.95" y2="206.89"/>
          <line class="cls-4" x1="84.12" y1="16.94" x2="84.88" y2="16.17"/>
          <polyline class="cls-4" points="79.44 16.94 79.44 16.17 81.2 16.17 81.97 16.94"/>
          <polyline class="cls-4" points="84.88 16.17 86.65 16.17 86.65 16.94"/>
        </g>
        <g>
          <g>
            <path id="_文本_1" data-name="文本 1" class="cls-3" d="M150.78,39.16v-5.89h1.19v2.32s2.33,0,2.33,0v-2.32h1.19v5.89h-1.19v-2.57s-2.33,0-2.33,0v2.57h-1.19ZM156.45,36.97c0-.56.28-1.09.28-1.09.28-.53.79-.8.79-.8.51-.28,1.13-.28,1.13-.28.97,0,1.59.63,1.59.63.62.63.62,1.59.62,1.59,0,.97-.62,1.6-.62,1.6-.62.64-1.57.64-1.57.64-.59,0-1.12-.27-1.12-.27-.53-.27-.81-.78-.81-.78-.28-.51-.28-1.25-.28-1.25ZM157.61,37.03c0,.63.3.97.3.97.3.34.74.34.74.34.44,0,.74-.34.74-.34.3-.34.3-.98.3-.98,0-.63-.3-.96-.3-.96-.3-.34-.74-.34-.74-.34-.44,0-.74.34-.74.34-.3.34-.3.97-.3.97ZM161.34,37.94l1.13-.17c.07.33.29.5.29.5.22.17.62.17.62.17.44,0,.66-.16.66-.16.15-.11.15-.3.15-.3,0-.13-.08-.21-.08-.21-.08-.08-.38-.15-.38-.15-1.37-.3-1.73-.55-1.73-.55-.51-.35-.51-.96-.51-.96,0-.55.44-.93.44-.93.44-.38,1.36-.38,1.36-.38.88,0,1.3.29,1.3.29.43.29.59.84.59.84l-1.06.2c-.07-.25-.26-.38-.26-.38-.19-.13-.54-.13-.54-.13-.45,0-.64.12-.64.12-.13.09-.13.23-.13.23,0,.12.11.2.11.2.15.11,1.05.32,1.05.32.9.2,1.26.5,1.26.5.35.3.35.84.35.84,0,.59-.49,1.01-.49,1.01-.49.42-1.45.42-1.45.42-.87,0-1.38-.35-1.38-.35-.51-.35-.66-.96-.66-.96ZM168.27,34.9v.9h-.77s0,1.72,0,1.72c0,.52.02.61.02.61.02.09.1.14.1.14.08.06.19.06.19.06.16,0,.45-.11.45-.11l.1.88c-.39.17-.89.17-.89.17-.31,0-.55-.1-.55-.1-.25-.1-.36-.27-.36-.27-.11-.16-.16-.44-.16-.44-.04-.2-.04-.8-.04-.8v-1.86s-.52,0-.52,0v-.9h.52s0-.85,0-.85l1.13-.66v1.51s.77,0,.77,0Z"/>
            <path id="_减去顶层" data-name="减去顶层" class="cls-3" d="M143.19,40.76c-2.27,0-4.11-1.84-4.11-4.11s1.84-4.11,4.11-4.11,4.11,1.84,4.11,4.11-1.84,4.11-4.11,4.11ZM145.95,36.36l-1.65-1.65c-.16-.16-.42-.16-.58,0-.16.16-.16.42,0,.58l.94.94h-3.94c-.23,0-.41.18-.41.41s.18.41.41.41h3.94s-.94.94-.94.94c-.16.16-.16.42,0,.58.16.16.42.16.58,0l1.65-1.65c.16-.16.16-.42,0-.58Z"/>
          </g>
          <g>
            <path id="_文本_1-2" data-name="文本 1" class="cls-3" d="M213.98,196.96v-4.89s-1.75,0-1.75,0v-1h4.68v1h-1.74s0,4.89,0,4.89h-1.19ZM218.51,193.99l-1.02-.18c.17-.62.59-.92.59-.92.42-.3,1.25-.3,1.25-.3.75,0,1.12.18,1.12.18.37.18.52.45.52.45.15.28.15,1.01.15,1.01v1.32c-.01.56.04.83.04.83.05.27.2.57.2.57h-1.12c-.04-.11-.11-.33-.11-.33-.03-.1-.04-.13-.04-.13-.29.28-.62.42-.62.42-.33.14-.7.14-.7.14-.66,0-1.04-.36-1.04-.36-.38-.36-.38-.9-.38-.9,0-.36.17-.64.17-.64.17-.28.48-.43.48-.43.31-.15.9-.26.9-.26.79-.15,1.1-.28,1.1-.28v-.11c0-.33-.16-.46-.16-.46-.16-.14-.61-.14-.61-.14-.3,0-.47.12-.47.12-.17.12-.27.42-.27.42ZM220.02,194.91c-.22.07-.69.17-.69.17-.47.1-.61.2-.61.2-.22.16-.22.4-.22.4,0,.24.18.41.18.41.18.17.45.17.45.17.31,0,.58-.2.58-.2.2-.15.27-.37.27-.37.04-.14.04-.55.04-.55v-.22ZM223.32,196.96h-1.13v-4.27h1.05v.61c.27-.43.48-.57.48-.57.21-.14.49-.14.49-.14.39,0,.74.21.74.21l-.35.98c-.29-.18-.53-.18-.53-.18-.24,0-.4.13-.4.13-.16.13-.26.47-.26.47-.09.34-.09,1.43-.09,1.43v1.32ZM225.34,197.24l1.29.16c.03.22.15.31.15.31.16.12.51.12.51.12.44,0,.66-.13.66-.13.15-.09.22-.29.22-.29.05-.14.05-.52.05-.52v-.62c-.51.69-1.28.69-1.28.69-.86,0-1.36-.73-1.36-.73-.39-.57-.39-1.43-.39-1.43,0-1.07.52-1.64.52-1.64.52-.57,1.28-.57,1.28-.57.79,0,1.31.69,1.31.69v-.6h1.06v3.83c0,.76-.12,1.13-.12,1.13-.12.37-.35.59-.35.59-.22.21-.6.33-.6.33-.38.12-.95.12-.95.12-1.08,0-1.54-.37-1.54-.37-.45-.37-.45-.94-.45-.94,0-.06,0-.14,0-.14ZM226.35,194.74c0,.68.26.99.26.99.26.32.65.32.65.32.41,0,.7-.32.7-.32.29-.32.29-.96.29-.96,0-.66-.27-.98-.27-.98-.27-.32-.69-.32-.69-.32-.41,0-.67.32-.67.32-.26.32-.26.96-.26.96ZM232.94,195.6l1.12.19c-.22.62-.68.94-.68.94-.47.32-1.17.32-1.17.32-1.11,0-1.65-.73-1.65-.73-.42-.58-.42-1.47-.42-1.47,0-1.06.55-1.66.55-1.66.55-.6,1.4-.6,1.4-.6.95,0,1.5.63,1.5.63.55.63.53,1.93.53,1.93h-2.83c.01.5.27.78.27.78.26.28.65.28.65.28.27,0,.45-.14.45-.14.18-.14.27-.47.27-.47ZM233,194.46c-.01-.49-.25-.74-.25-.74-.24-.26-.59-.26-.59-.26-.37,0-.61.27-.61.27-.24.27-.24.73-.24.73h1.69ZM237,192.69v.9h-.77s0,1.72,0,1.72c0,.52.02.61.02.61.02.09.1.14.1.14.08.06.19.06.19.06.16,0,.45-.11.45-.11l.1.88c-.39.17-.89.17-.89.17-.31,0-.55-.1-.55-.1-.24-.1-.36-.27-.36-.27-.11-.16-.16-.44-.16-.44-.04-.2-.04-.8-.04-.8v-1.86s-.52,0-.52,0v-.9h.52s0-.85,0-.85l1.13-.66v1.51s.77,0,.77,0Z"/>
            <path id="_减去顶层-2" data-name="减去顶层" class="cls-3" d="M205.06,198.56c-2.27,0-4.11-1.84-4.11-4.11s1.84-4.11,4.11-4.11,4.11,1.84,4.11,4.11-1.84,4.11-4.11,4.11ZM207.82,194.16l-1.65-1.65c-.16-.16-.42-.16-.58,0-.16.16-.16.42,0,.58l.94.94h-3.94c-.23,0-.41.18-.41.41s.18.41.41.41h3.94s-.94.94-.94.94c-.16.16-.16.42,0,.58.16.16.42.16.58,0l1.65-1.65c.16-.16.16-.42,0-.58Z"/>
          </g>
          <g>
            <path id="_文本_1-3" data-name="文本 1" class="cls-3" d="M97.88,195.97v1.05h-3.96c.06-.59.39-1.13.39-1.13.32-.53,1.27-1.41,1.27-1.41.76-.71.94-.96.94-.96.23-.35.23-.69.23-.69,0-.38-.2-.58-.2-.58-.2-.2-.56-.2-.56-.2-.35,0-.56.21-.56.21-.21.21-.24.71-.24.71l-1.12-.11c.1-.93.63-1.34.63-1.34.53-.41,1.33-.41,1.33-.41.87,0,1.37.47,1.37.47.5.47.5,1.17.5,1.17,0,.4-.14.76-.14.76-.14.36-.45.75-.45.75-.2.26-.74.75-.74.75-.53.49-.68.65-.68.65-.14.16-.23.31-.23.31h2.24ZM98.89,197.02v-1.13h1.13v1.13h-1.13ZM102.84,191.11c.86,0,1.34.61,1.34.61.57.72.57,2.4.57,2.4,0,1.67-.58,2.4-.58,2.4-.48.6-1.33.6-1.33.6-.86,0-1.39-.66-1.39-.66-.53-.66-.53-2.36-.53-2.36,0-1.66.58-2.39.58-2.39.48-.6,1.33-.6,1.33-.6ZM102.84,192.05c-.2,0-.37.13-.37.13-.16.13-.25.47-.25.47-.12.44-.12,1.47-.12,1.47,0,1.04.1,1.42.1,1.42.1.39.26.52.26.52.16.13.36.13.36.13.2,0,.37-.13.37-.13.16-.13.25-.47.25-.47.12-.43.12-1.47.12-1.47,0-1.04-.1-1.42-.1-1.42-.1-.39-.26-.52-.26-.52-.16-.13-.36-.13-.36-.13Z"/>
            <path id="_减去顶层-3" data-name="减去顶层" class="cls-3" d="M67.4,194.51c0-2.27,1.84-4.11,4.11-4.11s4.11,1.84,4.11,4.11c0,2.27-1.84,4.11-4.11,4.11-2.27,0-4.11-1.84-4.11-4.11ZM73.49,193.33c.12.12.3.12.42,0,.12-.12.12-.3,0-.42l-1.19-1.19c-.12-.12-.3-.12-.42,0l-1.19,1.19c-.12.12-.12.3,0,.42.12.12.3.12.42,0l.68-.68v2.86c0,.16.13.3.3.3s.3-.13.3-.3v-2.86s.68.68.68.68ZM70.34,196.91l1.19-1.19c.12-.12.12-.3,0-.42-.12-.12-.3-.12-.42,0l-.68.68v-2.86c0-.16-.13-.3-.3-.3s-.3.13-.3.3v2.86s-.68-.68-.68-.68c-.12-.12-.3-.12-.42,0-.12.12-.12.3,0,.42l1.19,1.19c.12.12.3.12.42,0Z"/>
            <path id="_路径_1" data-name="路径 1" class="cls-3" d="M91.21,194.35l-2.17-1.31s-.02-.01-.03-.02c-.01,0-.02,0-.03-.01-.01,0-.02,0-.04,0-.01,0-.02,0-.04,0-.01,0-.02,0-.04,0-.01,0-.02,0-.04,0-.01,0-.02,0-.03.01-.01,0-.02,0-.03.02-.01,0-.02.01-.03.02,0,0-.02.02-.03.02,0,0-.02.02-.02.03,0,0-.01.02-.02.03,0,.01-.01.02-.02.03,0,.01,0,.02-.01.03,0,.01,0,.02,0,.04,0,.01,0,.02,0,.04v.92h-6.45s1.39-2.21,1.39-2.21c.03-.04.06-.08.09-.12.04-.04.08-.07.12-.09.04-.02.09-.04.14-.06.05-.01.1-.02.15-.02h.65s.04.09.06.13c.02.04.05.08.08.12.03.04.06.08.1.11.03.03.07.06.11.09.04.03.08.05.12.08.04.02.09.04.13.06.05.02.09.03.14.03.05,0,.1.01.14.01.03,0,.06,0,.09-.01.03,0,.06-.01.09-.02.03,0,.06-.02.09-.03.03-.01.06-.02.09-.04.03-.01.05-.03.08-.04.03-.02.05-.03.08-.05.02-.02.05-.04.07-.06.02-.02.05-.04.07-.06.02-.02.04-.05.06-.07.02-.02.04-.05.05-.08.02-.03.03-.05.05-.08.01-.03.03-.06.04-.08.01-.03.02-.06.03-.09s.02-.06.02-.09c0-.03.01-.06.01-.09s0-.06,0-.09,0-.06,0-.09c0-.03,0-.06-.01-.09,0-.03-.01-.06-.02-.09,0-.03-.02-.06-.03-.09-.01-.03-.02-.06-.04-.08-.01-.03-.03-.05-.05-.08-.02-.03-.03-.05-.05-.08-.02-.02-.04-.05-.06-.07-.02-.02-.04-.04-.07-.06-.02-.02-.05-.04-.07-.06-.02-.02-.05-.03-.08-.05-.03-.02-.05-.03-.08-.04-.03-.01-.06-.02-.09-.04-.03-.01-.06-.02-.09-.03-.03,0-.06-.01-.09-.02-.03,0-.06,0-.09-.01-.04,0-.09,0-.13,0-.04,0-.09.02-.13.03-.04.01-.08.03-.12.05-.04.02-.08.04-.12.06-.04.02-.07.05-.11.08-.03.03-.06.06-.09.09-.03.03-.06.07-.08.1-.02.04-.05.07-.07.11h-.69c-.06,0-.12,0-.18,0-.06,0-.12.02-.17.03-.06.01-.11.03-.17.05-.05.02-.11.05-.16.08-.05.03-.1.06-.15.1-.05.03-.09.07-.14.11-.04.04-.08.08-.12.13-.04.05-.07.09-.1.14l-1.64,2.63h-.56s-.02-.05-.03-.08c-.01-.02-.02-.05-.03-.07-.01-.02-.02-.05-.04-.07-.01-.02-.03-.05-.04-.07-.01-.02-.03-.04-.05-.07-.02-.02-.03-.04-.05-.06-.02-.02-.03-.04-.05-.06-.02-.02-.04-.04-.06-.06-.02-.02-.04-.04-.06-.05-.02-.02-.04-.03-.06-.05-.02-.02-.04-.03-.07-.05-.02-.01-.05-.03-.07-.04-.02-.01-.05-.03-.07-.04-.02-.01-.05-.02-.07-.03-.02-.01-.05-.02-.08-.03-.03,0-.05-.02-.08-.03-.03,0-.05-.01-.08-.02-.03,0-.05-.01-.08-.02-.03,0-.05,0-.08-.01-.03,0-.05,0-.08,0-.03,0-.05,0-.08,0-.03,0-.05,0-.08,0-.03,0-.05,0-.08,0-.03,0-.05,0-.08.01-.03,0-.05.01-.08.02-.03,0-.05.01-.08.02-.03,0-.05.02-.08.03-.03,0-.05.02-.07.03-.02.01-.05.02-.07.04-.02.01-.05.03-.07.04-.02.01-.05.03-.07.04-.02.02-.04.03-.07.05-.02.02-.04.03-.06.05-.02.02-.04.04-.06.06-.02.02-.04.04-.06.06-.02.02-.04.04-.05.06-.02.02-.03.04-.05.06-.02.02-.03.04-.04.07-.01.02-.03.05-.04.07-.01.02-.02.05-.04.07-.01.02-.02.05-.03.07,0,.03-.02.05-.03.08,0,.03-.02.05-.02.08,0,.03-.01.05-.02.08,0,.03,0,.05-.01.08,0,.03,0,.05,0,.08,0,.03,0,.05,0,.08,0,.03,0,.05,0,.08,0,.03,0,.05,0,.08,0,.03,0,.05.01.08,0,.03,0,.05.02.08,0,.03.01.05.02.08,0,.03.02.05.02.08,0,.03.02.05.03.08.01.02.02.05.03.07.01.02.02.05.04.07.01.02.03.05.04.07.01.02.03.04.05.07.02.02.03.04.05.06.02.02.04.04.05.06.02.02.04.04.06.06.02.02.04.04.06.05.02.02.04.03.06.05.02.02.04.03.07.05.02.01.05.03.07.04.02.01.05.03.07.04.02.01.05.02.07.03.02.01.05.02.08.03.03,0,.05.02.08.03.03,0,.05.01.08.02.03,0,.05.01.08.02.03,0,.05,0,.08.01s.05,0,.08,0c.03,0,.05,0,.08,0,.03,0,.05,0,.08,0,.03,0,.05,0,.08,0,.03,0,.05,0,.08-.01.03,0,.05-.01.08-.02.03,0,.05-.01.08-.02.03,0,.05-.02.08-.03.03,0,.05-.02.07-.03.02-.01.05-.02.07-.04.02-.01.05-.03.07-.04.02-.01.05-.03.07-.04.02-.02.04-.03.07-.05.02-.02.04-.03.06-.05.02-.02.04-.04.06-.06.02-.02.04-.04.06-.06.02-.02.04-.04.05-.06.02-.02.03-.04.05-.06.02-.02.03-.04.04-.07.01-.02.03-.05.04-.07.01-.02.02-.05.04-.07.01-.02.02-.05.03-.07,0-.03.02-.05.03-.08,0-.03.02-.05.02-.08h2.22s1.64,2.61,1.64,2.61c.03.05.06.1.1.14.04.05.08.09.12.13.04.04.09.08.14.11.05.03.1.07.15.1.05.03.1.05.16.08.05.02.11.04.17.05.06.01.12.03.17.03.06,0,.12.01.18,0h1.02v.36s1.73,0,1.73,0v-1.73s-1.73,0-1.73,0v.58h-1.02c-.05,0-.1,0-.15-.02-.05-.01-.1-.03-.14-.06s-.08-.05-.12-.09c-.04-.04-.07-.07-.09-.12l-1.38-2.19h4.73v.9s0,.05,0,.07c0,.02.02.05.03.07.01.02.03.04.05.06.02.02.04.03.06.04.04.02.09.03.13.04.05,0,.1-.01.14-.04l2.18-1.31s.02-.01.03-.02c0,0,.02-.02.03-.02,0,0,.02-.02.02-.03,0,0,.01-.02.02-.03,0-.01.01-.02.02-.03,0-.01,0-.02.01-.03,0-.01,0-.02,0-.03,0-.01,0-.02,0-.04s0-.02,0-.04c0-.01,0-.02,0-.03,0-.01,0-.02-.01-.03,0-.01,0-.02-.02-.03,0-.01-.01-.02-.02-.03,0,0-.01-.02-.02-.03,0,0-.02-.02-.03-.02,0,0-.02-.01-.03-.02h.01Z"/>
          </g>
          <g>
            <path id="_文本_1-4" data-name="文本 1" class="cls-3" d="M68.41,49.85v-5.89h1.19v2.32s2.33,0,2.33,0v-2.32h1.19v5.89h-1.19v-2.57s-2.33,0-2.33,0v2.57h-1.19ZM74.07,47.66c0-.56.28-1.09.28-1.09.28-.53.79-.8.79-.8.51-.28,1.13-.28,1.13-.28.97,0,1.59.63,1.59.63.62.63.62,1.59.62,1.59,0,.97-.62,1.6-.62,1.6-.62.64-1.57.64-1.57.64-.59,0-1.12-.27-1.12-.27-.53-.27-.81-.78-.81-.78-.28-.51-.28-1.25-.28-1.25ZM75.23,47.72c0,.63.3.97.3.97.3.34.74.34.74.34.44,0,.74-.34.74-.34.3-.34.3-.98.3-.98,0-.63-.3-.96-.3-.96-.3-.34-.74-.34-.74-.34-.44,0-.74.34-.74.34-.3.34-.3.97-.3.97ZM78.96,48.64l1.13-.17c.07.33.29.5.29.5.22.17.62.17.62.17.44,0,.66-.16.66-.16.15-.11.15-.3.15-.3,0-.13-.08-.21-.08-.21-.08-.08-.38-.15-.38-.15-1.37-.3-1.73-.55-1.73-.55-.51-.35-.51-.96-.51-.96,0-.55.44-.93.44-.93.44-.38,1.36-.38,1.36-.38.88,0,1.3.29,1.3.29.43.29.59.84.59.84l-1.06.2c-.07-.25-.26-.38-.26-.38-.19-.13-.54-.13-.54-.13-.45,0-.64.12-.64.12-.13.09-.13.23-.13.23,0,.12.11.2.11.2.15.11,1.05.32,1.05.32.9.2,1.26.5,1.26.5.35.3.35.84.35.84,0,.59-.49,1.01-.49,1.01-.49.42-1.45.42-1.45.42-.87,0-1.38-.35-1.38-.35-.51-.35-.66-.96-.66-.96ZM85.89,45.59v.9h-.77s0,1.72,0,1.72c0,.52.02.61.02.61.02.09.1.14.1.14.08.06.19.06.19.06.16,0,.45-.11.45-.11l.1.88c-.39.17-.89.17-.89.17-.31,0-.55-.1-.55-.1-.24-.1-.36-.27-.36-.27-.11-.16-.16-.44-.16-.44-.04-.2-.04-.8-.04-.8v-1.86s-.52,0-.52,0v-.9h.52s0-.85,0-.85l1.13-.66v1.51s.77,0,.77,0ZM88.82,51.58v-7.72h.9v7.72h-.9ZM94.38,49.85v-4.89s-1.75,0-1.75,0v-1h4.68v1h-1.74s0,4.89,0,4.89h-1.19ZM98.91,46.89l-1.02-.18c.17-.62.59-.92.59-.92.42-.3,1.25-.3,1.25-.3.75,0,1.12.18,1.12.18.37.18.52.45.52.45.15.28.15,1.01.15,1.01v1.32c-.01.56.04.83.04.83.05.27.2.57.2.57h-1.12c-.04-.11-.11-.33-.11-.33-.03-.1-.04-.13-.04-.13-.29.28-.62.42-.62.42-.33.14-.7.14-.7.14-.66,0-1.04-.36-1.04-.36-.38-.36-.38-.9-.38-.9,0-.36.17-.64.17-.64.17-.28.48-.43.48-.43.31-.15.9-.26.9-.26.79-.15,1.1-.28,1.1-.28v-.11c0-.33-.16-.46-.16-.46-.16-.14-.61-.14-.61-.14-.3,0-.47.12-.47.12-.17.12-.27.42-.27.42ZM100.42,47.8c-.22.07-.69.17-.69.17-.47.1-.61.2-.61.2-.22.16-.22.4-.22.4,0,.24.18.41.18.41.18.17.45.17.45.17.31,0,.58-.2.58-.2.2-.15.27-.37.27-.37.04-.14.04-.55.04-.55v-.22ZM103.72,49.85h-1.13v-4.27h1.05v.61c.27-.43.48-.57.48-.57.21-.14.49-.14.49-.14.39,0,.74.21.74.21l-.35.98c-.29-.18-.53-.18-.53-.18-.24,0-.4.13-.4.13-.16.13-.26.47-.26.47-.09.34-.09,1.43-.09,1.43v1.32ZM105.74,50.13l1.29.16c.03.22.15.31.15.31.16.12.51.12.51.12.44,0,.66-.13.66-.13.15-.09.22-.29.22-.29.05-.14.05-.52.05-.52v-.62c-.51.69-1.28.69-1.28.69-.86,0-1.36-.73-1.36-.73-.39-.57-.39-1.43-.39-1.43,0-1.07.52-1.64.52-1.64.52-.57,1.28-.57,1.28-.57.79,0,1.31.69,1.31.69v-.6h1.06v3.83c0,.76-.12,1.13-.12,1.13-.12.37-.35.59-.35.59-.22.21-.6.33-.6.33-.38.12-.95.12-.95.12-1.08,0-1.54-.37-1.54-.37-.45-.37-.45-.94-.45-.94,0-.06,0-.14,0-.14ZM106.75,47.63c0,.68.26.99.26.99.26.32.65.32.65.32.41,0,.7-.32.7-.32.29-.32.29-.96.29-.96,0-.66-.27-.98-.27-.98-.27-.32-.69-.32-.69-.32-.41,0-.67.32-.67.32-.26.32-.26.96-.26.96ZM113.34,48.5l1.12.19c-.22.62-.68.94-.68.94-.47.32-1.17.32-1.17.32-1.11,0-1.65-.73-1.65-.73-.42-.58-.42-1.47-.42-1.47,0-1.06.55-1.66.55-1.66.55-.6,1.4-.6,1.4-.6.95,0,1.5.63,1.5.63.55.63.53,1.93.53,1.93h-2.83c.01.5.27.78.27.78.26.28.65.28.65.28.27,0,.45-.14.45-.14.18-.14.27-.47.27-.47ZM113.4,47.36c-.01-.49-.25-.74-.25-.74-.24-.25-.59-.25-.59-.25-.37,0-.61.27-.61.27-.24.27-.24.73-.24.73h1.69ZM117.4,45.59v.9h-.77s0,1.72,0,1.72c0,.52.02.61.02.61.02.09.1.14.1.14.08.06.19.06.19.06.16,0,.45-.11.45-.11l.1.88c-.39.17-.89.17-.89.17-.31,0-.55-.1-.55-.1-.24-.1-.36-.27-.36-.27-.11-.16-.16-.44-.16-.44-.04-.2-.04-.8-.04-.8v-1.86s-.52,0-.52,0v-.9h.52s0-.85,0-.85l1.13-.66v1.51s.77,0,.77,0Z"/>
            <g>
              <path id="_减去顶层-4" data-name="减去顶层" class="cls-3" d="M72.33,36.65c0-2.27,1.84-4.11,4.11-4.11,2.27,0,4.11,1.84,4.11,4.11s-1.84,4.11-4.11,4.11c-2.27,0-4.11-1.84-4.11-4.11ZM78.41,35.47c.12.12.3.12.42,0,.12-.12.12-.3,0-.42l-1.19-1.19c-.12-.12-.3-.12-.42,0l-1.19,1.19c-.12.12-.12.3,0,.42.12.12.3.12.42,0l.68-.68v2.86c0,.16.13.3.3.3s.3-.13.3-.3v-2.86s.68.68.68.68ZM75.26,39.05l1.19-1.19c.12-.12.12-.3,0-.42-.12-.12-.3-.12-.42,0l-.68.68v-2.86c0-.16-.13-.3-.3-.3s-.3.13-.3.3v2.86s-.68-.68-.68-.68c-.12-.12-.3-.12-.42,0-.12.12-.12.3,0,.42l1.19,1.19c.12.12.3.12.42,0Z"/>
              <path id="_路径_1-2" data-name="路径 1" class="cls-3" d="M97.63,36.49l-2.17-1.31s-.02-.01-.03-.02c-.01,0-.02,0-.03-.01-.01,0-.02,0-.04,0-.01,0-.02,0-.04,0-.01,0-.02,0-.04,0-.01,0-.02,0-.04,0-.01,0-.02,0-.03.01-.01,0-.02,0-.03.02-.01,0-.02.01-.03.02,0,0-.02.02-.03.02,0,0-.02.02-.02.03,0,0-.01.02-.02.03,0,.01-.01.02-.02.03,0,.01,0,.02-.01.03,0,.01,0,.02,0,.04,0,.01,0,.02,0,.04v.92h-6.45s1.39-2.21,1.39-2.21c.03-.04.06-.08.09-.12.04-.04.08-.07.12-.09.04-.02.09-.04.14-.06.05-.01.1-.02.15-.02h.65s.04.09.06.13c.02.04.05.08.08.12.03.04.06.08.1.11.03.03.07.06.11.09.04.03.08.05.12.08.04.02.09.04.13.06.05.02.09.03.14.03.05,0,.1.01.14.01.03,0,.06,0,.09-.01.03,0,.06-.01.09-.02.03,0,.06-.02.09-.03.03-.01.06-.02.09-.04.03-.01.05-.03.08-.04.03-.02.05-.03.08-.05.02-.02.05-.04.07-.06.02-.02.05-.04.07-.06.02-.02.04-.05.06-.07.02-.02.04-.05.05-.08.02-.03.03-.05.05-.08.01-.03.03-.06.04-.08.01-.03.02-.06.03-.09,0-.03.02-.06.02-.09,0-.03.01-.06.01-.09s0-.06,0-.09,0-.06,0-.09c0-.03,0-.06-.01-.09,0-.03-.01-.06-.02-.09,0-.03-.02-.06-.03-.09-.01-.03-.02-.06-.04-.08-.01-.03-.03-.05-.05-.08-.02-.03-.03-.05-.05-.08-.02-.02-.04-.05-.06-.07-.02-.02-.04-.04-.07-.06-.02-.02-.05-.04-.07-.06-.02-.02-.05-.03-.08-.05-.03-.02-.05-.03-.08-.04-.03-.01-.06-.02-.09-.04-.03-.01-.06-.02-.09-.03-.03,0-.06-.01-.09-.02-.03,0-.06,0-.09-.01-.04,0-.09,0-.13,0-.04,0-.09.02-.13.03-.04.01-.08.03-.12.05-.04.02-.08.04-.12.06-.04.02-.07.05-.11.08-.03.03-.06.06-.09.09-.03.03-.06.07-.08.1-.02.04-.05.07-.07.11h-.69c-.06,0-.12,0-.18,0-.06,0-.12.02-.17.03-.06.01-.11.03-.17.05-.05.02-.11.05-.16.08-.05.03-.1.06-.15.1-.05.03-.09.07-.14.11-.04.04-.08.08-.12.13-.04.05-.07.09-.1.14l-1.64,2.63h-.56s-.02-.05-.03-.08c-.01-.02-.02-.05-.03-.07-.01-.02-.02-.05-.04-.07-.01-.02-.03-.05-.04-.07s-.03-.04-.05-.07c-.02-.02-.03-.04-.05-.06-.02-.02-.03-.04-.05-.06-.02-.02-.04-.04-.06-.06-.02-.02-.04-.04-.06-.05-.02-.02-.04-.03-.06-.05-.02-.02-.04-.03-.07-.05-.02-.01-.05-.03-.07-.04-.02-.01-.05-.03-.07-.04-.02-.01-.05-.02-.07-.03-.02-.01-.05-.02-.08-.03-.03,0-.05-.02-.08-.03-.03,0-.05-.01-.08-.02-.03,0-.05-.01-.08-.02-.03,0-.05,0-.08-.01-.03,0-.05,0-.08,0-.03,0-.05,0-.08,0-.03,0-.05,0-.08,0-.03,0-.05,0-.08,0-.03,0-.05,0-.08.01-.03,0-.05.01-.08.02-.03,0-.05.01-.08.02-.03,0-.05.02-.08.03-.03,0-.05.02-.07.03-.02.01-.05.02-.07.04-.02.01-.05.03-.07.04-.02.01-.05.03-.07.04-.02.02-.04.03-.07.05-.02.02-.04.03-.06.05-.02.02-.04.04-.06.06-.02.02-.04.04-.06.06-.02.02-.04.04-.05.06-.02.02-.03.04-.05.06-.02.02-.03.04-.04.07-.01.02-.03.05-.04.07-.01.02-.02.05-.04.07-.01.02-.02.05-.03.07,0,.03-.02.05-.03.08,0,.03-.02.05-.02.08,0,.03-.01.05-.02.08,0,.03,0,.05-.01.08,0,.03,0,.05,0,.08,0,.03,0,.05,0,.08,0,.03,0,.05,0,.08,0,.03,0,.05,0,.08,0,.03,0,.05.01.08,0,.03,0,.05.02.08,0,.03.01.05.02.08,0,.03.02.05.02.08,0,.03.02.05.03.08.01.02.02.05.03.07.01.02.02.05.04.07.01.02.03.05.04.07.01.02.03.04.05.07.02.02.03.04.05.06.02.02.04.04.05.06.02.02.04.04.06.06.02.02.04.04.06.05.02.02.04.03.06.05.02.02.04.03.07.05.02.01.05.03.07.04.02.01.05.03.07.04.02.01.05.02.07.03.02.01.05.02.08.03.03,0,.05.02.08.03.03,0,.05.01.08.02.03,0,.05.01.08.02.03,0,.05,0,.08.01s.05,0,.08,0c.03,0,.05,0,.08,0,.03,0,.05,0,.08,0,.03,0,.05,0,.08,0,.03,0,.05,0,.08-.01.03,0,.05-.01.08-.02.03,0,.05-.01.08-.02.03,0,.05-.02.08-.03.03,0,.05-.02.07-.03.02-.01.05-.02.07-.04.02-.01.05-.03.07-.04.02-.01.05-.03.07-.04.02-.02.04-.03.07-.05.02-.02.04-.03.06-.05.02-.02.04-.04.06-.06.02-.02.04-.04.06-.06.02-.02.04-.04.05-.06.02-.02.03-.04.05-.06.02-.02.03-.04.04-.07.01-.02.03-.05.04-.07.01-.02.02-.05.04-.07.01-.02.02-.05.03-.07,0-.03.02-.05.03-.08,0-.03.02-.05.02-.08h2.22s1.64,2.61,1.64,2.61c.03.05.06.1.1.14.04.05.08.09.12.13.04.04.09.08.14.11.05.03.1.07.15.1.05.03.1.05.16.08.05.02.11.04.17.05.06.01.12.03.17.03.06,0,.12.01.18,0h1.02v.36s1.73,0,1.73,0v-1.73s-1.73,0-1.73,0v.58h-1.02c-.05,0-.1,0-.15-.02-.05-.01-.1-.03-.14-.06-.04-.02-.08-.05-.12-.09-.04-.04-.07-.07-.09-.12l-1.38-2.19h4.73v.9s0,.05,0,.07c0,.02.02.05.03.07.01.02.03.04.05.06.02.02.04.03.06.04.04.02.09.03.13.04.05,0,.1-.01.14-.04l2.18-1.31s.02-.01.03-.02c0,0,.02-.02.03-.02,0,0,.02-.02.02-.03,0,0,.01-.02.02-.03,0-.01.01-.02.02-.03,0-.01,0-.02.01-.03,0-.01,0-.02,0-.03,0-.01,0-.02,0-.04s0-.02,0-.04c0-.01,0-.02,0-.03,0-.01,0-.02-.01-.03,0-.01,0-.02-.02-.03,0-.01-.01-.02-.02-.03,0,0-.01-.02-.02-.03,0,0-.02-.02-.03-.02,0,0-.02-.01-.03-.02h.01Z"/>
              <path id="_路径_1-3" data-name="路径 1" class="cls-3" d="M109.29,32.54h-3.52c-.07,0-.13,0-.2,0-.07,0-.13,0-.2.01-.07,0-.13.01-.2.02-.07,0-.13.02-.2.03-.07.01-.13.03-.2.04-.07.02-.13.03-.19.05-.06.02-.13.04-.19.06s-.13.05-.19.07c-.06.03-.12.05-.18.08-.06.03-.12.06-.18.09-.06.03-.12.06-.18.1-.06.03-.11.07-.17.11-.06.04-.11.08-.17.12-.05.04-.11.08-.16.12-.05.04-.1.09-.15.13-.05.05-.1.09-.15.14-.05.05-.09.1-.14.15-.05.05-.09.1-.13.15-.04.05-.08.11-.12.16-.04.05-.08.11-.12.17s-.07.11-.11.17c-.03.06-.07.12-.1.18-.03.06-.06.12-.09.18-.03.06-.06.12-.08.18-.03.06-.05.12-.07.19-.02.06-.04.13-.06.19-.02.06-.04.13-.05.19s-.03.13-.04.2c-.01.07-.02.13-.03.2,0,.07-.02.13-.02.2,0,.07-.01.13-.01.2,0,.07,0,.13,0,.2s0,.13,0,.2c0,.07,0,.13.01.2,0,.07.01.13.02.2,0,.07.02.13.03.2.01.07.03.13.04.2.02.07.03.13.05.19.02.06.04.13.06.19.02.06.05.13.07.19.03.06.05.12.08.18.03.06.06.12.09.18.03.06.06.12.1.18.03.06.07.11.11.17.04.06.08.11.12.17.04.05.08.11.12.16.04.05.09.1.13.15.05.05.09.1.14.15.05.05.1.09.15.14s.1.09.15.13.11.08.16.12c.05.04.11.08.17.12.06.04.11.07.17.11.06.03.12.07.18.1.06.03.12.06.18.09.06.03.12.06.18.08.06.03.13.05.19.07.06.02.13.04.19.06.06.02.13.04.19.05.07.02.13.03.2.04.07.01.13.02.2.03.07,0,.13.02.2.02.07,0,.13.01.2.01.07,0,.13,0,.2,0h3.52c.07,0,.13,0,.2,0,.07,0,.13,0,.2-.01.07,0,.13-.01.2-.02.07,0,.13-.02.2-.03.07-.01.13-.03.2-.04.07-.02.13-.03.19-.05.06-.02.13-.04.19-.06.06-.02.13-.05.19-.07.06-.03.12-.05.18-.08.06-.03.12-.06.18-.09.06-.03.12-.06.18-.1.06-.03.11-.07.17-.11.06-.04.11-.08.17-.12.05-.04.11-.08.16-.12.05-.04.1-.09.15-.13s.1-.09.15-.14c.05-.05.09-.1.14-.15.05-.05.09-.1.13-.15.04-.05.08-.11.12-.16.04-.05.08-.11.12-.17.04-.06.07-.11.11-.17.03-.06.07-.12.1-.18.03-.06.06-.12.09-.18.03-.06.06-.12.08-.18.03-.06.05-.12.07-.19.02-.06.04-.13.06-.19.02-.06.04-.13.05-.19.02-.07.03-.13.04-.2.01-.07.02-.13.03-.2,0-.07.02-.13.02-.2,0-.07.01-.13.01-.2,0-.07,0-.13,0-.2s0-.13,0-.2c0-.07,0-.13-.01-.2,0-.07-.01-.13-.02-.2,0-.07-.02-.13-.03-.2-.01-.07-.03-.13-.04-.2s-.03-.13-.05-.19c-.02-.06-.04-.13-.06-.19-.02-.06-.05-.13-.07-.19-.03-.06-.05-.12-.08-.18-.03-.06-.06-.12-.09-.18-.03-.06-.06-.12-.1-.18-.03-.06-.07-.11-.11-.17s-.08-.11-.12-.17c-.04-.05-.08-.11-.12-.16-.04-.05-.09-.1-.13-.15-.05-.05-.09-.1-.14-.15-.05-.05-.1-.09-.15-.14-.05-.05-.1-.09-.15-.13-.05-.04-.11-.08-.16-.12-.05-.04-.11-.08-.17-.12-.06-.04-.11-.07-.17-.11-.06-.03-.12-.07-.18-.1-.06-.03-.12-.06-.18-.09-.06-.03-.12-.06-.18-.08-.06-.03-.13-.05-.19-.07-.06-.02-.13-.04-.19-.06-.06-.02-.13-.04-.19-.05-.07-.02-.13-.03-.2-.04-.07-.01-.13-.02-.2-.03-.07,0-.13-.02-.2-.02-.07,0-.13-.01-.2-.01s-.13,0-.2,0ZM108.99,38.71c-.07,0-.13,0-.2,0-.07,0-.13-.02-.2-.03-.07-.01-.13-.03-.2-.05-.06-.02-.13-.04-.19-.07-.06-.03-.12-.05-.18-.09-.06-.03-.12-.07-.17-.1-.06-.04-.11-.08-.16-.12-.05-.04-.1-.09-.15-.14-.05-.05-.09-.1-.14-.15-.04-.05-.08-.11-.12-.16-.04-.06-.07-.11-.1-.17-.03-.06-.06-.12-.09-.18-.03-.06-.05-.13-.07-.19-.02-.06-.04-.13-.05-.2-.01-.07-.02-.13-.03-.2,0-.07,0-.13,0-.2s0-.13,0-.2c0-.07.02-.13.03-.2.01-.07.03-.13.05-.2.02-.06.04-.13.07-.19.03-.06.05-.12.09-.18.03-.06.07-.12.1-.17.04-.06.08-.11.12-.16.04-.05.09-.1.14-.15.05-.05.1-.09.15-.14.05-.04.11-.08.16-.12.06-.04.11-.07.17-.1.06-.03.12-.06.18-.09.06-.03.13-.05.19-.07.06-.02.13-.04.2-.05.07-.01.13-.02.2-.03.07,0,.13,0,.2,0s.13,0,.2,0c.07,0,.13.02.2.03.07.01.13.03.2.05.06.02.13.04.19.07.06.03.12.05.18.09.06.03.12.07.17.1.06.04.11.08.16.12.05.04.1.09.15.14.05.05.09.1.14.15.04.05.08.11.12.16.04.06.07.11.1.17.03.06.06.12.09.18.03.06.05.13.07.19s.04.13.05.2c.01.07.02.13.03.2,0,.07,0,.13,0,.2s0,.13,0,.2c0,.07-.02.13-.03.2-.01.07-.03.13-.05.2-.02.06-.04.13-.07.19-.03.06-.05.12-.09.18-.03.06-.07.12-.1.17-.04.06-.08.11-.12.16-.04.05-.09.1-.14.15-.05.05-.1.09-.15.14-.05.04-.11.08-.16.12-.06.04-.11.07-.17.1-.06.03-.12.06-.18.09-.06.03-.13.05-.19.07-.06.02-.13.04-.2.05-.07.01-.13.02-.2.03-.07,0-.13,0-.2,0Z"/>
            </g>
          </g>
          <g>
            <path id="_路径_2" data-name="路径 2" class="cls-3" d="M156.49,193.3h1.76v3.62h1.82c0-1.22,0-2.41,0-3.62h1.74v1.82c0,.6,0,1.2,0,1.8h1.85c0-1.16,0-2.31,0-3.46,0-.88-.5-1.38-1.39-1.38-2.44,0-4.88,0-7.31,0h-.3c0,1.63,0,3.23,0,4.84h1.83c0-1.22,0-2.41,0-3.62Z"/>
            <path id="_路径_3" data-name="路径 3" class="cls-3" d="M152.48,196.94c.87,0,1.4-.52,1.4-1.39,0-.7,0-1.4,0-2.1,0-.84-.54-1.37-1.38-1.37-1.82,0-3.64,0-5.46,0h-.31v1.21c1.77,0,3.53,0,5.28,0v2.43c-1.15,0-2.29,0-3.46,0v-1.65h-1.83v2.87h.3c1.82,0,3.64,0,5.46,0Z"/>
            <path id="_路径_4" data-name="路径 4" class="cls-3" d="M140.67,195.22h.09c1.09,0,2.14,0,3.22,0v1.71h1.91v-4.83h-1.92v1.95h-3.22s-.06,0-.09,0v-1.94h-1.89c0,1.62,0,3.22,0,4.83h1.89c0-.58,0-1.15,0-1.71Z"/>
            <path id="_路径_5" data-name="路径 5" class="cls-3" d="M166.33,192.1h-1.87c0,1.62,0,3.23,0,4.82h1.87v-4.82Z"/>
          </g>
        </g>
      </g>
      <rect class="cls-2" width="337.18" height="255.26"/>
    </g>
  </g>
</svg>