<svg xmlns="http://www.w3.org/2000/svg" xmlns:xlink="http://www.w3.org/1999/xlink" viewBox="0 0 340.16 240.94"><defs><style>.cls-1,.cls-2{fill:none;}.cls-2{stroke:#000;stroke-linecap:round;stroke-linejoin:round;stroke-width:0.5px;}.cls-3{clip-path:url(#clip-path);}.cls-4{clip-path:url(#clip-path-2);}.cls-5{font-size:10.23px;font-family:ArialMT, Arial;}.cls-6{fill-rule:evenodd;}</style><clipPath id="clip-path"><polyline class="cls-1" points="5.89 220.43 74.68 220.43 74.68 0.56 5.89 0.56 5.89 220.43"/></clipPath><clipPath id="clip-path-2"><polyline class="cls-1" points="76.59 220.43 321 220.43 321 0.56 76.59 0.56 76.59 220.43"/></clipPath></defs><g id="Layer_2" data-name="Layer 2"><g id="Layer_3" data-name="Layer 3"><line class="cls-2" x1="15.81" y1="216.8" x2="15.81" y2="233.41"/><g class="cls-3"><line class="cls-2" x1="59.34" y1="202.94" x2="59.34" y2="202.94"/><line class="cls-2" x1="21.23" y1="202.94" x2="21.23" y2="202.94"/><polyline class="cls-2" points="62.95 202.94 62.8 202.94 62.41 202.94 61.72 202.94 60.72 202.94 59.5 202.94 58.04 202.94 56.35 202.94 54.44 202.94 52.37 202.94 50.14 202.94 47.76 202.94 45.31 202.94 42.86 202.94 40.33 202.94 37.72 202.94 35.26 202.94 32.81 202.94 30.43 202.94 28.21 202.94 26.14 202.94 24.22 202.94 22.53 202.94 21.08 202.94 19.85 202.94 18.85 202.94 18.16 202.94 17.78 202.94 17.63 202.94"/><polyline class="cls-2" points="21.23 208.77 21.38 208.77 21.77 208.77 22.46 208.77 23.45 208.77 24.6 208.77 26.06 208.77 27.67 208.77 29.43 208.77 31.43 208.77 33.5 208.77 35.72 208.77 38.02 208.77 40.33 208.77 42.55 208.77 44.85 208.77 47.07 208.77 49.14 208.77 51.14 208.77 52.9 208.77 54.51 208.77 55.97 208.77 57.12 208.77 58.12 208.77 58.81 208.77 59.19 208.77 59.34 208.77"/><polyline class="cls-2" points="62.95 205.17 62.8 205.17 62.41 205.17 61.72 205.17 60.72 205.17 59.5 205.17 58.04 205.17 56.35 205.17 54.44 205.17 52.37 205.17 50.14 205.17 47.76 205.17 45.31 205.17 42.86 205.17 40.33 205.17 37.72 205.17 35.26 205.17 32.81 205.17 30.43 205.17 28.21 205.17 26.14 205.17 24.22 205.17 22.53 205.17 21.08 205.17 19.85 205.17 18.85 205.17 18.16 205.17 17.78 205.17 17.63 205.17"/><line class="cls-2" x1="49.22" y1="202.94" x2="49.22" y2="202.94"/><line class="cls-2" x1="55.66" y1="202.94" x2="55.66" y2="202.94"/><line class="cls-2" x1="21.23" y1="208.77" x2="17.63" y2="205.17"/><polyline class="cls-2" points="59.34 208.77 62.95 205.17 62.95 202.94"/><line class="cls-2" x1="17.63" y1="202.94" x2="17.63" y2="205.17"/><polyline class="cls-2" points="59.34 12.99 59.19 12.99 58.81 12.99 58.12 12.99 57.12 12.99 55.97 12.99 54.51 12.99 52.9 12.99 51.14 12.99 49.14 12.99 47.07 12.99 44.85 12.99 42.55 12.99 40.33 12.99 38.02 12.99 35.72 12.99 33.5 12.99 31.43 12.99 29.43 12.99 27.67 12.99 26.06 12.99 24.6 12.99 23.45 12.99 22.46 12.99 21.77 12.99 21.38 12.99 21.23 12.99"/><polyline class="cls-2" points="17.63 16.59 17.78 16.59 18.16 16.59 18.85 16.59 19.85 16.59 21.08 16.59 22.53 16.59 24.22 16.59 26.14 16.59 28.21 16.59 30.43 16.59 32.81 16.59 35.26 16.59 37.72 16.59 40.33 16.59 42.86 16.59 45.31 16.59 47.76 16.59 50.14 16.59 52.37 16.59 54.44 16.59 56.35 16.59 58.04 16.59 59.5 16.59 60.72 16.59 61.72 16.59 62.41 16.59 62.8 16.59 62.95 16.59"/><polyline class="cls-2" points="17.63 18.82 17.78 18.82 18.16 18.82 18.85 18.82 19.85 18.82 21.08 18.82 22.53 18.82 24.22 18.82 26.14 18.82 28.21 18.82 30.43 18.82 32.81 18.82 35.26 18.82 37.72 18.82 40.33 18.82 42.86 18.82 45.31 18.82 47.76 18.82 50.14 18.82 52.37 18.82 54.44 18.82 56.35 18.82 58.04 18.82 59.5 18.82 60.72 18.82 61.72 18.82 62.41 18.82 62.8 18.82 62.95 18.82"/><line class="cls-2" x1="59.34" y1="12.99" x2="62.95" y2="16.59"/><polyline class="cls-2" points="21.23 12.99 17.63 16.59 17.63 18.82"/><polyline class="cls-2" points="17.63 18.82 17.78 18.82 18.16 18.82 18.85 18.82 19.85 18.82 21.08 18.82 22.53 18.82 24.22 18.82 26.14 18.82 28.21 18.82 30.43 18.82 32.81 18.82 35.26 18.82 37.72 18.82 40.33 18.82 42.86 18.82 45.31 18.82 47.76 18.82 50.14 18.82 52.37 18.82 54.44 18.82 56.35 18.82 58.04 18.82 59.5 18.82 60.72 18.82 61.72 18.82 62.41 18.82 62.8 18.82 62.95 18.82 62.95 16.59"/><polyline class="cls-2" points="62.95 18.82 62.95 202.94 62.8 202.94 62.41 202.94 61.72 202.94 60.72 202.94 59.5 202.94 58.04 202.94 56.35 202.94 54.44 202.94 52.37 202.94 50.14 202.94 47.76 202.94 45.31 202.94 42.86 202.94 40.33 202.94 37.72 202.94 35.26 202.94 32.81 202.94 30.43 202.94 28.21 202.94 26.14 202.94 24.22 202.94 22.53 202.94 21.08 202.94 19.85 202.94 18.85 202.94 18.16 202.94 17.78 202.94 17.63 202.94 17.63 18.82"/><line class="cls-2" x1="41.55" y1="12.22" x2="41.55" y2="12.99"/><polyline class="cls-2" points="41.55 12.22 34.34 12.22 34.34 12.99"/><polyline class="cls-2" points="62.95 186.76 63.02 186.76 63.02 186.84"/><polyline class="cls-2" points="63.02 28.86 63.02 28.86 62.95 28.86"/><polyline class="cls-2" points="62.95 46.19 63.02 46.19 63.02 40.29 62.95 40.29"/><line class="cls-2" x1="62.95" y1="47.96" x2="63.02" y2="47.96"/><line class="cls-2" x1="63.02" y1="40.21" x2="63.02" y2="40.29"/><line class="cls-2" x1="63.02" y1="46.35" x2="63.02" y2="47.96"/><line class="cls-2" x1="62.95" y1="40.21" x2="63.02" y2="40.21"/><polyline class="cls-2" points="62.95 46.35 63.02 46.35 63.02 46.27 63.02 46.19"/><polyline class="cls-2" points="62.95 195.12 63.02 195.12 63.02 195.04 62.95 195.04"/><polyline class="cls-2" points="62.95 186.84 63.02 186.84 63.02 186.92 63.02 186.99 63.02 187.07 63.02 187.15 63.02 187.22 63.02 187.3 63.02 187.45 63.02 187.53 63.02 187.68 63.02 187.76 63.02 187.91 63.02 188.07 63.02 188.14 63.02 188.3 63.02 188.45 63.02 188.68 63.02 188.83 63.02 188.99 63.02 189.14 63.02 189.37 63.02 189.52 63.02 189.75 63.02 189.91 63.02 190.14 63.02 190.29 63.02 190.52 63.02 190.75 63.02 190.98 63.02 191.13 63.02 191.36 63.02 191.59 63.02 191.75 63.02 191.98 63.02 192.13 63.02 192.36 63.02 192.51 63.02 192.74 63.02 192.9 63.02 193.05 63.02 193.28 63.02 193.43 63.02 193.59 63.02 193.74 63.02 193.82 63.02 193.97 63.02 194.13 63.02 194.28 63.02 194.35 63.02 194.43 63.02 194.59 63.02 194.66 63.02 194.74 63.02 194.81 63.02 194.89 63.02 194.97 63.02 195.04"/><polyline class="cls-2" points="62.95 37.14 63.02 37.14 63.02 37.07 63.02 36.99 63.02 36.91 63.02 36.84 63.02 36.76 63.02 36.68 63.02 36.61 63.02 36.53 63.02 36.38 63.02 36.3 63.02 36.15 63.02 36.07 63.02 35.92 63.02 35.76 63.02 35.61 63.02 35.46 63.02 35.3 63.02 35.15 63.02 35 63.02 34.77 63.02 34.61 63.02 34.38 63.02 34.23 63.02 34 63.02 33.85 63.02 33.62 63.02 33.39 63.02 33.23 63.02 33 63.02 32.77 63.02 32.54 63.02 32.39 63.02 32.16 63.02 32.01 63.02 31.78 63.02 31.55 63.02 31.39 63.02 31.24 63.02 31.01 63.02 30.86 63.02 30.7 63.02 30.55 63.02 30.4 63.02 30.24 63.02 30.09 63.02 29.94 63.02 29.86 63.02 29.71 63.02 29.55 63.02 29.48 63.02 29.4 63.02 29.32 63.02 29.25 63.02 29.17 63.02 29.09 63.02 29.02 63.02 28.94 63.02 28.86 62.95 28.86"/><polyline class="cls-2" points="17.63 111.99 17.55 111.99 17.55 111.22"/><polyline class="cls-2" points="17.55 46.27 17.55 46.27 17.63 46.27"/><line class="cls-2" x1="17.63" y1="106.55" x2="17.55" y2="106.55"/><polyline class="cls-2" points="17.63 28.4 17.55 28.4 17.55 28.32 17.63 28.32"/><polyline class="cls-2" points="17.55 28.4 17.55 28.4 17.55 28.48 17.55 28.55 17.55 28.63 17.63 28.63"/><polyline class="cls-2" points="17.63 28.79 17.55 28.79 17.55 28.71 17.55 28.63"/><polyline class="cls-2" points="17.63 28.94 17.55 28.94 17.55 28.86 17.55 28.79"/><polyline class="cls-2" points="17.63 29.02 17.55 29.02 17.55 28.94"/><polyline class="cls-2" points="17.63 29.55 17.55 29.55 17.55 29.4 17.55 29.32 17.55 29.25 17.55 29.17 17.55 29.09 17.55 29.02"/><polyline class="cls-2" points="17.63 29.71 17.55 29.71 17.55 29.63 17.55 29.55"/><polyline class="cls-2" points="17.63 29.86 17.55 29.86 17.55 29.71"/><polyline class="cls-2" points="17.63 30.32 17.55 30.32 17.55 30.17 17.55 30.01 17.55 29.94 17.55 29.86"/><polyline class="cls-2" points="17.63 30.7 17.55 30.7 17.55 30.47 17.55 30.4 17.55 30.32"/><polyline class="cls-2" points="17.63 31.24 17.55 31.24 17.55 31.09 17.55 30.86 17.55 30.78 17.55 30.7"/><polyline class="cls-2" points="17.63 31.85 17.55 31.85 17.55 31.78 17.55 31.7 17.55 31.62 17.55 31.47 17.55 31.24"/><polyline class="cls-2" points="17.63 32.01 17.55 32.01 17.55 31.93 17.55 31.85"/><polyline class="cls-2" points="17.63 32.62 17.55 32.62 17.55 32.54 17.55 32.47 17.55 32.24 17.55 32.16 17.55 32.08 17.55 32.01"/><polyline class="cls-2" points="17.63 32.85 17.55 32.85 17.55 32.77 17.55 32.7 17.55 32.62"/><polyline class="cls-2" points="17.63 33.08 17.55 33.08 17.55 32.93 17.55 32.85"/><polyline class="cls-2" points="17.63 34 17.55 34 17.55 33.85 17.55 33.62 17.55 33.54 17.55 33.46 17.55 33.23 17.55 33.08"/><polyline class="cls-2" points="17.63 34.38 17.55 34.38 17.55 34.23 17.55 34.08 17.55 34"/><polyline class="cls-2" points="17.63 34.54 17.55 34.54 17.55 34.46 17.55 34.38"/><polyline class="cls-2" points="17.63 34.77 17.55 34.77 17.55 34.61 17.55 34.54"/><polyline class="cls-2" points="17.63 35.38 17.55 35.38 17.55 35.23 17.55 35.15 17.55 35.07 17.55 34.92 17.55 34.84 17.55 34.77"/><polyline class="cls-2" points="17.63 35.61 17.55 35.61 17.55 35.46 17.55 35.38"/><polyline class="cls-2" points="17.63 35.99 17.55 35.99 17.55 35.84 17.55 35.76 17.55 35.69 17.55 35.61"/><polyline class="cls-2" points="17.63 36.15 17.55 36.15 17.55 36.07 17.55 35.99"/><polyline class="cls-2" points="17.63 36.38 17.55 36.38 17.55 36.3 17.55 36.22 17.55 36.15"/><polyline class="cls-2" points="17.63 36.53 17.55 36.53 17.55 36.45 17.55 36.38"/><polyline class="cls-2" points="17.55 36.53 17.55 36.53 17.63 36.53 17.55 36.53"/><polyline class="cls-2" points="17.55 28.32 17.55 28.32 17.63 28.32"/><polyline class="cls-2" points="17.63 124.8 17.55 124.8 17.55 128.17 17.63 128.17"/><polyline class="cls-2" points="17.63 121.81 17.55 121.81 17.55 121.73"/><line class="cls-2" x1="17.63" y1="194.51" x2="17.55" y2="194.51"/><polyline class="cls-2" points="17.63 186.3 17.55 186.3 17.55 186.38"/><line class="cls-2" x1="17.55" y1="194.51" x2="17.55" y2="194.51"/><polyline class="cls-2" points="17.63 133.46 17.55 133.46 17.55 133.54 17.63 133.54"/><polyline class="cls-2" points="17.63 136.84 17.55 136.84 17.55 134.84 17.55 134.69 17.55 134.62 17.55 134.54 17.55 134.46 17.55 134.38 17.55 134.31 17.55 134.23 17.55 134.16 17.55 134 17.55 133.93 17.55 133.85 17.55 133.77 17.55 133.69 17.55 133.62 17.55 133.54"/><polyline class="cls-2" points="17.55 136.84 17.55 136.84 17.63 136.84"/><line class="cls-2" x1="17.63" y1="186.99" x2="17.55" y2="186.99"/><polyline class="cls-2" points="17.63 194.51 17.55 194.51 17.55 193.05"/><polyline class="cls-2" points="17.55 186.38 17.63 186.38 17.55 186.38 17.55 186.46 17.55 186.53 17.55 186.61 17.63 186.61"/><polyline class="cls-2" points="17.63 186.76 17.55 186.76 17.55 186.69 17.55 186.61"/><polyline class="cls-2" points="17.63 186.84 17.55 186.84 17.55 186.76"/><polyline class="cls-2" points="17.63 186.92 17.55 186.92 17.55 186.84"/><line class="cls-2" x1="17.55" y1="186.99" x2="17.55" y2="186.92"/><line class="cls-2" x1="17.63" y1="132.93" x2="17.55" y2="132.93"/><polyline class="cls-2" points="17.63 132.24 17.55 132.24 17.55 132.93"/><polyline class="cls-2" points="17.63 124.72 17.55 124.72 17.55 124.8"/><polyline class="cls-2" points="17.63 128.25 17.55 128.25 17.55 128.17"/><polyline class="cls-2" points="17.63 186.23 17.55 186.23 17.55 186.3"/><polyline class="cls-2" points="17.63 103.17 17.55 103.17 17.55 98.27"/><polyline class="cls-2" points="17.63 81.62 17.55 81.62 17.55 83.39 17.63 83.39"/><polyline class="cls-2" points="17.55 85.76 17.55 84.23 17.55 84.15 17.55 84.08 17.55 84 17.55 83.92 17.55 83.85 17.55 83.77 17.55 83.69 17.55 83.62 17.55 83.54 17.55 83.46 17.55 83.39"/><line class="cls-2" x1="17.63" y1="111.22" x2="17.55" y2="111.22"/><polyline class="cls-2" points="17.63 106.55 17.55 106.55 17.55 106.62 17.55 106.7 17.55 106.78 17.63 106.78"/><polyline class="cls-2" points="17.63 107.62 17.55 107.62 17.55 106.78"/><polyline class="cls-2" points="17.63 108.16 17.55 108.16 17.55 108.08 17.55 108 17.55 107.93 17.55 107.85 17.55 107.77 17.55 107.7 17.55 107.62"/><polyline class="cls-2" points="17.63 108.46 17.55 108.46 17.55 108.39 17.55 108.31 17.55 108.23 17.55 108.16"/><polyline class="cls-2" points="17.63 109.23 17.55 109.23 17.55 109.15 17.55 109.08 17.55 109 17.55 108.92 17.55 108.85 17.55 108.77 17.55 108.69 17.55 108.62 17.55 108.54 17.55 108.46"/><polyline class="cls-2" points="17.63 110.61 17.55 110.61 17.55 110.53 17.55 110.46 17.55 110.38 17.55 110.23 17.55 110.15 17.55 110.08 17.55 110 17.55 109.92 17.55 109.77 17.55 109.69 17.55 109.61 17.55 109.54 17.55 109.38 17.55 109.31 17.55 109.23"/><polyline class="cls-2" points="17.55 111.22 17.55 111.15 17.55 111.07 17.55 111 17.55 110.92 17.55 110.84 17.55 110.77 17.55 110.69 17.55 110.61"/><polyline class="cls-2" points="17.63 132.16 17.55 132.16 17.55 132.24"/><line class="cls-2" x1="17.63" y1="47.42" x2="17.55" y2="47.42"/><line class="cls-2" x1="17.63" y1="39.67" x2="17.55" y2="39.67"/><line class="cls-2" x1="17.55" y1="47.42" x2="17.55" y2="46.27"/><line class="cls-2" x1="17.55" y1="40.29" x2="17.55" y2="39.67"/><polyline class="cls-2" points="17.63 106.16 17.55 106.16 17.55 106.55"/><polyline class="cls-2" points="17.63 123.5 17.55 123.5 17.55 123.57"/><polyline class="cls-2" points="17.55 41.9 17.63 41.9 17.55 41.9 17.55 42.82 17.63 42.82"/><polyline class="cls-2" points="17.63 45.2 17.55 45.2 17.55 45.12 17.55 45.04 17.55 44.97 17.55 44.89 17.55 44.81 17.55 44.66 17.55 44.58 17.55 42.82"/><polyline class="cls-2" points="17.63 45.27 17.55 45.27 17.55 45.2"/><polyline class="cls-2" points="17.63 46.12 17.55 46.12 17.55 45.27"/><polyline class="cls-2" points="17.63 46.27 17.55 46.27 17.55 46.19 17.55 46.12"/><polyline class="cls-2" points="17.63 40.44 17.55 40.44 17.55 41.9"/><polyline class="cls-2" points="17.55 98.19 17.55 98.27 17.63 98.27 17.55 98.27"/><polyline class="cls-2" points="17.63 85.76 17.55 85.76 17.55 85.84 17.55 85.92 17.55 86 17.55 86.07 17.55 86.15 17.55 86.3 17.55 86.38 17.55 86.53 17.55 86.61 17.55 86.76 17.55 86.92 17.55 87.07 17.55 87.22 17.55 87.38 17.55 87.53 17.55 87.68 17.55 87.83 17.55 87.99 17.55 88.14 17.55 88.37 17.55 92.9 17.63 92.9"/><polyline class="cls-2" points="17.63 96.42 17.55 96.42 17.55 96.35 17.55 96.27 17.55 96.19 17.55 96.12 17.55 96.04 17.55 95.96 17.55 95.89 17.55 95.81 17.55 95.73 17.55 95.58 17.55 92.9"/><polyline class="cls-2" points="17.63 98.19 17.55 98.19 17.55 96.42"/><polyline class="cls-2" points="17.55 36.53 17.55 36.53 17.63 36.53"/><polyline class="cls-2" points="17.63 194.59 17.55 194.59 17.55 194.51"/><polyline class="cls-2" points="17.55 138.22 17.55 138.22 17.63 138.22"/><polyline class="cls-2" points="17.63 123.57 17.55 123.57 17.55 124.72"/><line class="cls-2" x1="17.63" y1="121.73" x2="17.55" y2="121.73"/><polyline class="cls-2" points="17.63 118.28 17.55 118.28 17.55 118.36 17.55 118.43 17.55 118.51 17.55 118.59 17.63 118.59"/><polyline class="cls-2" points="17.63 121.73 17.55 121.73 17.55 119.43 17.55 119.28 17.55 119.12 17.55 119.05 17.55 118.89 17.55 118.82 17.55 118.74 17.55 118.66 17.55 118.59"/><line class="cls-2" x1="17.55" y1="121.73" x2="17.55" y2="121.73"/><polyline class="cls-2" points="17.63 137.68 17.55 137.68 17.55 137.61 17.55 137.53 17.55 137.45 17.55 137.38 17.55 137.3 17.55 137.22 17.55 137.07 17.55 136.91"/><polyline class="cls-2" points="17.63 138.22 17.55 138.22 17.55 138.14 17.55 138.07 17.55 137.99 17.55 137.91 17.55 137.76 17.55 137.68"/><line class="cls-2" x1="17.63" y1="133.46" x2="17.55" y2="133.46"/><polyline class="cls-2" points="17.63 186.99 17.55 186.99 17.55 187.07 17.55 187.15 17.55 187.22 17.55 187.3 17.55 187.38 17.55 187.45 17.55 187.53 17.55 187.61 17.63 187.61"/><polyline class="cls-2" points="17.63 193.05 17.55 193.05 17.55 192.97 17.55 192.9 17.55 192.82 17.55 192.74 17.55 192.67 17.55 192.59 17.55 192.51 17.55 192.44 17.55 192.36 17.55 192.21 17.55 192.13 17.55 191.98 17.55 191.9 17.55 191.75 17.55 191.59 17.55 191.44 17.55 191.29 17.55 191.13 17.55 190.98 17.55 190.83 17.55 190.6 17.55 190.44 17.55 190.21 17.55 190.06 17.55 189.83 17.55 189.6 17.55 189.45 17.55 189.22 17.55 189.06 17.55 188.91 17.55 188.76 17.55 188.6 17.55 188.45 17.55 188.3 17.55 188.14 17.55 188.07 17.55 187.91 17.55 187.84 17.55 187.68 17.55 187.61"/><line class="cls-2" x1="17.55" y1="133.46" x2="17.55" y2="132.93"/><polyline class="cls-2" points="17.55 136.84 17.55 136.91 17.63 136.91 17.55 136.91"/><line class="cls-2" x1="17.63" y1="106.16" x2="17.55" y2="106.16"/><polyline class="cls-2" points="17.63 128.94 17.55 128.94 17.55 128.86 17.55 128.79 17.55 128.71 17.55 128.56 17.55 128.48 17.55 128.33 17.55 128.25"/><polyline class="cls-2" points="17.63 129.48 17.55 129.48 17.55 129.4 17.55 129.32 17.55 129.25 17.55 129.17 17.55 129.09 17.55 128.94"/><polyline class="cls-2" points="17.55 117.05 17.63 117.05 17.55 117.05 17.55 117.59 17.63 117.59"/><polyline class="cls-2" points="17.55 118.28 17.55 118.05 17.55 117.97 17.55 117.9 17.55 117.82 17.55 117.74 17.55 117.67 17.55 117.59"/><polyline class="cls-2" points="17.63 40.29 17.55 40.29 17.55 40.44"/><polyline class="cls-2" points="17.63 48.03 17.55 48.03 17.55 47.96 17.55 47.88 17.55 47.8 17.55 47.73 17.55 47.65 17.55 47.57 17.55 47.5 17.55 47.42"/><polyline class="cls-2" points="17.63 122.96 17.55 122.96 17.55 121.81"/></g><g class="cls-4"><line class="cls-2" x1="105.73" y1="202.94" x2="105.73" y2="202.94"/><line class="cls-2" x1="291.85" y1="202.94" x2="291.85" y2="202.94"/><polyline class="cls-2" points="309.34 202.94 309.19 202.94 308.8 202.94 308.11 202.94 307.12 202.94 305.89 202.94 304.51 202.94 302.82 202.94 300.9 202.94 298.91 202.94 296.69 202.94 294.38 202.94 292.01 202.94 289.48 202.94 287.02 202.94 110.87 202.94 108.34 202.94 105.89 202.94 103.43 202.94 101.05 202.94 98.83 202.94 96.76 202.94 94.92 202.94 93.23 202.94 91.7 202.94 90.47 202.94 89.55 202.94 88.78 202.94 88.4 202.94 88.25 202.94"/><line class="cls-2" x1="297.84" y1="202.94" x2="297.84" y2="202.94"/><line class="cls-2" x1="303.43" y1="202.94" x2="303.43" y2="202.94"/><line class="cls-2" x1="291.93" y1="202.94" x2="291.93" y2="202.94"/><line class="cls-2" x1="287.02" y1="205.17" x2="110.87" y2="205.17"/><polyline class="cls-2" points="91.85 208.77 92 208.77 92.47 208.77 93.08 208.77 94.08 208.77 95.23 208.77 96.68 208.77 98.29 208.77 100.13 208.77 102.05 208.77 104.12 208.77 106.35 208.77 108.65 208.77 110.87 208.77 286.95 208.77"/><polyline class="cls-2" points="110.87 205.17 108.34 205.17 105.89 205.17 103.43 205.17 101.05 205.17 98.83 205.17 96.76 205.17 94.92 205.17 93.23 205.17 91.7 205.17 90.47 205.17 89.55 205.17 88.78 205.17 88.4 205.17 88.25 205.17"/><polyline class="cls-2" points="286.95 208.77 289.25 208.77 291.47 208.77 293.62 208.77 295.69 208.77 297.61 208.77 299.45 208.77 300.98 208.77 302.44 208.77 303.59 208.77 304.51 208.77 305.2 208.77 305.58 208.77 305.73 208.77"/><polyline class="cls-2" points="309.34 205.17 309.19 205.17 308.8 205.17 308.11 205.17 307.12 205.17 305.89 205.17 304.51 205.17 302.82 205.17 300.9 205.17 298.91 205.17 296.69 205.17 294.38 205.17 292.01 205.17 289.48 205.17 287.02 205.17"/><line class="cls-2" x1="94.15" y1="202.94" x2="94.15" y2="202.94"/><line class="cls-2" x1="99.75" y1="202.94" x2="99.75" y2="202.94"/><line class="cls-2" x1="105.66" y1="202.94" x2="105.66" y2="202.94"/><line class="cls-2" x1="91.85" y1="208.77" x2="88.25" y2="205.17"/><line class="cls-2" x1="305.73" y1="208.77" x2="309.34" y2="205.17"/><line class="cls-2" x1="88.25" y1="202.94" x2="88.25" y2="205.17"/><line class="cls-2" x1="309.34" y1="202.94" x2="309.34" y2="205.17"/><polyline class="cls-2" points="287.02 16.59 289.48 16.59 292.01 16.59 294.38 16.59 296.69 16.59 298.91 16.59 300.9 16.59 302.82 16.59 304.51 16.59 305.89 16.59 307.12 16.59 308.11 16.59 308.8 16.59 309.19 16.59 309.34 16.59"/><polyline class="cls-2" points="305.73 12.99 305.58 12.99 305.2 12.99 304.51 12.99 303.59 12.99 302.44 12.99 300.98 12.99 299.45 12.99 297.61 12.99 295.69 12.99 293.62 12.99 291.47 12.99 289.25 12.99 286.95 12.99"/><polyline class="cls-2" points="110.87 12.99 108.65 12.99 106.35 12.99 104.12 12.99 102.05 12.99 100.13 12.99 98.29 12.99 96.68 12.99 95.23 12.99 94.08 12.99 93.08 12.99 92.47 12.99 92 12.99 91.85 12.99"/><polyline class="cls-2" points="88.25 16.59 88.4 16.59 88.78 16.59 89.55 16.59 90.47 16.59 91.7 16.59 93.23 16.59 94.92 16.59 96.76 16.59 98.83 16.59 101.05 16.59 103.43 16.59 105.89 16.59 108.34 16.59 110.87 16.59"/><line class="cls-2" x1="286.95" y1="12.99" x2="110.87" y2="12.99"/><line class="cls-2" x1="110.87" y1="16.59" x2="287.02" y2="16.59"/><polyline class="cls-2" points="88.25 18.82 88.4 18.82 88.78 18.82 89.55 18.82 90.47 18.82 91.7 18.82 93.23 18.82 94.92 18.82 96.76 18.82 98.83 18.82 101.05 18.82 103.43 18.82 105.89 18.82 108.34 18.82 110.87 18.82 287.02 18.82 289.48 18.82 292.01 18.82 294.38 18.82 296.69 18.82 298.91 18.82 300.9 18.82 302.82 18.82 304.51 18.82 305.89 18.82 307.12 18.82 308.11 18.82 308.8 18.82 309.19 18.82 309.34 18.82"/><line class="cls-2" x1="305.73" y1="12.99" x2="309.34" y2="16.59"/><line class="cls-2" x1="91.85" y1="12.99" x2="88.25" y2="16.59"/><line class="cls-2" x1="309.34" y1="18.82" x2="309.34" y2="16.59"/><line class="cls-2" x1="88.25" y1="18.82" x2="88.25" y2="16.59"/><line class="cls-2" x1="110.87" y1="18.82" x2="287.02" y2="18.82"/><line class="cls-2" x1="287.02" y1="202.94" x2="110.87" y2="202.94"/><polyline class="cls-2" points="309.34 18.82 309.19 18.82 308.8 18.82 308.11 18.82 307.12 18.82 305.89 18.82 304.51 18.82 302.82 18.82 300.9 18.82 298.91 18.82 296.69 18.82 294.38 18.82 292.01 18.82 289.48 18.82 287.02 18.82"/><polyline class="cls-2" points="309.34 202.94 309.19 202.94 308.8 202.94 308.11 202.94 307.12 202.94 305.89 202.94 304.51 202.94 302.82 202.94 300.9 202.94 298.91 202.94 296.69 202.94 294.38 202.94 292.01 202.94 289.48 202.94 287.02 202.94"/><polyline class="cls-2" points="110.87 18.82 108.34 18.82 105.89 18.82 103.43 18.82 101.05 18.82 98.83 18.82 96.76 18.82 94.92 18.82 93.23 18.82 91.7 18.82 90.47 18.82 89.55 18.82 88.78 18.82 88.4 18.82 88.25 18.82"/><polyline class="cls-2" points="110.87 202.94 108.34 202.94 105.89 202.94 103.43 202.94 101.05 202.94 98.83 202.94 96.76 202.94 94.92 202.94 93.23 202.94 91.7 202.94 90.47 202.94 89.55 202.94 88.78 202.94 88.4 202.94 88.25 202.94"/><line class="cls-2" x1="309.34" y1="18.82" x2="309.34" y2="202.94"/><line class="cls-2" x1="88.25" y1="18.82" x2="88.25" y2="202.94"/><line class="cls-2" x1="135.41" y1="12.99" x2="136.18" y2="12.22"/><polyline class="cls-2" points="130.73 12.99 130.73 12.22 132.5 12.22 133.26 12.99"/><polyline class="cls-2" points="136.18 12.22 137.94 12.22 137.94 12.99"/></g><line class="cls-2" x1="62.98" y1="216.8" x2="62.98" y2="233.41"/><line class="cls-2" x1="313.3" y1="209.03" x2="327.65" y2="209.03"/><line class="cls-2" x1="313.3" y1="13.09" x2="327.65" y2="13.09"/><line class="cls-2" x1="21.08" y1="225.11" x2="59.79" y2="225.11"/><polygon points="21.81 227.6 17.49 225.11 21.81 222.61 21.81 227.6"/><polygon points="59.06 227.6 63.38 225.11 59.06 222.61 59.06 227.6"/><line class="cls-2" x1="320.47" y1="204.08" x2="320.47" y2="17.26"/><polygon points="322.97 203.35 320.47 207.67 317.98 203.35 322.97 203.35"/><polygon points="322.97 17.99 320.47 13.67 317.98 17.99 322.97 17.99"/><text class="cls-5" transform="translate(22.37 237.06)">13.5mm</text><text class="cls-5" transform="translate(325.49 100.4) rotate(90)">53mm</text><path d="M259.6,197.37h-1.21v-4.72h-1.56v-1h4.32v1H259.6Z"/><path d="M262.78,192.9a2.13,2.13,0,0,1,1.35.38,1.42,1.42,0,0,1,.47,1.17v2.92h-.84l-.23-.59h0a2.72,2.72,0,0,1-.38.38,1.18,1.18,0,0,1-.45.22,2.28,2.28,0,0,1-.63.07,1.58,1.58,0,0,1-.69-.15,1,1,0,0,1-.48-.46,1.5,1.5,0,0,1-.18-.78,1.15,1.15,0,0,1,.49-1,2.89,2.89,0,0,1,1.47-.37l.76,0v-.19a.66.66,0,0,0-.18-.51.77.77,0,0,0-.5-.16,2.18,2.18,0,0,0-.63.09,5.05,5.05,0,0,0-.61.23l-.39-.81a3.41,3.41,0,0,1,.78-.29A3.82,3.82,0,0,1,262.78,192.9Zm.17,2.46a1.32,1.32,0,0,0-.81.2.64.64,0,0,0-.22.51.45.45,0,0,0,.16.39.65.65,0,0,0,.41.12,1,1,0,0,0,.66-.23.84.84,0,0,0,.26-.65v-.36Z"/><path d="M268,192.91h.21l.19,0-.08,1.12-.17,0h-.19a1.74,1.74,0,0,0-.45.06,1.41,1.41,0,0,0-.39.19,1,1,0,0,0-.27.34,1.19,1.19,0,0,0-.1.53v2.23h-1.2V193h.91l.18.74h.06a1.57,1.57,0,0,1,.32-.41,1.23,1.23,0,0,1,.44-.3A1.24,1.24,0,0,1,268,192.91Z"/><path d="M270.17,192.91a1.53,1.53,0,0,1,.72.16,1.47,1.47,0,0,1,.55.48h0l.1-.56h1v4.39a2.09,2.09,0,0,1-.25,1.05,1.6,1.6,0,0,1-.73.65,3.08,3.08,0,0,1-1.21.22,5.85,5.85,0,0,1-.87-.06,3.49,3.49,0,0,1-.77-.2v-1a4,4,0,0,0,.83.26,5.05,5.05,0,0,0,.88.08.87.87,0,0,0,.69-.25,1.06,1.06,0,0,0,.23-.74v-.09a2.62,2.62,0,0,1,0-.28c0-.1,0-.19,0-.26h0a1.35,1.35,0,0,1-.54.5,1.6,1.6,0,0,1-.7.15,1.42,1.42,0,0,1-1.22-.6,3.36,3.36,0,0,1,0-3.34A1.46,1.46,0,0,1,270.17,192.91Zm.37,1a.71.71,0,0,0-.46.15.9.9,0,0,0-.29.44,2.5,2.5,0,0,0-.09.73,1.87,1.87,0,0,0,.21,1,.73.73,0,0,0,.65.32,1.16,1.16,0,0,0,.4-.06.58.58,0,0,0,.28-.2.9.9,0,0,0,.16-.37,2.06,2.06,0,0,0,.06-.54v-.15a2.29,2.29,0,0,0-.1-.76.78.78,0,0,0-.29-.42A1,1,0,0,0,270.54,193.88Z"/><path d="M275.31,192.91a2.14,2.14,0,0,1,1.05.23,1.63,1.63,0,0,1,.68.67,2.28,2.28,0,0,1,.24,1.09v.58h-2.82a1.13,1.13,0,0,0,.3.79,1.07,1.07,0,0,0,.79.29,3.27,3.27,0,0,0,1.48-.35v.93a3,3,0,0,1-.68.23,4.12,4.12,0,0,1-.86.08,2.51,2.51,0,0,1-1.16-.25,1.79,1.79,0,0,1-.8-.74,2.49,2.49,0,0,1-.29-1.25,2.86,2.86,0,0,1,.26-1.28,1.87,1.87,0,0,1,.73-.77A2.21,2.21,0,0,1,275.31,192.91Zm0,.85a.77.77,0,0,0-.57.22,1.1,1.1,0,0,0-.27.7h1.68a1,1,0,0,0-.1-.47.73.73,0,0,0-.27-.33A.86.86,0,0,0,275.32,193.76Z"/><path d="M279.78,196.49a2.34,2.34,0,0,0,.38,0l.37-.1v.89a3.14,3.14,0,0,1-.48.14,3,3,0,0,1-.62.06,1.75,1.75,0,0,1-.7-.13,1,1,0,0,1-.49-.44,1.83,1.83,0,0,1-.18-.88v-2.11h-.57v-.51l.66-.4.34-.92h.77V193h1.22v.9h-1.22V196a.45.45,0,0,0,.14.37A.58.58,0,0,0,279.78,196.49Z"/><path d="M122.28,195.35a2.15,2.15,0,0,1-.26,1.07,1.77,1.77,0,0,1-.78.75,2.79,2.79,0,0,1-1.33.28,2.39,2.39,0,0,1-1.74-.58,2.08,2.08,0,0,1-.59-1.54v-3.69h1.21v3.51a1.38,1.38,0,0,0,.29,1,1.18,1.18,0,0,0,.86.29,1.5,1.5,0,0,0,.65-.13.87.87,0,0,0,.37-.43,2.16,2.16,0,0,0,.11-.73v-3.5h1.21Z"/><path d="M126.75,195.78a1.59,1.59,0,0,1-.25.88,1.69,1.69,0,0,1-.72.59,3,3,0,0,1-1.14.2,3.81,3.81,0,0,1-.59,0,3,3,0,0,1-.54-.12,3.68,3.68,0,0,1-.5-.18V196c.28.12.56.23.85.33a2.65,2.65,0,0,0,.87.15,1.26,1.26,0,0,0,.48-.08.58.58,0,0,0,.26-.22.54.54,0,0,0,.09-.31.5.5,0,0,0-.15-.37,1.65,1.65,0,0,0-.4-.29c-.16-.09-.35-.18-.57-.28l-.43-.23a2.73,2.73,0,0,1-.45-.33,1.75,1.75,0,0,1-.35-.48,1.54,1.54,0,0,1-.13-.67,1.65,1.65,0,0,1,.23-.88,1.57,1.57,0,0,1,.68-.56,2.49,2.49,0,0,1,1-.19,3.49,3.49,0,0,1,.86.1,5.33,5.33,0,0,1,.84.3l-.39.95a6.16,6.16,0,0,0-.71-.25,2.3,2.3,0,0,0-.64-.09.94.94,0,0,0-.39.07.68.68,0,0,0-.24.2.53.53,0,0,0-.08.31.5.5,0,0,0,.12.34,1.4,1.4,0,0,0,.36.27l.6.3a5.13,5.13,0,0,1,.75.44,1.51,1.51,0,0,1,.48.53A1.54,1.54,0,0,1,126.75,195.78Z"/><path d="M129.25,191.64A3.72,3.72,0,0,1,131,192a1.17,1.17,0,0,1,.59,1.13,1.59,1.59,0,0,1-.1.59,1,1,0,0,1-.3.43,1,1,0,0,1-.48.22v0a1.56,1.56,0,0,1,.52.2,1,1,0,0,1,.37.42,1.62,1.62,0,0,1,.14.72,1.51,1.51,0,0,1-.26.89,1.59,1.59,0,0,1-.72.57,3,3,0,0,1-1.13.2h-2.14v-5.73Zm.14,2.27a1.12,1.12,0,0,0,.73-.17.58.58,0,0,0,.21-.49.51.51,0,0,0-.24-.47,1.51,1.51,0,0,0-.77-.15h-.64v1.28Zm-.71,1v1.5h.8a1,1,0,0,0,.76-.22.8.8,0,0,0,.12-.94.57.57,0,0,0-.31-.25,1.71,1.71,0,0,0-.61-.09Z"/><path d="M137.91,197.37h-4v-.84l1.43-1.45.7-.76a2.55,2.55,0,0,0,.39-.54,1.21,1.21,0,0,0,.12-.53.66.66,0,0,0-.19-.51.77.77,0,0,0-.51-.17,1.46,1.46,0,0,0-.64.15,3.68,3.68,0,0,0-.66.43l-.66-.77a4.09,4.09,0,0,1,.53-.4,2,2,0,0,1,.64-.3,2.79,2.79,0,0,1,.88-.12,2.19,2.19,0,0,1,1,.2,1.56,1.56,0,0,1,.63.56,1.4,1.4,0,0,1,.22.79,2,2,0,0,1-.19.87,3.09,3.09,0,0,1-.54.77c-.24.26-.53.54-.87.85l-.73.7v0h2.49Z"/><path d="M138.31,196.81a.62.62,0,0,1,.2-.52.81.81,0,0,1,.49-.15.76.76,0,0,1,.48.15.59.59,0,0,1,.21.52.61.61,0,0,1-.21.51.76.76,0,0,1-.48.15.81.81,0,0,1-.49-.15A.63.63,0,0,1,138.31,196.81Z"/><path d="M144.12,194.51a6.46,6.46,0,0,1-.11,1.23,2.77,2.77,0,0,1-.35.93,1.57,1.57,0,0,1-.62.58,2,2,0,0,1-.93.2,1.77,1.77,0,0,1-1.13-.35,2,2,0,0,1-.66-1,5.26,5.26,0,0,1-.21-1.58,5.7,5.7,0,0,1,.19-1.6,2,2,0,0,1,.64-1,1.83,1.83,0,0,1,1.17-.35,1.77,1.77,0,0,1,1.13.35,2,2,0,0,1,.66,1A5.28,5.28,0,0,1,144.12,194.51Zm-2.8,0a6.58,6.58,0,0,0,.07,1.08,1.58,1.58,0,0,0,.24.66.63.63,0,0,0,1,0,1.6,1.6,0,0,0,.25-.65,8.6,8.6,0,0,0,0-2.19,1.72,1.72,0,0,0-.25-.66.63.63,0,0,0-1,0,1.58,1.58,0,0,0-.24.66A6.76,6.76,0,0,0,141.32,194.51Z"/><path d="M192,197.37h-2.61v-.69l.7-.32v-3.71l-.7-.32v-.69H192v.69l-.7.32v3.71l.7.32Z"/><path d="M195,192.91a1.6,1.6,0,0,1,1.13.38,1.57,1.57,0,0,1,.43,1.22v2.86h-1.2v-2.56a1.24,1.24,0,0,0-.17-.71.61.61,0,0,0-.54-.24.76.76,0,0,0-.74.38,2.19,2.19,0,0,0-.2,1.07v2.06h-1.2V193h.92l.16.56h.06a1.38,1.38,0,0,1,.35-.37,1.82,1.82,0,0,1,.47-.21A2.33,2.33,0,0,1,195,192.91Z"/><path d="M199.91,192.91a1.45,1.45,0,0,1,1.2.57,2.64,2.64,0,0,1,.46,1.69,3.13,3.13,0,0,1-.22,1.26,1.65,1.65,0,0,1-.59.76,1.55,1.55,0,0,1-.88.26,1.71,1.71,0,0,1-.54-.08,1.22,1.22,0,0,1-.39-.21,1.8,1.8,0,0,1-.28-.27h-.06c0,.1,0,.21,0,.31a1.83,1.83,0,0,1,0,.33v1.77h-1.2V193h1l.16.57h.06a1.81,1.81,0,0,1,.29-.33,1.13,1.13,0,0,1,.4-.23A1.59,1.59,0,0,1,199.91,192.91Zm-.38,1a.82.82,0,0,0-.5.13.81.81,0,0,0-.27.39,2.75,2.75,0,0,0-.09.65v.13a2.86,2.86,0,0,0,.08.72.73.73,0,0,0,.79.6.64.64,0,0,0,.45-.15,1,1,0,0,0,.27-.45,2.55,2.55,0,0,0,.09-.73,1.88,1.88,0,0,0-.2-1A.67.67,0,0,0,199.53,193.86Z"/><path d="M206.25,193v4.38h-.91l-.16-.56h-.06a1.2,1.2,0,0,1-.35.36,1.42,1.42,0,0,1-.47.21,1.88,1.88,0,0,1-.53.07,1.9,1.9,0,0,1-.82-.17,1.2,1.2,0,0,1-.55-.52,1.91,1.91,0,0,1-.19-.92V193h1.2v2.56a1.23,1.23,0,0,0,.16.7.63.63,0,0,0,.54.24.91.91,0,0,0,.58-.16,1,1,0,0,0,.28-.49,3,3,0,0,0,.09-.79V193Z"/><path d="M209,196.49a2.47,2.47,0,0,0,.39,0l.37-.1v.89a3.14,3.14,0,0,1-.48.14,3,3,0,0,1-.62.06,1.68,1.68,0,0,1-.7-.13,1,1,0,0,1-.49-.44,1.83,1.83,0,0,1-.18-.88v-2.11h-.58v-.51l.66-.4.35-.92h.76V193h1.23v.9h-1.23V196a.45.45,0,0,0,.15.37A.55.55,0,0,0,209,196.49Z"/><path d="M121.34,23.73a.39.39,0,0,1,.39.4v5.92h-9.48V24.13a.4.4,0,0,1,.4-.4Zm-8.69-.79a1.19,1.19,0,0,0-1.19,1.19v6.71h11.06V24.13a1.18,1.18,0,0,0-1.18-1.19Zm-2,8.3h12.64a1.18,1.18,0,0,1-1.18,1.18H111.86a1.18,1.18,0,0,1-1.19-1.18"/><path class="cls-6" d="M137.34,27.5c0-.07,0-.13,0-.19a1.1,1.1,0,0,0,0-.18l0-.19c0-.06,0-.12,0-.18s0-.12,0-.18l-.06-.17a1.34,1.34,0,0,0-.07-.18c0-.06-.05-.11-.07-.17l-.09-.16-.09-.17a1.3,1.3,0,0,0-.1-.15c0-.06-.07-.11-.1-.16l-.12-.14-.12-.14-.13-.14-.13-.13-.14-.12-.15-.11-.15-.11-.16-.1-.16-.09-.17-.09-.17-.07-.17-.07-.18-.06-.18-.05-.18,0-.18,0-.19,0H128l-.18,0-.19,0-.18,0-.18.05-.17.06-.18.07-.17.07-.17.09-.16.09-.15.1a.91.91,0,0,0-.16.11l-.14.11-.14.12-.14.13-.13.14-.12.14a.76.76,0,0,0-.11.14.91.91,0,0,0-.11.16l-.1.15-.09.17-.09.16c0,.06,0,.11-.07.17l-.07.18-.06.17a1.21,1.21,0,0,1,0,.18c0,.06,0,.12,0,.18l0,.19a1.1,1.1,0,0,0,0,.18,1.15,1.15,0,0,0,0,.19,1.09,1.09,0,0,0,0,.18,1.21,1.21,0,0,0,0,.19,1.09,1.09,0,0,0,0,.18,1.11,1.11,0,0,0,0,.19l0,.18c0,.06,0,.12,0,.18a1.21,1.21,0,0,1,0,.18l.06.18c0,.06,0,.12.07.17s0,.12.07.17l.09.17.09.16c0,.06.07.11.1.16l.11.15.11.15.12.14a1.59,1.59,0,0,0,.13.13l.14.13.14.12.14.12.16.11.15.1.16.09.17.08.17.08.18.06.17.06.18.05.18,0a1.08,1.08,0,0,0,.19,0l.18,0h5.89l.19,0,.18,0,.18,0,.18-.05.18-.06.17-.06.17-.08.17-.08.16-.09.16-.1.15-.11.15-.12.14-.12a1.59,1.59,0,0,0,.13-.13l.13-.13.12-.14.12-.15.1-.15a.86.86,0,0,0,.1-.16l.09-.16.09-.17c0-.05.05-.11.07-.17a.87.87,0,0,0,.07-.17l.06-.18c0-.06,0-.12,0-.18s0-.12,0-.18l0-.18a1.11,1.11,0,0,0,0-.19c0-.06,0-.12,0-.18V27.5Zm-6.37.4a1.55,1.55,0,0,1,0,.21,2.28,2.28,0,0,1-.12.4l-.09.2a1.74,1.74,0,0,1-.11.18,1.09,1.09,0,0,1-.13.17,1.6,1.6,0,0,1-.3.3,1.09,1.09,0,0,1-.17.13l-.18.11-.2.09-.2.07-.2,0-.21,0h-.43l-.21,0-.21,0-.2-.07-.19-.09-.19-.11-.17-.13-.15-.14-.15-.16-.12-.17a1.74,1.74,0,0,1-.11-.18,1.86,1.86,0,0,1-.1-.2c0-.06-.05-.13-.07-.2a1.17,1.17,0,0,1,0-.2l0-.21a1.62,1.62,0,0,1,0-.22,1.48,1.48,0,0,1,0-.21l0-.21a1.6,1.6,0,0,1,0-.21c0-.07,0-.13.07-.2a1.14,1.14,0,0,1,.1-.19l.11-.19.12-.17.15-.15.15-.15.17-.12.19-.11.19-.1.2-.07.21-.05.21,0H129l.21,0,.2.05.2.07.2.1.18.11.17.12.16.15.14.15.13.17.11.19.09.19a2.08,2.08,0,0,1,.12.41,1.55,1.55,0,0,1,0,.21c0,.07,0,.14,0,.21S131,27.83,131,27.9Z"/><path d="M149.31,23.73a.4.4,0,0,1,.39.4v5.92h-9.48V24.13a.4.4,0,0,1,.39-.4Zm-8.7-.79a1.18,1.18,0,0,0-1.18,1.19v6.71h11.06V24.13a1.18,1.18,0,0,0-1.18-1.19Zm-2,8.3h12.64a1.18,1.18,0,0,1-1.18,1.18H139.82a1.18,1.18,0,0,1-1.18-1.18"/><path d="M117.36,28.59h-.81V25.46h-1V24.8h2.87v.66h-1Z"/><path d="M146.5,28.87h-.81V27.24h-1.5v1.63h-.8V25.08h.8v1.49h1.5V25.08h.81Z"/><path d="M196.18,30.52H195V28.05H192.7v2.47h-1.22V24.79h1.22V27H195V24.79h1.21Z"/><path d="M201.19,28.32a2.86,2.86,0,0,1-.15,1,1.85,1.85,0,0,1-.43.72,1.63,1.63,0,0,1-.67.44,2.48,2.48,0,0,1-.89.15,2.32,2.32,0,0,1-.84-.15,1.7,1.7,0,0,1-.67-.44,1.86,1.86,0,0,1-.44-.72,2.63,2.63,0,0,1-.16-1,2.7,2.7,0,0,1,.26-1.23,1.83,1.83,0,0,1,.74-.77,2.4,2.4,0,0,1,1.14-.26,2.28,2.28,0,0,1,1.09.26,2.06,2.06,0,0,1,.75.77A2.57,2.57,0,0,1,201.19,28.32Zm-3,0a2.55,2.55,0,0,0,.09.73.89.89,0,0,0,.3.44.82.82,0,0,0,.52.15.84.84,0,0,0,.52-.15.94.94,0,0,0,.29-.44,2.55,2.55,0,0,0,.09-.73,2.43,2.43,0,0,0-.09-.72.82.82,0,0,0-.3-.43.84.84,0,0,0-.52-.15.78.78,0,0,0-.69.33A1.79,1.79,0,0,0,198.16,28.32Z"/><path d="M204.91,29.22a1.28,1.28,0,0,1-.21.75,1.21,1.21,0,0,1-.62.47,2.88,2.88,0,0,1-1,.16,4.42,4.42,0,0,1-.78-.06,3.28,3.28,0,0,1-.66-.19v-1a5.21,5.21,0,0,0,.76.26,2.94,2.94,0,0,0,.72.11.88.88,0,0,0,.5-.11.32.32,0,0,0,.15-.27.36.36,0,0,0-.06-.2.66.66,0,0,0-.26-.2,5.56,5.56,0,0,0-.62-.29,5.25,5.25,0,0,1-.68-.35,1.11,1.11,0,0,1-.39-.42,1.25,1.25,0,0,1-.13-.61,1,1,0,0,1,.47-.92,2.35,2.35,0,0,1,1.26-.3,3.22,3.22,0,0,1,.78.08,3.42,3.42,0,0,1,.76.26l-.36.86c-.21-.09-.41-.16-.61-.23a1.9,1.9,0,0,0-.58-.09,1,1,0,0,0-.4.07.23.23,0,0,0-.13.22.28.28,0,0,0,.07.19.93.93,0,0,0,.26.18l.58.26a4.41,4.41,0,0,1,.65.31,1.18,1.18,0,0,1,.42.41A1.24,1.24,0,0,1,204.91,29.22Z"/><path d="M207.37,29.65a2.33,2.33,0,0,0,.38,0l.37-.1v.89a2.83,2.83,0,0,1-.48.14,2.9,2.9,0,0,1-.62.06,1.75,1.75,0,0,1-.7-.13,1,1,0,0,1-.49-.44,1.8,1.8,0,0,1-.18-.88V27h-.57v-.51l.66-.4.34-.92h.77v.93h1.22V27h-1.22v2.11a.45.45,0,0,0,.14.37A.53.53,0,0,0,207.37,29.65Z"/><path d="M200.66,181.61V120.7h-2.47v60.91a3.12,3.12,0,1,0,2.47,0ZM199.42,186a1.53,1.53,0,1,1,1.53-1.53A1.53,1.53,0,0,1,199.42,186Z"/><path d="M202.37,44.23h-1.59a.83.83,0,0,1-.44-.12l-.92-.55-.92.55a.86.86,0,0,1-.44.12h-1.59a.87.87,0,0,1-.74-.42.86.86,0,0,1,0-.85l3-5.11a.91.91,0,0,1,1.48,0L203.1,43a.85.85,0,0,1,0,.86A.87.87,0,0,1,202.37,44.23Zm0-1h0Z"/><path d="M269.69,181.61v-61h-2.46v61"/><path d="M265.57,180.81h1.59a.88.88,0,0,1,.44.12l.92.55.92-.55a.83.83,0,0,1,.44-.12h1.58a.85.85,0,0,1,.74.42.86.86,0,0,1,0,.85l-2.95,5.11a.9.9,0,0,1-1.47,0l-2.95-5.1a.88.88,0,0,1,0-.86A.86.86,0,0,1,265.57,180.81Zm0,1Z"/><path d="M268.73,116.87H257.32a1.77,1.77,0,0,1-1.77-1.77v-6.33a1.77,1.77,0,0,1,1.77-1.77h11.41a1.77,1.77,0,0,1,1.77,1.77v6.33A1.77,1.77,0,0,1,268.73,116.87ZM257.32,108a.77.77,0,0,0-.77.77v6.33a.78.78,0,0,0,.77.77h11.41a.77.77,0,0,0,.76-.77v-6.33a.76.76,0,0,0-.76-.77Z"/><rect x="260.49" y="113.34" width="5.07" height="1"/><rect x="258.59" y="111.44" width="1.27" height="1"/><rect x="261.12" y="111.44" width="1.27" height="1"/><rect x="263.65" y="111.44" width="1.27" height="1"/><rect x="266.19" y="111.44" width="1.27" height="1"/><rect x="258.59" y="109.53" width="1.27" height="1"/><rect x="261.12" y="109.53" width="1.27" height="1"/><rect x="263.65" y="109.53" width="1.27" height="1"/><rect x="266.19" y="109.53" width="1.27" height="1"/><polygon points="278.75 111.34 271.11 111.34 271.11 110.33 274.43 110.33 274.43 106.78 275.43 106.78 275.43 110.33 278.75 110.33 278.75 111.34"/><path d="M274.93,117a3.83,3.83,0,0,1-3.82-3.82v-2.85a3.82,3.82,0,0,1,7.64,0v2.85A3.83,3.83,0,0,1,274.93,117Zm0-9.48a2.81,2.81,0,0,0-2.81,2.81v2.85a2.82,2.82,0,0,0,5.63,0v-2.85A2.81,2.81,0,0,0,274.93,107.55Z"/><path d="M205.73,114.13H193.87a.5.5,0,0,1-.5-.5V107a.5.5,0,0,1,.5-.5h11.86a.5.5,0,0,1,.5.5v6.59A.5.5,0,0,1,205.73,114.13Zm-11.36-1h10.86v-5.58H194.37Z"/><path d="M203.52,117h-7.44a.51.51,0,0,1,0-1h7.44a.51.51,0,0,1,0,1Z"/><rect x="199.15" y="113.63" width="1" height="2.9"/><path d="M134.82,111.78a4.76,4.76,0,0,0-4.74-4.74,4.65,4.65,0,0,0-3,1l.57.75a3.81,3.81,0,0,1,6.21,2.94h-1.66l2.13,2.66,2.14-2.66Z"/><path d="M132.5,114.72a4,4,0,0,1-2.42.86,3.8,3.8,0,0,1-3.79-3.8h1.65l-2.13-2.65-2.13,2.65h1.66a4.75,4.75,0,0,0,4.74,4.74,4.65,4.65,0,0,0,3-1Z"/><rect x="198.19" y="41.36" width="2.47" height="61.24"/><path d="M220,31.76l47.23,70.53h2.47L222.09,30.41A3.11,3.11,0,1,0,220,31.76Zm-1.36-4.35a1.53,1.53,0,1,1-.44,2.11A1.52,1.52,0,0,1,218.66,27.41Z"/><path d="M130.13,37.13a3.45,3.45,0,0,0-1.57,6.52v59.54h3.13V43.65a3.45,3.45,0,0,0-1.56-6.52Zm1.1,6-.21.08v59.31h-1.79V43.21l-.2-.08a2.77,2.77,0,1,1,2.2,0Z"/><path d="M130.13,39.19a1.39,1.39,0,1,0,1.39,1.39A1.4,1.4,0,0,0,130.13,39.19Z"/><path d="M130.13,182.73a1.4,1.4,0,1,0,0,2.79,1.4,1.4,0,0,0,0-2.79Z"/><path d="M131.69,181.06V120.31H131v61.18l.21.09a2.78,2.78,0,1,1-2.2,0l.2-.09V120.31h-.67v60.75a3.45,3.45,0,1,0,3.13,0Z"/><rect x="128.56" y="120.31" width="3.14" height="0.68"/><path d="M252.73,31.19h1.55v.73h-1.55Z"/><path d="M272.34,31.19h1.55v.73h-1.55Z"/><path d="M242.44,31.22h.9v-1h.72v1h.9v.67h-.9v1h-.72v-1h-.9Z"/><path d="M262.05,31.22h.89v-1h.73v1h.9v.67h-.9v1h-.73v-1h-.89Z"/><path d="M230.37,30.32c-.11-.23-.21-.47-.32-.73s-.21-.5-.31-.74-.19-.48-.27-.71l-.21-.6H230c.06.16.11.33.18.52s.13.37.19.56.13.36.19.53.12.31.18.43l.17-.43c.06-.17.12-.35.19-.53s.13-.37.19-.56.13-.36.18-.52h.66l-.21.6c-.08.23-.17.46-.27.71s-.19.49-.3.75-.22.49-.33.72Z"/><path d="M233.61,30.38a1.38,1.38,0,0,1-1-.38,1.53,1.53,0,0,1-.35-1.07,1.71,1.71,0,0,1,.11-.62,1.31,1.31,0,0,1,.3-.46,1.28,1.28,0,0,1,.45-.28,1.69,1.69,0,0,1,.56-.09l.32,0,.25.06.19.07.1.06-.18.5a2.09,2.09,0,0,0-.3-.11,1.48,1.48,0,0,0-.39,0,.92.92,0,0,0-.28,0,.61.61,0,0,0-.24.15.71.71,0,0,0-.18.28,1.22,1.22,0,0,0-.06.41,1.37,1.37,0,0,0,0,.36.82.82,0,0,0,.14.28.54.54,0,0,0,.25.19.82.82,0,0,0,.37.07h.24l.19,0,.15-.05.12,0,.17.5a1.51,1.51,0,0,1-.37.14A1.91,1.91,0,0,1,233.61,30.38Z"/><path d="M236.11,30.38a1.34,1.34,0,0,1-1-.38,1.49,1.49,0,0,1-.36-1.07,1.71,1.71,0,0,1,.11-.62,1.31,1.31,0,0,1,.3-.46,1.28,1.28,0,0,1,.45-.28,1.69,1.69,0,0,1,.56-.09l.32,0,.26.06.18.07.1.06-.18.5a2.09,2.09,0,0,0-.3-.11,1.48,1.48,0,0,0-.39,0,.92.92,0,0,0-.28,0,.61.61,0,0,0-.24.15.85.85,0,0,0-.18.28,1.22,1.22,0,0,0-.06.41,2,2,0,0,0,0,.36.82.82,0,0,0,.14.28.54.54,0,0,0,.25.19.82.82,0,0,0,.37.07h.24l.19,0,.15-.05.12,0,.17.5a1.51,1.51,0,0,1-.37.14A1.91,1.91,0,0,1,236.11,30.38Z"/><path d="M245.11,24.6h.5v2.78h-.5V26.15H243.9v1.23h-.51V24.6h.51v1.11h1.21Z"/><path d="M247.91,26.33a1.29,1.29,0,0,1-.07.45,1,1,0,0,1-.21.35.94.94,0,0,1-.32.23,1.07,1.07,0,0,1-.41.08,1.11,1.11,0,0,1-.41-.08.9.9,0,0,1-.31-.23,1,1,0,0,1-.21-.35,1.29,1.29,0,0,1-.08-.45,1.25,1.25,0,0,1,.08-.45,1,1,0,0,1,.21-.35.8.8,0,0,1,.32-.22.9.9,0,0,1,.4-.08.91.91,0,0,1,.41.08.87.87,0,0,1,.32.22,1,1,0,0,1,.21.35A1.25,1.25,0,0,1,247.91,26.33Zm-.5,0a.82.82,0,0,0-.13-.5.45.45,0,0,0-.38-.18.43.43,0,0,0-.37.18,1,1,0,0,0,0,1,.43.43,0,0,0,.37.18.45.45,0,0,0,.38-.18A.82.82,0,0,0,247.41,26.33Z"/><path d="M248.7,27A.67.67,0,0,0,249,27a.16.16,0,0,0,.09-.15.21.21,0,0,0-.1-.18,1.8,1.8,0,0,0-.31-.15,1.33,1.33,0,0,1-.24-.1.69.69,0,0,1-.19-.12.46.46,0,0,1-.13-.18.62.62,0,0,1,0-.25.58.58,0,0,1,.22-.46.91.91,0,0,1,.58-.16,2,2,0,0,1,.35,0l.25.07-.09.39-.2-.06a1.23,1.23,0,0,0-.29,0,.43.43,0,0,0-.24.05.16.16,0,0,0-.09.15.22.22,0,0,0,0,.09l.07.08.11.07.18.07.29.12a.78.78,0,0,1,.2.14.57.57,0,0,1,.12.18.88.88,0,0,1,0,.24.53.53,0,0,1-.22.46,1.14,1.14,0,0,1-.64.15,1.78,1.78,0,0,1-.44,0l-.24-.08.08-.4.26.08A1.25,1.25,0,0,0,248.7,27Z"/><path d="M249.74,24.73l.49-.08v.63H251v.41h-.74v.85a.56.56,0,0,0,.08.36.31.31,0,0,0,.27.11.75.75,0,0,0,.23,0l.17-.05.08.39-.22.07a1.47,1.47,0,0,1-.32,0,1,1,0,0,1-.38-.06.55.55,0,0,1-.24-.18.61.61,0,0,1-.12-.27,1.48,1.48,0,0,1,0-.38Z"/><path d="M254.28,26a1.73,1.73,0,0,1-.11.63,1.28,1.28,0,0,1-.32.44,1.34,1.34,0,0,1-.5.27,2.55,2.55,0,0,1-.64.08h-.39a2.57,2.57,0,0,1-.4-.06v-2.7a2.7,2.7,0,0,1,.41-.06h.38a2.49,2.49,0,0,1,.64.08,1.32,1.32,0,0,1,.5.26,1.19,1.19,0,0,1,.32.44A1.75,1.75,0,0,1,254.28,26Zm-1.85,1h.31a1,1,0,0,0,.76-.26,1.18,1.18,0,0,0,0-1.45,1,1,0,0,0-.75-.25h-.32Z"/><path d="M263,24.41v.44h-.86v2.34h-.51V24.85h-.85v-.44Z"/><path d="M263.68,25a1.18,1.18,0,0,1,.41.06.54.54,0,0,1,.26.17.51.51,0,0,1,.14.26,1.21,1.21,0,0,1,.05.34v1.27l-.34.06a4.05,4.05,0,0,1-.52,0,1.79,1.79,0,0,1-.34,0,.83.83,0,0,1-.27-.12.51.51,0,0,1-.17-.21.71.71,0,0,1-.06-.31.57.57,0,0,1,.07-.31.52.52,0,0,1,.19-.2.78.78,0,0,1,.28-.11,1.15,1.15,0,0,1,.33,0h.17l.19,0v-.08a1,1,0,0,0,0-.17.54.54,0,0,0-.07-.13.34.34,0,0,0-.14-.09.56.56,0,0,0-.2,0l-.31,0-.23.06-.06-.4.27-.06A2.13,2.13,0,0,1,263.68,25Zm.05,1.81a1.52,1.52,0,0,0,.34,0v-.53l-.12,0h-.33a.53.53,0,0,0-.15,0,.31.31,0,0,0-.11.09.29.29,0,0,0,0,.14.25.25,0,0,0,.11.24A.51.51,0,0,0,263.73,26.85Z"/><path d="M266.16,25.53l-.16,0a1,1,0,0,0-.25,0l-.17,0-.13,0v1.68H265v-2l.35-.1a2.29,2.29,0,0,1,.47,0h.11l.13,0,.12,0,.1,0Z"/><path d="M268.16,27a.94.94,0,0,1-.25.73,1.15,1.15,0,0,1-.79.24,2.33,2.33,0,0,1-.37,0l-.33-.08.09-.42a1,1,0,0,0,.28.09,1.79,1.79,0,0,0,.34,0,.59.59,0,0,0,.42-.12.49.49,0,0,0,.12-.36V27a.58.58,0,0,1-.19.07.73.73,0,0,1-.27,0,1,1,0,0,1-.36-.06,1,1,0,0,1-.29-.19.79.79,0,0,1-.18-.31,1.18,1.18,0,0,1-.07-.43,1.09,1.09,0,0,1,.07-.42.91.91,0,0,1,.2-.33.83.83,0,0,1,.33-.22,1.23,1.23,0,0,1,.44-.07,3.19,3.19,0,0,1,.45,0l.36.08Zm-1.35-.89a.65.65,0,0,0,.13.45.48.48,0,0,0,.35.14.78.78,0,0,0,.22,0,.48.48,0,0,0,.16-.08V25.48l-.12,0h-.2a.48.48,0,0,0-.4.18A.67.67,0,0,0,266.81,26.09Z"/><path d="M268.5,26.15a1.38,1.38,0,0,1,.08-.48,1.1,1.1,0,0,1,.22-.35.9.9,0,0,1,.31-.21.94.94,0,0,1,.37-.07.86.86,0,0,1,.67.27,1.16,1.16,0,0,1,.24.8v.18H269a.6.6,0,0,0,.18.39.7.7,0,0,0,.46.14,1.51,1.51,0,0,0,.32,0,1.3,1.3,0,0,0,.23-.07l.07.4-.11,0-.16,0-.2,0h-.21a1.42,1.42,0,0,1-.48-.08.93.93,0,0,1-.34-.23.88.88,0,0,1-.19-.34A1.27,1.27,0,0,1,268.5,26.15Zm1.41-.22a.63.63,0,0,0,0-.19.36.36,0,0,0-.08-.15.45.45,0,0,0-.13-.11.58.58,0,0,0-.19,0,.46.46,0,0,0-.2,0,.36.36,0,0,0-.14.11.38.38,0,0,0-.09.15,1.16,1.16,0,0,0,0,.18Z"/><path d="M270.72,24.54l.49-.08v.63H272v.41h-.75v.85a.64.64,0,0,0,.08.36.31.31,0,0,0,.27.11.88.88,0,0,0,.24,0l.16-.05.08.39-.22.07a1.26,1.26,0,0,1-.7,0,.55.55,0,0,1-.24-.18.74.74,0,0,1-.12-.27,2.1,2.1,0,0,1,0-.37Z"/><path d="M275.42,25.8a1.54,1.54,0,0,1-.11.63,1.16,1.16,0,0,1-.32.44,1.34,1.34,0,0,1-.5.27,2.49,2.49,0,0,1-.64.08h-.38a2.7,2.7,0,0,1-.41-.06v-2.7a2.7,2.7,0,0,1,.41-.06h.39a2.61,2.61,0,0,1,.64.08,1.36,1.36,0,0,1,.49.26,1.09,1.09,0,0,1,.32.44A1.56,1.56,0,0,1,275.42,25.8Zm-1.85,1h.31a1,1,0,0,0,.76-.26,1,1,0,0,0,.25-.72.87.87,0,0,0-1-1h-.32Z"/><path d="M286.09,22.94H230.72a3,3,0,0,0-3,3v5.69a3,3,0,0,0,3,3h55.37a3,3,0,0,0,3-3V25.93A3,3,0,0,0,286.09,22.94Zm-47.79,11h-7.58a2.32,2.32,0,0,1-2.32-2.32V25.93a2.32,2.32,0,0,1,2.32-2.32h7.58Zm9.91,0H239V29.11h9.25Zm9.86,0h-9.19V29.11h9.19Zm0-5.5H239V23.61h19.11Zm9.86,5.5h-9.19V29.11h9.19Zm9.85,0H268.6V29.11h9.18Zm0-5.5h-19V23.61h19Zm3.89,1.84a2.21,2.21,0,0,1-.37.09,2.68,2.68,0,0,1-.61.05,1.7,1.7,0,0,1-.57-.09,1.17,1.17,0,0,1-.43-.29,1.15,1.15,0,0,1-.28-.45,1.85,1.85,0,0,1,0-1.23,1.31,1.31,0,0,1,.3-.46,1.33,1.33,0,0,1,.44-.28,1.62,1.62,0,0,1,.54-.1,2,2,0,0,1,.36,0l.27.06.19.07.11.06-.19.5a1.1,1.1,0,0,0-.29-.12,1.36,1.36,0,0,0-.36-.05.77.77,0,0,0-.64.24A1.07,1.07,0,0,0,280,29a1.44,1.44,0,0,0,.05.37,1,1,0,0,0,.14.29.69.69,0,0,0,.24.18.74.74,0,0,0,.34.07H281v-1h.63Zm3,.09h-.53c-.18-.32-.37-.63-.58-.94a10.09,10.09,0,0,0-.66-.88v1.82h-.62V27.59h.51l.29.32q.17.19.33.42t.33.45l.31.45V27.59h.62Zm3-.76a1.17,1.17,0,0,1-.31.44,1.38,1.38,0,0,1-.51.27,2.29,2.29,0,0,1-.66.09l-.4,0a3.32,3.32,0,0,1-.44-.06V27.62l.45-.05h.41a2.16,2.16,0,0,1,.64.08,1.18,1.18,0,0,1,.5.25,1.09,1.09,0,0,1,.32.44,1.6,1.6,0,0,1,.12.65A1.54,1.54,0,0,1,287.6,29.61Z"/><path d="M286.17,28.09h-.26v1.76h.24a.9.9,0,0,0,.69-.24.86.86,0,0,0,.23-.65.92.92,0,0,0-.22-.67A.9.9,0,0,0,286.17,28.09Z"/><rect class="cls-1" width="340.16" height="240.94"/></g></g></svg>