<svg xmlns="http://www.w3.org/2000/svg" viewBox="0 0 283.46 127.56"><defs><style>.cls-1{font-size:10.23px;font-family:ArialMT, Arial;}.cls-2{letter-spacing:-0.06em;}.cls-3,.cls-5{fill:none;}.cls-3{stroke:#000;stroke-linecap:round;stroke-linejoin:round;stroke-width:0.5px;}.cls-4{font-size:12px;font-family:KozGoPr6N-Regular-83pv-RKSJ-H, Kozuka Gothic Pr6N;}</style></defs><g id="Layer_2" data-name="Layer 2"><g id="Layer_3" data-name="Layer 3"><text class="cls-1" transform="translate(131.1 89.91)">Host</text><text class="cls-1" transform="translate(54.02 89.91)">Switcher of<tspan x="-0.85" y="12">USB-</tspan><tspan class="cls-2" x="23.58" y="12">A</tspan><tspan x="29.83" y="12" xml:space="preserve"> Port</tspan></text><text class="cls-1" transform="translate(179.47 89.91)">Extension<tspan x="12.51" y="12">Pins</tspan></text><path class="cls-3" d="M88.86,38a1.8,1.8,0,0,0,1.8-1.79"/><line class="cls-3" x1="90.58" y1="28.98" x2="90.58" y2="36.15"/><path class="cls-3" d="M71.9,36.18A1.79,1.79,0,0,0,73.69,38"/><line class="cls-3" x1="88.83" y1="37.97" x2="73.66" y2="37.97"/><path class="cls-3" d="M90.66,29a1.8,1.8,0,0,0-1.8-1.79"/><line class="cls-3" x1="73.66" y1="27.15" x2="88.83" y2="27.15"/><path class="cls-3" d="M73.69,27.23A1.79,1.79,0,0,0,71.9,29"/><line class="cls-3" x1="71.83" y1="36.15" x2="71.83" y2="28.98"/><path class="cls-3" d="M55.75,17.48a18.94,18.94,0,1,0,0,37.86"/><line class="cls-3" x1="227.65" y1="55.28" x2="55.74" y2="55.28"/><path class="cls-3" d="M227.72,55.34a18.94,18.94,0,1,0,.65-37.87"/><line class="cls-3" x1="55.74" y1="17.39" x2="228.33" y2="17.39"/><path class="cls-3" d="M227.64,59.69a23.29,23.29,0,1,0,.73-46.57"/><line class="cls-3" x1="227.65" y1="55.28" x2="227.65" y2="59.63"/><polyline class="cls-3" points="55.74 55.28 55.82 59.63 227.65 59.63"/><path class="cls-3" d="M55.83,13.06a23.28,23.28,0,1,0,0,46.55"/><polyline class="cls-3" points="55.74 17.39 55.82 13.05 228.33 13.05"/><line class="cls-3" x1="53.61" y1="13.05" x2="54.29" y2="13.05"/><line class="cls-3" x1="54.29" y1="59.63" x2="53.61" y2="59.63"/><line class="cls-3" x1="87.68" y1="37.59" x2="89.13" y2="37.59"/><line class="cls-3" x1="72.59" y1="37.59" x2="73.27" y2="37.59"/><line class="cls-3" x1="89.13" y1="37.59" x2="89.13" y2="37.9"/><polyline class="cls-3" points="87.68 37.59 87.68 29.36 73.28 29.36 73.28 30.43"/><line class="cls-3" x1="87" y1="29.36" x2="87" y2="37.59"/><polyline class="cls-3" points="73.28 37.59 75.1 37.59 76.93 37.59 78.69 37.59 80.52 37.59"/><polyline class="cls-3" points="80.52 30.43 78.69 30.43 76.93 30.43"/><polyline class="cls-3" points="76.93 30.43 75.1 30.43 73.28 30.43"/><line class="cls-3" x1="78.69" y1="37.59" x2="78.69" y2="30.43"/><line class="cls-3" x1="80.52" y1="37.59" x2="80.52" y2="30.43"/><line class="cls-3" x1="75.1" y1="30.43" x2="75.1" y2="37.59"/><line class="cls-3" x1="73.27" y1="30.43" x2="73.27" y2="37.59"/><line class="cls-3" x1="76.93" y1="30.43" x2="76.93" y2="37.59"/><line class="cls-3" x1="89.13" y1="37.59" x2="89.13" y2="37.9"/><line class="cls-3" x1="72.59" y1="37.59" x2="73.27" y2="37.59"/><line class="cls-3" x1="80.52" y1="37.59" x2="89.13" y2="37.59"/><line class="cls-3" x1="153.93" y1="34.62" x2="153.93" y2="37.14"/><polyline class="cls-3" points="128.77 37.14 128.77 34.62 130.22 34.62 152.48 34.62 153.93 34.62"/><polyline class="cls-3" points="153.93 37.14 152.48 37.14 130.22 37.14 128.77 37.14"/><polyline class="cls-3" points="130.53 35.15 130.53 36.6 152.18 36.6 152.18 35.15 130.53 35.15"/><line class="cls-3" x1="130.22" y1="37.14" x2="130.53" y2="36.6"/><line class="cls-3" x1="130.53" y1="35.15" x2="130.22" y2="34.62"/><line class="cls-3" x1="152.18" y1="36.6" x2="152.48" y2="37.14"/><line class="cls-3" x1="152.48" y1="34.62" x2="152.18" y2="35.15"/><line class="cls-3" x1="129.76" y1="40.11" x2="152.94" y2="40.11"/><path class="cls-3" d="M153,40.19a3.09,3.09,0,0,0,3.08-3.09"/><line class="cls-3" x1="155.99" y1="37.06" x2="155.99" y2="34.7"/><path class="cls-3" d="M156.06,34.73A3.08,3.08,0,0,0,153,31.65"/><line class="cls-3" x1="152.94" y1="31.65" x2="129.76" y2="31.65"/><path class="cls-3" d="M129.8,31.65a3.09,3.09,0,0,0-3.09,3.08"/><line class="cls-3" x1="126.71" y1="34.7" x2="126.71" y2="37.06"/><path class="cls-3" d="M126.71,37.1a3.1,3.1,0,0,0,3.09,3.09"/><rect class="cls-3" x="173.64" y="36.25" width="5.79" height="5.79"/><rect class="cls-3" x="218.8" y="36.25" width="5.79" height="5.79"/><rect class="cls-3" x="209.77" y="36.25" width="5.79" height="5.79"/><rect class="cls-3" x="200.74" y="36.25" width="5.79" height="5.79"/><rect class="cls-3" x="191.71" y="36.25" width="5.79" height="5.79"/><rect class="cls-3" x="182.67" y="36.25" width="5.79" height="5.79"/><rect class="cls-3" x="170.69" y="33.92" width="56.85" height="10.45"/><text class="cls-4" transform="translate(135.61 73.93)">①</text><text class="cls-4" transform="translate(73.31 73.93)">⑤</text><text class="cls-4" transform="translate(195.92 73.93)">⑥</text><rect class="cls-5" width="283.46" height="127.56"/></g></g></svg>