<svg xmlns="http://www.w3.org/2000/svg" viewBox="0 0 283.46 127.56"><defs><style>.cls-1,.cls-2{fill:none;}.cls-2{stroke:#000;stroke-linecap:round;stroke-linejoin:round;stroke-width:0.5px;}.cls-3,.cls-5{font-size:10.23px;font-family:ArialMT, Arial;}.cls-3{letter-spacing:-0.04em;}.cls-4{letter-spacing:0em;}.cls-6{letter-spacing:-0.06em;}.cls-7{font-size:8px;letter-spacing:-0.02em;}.cls-8{letter-spacing:-0.04em;}.cls-9{letter-spacing:-0.13em;}.cls-10{font-size:12px;font-family:KozGoPr6N-Regular-83pv-RKSJ-H, Kozuka Gothic Pr6N;}</style></defs><g id="Layer_2" data-name="Layer 2"><g id="Layer_3" data-name="Layer 3"><rect class="cls-1" width="283.46" height="127.56"/><line class="cls-2" x1="55.63" y1="31.11" x2="104.64" y2="31.11"/><line class="cls-2" x1="125.15" y1="31.11" x2="165.02" y2="31.11"/><line class="cls-2" x1="194.52" y1="31.11" x2="199.1" y2="31.11"/><line class="cls-2" x1="222.35" y1="31.11" x2="227.46" y2="31.11"/><polyline class="cls-2" points="173.18 39.04 172.65 39.04 172.65 36.76"/><line class="cls-2" x1="193.53" y1="36.15" x2="194.6" y2="36.15"/><line class="cls-2" x1="193.53" y1="36.3" x2="194.6" y2="36.3"/><line class="cls-2" x1="194.22" y1="39.04" x2="194.6" y2="39.04"/><polyline class="cls-2" points="194.6 34.62 194.45 34.62 194.45 34.09 194.6 34.09"/><line class="cls-2" x1="194.45" y1="34.09" x2="194.45" y2="33.32"/><path class="cls-2" d="M125.73,31.18a6.37,6.37,0,0,0-.35.55"/><path class="cls-2" d="M160.19,31.54l-.12-.18"/><line class="cls-2" x1="172.64" y1="39.04" x2="172.34" y2="39.04"/><path class="cls-2" d="M117.08,43.75a14.13,14.13,0,0,0,1.27,2.44"/><path class="cls-2" d="M55.09,59.61c.49,0,1,0,1.46,0"/><path class="cls-2" d="M56.54,13.06c-.5,0-1,0-1.51,0"/><line class="cls-2" x1="229.06" y1="59.62" x2="228.68" y2="59.62"/><path class="cls-2" d="M229.1,59.62a23.28,23.28,0,1,0-.73-46.56"/><line class="cls-2" x1="56.54" y1="13.05" x2="228.37" y2="13.05"/><line class="cls-2" x1="193.61" y1="33.25" x2="194.6" y2="33.25"/><line class="cls-2" x1="194.6" y1="33.1" x2="193.61" y2="33.1"/><line class="cls-2" x1="194.6" y1="33.32" x2="193.61" y2="33.32"/><line class="cls-2" x1="194.6" y1="31.27" x2="194.37" y2="31.27"/><line class="cls-2" x1="193.61" y1="33.1" x2="194.6" y2="33.1"/><line class="cls-2" x1="157.25" y1="31.11" x2="157.17" y2="31.11"/><line class="cls-2" x1="159" y1="31.11" x2="158.92" y2="31.11"/><line class="cls-2" x1="159.08" y1="31.19" x2="159.08" y2="31.19"/><line class="cls-2" x1="159.08" y1="31.11" x2="159.08" y2="31.11"/><line class="cls-2" x1="159.08" y1="31.19" x2="159.08" y2="31.19"/><line class="cls-2" x1="159.08" y1="31.11" x2="159.08" y2="31.11"/><line class="cls-2" x1="159.08" y1="31.19" x2="159.08" y2="31.19"/><line class="cls-2" x1="157.09" y1="31.11" x2="157.55" y2="31.11"/><line class="cls-2" x1="158.24" y1="31.11" x2="159.08" y2="31.11"/><path class="cls-2" d="M159.1,31.23a2.72,2.72,0,0,0-.08.47"/><polyline class="cls-2" points="159.07 31.11 159.07 31.11 159.07 31.19"/><path class="cls-2" d="M157.23,31.7a4.2,4.2,0,0,0-.08-.47"/><polyline class="cls-2" points="157.09 31.11 157.09 31.11 157.09 31.19"/><line class="cls-2" x1="159" y1="31.11" x2="159" y2="31.11"/><line class="cls-2" x1="157.17" y1="31.11" x2="157.17" y2="31.11"/><polyline class="cls-2" points="160.45 31.65 160.45 31.19 160.45 31.11"/><line class="cls-2" x1="162.66" y1="31.19" x2="162.66" y2="31.65"/><polyline class="cls-2" points="160.83 31.65 160.83 31.19 160.91 31.11"/><polyline class="cls-2" points="162.66 31.19 162.66 31.11 162.58 31.11"/><polyline class="cls-2" points="164.11 31.11 164.03 31.19 164.03 31.5"/><polyline class="cls-2" points="147.87 31.65 147.87 31.19 147.41 31.19"/><line class="cls-2" x1="146.65" y1="31.19" x2="145.66" y2="31.19"/><line class="cls-2" x1="144.9" y1="31.19" x2="144.13" y2="31.19"/><line class="cls-2" x1="142.76" y1="31.19" x2="142.08" y2="31.19"/><line class="cls-2" x1="141.31" y1="31.19" x2="140.25" y2="31.19"/><polyline class="cls-2" points="139.48 31.19 139.03 31.19 139.03 31.65"/><polyline class="cls-2" points="136.89 31.65 136.89 31.19 136.66 31.19"/><line class="cls-2" x1="135.67" y1="31.19" x2="134.83" y2="31.19"/><line class="cls-2" x1="133.92" y1="31.19" x2="133.16" y2="31.19"/><line class="cls-2" x1="131.78" y1="31.19" x2="131.25" y2="31.19"/><line class="cls-2" x1="130.34" y1="31.19" x2="129.42" y2="31.19"/><polyline class="cls-2" points="128.58 31.19 128.05 31.19 128.05 31.65"/><line class="cls-2" x1="140.25" y1="31.11" x2="140.25" y2="31.57"/><polyline class="cls-2" points="128.73 31.57 128.58 31.57 128.58 31.11"/><polyline class="cls-2" points="130.49 31.57 130.34 31.57 130.34 31.11"/><polyline class="cls-2" points="144.9 31.57 144.9 31.57 144.9 31.11"/><polyline class="cls-2" points="134.15 31.57 133.92 31.57 133.92 31.11"/><polyline class="cls-2" points="146.73 31.57 146.65 31.57 146.65 31.11"/><polyline class="cls-2" points="135.9 31.57 135.67 31.57 135.67 31.11"/><line class="cls-2" x1="144.13" y1="31.57" x2="144.13" y2="31.11"/><line class="cls-2" x1="142.76" y1="31.57" x2="142.76" y2="31.11"/><line class="cls-2" x1="144.13" y1="31.57" x2="143.83" y2="31.57"/><line class="cls-2" x1="143.14" y1="31.57" x2="142.76" y2="31.57"/><line class="cls-2" x1="133.16" y1="31.57" x2="133.16" y2="31.11"/><line class="cls-2" x1="131.78" y1="31.57" x2="131.78" y2="31.11"/><line class="cls-2" x1="133.16" y1="31.57" x2="133" y2="31.57"/><line class="cls-2" x1="132.32" y1="31.57" x2="131.78" y2="31.57"/><polyline class="cls-2" points="164.03 31.65 164.03 31.19 164.03 31.11 163.95 31.11"/><line class="cls-2" x1="149.93" y1="31.11" x2="149.85" y2="31.19"/><polyline class="cls-2" points="151.68 31.65 151.68 31.19 151.68 31.11 151.6 31.11"/><line class="cls-2" x1="149.85" y1="31.65" x2="149.85" y2="31.19"/><polyline class="cls-2" points="144.82 31.19 144.82 31.19 144.82 31.11 144.74 31.11"/><polyline class="cls-2" points="133.84 31.19 133.84 31.19 133.84 31.11 133.77 31.11"/><polyline class="cls-2" points="127.06 31.11 126.98 31.11 126.98 31.19 126.98 31.65"/><line class="cls-2" x1="149.77" y1="31.11" x2="149.85" y2="31.11"/><line class="cls-2" x1="151.68" y1="31.11" x2="151.76" y2="31.11"/><line class="cls-2" x1="151.76" y1="31.19" x2="151.76" y2="31.19"/><line class="cls-2" x1="151.76" y1="31.11" x2="151.76" y2="31.11"/><line class="cls-2" x1="151.76" y1="31.19" x2="151.76" y2="31.19"/><line class="cls-2" x1="151.76" y1="31.11" x2="151.76" y2="31.11"/><line class="cls-2" x1="151.76" y1="31.19" x2="151.76" y2="31.19"/><path class="cls-2" d="M151.78,31.23a2.72,2.72,0,0,0-.08.47"/><polyline class="cls-2" points="151.76 31.11 151.76 31.11 151.76 31.19"/><path class="cls-2" d="M149.91,31.7a4.2,4.2,0,0,0-.08-.47"/><polyline class="cls-2" points="149.78 31.11 149.78 31.11 149.78 31.19"/><line class="cls-2" x1="151.68" y1="31.11" x2="151.68" y2="31.11"/><line class="cls-2" x1="149.85" y1="31.11" x2="149.85" y2="31.11"/><line class="cls-2" x1="228.37" y1="33.25" x2="226.85" y2="33.25"/><line class="cls-2" x1="55.47" y1="51.32" x2="104.8" y2="51.32"/><line class="cls-2" x1="56.69" y1="33.25" x2="55.47" y2="33.25"/><path class="cls-2" d="M48.61,36.41a4.16,4.16,0,1,0-4.15,4.16,4.15,4.15,0,0,0,4.15-4.16"/><line class="cls-2" x1="118.29" y1="47.5" x2="117.45" y2="48.34"/><path class="cls-2" d="M234.47,36.41a4.16,4.16,0,1,0,4.16-4.15,4.16,4.16,0,0,0-4.16,4.15"/><line class="cls-2" x1="228.45" y1="34.01" x2="228.45" y2="36.6"/><line class="cls-2" x1="116.99" y1="46.44" x2="116.99" y2="38.74"/><path class="cls-2" d="M55.55,51.2v.16"/><path class="cls-2" d="M169.25,50.48a4,4,0,0,0,3.93-4"/><line class="cls-2" x1="169.21" y1="50.4" x2="120.96" y2="50.4"/><path class="cls-2" d="M117.07,46.47a4,4,0,0,0,3.93,4"/><line class="cls-2" x1="173.18" y1="38.74" x2="173.18" y2="46.44"/><path class="cls-2" d="M223.84,41.33a4.68,4.68,0,0,0,4.68-4.69"/><line class="cls-2" x1="223.8" y1="41.25" x2="198.18" y2="41.25"/><path class="cls-2" d="M193.53,36.64a4.69,4.69,0,0,0,4.69,4.69"/><line class="cls-2" x1="193.53" y1="36.6" x2="193.53" y2="34.01"/><path class="cls-2" d="M104.8,32.07a2.86,2.86,0,0,0-2.86-2.86"/><line class="cls-2" x1="58.37" y1="29.13" x2="101.9" y2="29.13"/><path class="cls-2" d="M58.41,29.21a2.86,2.86,0,0,0-2.86,2.86"/><line class="cls-2" x1="55.47" y1="51.16" x2="55.47" y2="32.03"/><line class="cls-2" x1="104.8" y1="32.03" x2="104.8" y2="51.16"/><path class="cls-2" d="M104.79,51.36a.81.81,0,0,0,0-.16"/><path class="cls-2" d="M232.34,36.41a6.29,6.29,0,1,0,6.29-6.29,6.28,6.28,0,0,0-6.29,6.29"/><line class="cls-2" x1="54.33" y1="17.39" x2="228.68" y2="17.39"/><path class="cls-2" d="M54.37,17.47a18.95,18.95,0,1,0,0,37.89"/><line class="cls-2" x1="228.68" y1="55.28" x2="54.33" y2="55.28"/><path class="cls-2" d="M228.66,55.28a18.95,18.95,0,1,0,0-37.89"/><path class="cls-2" d="M38.17,36.41a6.29,6.29,0,1,0,6.29-6.29,6.28,6.28,0,0,0-6.29,6.29"/><line class="cls-2" x1="165.02" y1="31.04" x2="168.53" y2="34.24"/><path class="cls-2" d="M168.59,34.24a2,2,0,0,0,.71.39"/><line class="cls-2" x1="169.29" y1="34.62" x2="170.36" y2="34.93"/><path class="cls-2" d="M173.18,38.76a3.93,3.93,0,0,0-2.83-3.83"/><path class="cls-2" d="M119.92,34.93a4,4,0,0,0-2.85,3.85"/><line class="cls-2" x1="119.89" y1="34.93" x2="120.96" y2="34.62"/><path class="cls-2" d="M121,34.63a1.86,1.86,0,0,0,.7-.39"/><line class="cls-2" x1="121.64" y1="34.24" x2="125.23" y2="31.04"/><path class="cls-2" d="M127.82,30.08a3.86,3.86,0,0,0-2.62,1"/><line class="cls-2" x1="127.82" y1="30.05" x2="162.35" y2="30.05"/><path class="cls-2" d="M165,31.06a3.9,3.9,0,0,0-2.61-1"/><path class="cls-2" d="M198.22,29.36a4.69,4.69,0,0,0-4.69,4.69"/><line class="cls-2" x1="198.18" y1="29.36" x2="223.8" y2="29.36"/><path class="cls-2" d="M228.52,34.05a4.68,4.68,0,0,0-4.68-4.69"/><line class="cls-2" x1="228.68" y1="13.05" x2="54.33" y2="13.05"/><path class="cls-2" d="M54.37,13.12a23.29,23.29,0,0,0,0,46.58"/><line class="cls-2" x1="54.33" y1="59.62" x2="228.68" y2="59.62"/><line class="cls-2" x1="228.14" y1="32.41" x2="228.14" y2="33.25"/><line class="cls-2" x1="165.63" y1="31.65" x2="162.51" y2="31.65"/><line class="cls-2" x1="170.51" y1="36.6" x2="170.51" y2="35"/><line class="cls-2" x1="120.04" y1="34.85" x2="120.04" y2="36.6"/><line class="cls-2" x1="128.05" y1="31.65" x2="124.54" y2="31.65"/><polyline class="cls-2" points="120.04 36.6 123.32 34.92 123.32 32.79"/><polyline class="cls-2" points="167.31 33.1 167.31 34.92 170.51 36.6"/><polyline class="cls-2" points="160.45 41.63 160.52 41.94 160.75 42.02 161.06 41.94 161.13 41.63 161.06 41.41 160.75 41.33 160.52 41.41 160.45 41.63"/><polyline class="cls-2" points="158.69 41.63 158.77 41.94 159.07 42.02 159.3 41.94 159.38 41.63 159.3 41.41 159.07 41.33 158.77 41.41 158.69 41.63"/><polyline class="cls-2" points="156.94 41.63 157.09 41.94 157.32 42.02 157.55 41.94 157.7 41.63 157.55 41.41 157.32 41.33 157.09 41.41 156.94 41.63"/><polyline class="cls-2" points="155.26 41.63 155.34 41.94 155.65 42.02 155.87 41.94 155.95 41.63 155.87 41.41 155.65 41.33 155.34 41.41 155.26 41.63"/><polyline class="cls-2" points="153.51 41.63 153.66 41.94 153.89 42.02 154.12 41.94 154.27 41.63 154.12 41.41 153.89 41.33 153.66 41.41 153.51 41.63"/><polyline class="cls-2" points="151.83 41.63 151.91 41.94 152.14 42.02 152.44 41.94 152.52 41.63 152.44 41.41 152.14 41.33 151.91 41.41 151.83 41.63"/><polyline class="cls-2" points="150.08 41.63 150.16 41.94 150.46 42.02 150.69 41.94 150.84 41.63 150.69 41.41 150.46 41.33 150.16 41.41 150.08 41.63"/><polyline class="cls-2" points="148.4 41.63 148.48 41.94 148.71 42.02 149.01 41.94 149.09 41.63 149.01 41.41 148.71 41.33 148.48 41.41 148.4 41.63"/><polyline class="cls-2" points="146.65 41.63 146.73 41.94 147.03 42.02 147.26 41.94 147.34 41.63 147.26 41.41 147.03 41.33 146.73 41.41 146.65 41.63"/><polyline class="cls-2" points="144.9 41.63 145.05 41.94 145.28 42.02 145.51 41.94 145.66 41.63 145.51 41.41 145.28 41.33 145.05 41.41 144.9 41.63"/><polyline class="cls-2" points="143.22 41.63 143.29 41.94 143.52 42.02 143.83 41.94 143.91 41.63 143.83 41.41 143.52 41.33 143.29 41.41 143.22 41.63"/><polyline class="cls-2" points="141.47 41.63 141.62 41.94 141.85 42.02 142.07 41.94 142.23 41.63 142.07 41.41 141.85 41.33 141.62 41.41 141.47 41.63"/><polyline class="cls-2" points="139.79 41.63 139.87 41.94 140.09 42.02 140.4 41.94 140.47 41.63 140.4 41.41 140.09 41.33 139.87 41.41 139.79 41.63"/><polyline class="cls-2" points="138.03 41.63 138.11 41.94 138.42 42.02 138.65 41.94 138.72 41.63 138.65 41.41 138.42 41.33 138.11 41.41 138.03 41.63"/><polyline class="cls-2" points="136.28 41.63 136.43 41.94 136.66 42.02 136.97 41.94 137.04 41.63 136.97 41.41 136.66 41.33 136.43 41.41 136.28 41.63"/><polyline class="cls-2" points="134.6 41.63 134.68 41.94 134.99 42.02 135.21 41.94 135.29 41.63 135.21 41.41 134.99 41.33 134.68 41.41 134.6 41.63"/><polyline class="cls-2" points="132.85 41.63 133 41.94 133.23 42.02 133.46 41.94 133.61 41.63 133.46 41.41 133.23 41.33 133 41.41 132.85 41.63"/><polyline class="cls-2" points="131.17 41.63 131.25 41.94 131.48 42.02 131.78 41.94 131.86 41.63 131.78 41.41 131.48 41.33 131.25 41.41 131.17 41.63"/><polyline class="cls-2" points="129.42 41.63 129.57 41.94 129.8 42.02 130.03 41.94 130.18 41.63 130.03 41.41 129.8 41.33 129.57 41.41 129.42 41.63"/><line class="cls-2" x1="161.82" y1="43.08" x2="128.73" y2="43.08"/><line class="cls-2" x1="128.73" y1="40.19" x2="161.82" y2="40.19"/><path class="cls-2" d="M161.86,43.08a1.41,1.41,0,0,0,0-2.82"/><path class="cls-2" d="M128.77,40.26a1.41,1.41,0,0,0,0,2.82"/><line class="cls-2" x1="128.73" y1="31.57" x2="128.73" y2="31.11"/><line class="cls-2" x1="129.42" y1="31.57" x2="129.42" y2="31.11"/><line class="cls-2" x1="128.73" y1="31.65" x2="128.73" y2="31.57"/><line class="cls-2" x1="129.42" y1="31.65" x2="129.42" y2="31.57"/><line class="cls-2" x1="161.13" y1="31.57" x2="161.13" y2="31.11"/><line class="cls-2" x1="161.82" y1="31.57" x2="161.82" y2="31.11"/><line class="cls-2" x1="161.13" y1="31.65" x2="161.13" y2="31.57"/><line class="cls-2" x1="161.82" y1="31.65" x2="161.82" y2="31.57"/><line class="cls-2" x1="159.3" y1="31.57" x2="159.3" y2="31.11"/><line class="cls-2" x1="160.07" y1="31.57" x2="160.07" y2="31.11"/><line class="cls-2" x1="159.3" y1="31.65" x2="159.3" y2="31.57"/><line class="cls-2" x1="160.07" y1="31.65" x2="160.07" y2="31.57"/><line class="cls-2" x1="157.55" y1="31.57" x2="157.55" y2="31.11"/><line class="cls-2" x1="158.24" y1="31.57" x2="158.24" y2="31.11"/><line class="cls-2" x1="157.55" y1="31.65" x2="157.55" y2="31.57"/><line class="cls-2" x1="158.24" y1="31.65" x2="158.24" y2="31.57"/><line class="cls-2" x1="155.72" y1="31.57" x2="155.72" y2="31.11"/><line class="cls-2" x1="156.48" y1="31.57" x2="156.48" y2="31.11"/><line class="cls-2" x1="155.72" y1="31.65" x2="155.72" y2="31.57"/><line class="cls-2" x1="156.48" y1="31.65" x2="156.48" y2="31.57"/><line class="cls-2" x1="153.89" y1="31.57" x2="153.89" y2="31.11"/><line class="cls-2" x1="154.65" y1="31.57" x2="154.65" y2="31.11"/><line class="cls-2" x1="153.89" y1="31.65" x2="153.89" y2="31.57"/><line class="cls-2" x1="154.65" y1="31.65" x2="154.65" y2="31.57"/><line class="cls-2" x1="152.14" y1="31.57" x2="152.14" y2="31.11"/><line class="cls-2" x1="152.82" y1="31.57" x2="152.82" y2="31.11"/><line class="cls-2" x1="152.14" y1="31.65" x2="152.14" y2="31.57"/><line class="cls-2" x1="152.82" y1="31.65" x2="152.82" y2="31.57"/><line class="cls-2" x1="150.31" y1="31.57" x2="150.31" y2="31.11"/><line class="cls-2" x1="151.07" y1="31.57" x2="151.07" y2="31.11"/><line class="cls-2" x1="150.31" y1="31.65" x2="150.31" y2="31.57"/><line class="cls-2" x1="151.07" y1="31.65" x2="151.07" y2="31.57"/><line class="cls-2" x1="148.56" y1="31.57" x2="148.56" y2="31.11"/><line class="cls-2" x1="149.24" y1="31.57" x2="149.24" y2="31.11"/><line class="cls-2" x1="148.56" y1="31.65" x2="148.56" y2="31.57"/><line class="cls-2" x1="149.24" y1="31.65" x2="149.24" y2="31.57"/><line class="cls-2" x1="146.73" y1="31.57" x2="146.73" y2="31.11"/><line class="cls-2" x1="147.41" y1="31.57" x2="147.41" y2="31.11"/><line class="cls-2" x1="146.73" y1="31.65" x2="146.73" y2="31.57"/><line class="cls-2" x1="147.41" y1="31.65" x2="147.41" y2="31.57"/><line class="cls-2" x1="144.9" y1="31.57" x2="144.9" y2="31.11"/><line class="cls-2" x1="145.66" y1="31.57" x2="145.66" y2="31.11"/><line class="cls-2" x1="144.9" y1="31.65" x2="144.9" y2="31.57"/><line class="cls-2" x1="145.66" y1="31.65" x2="145.66" y2="31.57"/><line class="cls-2" x1="143.14" y1="31.57" x2="143.14" y2="31.11"/><line class="cls-2" x1="143.83" y1="31.57" x2="143.83" y2="31.11"/><line class="cls-2" x1="143.14" y1="31.65" x2="143.14" y2="31.57"/><line class="cls-2" x1="143.83" y1="31.65" x2="143.83" y2="31.57"/><line class="cls-2" x1="141.31" y1="31.57" x2="141.31" y2="31.11"/><line class="cls-2" x1="142.08" y1="31.57" x2="142.08" y2="31.11"/><line class="cls-2" x1="141.31" y1="31.65" x2="141.31" y2="31.57"/><line class="cls-2" x1="142.08" y1="31.65" x2="142.08" y2="31.57"/><line class="cls-2" x1="139.48" y1="31.57" x2="139.48" y2="31.11"/><line class="cls-2" x1="140.25" y1="31.57" x2="140.25" y2="31.11"/><line class="cls-2" x1="139.48" y1="31.65" x2="139.48" y2="31.57"/><line class="cls-2" x1="140.25" y1="31.65" x2="140.25" y2="31.57"/><line class="cls-2" x1="137.73" y1="31.57" x2="137.73" y2="31.11"/><line class="cls-2" x1="138.42" y1="31.57" x2="138.42" y2="31.11"/><line class="cls-2" x1="137.73" y1="31.65" x2="137.73" y2="31.57"/><line class="cls-2" x1="138.42" y1="31.65" x2="138.42" y2="31.57"/><line class="cls-2" x1="135.9" y1="31.57" x2="135.9" y2="31.11"/><line class="cls-2" x1="136.66" y1="31.57" x2="136.66" y2="31.11"/><line class="cls-2" x1="135.9" y1="31.65" x2="135.9" y2="31.57"/><line class="cls-2" x1="136.66" y1="31.65" x2="136.66" y2="31.57"/><line class="cls-2" x1="134.15" y1="31.57" x2="134.15" y2="31.11"/><line class="cls-2" x1="134.83" y1="31.57" x2="134.83" y2="31.11"/><line class="cls-2" x1="134.15" y1="31.65" x2="134.15" y2="31.57"/><line class="cls-2" x1="134.83" y1="31.65" x2="134.83" y2="31.57"/><line class="cls-2" x1="132.32" y1="31.57" x2="132.32" y2="31.11"/><line class="cls-2" x1="133" y1="31.57" x2="133" y2="31.11"/><line class="cls-2" x1="132.32" y1="31.65" x2="132.32" y2="31.57"/><line class="cls-2" x1="133" y1="31.65" x2="133" y2="31.57"/><line class="cls-2" x1="130.49" y1="31.57" x2="130.49" y2="31.11"/><line class="cls-2" x1="131.25" y1="31.57" x2="131.25" y2="31.11"/><line class="cls-2" x1="130.49" y1="31.65" x2="130.49" y2="31.57"/><line class="cls-2" x1="131.25" y1="31.65" x2="131.25" y2="31.57"/><line class="cls-2" x1="128.05" y1="31.65" x2="162.51" y2="31.65"/><polyline class="cls-2" points="172.34 36.22 172.34 39.27 172.34 48.8"/><line class="cls-2" x1="170.51" y1="39.58" x2="170.51" y2="48.8"/><path class="cls-2" d="M172.34,39.31a2.86,2.86,0,0,0-2.08-2.75"/><path class="cls-2" d="M164.45,32.45a2.86,2.86,0,0,0-1.91-.73"/><line class="cls-2" x1="164.41" y1="32.41" x2="167.99" y2="35.54"/><path class="cls-2" d="M168.11,35.57a2.88,2.88,0,0,0,1.12.62"/><line class="cls-2" x1="169.14" y1="36.22" x2="170.21" y2="36.53"/><path class="cls-2" d="M170.51,39.61a1.4,1.4,0,0,0-1-1.35"/><path class="cls-2" d="M163.33,33.91a1.41,1.41,0,0,0-.94-.36"/><line class="cls-2" x1="163.34" y1="33.78" x2="167.38" y2="37.44"/><path class="cls-2" d="M167.48,37.39a1.34,1.34,0,0,0,.55.3"/><line class="cls-2" x1="167.92" y1="37.75" x2="169.44" y2="38.13"/><path class="cls-2" d="M128.09,31.72a2.88,2.88,0,0,0-1.91.73"/><line class="cls-2" x1="122.56" y1="35.54" x2="126.14" y2="32.41"/><path class="cls-2" d="M121.48,36.19a2.84,2.84,0,0,0,1.11-.62"/><line class="cls-2" x1="120.35" y1="36.53" x2="121.42" y2="36.22"/><path class="cls-2" d="M120.37,36.56a2.86,2.86,0,0,0-2.08,2.75"/><line class="cls-2" x1="118.29" y1="48.8" x2="118.29" y2="39.27"/><path class="cls-2" d="M118.29,48.84a2.7,2.7,0,0,0,.07.63"/><path class="cls-2" d="M172.33,49a1.41,1.41,0,0,0,0-.2"/><path class="cls-2" d="M169.48,49.94a1.11,1.11,0,0,0,1.11-1.1"/><line class="cls-2" x1="169.44" y1="49.87" x2="121.11" y2="49.87"/><path class="cls-2" d="M120,48.84a1.11,1.11,0,0,0,1.11,1.1"/><line class="cls-2" x1="120.04" y1="48.8" x2="120.04" y2="39.58"/><path class="cls-2" d="M121.14,38.26a1.4,1.4,0,0,0-1,1.35"/><line class="cls-2" x1="121.11" y1="38.13" x2="122.64" y2="37.75"/><path class="cls-2" d="M122.68,37.69a1.48,1.48,0,0,0,.55-.3"/><line class="cls-2" x1="123.17" y1="37.44" x2="127.21" y2="33.78"/><path class="cls-2" d="M128.24,33.55a1.41,1.41,0,0,0-.94.36"/><line class="cls-2" x1="128.2" y1="33.48" x2="162.35" y2="33.48"/><line class="cls-2" x1="118.29" y1="35.84" x2="118.29" y2="39.27"/><polyline class="cls-2" points="138.11 33.48 138.11 34.24 138.11 34.92"/><path class="cls-2" d="M134.23,33.53a.93.93,0,0,0-.46.75"/><line class="cls-2" x1="133.77" y1="34.93" x2="133.77" y2="34.24"/><path class="cls-2" d="M138.11,34.28a1,1,0,0,0-.47-.75"/><line class="cls-2" x1="133.77" y1="34.24" x2="133.77" y2="33.48"/><polyline class="cls-2" points="138.11 35.46 138.11 35.31 138.11 34.92"/><polyline class="cls-2" points="133.77 35.46 133.77 35.31 133.77 34.92"/><path class="cls-2" d="M131.34,49.86c.51-.19.82-.52.82-.87"/><line class="cls-2" x1="132.16" y1="48.27" x2="132.16" y2="48.95"/><line class="cls-2" x1="127.82" y1="48.27" x2="127.82" y2="48.95"/><path class="cls-2" d="M127.82,49c0,.35.31.68.83.87"/><line class="cls-2" x1="132.16" y1="48.95" x2="132.16" y2="49.87"/><line class="cls-2" x1="127.82" y1="49.87" x2="127.82" y2="48.95"/><polyline class="cls-2" points="132.16 47.88 132.16 47.96 132.16 48.27"/><polyline class="cls-2" points="127.82 47.88 127.82 47.96 127.82 48.27"/><polyline class="cls-2" points="156.79 33.48 156.79 34.24 156.79 34.92"/><path class="cls-2" d="M156.86,34.28a.93.93,0,0,0-.46-.75"/><path class="cls-2" d="M153,33.53a1,1,0,0,0-.47.75"/><polyline class="cls-2" points="152.52 34.92 152.52 34.24 152.52 33.48"/><polyline class="cls-2" points="156.79 35.46 156.79 35.31 156.79 34.92"/><polyline class="cls-2" points="152.52 35.46 152.52 35.31 152.52 34.92"/><path class="cls-2" d="M162,49.86c.52-.19.83-.52.83-.87"/><line class="cls-2" x1="162.73" y1="48.27" x2="162.73" y2="48.95"/><line class="cls-2" x1="158.47" y1="48.27" x2="158.47" y2="48.95"/><path class="cls-2" d="M158.47,49c0,.35.31.68.82.87"/><line class="cls-2" x1="162.73" y1="48.95" x2="162.73" y2="49.87"/><line class="cls-2" x1="158.47" y1="49.87" x2="158.47" y2="48.95"/><polyline class="cls-2" points="162.74 47.88 162.74 47.96 162.74 48.27"/><polyline class="cls-2" points="158.47 47.88 158.47 47.96 158.47 48.27"/><line class="cls-2" x1="138.11" y1="35.46" x2="133.77" y2="35.46"/><line class="cls-2" x1="127.82" y1="47.88" x2="132.16" y2="47.88"/><line class="cls-2" x1="156.79" y1="35.46" x2="152.52" y2="35.46"/><line class="cls-2" x1="158.47" y1="47.88" x2="162.73" y2="47.88"/><line class="cls-2" x1="103.88" y1="33.86" x2="103.88" y2="33.86"/><line class="cls-2" x1="103.88" y1="33.17" x2="103.88" y2="33.17"/><polyline class="cls-2" points="103.88 32.41 104.11 33.17 104.11 33.86"/><path class="cls-2" d="M104.09,33.23h0"/><line class="cls-2" x1="103.88" y1="33.17" x2="103.88" y2="33.17"/><line class="cls-2" x1="103.88" y1="33.86" x2="103.88" y2="33.86"/><path class="cls-2" d="M104.09,33.88h0"/><line class="cls-2" x1="104.11" y1="33.86" x2="103.88" y2="34.7"/><path class="cls-2" d="M104.11,33.19s-.09,0-.19,0"/><path class="cls-2" d="M103.92,33.93c.1,0,.19,0,.19,0"/><line class="cls-2" x1="104.8" y1="35.08" x2="103.88" y2="35.08"/><line class="cls-2" x1="104.8" y1="34.39" x2="103.96" y2="34.39"/><line class="cls-2" x1="104.8" y1="31.88" x2="103.88" y2="31.88"/><line class="cls-2" x1="103.88" y1="31.49" x2="104.72" y2="31.49"/><polyline class="cls-2" points="104.42 35.15 104.34 35.15 104.34 35.08"/><polyline class="cls-2" points="104.49 35.15 104.49 35.15 104.49 35.08"/><line class="cls-2" x1="104.26" y1="35.15" x2="104.26" y2="35.15"/><line class="cls-2" x1="104.11" y1="35.15" x2="104.11" y2="35.15"/><polyline class="cls-2" points="103.96 35.15 104.03 35.15 104.03 35.08"/><line class="cls-2" x1="104.49" y1="35.15" x2="104.49" y2="35.08"/><polyline class="cls-2" points="104.42 35.15 104.42 35.15 104.49 35.15 104.64 35.15 104.64 35.08"/><line class="cls-2" x1="104.49" y1="35.15" x2="104.49" y2="35.08"/><polyline class="cls-2" points="104.42 35.08 104.42 35.15 104.42 35.08 104.42 35.15"/><polyline class="cls-2" points="104.26 35.08 104.26 35.15 104.34 35.15 104.34 35.08"/><line class="cls-2" x1="104.26" y1="35.15" x2="104.26" y2="35.15"/><line class="cls-2" x1="104.11" y1="35.15" x2="104.11" y2="35.08"/><polyline class="cls-2" points="104.26 35.08 104.26 35.15 104.26 35.08"/><polyline class="cls-2" points="104.11 35.15 104.19 35.15 104.26 35.15"/><line class="cls-2" x1="104.03" y1="35.15" x2="104.03" y2="35.08"/><polyline class="cls-2" points="104.03 35.15 104.11 35.15 104.11 35.08"/><polyline class="cls-2" points="103.88 35.15 103.96 35.15 103.96 35.08"/><line class="cls-2" x1="104.8" y1="35.08" x2="104.8" y2="35.15"/><polyline class="cls-2" points="91.15 42.85 91.15 41.18 91.15 40.64 91.15 40.49"/><polyline class="cls-2" points="94.73 42.85 94.73 41.18 94.73 40.64 94.73 40.49 91.15 40.49"/><polyline class="cls-2" points="82.08 42.85 82.08 41.18 82.08 40.64 82.08 40.49"/><polyline class="cls-2" points="85.74 42.85 85.74 41.18 85.74 40.64 85.74 40.49 82.08 40.49"/><polyline class="cls-2" points="78.5 42.85 78.5 41.18 78.5 40.64 78.5 40.49"/><polyline class="cls-2" points="74.91 42.85 74.91 41.18 74.91 40.64 74.91 40.49 78.5 40.49"/><polyline class="cls-2" points="69.5 42.85 69.5 41.18 69.5 40.64 69.5 40.49"/><polyline class="cls-2" points="65.92 42.85 65.92 41.18 65.92 40.64 65.92 40.49 69.5 40.49"/><line class="cls-2" x1="102.13" y1="32.94" x2="58.52" y2="32.94"/><line class="cls-2" x1="102.13" y1="34.01" x2="58.52" y2="34.01"/><line class="cls-2" x1="102.82" y1="51.32" x2="102.82" y2="34.7"/><line class="cls-2" x1="102.82" y1="32.94" x2="102.82" y2="33.1"/><polyline class="cls-2" points="103.88 51.31 103.88 34.7 103.88 31.11"/><path class="cls-2" d="M102.89,34.73a.72.72,0,0,0-.72-.72"/><path class="cls-2" d="M104,34.73a1.79,1.79,0,0,0-1.79-1.79"/><line class="cls-2" x1="57.76" y1="32.94" x2="57.76" y2="33.1"/><line class="cls-2" x1="57.76" y1="34.7" x2="57.76" y2="51.32"/><polyline class="cls-2" points="56.69 31.11 56.69 34.7 56.69 51.31"/><line class="cls-2" x1="65" y1="34.24" x2="65.08" y2="35.46"/><line class="cls-2" x1="73.92" y1="35.46" x2="74" y2="34.24"/><line class="cls-2" x1="73.69" y1="34.16" x2="73.85" y2="35.69"/><path class="cls-2" d="M73.77,34.18a.49.49,0,0,0-.06-.17"/><path class="cls-2" d="M65.37,34a.35.35,0,0,0-.06.17"/><line class="cls-2" x1="65.16" y1="35.69" x2="65.31" y2="34.16"/><line class="cls-2" x1="65.08" y1="34.93" x2="65" y2="34.01"/><line class="cls-2" x1="74" y1="34.01" x2="73.92" y2="34.93"/><line class="cls-2" x1="65.23" y1="34.01" x2="65.16" y2="35"/><line class="cls-2" x1="73.85" y1="35" x2="73.77" y2="34.01"/><polyline class="cls-2" points="74.08 34.01 74 34.01 74 34.24"/><path class="cls-2" d="M73.94,35.06c0,.16,0,.11,0-.12"/><path class="cls-2" d="M73.94,35.73c0,.32,0,.22,0-.23"/><path class="cls-2" d="M65.09,34.94c0,.23,0,.28,0,.12"/><polyline class="cls-2" points="65 34.24 65 34.01 64.93 34.01"/><path class="cls-2" d="M65.09,35.5c0,.45,0,.55,0,.23"/><line class="cls-2" x1="73.77" y1="51.32" x2="73.85" y2="50.63"/><line class="cls-2" x1="65.16" y1="50.63" x2="65.23" y2="51.32"/><line class="cls-2" x1="65" y1="51.32" x2="65.08" y2="50.86"/><line class="cls-2" x1="73.92" y1="50.86" x2="74" y2="51.32"/><path class="cls-2" d="M74,51c0-.46,0-.55,0-.23"/><path class="cls-2" d="M74,51.3q0-.12,0,0"/><path class="cls-2" d="M65.14,50.74c0-.32,0-.23,0,.23"/><path class="cls-2" d="M65.13,51.3q0-.12,0,0"/><line class="cls-2" x1="58.83" y1="46.44" x2="57.84" y2="47.35"/><line class="cls-2" x1="57.84" y1="41.56" x2="58.83" y2="42.47"/><path class="cls-2" d="M57.84,41.52a.12.12,0,0,0,0,.09"/><path class="cls-2" d="M59,42.66a.27.27,0,0,0-.11-.19"/><path class="cls-2" d="M58.87,46.52a.29.29,0,0,0,.11-.2"/><path class="cls-2" d="M57.88,47.37a.13.13,0,0,0,0,.1"/><path class="cls-2" d="M58.56,34a.72.72,0,0,0-.72.72"/><path class="cls-2" d="M58.56,32.94a1.79,1.79,0,0,0-1.79,1.79"/><line class="cls-2" x1="95.65" y1="34.24" x2="95.57" y2="35.46"/><line class="cls-2" x1="86.65" y1="35.46" x2="86.58" y2="34.24"/><line class="cls-2" x1="86.88" y1="34.16" x2="86.73" y2="35.69"/><line class="cls-2" x1="95.5" y1="35.69" x2="95.34" y2="34.16"/><path class="cls-2" d="M95.42,34.18a.49.49,0,0,0-.06-.17"/><path class="cls-2" d="M87,34a.36.36,0,0,0-.07.17"/><line class="cls-2" x1="95.57" y1="34.93" x2="95.57" y2="34.01"/><line class="cls-2" x1="86.65" y1="34.01" x2="86.65" y2="34.93"/><line class="cls-2" x1="95.42" y1="34.01" x2="95.5" y2="35"/><line class="cls-2" x1="86.73" y1="35" x2="86.81" y2="34.01"/><path class="cls-2" d="M86.74,35.5c0,.45,0,.55.05.23"/><path class="cls-2" d="M86.74,34.94c0,.23,0,.28.05.12"/><line class="cls-2" x1="86.58" y1="34.01" x2="86.58" y2="34.24"/><path class="cls-2" d="M95.52,35.73c0,.32,0,.22,0-.23"/><line class="cls-2" x1="95.65" y1="34.24" x2="95.65" y2="34.01"/><path class="cls-2" d="M95.52,35.06c0,.16,0,.11,0-.12"/><line class="cls-2" x1="86.81" y1="51.32" x2="86.73" y2="50.63"/><line class="cls-2" x1="95.5" y1="50.63" x2="95.42" y2="51.32"/><line class="cls-2" x1="95.57" y1="51.32" x2="95.57" y2="50.86"/><line class="cls-2" x1="86.65" y1="50.86" x2="86.65" y2="51.32"/><path class="cls-2" d="M86.78,51.3q0-.12,0,0"/><path class="cls-2" d="M86.79,50.74c0-.32,0-.23-.05.23"/><path class="cls-2" d="M95.55,51.3q0-.12,0,0"/><path class="cls-2" d="M95.56,51c0-.46,0-.55,0-.23"/><line class="cls-2" x1="101.75" y1="46.44" x2="102.82" y2="47.35"/><line class="cls-2" x1="102.82" y1="41.56" x2="101.75" y2="42.47"/><path class="cls-2" d="M101.78,42.47a.27.27,0,0,0-.11.19"/><path class="cls-2" d="M102.85,41.61a.12.12,0,0,0,0-.09"/><path class="cls-2" d="M102.89,47.47a.13.13,0,0,0,0-.1"/><path class="cls-2" d="M101.67,46.32a.29.29,0,0,0,.11.2"/><line class="cls-2" x1="65.08" y1="35.92" x2="73.92" y2="35.92"/><line class="cls-2" x1="58.98" y1="42.62" x2="58.98" y2="46.28"/><line class="cls-2" x1="65.08" y1="50.48" x2="73.92" y2="50.48"/><line class="cls-2" x1="95.5" y1="35.92" x2="86.73" y2="35.92"/><line class="cls-2" x1="101.67" y1="42.62" x2="101.67" y2="46.28"/><line class="cls-2" x1="95.5" y1="50.48" x2="86.73" y2="50.48"/><polyline class="cls-2" points="102.81 31.11 102.81 32.94 102.13 32.94"/><line class="cls-2" x1="57.76" y1="32.94" x2="57.76" y2="31.11"/><polyline class="cls-2" points="98.47 43.77 98.47 48.27 62.11 48.27 62.11 43.77 98.47 43.77"/><line class="cls-2" x1="61.19" y1="42.85" x2="62.11" y2="43.77"/><polyline class="cls-2" points="98.47 43.77 99.39 42.85 61.19 42.85"/><line class="cls-2" x1="98.47" y1="48.27" x2="99.46" y2="49.26"/><path class="cls-2" d="M99.46,49.26a2.85,2.85,0,0,0,.84-2"/><polyline class="cls-2" points="100.3 47.2 100.3 42.85 99.39 42.85"/><path class="cls-2" d="M61.19,49.26a2.89,2.89,0,0,0,2,.84"/><line class="cls-2" x1="63.17" y1="50.1" x2="97.4" y2="50.1"/><path class="cls-2" d="M97.44,50.1a2.87,2.87,0,0,0,2-.84"/><line class="cls-2" x1="61.19" y1="49.26" x2="62.11" y2="48.27"/><polyline class="cls-2" points="61.19 42.85 60.28 42.85 60.28 47.2"/><path class="cls-2" d="M60.35,47.24a2.85,2.85,0,0,0,.84,2"/><line class="cls-2" x1="81.93" y1="42.85" x2="81.93" y2="42.4"/><line class="cls-2" x1="85.89" y1="42.4" x2="85.89" y2="42.85"/><line class="cls-2" x1="90.92" y1="42.85" x2="90.92" y2="42.4"/><line class="cls-2" x1="94.89" y1="42.4" x2="94.89" y2="42.85"/><line class="cls-2" x1="69.65" y1="42.85" x2="69.65" y2="42.4"/><line class="cls-2" x1="65.69" y1="42.4" x2="65.69" y2="42.85"/><line class="cls-2" x1="78.73" y1="42.85" x2="78.73" y2="42.4"/><line class="cls-2" x1="74.76" y1="42.4" x2="74.76" y2="42.85"/><polyline class="cls-2" points="102.81 47.66 101.9 47.66 101.9 46.59"/><polyline class="cls-2" points="101.9 42.32 101.9 38.66 102.81 38.66"/><line class="cls-2" x1="57.76" y1="38.66" x2="58.68" y2="38.66"/><line class="cls-2" x1="58.68" y1="47.66" x2="58.68" y2="46.59"/><line class="cls-2" x1="58.68" y1="42.32" x2="58.68" y2="38.66"/><line class="cls-2" x1="57.76" y1="47.66" x2="58.68" y2="47.66"/><line class="cls-2" x1="90.92" y1="42.4" x2="91.15" y2="42.4"/><line class="cls-2" x1="94.73" y1="42.4" x2="94.89" y2="42.4"/><line class="cls-2" x1="65.69" y1="42.4" x2="65.92" y2="42.4"/><line class="cls-2" x1="69.5" y1="42.4" x2="69.65" y2="42.4"/><line class="cls-2" x1="74.76" y1="42.4" x2="74.91" y2="42.4"/><line class="cls-2" x1="78.5" y1="42.4" x2="78.73" y2="42.4"/><line class="cls-2" x1="81.93" y1="42.4" x2="82.08" y2="42.4"/><line class="cls-2" x1="85.74" y1="42.4" x2="85.89" y2="42.4"/><line class="cls-2" x1="58.52" y1="32.94" x2="57.76" y2="32.94"/><line class="cls-2" x1="103.88" y1="37.21" x2="104.8" y2="37.21"/><line class="cls-2" x1="104.8" y1="49.49" x2="103.88" y2="49.49"/><polyline class="cls-2" points="55.47 37.21 55.63 37.21 56.69 37.21"/><polyline class="cls-2" points="56.69 49.49 55.63 49.49 55.47 49.49"/><line class="cls-2" x1="55.63" y1="37.21" x2="55.63" y2="49.49"/><polyline class="cls-2" points="97.25 31.11 97.25 31.95 63.4 31.95 63.4 31.11"/><line class="cls-2" x1="97.25" y1="31.95" x2="97.25" y2="32.94"/><line class="cls-2" x1="63.4" y1="32.94" x2="63.4" y2="31.95"/><line class="cls-2" x1="142.61" y1="31.19" x2="142.61" y2="31.11"/><line class="cls-2" x1="146.19" y1="31.19" x2="146.19" y2="31.11"/><line class="cls-2" x1="149.85" y1="31.11" x2="149.85" y2="31.11"/><line class="cls-2" x1="153.89" y1="31.27" x2="153.82" y2="31.27"/><line class="cls-2" x1="140.86" y1="31.19" x2="140.86" y2="31.11"/><polyline class="cls-2" points="137.2 31.11 137.2 31.27 137.73 31.27"/><line class="cls-2" x1="131.4" y1="31.19" x2="131.4" y2="31.11"/><line class="cls-2" x1="129.95" y1="31.19" x2="129.95" y2="31.11"/><line class="cls-2" x1="198.11" y1="38.05" x2="198.11" y2="35.54"/><polyline class="cls-2" points="223.34 35.53 223.34 38.05 221.82 38.05 199.56 38.05 198.11 38.05"/><polyline class="cls-2" points="198.11 35.53 199.56 35.53 221.82 35.53 223.34 35.53"/><polyline class="cls-2" points="221.51 37.52 221.51 36.07 199.94 36.07 199.94 37.52 221.51 37.52"/><line class="cls-2" x1="221.82" y1="35.54" x2="221.51" y2="36.07"/><line class="cls-2" x1="221.51" y1="37.52" x2="221.82" y2="38.05"/><line class="cls-2" x1="199.94" y1="36.07" x2="199.56" y2="35.54"/><line class="cls-2" x1="199.56" y1="38.05" x2="199.94" y2="37.52"/><line class="cls-2" x1="222.35" y1="32.56" x2="199.1" y2="32.56"/><path class="cls-2" d="M199.14,32.56a3.09,3.09,0,0,0-3.09,3.09"/><line class="cls-2" x1="196.05" y1="35.61" x2="196.05" y2="37.97"/><path class="cls-2" d="M196.05,38a3.09,3.09,0,0,0,3.09,3.09"/><line class="cls-2" x1="199.1" y1="41.02" x2="222.35" y2="41.02"/><path class="cls-2" d="M222.39,41.1A3.08,3.08,0,0,0,225.47,38"/><line class="cls-2" x1="225.4" y1="37.97" x2="225.4" y2="35.61"/><path class="cls-2" d="M225.47,35.65a3.08,3.08,0,0,0-3.08-3.09"/><line class="cls-2" x1="194.6" y1="39.58" x2="194.6" y2="37.97"/><line class="cls-2" x1="226.85" y1="40.11" x2="226.85" y2="37.97"/><line class="cls-2" x1="125.99" y1="31.65" x2="125.99" y2="31.11"/><line class="cls-2" x1="127.06" y1="31.11" x2="127.06" y2="31.11"/><line class="cls-2" x1="222.35" y1="31.11" x2="199.1" y2="31.11"/><path class="cls-2" d="M199.14,31.11a4.54,4.54,0,0,0-4.54,4.54"/><path class="cls-2" d="M199.14,32.26a3.4,3.4,0,0,0-3.4,3.39"/><path class="cls-2" d="M194.6,38a4.48,4.48,0,0,0,.53,2.13"/><polyline class="cls-2" points="194.6 31.11 194.6 35.61 194.6 37.98"/><path class="cls-2" d="M226,40.81a4.56,4.56,0,0,0,1-2.8"/><line class="cls-2" x1="226.85" y1="35.61" x2="226.85" y2="37.97"/><path class="cls-2" d="M226.92,35.65a4.53,4.53,0,0,0-4.53-4.54"/><line class="cls-2" x1="222.35" y1="32.18" x2="199.1" y2="32.18"/><path class="cls-2" d="M225.78,35.65a3.39,3.39,0,0,0-3.39-3.39"/><line class="cls-2" x1="225.7" y1="35.61" x2="225.7" y2="37.97"/><path class="cls-2" d="M223.39,41.25A3.39,3.39,0,0,0,225.78,38"/><path class="cls-2" d="M195.74,38a3.39,3.39,0,0,0,2.39,3.24"/><line class="cls-2" x1="195.67" y1="35.61" x2="195.67" y2="37.97"/><line class="cls-2" x1="195.67" y1="32.71" x2="195.67" y2="31.11"/><line class="cls-2" x1="226.85" y1="35.61" x2="226.85" y2="31.11"/><line class="cls-2" x1="225.7" y1="32.71" x2="225.7" y2="31.11"/><polyline class="cls-2" points="153.74 31.11 153.81 31.11 153.81 31.19 153.81 31.65"/><polyline class="cls-2" points="147.87 31.11 147.79 31.11 147.79 31.19"/><polyline class="cls-2" points="138.65 31.65 138.65 31.19 138.65 31.11 138.72 31.11"/><polyline class="cls-2" points="135.52 31.19 135.52 31.19 135.52 31.11 135.44 31.11"/><line class="cls-2" x1="136.89" y1="31.49" x2="137.73" y2="31.49"/><line class="cls-2" x1="138.42" y1="31.49" x2="138.64" y2="31.49"/><line class="cls-2" x1="153.82" y1="31.49" x2="153.89" y2="31.49"/><line class="cls-2" x1="154.65" y1="31.49" x2="155.72" y2="31.49"/><line class="cls-2" x1="160.07" y1="31.49" x2="160.45" y2="31.49"/><line class="cls-2" x1="164.03" y1="31.49" x2="165.48" y2="31.49"/><text class="cls-3" transform="translate(196.12 89.92)">T<tspan class="cls-4" x="5.87" y="0">raget</tspan></text><text class="cls-5" transform="translate(56.49 89.91)">Switchable<tspan x="-1.42" y="12">USB-</tspan><tspan class="cls-6" x="23.01" y="12">A</tspan><tspan x="29.27" y="12" xml:space="preserve"> Port</tspan><tspan class="cls-7"><tspan x="0.58" y="22">(Host /</tspan><tspan class="cls-8" x="23.01" y="22"> </tspan><tspan class="cls-9" x="24.93" y="22">T</tspan><tspan x="28.77" y="22">arget)</tspan></tspan></text><text class="cls-5" transform="translate(131.47 89.92)">HDMI<tspan x="1.69" y="10">Input</tspan></text><text class="cls-10" transform="translate(204.7 73.93)">②</text><text class="cls-10" transform="translate(138.54 73.93)">③</text><text class="cls-10" transform="translate(75.21 73.93)">④</text></g></g></svg>