<svg xmlns="http://www.w3.org/2000/svg" xmlns:xlink="http://www.w3.org/1999/xlink" viewBox="0 0 340.16 240.94"><defs><style>.cls-1,.cls-3{fill:none;}.cls-2{clip-path:url(#clip-path);}.cls-3{stroke:#000;stroke-linecap:round;stroke-linejoin:round;stroke-width:0.5px;}.cls-4{clip-path:url(#clip-path-2);}.cls-5{font-size:10.23px;font-family:ArialMT, Arial;}.cls-6{fill-rule:evenodd;}.cls-7{isolation:isolate;}</style><clipPath id="clip-path"><polyline class="cls-1" points="12.72 220.43 81.51 220.43 81.51 0.56 12.72 0.56 12.72 220.43"/></clipPath><clipPath id="clip-path-2"><polyline class="cls-1" points="83.03 220.43 327.43 220.43 327.43 0.56 83.03 0.56 83.03 220.43"/></clipPath></defs><g id="Layer_2" data-name="Layer 2"><g id="Layer_3" data-name="Layer 3"><g class="cls-2"><line class="cls-3" x1="28.06" y1="202.94" x2="28.06" y2="202.94"/><line class="cls-3" x1="66.17" y1="202.94" x2="66.17" y2="202.94"/><polyline class="cls-3" points="69.78 202.94 69.63 202.94 69.24 202.94 68.55 202.94 67.56 202.94 66.33 202.94 64.87 202.94 63.18 202.94 61.34 202.94 59.27 202.94 57.05 202.94 54.75 202.94 52.29 202.94 49.76 202.94 47.23 202.94 44.78 202.94 42.25 202.94 39.79 202.94 37.42 202.94 35.19 202.94 33.12 202.94 31.2 202.94 29.52 202.94 28.06 202.94 26.83 202.94 25.84 202.94 25.07 202.94 24.61 202.94 24.46 202.94"/><line class="cls-3" x1="31.74" y1="202.94" x2="31.74" y2="202.94"/><line class="cls-3" x1="38.18" y1="202.94" x2="38.18" y2="202.94"/><line class="cls-3" x1="24.46" y1="205.17" x2="28.06" y2="208.77"/><polyline class="cls-3" points="24.46 202.94 24.46 205.17 24.61 205.17 25.07 205.17 25.84 205.17 26.83 205.17 28.06 205.17 29.52 205.17 31.2 205.17 33.12 205.17 35.19 205.17 37.42 205.17 39.79 205.17 42.25 205.17 44.78 205.17 47.23 205.17 49.76 205.17 52.29 205.17 54.75 205.17 57.05 205.17 59.27 205.17 61.34 205.17 63.18 205.17 64.87 205.17 66.33 205.17 67.56 205.17 68.55 205.17 69.24 205.17 69.63 205.17 69.78 205.17 66.17 208.77 66.02 208.77 65.64 208.77 64.95 208.77 64.03 208.77 62.8 208.77 61.42 208.77 59.81 208.77 58.05 208.77 56.05 208.77 53.98 208.77 51.76 208.77 49.53 208.77 47.23 208.77 45.01 208.77 42.71 208.77 40.56 208.77 38.41 208.77 36.42 208.77 34.66 208.77 32.97 208.77 31.59 208.77 30.36 208.77 29.36 208.77 28.68 208.77 28.21 208.77 28.06 208.77"/><line class="cls-3" x1="69.78" y1="202.94" x2="69.78" y2="205.17"/><polyline class="cls-3" points="28.06 12.99 28.21 12.99 28.68 12.99 29.36 12.99 30.36 12.99 31.59 12.99 32.97 12.99 34.66 12.99 36.42 12.99 38.41 12.99 40.56 12.99 42.71 12.99 45.01 12.99 47.23 12.99 49.53 12.99 51.76 12.99 53.98 12.99 56.05 12.99 58.05 12.99 59.81 12.99 61.42 12.99 62.8 12.99 64.03 12.99 64.95 12.99 65.64 12.99 66.02 12.99 66.17 12.99 69.78 16.59 69.63 16.59 69.24 16.59 68.55 16.59 67.56 16.59 66.33 16.59 64.87 16.59 63.18 16.59 61.34 16.59 59.27 16.59 57.05 16.59 54.75 16.59 52.29 16.59 49.76 16.59 47.23 16.59 44.78 16.59 42.25 16.59 39.79 16.59 37.42 16.59 35.19 16.59 33.12 16.59 31.2 16.59 29.52 16.59 28.06 16.59 26.83 16.59 25.84 16.59 25.07 16.59 24.61 16.59 24.46 16.59 28.06 12.99"/><line class="cls-3" x1="69.78" y1="18.82" x2="69.78" y2="16.59"/><polyline class="cls-3" points="69.78 18.82 69.63 18.82 69.24 18.82 68.55 18.82 67.56 18.82 66.33 18.82 64.87 18.82 63.18 18.82 61.34 18.82 59.27 18.82 57.05 18.82 54.75 18.82 52.29 18.82 49.76 18.82 47.23 18.82 44.78 18.82 42.25 18.82 39.79 18.82 37.42 18.82 35.19 18.82 33.12 18.82 31.2 18.82 29.52 18.82 28.06 18.82 26.83 18.82 25.84 18.82 25.07 18.82 24.61 18.82 24.46 18.82 24.46 16.59"/><polyline class="cls-3" points="69.78 202.94 69.78 18.82 69.63 18.82 69.24 18.82 68.55 18.82 67.56 18.82 66.33 18.82 64.87 18.82 63.18 18.82 61.34 18.82 59.27 18.82 57.05 18.82 54.75 18.82 52.29 18.82 49.76 18.82 47.23 18.82 44.78 18.82 42.25 18.82 39.79 18.82 37.42 18.82 35.19 18.82 33.12 18.82 31.2 18.82 29.52 18.82 28.06 18.82 26.83 18.82 25.84 18.82 25.07 18.82 24.61 18.82 24.46 18.82 24.46 202.94 24.61 202.94 25.07 202.94 25.84 202.94 26.83 202.94 28.06 202.94 29.52 202.94 31.2 202.94 33.12 202.94 35.19 202.94 37.42 202.94 39.79 202.94 42.25 202.94 44.78 202.94 47.23 202.94 49.76 202.94 52.29 202.94 54.75 202.94 57.05 202.94 59.27 202.94 61.34 202.94 63.18 202.94 64.87 202.94 66.33 202.94 67.56 202.94 68.55 202.94 69.24 202.94 69.63 202.94 69.78 202.94"/><line class="cls-3" x1="45.85" y1="12.22" x2="45.85" y2="12.99"/><polyline class="cls-3" points="45.85 12.22 53.06 12.22 53.06 12.99"/><polyline class="cls-3" points="24.46 186.76 24.38 186.76 24.38 186.84 24.38 186.92 24.38 186.99 24.38 187.07 24.38 187.15 24.38 187.22 24.38 187.3 24.38 187.38 24.38 187.45 24.38 187.53"/><polyline class="cls-3" points="24.46 29.63 24.38 29.63 24.38 29.71"/><polyline class="cls-3" points="24.38 28.86 24.38 28.86 24.46 28.86"/><polyline class="cls-3" points="24.46 37.14 24.38 37.14 24.38 37.07 24.38 36.99 24.38 36.91 24.38 36.84 24.38 36.68 24.38 36.61 24.38 36.53 24.38 36.38 24.38 36.22 24.38 36.07 24.38 35.92 24.38 35.76 24.38 35.61"/><polyline class="cls-3" points="24.46 28.86 24.38 28.86 24.38 28.94 24.38 29.02 24.38 29.09 24.38 29.17 24.38 29.25 24.38 29.32 24.38 29.4 24.38 29.48 24.38 29.55 24.38 29.63"/><polyline class="cls-3" points="24.46 40.21 24.38 40.21 24.38 40.29 24.46 40.29"/><line class="cls-3" x1="24.38" y1="40.44" x2="24.38" y2="40.29"/><polyline class="cls-3" points="24.46 41.9 24.38 41.9 24.38 41.98 24.46 41.98"/><polyline class="cls-3" points="24.46 42.82 24.38 42.82 24.38 41.98"/><polyline class="cls-3" points="24.46 45.2 24.38 45.2 24.38 45.12 24.38 45.04 24.38 44.97 24.38 44.89 24.38 44.81 24.38 44.66 24.38 44.58 24.38 42.82"/><polyline class="cls-3" points="24.46 45.27 24.38 45.27 24.38 45.2"/><polyline class="cls-3" points="24.46 46.12 24.38 46.12 24.38 45.27"/><polyline class="cls-3" points="24.46 46.27 24.38 46.27 24.38 46.19 24.38 46.12"/><polyline class="cls-3" points="24.46 40.44 24.38 40.44 24.38 41.9"/><polyline class="cls-3" points="24.38 31.24 24.46 31.24 24.38 31.24 24.38 32.16 24.46 32.16"/><polyline class="cls-3" points="24.46 34.46 24.38 34.46 24.38 34.38 24.38 34.31 24.38 34.23 24.38 34.08 24.38 34 24.38 33.85 24.38 32.16"/><polyline class="cls-3" points="24.46 34.54 24.38 34.54 24.38 34.46"/><polyline class="cls-3" points="24.46 35.46 24.38 35.46 24.38 34.54"/><polyline class="cls-3" points="24.46 35.61 24.38 35.61 24.38 35.53 24.38 35.46"/><polyline class="cls-3" points="24.46 29.71 24.38 29.71 24.38 31.24"/><polyline class="cls-3" points="24.38 35.61 24.38 35.61 24.46 35.61"/><polyline class="cls-3" points="24.46 195.12 24.38 195.12 24.38 195.04 24.38 194.97 24.38 194.89 24.38 194.81 24.38 194.74 24.38 194.66 24.38 194.59 24.38 194.51 24.38 194.43 24.38 194.35 24.38 194.28 24.38 194.2 24.38 194.13 24.38 194.05 24.38 193.97 24.38 193.9 24.38 193.82 24.38 193.74 24.38 193.66 24.38 193.59 24.38 193.51"/><polyline class="cls-3" points="24.46 187.53 24.38 187.53 24.38 187.61"/><polyline class="cls-3" points="24.38 189.14 24.46 189.14 24.38 189.14 24.38 190.06 24.46 190.06"/><polyline class="cls-3" points="24.46 192.36 24.38 192.36 24.38 192.28 24.38 192.21 24.38 192.13 24.38 192.05 24.38 191.98 24.38 191.9 24.38 191.75 24.38 190.06"/><polyline class="cls-3" points="24.46 192.44 24.38 192.44 24.38 192.36"/><polyline class="cls-3" points="24.46 193.28 24.38 193.28 24.38 192.44"/><polyline class="cls-3" points="24.46 193.51 24.38 193.51 24.38 193.43 24.38 193.36 24.38 193.28"/><polyline class="cls-3" points="24.46 187.61 24.38 187.61 24.38 189.14"/><polyline class="cls-3" points="24.46 47.96 24.38 47.96 24.38 47.88 24.38 47.8 24.38 47.73 24.38 47.65 24.38 47.57 24.38 47.5 24.38 47.42 24.38 47.34 24.38 47.27 24.38 47.19 24.38 47.11 24.38 46.96 24.38 46.88 24.38 46.81 24.38 46.73 24.38 46.65 24.38 46.58 24.38 46.5 24.38 46.42 24.38 46.27"/><line class="cls-3" x1="69.78" y1="136.92" x2="69.86" y2="136.92"/><polyline class="cls-3" points="69.78 36.53 69.86 36.53 69.86 36.45 69.86 36.38 69.86 36.3 69.86 36.22 69.86 36.15 69.86 36.07 69.86 35.99 69.86 35.84 69.86 35.76 69.86 35.61 69.86 35.53 69.86 35.38 69.86 35.23 69.86 35.07 69.86 34.92 69.86 34.77 69.86 34.61 69.86 34.38 69.86 34.23 69.86 34.08 69.86 33.85 69.86 33.69 69.86 33.46 69.86 33.31 69.86 33.08 69.86 32.85 69.86 32.7 69.86 32.47 69.86 32.24 69.86 32.01 69.86 31.85 69.86 31.62 69.86 31.39 69.86 31.24 69.86 31.01 69.86 30.86 69.86 30.7 69.86 30.47 69.86 30.32 69.86 30.17 69.86 30.01 69.86 29.86 69.86 29.71 69.86 29.55 69.86 29.4 69.86 29.25 69.86 29.17 69.86 29.02 69.86 28.94 69.86 28.86 69.86 28.71 69.86 28.63 69.86 28.55 69.86 28.48 69.86 28.4 69.86 28.32 69.78 28.32"/><polyline class="cls-3" points="69.86 28.32 69.86 28.32 69.78 28.32"/><polyline class="cls-3" points="69.78 111.3 69.86 111.3 69.86 111.22"/><polyline class="cls-3" points="69.78 194.43 69.86 194.43 69.86 194.35 69.86 194.28 69.86 194.2 69.86 194.13 69.86 194.05 69.86 193.97 69.86 193.9 69.86 193.74 69.86 193.66 69.86 193.51 69.86 193.36 69.86 193.28 69.86 193.13 69.86 192.97 69.86 192.82 69.86 192.67 69.86 192.44 69.86 192.28 69.86 192.13 69.86 191.98 69.86 191.75 69.86 191.59 69.86 191.36 69.86 191.13 69.86 190.98 69.86 190.75 69.86 190.52 69.86 190.37 69.86 190.14 69.86 189.91 69.86 189.68 69.86 189.52 69.86 189.29 69.86 189.14 69.86 188.91 69.86 188.76 69.86 188.53 69.86 188.37 69.86 188.22 69.86 188.07 69.86 187.84 69.86 187.68 69.86 187.61 69.86 187.45 69.86 187.3 69.86 187.15 69.86 187.07 69.86 186.92 69.86 186.84 69.86 186.69 69.86 186.61 69.86 186.53 69.86 186.46 69.86 186.38 69.86 186.3 69.86 186.23 69.78 186.23"/><polyline class="cls-3" points="69.78 121.81 69.86 121.81 69.86 121.73"/><polyline class="cls-3" points="69.78 98.27 69.86 98.27 69.86 98.19 69.86 98.11 69.86 98.03 69.86 97.96 69.86 97.88 69.86 97.81 69.86 97.65 69.86 97.57 69.86 97.42 69.86 97.34 69.86 97.19 69.86 97.04 69.86 96.88 69.86 96.73 69.86 96.58 69.86 96.42 69.86 96.27 69.86 96.12 69.86 95.96 69.86 95.81 69.86 95.58 69.86 88.37 69.86 88.14 69.86 87.99 69.86 87.83 69.86 87.68 69.86 87.53 69.86 87.38 69.86 87.22 69.86 87.07 69.86 86.92 69.86 86.76 69.86 86.61 69.86 86.53 69.86 86.38 69.86 86.3 69.86 86.15 69.86 86.07 69.86 86 69.86 85.92 69.86 85.84 69.86 85.76 69.78 85.76"/><polyline class="cls-3" points="69.78 103.17 69.86 103.17 69.86 98.27"/><polyline class="cls-3" points="69.78 136.91 69.86 136.91 69.86 136.84"/><polyline class="cls-3" points="69.78 132.16 69.86 132.16 69.86 132.24"/><polyline class="cls-3" points="69.78 138.22 69.86 138.22 69.86 136.91"/><polyline class="cls-3" points="69.78 46.42 69.86 46.42 69.86 46.35 69.86 46.27"/><polyline class="cls-3" points="69.78 39.67 69.86 39.67 69.86 40.37"/><polyline class="cls-3" points="69.78 121.73 69.86 121.73 69.86 117.13 69.78 117.13"/><polyline class="cls-3" points="69.78 111.15 69.86 111.15 69.86 106.62 69.78 106.62"/><polyline class="cls-3" points="69.78 126.72 69.86 126.72 69.86 126.64 69.78 126.64"/><polyline class="cls-3" points="69.78 126.03 69.86 126.03 69.86 126.1 69.86 126.18 69.86 126.26 69.86 126.33 69.86 126.41 69.86 126.49 69.86 126.56 69.86 126.64 69.78 126.64"/><polyline class="cls-3" points="69.78 123.5 69.86 123.5 69.86 123.57 69.86 123.65 69.86 123.72 69.86 123.8 69.86 123.88 69.86 123.95 69.86 124.03 69.86 124.11 69.86 124.19 69.86 124.26 69.86 124.34 69.86 124.42 69.86 124.49 69.86 124.57 69.86 124.64 69.86 124.72 69.86 124.8 69.86 124.95 69.86 125.03 69.86 125.11 69.86 125.18 69.86 125.26 69.86 125.33 69.86 125.41 69.86 125.49 69.86 125.57 69.86 125.64 69.86 125.72 69.86 125.8 69.86 125.87 69.86 125.95 69.86 126.03"/><polyline class="cls-3" points="69.78 128.25 69.86 128.25 69.86 128.17 69.86 128.1 69.86 128.02 69.86 127.94 69.86 127.87 69.86 127.79 69.86 127.71 69.86 127.64 69.86 127.48 69.78 127.48"/><polyline class="cls-3" points="69.86 126.72 69.86 126.79 69.86 126.95 69.86 127.02 69.86 127.1 69.86 127.25 69.86 127.33 69.86 127.41 69.86 127.48"/><polyline class="cls-3" points="69.78 106.16 69.86 106.16 69.86 106.62"/><polyline class="cls-3" points="69.78 136.84 69.86 136.84 69.86 132.24 69.78 132.24"/><polyline class="cls-3" points="69.78 194.59 69.86 194.59 69.86 194.51 69.86 194.43"/><line class="cls-3" x1="69.78" y1="138.22" x2="69.86" y2="138.22"/><polyline class="cls-3" points="69.78 117.05 69.86 117.05 69.86 117.13"/><polyline class="cls-3" points="69.86 106.16 69.86 106.16 69.78 106.16"/><polyline class="cls-3" points="69.78 111.99 69.86 111.99 69.86 111.3"/><polyline class="cls-3" points="69.78 81.62 69.86 81.62 69.86 85.76"/><polyline class="cls-3" points="69.78 129.4 69.86 129.4 69.86 128.94 69.78 128.94"/><polyline class="cls-3" points="69.78 128.71 69.86 128.71 69.86 128.79 69.86 128.86 69.86 128.94"/><polyline class="cls-3" points="69.78 128.33 69.86 128.33 69.86 128.4 69.86 128.48 69.86 128.56 69.86 128.63 69.86 128.71"/><line class="cls-3" x1="69.86" y1="128.25" x2="69.86" y2="128.33"/><polyline class="cls-3" points="69.78 129.48 69.86 129.48 69.86 129.4"/><polyline class="cls-3" points="69.78 111.22 69.86 111.22 69.86 111.15"/><polyline class="cls-3" points="69.78 122.96 69.86 122.96 69.86 121.81"/><polyline class="cls-3" points="69.78 46.58 69.86 46.58 69.86 46.5 69.86 46.42"/><polyline class="cls-3" points="69.78 48.03 69.86 48.03 69.86 47.96 69.86 47.88 69.86 47.8 69.86 47.73 69.86 47.65 69.86 47.57 69.86 47.42 69.86 47.34 69.86 47.19 69.86 47.11 69.86 46.96 69.86 46.81 69.86 46.73 69.86 46.65 69.86 46.58"/><polyline class="cls-3" points="69.78 46.27 69.86 46.27 69.86 41.36 69.78 41.36"/><polyline class="cls-3" points="69.78 40.37 69.86 40.37 69.86 41.36"/></g><g class="cls-4"><line class="cls-3" x1="298.29" y1="202.94" x2="298.29" y2="202.94"/><line class="cls-3" x1="112.17" y1="202.94" x2="112.17" y2="202.94"/><polyline class="cls-3" points="315.78 202.94 315.62 202.94 315.24 202.94 314.47 202.94 313.55 202.94 312.33 202.94 310.79 202.94 309.11 202.94 307.26 202.94 305.19 202.94 302.97 202.94 300.59 202.94 298.14 202.94 295.69 202.94 293.15 202.94"/><polyline class="cls-3" points="293.15 202.94 117.31 202.94 114.78 202.94 112.32 202.94 109.87 202.94 107.49 202.94 105.27 202.94 103.2 202.94 101.36 202.94 99.67 202.94 98.14 202.94 96.91 202.94 95.99 202.94 95.22 202.94 94.84 202.94 94.69 202.94"/><line class="cls-3" x1="100.59" y1="202.94" x2="100.59" y2="202.94"/><line class="cls-3" x1="112.09" y1="202.94" x2="112.09" y2="202.94"/><polyline class="cls-3" points="293.15 208.77 295.38 208.77 297.68 208.77 299.9 208.77 301.97 208.77 303.89 208.77 305.73 208.77 307.34 208.77 308.8 208.77 309.95 208.77 310.95 208.77 311.56 208.77 312.02 208.77 312.17 208.77"/><polyline class="cls-3" points="315.78 205.17 315.62 205.17 315.24 205.17 314.47 205.17 313.55 205.17 312.33 205.17 310.79 205.17 309.11 205.17 307.26 205.17 305.19 205.17 302.97 205.17 300.59 205.17 298.14 205.17 295.69 205.17 293.15 205.17"/><line class="cls-3" x1="117.31" y1="208.77" x2="293.15" y2="208.77"/><line class="cls-3" x1="293.15" y1="205.17" x2="117.31" y2="205.17"/><polyline class="cls-3" points="98.29 208.77 98.44 208.77 98.9 208.77 99.52 208.77 100.51 208.77 101.67 208.77 103.12 208.77 104.73 208.77 106.57 208.77 108.49 208.77 110.56 208.77 112.78 208.77 115.08 208.77 117.31 208.77"/><polyline class="cls-3" points="117.31 205.17 114.78 205.17 112.32 205.17 109.87 205.17 107.49 205.17 105.27 205.17 103.2 205.17 101.36 205.17 99.67 205.17 98.14 205.17 96.91 205.17 95.99 205.17 95.22 205.17 94.84 205.17 94.69 205.17"/><line class="cls-3" x1="309.87" y1="202.94" x2="309.87" y2="202.94"/><line class="cls-3" x1="298.37" y1="202.94" x2="298.37" y2="202.94"/><line class="cls-3" x1="312.17" y1="208.77" x2="315.78" y2="205.17"/><line class="cls-3" x1="98.29" y1="208.77" x2="94.69" y2="205.17"/><line class="cls-3" x1="315.78" y1="202.94" x2="315.78" y2="205.17"/><line class="cls-3" x1="94.69" y1="202.94" x2="94.69" y2="205.17"/><polyline class="cls-3" points="94.69 16.59 94.84 16.59 95.22 16.59 95.99 16.59 96.91 16.59 98.14 16.59 99.67 16.59 101.36 16.59 103.2 16.59 105.27 16.59 107.49 16.59 109.87 16.59 112.32 16.59 114.78 16.59 117.31 16.59"/><polyline class="cls-3" points="293.15 12.99 117.31 12.99 115.08 12.99 112.78 12.99 110.56 12.99 108.49 12.99 106.57 12.99 104.73 12.99 103.12 12.99 101.67 12.99 100.51 12.99 99.52 12.99 98.9 12.99 98.44 12.99 98.29 12.99"/><line class="cls-3" x1="117.31" y1="16.59" x2="293.15" y2="16.59"/><polyline class="cls-3" points="312.17 12.99 312.02 12.99 311.56 12.99 310.95 12.99 309.95 12.99 308.8 12.99 307.34 12.99 305.73 12.99 303.89 12.99 301.97 12.99 299.9 12.99 297.68 12.99 295.38 12.99 293.15 12.99"/><polyline class="cls-3" points="293.15 16.59 295.69 16.59 298.14 16.59 300.59 16.59 302.97 16.59 305.19 16.59 307.26 16.59 309.11 16.59 310.79 16.59 312.33 16.59 313.55 16.59 314.47 16.59 315.24 16.59 315.62 16.59 315.78 16.59"/><polyline class="cls-3" points="94.69 18.82 94.84 18.82 95.22 18.82 95.99 18.82 96.91 18.82 98.14 18.82 99.67 18.82 101.36 18.82 103.2 18.82 105.27 18.82 107.49 18.82 109.87 18.82 112.32 18.82 114.78 18.82 117.31 18.82 293.15 18.82 295.69 18.82 298.14 18.82 300.59 18.82 302.97 18.82 305.19 18.82 307.26 18.82 309.11 18.82 310.79 18.82 312.33 18.82 313.55 18.82 314.47 18.82 315.24 18.82 315.62 18.82 315.78 18.82"/><line class="cls-3" x1="98.29" y1="12.99" x2="94.69" y2="16.59"/><line class="cls-3" x1="312.17" y1="12.99" x2="315.78" y2="16.59"/><line class="cls-3" x1="94.69" y1="18.82" x2="94.69" y2="16.59"/><line class="cls-3" x1="315.78" y1="18.82" x2="315.78" y2="16.59"/><polyline class="cls-3" points="117.31 18.82 114.78 18.82 112.32 18.82 109.87 18.82 107.49 18.82 105.27 18.82 103.2 18.82 101.36 18.82 99.67 18.82 98.14 18.82 96.91 18.82 95.99 18.82 95.22 18.82 94.84 18.82 94.69 18.82"/><polyline class="cls-3" points="117.31 202.94 114.78 202.94 112.32 202.94 109.87 202.94 107.49 202.94 105.27 202.94 103.2 202.94 101.36 202.94 99.67 202.94 98.14 202.94 96.91 202.94 95.99 202.94 95.22 202.94 94.84 202.94 94.69 202.94"/><line class="cls-3" x1="117.31" y1="18.82" x2="293.15" y2="18.82"/><line class="cls-3" x1="293.15" y1="202.94" x2="117.31" y2="202.94"/><polyline class="cls-3" points="315.78 18.82 315.62 18.82 315.24 18.82 314.47 18.82 313.55 18.82 312.33 18.82 310.79 18.82 309.11 18.82 307.26 18.82 305.19 18.82 302.97 18.82 300.59 18.82 298.14 18.82 295.69 18.82 293.15 18.82"/><polyline class="cls-3" points="315.78 202.94 315.62 202.94 315.24 202.94 314.47 202.94 313.55 202.94 312.33 202.94 310.79 202.94 309.11 202.94 307.26 202.94 305.19 202.94 302.97 202.94 300.59 202.94 298.14 202.94 295.69 202.94 293.15 202.94"/><line class="cls-3" x1="94.69" y1="18.82" x2="94.69" y2="202.94"/><line class="cls-3" x1="315.78" y1="18.82" x2="315.78" y2="202.94"/><polyline class="cls-3" points="266.08 12.99 266.08 12.22 267.85 12.22 268.61 12.99"/><polyline class="cls-3" points="270.76 12.99 271.53 12.22 273.29 12.22 273.29 12.99"/></g><line class="cls-3" x1="94.61" y1="216.77" x2="94.61" y2="233.38"/><line class="cls-3" x1="316.21" y1="216.77" x2="316.21" y2="233.38"/><line class="cls-3" x1="98.2" y1="224.89" x2="312.58" y2="224.89"/><polygon points="98.93 227.38 94.61 224.89 98.93 222.39 98.93 227.38"/><polygon points="311.85 227.38 316.17 224.89 311.85 222.39 311.85 227.38"/><text class="cls-5" transform="translate(182.66 237.06)">61mm</text><path d="M124.84,197.31h-1.21V192.6h-1.56v-1h4.33v1h-1.56Z"/><path d="M128,192.84a2.1,2.1,0,0,1,1.36.39,1.41,1.41,0,0,1,.47,1.16v2.92H129l-.23-.59h0a2.72,2.72,0,0,1-.38.38,1.18,1.18,0,0,1-.45.22,2.25,2.25,0,0,1-.62.07,1.6,1.6,0,0,1-.7-.15,1.1,1.1,0,0,1-.48-.45,1.57,1.57,0,0,1-.18-.79,1.15,1.15,0,0,1,.49-1,2.8,2.8,0,0,1,1.47-.36l.76,0v-.19a.62.62,0,0,0-.18-.5.72.72,0,0,0-.5-.16,2.23,2.23,0,0,0-.63.09,5.77,5.77,0,0,0-.61.23l-.39-.81a3.3,3.3,0,0,1,.78-.29A3.8,3.8,0,0,1,128,192.84Zm.17,2.46a1.3,1.3,0,0,0-.8.21.61.61,0,0,0-.22.5.45.45,0,0,0,.16.39.66.66,0,0,0,.41.12,1,1,0,0,0,.65-.23.8.8,0,0,0,.27-.65v-.36Z"/><path d="M133.19,192.85h.21a1,1,0,0,1,.19,0L133.5,194l-.16,0h-.19a1.63,1.63,0,0,0-.45.06,1.17,1.17,0,0,0-.39.18.79.79,0,0,0-.27.35,1.15,1.15,0,0,0-.1.52v2.23h-1.2v-4.38h.91l.17.74h.06a1.81,1.81,0,0,1,.32-.41,1.9,1.9,0,0,1,.44-.3A1.42,1.42,0,0,1,133.19,192.85Z"/><path d="M135.4,192.85a1.66,1.66,0,0,1,.72.16,1.57,1.57,0,0,1,.55.48h0l.09-.56h1v4.39a2.09,2.09,0,0,1-.24,1.05,1.53,1.53,0,0,1-.73.64,2.9,2.9,0,0,1-1.21.23,5.94,5.94,0,0,1-.87-.06,4.15,4.15,0,0,1-.77-.2v-1a4,4,0,0,0,.83.26,5.14,5.14,0,0,0,.88.08.87.87,0,0,0,.69-.25,1.06,1.06,0,0,0,.23-.74v-.09a2.62,2.62,0,0,1,0-.28c0-.1,0-.18,0-.26h0a1.35,1.35,0,0,1-.54.5,1.6,1.6,0,0,1-.7.15,1.42,1.42,0,0,1-1.22-.6,3.32,3.32,0,0,1,0-3.34A1.44,1.44,0,0,1,135.4,192.85Zm.38,1a.72.72,0,0,0-.47.15.86.86,0,0,0-.28.44,2.54,2.54,0,0,0-.1.74,1.85,1.85,0,0,0,.21,1,.73.73,0,0,0,.65.32,1.16,1.16,0,0,0,.4-.06.52.52,0,0,0,.28-.2.86.86,0,0,0,.16-.36,2.15,2.15,0,0,0,.06-.55v-.14a2.25,2.25,0,0,0-.1-.76.71.71,0,0,0-.29-.42A.94.94,0,0,0,135.78,193.82Z"/><path d="M140.54,192.85a2.29,2.29,0,0,1,1.05.23,1.63,1.63,0,0,1,.67.68,2.21,2.21,0,0,1,.24,1.08v.58h-2.82a1.13,1.13,0,0,0,.3.79,1.08,1.08,0,0,0,.79.29,3.57,3.57,0,0,0,.77-.08,4.38,4.38,0,0,0,.71-.26v.92a3.12,3.12,0,0,1-.67.23,3.65,3.65,0,0,1-.86.08,2.72,2.72,0,0,1-1.17-.24,1.84,1.84,0,0,1-.79-.75,2.46,2.46,0,0,1-.29-1.25,2.86,2.86,0,0,1,.26-1.28,1.79,1.79,0,0,1,.73-.76A2.21,2.21,0,0,1,140.54,192.85Zm0,.85a.82.82,0,0,0-.58.23,1,1,0,0,0-.26.69h1.67a1.19,1.19,0,0,0-.09-.47.75.75,0,0,0-.28-.33A.83.83,0,0,0,140.55,193.7Z"/><path d="M145,196.44a2.33,2.33,0,0,0,.38,0l.37-.1v.89a3.14,3.14,0,0,1-.48.14,3,3,0,0,1-.62.06,1.75,1.75,0,0,1-.7-.13,1,1,0,0,1-.49-.44,1.8,1.8,0,0,1-.18-.88v-2.11h-.57v-.51l.66-.4.34-.92h.77v.93h1.22v.9h-1.22v2.11a.45.45,0,0,0,.14.37A.53.53,0,0,0,145,196.44Z"/><path d="M255.44,187.44a1.52,1.52,0,0,1-1,1.46,2.76,2.76,0,0,1-1.14.21,5.46,5.46,0,0,1-.58,0,4.88,4.88,0,0,1-.55-.12,2.62,2.62,0,0,1-.49-.19v-1.13c.27.12.55.23.85.33a2.62,2.62,0,0,0,.86.14,1.09,1.09,0,0,0,.48-.08.58.58,0,0,0,.27-.21.66.66,0,0,0,.08-.32.49.49,0,0,0-.15-.36,1.52,1.52,0,0,0-.39-.29l-.57-.28-.44-.23a2.66,2.66,0,0,1-.44-.33,1.57,1.57,0,0,1-.35-.48,1.51,1.51,0,0,1-.14-.67A1.59,1.59,0,0,1,252,184a1.55,1.55,0,0,1,.67-.56,2.7,2.7,0,0,1,1-.19,3.43,3.43,0,0,1,.86.11,5.25,5.25,0,0,1,.84.29l-.39.95a6.16,6.16,0,0,0-.71-.25,2.25,2.25,0,0,0-.64-.09,1.07,1.07,0,0,0-.38.07.54.54,0,0,0-.33.51.5.5,0,0,0,.12.34,1.4,1.4,0,0,0,.36.27c.16.08.36.19.6.3a4.25,4.25,0,0,1,.75.44,1.51,1.51,0,0,1,.48.53A1.54,1.54,0,0,1,255.44,187.44Z"/><path d="M259.33,187.49c0-.09-.06-.22-.1-.4s-.08-.37-.13-.58-.09-.39-.13-.57a2.7,2.7,0,0,1-.09-.38h0l-.09.38c0,.18-.08.37-.13.57s-.09.4-.14.58l-.09.42L258,189h-1.28l-1.24-4.38h1.19l.5,1.94a3.61,3.61,0,0,1,.1.48c0,.19.06.37.08.54s.05.31.06.41h0q0-.11,0-.3l.06-.38c0-.14.05-.26.07-.37s0-.18,0-.22l.54-2.1h1.32l.51,2.1a2.53,2.53,0,0,1,.07.36c0,.17.06.33.09.51a3.58,3.58,0,0,1,0,.4h0q0-.14.06-.39l.09-.55c0-.19.07-.36.11-.49l.52-1.94h1.17L261,189h-1.3Z"/><path d="M263.21,182.93a.75.75,0,0,1,.45.13.5.5,0,0,1,.2.46.49.49,0,0,1-.2.45.75.75,0,0,1-.45.13.76.76,0,0,1-.46-.13.48.48,0,0,1-.19-.45.49.49,0,0,1,.19-.46A.76.76,0,0,1,263.21,182.93Zm.59,1.72V189h-1.19v-4.38Z"/><path d="M266.57,188.15a1.61,1.61,0,0,0,.39,0l.37-.09v.89a3.14,3.14,0,0,1-.48.14,3,3,0,0,1-.62.06,1.9,1.9,0,0,1-.7-.13,1,1,0,0,1-.49-.45,1.78,1.78,0,0,1-.18-.88v-2.1h-.57V185l.66-.4.34-.92h.76v.93h1.23v.9h-1.23v2.1a.46.46,0,0,0,.15.38A.55.55,0,0,0,266.57,188.15Z"/><path d="M269.67,189.11a2.39,2.39,0,0,1-1.11-.24,1.58,1.58,0,0,1-.69-.73,2.83,2.83,0,0,1-.25-1.28,2.72,2.72,0,0,1,.28-1.3,1.7,1.7,0,0,1,.75-.75,2.52,2.52,0,0,1,1.12-.24,3,3,0,0,1,.78.09,4.49,4.49,0,0,1,.59.2l-.36.93a4.79,4.79,0,0,0-.52-.19,2.07,2.07,0,0,0-.49-.07.81.81,0,0,0-.83.59,2.47,2.47,0,0,0-.1.73,2.1,2.1,0,0,0,.11.72.82.82,0,0,0,.82.57,2.2,2.2,0,0,0,.67-.1,2.66,2.66,0,0,0,.56-.28v1a1.8,1.8,0,0,1-.57.25A3.22,3.22,0,0,1,269.67,189.11Z"/><path d="M272.88,184.18c0,.21,0,.41,0,.61s0,.34,0,.42h.06a1.31,1.31,0,0,1,.34-.36,1.15,1.15,0,0,1,.43-.21,1.59,1.59,0,0,1,.5-.07,1.77,1.77,0,0,1,.82.17,1.15,1.15,0,0,1,.55.52,1.75,1.75,0,0,1,.2.91V189h-1.19v-2.56a1.16,1.16,0,0,0-.18-.71.6.6,0,0,0-.53-.24.85.85,0,0,0-.56.17.93.93,0,0,0-.3.49,3,3,0,0,0-.09.79V189h-1.19v-6.1h1.19Z"/><path d="M278.43,184.56a2.11,2.11,0,0,1,1.35.38,1.4,1.4,0,0,1,.47,1.17V189h-.83l-.23-.6h0a2,2,0,0,1-.38.39,1.35,1.35,0,0,1-.45.22,2.59,2.59,0,0,1-.62.07A1.58,1.58,0,0,1,277,189a1.09,1.09,0,0,1-.49-.46,1.64,1.64,0,0,1-.17-.78,1.14,1.14,0,0,1,.49-1,2.85,2.85,0,0,1,1.46-.37l.77,0v-.19a.66.66,0,0,0-.18-.51.8.8,0,0,0-.51-.16,2.16,2.16,0,0,0-.62.09c-.2.07-.41.14-.61.23l-.39-.81a3,3,0,0,1,.78-.28A3.24,3.24,0,0,1,278.43,184.56Zm.17,2.45a1.3,1.3,0,0,0-.8.21.65.65,0,0,0-.23.51.47.47,0,0,0,.16.39.77.77,0,0,0,.42.11.93.93,0,0,0,.65-.23.78.78,0,0,0,.27-.64V187Z"/><path d="M282.35,184.35c0,.17,0,.33,0,.49a2.77,2.77,0,0,1,0,.38h.05a1.51,1.51,0,0,1,.48-.46,1.35,1.35,0,0,1,.77-.19,1.45,1.45,0,0,1,1.19.57,2.7,2.7,0,0,1,.46,1.69,3.08,3.08,0,0,1-.22,1.25,1.61,1.61,0,0,1-.59.77,1.52,1.52,0,0,1-.88.26,1.34,1.34,0,0,1-.75-.18,1.61,1.61,0,0,1-.46-.39h-.08l-.2.49h-.91v-6.1h1.19Zm.86,1.17a.92.92,0,0,0-.5.13.81.81,0,0,0-.27.39,2.75,2.75,0,0,0-.09.65v.13a2.15,2.15,0,0,0,.19,1,.73.73,0,0,0,.69.34.67.67,0,0,0,.58-.34,1.82,1.82,0,0,0,.22-1,1.77,1.77,0,0,0-.22-1A.69.69,0,0,0,283.21,185.52Z"/><path d="M287.11,189h-1.2v-6.1h1.2Z"/><path d="M289.84,184.57a2.26,2.26,0,0,1,1.05.23,1.66,1.66,0,0,1,.67.67,2.28,2.28,0,0,1,.24,1.09v.57H289a1.14,1.14,0,0,0,.3.8,1.08,1.08,0,0,0,.79.29,3,3,0,0,0,.77-.09,3.31,3.31,0,0,0,.72-.26v.92a2.75,2.75,0,0,1-.68.24,4.27,4.27,0,0,1-.86.08,2.58,2.58,0,0,1-1.17-.25,1.82,1.82,0,0,1-.79-.74,2.49,2.49,0,0,1-.29-1.25,2.86,2.86,0,0,1,.26-1.28,1.79,1.79,0,0,1,.73-.76A2.11,2.11,0,0,1,289.84,184.57Zm0,.85a.81.81,0,0,0-.58.22,1.07,1.07,0,0,0-.26.7h1.67a1.16,1.16,0,0,0-.09-.47.69.69,0,0,0-.28-.33A.81.81,0,0,0,289.85,185.42Z"/><path d="M263.38,195.29a2.12,2.12,0,0,1-.26,1.07,1.77,1.77,0,0,1-.78.75,2.79,2.79,0,0,1-1.33.28,2.35,2.35,0,0,1-1.73-.58,2,2,0,0,1-.6-1.54v-3.68h1.21v3.5a1.38,1.38,0,0,0,.29,1,1.15,1.15,0,0,0,.86.29,1.37,1.37,0,0,0,.65-.13.79.79,0,0,0,.37-.43,2.12,2.12,0,0,0,.11-.73v-3.49h1.21Z"/><path d="M267.84,195.72a1.52,1.52,0,0,1-1,1.47,3,3,0,0,1-1.14.2,3.69,3.69,0,0,1-.58,0,4.86,4.86,0,0,1-.55-.11l-.49-.19v-1.13l.85.32a2.65,2.65,0,0,0,.87.15,1.21,1.21,0,0,0,.47-.08.6.6,0,0,0,.27-.22.53.53,0,0,0,.08-.31.55.55,0,0,0-.14-.37,1.57,1.57,0,0,0-.4-.28l-.57-.29-.43-.23a2,2,0,0,1-.45-.32,1.85,1.85,0,0,1-.35-.48,1.56,1.56,0,0,1-.13-.68,1.53,1.53,0,0,1,.23-.87,1.46,1.46,0,0,1,.68-.56,2.49,2.49,0,0,1,1-.19,3.36,3.36,0,0,1,.85.1,5.81,5.81,0,0,1,.85.3l-.4.94c-.26-.1-.49-.19-.7-.25a2.74,2.74,0,0,0-.64-.08.94.94,0,0,0-.39.07.48.48,0,0,0-.24.2.51.51,0,0,0-.09.3.49.49,0,0,0,.12.34,1.06,1.06,0,0,0,.36.27l.61.31a4.52,4.52,0,0,1,.74.43,1.6,1.6,0,0,1,.48.53A1.54,1.54,0,0,1,267.84,195.72Z"/><path d="M270.34,191.59a3.6,3.6,0,0,1,1.73.32,1.18,1.18,0,0,1,.59,1.13,1.76,1.76,0,0,1-.1.58,1.17,1.17,0,0,1-.31.44,1,1,0,0,1-.47.21v0a1.81,1.81,0,0,1,.52.2,1.08,1.08,0,0,1,.37.42,1.63,1.63,0,0,1,.13.72,1.56,1.56,0,0,1-.25.9,1.64,1.64,0,0,1-.72.56,2.78,2.78,0,0,1-1.13.2h-2.14v-5.72Zm.14,2.27a1.18,1.18,0,0,0,.73-.17.59.59,0,0,0,.21-.49.5.5,0,0,0-.24-.47,1.51,1.51,0,0,0-.77-.15h-.64v1.28Zm-.71,1v1.49h.8a1.1,1.1,0,0,0,.76-.21.78.78,0,0,0,.22-.57.8.8,0,0,0-.1-.38.6.6,0,0,0-.31-.24,1.71,1.71,0,0,0-.61-.09Z"/><path d="M279,197.31h-4v-.84l1.44-1.45q.44-.45.69-.75a2.35,2.35,0,0,0,.39-.55,1.14,1.14,0,0,0,.12-.52.63.63,0,0,0-.19-.51.72.72,0,0,0-.51-.17,1.46,1.46,0,0,0-.64.15,3.68,3.68,0,0,0-.66.43l-.66-.78c.17-.14.35-.27.53-.4a2.71,2.71,0,0,1,.64-.3,3.25,3.25,0,0,1,.88-.11,2.1,2.1,0,0,1,1,.2,1.58,1.58,0,0,1,.62.55,1.45,1.45,0,0,1,.22.79,1.92,1.92,0,0,1-.19.87,3.05,3.05,0,0,1-.54.78c-.24.25-.53.54-.86.85l-.74.69v0H279Z"/><path d="M279.39,196.75a.63.63,0,0,1,.2-.52.81.81,0,0,1,.49-.15.76.76,0,0,1,.48.15.6.6,0,0,1,.2.52.59.59,0,0,1-.2.51.77.77,0,0,1-.48.16.82.82,0,0,1-.49-.16A.62.62,0,0,1,279.39,196.75Z"/><path d="M285.19,194.45a6.46,6.46,0,0,1-.11,1.23,2.61,2.61,0,0,1-.34.93,1.64,1.64,0,0,1-.62.58,2,2,0,0,1-.93.2,1.77,1.77,0,0,1-1.13-.35,2,2,0,0,1-.66-1,5.26,5.26,0,0,1-.21-1.58,5.68,5.68,0,0,1,.19-1.59,1.94,1.94,0,0,1,.64-1,1.83,1.83,0,0,1,1.17-.35,1.81,1.81,0,0,1,1.13.35,2,2,0,0,1,.65,1A5,5,0,0,1,285.19,194.45Zm-2.8,0a8.19,8.19,0,0,0,.07,1.09,1.36,1.36,0,0,0,.25.65.55.55,0,0,0,.48.22.57.57,0,0,0,.47-.21,1.4,1.4,0,0,0,.25-.66,6.49,6.49,0,0,0,.08-1.09,6.71,6.71,0,0,0-.08-1.1,1.36,1.36,0,0,0-.25-.65.55.55,0,0,0-.47-.22.55.55,0,0,0-.48.22,1.36,1.36,0,0,0-.25.65A8.23,8.23,0,0,0,282.39,194.45Z"/><path d="M199.49,29.31h-1.21V26.84H196v2.47H194.8V23.59H196v2.24h2.27V23.59h1.21Z"/><path d="M204.5,27.12a3,3,0,0,1-.15,1,1.88,1.88,0,0,1-.43.71,1.7,1.7,0,0,1-.67.44,2.48,2.48,0,0,1-.89.15,2.32,2.32,0,0,1-.84-.15,1.7,1.7,0,0,1-.67-.44,1.9,1.9,0,0,1-.44-.71,2.94,2.94,0,0,1-.16-1,2.74,2.74,0,0,1,.26-1.24,1.81,1.81,0,0,1,.74-.76,2.29,2.29,0,0,1,1.14-.27,2.18,2.18,0,0,1,1.09.27,1.93,1.93,0,0,1,.74.76A2.61,2.61,0,0,1,204.5,27.12Zm-3,0a2.48,2.48,0,0,0,.09.72.85.85,0,0,0,.3.44.82.82,0,0,0,.52.15.84.84,0,0,0,.52-.15.82.82,0,0,0,.28-.44,2.16,2.16,0,0,0,.1-.72,2.22,2.22,0,0,0-.1-.73.76.76,0,0,0-.81-.57.77.77,0,0,0-.69.32A1.83,1.83,0,0,0,201.47,27.12Z"/><path d="M208.22,28a1.28,1.28,0,0,1-.21.75,1.23,1.23,0,0,1-.63.47,2.82,2.82,0,0,1-1,.16,4.46,4.46,0,0,1-.79-.06,3,3,0,0,1-.65-.19v-1a4,4,0,0,0,.76.26,2.94,2.94,0,0,0,.72.11.9.9,0,0,0,.5-.11.32.32,0,0,0,.15-.27.36.36,0,0,0-.06-.2.89.89,0,0,0-.26-.2l-.63-.29a4.09,4.09,0,0,1-.67-.35,1,1,0,0,1-.39-.41,1.29,1.29,0,0,1-.13-.62,1,1,0,0,1,.47-.91,2.32,2.32,0,0,1,1.26-.31,4,4,0,0,1,.78.08,4.35,4.35,0,0,1,.76.27l-.36.86c-.22-.09-.42-.17-.61-.23a2,2,0,0,0-.59-.09.8.8,0,0,0-.39.07.24.24,0,0,0-.14.21.32.32,0,0,0,.07.19.69.69,0,0,0,.27.18c.13.07.32.15.58.26a4.38,4.38,0,0,1,.65.32,1.11,1.11,0,0,1,.57,1Z"/><path d="M210.67,28.44a2.33,2.33,0,0,0,.38,0l.37-.1v.89a2.14,2.14,0,0,1-.48.14,2.9,2.9,0,0,1-.62.06,1.75,1.75,0,0,1-.7-.13,1,1,0,0,1-.49-.44,1.8,1.8,0,0,1-.18-.88V25.83h-.57v-.5l.66-.4.35-.93h.76v.93h1.22v.9h-1.22v2.11a.47.47,0,0,0,.14.37A.53.53,0,0,0,210.67,28.44Z"/><path d="M195.28,197.31h-2.61v-.69l.7-.32v-3.7l-.7-.32v-.69h2.61v.69l-.7.32v3.7l.7.32Z"/><path d="M198.33,192.85a1.66,1.66,0,0,1,1.13.38,1.61,1.61,0,0,1,.42,1.23v2.85h-1.19v-2.56a1.26,1.26,0,0,0-.17-.71.63.63,0,0,0-.54-.23.78.78,0,0,0-.75.37,2.38,2.38,0,0,0-.19,1.07v2.06h-1.2v-4.38h.91l.17.56H197a1.2,1.2,0,0,1,.35-.36,1.82,1.82,0,0,1,.47-.21A2.26,2.26,0,0,1,198.33,192.85Z"/><path d="M203.22,192.85a1.45,1.45,0,0,1,1.2.58,2.68,2.68,0,0,1,.46,1.69,3.29,3.29,0,0,1-.22,1.25,1.73,1.73,0,0,1-.59.77,1.54,1.54,0,0,1-.88.25,1.46,1.46,0,0,1-.54-.08,1.22,1.22,0,0,1-.39-.21,1.79,1.79,0,0,1-.28-.27h-.06c0,.1,0,.21.05.32s0,.22,0,.32v1.77h-1.19v-6.31h1l.17.57h0a2.15,2.15,0,0,1,.29-.32,1.27,1.27,0,0,1,.41-.24A1.49,1.49,0,0,1,203.22,192.85Zm-.38,1a.84.84,0,0,0-.5.13.73.73,0,0,0-.27.38,2.92,2.92,0,0,0-.09.66v.13a2.84,2.84,0,0,0,.08.71.91.91,0,0,0,.27.45.86.86,0,0,0,.53.15.63.63,0,0,0,.44-.15.91.91,0,0,0,.27-.45,2.53,2.53,0,0,0,.09-.72,1.92,1.92,0,0,0-.2-1A.68.68,0,0,0,202.84,193.81Z"/><path d="M209.56,192.93v4.38h-.92l-.16-.56h-.06a1.1,1.1,0,0,1-.35.36,1.33,1.33,0,0,1-.47.21,1.88,1.88,0,0,1-.53.07,1.8,1.8,0,0,1-.82-.17,1.18,1.18,0,0,1-.54-.52,1.86,1.86,0,0,1-.19-.91v-2.86h1.19v2.56a1.26,1.26,0,0,0,.17.71.61.61,0,0,0,.54.24.9.9,0,0,0,.57-.17.92.92,0,0,0,.29-.49,3.5,3.5,0,0,0,.08-.79v-2.06Z"/><path d="M212.33,196.44a2.45,2.45,0,0,0,.39,0l.37-.1v.89a3.14,3.14,0,0,1-.48.14,3,3,0,0,1-.62.06,1.71,1.71,0,0,1-.7-.13,1,1,0,0,1-.49-.44,1.8,1.8,0,0,1-.18-.88v-2.11h-.57v-.5l.65-.4.35-.93h.76v.93H213v.9h-1.23v2.11a.44.44,0,0,0,.15.37A.51.51,0,0,0,212.33,196.44Z"/><path d="M259.13,28.54h-.8V26.91h-1.5v1.63H256V24.75h.8v1.49h1.5V24.75h.8Z"/><path d="M261.92,23.67a.4.4,0,0,1,.4.4V30h-9.47V24.07a.39.39,0,0,1,.39-.4Zm-8.68-.79a1.18,1.18,0,0,0-1.18,1.19v6.7h11v-6.7a1.18,1.18,0,0,0-1.18-1.19Zm-2,8.29h12.62a1.18,1.18,0,0,1-1.18,1.18H252.45a1.18,1.18,0,0,1-1.18-1.18"/><path class="cls-6" d="M277.9,27.43c0-.06,0-.12,0-.18a1.37,1.37,0,0,1,0-.19,592004938849.62,592004938849.62,0,0,1-.08-.36,1.21,1.21,0,0,0-.05-.18,1.21,1.21,0,0,0-.05-.18c0-.06-.05-.12-.07-.17s-.05-.12-.08-.17a1.3,1.3,0,0,0-.08-.17l-.09-.16a1.4,1.4,0,0,1-.1-.16l-.11-.15-.11-.15-.12-.14a1.59,1.59,0,0,1-.13-.13l-.14-.13-.14-.12-.15-.12-.15-.1-.15-.1-.17-.09-.16-.09-.17-.07-.18-.07-.17-.06-.18,0-.18,0-.19,0-.18,0-.19,0h-5.51l-.18,0-.19,0-.18,0-.18,0-.18,0-.18.06-.17.07-.17.07-.17.09-.16.09-.16.1-.15.1-.14.12-.15.12a1.59,1.59,0,0,0-.13.13l-.13.13-.12.14-.12.15-.1.15a1.4,1.4,0,0,0-.1.16l-.09.16-.09.17c0,.05-.05.11-.07.17a.87.87,0,0,0-.07.17l-.06.18c0,.06,0,.12-.05.18s0,.12,0,.18l0,.18a1.11,1.11,0,0,0,0,.19c0,.06,0,.12,0,.18v.37c0,.06,0,.13,0,.19a1.1,1.1,0,0,0,0,.18l0,.19c0,.06,0,.12,0,.18s0,.12.05.18l.06.17a1.34,1.34,0,0,0,.07.18c0,.05,0,.11.07.17l.09.16.09.16a.86.86,0,0,0,.1.16l.1.15.12.15.12.14.13.14.13.12.15.13.14.11.15.11.16.1.16.09.17.08.17.08.17.06.18.06.18.05.18,0,.18,0,.19,0h5.88l.18,0,.19,0,.18,0,.18-.05.17-.06.18-.06.17-.08.16-.08.17-.09.15-.1s.11-.07.15-.11l.15-.11.14-.13.14-.12.13-.14.12-.14.11-.15.11-.15.1-.16.09-.16a1.19,1.19,0,0,0,.08-.16c0-.06,0-.12.08-.17a1.34,1.34,0,0,1,.07-.18,1.09,1.09,0,0,0,.05-.17,1.21,1.21,0,0,0,.05-.18,1.16,1.16,0,0,0,0-.18,1.62,1.62,0,0,0,0-.19,1.1,1.1,0,0,1,0-.18c0-.06,0-.13,0-.19s0-.12,0-.18S277.9,27.49,277.9,27.43Zm-6.36.4,0,.21a1.66,1.66,0,0,1-.06.21,1.59,1.59,0,0,1-.07.2.82.82,0,0,1-.09.19,1.74,1.74,0,0,1-.11.18l-.12.17-.15.16-.16.15-.17.12-.18.11a.82.82,0,0,1-.19.09l-.2.07-.21.06-.21,0h-.43l-.21,0-.2-.06-.2-.07a.88.88,0,0,1-.2-.09l-.18-.11L268,29.3l-.16-.15a1.07,1.07,0,0,1-.14-.16,1.09,1.09,0,0,1-.13-.17l-.11-.18-.09-.19a2.08,2.08,0,0,1-.12-.41.76.76,0,0,1,0-.21,1.48,1.48,0,0,1,0-.21,1.62,1.62,0,0,1,0-.22.76.76,0,0,1,0-.21,2.28,2.28,0,0,1,.12-.4l.09-.2.11-.18a1.09,1.09,0,0,1,.13-.17,1.6,1.6,0,0,1,.3-.3l.17-.13.18-.11.2-.09.2-.07.2-.05a.76.76,0,0,1,.21,0h.43a.76.76,0,0,1,.21,0l.21.05.2.07.19.09.18.11a1.09,1.09,0,0,1,.17.13,1.07,1.07,0,0,1,.16.14l.15.16.12.17a1.74,1.74,0,0,1,.11.18.88.88,0,0,1,.09.2,4.65,4.65,0,0,1,.13.4l0,.21c0,.07,0,.15,0,.22S271.54,27.76,271.54,27.83Z"/><path d="M289.86,23.67a.4.4,0,0,1,.39.4V30h-9.47V24.07a.4.4,0,0,1,.4-.4Zm-8.68-.79A1.19,1.19,0,0,0,280,24.07v6.7H291v-6.7a1.18,1.18,0,0,0-1.18-1.19Zm-2,8.29h12.63a1.18,1.18,0,0,1-1.18,1.18H280.39a1.18,1.18,0,0,1-1.19-1.18"/><path d="M285.92,28.82h-.8V25.7h-1V25H287v.67h-1Z"/><path d="M129.39,23.59a2.35,2.35,0,0,1,1.61.47,1.72,1.72,0,0,1,.51,1.31,2.36,2.36,0,0,1-.11.72,1.67,1.67,0,0,1-.37.61,1.83,1.83,0,0,1-.69.42,2.92,2.92,0,0,1-1.05.15h-.52v2h-1.21V23.59Zm-.07,1h-.55v1.7h.4a1.7,1.7,0,0,0,.59-.09.76.76,0,0,0,.39-.28.83.83,0,0,0,.13-.49.76.76,0,0,0-.23-.63A1.06,1.06,0,0,0,129.32,24.58Z"/><path d="M132.78,23.22a.82.82,0,0,1,.45.12.52.52,0,0,1,.2.46.51.51,0,0,1-.2.46.75.75,0,0,1-.45.13.76.76,0,0,1-.46-.13.5.5,0,0,1-.19-.46.51.51,0,0,1,.19-.46A.83.83,0,0,1,132.78,23.22Zm.59,1.71v4.38h-1.19V24.93Z"/><path d="M136.79,24.85a1.62,1.62,0,0,1,1.13.39,1.57,1.57,0,0,1,.42,1.22v2.85h-1.19V26.75A1.26,1.26,0,0,0,137,26a.63.63,0,0,0-.54-.23.76.76,0,0,0-.74.37,2.24,2.24,0,0,0-.2,1.07v2.06h-1.2V24.93h.92l.16.56h.06a1.33,1.33,0,0,1,.35-.36,1.82,1.82,0,0,1,.47-.21A2.33,2.33,0,0,1,136.79,24.85Z"/><path d="M142.3,28a1.28,1.28,0,0,1-.21.75,1.16,1.16,0,0,1-.62.47,2.82,2.82,0,0,1-1,.16,4.46,4.46,0,0,1-.79-.06,3.28,3.28,0,0,1-.66-.19v-1a4.53,4.53,0,0,0,.76.26,3.08,3.08,0,0,0,.72.11.92.92,0,0,0,.51-.11.33.33,0,0,0,.14-.27.36.36,0,0,0-.06-.2.77.77,0,0,0-.26-.2c-.13-.07-.34-.17-.62-.29a4.09,4.09,0,0,1-.67-.35,1.12,1.12,0,0,1-.4-.41,1.42,1.42,0,0,1-.13-.62,1,1,0,0,1,.48-.91,2.3,2.3,0,0,1,1.26-.31,3.79,3.79,0,0,1,.77.08,4.08,4.08,0,0,1,.76.27l-.36.86c-.21-.09-.41-.17-.6-.23a2,2,0,0,0-.59-.09.84.84,0,0,0-.4.07.23.23,0,0,0-.13.21.26.26,0,0,0,.07.19.64.64,0,0,0,.26.18c.13.07.33.15.58.26a3.94,3.94,0,0,1,.65.32,1,1,0,0,1,.42.41A1.18,1.18,0,0,1,142.3,28Z"/><path d="M123.16,94.56V89.27h1l2,2.37,2-2.37h1v5.29h-.89V90.5L126.15,93,124,90.51v4Z"/><path d="M129.81,89.78V88.9h.87v.88Zm0,4.78V90.3h.87v4.26Z"/><path d="M131.38,94.56V90.3h3.36a.91.91,0,0,1,.48.13,1,1,0,0,1,.36.36,1,1,0,0,1,.13.49v3.28h-.87V91.31a.13.13,0,0,0,0-.1.18.18,0,0,0-.09,0H132.4a.18.18,0,0,0-.1,0,.13.13,0,0,0,0,.1v3.25Z"/><path d="M136.34,89.78V88.9h.87v.88Zm0,4.78V90.3h.87v4.26Z"/><path d="M137.85,92.83V92h3v.88Z"/><path d="M141.49,94.56V89.27h.89v2.2h1.35l1.85-2.2h1v.21l-2,2.44,2,2.43v.21h-1l-1.85-2.2h-1.35v2.2Z"/><path d="M150.1,94.56,147,89.27h1l2.44,4.25L153,89.27h1l-3.06,5.29Z"/><path d="M154.42,94.56V89.27h1l2,2.37,2-2.37h1v5.29h-.89V90.5L157.41,93l-2.11-2.5v4Z"/><path d="M161.79,91a.55.55,0,0,1,.17-.45.63.63,0,0,1,.39-.13.6.6,0,0,1,.4.13.65.65,0,0,1,0,.88.6.6,0,0,1-.4.13.58.58,0,0,1-.39-.13A.52.52,0,0,1,161.79,91Zm0,3a.53.53,0,0,1,.17-.44.62.62,0,0,1,.39-.12.65.65,0,0,1,.4.12.65.65,0,0,1,0,.88.66.66,0,0,1-.4.13.63.63,0,0,1-.39-.13A.53.53,0,0,1,161.79,94Z"/><path d="M166.39,94.51h-.94V90.06h-1.51v-.79h3.95v.79h-1.5Z"/><path d="M171.48,90.53v4h-.73l-.12-.51h0a.92.92,0,0,1-.32.33,1.38,1.38,0,0,1-.43.19,1.61,1.61,0,0,1-.49.07,1.64,1.64,0,0,1-.76-.16,1.08,1.08,0,0,1-.5-.47,1.81,1.81,0,0,1-.16-.83v-2.6h.92V93a1,1,0,0,0,.18.66.67.67,0,0,0,.56.23.91.91,0,0,0,.58-.16.84.84,0,0,0,.31-.46,2.66,2.66,0,0,0,.08-.74v-2Z"/><path d="M174.46,90.46h.2l.2,0-.08.86-.17,0h-.19a1.16,1.16,0,0,0-.42.07.91.91,0,0,0-.36.2.9.9,0,0,0-.25.35,1.29,1.29,0,0,0-.09.51v2.06h-.93v-4h.71l.13.69h0a1.82,1.82,0,0,1,.29-.38,1.42,1.42,0,0,1,.41-.28A1.21,1.21,0,0,1,174.46,90.46Z"/><path d="M177.43,90.46a1.49,1.49,0,0,1,1,.34,1.47,1.47,0,0,1,.38,1.12v2.59h-.93V92.1a1.12,1.12,0,0,0-.17-.67.68.68,0,0,0-.56-.22.81.81,0,0,0-.77.35,2.1,2.1,0,0,0-.2,1v1.94h-.93v-4H176l.13.52h0a1.16,1.16,0,0,1,.32-.34,1.52,1.52,0,0,1,.43-.19A1.91,1.91,0,0,1,177.43,90.46Z"/><path d="M182.37,91.58l1.2-2.31h1l-1.74,3.2v2h-.94v-2l-1.74-3.24h1Z"/><path d="M188.08,92.51a2.68,2.68,0,0,1-.14.89,1.83,1.83,0,0,1-.38.65,1.48,1.48,0,0,1-.6.4,2.24,2.24,0,0,1-.8.14,2,2,0,0,1-.75-.14,1.59,1.59,0,0,1-.59-.4,2,2,0,0,1-.4-.65,2.68,2.68,0,0,1-.14-.89,2.46,2.46,0,0,1,.23-1.11,1.55,1.55,0,0,1,.66-.7,2.05,2.05,0,0,1,1-.24,2,2,0,0,1,1,.24,1.63,1.63,0,0,1,.66.69A2.41,2.41,0,0,1,188.08,92.51Zm-2.85,0a2.2,2.2,0,0,0,.1.72.89.89,0,0,0,.31.45.85.85,0,0,0,.54.16.88.88,0,0,0,.55-.16.82.82,0,0,0,.3-.45,2.2,2.2,0,0,0,.1-.72,2.38,2.38,0,0,0-.1-.71.82.82,0,0,0-.85-.59.79.79,0,0,0-.72.34A1.62,1.62,0,0,0,185.23,92.51Z"/><path d="M192.27,90.53v4h-.73l-.12-.51h0a1,1,0,0,1-.33.33,1.28,1.28,0,0,1-.43.19,1.61,1.61,0,0,1-.49.07,1.64,1.64,0,0,1-.76-.16,1,1,0,0,1-.49-.47,1.68,1.68,0,0,1-.17-.83v-2.6h.92V93a1,1,0,0,0,.18.66.67.67,0,0,0,.56.23,1,1,0,0,0,.59-.16.89.89,0,0,0,.3-.46,2.63,2.63,0,0,0,.09-.74v-2Z"/><path d="M195.25,90.46h.2l.2,0-.08.86-.17,0h-.19a1.16,1.16,0,0,0-.42.07.91.91,0,0,0-.36.2.9.9,0,0,0-.25.35,1.29,1.29,0,0,0-.09.51v2.06h-.93v-4h.71l.14.69h0a1.82,1.82,0,0,1,.29-.38,1.42,1.42,0,0,1,.41-.28A1.21,1.21,0,0,1,195.25,90.46Z"/><path d="M197.21,94.51V89.27h.94v4.45h2.19v.79Z"/><path d="M202.46,90.46a1.81,1.81,0,0,1,1.17.33,1.27,1.27,0,0,1,.4,1v2.67h-.65l-.19-.55h0a2,2,0,0,1-.35.36,1.12,1.12,0,0,1-.41.2,1.82,1.82,0,0,1-.56.07,1.66,1.66,0,0,1-.64-.13,1.08,1.08,0,0,1-.44-.41,1.37,1.37,0,0,1-.16-.7,1.06,1.06,0,0,1,.45-.93,2.57,2.57,0,0,1,1.37-.34l.69,0v-.2a.7.7,0,0,0-.18-.54.76.76,0,0,0-.52-.17,1.9,1.9,0,0,0-.58.09q-.27.09-.54.21L201,90.8a3.47,3.47,0,0,1,.67-.25A3.35,3.35,0,0,1,202.46,90.46Zm.17,2.19a1.43,1.43,0,0,0-.85.21.59.59,0,0,0-.23.5.44.44,0,0,0,.17.4.65.65,0,0,0,.43.13,1,1,0,0,0,.68-.23.85.85,0,0,0,.28-.69v-.34Z"/><path d="M207,90.46a1.41,1.41,0,0,1,1.13.51,2.42,2.42,0,0,1,.42,1.54,2.89,2.89,0,0,1-.19,1.14,1.53,1.53,0,0,1-.56.7,1.41,1.41,0,0,1-.82.24,1.6,1.6,0,0,1-.51-.08,1.31,1.31,0,0,1-.37-.2,2.23,2.23,0,0,1-.27-.26h0c0,.09,0,.19,0,.3s0,.21,0,.31v1.62h-.92V90.53h.75l.13.53h0a2.61,2.61,0,0,1,.27-.31,1.22,1.22,0,0,1,.39-.21A1.33,1.33,0,0,1,207,90.46Zm-.26.75a.89.89,0,0,0-.52.13.66.66,0,0,0-.29.39,2.41,2.41,0,0,0-.1.66v.12a2.53,2.53,0,0,0,.09.72.94.94,0,0,0,.28.45.92.92,0,0,0,.55.15.68.68,0,0,0,.48-.16.92.92,0,0,0,.28-.46,2.5,2.5,0,0,0,.09-.71,1.79,1.79,0,0,0-.2-1A.71.71,0,0,0,206.73,91.21Z"/><path d="M210.75,93.84a1.87,1.87,0,0,0,.34,0l.3-.08v.7a2.21,2.21,0,0,1-.38.11,2.65,2.65,0,0,1-.5,0,1.51,1.51,0,0,1-.61-.12.87.87,0,0,1-.44-.39,1.56,1.56,0,0,1-.17-.78V91.23h-.53v-.41l.58-.32.3-.84h.58v.87h1.13v.7h-1.13v2.06a.54.54,0,0,0,.15.42A.52.52,0,0,0,210.75,93.84Z"/><path d="M215.45,92.51a2.69,2.69,0,0,1-.13.89,2,2,0,0,1-.38.65,1.48,1.48,0,0,1-.6.4,2.24,2.24,0,0,1-.8.14,2,2,0,0,1-.75-.14,1.62,1.62,0,0,1-.6-.4,1.85,1.85,0,0,1-.39-.65,2.68,2.68,0,0,1-.14-.89,2.46,2.46,0,0,1,.23-1.11,1.58,1.58,0,0,1,.65-.7,2.08,2.08,0,0,1,1-.24,1.92,1.92,0,0,1,1,.24,1.6,1.6,0,0,1,.67.69A2.41,2.41,0,0,1,215.45,92.51Zm-2.84,0a2.2,2.2,0,0,0,.1.72.83.83,0,0,0,.31.45,1,1,0,0,0,1.08,0,.89.89,0,0,0,.31-.45,2.53,2.53,0,0,0,.09-.72,2.09,2.09,0,0,0-.1-.71.83.83,0,0,0-.3-.44.91.91,0,0,0-.54-.15.8.8,0,0,0-.73.34A1.71,1.71,0,0,0,212.61,92.51Z"/><path d="M218.21,90.46a1.39,1.39,0,0,1,1.12.51,2.36,2.36,0,0,1,.43,1.54,2.88,2.88,0,0,1-.2,1.14,1.52,1.52,0,0,1-.55.7,1.44,1.44,0,0,1-.82.24,1.6,1.6,0,0,1-.51-.08,1.37,1.37,0,0,1-.38-.2,1.6,1.6,0,0,1-.26-.26H217a1.36,1.36,0,0,1,0,.3c0,.11,0,.21,0,.31v1.62h-.93V90.53h.75l.14.53h0a1.54,1.54,0,0,1,.27-.31,1.07,1.07,0,0,1,.38-.21A1.39,1.39,0,0,1,218.21,90.46Zm-.27.75a.91.91,0,0,0-.52.13.64.64,0,0,0-.28.39,2.08,2.08,0,0,0-.1.66v.12a3,3,0,0,0,.08.72,1,1,0,0,0,.29.45.92.92,0,0,0,.55.15.7.7,0,0,0,.48-.16,1,1,0,0,0,.28-.46,2.5,2.5,0,0,0,.09-.71,1.78,1.78,0,0,0-.21-1A.71.71,0,0,0,217.94,91.21Z"/><path d="M223.32,94.51h-2.21V94l.63-.24V90.05l-.63-.25v-.53h2.21v.53l-.64.25v3.69l.64.24Z"/><path d="M226,90.46a1.27,1.27,0,0,1,1.42,1.46v2.59h-.93V92.1a1.05,1.05,0,0,0-.17-.67.68.68,0,0,0-.56-.22.79.79,0,0,0-.76.35,2,2,0,0,0-.21,1v1.94h-.93v-4h.72l.13.52h.05a1.3,1.3,0,0,1,.32-.34,1.52,1.52,0,0,1,.43-.19A2,2,0,0,1,226,90.46Z"/><path d="M229.84,93.84a1.87,1.87,0,0,0,.34,0l.3-.08v.7a2,2,0,0,1-.38.11,2.63,2.63,0,0,1-.49,0,1.56,1.56,0,0,1-.62-.12.87.87,0,0,1-.44-.39,1.56,1.56,0,0,1-.16-.78V91.23h-.54v-.41l.59-.32.29-.84h.58v.87h1.13v.7h-1.13v2.06a.54.54,0,0,0,.15.42A.55.55,0,0,0,229.84,93.84Z"/><path d="M234.55,92.51a2.68,2.68,0,0,1-.14.89,1.69,1.69,0,0,1-.38.65,1.48,1.48,0,0,1-.6.4,2.22,2.22,0,0,1-.79.14,2,2,0,0,1-.75-.14,1.62,1.62,0,0,1-.6-.4,2,2,0,0,1-.4-.65,2.68,2.68,0,0,1-.14-.89A2.46,2.46,0,0,1,231,91.4a1.55,1.55,0,0,1,.66-.7,2.08,2.08,0,0,1,1-.24,2,2,0,0,1,1,.24,1.63,1.63,0,0,1,.66.69A2.29,2.29,0,0,1,234.55,92.51Zm-2.85,0a2.5,2.5,0,0,0,.1.72.89.89,0,0,0,.31.45.85.85,0,0,0,.54.16.88.88,0,0,0,.55-.16.82.82,0,0,0,.3-.45,2.2,2.2,0,0,0,.1-.72,2.38,2.38,0,0,0-.1-.71.82.82,0,0,0-.85-.59.79.79,0,0,0-.72.34A1.7,1.7,0,0,0,231.7,92.51Z"/><path d="M237.82,90.46a1.82,1.82,0,0,1,1.18.33,1.31,1.31,0,0,1,.4,1v2.67h-.66l-.18-.55h0a2,2,0,0,1-.35.36,1.2,1.2,0,0,1-.41.2,1.86,1.86,0,0,1-.56.07,1.62,1.62,0,0,1-.64-.13,1,1,0,0,1-.44-.41,1.37,1.37,0,0,1-.17-.7,1,1,0,0,1,.46-.93,2.54,2.54,0,0,1,1.37-.34l.69,0v-.2a.67.67,0,0,0-.19-.54.73.73,0,0,0-.51-.17,1.85,1.85,0,0,0-.58.09,5.2,5.2,0,0,0-.55.21l-.29-.65a3.74,3.74,0,0,1,.67-.25A3.48,3.48,0,0,1,237.82,90.46Zm.17,2.19a1.4,1.4,0,0,0-.84.21.59.59,0,0,0-.24.5.46.46,0,0,0,.17.4.67.67,0,0,0,.43.13,1.08,1.08,0,0,0,.69-.23.88.88,0,0,0,.28-.69v-.34Z"/><path d="M245.6,94.51h-1.08L243,92.19l-.49.39v1.93h-.94V89.27h.94v2.47l.3-.38.31-.38,1.42-1.71h1.06l-1.92,2.3Z"/><path d="M250.09,89.27l-1.82,5.24h-1l-1.82-5.24h1l1.06,3.21a2.74,2.74,0,0,1,.11.34c0,.14.07.28.11.43a3.74,3.74,0,0,1,.08.38,3.74,3.74,0,0,1,.08-.38c0-.15.08-.29.11-.43s.08-.25.11-.34l1.06-3.21Z"/><path d="M252.88,94.51l-1.44-4.3h0c0,.1,0,.24,0,.42s0,.37,0,.58,0,.4,0,.58v2.72h-.84V89.27h1.3l1.39,4.12h0l1.44-4.12h1.3v5.24h-.89V91.75c0-.17,0-.35,0-.55s0-.38,0-.56,0-.32,0-.42h0l-1.5,4.29Z"/><path d="M260.57,90a1.47,1.47,0,0,0-.64.13,1.24,1.24,0,0,0-.47.38,1.88,1.88,0,0,0-.3.6,3.24,3.24,0,0,0-.1.8,3.12,3.12,0,0,0,.16,1,1.43,1.43,0,0,0,.5.65,1.46,1.46,0,0,0,.84.22,2.76,2.76,0,0,0,.65-.07,6.59,6.59,0,0,0,.66-.18v.8a3,3,0,0,1-.65.19,4.22,4.22,0,0,1-.75.06,2.4,2.4,0,0,1-1.34-.34,2,2,0,0,1-.79-.94,3.64,3.64,0,0,1-.25-1.42,3.42,3.42,0,0,1,.16-1.09,2.44,2.44,0,0,1,.48-.85,2.16,2.16,0,0,1,.77-.56,2.76,2.76,0,0,1,1.07-.2,3.39,3.39,0,0,1,.78.09,4.2,4.2,0,0,1,.73.26l-.33.77a5.59,5.59,0,0,0-.57-.22A1.81,1.81,0,0,0,260.57,90Z"/><path d="M266.18,92.51a3,3,0,0,1-.13.89,2,2,0,0,1-.38.65,1.58,1.58,0,0,1-.61.4,2.18,2.18,0,0,1-.79.14,2,2,0,0,1-.75-.14,1.62,1.62,0,0,1-.6-.4,2,2,0,0,1-.4-.65,2.68,2.68,0,0,1-.14-.89,2.46,2.46,0,0,1,.23-1.11,1.55,1.55,0,0,1,.66-.7,2.08,2.08,0,0,1,1-.24,2,2,0,0,1,1,.24,1.63,1.63,0,0,1,.66.69A2.29,2.29,0,0,1,266.18,92.51Zm-2.85,0a2.5,2.5,0,0,0,.1.72.89.89,0,0,0,.31.45.85.85,0,0,0,.54.16.86.86,0,0,0,.55-.16.82.82,0,0,0,.3-.45,2.2,2.2,0,0,0,.1-.72,2.09,2.09,0,0,0-.1-.71.82.82,0,0,0-.85-.59.79.79,0,0,0-.72.34A1.7,1.7,0,0,0,263.33,92.51Z"/><path d="M269,90.46a1.49,1.49,0,0,1,1,.34,1.47,1.47,0,0,1,.38,1.12v2.59h-.93V92.1a1.05,1.05,0,0,0-.18-.67.65.65,0,0,0-.56-.22.8.8,0,0,0-.76.35,2,2,0,0,0-.21,1v1.94h-.92v-4h.71l.13.52h.06a1,1,0,0,1,.32-.34,1.52,1.52,0,0,1,.43-.19A1.86,1.86,0,0,1,269,90.46Z"/><path d="M274,93.36a1.12,1.12,0,0,1-.76,1.09,2.68,2.68,0,0,1-.91.14,3.73,3.73,0,0,1-.72-.06,2.25,2.25,0,0,1-.57-.19v-.78a3.81,3.81,0,0,0,.65.23,2.42,2.42,0,0,0,.67.1,1,1,0,0,0,.55-.12.35.35,0,0,0,.17-.31.43.43,0,0,0-.06-.22.86.86,0,0,0-.26-.2c-.13-.07-.32-.16-.58-.27a3.48,3.48,0,0,1-.64-.31,1,1,0,0,1-.38-.37,1.08,1.08,0,0,1-.13-.54.94.94,0,0,1,.43-.82,2.06,2.06,0,0,1,1.12-.27,3.14,3.14,0,0,1,.7.07,2.84,2.84,0,0,1,.66.22l-.3.68c-.18-.07-.36-.14-.54-.19a1.71,1.71,0,0,0-.55-.09.88.88,0,0,0-.45.1.28.28,0,0,0-.16.25.35.35,0,0,0,.08.22.78.78,0,0,0,.27.18l.56.24a3.88,3.88,0,0,1,.61.29,1.19,1.19,0,0,1,.4.37A1.06,1.06,0,0,1,274,93.36Z"/><path d="M278.13,92.51a2.68,2.68,0,0,1-.14.89,1.81,1.81,0,0,1-.37.65,1.58,1.58,0,0,1-.61.4,2.18,2.18,0,0,1-.79.14,2,2,0,0,1-.75-.14,1.62,1.62,0,0,1-.6-.4,1.85,1.85,0,0,1-.39-.65,2.91,2.91,0,0,1,.08-2,1.6,1.6,0,0,1,.66-.7,2.08,2.08,0,0,1,1-.24,2,2,0,0,1,1,.24,1.63,1.63,0,0,1,.66.69A2.29,2.29,0,0,1,278.13,92.51Zm-2.85,0a2.5,2.5,0,0,0,.1.72.89.89,0,0,0,.31.45.85.85,0,0,0,.54.16.86.86,0,0,0,.55-.16.82.82,0,0,0,.3-.45,2.2,2.2,0,0,0,.1-.72,2.09,2.09,0,0,0-.1-.71.82.82,0,0,0-.85-.59.79.79,0,0,0-.72.34A1.7,1.7,0,0,0,275.28,92.51Z"/><path d="M279.72,94.51h-.93V88.93h.93Z"/><path d="M282.21,90.46a1.92,1.92,0,0,1,.92.21,1.49,1.49,0,0,1,.6.62,2.09,2.09,0,0,1,.21,1v.47h-2.63a1.22,1.22,0,0,0,.3.84,1.05,1.05,0,0,0,.8.29,2.93,2.93,0,0,0,.69-.07,3.74,3.74,0,0,0,.63-.23v.75a2.72,2.72,0,0,1-.61.2,4.1,4.1,0,0,1-.76.07,2.26,2.26,0,0,1-1-.23,1.61,1.61,0,0,1-.71-.68,2.28,2.28,0,0,1-.25-1.13,2.65,2.65,0,0,1,.23-1.15,1.56,1.56,0,0,1,.64-.7A1.91,1.91,0,0,1,282.21,90.46Zm0,.68a.78.78,0,0,0-.6.24,1.1,1.1,0,0,0-.28.71H283a1.22,1.22,0,0,0-.09-.49.71.71,0,0,0-.27-.34A.86.86,0,0,0,282.21,91.14Z"/><path d="M162.05,101.55a2.75,2.75,0,0,1-.3,1.35,1.9,1.9,0,0,1-.85.81,3.06,3.06,0,0,1-1.35.28h-1.33V99.21h1.47a2.68,2.68,0,0,1,1.25.27,1.84,1.84,0,0,1,.82.79A2.61,2.61,0,0,1,162.05,101.55Zm-.64,0a2.26,2.26,0,0,0-.21-1,1.31,1.31,0,0,0-.61-.6,2.25,2.25,0,0,0-1-.2h-.79v3.74h.65a2,2,0,0,0,1.46-.48A1.91,1.91,0,0,0,161.41,101.57Z"/><path d="M166.14,102.19a2.39,2.39,0,0,1-.12.79,1.72,1.72,0,0,1-.33.58,1.5,1.5,0,0,1-.53.37,1.94,1.94,0,0,1-.7.12,1.75,1.75,0,0,1-.65-.12,1.46,1.46,0,0,1-.52-.37,1.76,1.76,0,0,1-.35-.58,2.39,2.39,0,0,1-.12-.79,2.36,2.36,0,0,1,.2-1,1.54,1.54,0,0,1,.58-.63,1.76,1.76,0,0,1,.88-.21,1.69,1.69,0,0,1,.86.21,1.63,1.63,0,0,1,.59.63A2.36,2.36,0,0,1,166.14,102.19Zm-2.71,0a2.29,2.29,0,0,0,.11.73,1,1,0,0,0,.34.48,1,1,0,0,0,.6.16.91.91,0,0,0,.94-.64,2.29,2.29,0,0,0,.11-.73,2,2,0,0,0-.12-.73.9.9,0,0,0-.34-.46,1,1,0,0,0-.6-.17.89.89,0,0,0-.79.36A1.7,1.7,0,0,0,163.43,102.19Z"/><path d="M169.24,102c0-.09-.05-.19-.08-.28s0-.17-.07-.26l-.06-.23c0-.07,0-.13,0-.18h0s0,.11,0,.18,0,.15-.05.24,0,.17-.07.26-.05.18-.08.28l-.64,2h-.67l-1-3.58h.6l.5,1.91c0,.13.07.26.1.39s.06.26.08.37a2.19,2.19,0,0,1,.05.31h0c0-.06,0-.12,0-.2s0-.17.05-.26,0-.18.07-.26.05-.17.07-.24l.63-2h.65l.61,2c0,.1.06.21.1.32l.09.34c0,.11,0,.21,0,.29h0a1.86,1.86,0,0,1,.05-.28c0-.12.05-.24.08-.38s.07-.27.11-.4l.5-1.91h.6l-1,3.58h-.68Z"/><path d="M173.9,100.34a1.33,1.33,0,0,1,1,.31,1.31,1.31,0,0,1,.33,1V104h-.58v-2.3a1,1,0,0,0-.19-.64.77.77,0,0,0-.61-.22.9.9,0,0,0-.82.34,1.7,1.7,0,0,0-.23,1V104h-.59V100.4h.48l.08.49h0a1.07,1.07,0,0,1,.29-.31,1.38,1.38,0,0,1,.39-.18A1.67,1.67,0,0,1,173.9,100.34Z"/><path d="M176.9,104h-.59V98.91h.59Z"/><path d="M181.15,102.19a2.39,2.39,0,0,1-.12.79,1.72,1.72,0,0,1-.33.58,1.41,1.41,0,0,1-.53.37,1.92,1.92,0,0,1-.69.12,1.76,1.76,0,0,1-.66-.12,1.46,1.46,0,0,1-.52-.37A1.59,1.59,0,0,1,178,103a2.15,2.15,0,0,1-.13-.79,2.36,2.36,0,0,1,.2-1,1.54,1.54,0,0,1,.58-.63,1.78,1.78,0,0,1,.89-.21,1.74,1.74,0,0,1,.86.21,1.61,1.61,0,0,1,.58.63A2.22,2.22,0,0,1,181.15,102.19Zm-2.71,0a2.29,2.29,0,0,0,.11.73.92.92,0,0,0,.35.48,1,1,0,0,0,.59.16,1,1,0,0,0,.6-.16,1,1,0,0,0,.34-.48,2.29,2.29,0,0,0,.11-.73,2.2,2.2,0,0,0-.11-.73.92.92,0,0,0-.35-.46,1,1,0,0,0-.6-.17.89.89,0,0,0-.79.36A1.7,1.7,0,0,0,178.44,102.19Z"/><path d="M183.43,100.34a1.41,1.41,0,0,1,1,.29,1.19,1.19,0,0,1,.32.92V104h-.43l-.12-.51h0a1.61,1.61,0,0,1-.32.32,1,1,0,0,1-.37.19,1.88,1.88,0,0,1-.51.06,1.5,1.5,0,0,1-.58-.11.93.93,0,0,1-.41-.35,1.21,1.21,0,0,1-.14-.6,1,1,0,0,1,.42-.83,2.39,2.39,0,0,1,1.29-.31l.61,0v-.22a.65.65,0,0,0-.74-.79,1.91,1.91,0,0,0-.54.08l-.47.19-.18-.44a3,3,0,0,1,.56-.22A2.39,2.39,0,0,1,183.43,100.34Zm.18,1.91a1.74,1.74,0,0,0-.93.22.61.61,0,0,0-.26.53.51.51,0,0,0,.19.44.77.77,0,0,0,.47.14,1.17,1.17,0,0,0,.75-.25,1,1,0,0,0,.3-.77v-.32Z"/><path d="M187.09,104.05a1.32,1.32,0,0,1-1.06-.46,2.56,2.56,0,0,1,0-2.78,1.33,1.33,0,0,1,1.07-.47,1.45,1.45,0,0,1,.49.07,1,1,0,0,1,.36.19,1.33,1.33,0,0,1,.26.27h0l0-.26c0-.12,0-.21,0-.27V98.91h.59V104h-.48l-.08-.49h0a1.16,1.16,0,0,1-.26.28,1.18,1.18,0,0,1-.37.2A1.41,1.41,0,0,1,187.09,104.05Zm.1-.49a.93.93,0,0,0,.8-.31,1.59,1.59,0,0,0,.23-.94v-.1a2,2,0,0,0-.22-1,.89.89,0,0,0-.82-.36.79.79,0,0,0-.71.38,1.86,1.86,0,0,0-.24,1,1.78,1.78,0,0,0,.24,1A.8.8,0,0,0,187.19,103.56Z"/><path d="M193,100.34a1.42,1.42,0,0,1,1,.29,1.23,1.23,0,0,1,.31.92V104h-.43l-.11-.51h0a1.61,1.61,0,0,1-.32.32.93.93,0,0,1-.37.19,1.88,1.88,0,0,1-.51.06,1.54,1.54,0,0,1-.58-.11.86.86,0,0,1-.4-.35,1.11,1.11,0,0,1-.15-.6,1,1,0,0,1,.42-.83,2.41,2.41,0,0,1,1.3-.31l.6,0v-.22a.65.65,0,0,0-.74-.79,1.89,1.89,0,0,0-.53.08,4.17,4.17,0,0,0-.47.19l-.19-.44a3.27,3.27,0,0,1,.56-.22A2.46,2.46,0,0,1,193,100.34Zm.17,1.91a1.7,1.7,0,0,0-.92.22.59.59,0,0,0-.26.53.53.53,0,0,0,.18.44.77.77,0,0,0,.47.14,1.18,1.18,0,0,0,.76-.25,1,1,0,0,0,.3-.77v-.32Z"/><path d="M197.12,100.34a1.35,1.35,0,0,1,1.07.46,2.06,2.06,0,0,1,.4,1.39,2.59,2.59,0,0,1-.18,1,1.37,1.37,0,0,1-.52.63,1.41,1.41,0,0,1-.77.21,1.45,1.45,0,0,1-.49-.07,1.29,1.29,0,0,1-.37-.19,1.23,1.23,0,0,1-.25-.26h0c0,.08,0,.17,0,.29s0,.21,0,.3v1.47h-.59V100.4h.48l.08.49h0a1.62,1.62,0,0,1,.25-.28,1.25,1.25,0,0,1,.36-.2A1.55,1.55,0,0,1,197.12,100.34Zm-.1.49a1.14,1.14,0,0,0-.59.14.84.84,0,0,0-.32.41,2.19,2.19,0,0,0-.1.69v.12a2.75,2.75,0,0,0,.09.75.82.82,0,0,0,.32.46,1,1,0,0,0,.61.16.8.8,0,0,0,.54-.18,1.06,1.06,0,0,0,.31-.49,2.17,2.17,0,0,0,.1-.71,1.76,1.76,0,0,0-.23-1A.81.81,0,0,0,197,100.83Z"/><path d="M201.23,100.34a1.35,1.35,0,0,1,1.07.46,2.06,2.06,0,0,1,.4,1.39,2.59,2.59,0,0,1-.18,1,1.43,1.43,0,0,1-.52.63,1.41,1.41,0,0,1-.77.21,1.45,1.45,0,0,1-.49-.07,1.29,1.29,0,0,1-.37-.19,1.23,1.23,0,0,1-.25-.26h0c0,.08,0,.17,0,.29s0,.21,0,.3v1.47h-.59V100.4H200l.08.49h0a1.62,1.62,0,0,1,.25-.28,1.25,1.25,0,0,1,.36-.2A1.51,1.51,0,0,1,201.23,100.34Zm-.11.49a1.11,1.11,0,0,0-.58.14.84.84,0,0,0-.32.41,2.19,2.19,0,0,0-.1.69v.12a2.75,2.75,0,0,0,.09.75.82.82,0,0,0,.32.46,1,1,0,0,0,.61.16.8.8,0,0,0,.54-.18,1.06,1.06,0,0,0,.31-.49,2.17,2.17,0,0,0,.1-.71,1.84,1.84,0,0,0-.23-1A.82.82,0,0,0,201.12,100.83Z"/><path d="M206.84,99.14a1.35,1.35,0,0,1,.62.13.83.83,0,0,1,.39.35,1,1,0,0,1,.14.55,1,1,0,0,1-.27.71,2.89,2.89,0,0,1-.68.54l1.29,1.24a1.89,1.89,0,0,0,.28-.48,4.38,4.38,0,0,0,.19-.58h.59a4.31,4.31,0,0,1-.27.79,2.17,2.17,0,0,1-.41.65l1,.95h-.79l-.58-.57a2.36,2.36,0,0,1-.45.33,2.27,2.27,0,0,1-.53.22,2.32,2.32,0,0,1-.67.08,1.92,1.92,0,0,1-.79-.15,1.21,1.21,0,0,1-.53-.44,1.52,1.52,0,0,1-.06-1.31,1.48,1.48,0,0,1,.36-.44,4,4,0,0,1,.55-.37c-.09-.11-.19-.22-.27-.34a1.76,1.76,0,0,1-.23-.37,1.33,1.33,0,0,1-.08-.45,1.13,1.13,0,0,1,.14-.56.94.94,0,0,1,.43-.35A1.47,1.47,0,0,1,206.84,99.14Zm-.3,2.57a2.67,2.67,0,0,0-.41.28,1.11,1.11,0,0,0-.26.32.86.86,0,0,0-.1.41.77.77,0,0,0,.25.59,1,1,0,0,0,.66.22,1.84,1.84,0,0,0,.74-.14,1.87,1.87,0,0,0,.51-.33Zm.28-2.09a.69.69,0,0,0-.46.15.5.5,0,0,0-.18.41.76.76,0,0,0,.13.44,2.3,2.3,0,0,0,.37.45,2,2,0,0,0,.56-.43.73.73,0,0,0,.17-.47.5.5,0,0,0-.16-.39A.57.57,0,0,0,206.82,99.62Z"/><path d="M213.27,100.34a1.47,1.47,0,0,1,.64.13,1.26,1.26,0,0,1,.48.41h0l.08-.48H215v3.65a1.84,1.84,0,0,1-.18.85,1.12,1.12,0,0,1-.53.52,2.09,2.09,0,0,1-.9.17,3.92,3.92,0,0,1-.71-.06,2.33,2.33,0,0,1-.58-.17v-.54a2.34,2.34,0,0,0,.6.21,3.32,3.32,0,0,0,.72.07,1,1,0,0,0,.73-.27,1,1,0,0,0,.26-.74V104s0-.13,0-.23a2,2,0,0,0,0-.21h0a1.23,1.23,0,0,1-.47.41,1.44,1.44,0,0,1-.64.13,1.3,1.3,0,0,1-1.09-.49,2.12,2.12,0,0,1-.39-1.36,2.18,2.18,0,0,1,.39-1.36A1.28,1.28,0,0,1,213.27,100.34Zm.08.49a.8.8,0,0,0-.51.16,1,1,0,0,0-.32.47,2.33,2.33,0,0,0-.11.75,1.77,1.77,0,0,0,.24,1,.83.83,0,0,0,.72.35,1.27,1.27,0,0,0,.46-.07.74.74,0,0,0,.32-.22.91.91,0,0,0,.19-.38,2.29,2.29,0,0,0,.06-.56v-.14a2.46,2.46,0,0,0-.11-.79A.85.85,0,0,0,214,101,1.21,1.21,0,0,0,213.35,100.83Z"/><path d="M217.49,100.34a1.46,1.46,0,0,1,.8.2,1.24,1.24,0,0,1,.5.56,1.93,1.93,0,0,1,.18.85v.36h-2.45a1.34,1.34,0,0,0,.31.92,1.06,1.06,0,0,0,.83.32,2.8,2.8,0,0,0,.61-.06,3.51,3.51,0,0,0,.54-.19v.52a2.85,2.85,0,0,1-.54.18,3.83,3.83,0,0,1-.63,0,1.87,1.87,0,0,1-.9-.21,1.38,1.38,0,0,1-.61-.61,2.09,2.09,0,0,1-.22-1,2.39,2.39,0,0,1,.2-1,1.42,1.42,0,0,1,1.38-.87Zm0,.48a.87.87,0,0,0-.67.27,1.28,1.28,0,0,0-.29.75h1.83a1.25,1.25,0,0,0-.1-.53A.72.72,0,0,0,218,101,.83.83,0,0,0,217.49,100.82Z"/><path d="M221.08,103.57l.27,0,.23,0v.44a.86.86,0,0,1-.27.08l-.34,0a1.4,1.4,0,0,1-.51-.09.85.85,0,0,1-.39-.34,1.3,1.3,0,0,1-.14-.68v-2.08h-.51v-.28l.51-.24.24-.76h.34v.82h1v.46h-1v2.07a.66.66,0,0,0,.16.48A.53.53,0,0,0,221.08,103.57Z"/><path d="M226.36,103a1,1,0,0,1-.17.58,1.1,1.1,0,0,1-.5.35,2.16,2.16,0,0,1-.76.12,3,3,0,0,1-.64-.06,1.7,1.7,0,0,1-.48-.17v-.53a3,3,0,0,0,.52.2,2.1,2.1,0,0,0,.61.09,1.09,1.09,0,0,0,.65-.15.42.42,0,0,0,.2-.38.4.4,0,0,0-.07-.24.79.79,0,0,0-.27-.21,2.35,2.35,0,0,0-.54-.24,4.8,4.8,0,0,1-.59-.27,1,1,0,0,1-.38-.32.88.88,0,0,1,.23-1.19,1.76,1.76,0,0,1,1-.24,3,3,0,0,1,.62.06,2.37,2.37,0,0,1,.53.18l-.2.47a3.9,3.9,0,0,0-.48-.17,2.1,2.1,0,0,0-.51-.06,1,1,0,0,0-.55.12.35.35,0,0,0-.19.31.37.37,0,0,0,.09.25.77.77,0,0,0,.29.2,5.14,5.14,0,0,0,.54.23c.23.09.43.18.59.26a1,1,0,0,1,.36.33A.82.82,0,0,1,226.36,103Z"/><path d="M230.22,100.4V104h-.48l-.09-.48h0a1,1,0,0,1-.3.31,1.38,1.38,0,0,1-.39.18,2.14,2.14,0,0,1-.45,0,1.6,1.6,0,0,1-.72-.14.94.94,0,0,1-.44-.42,1.74,1.74,0,0,1-.14-.74V100.4h.59v2.31a.93.93,0,0,0,.2.64.78.78,0,0,0,.6.21,1.15,1.15,0,0,0,.63-.15.83.83,0,0,0,.33-.44,2.38,2.38,0,0,0,.09-.7V100.4Z"/><path d="M233.06,100.34a1.35,1.35,0,0,1,1.07.46,2.06,2.06,0,0,1,.4,1.39,2.59,2.59,0,0,1-.18,1,1.47,1.47,0,0,1-1.78.77,1.17,1.17,0,0,1-.37-.19,1.23,1.23,0,0,1-.25-.26h0c0,.08,0,.17,0,.29s0,.21,0,.3v1.47h-.59V100.4h.48l.08.49h0a1.62,1.62,0,0,1,.25-.28,1.25,1.25,0,0,1,.36-.2A1.51,1.51,0,0,1,233.06,100.34Zm-.11.49a1.11,1.11,0,0,0-.58.14.84.84,0,0,0-.32.41,1.94,1.94,0,0,0-.1.69v.12a2.75,2.75,0,0,0,.09.75.82.82,0,0,0,.32.46,1,1,0,0,0,.61.16.76.76,0,0,0,.53-.18,1,1,0,0,0,.32-.49,2.17,2.17,0,0,0,.1-.71,1.84,1.84,0,0,0-.23-1A.82.82,0,0,0,233,100.83Z"/><path d="M237.17,100.34a1.35,1.35,0,0,1,1.07.46,2.06,2.06,0,0,1,.4,1.39,2.59,2.59,0,0,1-.18,1,1.47,1.47,0,0,1-1.78.77,1.17,1.17,0,0,1-.37-.19,1.6,1.6,0,0,1-.26-.26h0c0,.08,0,.17,0,.29s0,.21,0,.3v1.47h-.58V100.4H236l.08.49h0a2.27,2.27,0,0,1,.26-.28,1.25,1.25,0,0,1,.36-.2A1.51,1.51,0,0,1,237.17,100.34Zm-.11.49a1.11,1.11,0,0,0-.58.14.84.84,0,0,0-.32.41,2.16,2.16,0,0,0-.11.69v.12a2.72,2.72,0,0,0,.1.75.82.82,0,0,0,.32.46,1,1,0,0,0,.61.16.79.79,0,0,0,.53-.18,1.08,1.08,0,0,0,.32-.49,2.17,2.17,0,0,0,.1-.71,1.84,1.84,0,0,0-.23-1A.82.82,0,0,0,237.06,100.83Z"/><path d="M242.69,102.19a2.39,2.39,0,0,1-.12.79,1.72,1.72,0,0,1-.33.58,1.41,1.41,0,0,1-.53.37,1.92,1.92,0,0,1-.69.12,1.76,1.76,0,0,1-.66-.12,1.46,1.46,0,0,1-.52-.37,1.74,1.74,0,0,1-.34-.58,2.39,2.39,0,0,1-.12-.79,2.22,2.22,0,0,1,.2-1,1.45,1.45,0,0,1,.57-.63,1.8,1.8,0,0,1,.89-.21,1.74,1.74,0,0,1,.86.21,1.61,1.61,0,0,1,.58.63A2.22,2.22,0,0,1,242.69,102.19Zm-2.71,0a2.29,2.29,0,0,0,.11.73.91.91,0,0,0,.94.64,1,1,0,0,0,.6-.16,1,1,0,0,0,.34-.48,2.29,2.29,0,0,0,.11-.73,2.2,2.2,0,0,0-.11-.73.92.92,0,0,0-.35-.46,1,1,0,0,0-.59-.17.89.89,0,0,0-.8.36A1.78,1.78,0,0,0,240,102.19Z"/><path d="M245.29,100.34h.22a.64.64,0,0,1,.2,0l-.08.54-.18,0h-.2a.93.93,0,0,0-.4.09,1.27,1.27,0,0,0-.33.24,1,1,0,0,0-.23.38,1.29,1.29,0,0,0-.08.49V104h-.59V100.4h.48l.06.66h0a2,2,0,0,1,.28-.37,1.38,1.38,0,0,1,.36-.26A1.14,1.14,0,0,1,245.29,100.34Z"/><path d="M247.57,103.57l.28,0,.22,0v.44a.73.73,0,0,1-.26.08l-.34,0A1.5,1.5,0,0,1,247,104a.88.88,0,0,1-.38-.34,1.29,1.29,0,0,1-.15-.68v-2.08h-.5v-.28l.51-.24.23-.76H247v.82h1v.46h-1v2.07a.62.62,0,0,0,.16.48A.52.52,0,0,0,247.57,103.57Z"/><path d="M179.93,110.21a2.74,2.74,0,0,1-.11.79,1.74,1.74,0,0,1-.34.58,1.45,1.45,0,0,1-.53.37,1.88,1.88,0,0,1-.69.12,1.71,1.71,0,0,1-.65-.12,1.5,1.5,0,0,1-.52-.37,1.61,1.61,0,0,1-.35-.58,2.43,2.43,0,0,1-.12-.79,2.19,2.19,0,0,1,.2-1,1.45,1.45,0,0,1,.57-.63,1.8,1.8,0,0,1,.89-.22,1.72,1.72,0,0,1,.86.22,1.54,1.54,0,0,1,.58.63A2.19,2.19,0,0,1,179.93,110.21Zm-2.7,0a2,2,0,0,0,.11.73.92.92,0,0,0,.34.47.94.94,0,0,0,.59.17,1,1,0,0,0,.6-.17,1,1,0,0,0,.34-.47,2,2,0,0,0,.11-.73,2,2,0,0,0-.11-.73.9.9,0,0,0-.94-.63.91.91,0,0,0-.8.36A1.78,1.78,0,0,0,177.23,110.21Z"/><path d="M182.56,108.35a1.34,1.34,0,0,1,1.07.47,2,2,0,0,1,.4,1.39,2.59,2.59,0,0,1-.18,1,1.35,1.35,0,0,1-.51.63,1.42,1.42,0,0,1-.78.21,1.81,1.81,0,0,1-.49-.07,1.52,1.52,0,0,1-.36-.19,1.6,1.6,0,0,1-.26-.26h0c0,.07,0,.17,0,.29s0,.21,0,.3v1.47h-.59v-5.19h.48l.08.49h0a1.37,1.37,0,0,1,.26-.28,1,1,0,0,1,.36-.2A1.44,1.44,0,0,1,182.56,108.35Zm-.1.5a1,1,0,0,0-.58.14.7.7,0,0,0-.32.41,1.92,1.92,0,0,0-.11.69v.12a2.63,2.63,0,0,0,.09.74.81.81,0,0,0,.32.47,1,1,0,0,0,.61.16.8.8,0,0,0,.54-.18,1.06,1.06,0,0,0,.31-.49,2.2,2.2,0,0,0,.11-.71,1.75,1.75,0,0,0-.24-1A.8.8,0,0,0,182.46,108.85Z"/><path d="M186.35,108.35a1.43,1.43,0,0,1,.79.21,1.32,1.32,0,0,1,.51.56,1.9,1.9,0,0,1,.18.85v.36h-2.45a1.29,1.29,0,0,0,.31.92,1.07,1.07,0,0,0,.83.32,2.64,2.64,0,0,0,.6-.06,4.5,4.5,0,0,0,.55-.19v.52a2.4,2.4,0,0,1-.54.17,3,3,0,0,1-.64.06,1.87,1.87,0,0,1-.9-.21,1.39,1.39,0,0,1-.6-.62,2,2,0,0,1-.22-1,2.25,2.25,0,0,1,.2-1,1.47,1.47,0,0,1,.55-.65A1.54,1.54,0,0,1,186.35,108.35Zm0,.49a.85.85,0,0,0-.67.27,1.28,1.28,0,0,0-.29.75h1.82a1.49,1.49,0,0,0-.09-.54.76.76,0,0,0-.28-.35A.83.83,0,0,0,186.35,108.84Z"/><path d="M190.46,108.35a1.35,1.35,0,0,1,1,.32,1.31,1.31,0,0,1,.33,1V112h-.58v-2.29a1,1,0,0,0-.2-.65.79.79,0,0,0-.61-.21.93.93,0,0,0-.82.33,1.76,1.76,0,0,0-.22,1V112h-.59v-3.58h.47l.09.49h0a1,1,0,0,1,.3-.31,1.15,1.15,0,0,1,.39-.18A1.62,1.62,0,0,1,190.46,108.35Z"/><path d="M194.06,111.59l.28,0,.22-.06V112a1,1,0,0,1-.26.08l-.34,0a1.3,1.3,0,0,1-.52-.1.77.77,0,0,1-.38-.34,1.23,1.23,0,0,1-.15-.67v-2.08h-.5v-.28l.51-.24.23-.76h.35v.82h1v.46h-1V111a.62.62,0,0,0,.16.48A.52.52,0,0,0,194.06,111.59Z"/><path d="M196.66,108.35a1.43,1.43,0,0,1,.79.21,1.32,1.32,0,0,1,.51.56,1.9,1.9,0,0,1,.18.85v.36h-2.45a1.29,1.29,0,0,0,.31.92,1.07,1.07,0,0,0,.83.32,2.71,2.71,0,0,0,.6-.06,4.5,4.5,0,0,0,.55-.19v.52a2.57,2.57,0,0,1-.54.17,3,3,0,0,1-.64.06,1.87,1.87,0,0,1-.9-.21,1.46,1.46,0,0,1-.61-.62,2.15,2.15,0,0,1-.21-1,2.4,2.4,0,0,1,.19-1,1.56,1.56,0,0,1,.56-.65A1.52,1.52,0,0,1,196.66,108.35Zm0,.49a.84.84,0,0,0-.66.27,1.28,1.28,0,0,0-.29.75h1.82a1.49,1.49,0,0,0-.09-.54.72.72,0,0,0-.29-.35A.79.79,0,0,0,196.65,108.84Z"/><path d="M200.72,108.35h.21l.21,0-.08.55-.19,0h-.19a.93.93,0,0,0-.4.09,1.07,1.07,0,0,0-.33.24,1,1,0,0,0-.23.38,1.26,1.26,0,0,0-.09.49V112h-.58v-3.58h.48l.06.66h0a2.07,2.07,0,0,1,.27-.37,1.37,1.37,0,0,1,.37-.26A1.15,1.15,0,0,1,200.72,108.35Z"/><path d="M203.46,108.88h-.9V112H202v-3.12h-.63v-.28l.63-.2v-.2a1.77,1.77,0,0,1,.13-.75.82.82,0,0,1,.4-.42,1.36,1.36,0,0,1,.63-.14,2.22,2.22,0,0,1,.69.12l-.15.46-.25-.06a.9.9,0,0,0-.28,0,.5.5,0,0,0-.44.2,1,1,0,0,0-.14.62v.23h.9Z"/><path d="M205.46,108.36a1.41,1.41,0,0,1,1,.29,1.18,1.18,0,0,1,.31.91V112h-.42l-.12-.5h0a3.22,3.22,0,0,1-.32.32,1,1,0,0,1-.38.19,1.88,1.88,0,0,1-.51.06,1.48,1.48,0,0,1-.57-.11.9.9,0,0,1-.41-.36,1.05,1.05,0,0,1-.15-.59,1,1,0,0,1,.42-.83,2.46,2.46,0,0,1,1.3-.31l.61,0v-.21A.85.85,0,0,0,206,109a.79.79,0,0,0-.55-.17,1.61,1.61,0,0,0-.54.08,4.17,4.17,0,0,0-.47.19l-.18-.44a2.33,2.33,0,0,1,.55-.22A2.52,2.52,0,0,1,205.46,108.36Zm.17,1.91a1.73,1.73,0,0,0-.92.22.61.61,0,0,0-.26.52.5.5,0,0,0,.19.44.7.7,0,0,0,.47.15,1.17,1.17,0,0,0,.75-.25,1,1,0,0,0,.3-.78v-.32Z"/><path d="M209.29,112.07a1.8,1.8,0,0,1-.85-.19,1.37,1.37,0,0,1-.58-.61,2.24,2.24,0,0,1-.21-1,2.33,2.33,0,0,1,.22-1.07,1.41,1.41,0,0,1,.6-.61,1.85,1.85,0,0,1,.86-.2,2.33,2.33,0,0,1,.53.06,2.16,2.16,0,0,1,.41.14l-.18.49-.37-.12a2.08,2.08,0,0,0-.41,0,1.08,1.08,0,0,0-.59.15,1,1,0,0,0-.35.46,2.28,2.28,0,0,0-.11.75,2.18,2.18,0,0,0,.11.72,1,1,0,0,0,.34.46,1.05,1.05,0,0,0,.57.15,2,2,0,0,0,.52-.06,2.19,2.19,0,0,0,.41-.15v.53a1.57,1.57,0,0,1-.4.14A2.54,2.54,0,0,1,209.29,112.07Z"/><path d="M212.44,108.35a1.43,1.43,0,0,1,.79.21,1.26,1.26,0,0,1,.51.56,1.9,1.9,0,0,1,.18.85v.36h-2.45a1.34,1.34,0,0,0,.31.92,1.08,1.08,0,0,0,.83.32,2.64,2.64,0,0,0,.6-.06,4.5,4.5,0,0,0,.55-.19v.52a2.25,2.25,0,0,1-.54.17,3,3,0,0,1-.64.06,1.9,1.9,0,0,1-.9-.21,1.39,1.39,0,0,1-.6-.62,2,2,0,0,1-.22-1,2.39,2.39,0,0,1,.2-1,1.47,1.47,0,0,1,.55-.65A1.54,1.54,0,0,1,212.44,108.35Zm0,.49a.86.86,0,0,0-.67.27,1.28,1.28,0,0,0-.29.75h1.83a1.49,1.49,0,0,0-.1-.54.76.76,0,0,0-.28-.35A.83.83,0,0,0,212.44,108.84Z"/><path d="M214.74,111.64a.45.45,0,0,1,.12-.35.48.48,0,0,1,.29-.1.54.54,0,0,1,.3.1.57.57,0,0,1,0,.7.48.48,0,0,1-.3.11.44.44,0,0,1-.29-.11A.45.45,0,0,1,214.74,111.64Z"/><path d="M218.05,112.07a1.79,1.79,0,0,1-.84-.19,1.32,1.32,0,0,1-.58-.61,2.24,2.24,0,0,1-.21-1,2.21,2.21,0,0,1,.22-1.07,1.31,1.31,0,0,1,.6-.61,1.81,1.81,0,0,1,.85-.2,2.34,2.34,0,0,1,.95.2l-.18.49-.38-.12a1.9,1.9,0,0,0-.4,0,1.05,1.05,0,0,0-.59.15,1,1,0,0,0-.35.46,2,2,0,0,0-.11.75,2,2,0,0,0,.11.72,1,1,0,0,0,.34.46,1,1,0,0,0,.57.15,2.06,2.06,0,0,0,.52-.06,2.86,2.86,0,0,0,.41-.15v.53a1.72,1.72,0,0,1-.4.14A2.65,2.65,0,0,1,218.05,112.07Z"/><path d="M222.94,110.21a2.43,2.43,0,0,1-.12.79,1.72,1.72,0,0,1-.33.58,1.54,1.54,0,0,1-.53.37,1.92,1.92,0,0,1-.69.12,1.76,1.76,0,0,1-.66-.12,1.56,1.56,0,0,1-.86-1,2.43,2.43,0,0,1-.12-.79,2.33,2.33,0,0,1,.19-1,1.54,1.54,0,0,1,.58-.63,1.8,1.8,0,0,1,.89-.22,1.74,1.74,0,0,1,.86.22,1.61,1.61,0,0,1,.58.63A2.19,2.19,0,0,1,222.94,110.21Zm-2.71,0a2.29,2.29,0,0,0,.11.73,1,1,0,0,0,.35.47.92.92,0,0,0,.59.17.92.92,0,0,0,.94-.64,2.29,2.29,0,0,0,.11-.73,2.2,2.2,0,0,0-.11-.73.92.92,0,0,0-.95-.63.89.89,0,0,0-.79.36A1.78,1.78,0,0,0,220.23,110.21Z"/><path d="M227.8,108.35a1.23,1.23,0,0,1,.91.32,1.39,1.39,0,0,1,.3,1V112h-.59v-2.3a1,1,0,0,0-.17-.64.68.68,0,0,0-.55-.21.88.88,0,0,0-.75.3,1.43,1.43,0,0,0-.22.87v2h-.58v-2.3a1.24,1.24,0,0,0-.08-.47.7.7,0,0,0-.24-.29.87.87,0,0,0-.42-.09,1,1,0,0,0-.57.15.88.88,0,0,0-.29.44,2.41,2.41,0,0,0-.09.71V112h-.59v-3.58h.47l.09.49h0a1.05,1.05,0,0,1,.28-.31,1,1,0,0,1,.36-.18,1.54,1.54,0,0,1,.42-.07,1.47,1.47,0,0,1,.69.15.87.87,0,0,1,.4.46h0a1.09,1.09,0,0,1,.49-.46A1.49,1.49,0,0,1,227.8,108.35Z"/><path class="cls-6" d="M124.12,78.79a3.14,3.14,0,0,1-1.46-.4,3.48,3.48,0,0,1-1.07-1.07,3.23,3.23,0,0,1-.4-1.47V67.64a3.15,3.15,0,0,1,.4-1.47,3.48,3.48,0,0,1,1.07-1.07,3.11,3.11,0,0,1,1.46-.41h8.43a3.13,3.13,0,0,1,1.49.41,3.48,3.48,0,0,1,1.07,1.07,3.2,3.2,0,0,1,.4,1.47v8.21a3.2,3.2,0,0,1-.4,1.47A3.48,3.48,0,0,1,134,78.39a3.26,3.26,0,0,1-1.49.4Zm0-2h8.43a1,1,0,0,0,.95-1V67.64a1,1,0,0,0-.95-1h-8.43a1,1,0,0,0-.66.28,1,1,0,0,0-.28.67v8.21a1,1,0,0,0,.28.67,1,1,0,0,0,.66.28M138,84.39V64.69h11.39a3.08,3.08,0,0,1,1.46.41A3.48,3.48,0,0,1,152,66.17a3.2,3.2,0,0,1,.4,1.47v8.21a3.2,3.2,0,0,1-.4,1.47,3.48,3.48,0,0,1-1.07,1.07,3.18,3.18,0,0,1-1.46.4H140v5.6ZM141,76.8h8.44a1,1,0,0,0,.94-1V67.64a1,1,0,0,0-.28-.67,1,1,0,0,0-.66-.28H141a1.08,1.08,0,0,0-.67.28,1,1,0,0,0-.3.67v8.21a1,1,0,0,0,.3.67,1.06,1.06,0,0,0,.67.28m16,2a3.14,3.14,0,0,1-1.46-.4,3.48,3.48,0,0,1-1.07-1.07,3.23,3.23,0,0,1-.4-1.47V67.64a3.15,3.15,0,0,1,.4-1.47,3.48,3.48,0,0,1,1.07-1.07,3.11,3.11,0,0,1,1.46-.41h8.44a3.18,3.18,0,0,1,1.49.41A3.52,3.52,0,0,1,168,66.17a3.2,3.2,0,0,1,.4,1.47v5.1H156v3.11a1,1,0,0,0,.28.67,1,1,0,0,0,.66.28h11.39v2Zm-.94-8h10.32V67.64a1,1,0,0,0-.28-.67,1,1,0,0,0-.66-.28H157a1,1,0,0,0-.94,1Zm14.85,8V64.69h11.39a3.08,3.08,0,0,1,1.46.41,3.48,3.48,0,0,1,1.07,1.07,3.2,3.2,0,0,1,.4,1.47V78.79h-2V67.64a1,1,0,0,0-.28-.67,1,1,0,0,0-.66-.28h-8.43a1.09,1.09,0,0,0-.68.28,1,1,0,0,0-.29.67V78.79Zm19.77,0a3.23,3.23,0,0,1-1.49-.4,3.42,3.42,0,0,1-1-1.07,3.3,3.3,0,0,1-.39-1.47V60.08h2v4.61h6.08v2h-6.08v9.16a1.06,1.06,0,0,0,.27.67,1,1,0,0,0,.67.28h5.14v2Zm9.89,0a3.2,3.2,0,0,1-1.47-.4A3.48,3.48,0,0,1,198,77.32a3.23,3.23,0,0,1-.4-1.47V67.64a3.15,3.15,0,0,1,.4-1.47,3.48,3.48,0,0,1,1.07-1.07,3.17,3.17,0,0,1,1.47-.41H209a3.18,3.18,0,0,1,1.49.41,3.52,3.52,0,0,1,1.06,1.07,3.2,3.2,0,0,1,.4,1.47v5.1H199.59v3.11a1,1,0,0,0,.95,1h11.38v2Zm-.95-8h10.32V67.64a1,1,0,0,0-.28-.67,1,1,0,0,0-.66-.28h-8.43a1,1,0,0,0-.95,1Zm14.8,8V67.64a3.15,3.15,0,0,1,.4-1.47,3.48,3.48,0,0,1,1.07-1.07,3.17,3.17,0,0,1,1.47-.41h7.89v2h-7.89a1,1,0,0,0-1,1V78.79Zm12.43,0V63a2.9,2.9,0,0,1,1.45-2.56,3.37,3.37,0,0,1,1.48-.38h5.14v2h-5.14a1,1,0,0,0-.94,1v1.67h6.08v2h-6.08v12.1Zm12.77,0a3.14,3.14,0,0,1-1.46-.4,3.48,3.48,0,0,1-1.07-1.07,3.23,3.23,0,0,1-.4-1.47v-5.1H249V67.64a1,1,0,0,0-.95-1H236.66v-2H248a3.13,3.13,0,0,1,1.49.41,3.48,3.48,0,0,1,1.07,1.07,3.2,3.2,0,0,1,.4,1.47V78.79Zm0-2H249V72.74H238.65v3.11a1.06,1.06,0,0,0,.27.67,1,1,0,0,0,.67.28m16.79,2a3.14,3.14,0,0,1-1.46-.4,3.48,3.48,0,0,1-1.07-1.07,3.23,3.23,0,0,1-.4-1.47V67.64a3.15,3.15,0,0,1,.4-1.47,3.48,3.48,0,0,1,1.07-1.07,3.11,3.11,0,0,1,1.46-.41h11.34v2H256.38a1,1,0,0,0-.67.28,1.06,1.06,0,0,0-.27.67v8.21a1.06,1.06,0,0,0,.27.67,1,1,0,0,0,.67.28h11.39v2Zm16.84,0a3.2,3.2,0,0,1-1.47-.4,3.52,3.52,0,0,1-1.06-1.07,3.23,3.23,0,0,1-.4-1.47V67.64a3.15,3.15,0,0,1,.4-1.47,3.51,3.51,0,0,1,1.06-1.07,3.17,3.17,0,0,1,1.47-.41h8.43a3.18,3.18,0,0,1,1.49.41,3.48,3.48,0,0,1,1.07,1.07,3.2,3.2,0,0,1,.4,1.47v5.1H272.27v3.11a1,1,0,0,0,1,1h11.39v2Zm-1-8H282.6V67.64a1,1,0,0,0-1-1h-8.43a1,1,0,0,0-1,1Z"/><g id="Layer_2-2" data-name="Layer 2"><g id="Logo"><g id="HATCH"><path d="M215.87,141.16h-2.6a3,3,0,0,1-3-3v-5.68h2v5.66a1.07,1.07,0,0,0,1.1,1.05h2.54a1.07,1.07,0,0,0,1.1-1.05v-5.66h2v5.68A3,3,0,0,1,215.87,141.16Z"/></g><g id="HATCH-2"><polygon points="229.19 132.48 226.63 132.48 222.46 135.77 222.46 132.48 220.49 132.48 220.49 141.16 222.46 141.16 222.46 137.86 226.63 141.16 229.18 141.16 223.68 136.81 229.19 132.48 229.19 132.48"/></g><g id="HATCH-3"><path d="M218.91,151.42h-5.68a3,3,0,0,1-3-3.07v-2.54a3.05,3.05,0,0,1,3-3.07h5.68v2h-5.65a1.08,1.08,0,0,0-1.06,1.09v2.54a1.08,1.08,0,0,0,1.06,1.1h5.65Z"/></g><g id="HATCH-4"><path d="M226.13,142.74h-2.6a3,3,0,0,0-3,3v5.68h2v-2h4.74v2h2v-5.68A3,3,0,0,0,226.13,142.74Zm-3.67,4.74v-1.71a1.08,1.08,0,0,1,1.1-1.06h2.54a1.08,1.08,0,0,1,1.1,1.06v1.71Z"/></g></g></g><path d="M261.14,151.38v-2.87a6,6,0,0,1-.95.07,6.63,6.63,0,0,1-6.47-5.21h5.53v-2.84h-5.53a6.63,6.63,0,0,1,6.47-5.21,7.45,7.45,0,0,1,.95.07v-2.86c-.31,0-.63-.05-.95-.05a9.47,9.47,0,0,0,0,18.94C260.51,151.42,260.83,151.41,261.14,151.38Z"/><path d="M234.62,142a9.47,9.47,0,0,0,9.47,9.47c.35,0,.68,0,1,0v-2.86a6.64,6.64,0,1,1,0-13.11v-2.86a8.31,8.31,0,0,0-1-.06A9.47,9.47,0,0,0,234.62,142Z"/><path d="M275.66,134.49h-1.45v.22h1.45Zm-4.13.7a1.2,1.2,0,0,0-.49.45h.49Zm7.5,2.16-.55.55,0,.28h.65v-.83Zm-4.91,4.42-2.81-3,.46,5.35Zm.56,0,2.68,2.83.56-6h-.06v-.1Zm-3.42-3.6,3.14,3.31,1.86-1.89h-2.62v-1h3v.57l1.19-1.22V136.9h.22l.07-.74h-7.07Zm7.58,8.58a.9.9,0,0,1,0,.24,1.42,1.42,0,0,1-2.68.66h-3.49v.75h-.91v-.75a.28.28,0,0,1-.22-.23l-.2-2.27-4.86,5-.29-.29,5.1-5.19-.55-6.4-4.85-5.12v-.56l4.8,5.06-.13-1.48H270v-.49h.52a.69.69,0,0,1,0-.1,1.8,1.8,0,0,1,1-.89v-.33h.85v.05a7.83,7.83,0,0,1,1.34-.18V134h2.43v1.22h-2.43v-.52a8.85,8.85,0,0,0-1.34.2v.75h5.75c-.23-.53-1.1-.78-2-.89v-.51a3.58,3.58,0,0,1,2.23.89.66.66,0,0,1,1.18.4.65.65,0,0,1-.66.66.7.7,0,0,1-.25-.05l-.07.76h.33l4.34-4.42v.57l-3.79,3.85h.08v1.73h-1.12l-.61,6.46,4.46,4.69-.3.28ZM276,147a1.42,1.42,0,0,1,1.26-1.42l0-.44-2.91-3.07-2.58,2.62.21,2.48h4C276,147.11,276,147.05,276,147Zm.69,0a.74.74,0,1,0,.74-.75A.74.74,0,0,0,276.7,147Zm.26,0a.48.48,0,0,1,.48-.49.49.49,0,0,1,0,1A.48.48,0,0,1,277,147Zm-9.65,6.61h14.33v3.49H267.31Z"/><g id="stacked-template1"><g id="logo-2" data-name="logo"><path d="M122.55,134.06v12.27h26.58V134.06h-1l0,11.19H123.63V135.14h20.78v-1.08Z"/><path d="M128.78,140.33a5,5,0,0,0-.28-2,1,1,0,0,0-1.87,0,7.18,7.18,0,0,0,0,4,1,1,0,0,0,.93.59,1,1,0,0,0,.94-.59,5,5,0,0,0,.28-2m.9,0a4.57,4.57,0,0,1-.53,2.45,2,2,0,0,1-3.17,0,6.1,6.1,0,0,1,0-4.93,2,2,0,0,1,3.17,0,4.63,4.63,0,0,1,.53,2.47"/><path d="M134.44,137.38v.87a3.5,3.5,0,0,0-.78-.38,2.66,2.66,0,0,0-.79-.12,1.45,1.45,0,0,0-1,.28.94.94,0,0,0-.35.76.8.8,0,0,0,.23.63,1.88,1.88,0,0,0,.86.37l.45.1a2.52,2.52,0,0,1,1.29.65,1.73,1.73,0,0,1,.4,1.21,1.69,1.69,0,0,1-.55,1.37,2.46,2.46,0,0,1-1.63.48,4.58,4.58,0,0,1-.89-.1,5.18,5.18,0,0,1-.9-.28v-.91a4.84,4.84,0,0,0,.92.45,2.64,2.64,0,0,0,.87.14,1.6,1.6,0,0,0,1-.28,1,1,0,0,0,.36-.81,1,1,0,0,0-.25-.73,1.77,1.77,0,0,0-.86-.38l-.45-.11a2.51,2.51,0,0,1-1.28-.6,1.46,1.46,0,0,1-.4-1.07,1.7,1.7,0,0,1,.57-1.35,2.13,2.13,0,0,1,1.51-.52,3.58,3.58,0,0,1,.77.09,5.44,5.44,0,0,1,.84.24"/><path d="M136,137.17h.85v2.58h2.34v-2.58H140v6.3h-.86v-3H136.8v3H136v-6.3"/><path d="M140.57,137.17h.83l.61,5.12.71-3.39h.9l.72,3.39,2-9.81h.83l-2.38,11H144l-.86-3.74-.85,3.74h-.81l-.94-6.3"/></g><g class="cls-7"><path d="M125.87,151.21a2.31,2.31,0,0,1-.41.16,2.12,2.12,0,0,1-.44,0,1.36,1.36,0,0,1-1.15-.52,2.86,2.86,0,0,1,0-3,1.38,1.38,0,0,1,1.15-.53,1.61,1.61,0,0,1,.44.06,1.39,1.39,0,0,1,.41.16v.53a1.33,1.33,0,0,0-.41-.24,1.17,1.17,0,0,0-.44-.08.86.86,0,0,0-.77.39,2.93,2.93,0,0,0,0,2.37.86.86,0,0,0,.77.39,1.32,1.32,0,0,0,.44-.08,1.69,1.69,0,0,0,.41-.24Z"/><path d="M126.64,147.49h.66l1.3,3.18v-3.18h.5v3.86h-.66l-1.3-3.17v3.17h-.5Z"/><path d="M131.05,147.42a1,1,0,0,1,.94.51,3.76,3.76,0,0,1,0,3,1.05,1.05,0,0,1-.94.5,1,1,0,0,1-.93-.5,3.76,3.76,0,0,1,0-3A1,1,0,0,1,131.05,147.42Zm0,.42a.58.58,0,0,0-.54.39,4.06,4.06,0,0,0,0,2.39.58.58,0,0,0,1.09,0,4.06,4.06,0,0,0,0-2.39A.58.58,0,0,0,131.05,147.84Zm-.34,1.57a.33.33,0,0,1,.1-.24.34.34,0,0,1,.24-.11.36.36,0,0,1,.25.11.33.33,0,0,1,.1.24.33.33,0,0,1-.1.25.37.37,0,0,1-.25.1.34.34,0,0,1-.34-.35Z"/><path d="M134.24,147.42a1,1,0,0,1,.93.51,3.65,3.65,0,0,1,0,3,1,1,0,0,1-.93.5,1.05,1.05,0,0,1-.94-.5,3.76,3.76,0,0,1,0-3A1,1,0,0,1,134.24,147.42Zm0,.42a.58.58,0,0,0-.55.39,4.06,4.06,0,0,0,0,2.39.58.58,0,0,0,1.09,0,4.06,4.06,0,0,0,0-2.39A.58.58,0,0,0,134.24,147.84Zm-.35,1.57a.37.37,0,0,1,.1-.24.34.34,0,0,1,.24-.11.34.34,0,0,1,.25.11.33.33,0,0,1,.1.24.33.33,0,0,1-.1.25.37.37,0,0,1-.25.1.35.35,0,0,1-.24-.1A.37.37,0,0,1,133.89,149.41Z"/><path d="M137.42,147.42a1,1,0,0,1,.93.51,3.65,3.65,0,0,1,0,3,1.11,1.11,0,0,1-1.86,0,3.65,3.65,0,0,1,0-3A1,1,0,0,1,137.42,147.42Zm0,.42a.58.58,0,0,0-.54.39,4.06,4.06,0,0,0,0,2.39.58.58,0,0,0,.54.39.59.59,0,0,0,.55-.39,4.29,4.29,0,0,0,0-2.39A.59.59,0,0,0,137.42,147.84Zm-.34,1.57a.33.33,0,0,1,.1-.24.3.3,0,0,1,.23-.11.34.34,0,0,1,.25.11.34.34,0,0,1,.11.24.34.34,0,0,1-.11.25.36.36,0,0,1-.25.1.33.33,0,0,1-.33-.35Z"/><path d="M140.6,147.42a1.05,1.05,0,0,1,.94.51,3.76,3.76,0,0,1,0,3,1.06,1.06,0,0,1-.94.5,1,1,0,0,1-.93-.5,3.76,3.76,0,0,1,0-3A1,1,0,0,1,140.6,147.42Zm0,.42a.58.58,0,0,0-.54.39,4.06,4.06,0,0,0,0,2.39.58.58,0,0,0,1.09,0,4.06,4.06,0,0,0,0-2.39A.58.58,0,0,0,140.6,147.84Zm-.34,1.57a.33.33,0,0,1,.1-.24.3.3,0,0,1,.24-.11.36.36,0,0,1,.25.11.37.37,0,0,1,.1.24.34.34,0,0,1-.35.35.34.34,0,0,1-.34-.35Z"/><path d="M142.89,150.91h.81V148l-.87.2v-.48l.87-.19h.52v3.42h.8v.44h-2.13Z"/><path d="M145.91,147.49h2v.44h-1.47v.95a.9.9,0,0,1,.22-.06l.23,0a1.31,1.31,0,0,1,.95.35,1.33,1.33,0,0,1,.35,1,1.24,1.24,0,0,1-.37,1,1.38,1.38,0,0,1-1,.35,3.28,3.28,0,0,1-.56,0,2.44,2.44,0,0,1-.45-.12v-.53a2.32,2.32,0,0,0,.47.19,2.14,2.14,0,0,0,.5.06.92.92,0,0,0,.66-.22,1,1,0,0,0,0-1.29.94.94,0,0,0-.67-.23,1.4,1.4,0,0,0-.41,0,1.74,1.74,0,0,0-.38.14Z"/></g></g><g id="surface480"><path id="path2" d="M194.08,144.64a2.87,2.87,0,0,0,2-3,3.09,3.09,0,0,0-6.18,0,3,3,0,0,0,2,3.08l-2.19,5.38c-2.92-.75-5.9-4.21-5.9-8.46a9.16,9.16,0,0,1,18.31,0c0,4.32-2.95,7.72-5.94,8.48Z"/></g><g id="flowRoot3742"><path id="path3756" d="M185.19,152.77a1,1,0,0,1-.23.71.93.93,0,0,1-1.29,0,1.06,1.06,0,0,1-.23-.71,1,1,0,0,1,.23-.71.86.86,0,0,1,.65-.25.84.84,0,0,1,.45.12.76.76,0,0,1,.31.33A1.19,1.19,0,0,1,185.19,152.77Zm-1.14,0a.92.92,0,0,0,.06.37.21.21,0,0,0,.21.12.2.2,0,0,0,.19-.12.92.92,0,0,0,.06-.37.84.84,0,0,0-.06-.36.2.2,0,0,0-.2-.12.21.21,0,0,0-.2.12A.84.84,0,0,0,184.05,152.77Z"/><path id="path3758" d="M186.58,153.74a.6.6,0,0,1-.24-.05.63.63,0,0,1-.21-.17h0a1.5,1.5,0,0,1,0,.24v.75h-.6v-2.67H186l.09.24h0a.54.54,0,0,1,.93,0,1.27,1.27,0,0,1,.16.7,1.31,1.31,0,0,1-.17.71A.55.55,0,0,1,186.58,153.74Zm-.2-1.42a.2.2,0,0,0-.19.1.86.86,0,0,0-.06.3v.05a.71.71,0,0,0,.06.34.23.23,0,0,0,.2.11.17.17,0,0,0,.16-.11.73.73,0,0,0,.06-.35.71.71,0,0,0-.06-.34A.17.17,0,0,0,186.38,152.32Z"/><path id="path3760" d="M188.41,153.74a.93.93,0,0,1-.68-.25,1,1,0,0,1-.24-.7,1.06,1.06,0,0,1,.22-.73.85.85,0,0,1,.64-.25.82.82,0,0,1,.61.22.85.85,0,0,1,.22.63V153H188.1a.3.3,0,0,0,.11.24.38.38,0,0,0,.27.09,1.39,1.39,0,0,0,.3,0,1.83,1.83,0,0,0,.29-.11v.46a1.21,1.21,0,0,1-.3.11A1.86,1.86,0,0,1,188.41,153.74Zm0-1.49a.21.21,0,0,0-.17.07.34.34,0,0,0-.09.22h.52a.28.28,0,0,0-.07-.21A.26.26,0,0,0,188.37,152.25Z"/><path id="path3762" d="M190.63,153.7v-1a.67.67,0,0,0,0-.28.17.17,0,0,0-.16-.09.22.22,0,0,0-.22.13.92.92,0,0,0-.07.44v.81h-.61v-1.86H190l.08.23h0a.46.46,0,0,1,.22-.19.62.62,0,0,1,.31-.07.57.57,0,0,1,.45.18.72.72,0,0,1,.16.5v1.21Z"/><path id="path3764" d="M193.67,153.19a.48.48,0,0,1-.18.4.84.84,0,0,1-.53.15,1.25,1.25,0,0,1-.55-.11v-.34a1.31,1.31,0,0,0,.57.15q.33,0,.33-.21a.16.16,0,0,0,0-.12.31.31,0,0,0-.12-.09,1.54,1.54,0,0,0-.23-.12,1.12,1.12,0,0,1-.41-.24.5.5,0,0,1-.1-.31.4.4,0,0,1,.18-.36.78.78,0,0,1,.48-.13,1.25,1.25,0,0,1,.57.13l-.12.29a1.25,1.25,0,0,0-.46-.13c-.19,0-.29.06-.29.18a.16.16,0,0,0,.07.14,1.53,1.53,0,0,0,.33.17,1.49,1.49,0,0,1,.31.15.55.55,0,0,1,.14.17A.52.52,0,0,1,193.67,153.19Z"/><path id="path3766" d="M195.58,152.79a1.07,1.07,0,0,1-.22.7.76.76,0,0,1-.6.25.74.74,0,0,1-.42-.12.75.75,0,0,1-.28-.33,1.12,1.12,0,0,1-.1-.5,1.05,1.05,0,0,1,.21-.69.75.75,0,0,1,.6-.24.72.72,0,0,1,.59.25A1,1,0,0,1,195.58,152.79Zm-1.25,0c0,.42.15.63.44.63s.43-.21.43-.63-.14-.62-.43-.62a.37.37,0,0,0-.34.16A1,1,0,0,0,194.33,152.79Z"/><path id="path3768" d="M197.2,153.7l0-.23h0a.46.46,0,0,1-.22.19.62.62,0,0,1-.31.08.61.61,0,0,1-.47-.17.71.71,0,0,1-.15-.5v-1.18h.37V153a.46.46,0,0,0,.08.31.28.28,0,0,0,.25.1.37.37,0,0,0,.33-.14.79.79,0,0,0,.11-.49v-.9h.37v1.81Z"/><path id="path3770" d="M198.87,151.86h.18l0,.36-.16,0a.46.46,0,0,0-.36.15.57.57,0,0,0-.13.4v.94H198v-1.81h.29l.05.32h0a.63.63,0,0,1,.22-.26A.52.52,0,0,1,198.87,151.86Z"/><path id="path3772" d="M200.06,153.74a.73.73,0,0,1-.59-.24,1.3,1.3,0,0,1,0-1.4.76.76,0,0,1,.61-.24,1.13,1.13,0,0,1,.49.1l-.11.31a1.13,1.13,0,0,0-.38-.09c-.3,0-.45.21-.45.62a.8.8,0,0,0,.11.46.4.4,0,0,0,.33.15,1,1,0,0,0,.46-.12v.33l-.21.09A1.06,1.06,0,0,1,200.06,153.74Z"/><path id="path3774" d="M201.69,153.74a.83.83,0,0,1-.63-.25,1,1,0,0,1-.22-.68,1.06,1.06,0,0,1,.21-.7.79.79,0,0,1,1.11,0,.88.88,0,0,1,.19.6v.21h-1.14a.63.63,0,0,0,.14.41.46.46,0,0,0,.36.14,1.27,1.27,0,0,0,.28,0,1.37,1.37,0,0,0,.28-.1v.31a1,1,0,0,1-.27.1A1.42,1.42,0,0,1,201.69,153.74Zm-.07-1.59a.39.39,0,0,0-.28.11.58.58,0,0,0-.12.34H202a.55.55,0,0,0-.11-.34A.34.34,0,0,0,201.62,152.15Z"/><path id="path3776" d="M186.83,157.07h-.36v-1.81h.36Zm-.38-2.29a.23.23,0,0,1,.05-.16.21.21,0,0,1,.16-.06.17.17,0,0,1,.14.06.2.2,0,0,1,.06.16.2.2,0,0,1-.06.15.17.17,0,0,1-.14.06.21.21,0,0,1-.16-.06A.25.25,0,0,1,186.45,154.78Z"/><path id="path3778" d="M188.86,157.07h-.36V156a.49.49,0,0,0-.09-.32.28.28,0,0,0-.25-.1.39.39,0,0,0-.33.14.79.79,0,0,0-.11.49v.9h-.36v-1.81h.28l.05.24h0a.43.43,0,0,1,.22-.2.65.65,0,0,1,.31-.08c.42,0,.62.23.62.67Z"/><path id="path3780" d="M189.73,157.07h-.36v-1.81h.36Zm-.39-2.29a.2.2,0,0,1,.06-.16.18.18,0,0,1,.15-.06.2.2,0,0,1,.15.06.23.23,0,0,1,.05.16.25.25,0,0,1-.05.15.2.2,0,0,1-.15.06.18.18,0,0,1-.15-.06A.2.2,0,0,1,189.34,154.78Z"/><path id="path3782" d="M190.89,156.79a.78.78,0,0,0,.26,0V157l-.15,0a.68.68,0,0,1-.2,0c-.34,0-.52-.19-.52-.57v-1h-.23v-.17l.25-.14.12-.39h.23v.41h.49v.29h-.49v1a.33.33,0,0,0,.06.21A.28.28,0,0,0,190.89,156.79Z"/><path id="path3784" d="M191.86,157.07h-.37v-1.81h.37Zm-.39-2.29a.23.23,0,0,1,.05-.16.21.21,0,0,1,.16-.06.2.2,0,0,1,.15.06.23.23,0,0,1,0,.16.25.25,0,0,1,0,.15.2.2,0,0,1-.15.06.21.21,0,0,1-.16-.06A.25.25,0,0,1,191.47,154.78Z"/><path id="path3786" d="M193.45,157.07l-.08-.25h0a.76.76,0,0,1-.25.23.93.93,0,0,1-.32,0,.49.49,0,0,1-.39-.14.54.54,0,0,1-.14-.41.47.47,0,0,1,.19-.42,1,1,0,0,1,.6-.16h.3v-.09a.37.37,0,0,0-.08-.26.3.3,0,0,0-.24-.09.73.73,0,0,0-.25,0l-.23.1-.12-.28a1,1,0,0,1,.31-.11,1.18,1.18,0,0,1,.31-.05.66.66,0,0,1,.49.16.6.6,0,0,1,.17.47v1.22Zm-.54-.26a.41.41,0,0,0,.31-.12.45.45,0,0,0,.12-.33v-.15h-.22a.61.61,0,0,0-.37.09.26.26,0,0,0-.12.24.26.26,0,0,0,.07.19A.28.28,0,0,0,192.91,156.81Z"/><path id="path3788" d="M194.85,156.79a.84.84,0,0,0,.27,0V157a.62.62,0,0,1-.16,0,.65.65,0,0,1-.2,0q-.51,0-.51-.57v-1H194v-.17l.25-.14.13-.39h.22v.41h.49v.29h-.49v1a.28.28,0,0,0,.07.21A.24.24,0,0,0,194.85,156.79Z"/><path id="path3790" d="M195.82,157.07h-.36v-1.81h.36Zm-.38-2.29a.19.19,0,0,1,.05-.16.18.18,0,0,1,.15-.06.2.2,0,0,1,.15.06.19.19,0,0,1,.05.16.2.2,0,0,1-.05.15.2.2,0,0,1-.15.06.18.18,0,0,1-.15-.06A.2.2,0,0,1,195.44,154.78Z"/><path id="path3792" d="M196.73,157.07l-.65-1.81h.38l.35,1.05a2.08,2.08,0,0,1,.11.43h0a3.83,3.83,0,0,1,.11-.43l.35-1.05h.39l-.66,1.81Z"/><path id="path3794" d="M198.78,157.1a.81.81,0,0,1-.62-.24,1,1,0,0,1-.23-.68,1.06,1.06,0,0,1,.21-.7.71.71,0,0,1,.58-.26.7.7,0,0,1,.53.22.89.89,0,0,1,.2.6v.21h-1.14a.63.63,0,0,0,.13.41.49.49,0,0,0,.36.14,1.27,1.27,0,0,0,.28,0,1.19,1.19,0,0,0,.28-.1V157a1,1,0,0,1-.27.1A1.47,1.47,0,0,1,198.78,157.1Zm-.06-1.58a.38.38,0,0,0-.28.11.62.62,0,0,0-.13.34h.78a.55.55,0,0,0-.1-.34A.37.37,0,0,0,198.72,155.52Z"/><g id="flowRoot3797"><path id="path3805" d="M200.17,155h.07a.17.17,0,0,0,.1,0,.09.09,0,0,0,0-.07.1.1,0,0,0,0-.08s-.05,0-.1,0h-.07Zm.31-.11a.15.15,0,0,1,0,.1.16.16,0,0,1-.09.07l.17.28h-.12l-.15-.25h-.09v.25h-.11v-.63h.19a.25.25,0,0,1,.17,0A.17.17,0,0,1,200.48,154.89Zm-.76.13a.59.59,0,0,1,.07-.26.55.55,0,0,1,.2-.2.5.5,0,0,1,.27-.07.54.54,0,0,1,.27.07.5.5,0,0,1,.19.19.56.56,0,0,1,.08.27.6.6,0,0,1-.07.27.55.55,0,0,1-.2.2.56.56,0,0,1-.54,0,.55.55,0,0,1-.2-.2A.6.6,0,0,1,199.72,155Zm.08,0a.44.44,0,0,0,.06.23.4.4,0,0,0,.17.17.41.41,0,0,0,.46,0,.44.44,0,0,0,.17-.16.5.5,0,0,0,.06-.24.46.46,0,0,0-.06-.23.55.55,0,0,0-.17-.17.46.46,0,0,0-.69.4Z"/></g></g><path d="M175.29,140.32l-2.23-.42a.2.2,0,0,1-.14-.11l-.68-1.6a.17.17,0,0,1,0-.17l1.3-1.9a.13.13,0,0,0,0-.16l-1.63-1.62a.12.12,0,0,0-.15,0l-1.94,1.33a.17.17,0,0,1-.17,0L168.1,135a.2.2,0,0,1-.11-.13l-.43-2.32a.14.14,0,0,0-.12-.1h-2.31a.13.13,0,0,0-.11.1l-.43,2.32a.25.25,0,0,1-.12.13l-1.55.63a.17.17,0,0,1-.17,0l-1.94-1.33a.12.12,0,0,0-.15,0L159,136a.13.13,0,0,0,0,.16l1.3,1.9a.17.17,0,0,1,0,.17l-.68,1.6a.2.2,0,0,1-.14.11l-2.23.42a.12.12,0,0,0-.1.12v2.3a.12.12,0,0,0,.1.12l2.18.41a.2.2,0,0,1,.13.11l.68,1.7a.23.23,0,0,1,0,.18l-1.24,1.8a.13.13,0,0,0,0,.16l1.63,1.62a.12.12,0,0,0,.15,0l1.78-1.22a.2.2,0,0,1,.17,0l.78.42a.09.09,0,0,0,.13-.05l1.61-3.89a.13.13,0,0,0-.05-.15l-.19-.12-.12-.09a2.54,2.54,0,1,1,2.74,0l-.13.09-.19.12a.13.13,0,0,0-.05.15L168.9,148a.09.09,0,0,0,.13.05l.78-.42a.2.2,0,0,1,.17,0l1.78,1.22a.12.12,0,0,0,.15,0l1.63-1.62a.13.13,0,0,0,0-.16l-1.24-1.8a.23.23,0,0,1,0-.18l.68-1.7a.2.2,0,0,1,.13-.11l2.18-.41a.12.12,0,0,0,.1-.12v-2.3a.12.12,0,0,0-.1-.12"/><path class="cls-6" d="M160.77,157.08h.49v-1.67c0-.6-.41-.81-1-.81a.94.94,0,0,0-.83.36l.39.29c.09-.14.21-.18.46-.18s.5.08.5.31v.25h-.68a.72.72,0,0,0-.79.73.76.76,0,0,0,.86.74c.33,0,.5-.07.6-.24h0Zm0-.86c0,.38-.14.42-.55.42s-.46-.14-.46-.31.14-.29.43-.29h.58Z"/><path class="cls-6" d="M161.8,157.08h.5v-1.47a.46.46,0,0,1,.47-.51.48.48,0,0,1,.33.12l.35-.43a.84.84,0,0,0-.51-.19.77.77,0,0,0-.63.29h0v-.26h-.5Z"/><path class="cls-6" d="M164.92,157.08h.49v-3.43h-.49v1.24a.91.91,0,0,0-.63-.29.79.79,0,0,0-.65.32c-.14.18-.18.33-.18.93s0,.76.18.94a.79.79,0,0,0,.65.31.84.84,0,0,0,.63-.28Zm-.48-2c.46,0,.48.4.48.75s0,.76-.48.76-.49-.38-.49-.76,0-.75.49-.75"/><polygon class="cls-6" points="167.92 157.07 168.35 157.07 169.13 154.63 168.62 154.63 168.15 156.34 168.14 156.34 167.58 154.63 167.23 154.63 166.67 156.34 166.66 156.34 166.2 154.63 165.68 154.63 166.46 157.07 166.89 157.07 167.4 155.37 167.41 155.37 167.92 157.07"/><path class="cls-6" d="M170.65,157.08h.49v-1.67c0-.6-.42-.81-1-.81a.93.93,0,0,0-.82.36l.38.29c.09-.14.21-.18.47-.18s.5.08.5.31v.25H170a.72.72,0,0,0-.8.73.77.77,0,0,0,.87.74c.33,0,.5-.07.6-.24h0Zm0-.86c0,.38-.14.42-.55.42s-.46-.14-.46-.31.13-.29.42-.29h.59Z"/><path class="cls-6" d="M171.68,157.08h.49v-1.47a.46.46,0,0,1,.48-.51.48.48,0,0,1,.32.12l.36-.43a.87.87,0,0,0-.51-.19.79.79,0,0,0-.64.29h0v-.26h-.49Z"/><path class="cls-6" d="M175.35,156v-.41a1,1,0,0,0-1-1c-.47,0-1,.31-1,1.26s.58,1.24,1.08,1.24a1.11,1.11,0,0,0,.88-.39l-.36-.3a.74.74,0,0,1-.53.23.54.54,0,0,1-.58-.6Zm-1.52-.41a.5.5,0,0,1,.51-.56c.29,0,.5.19.52.56Z"/><path class="cls-6" d="M154.57,152a1.17,1.17,0,0,0,.27.94.94.94,0,0,0,.74.32,1,1,0,0,0,.74-.32c.19-.2.26-.41.26-.94a1.18,1.18,0,0,0-.26-.93,1,1,0,0,0-.74-.31.94.94,0,0,0-.74.31,1.17,1.17,0,0,0-.27.93m1.52,0c0,.35,0,.45-.12.58a.49.49,0,0,1-.39.18.51.51,0,0,1-.4-.18c-.09-.13-.12-.23-.12-.59s0-.44.12-.57a.48.48,0,0,1,.4-.18.46.46,0,0,1,.39.18c.09.13.12.22.12.58"/><path class="cls-6" d="M161.3,152.18v-.4a1,1,0,0,0-1-1c-.47,0-1,.3-1,1.25s.58,1.25,1.08,1.25a1.12,1.12,0,0,0,.88-.4l-.35-.3a.78.78,0,0,1-.54.23.54.54,0,0,1-.58-.6Zm-1.52-.4c0-.37.22-.57.51-.57s.5.2.52.57Z"/><path class="cls-6" d="M161.72,153.22h.49v-1.46a.49.49,0,1,1,1,0v1.46h.49v-1.63a.81.81,0,0,0-.81-.84.79.79,0,0,0-.64.28h0v-.26h-.49Z"/><path class="cls-6" d="M165,152.81a1.55,1.55,0,0,0,1.07.44c.57,0,1-.28,1-.76a.68.68,0,0,0-.71-.73l-.41,0c-.24,0-.32-.12-.32-.23s.11-.29.42-.29a1.1,1.1,0,0,1,.65.22l.31-.35a1.41,1.41,0,0,0-1-.33c-.52,0-.91.25-.91.75a.68.68,0,0,0,.7.69l.44,0c.16,0,.29.07.29.24s-.2.31-.48.31a1,1,0,0,1-.77-.31Z"/><path class="cls-6" d="M167.36,152a1.17,1.17,0,0,0,.27.94,1,1,0,0,0,1.48,0,1.75,1.75,0,0,0,0-1.87,1,1,0,0,0-1.48,0,1.17,1.17,0,0,0-.27.93m1.53,0c0,.35,0,.45-.12.58a.52.52,0,0,1-.4.18.49.49,0,0,1-.39-.18c-.09-.13-.12-.23-.12-.59s0-.44.12-.57a.46.46,0,0,1,.39-.18.49.49,0,0,1,.4.18c.09.13.12.22.12.58"/><path class="cls-6" d="M169.8,152.4a.82.82,0,0,0,.82.85.8.8,0,0,0,.63-.29h0v.26h.49v-2.45h-.49v1.46a.49.49,0,1,1-1,0v-1.46h-.49Z"/><path class="cls-6" d="M172.29,153.22h.49v-1.47a.46.46,0,0,1,.48-.51.48.48,0,0,1,.32.12l.36-.43a.85.85,0,0,0-.51-.18.77.77,0,0,0-.64.28h0v-.26h-.49Z"/><path class="cls-6" d="M175.5,152.5a.64.64,0,0,1-.5.26c-.4,0-.63-.23-.63-.76s.23-.76.63-.76a.63.63,0,0,1,.5.25l.36-.32a1.11,1.11,0,0,0-.87-.42,1.26,1.26,0,0,0,0,2.5,1.12,1.12,0,0,0,.87-.43Z"/><path class="cls-6" d="M178,152.18v-.4a1,1,0,0,0-1-1c-.47,0-1,.3-1,1.25s.58,1.25,1.08,1.25a1.12,1.12,0,0,0,.88-.4l-.35-.3a.78.78,0,0,1-.54.23.54.54,0,0,1-.58-.6Zm-1.52-.4c0-.37.22-.57.51-.57s.5.2.52.57Z"/><path d="M158,152.76c.46,0,.48-.39.48-.76s0-.76-.48-.76-.48.4-.48.76,0,.76.48.76m-1,4.32v-6.31h.5V151a.84.84,0,0,1,.63-.28.8.8,0,0,1,.65.31c.14.18.17.34.17.94s0,.76-.17.93a.81.81,0,0,1-.65.32.91.91,0,0,1-.63-.29v1.93a.84.84,0,0,1,.65-.29.82.82,0,0,1,.81.85v1.63h-.49v-1.46a.49.49,0,1,0-1,0v1.46Z"/><path d="M184.44,119v-4h.36v1.6a1.39,1.39,0,0,1,1.13-.57,1.34,1.34,0,0,1,1,.45,1.53,1.53,0,0,1,.42,1.08,1.49,1.49,0,0,1-.43,1.08,1.36,1.36,0,0,1-1,.45,1.33,1.33,0,0,1-1.11-.63V119Zm.34-1.46a1.17,1.17,0,0,0,.32.85,1,1,0,0,0,.79.35,1.05,1.05,0,0,0,.79-.35,1.18,1.18,0,0,0,.33-.83,1.22,1.22,0,0,0-.32-.83,1,1,0,0,0-.8-.35,1.06,1.06,0,0,0-.79.33A1.12,1.12,0,0,0,184.78,117.57Z"/><path d="M187.51,116.15h.39l1,2.22.94-2.22h.39l-1.68,3.93h-.38l.54-1.27Z"/><path d="M192.39,119.35v-3.22h-1.12v-.66h3v.66h-1.12v3.22Z"/><path d="M195.76,118.46l.72.12a1.16,1.16,0,0,1-.44.62,1.4,1.4,0,0,1-1.81-.26,1.84,1.84,0,0,1,.08-2.07,1.17,1.17,0,0,1,.9-.39,1.22,1.22,0,0,1,1,.41,1.85,1.85,0,0,1,.34,1.27H194.7a.71.71,0,0,0,.18.52.54.54,0,0,0,.41.18.46.46,0,0,0,.29-.09A.62.62,0,0,0,195.76,118.46Zm0-.75a.75.75,0,0,0-.16-.49.51.51,0,0,0-.77,0,.65.65,0,0,0-.16.48Z"/><path d="M199.3,117.37l-.72.14a.58.58,0,0,0-.17-.34.49.49,0,0,0-.33-.11.54.54,0,0,0-.43.2,1,1,0,0,0-.16.64,1.18,1.18,0,0,0,.16.71.56.56,0,0,0,.44.2.49.49,0,0,0,.34-.12.75.75,0,0,0,.19-.41l.71.12a1.26,1.26,0,0,1-.42.76,1.35,1.35,0,0,1-.85.26,1.24,1.24,0,0,1-1-.39,1.53,1.53,0,0,1-.36-1.08,1.52,1.52,0,0,1,.36-1.08,1.25,1.25,0,0,1,1-.39,1.29,1.29,0,0,1,.8.22A1.25,1.25,0,0,1,199.3,117.37Z"/><path d="M200.36,115.47v1.43a1.05,1.05,0,0,1,.84-.42,1.06,1.06,0,0,1,.45.09.69.69,0,0,1,.3.25,1,1,0,0,1,.15.33,3.63,3.63,0,0,1,0,.55v1.65h-.72v-1.48a2.71,2.71,0,0,0,0-.56.4.4,0,0,0-.15-.19.44.44,0,0,0-.26-.07.63.63,0,0,0-.33.09.58.58,0,0,0-.21.27,1.82,1.82,0,0,0-.06.54v1.4h-.73v-3.88Z"/><path d="M202.31,119.35l1-1.44-1-1.37h.89l.48.78.52-.78h.85l-.93,1.33,1,1.48h-.9l-.56-.87-.56.87Z"/><path d="M208.82,119.35H208l-.34-.88h-1.51l-.32.88H205l1.48-3.88h.81Zm-1.41-1.53-.53-1.44-.51,1.44Z"/><path d="M209.7,119.35H209v-2.81h.67v.4a1.25,1.25,0,0,1,.31-.37.59.59,0,0,1,.32-.09.88.88,0,0,1,.48.14l-.23.65a.64.64,0,0,0-.34-.12.38.38,0,0,0-.26.08.6.6,0,0,0-.17.31,4.66,4.66,0,0,0-.06.95Z"/><path d="M212.12,116.54v.6h-.5v1.13a3.17,3.17,0,0,0,0,.4.21.21,0,0,0,.19.13.79.79,0,0,0,.29-.07l.07.58a1.5,1.5,0,0,1-.58.11.78.78,0,0,1-.35-.07.42.42,0,0,1-.23-.17.76.76,0,0,1-.11-.29c0-.09,0-.27,0-.53v-1.22h-.33v-.6h.33V116l.73-.43v1Z"/><path d="M212.41,116.16v-.69h.73v.69Zm0,3.19v-2.81h.73v2.81Z"/><path d="M213.41,118.55l.73-.11a.6.6,0,0,0,.19.33.68.68,0,0,0,.4.11.62.62,0,0,0,.42-.11.21.21,0,0,0,.1-.19.2.2,0,0,0-.05-.14.55.55,0,0,0-.25-.1,3.76,3.76,0,0,1-1.11-.37.72.72,0,0,1-.33-.63.78.78,0,0,1,.29-.61,1.24,1.24,0,0,1,.87-.25,1.45,1.45,0,0,1,.84.19,1,1,0,0,1,.38.55l-.69.13a.41.41,0,0,0-.17-.25.58.58,0,0,0-.35-.09.82.82,0,0,0-.41.08.19.19,0,0,0-.08.16.16.16,0,0,0,.07.13,2.68,2.68,0,0,0,.68.21,2,2,0,0,1,.81.33.71.71,0,0,1,.23.56.87.87,0,0,1-.32.66,1.34,1.34,0,0,1-.93.28,1.54,1.54,0,0,1-.89-.23A1.1,1.1,0,0,1,213.41,118.55Z"/><path d="M217,117.4l-.66-.12a1.09,1.09,0,0,1,.38-.61,1.38,1.38,0,0,1,.81-.19,1.67,1.67,0,0,1,.72.12.72.72,0,0,1,.34.3,1.65,1.65,0,0,1,.09.66v.87a3.63,3.63,0,0,0,0,.55,1.49,1.49,0,0,0,.13.37h-.72s0-.12-.07-.21,0-.08,0-.09a1.71,1.71,0,0,1-.4.28,1.14,1.14,0,0,1-.46.09.89.89,0,0,1-.66-.24.75.75,0,0,1-.25-.59.89.89,0,0,1,.11-.43.73.73,0,0,1,.32-.28,2.13,2.13,0,0,1,.57-.18,3.33,3.33,0,0,0,.71-.18v-.08a.38.38,0,0,0-.1-.3.62.62,0,0,0-.39-.09.49.49,0,0,0-.31.08A.5.5,0,0,0,217,117.4Zm1,.6a3.48,3.48,0,0,1-.44.12,1.29,1.29,0,0,0-.4.13.31.31,0,0,0-.14.26.4.4,0,0,0,.11.27.39.39,0,0,0,.29.11.62.62,0,0,0,.38-.13.49.49,0,0,0,.17-.24,1.52,1.52,0,0,0,0-.37Z"/><path d="M221.64,119.35h-.73v-1.43a2.3,2.3,0,0,0,0-.59.39.39,0,0,0-.4-.28.57.57,0,0,0-.34.1.58.58,0,0,0-.21.28,3,3,0,0,0,0,.65v1.27h-.73v-2.81h.68V117a1.09,1.09,0,0,1,.9-.48,1,1,0,0,1,.44.09.65.65,0,0,1,.3.22.86.86,0,0,1,.15.32,2.85,2.85,0,0,1,0,.5Z"/><rect class="cls-1" width="340.16" height="240.94"/></g></g></svg>