<svg xmlns="http://www.w3.org/2000/svg" xmlns:xlink="http://www.w3.org/1999/xlink" viewBox="0 0 140.56 105.87"><defs><style>.cls-1,.cls-3,.cls-9{fill:none;}.cls-2,.cls-4,.cls-6,.cls-7{fill:#2b2b2b;}.cls-2,.cls-7{fill-rule:evenodd;}.cls-2,.cls-4,.cls-5{isolation:isolate;}.cls-3{stroke:#000;stroke-linecap:round;stroke-linejoin:round;stroke-width:0.2px;}.cls-8{clip-path:url(#clip-path);}.cls-9{stroke:#2b2b2b;stroke-miterlimit:10;}.cls-10{clip-path:url(#clip-path-2);}</style><clipPath id="clip-path" transform="translate(-0.1)"><rect class="cls-1" x="62.38" y="70.06" width="52" height="21.17"/></clipPath><clipPath id="clip-path-2" transform="translate(-0.1)"><rect class="cls-1" x="77.82" y="80.58" width="49.49" height="20.85"/></clipPath></defs><g id="Layer_2" data-name="Layer 2"><g id="Layer_1-2" data-name="Layer 1"><path id="路径_1" data-name="路径 1" class="cls-2" d="M68.34,101V95.39h-.93V101Z" transform="translate(-0.1)"/><path id="路径_2" data-name="路径 2" class="cls-2" d="M64.62,101V95.39h-.93V101Z" transform="translate(-0.1)"/><path id="路径_4" data-name="路径 4" class="cls-2" d="M60.89,93.06v.46H57.17a.94.94,0,0,0-.93.94v.93h4.65v.93H56.24V100h4.65V101H56.24v.93a.93.93,0,0,0,.93.93h3.72v.47a.94.94,0,0,0,.94.93h8.84a.83.83,0,0,0,.28-.09l1.25-.84h1.26a.93.93,0,0,0,.93-.93v-1.86h1.4a.47.47,0,0,0,.93,0h.93a.93.93,0,0,0,.93-.93v-2.8a.93.93,0,0,0-.93-.93h-.93a.47.47,0,0,0-.93,0h-1.4V94a.93.93,0,0,0-.93-.93H72.2L71,92.22a.65.65,0,0,0-.28-.09H61.83A.94.94,0,0,0,60.89,93.06ZM59,97.71v-.93H60v.93Zm0,1.87v-.94H60v.94Zm18.62-2.8v2.8h-.93v-2.8Zm-1.86,0v2.8h-1.4v-2.8Zm-7-2.32a.43.43,0,0,1,.46.46v6.52a.43.43,0,0,1-.46.46H67a.44.44,0,0,1-.47-.46V94.92a.44.44,0,0,1,.47-.46Zm-3.73,0a.44.44,0,0,1,.47.46v6.52a.44.44,0,0,1-.47.46H63.22a.43.43,0,0,1-.46-.46V94.92a.43.43,0,0,1,.46-.46Z" transform="translate(-0.1)"/><path id="路径_1-2" data-name="路径 1" class="cls-2" d="M114.13,70.9h5.58V70h-5.58Z" transform="translate(-0.1)"/><path id="路径_2-2" data-name="路径 2" class="cls-2" d="M114.13,67.18h5.58v-.93h-5.58Z" transform="translate(-0.1)"/><path id="路径_4-2" data-name="路径 4" class="cls-2" d="M122,63.46h-.46V59.73a.93.93,0,0,0-.93-.93h-.94v4.66h-.93V58.8h-3.72v4.66h-.93V58.8h-.93a.93.93,0,0,0-.93.93v3.73h-.47a.93.93,0,0,0-.93.93v8.84a.76.76,0,0,0,.09.28l.84,1.26V76a.93.93,0,0,0,.93.93h1.86v1.4a.47.47,0,0,0,0,.93v.93a.94.94,0,0,0,.94.93h2.79a.93.93,0,0,0,.93-.93v-.93a.47.47,0,0,0,0-.93V77h1.86A.93.93,0,0,0,122,76V74.77l.84-1.26a.61.61,0,0,0,.09-.28V64.39A.93.93,0,0,0,122,63.46Zm-4.65-1.87h.93v.93h-.93Zm-1.86,0h.93v.93h-.93Zm2.79,18.62h-2.79v-.93h2.79Zm0-1.86h-2.79V77h2.79Zm2.33-7a.44.44,0,0,1-.47.46h-6.52a.43.43,0,0,1-.46-.46V69.51a.44.44,0,0,1,.46-.47h6.52a.45.45,0,0,1,.47.47Zm0-3.73a.45.45,0,0,1-.47.47h-6.52a.44.44,0,0,1-.46-.47V65.78a.43.43,0,0,1,.46-.46h6.52a.44.44,0,0,1,.47.46Z" transform="translate(-0.1)"/><line class="cls-3" x1="124.42" y1="51.66" x2="124.42" y2="51.45"/><line class="cls-3" x1="134.48" y1="58.2" x2="134.48" y2="57.79"/><line class="cls-3" x1="133.41" y1="58.24" x2="126.33" y2="54.17"/><path class="cls-3" d="M133.54,58.23a1.08,1.08,0,0,0,1,0" transform="translate(-0.1)"/><line class="cls-3" x1="136.84" y1="56.83" x2="134.41" y2="58.24"/><line class="cls-3" x1="108.75" y1="44.44" x2="104.5" y2="41.99"/><path class="cls-3" d="M108.85,44.43a1.8,1.8,0,0,0,1.63,0" transform="translate(-0.1)"/><line class="cls-3" x1="110.94" y1="44.1" x2="110.36" y2="44.44"/><line class="cls-3" x1="123.33" y1="51.71" x2="123.11" y2="51.64"/><path class="cls-3" d="M123.46,51.7a1.56,1.56,0,0,0,1.15-.09" transform="translate(-0.1)"/><line class="cls-3" x1="125.84" y1="50.85" x2="124.51" y2="51.62"/><line class="cls-3" x1="114.82" y1="47.59" x2="114.78" y2="47.12"/><path class="cls-3" d="M115,47.58a.47.47,0,0,0,.28.35" transform="translate(-0.1)"/><line class="cls-3" x1="121.1" y1="51.39" x2="115.1" y2="47.95"/><path class="cls-3" d="M121.22,51.38a1.25,1.25,0,0,0,.63.16" transform="translate(-0.1)"/><line class="cls-3" x1="122.92" y1="51.6" x2="121.74" y2="51.56"/><path class="cls-3" d="M123.21,51.63a.58.58,0,0,0-.19,0" transform="translate(-0.1)"/><path class="cls-3" d="M140.56,58.19a2.76,2.76,0,0,0-1.62-2.26" transform="translate(-0.1)"/><path class="cls-3" d="M108.58,38.44a8.75,8.75,0,0,0-6-.69c-2.07.5-3.42,1.66-3.42,3" transform="translate(-0.1)"/><line class="cls-3" x1="108.45" y1="38.46" x2="138.83" y2="55.95"/><polyline class="cls-3" points="100.58 43.37 101.2 43.73 131.63 61.25"/><line class="cls-3" x1="138.83" y1="56.38" x2="138.21" y2="57.47"/><path class="cls-3" d="M131.73,61.24a7.35,7.35,0,0,0,6.59,0c1.82-1,1.82-2.74,0-3.78" transform="translate(-0.1)"/><path class="cls-3" d="M139,60.87c2.15-1.25,2.14-3.27,0-4.51" transform="translate(-0.1)"/><line class="cls-3" x1="108.45" y1="38.89" x2="107.83" y2="39.98"/><line class="cls-3" x1="107.83" y1="39.98" x2="138.21" y2="57.47"/><line class="cls-3" x1="138.83" y1="56.38" x2="108.45" y2="38.89"/><path class="cls-3" d="M108,40a7.32,7.32,0,0,0-6.56,0c-1.83,1-1.86,2.71-.08,3.76" transform="translate(-0.1)"/><path class="cls-3" d="M108.58,38.87a8.67,8.67,0,0,0-7.8,0c-2.17,1.23-2.21,3.24-.08,4.5" transform="translate(-0.1)"/><line class="cls-3" x1="138.83" y1="55.95" x2="138.83" y2="56.38"/><line class="cls-3" x1="123.33" y1="52.88" x2="123.11" y2="52.8"/><path class="cls-3" d="M123.21,52.79l-.19,0" transform="translate(-0.1)"/><line class="cls-3" x1="122.92" y1="52.76" x2="121.74" y2="52.73"/><path class="cls-3" d="M121.22,52.54a1.37,1.37,0,0,0,.63.17" transform="translate(-0.1)"/><line class="cls-3" x1="121.1" y1="52.56" x2="115.1" y2="49.11"/><path class="cls-3" d="M115,48.74a.5.5,0,0,0,.28.36" transform="translate(-0.1)"/><line class="cls-3" x1="114.82" y1="48.75" x2="114.75" y2="48.06"/><path class="cls-3" d="M114.87,48.05a.14.14,0,0,0-.06-.1" transform="translate(-0.1)"/><line class="cls-3" x1="114.71" y1="47.97" x2="114.58" y2="47.82"/><path class="cls-3" d="M114.85,47.15c-.3.18-.37.45-.16.66" transform="translate(-0.1)"/><line class="cls-3" x1="114.73" y1="47.16" x2="116.38" y2="46.2"/><path class="cls-3" d="M117.87,46.2a1.5,1.5,0,0,0-1.37,0" transform="translate(-0.1)"/><line class="cls-3" x1="117.76" y1="46.2" x2="126.16" y2="51.04"/><path class="cls-3" d="M126.26,51.81c.38-.21.38-.56,0-.78" transform="translate(-0.1)"/><line class="cls-3" x1="126.16" y1="51.83" x2="124.51" y2="52.78"/><path class="cls-3" d="M123.46,52.86a1.56,1.56,0,0,0,1.15-.09" transform="translate(-0.1)"/><line class="cls-3" x1="104.31" y1="42.1" x2="105.08" y2="41.67"/><path class="cls-3" d="M106.81,41.64a1.8,1.8,0,0,0-1.63,0" transform="translate(-0.1)"/><line class="cls-3" x1="106.69" y1="41.67" x2="111.13" y2="44.22"/><path class="cls-3" d="M111.25,45.15a.5.5,0,0,0,0-.94" transform="translate(-0.1)"/><line class="cls-3" x1="111.13" y1="45.15" x2="110.36" y2="45.58"/><path class="cls-3" d="M108.85,45.6a1.8,1.8,0,0,0,1.63,0" transform="translate(-0.1)"/><line class="cls-3" x1="108.75" y1="45.58" x2="104.31" y2="43.04"/><path class="cls-3" d="M104.41,42.09a.5.5,0,0,0,0,.94" transform="translate(-0.1)"/><path class="cls-3" d="M126,54.46c-.28.15-.28.41,0,.56" transform="translate(-0.1)"/><line class="cls-3" x1="125.82" y1="54.45" x2="128.78" y2="52.76"/><path class="cls-3" d="M129.88,52.75a1.08,1.08,0,0,0-1,0" transform="translate(-0.1)"/><line class="cls-3" x1="129.78" y1="52.76" x2="137.35" y2="57.13"/><path class="cls-3" d="M137.47,57.69c.28-.16.28-.42,0-.57" transform="translate(-0.1)"/><line class="cls-3" x1="137.35" y1="57.69" x2="134.41" y2="59.4"/><path class="cls-3" d="M133.54,59.37a1.08,1.08,0,0,0,1,0" transform="translate(-0.1)"/><line class="cls-3" x1="133.41" y1="59.4" x2="125.82" y2="55.03"/><line class="cls-3" x1="123.33" y1="51.71" x2="123.33" y2="52.88"/><line class="cls-3" x1="124.51" y1="51.62" x2="124.51" y2="52.78"/><line class="cls-3" x1="126.16" y1="51.04" x2="126.16" y2="51.83"/><line class="cls-3" x1="114.58" y1="47.27" x2="114.58" y2="47.82"/><line class="cls-3" x1="114.71" y1="47.18" x2="114.71" y2="47.97"/><line class="cls-3" x1="114.75" y1="47.14" x2="114.75" y2="48.06"/><line class="cls-3" x1="114.82" y1="47.59" x2="114.82" y2="48.75"/><line class="cls-3" x1="115.1" y1="47.95" x2="115.1" y2="49.11"/><line class="cls-3" x1="121.1" y1="51.39" x2="121.1" y2="52.56"/><line class="cls-3" x1="121.74" y1="51.56" x2="121.74" y2="52.73"/><line class="cls-3" x1="122.92" y1="51.6" x2="122.92" y2="52.76"/><line class="cls-3" x1="123.11" y1="51.64" x2="123.11" y2="52.8"/><line class="cls-3" x1="104.31" y1="42.1" x2="104.31" y2="43.04"/><line class="cls-3" x1="108.75" y1="44.44" x2="108.75" y2="45.58"/><line class="cls-3" x1="110.36" y1="44.44" x2="110.36" y2="45.58"/><line class="cls-3" x1="111.13" y1="44.22" x2="111.13" y2="45.15"/><line class="cls-3" x1="125.82" y1="54.45" x2="125.82" y2="55.03"/><line class="cls-3" x1="133.41" y1="58.24" x2="133.41" y2="59.4"/><line class="cls-3" x1="134.41" y1="58.24" x2="134.41" y2="59.4"/><line class="cls-3" x1="137.35" y1="57.13" x2="137.35" y2="57.69"/><line class="cls-3" x1="108.45" y1="38.46" x2="108.45" y2="38.89"/><line class="cls-3" x1="138.23" y1="61.25" x2="138.85" y2="60.88"/><line class="cls-3" x1="140.46" y1="58.2" x2="140.46" y2="58.63"/><line class="cls-3" x1="99" y1="40.71" x2="99" y2="41.14"/><path class="cls-3" d="M108.58,1.24a8.69,8.69,0,0,0-6-.69c-2.07.49-3.42,1.66-3.42,3" transform="translate(-0.1)"/><line class="cls-3" x1="108.45" y1="1.24" x2="107.83" y2="0.89"/><path class="cls-3" d="M108,.88a7.33,7.33,0,0,0-6.6,0" transform="translate(-0.1)"/><line class="cls-3" x1="138.83" y1="18.73" x2="138.21" y2="18.37"/><line class="cls-3" x1="138.21" y1="18.37" x2="107.83" y2="0.89"/><line class="cls-3" x1="108.45" y1="1.24" x2="138.83" y2="18.73"/><path class="cls-3" d="M138.33,18.38h0" transform="translate(-0.1)"/><path class="cls-3" d="M140.56,21a2.76,2.76,0,0,0-1.62-2.26" transform="translate(-0.1)"/><line class="cls-3" x1="108.45" y1="1.67" x2="108.45" y2="1.24"/><line class="cls-3" x1="108.45" y1="1.67" x2="138.83" y2="19.18"/><line class="cls-3" x1="138.83" y1="19.18" x2="138.83" y2="18.73"/><path class="cls-3" d="M108.58,1.67a8.75,8.75,0,0,0-6-.69c-2.07.49-3.42,1.66-3.42,3" transform="translate(-0.1)"/><path class="cls-3" d="M140.56,21.42a2.76,2.76,0,0,0-1.62-2.26" transform="translate(-0.1)"/><line class="cls-3" x1="101.23" y1="0.89" x2="100.62" y2="1.26"/><line class="cls-3" x1="138.23" y1="18.37" x2="138.85" y2="18.75"/><line class="cls-3" x1="99" y1="3.94" x2="99" y2="3.51"/><line class="cls-3" x1="140.46" y1="21.43" x2="140.46" y2="21"/><path class="cls-3" d="M108.58,1.67a8.75,8.75,0,0,0-6-.69c-2.07.49-3.42,1.66-3.42,3" transform="translate(-0.1)"/><path class="cls-3" d="M108.58,38.44a8.75,8.75,0,0,0-6-.69c-2.07.5-3.42,1.66-3.42,3" transform="translate(-0.1)"/><line class="cls-3" x1="108.45" y1="1.67" x2="108.45" y2="38.46"/><line class="cls-3" x1="108.45" y1="1.67" x2="138.83" y2="19.18"/><line class="cls-3" x1="138.83" y1="55.95" x2="108.45" y2="38.46"/><line class="cls-3" x1="138.83" y1="19.18" x2="138.83" y2="55.95"/><path class="cls-3" d="M140.56,21.42a2.76,2.76,0,0,0-1.62-2.26" transform="translate(-0.1)"/><path class="cls-3" d="M140.56,58.19a2.76,2.76,0,0,0-1.62-2.26" transform="translate(-0.1)"/><line class="cls-3" x1="99" y1="3.94" x2="99" y2="40.71"/><line class="cls-3" x1="140.46" y1="21.43" x2="140.46" y2="58.2"/><polyline class="cls-3" points="134.35 57.84 134.35 58.18 134.05 58.35"/><line class="cls-3" x1="134.35" y1="58.18" x2="134.03" y2="57.99"/><line class="cls-3" x1="122.94" y1="51.6" x2="122.66" y2="51.45"/><line class="cls-3" x1="115.03" y1="47.05" x2="114.97" y2="47.01"/><line class="cls-3" x1="110.42" y1="44.4" x2="110.25" y2="44.29"/><polyline class="cls-3" points="110.55 43.88 110 44.2 110 43.56"/><polyline class="cls-3" points="104.89 41.76 109.11 44.2 109.11 43.15"/><line class="cls-3" x1="104.7" y1="41.87" x2="108.94" y2="44.33"/><path class="cls-3" d="M109.05,44.3a1.42,1.42,0,0,0,1.24,0" transform="translate(-0.1)"/><line class="cls-3" x1="110.17" y1="44.33" x2="110.75" y2="43.99"/><line class="cls-3" x1="110.59" y1="43.9" x2="110.02" y2="44.24"/><path class="cls-3" d="M109.2,44.22a1,1,0,0,0,.94,0" transform="translate(-0.1)"/><line class="cls-3" x1="109.09" y1="44.24" x2="104.85" y2="41.78"/><path class="cls-3" d="M109.22,44.18a.94.94,0,0,0,.89,0" transform="translate(-0.1)"/><line class="cls-3" x1="108.94" y1="44.33" x2="108.92" y2="44.33"/><line class="cls-3" x1="110.17" y1="44.33" x2="110.19" y2="44.33"/><polyline class="cls-3" points="109.11 44.2 109.11 44.22 109.09 44.24"/><polyline class="cls-3" points="110 44.2 110 44.22 110.02 44.24"/><line class="cls-3" x1="106.48" y1="41.56" x2="109.61" y2="43.37"/><path class="cls-3" d="M109.73,43.37s0,0,0,0" transform="translate(-0.1)"/><path class="cls-3" d="M109.61,43.38s.07,0,.11,0" transform="translate(-0.1)"/><polyline class="cls-3" points="110.75 43.99 110.19 44.33 110.16 44.35 110.14 44.35 110.1 44.37 110.06 44.38 110.02 44.4 109.99 44.4 109.95 44.42 109.89 44.44 109.86 44.44 109.82 44.46 109.78 44.46 109.72 44.46 109.69 44.46 109.65 44.48 109.59 44.48 109.56 44.48 109.52 44.48 109.46 44.48 109.42 44.46 109.39 44.46 109.35 44.46 109.29 44.46 109.26 44.44 109.22 44.44 109.18 44.42 109.14 44.4 109.11 44.4 109.07 44.38 109.03 44.37 108.99 44.35 108.96 44.35 108.92 44.33 104.68 41.87"/><polyline class="cls-3" points="109.72 43.41 109.69 43.41 109.67 43.41 109.63 43.41 109.61 43.41 109.57 43.41 109.56 43.39 109.52 43.39 109.5 43.37 106.24 41.5"/><line class="cls-3" x1="122.67" y1="49.03" x2="122.67" y2="49.16"/><line class="cls-3" x1="122.04" y1="48.66" x2="122.04" y2="49.15"/><line class="cls-3" x1="117.35" y1="47.65" x2="117.35" y2="48.3"/><line class="cls-3" x1="120.61" y1="49.52" x2="120.61" y2="50.18"/><line class="cls-3" x1="121.29" y1="51.3" x2="115.29" y2="47.83"/><line class="cls-3" x1="119.54" y1="47.23" x2="119.54" y2="49.35"/><line class="cls-3" x1="119.86" y1="47.4" x2="119.86" y2="47.72"/><line class="cls-3" x1="119.86" y1="47.72" x2="119.54" y2="47.91"/><path class="cls-3" d="M115.21,47.57a.36.36,0,0,0,.2.26" transform="translate(-0.1)"/><line class="cls-3" x1="115.08" y1="47.57" x2="115.03" y2="46.99"/><line class="cls-3" x1="115.63" y1="46.63" x2="115.63" y2="47.68"/><line class="cls-3" x1="115.53" y1="46.69" x2="115.53" y2="47.55"/><path class="cls-3" d="M115.66,47.54a.16.16,0,0,0,.1.12" transform="translate(-0.1)"/><line class="cls-3" x1="115.46" y1="46.75" x2="115.46" y2="46.78"/><line class="cls-3" x1="115.53" y1="47.55" x2="115.46" y2="46.78"/><path class="cls-3" d="M115.56,46.76a0,0,0,0,0,0,0" transform="translate(-0.1)"/><path class="cls-3" d="M121.41,51.28a.92.92,0,0,0,.46.11" transform="translate(-0.1)"/><line class="cls-3" x1="122.94" y1="51.45" x2="121.76" y2="51.41"/><path class="cls-3" d="M123.34,51.5a1.54,1.54,0,0,0-.31,0" transform="translate(-0.1)"/><line class="cls-3" x1="123.46" y1="51.58" x2="123.24" y2="51.51"/><path class="cls-3" d="M123.59,51.57a1.1,1.1,0,0,0,.84-.07" transform="translate(-0.1)"/><line class="cls-3" x1="125.65" y1="50.74" x2="124.32" y2="51.51"/><line class="cls-3" x1="125.34" y1="50.57" x2="124.04" y2="51.3"/><path class="cls-3" d="M123.74,51.31a.55.55,0,0,0,.42,0" transform="translate(-0.1)"/><line class="cls-3" x1="123.63" y1="51.34" x2="123.29" y2="51.23"/><path class="cls-3" d="M123.41,51.23l-.15,0" transform="translate(-0.1)"/><line class="cls-3" x1="123.14" y1="51.21" x2="121.81" y2="51.15"/><path class="cls-3" d="M121.7,51.09a.4.4,0,0,0,.22.06" transform="translate(-0.1)"/><line class="cls-3" x1="121.59" y1="51.09" x2="115.63" y2="47.68"/><line class="cls-3" x1="124.04" y1="49.82" x2="124.04" y2="51.3"/><line class="cls-3" x1="123.63" y1="49.58" x2="123.63" y2="51.34"/><line class="cls-3" x1="123.29" y1="49.39" x2="123.29" y2="51.23"/><line class="cls-3" x1="123.14" y1="49.3" x2="123.14" y2="51.21"/><line class="cls-3" x1="121.81" y1="49.13" x2="122.92" y2="49.16"/><line class="cls-3" x1="121.81" y1="49.13" x2="121.81" y2="51.15"/><path class="cls-3" d="M121.7,49.05a.51.51,0,0,0,.22.06" transform="translate(-0.1)"/><line class="cls-3" x1="121.59" y1="49.07" x2="121.59" y2="51.09"/><line class="cls-3" x1="117.67" y1="48.26" x2="117.67" y2="47.08"/><line class="cls-3" x1="117.67" y1="46.75" x2="117.67" y2="46.15"/><path class="cls-3" d="M117.6,48.37c.1.06.19,0,.19-.12" transform="translate(-0.1)"/><line class="cls-3" x1="116.47" y1="47.8" x2="117.48" y2="48.38"/><path class="cls-3" d="M116.39,47.47a.44.44,0,0,0,.19.33" transform="translate(-0.1)"/><line class="cls-3" x1="116.28" y1="46.26" x2="116.28" y2="47.48"/><line class="cls-3" x1="121.12" y1="48.81" x2="121.59" y2="49.07"/><path class="cls-3" d="M121.23,48.78a.12.12,0,0,0-.16,0" transform="translate(-0.1)"/><line class="cls-3" x1="120.93" y1="50.14" x2="120.93" y2="48.96"/><path class="cls-3" d="M120.86,50.24a.12.12,0,0,0,.19-.11" transform="translate(-0.1)"/><line class="cls-3" x1="119.73" y1="49.67" x2="120.74" y2="50.25"/><path class="cls-3" d="M119.65,49.35a.44.44,0,0,0,.19.33" transform="translate(-0.1)"/><line class="cls-3" x1="120.61" y1="48.15" x2="119.86" y2="47.72"/><line class="cls-3" x1="120.61" y1="47.83" x2="120.61" y2="48.15"/><line class="cls-3" x1="117.35" y1="46.28" x2="116.94" y2="46.03"/><line class="cls-3" x1="117.35" y1="46.05" x2="117.35" y2="46.28"/><line class="cls-3" x1="117.67" y1="48.26" x2="117.48" y2="48.38"/><line class="cls-3" x1="120.93" y1="50.14" x2="120.74" y2="50.25"/><path class="cls-3" d="M120.1,49.47l.05,0" transform="translate(-0.1)"/><line class="cls-3" x1="119.86" y1="49.41" x2="119.99" y2="49.48"/><path class="cls-3" d="M119.86,48.82a.45.45,0,0,0,.13.58" transform="translate(-0.1)"/><line class="cls-3" x1="119.88" y1="48.58" x2="119.75" y2="48.85"/><line class="cls-3" x1="119.75" y1="48.85" x2="119.99" y2="48.92"/><line class="cls-3" x1="120.13" y1="48.66" x2="119.99" y2="48.92"/><line class="cls-3" x1="120.13" y1="48.66" x2="119.88" y2="48.58"/><line class="cls-3" x1="120.24" y1="49.58" x2="120.11" y2="49.5"/><path class="cls-3" d="M120.34,49.57a.39.39,0,0,0,.52-.21" transform="translate(-0.1)"/><line class="cls-3" x1="120.88" y1="49.09" x2="120.74" y2="49.35"/><line class="cls-3" x1="120.88" y1="49.09" x2="120.13" y2="48.66"/><path class="cls-3" d="M120.11,48.92a.43.43,0,0,0,.12.57" transform="translate(-0.1)"/><path class="cls-3" d="M120,48.57s0-.07,0-.09" transform="translate(-0.1)"/><path class="cls-3" d="M120.23,48.66c.12-.23.11-.47,0-.56" transform="translate(-0.1)"/><line class="cls-3" x1="120.11" y1="48.11" x2="119.88" y2="48.49"/><path class="cls-3" d="M121,49.09c.12-.23.11-.47,0-.56" transform="translate(-0.1)"/><line class="cls-3" x1="120.86" y1="48.55" x2="120.11" y2="48.11"/><line class="cls-3" x1="119.75" y1="48.4" x2="119.88" y2="48.49"/><line class="cls-3" x1="119.98" y1="48.02" x2="120.11" y2="48.11"/><line class="cls-3" x1="119.98" y1="48.02" x2="119.75" y2="48.4"/><line class="cls-3" x1="120.73" y1="48.45" x2="120.86" y2="48.55"/><line class="cls-3" x1="120.73" y1="48.45" x2="119.98" y2="48.02"/><path class="cls-3" d="M119.66,47.9a.59.59,0,0,0,.19.49" transform="translate(-0.1)"/><path class="cls-3" d="M120,47.72a.36.36,0,0,0,.12.29" transform="translate(-0.1)"/><path class="cls-3" d="M120.72,48.15a.36.36,0,0,0,.12.29" transform="translate(-0.1)"/><line class="cls-3" x1="119.99" y1="49.48" x2="120.24" y2="49.58"/><line class="cls-3" x1="120.11" y1="49.5" x2="119.86" y2="49.41"/><line class="cls-3" x1="116.6" y1="47.53" x2="116.73" y2="47.61"/><path class="cls-3" d="M116.6,47a.43.43,0,0,0,.13.57" transform="translate(-0.1)"/><line class="cls-3" x1="116.62" y1="46.71" x2="116.49" y2="46.97"/><path class="cls-3" d="M116.84,47.6l0,0" transform="translate(-0.1)"/><line class="cls-3" x1="116.49" y1="46.97" x2="116.73" y2="47.05"/><line class="cls-3" x1="116.86" y1="46.78" x2="116.73" y2="47.05"/><line class="cls-3" x1="116.86" y1="46.78" x2="116.62" y2="46.71"/><path class="cls-3" d="M116.85,47a.44.44,0,0,0,.12.58" transform="translate(-0.1)"/><line class="cls-3" x1="116.98" y1="47.7" x2="116.85" y2="47.63"/><path class="cls-3" d="M117.08,47.69a.38.38,0,0,0,.52-.21" transform="translate(-0.1)"/><line class="cls-3" x1="117.61" y1="47.22" x2="117.48" y2="47.48"/><line class="cls-3" x1="117.61" y1="47.22" x2="116.86" y2="46.78"/><path class="cls-3" d="M116.72,46.7s0-.08,0-.09" transform="translate(-0.1)"/><path class="cls-3" d="M117,46.79c.12-.24.11-.47,0-.56" transform="translate(-0.1)"/><line class="cls-3" x1="116.85" y1="46.24" x2="116.62" y2="46.62"/><path class="cls-3" d="M117.72,47.22c.12-.24.11-.47,0-.56" transform="translate(-0.1)"/><line class="cls-3" x1="117.6" y1="46.67" x2="116.85" y2="46.24"/><line class="cls-3" x1="116.49" y1="46.5" x2="116.62" y2="46.62"/><line class="cls-3" x1="116.71" y1="46.13" x2="116.85" y2="46.24"/><line class="cls-3" x1="116.71" y1="46.13" x2="116.49" y2="46.5"/><line class="cls-3" x1="117.46" y1="46.58" x2="117.6" y2="46.67"/><line class="cls-3" x1="117.46" y1="46.58" x2="116.71" y2="46.13"/><path class="cls-3" d="M116.42,46.23a.47.47,0,0,0,.17.27" transform="translate(-0.1)"/><path class="cls-3" d="M116.78,46.07l0,0" transform="translate(-0.1)"/><path class="cls-3" d="M117.46,46.28a.37.37,0,0,0,.12.29" transform="translate(-0.1)"/><line class="cls-3" x1="116.85" y1="47.63" x2="116.6" y2="47.53"/><line class="cls-3" x1="116.73" y1="47.61" x2="116.98" y2="47.7"/><line class="cls-3" x1="120.99" y1="48.79" x2="120.95" y2="48.81"/><line class="cls-3" x1="120.03" y1="49.5" x2="120.28" y2="49.6"/><line class="cls-3" x1="116.79" y1="47.63" x2="117.03" y2="47.72"/><line class="cls-3" x1="126.7" y1="53.94" x2="133.6" y2="57.92"/><line class="cls-3" x1="132.64" y1="56.29" x2="132.68" y2="55.37"/><line class="cls-3" x1="128.93" y1="53.21" x2="128.9" y2="54.13"/><line class="cls-3" x1="126.89" y1="53.85" x2="133.79" y2="57.82"/><line class="cls-3" x1="133.79" y1="57.82" x2="133.79" y2="55.5"/><line class="cls-3" x1="132.89" y1="54.97" x2="132.83" y2="56.27"/><path class="cls-3" d="M132.81,56.31c.07,0,.13,0,.13-.07" transform="translate(-0.1)"/><line class="cls-3" x1="132.7" y1="56.32" x2="131.05" y2="55.37"/><path class="cls-3" d="M131,55.14a.25.25,0,0,0,.13.21" transform="translate(-0.1)"/><line class="cls-3" x1="130.92" y1="55.16" x2="130.86" y2="53.81"/><line class="cls-3" x1="129.07" y1="54.09" x2="129.14" y2="52.82"/><path class="cls-3" d="M129.07,54.15a.07.07,0,0,0,.12-.06" transform="translate(-0.1)"/><line class="cls-3" x1="127.64" y1="53.42" x2="128.95" y2="54.17"/><line class="cls-3" x1="134.03" y1="55.63" x2="134.03" y2="57.82"/><line class="cls-3" x1="134.03" y1="57.82" x2="136.3" y2="56.51"/><line class="cls-3" x1="134.22" y1="57.92" x2="136.49" y2="56.62"/><line class="cls-3" x1="132.83" y1="56.27" x2="132.72" y2="56.32"/><line class="cls-3" x1="131.16" y1="54.66" x2="131.35" y2="54.09"/><path class="cls-3" d="M131.27,54.64a.3.3,0,0,0,.1.35" transform="translate(-0.1)"/><line class="cls-3" x1="132.36" y1="55.61" x2="131.26" y2="54.99"/><path class="cls-3" d="M132.47,55.61a.21.21,0,0,0,.29-.13" transform="translate(-0.1)"/><line class="cls-3" x1="132.87" y1="54.96" x2="132.64" y2="55.5"/><path class="cls-3" d="M132.36,55.61l.08,0" transform="translate(-0.1)"/><line class="cls-3" x1="132.25" y1="55.61" x2="131.15" y2="54.97"/><path class="cls-3" d="M131.16,54.62a.28.28,0,0,0,.1.35" transform="translate(-0.1)"/><line class="cls-3" x1="131.26" y1="54.04" x2="131.05" y2="54.64"/><line class="cls-3" x1="131.15" y1="54.97" x2="131.26" y2="54.99"/><line class="cls-3" x1="132.36" y1="55.61" x2="132.25" y2="55.61"/><line class="cls-3" x1="131.16" y1="54.66" x2="131.05" y2="54.64"/><path class="cls-3" d="M133.91,57.81a.28.28,0,0,0,.25,0" transform="translate(-0.1)"/><path class="cls-3" d="M133.72,57.92a.68.68,0,0,0,.62,0" transform="translate(-0.1)"/><line class="cls-3" x1="128.95" y1="54.17" x2="129.07" y2="54.09"/><line class="cls-3" x1="128.88" y1="53.33" x2="129.1" y2="52.8"/><line class="cls-3" x1="128.09" y1="53.16" x2="128.6" y2="53.46"/><path class="cls-3" d="M128.71,53.45a.2.2,0,0,0,.28-.12" transform="translate(-0.1)"/><path class="cls-3" d="M128.59,53.45l.08,0" transform="translate(-0.1)"/><line class="cls-3" x1="128.03" y1="53.19" x2="128.48" y2="53.44"/><line class="cls-3" x1="128.48" y1="53.44" x2="128.6" y2="53.46"/><line class="cls-3" x1="132.44" y1="55.65" x2="132.33" y2="55.63"/><line class="cls-3" x1="128.56" y1="53.47" x2="128.67" y2="53.47"/><polyline class="cls-3" points="135.23 55.89 134.86 56.12 128.91 52.69"/><path class="cls-4" d="M33.28,74.88a.9.9,0,0,1,.9.9V89.25H12.63V75.78a.9.9,0,0,1,.9-.9ZM13.53,73.09a2.69,2.69,0,0,0-2.7,2.69V91H36V75.78a2.68,2.68,0,0,0-2.69-2.69ZM9,91.94H37.77a2.69,2.69,0,0,1-2.7,2.69H11.73A2.68,2.68,0,0,1,9,91.94" transform="translate(-0.1)"/><g class="cls-5"><path class="cls-6" d="M24.23,85.92H22.4v-7.1H20.06V77.3h6.51v1.52H24.23Z" transform="translate(-0.1)"/></g><path class="cls-6" d="M2.68,104H1.82V99H.1v-.74H4.39V99H2.68Z" transform="translate(-0.1)"/><path class="cls-6" d="M5.66,99.56a1.83,1.83,0,0,1,1.22.35,1.42,1.42,0,0,1,.4,1.12V104h-.6l-.17-.6h0a2.27,2.27,0,0,1-.38.38,1.2,1.2,0,0,1-.45.23A2.18,2.18,0,0,1,5,104a1.67,1.67,0,0,1-.69-.14,1.08,1.08,0,0,1-.49-.43,1.49,1.49,0,0,1-.17-.73,1.12,1.12,0,0,1,.5-1,2.84,2.84,0,0,1,1.52-.38l.74,0v-.24a.87.87,0,0,0-.22-.68.91.91,0,0,0-.61-.19,2,2,0,0,0-.64.1,3.57,3.57,0,0,0-.57.23l-.27-.62a3.54,3.54,0,0,1,.7-.26A2.8,2.8,0,0,1,5.66,99.56Zm.2,2.33a2,2,0,0,0-1,.25.69.69,0,0,0-.28.59.58.58,0,0,0,.2.49.86.86,0,0,0,.52.15,1.21,1.21,0,0,0,.83-.28,1,1,0,0,0,.33-.84v-.37Z" transform="translate(-0.1)"/><path class="cls-6" d="M10.18,99.56h.24l.23,0-.09.79-.21,0-.22,0a1.19,1.19,0,0,0-.46.1,1.31,1.31,0,0,0-.4.26,1.09,1.09,0,0,0-.27.42,1.45,1.45,0,0,0-.1.57V104H8.05V99.64h.67l.11.77h0a2,2,0,0,1,.33-.43,1.67,1.67,0,0,1,.44-.31A1.42,1.42,0,0,1,10.18,99.56Z" transform="translate(-0.1)"/><path class="cls-6" d="M12.32,99.56a1.65,1.65,0,0,1,.75.16,1.41,1.41,0,0,1,.57.49h0l.1-.57h.68V104a2.26,2.26,0,0,1-.21,1,1.44,1.44,0,0,1-.66.63,2.63,2.63,0,0,1-1.12.21,5.57,5.57,0,0,1-.85-.06,3.41,3.41,0,0,1-.72-.2v-.75a2.8,2.8,0,0,0,.74.25,4.17,4.17,0,0,0,.88.09,1.1,1.1,0,0,0,.82-.3,1.18,1.18,0,0,0,.28-.85v-.14c0-.07,0-.16,0-.28s0-.19,0-.25h0a1.34,1.34,0,0,1-.55.49,1.65,1.65,0,0,1-.75.16,1.55,1.55,0,0,1-1.28-.59,3.12,3.12,0,0,1,0-3.28A1.52,1.52,0,0,1,12.32,99.56Zm.18.7a.88.88,0,0,0-.57.18,1.08,1.08,0,0,0-.35.53,2.57,2.57,0,0,0-.12.84,2.1,2.1,0,0,0,.26,1.15.91.91,0,0,0,.79.39,1.58,1.58,0,0,0,.52-.08.81.81,0,0,0,.35-.25,1.15,1.15,0,0,0,.21-.43,2.72,2.72,0,0,0,.07-.62v-.16a2.77,2.77,0,0,0-.13-.9.91.91,0,0,0-.38-.49A1.18,1.18,0,0,0,12.5,100.26Z" transform="translate(-0.1)"/><path class="cls-6" d="M17,99.56a2,2,0,0,1,1,.23,1.66,1.66,0,0,1,.63.68,2.38,2.38,0,0,1,.22,1V102h-2.9a1.47,1.47,0,0,0,.35,1,1.23,1.23,0,0,0,.93.35,3.32,3.32,0,0,0,.74-.07,3.8,3.8,0,0,0,.67-.23v.7a3.32,3.32,0,0,1-.65.22,3.74,3.74,0,0,1-.79.07,2.33,2.33,0,0,1-1.11-.25,1.66,1.66,0,0,1-.74-.74,2.49,2.49,0,0,1-.27-1.21,2.81,2.81,0,0,1,.24-1.23,1.71,1.71,0,0,1,.68-.77A1.89,1.89,0,0,1,17,99.56Zm0,.65a.94.94,0,0,0-.73.3,1.39,1.39,0,0,0-.32.84h2a1.55,1.55,0,0,0-.11-.59.8.8,0,0,0-.32-.4A.92.92,0,0,0,17,100.21Z" transform="translate(-0.1)"/><path class="cls-6" d="M20.85,103.34l.34,0,.31-.07v.64a1.85,1.85,0,0,1-.37.11,2.49,2.49,0,0,1-.47,0,1.66,1.66,0,0,1-.64-.12,1,1,0,0,1-.47-.42,1.57,1.57,0,0,1-.17-.82v-2.38h-.6V99.9l.63-.32.29-.91h.52v1h1.24v.65H20.22v2.36a.67.67,0,0,0,.18.52A.57.57,0,0,0,20.85,103.34Z" transform="translate(-0.1)"/><path class="cls-6" d="M28.25,101a3.3,3.3,0,0,1-.36,1.61,2.33,2.33,0,0,1-1,1,3.67,3.67,0,0,1-1.63.33h-1.6V98.24h1.77a3.23,3.23,0,0,1,1.51.32,2.27,2.27,0,0,1,1,.94A3.1,3.1,0,0,1,28.25,101Zm-.91,0a2.56,2.56,0,0,0-.23-1.18,1.47,1.47,0,0,0-.68-.69A2.44,2.44,0,0,0,25.34,99h-.85v4.25h.69a1.91,1.91,0,0,0,2.16-2.16Z" transform="translate(-0.1)"/><path class="cls-6" d="M30.87,99.56a2,2,0,0,1,1,.23,1.66,1.66,0,0,1,.63.68,2.38,2.38,0,0,1,.22,1V102H29.8a1.47,1.47,0,0,0,.35,1,1.23,1.23,0,0,0,.93.35,3.32,3.32,0,0,0,.74-.07,3.8,3.8,0,0,0,.67-.23v.7a3.32,3.32,0,0,1-.65.22,3.74,3.74,0,0,1-.79.07,2.33,2.33,0,0,1-1.11-.25,1.66,1.66,0,0,1-.74-.74,2.49,2.49,0,0,1-.27-1.21,2.81,2.81,0,0,1,.24-1.23,1.71,1.71,0,0,1,.68-.77A1.89,1.89,0,0,1,30.87,99.56Zm0,.65a.94.94,0,0,0-.73.3,1.39,1.39,0,0,0-.32.84h2a1.55,1.55,0,0,0-.11-.59.8.8,0,0,0-.32-.4A.92.92,0,0,0,30.87,100.21Z" transform="translate(-0.1)"/><path class="cls-6" d="M34.34,104l-1.63-4.31h.9l.89,2.52a3.78,3.78,0,0,1,.12.36c0,.13.08.26.11.38a2.85,2.85,0,0,1,.06.32h0a3,3,0,0,1,.08-.32,2.91,2.91,0,0,1,.12-.39l.11-.35L36,99.64h.9L35.28,104Z" transform="translate(-0.1)"/><path class="cls-6" d="M37.8,98a.58.58,0,0,1,.34.11.46.46,0,0,1,.14.38.47.47,0,0,1-.14.37.51.51,0,0,1-.34.11.51.51,0,0,1-.35-.11.47.47,0,0,1-.14-.37.46.46,0,0,1,.14-.38A.56.56,0,0,1,37.8,98Zm.42,1.64V104h-.85V99.64Z" transform="translate(-0.1)"/><path class="cls-6" d="M41.06,104a2.31,2.31,0,0,1-1-.23,1.58,1.58,0,0,1-.69-.73,3.23,3.23,0,0,1,0-2.54,1.74,1.74,0,0,1,.73-.74,2.32,2.32,0,0,1,1.05-.23,2.87,2.87,0,0,1,.67.07,2.51,2.51,0,0,1,.53.18l-.26.68c-.15,0-.31-.11-.47-.15a2.1,2.1,0,0,0-.48-.06,1.2,1.2,0,0,0-.66.17,1,1,0,0,0-.38.51,2.34,2.34,0,0,0-.13.85,2.26,2.26,0,0,0,.13.83,1.11,1.11,0,0,0,.38.51,1.14,1.14,0,0,0,.63.17,2.35,2.35,0,0,0,.63-.08,2.87,2.87,0,0,0,.51-.21v.74a2,2,0,0,1-.5.2A3.2,3.2,0,0,1,41.06,104Z" transform="translate(-0.1)"/><path class="cls-6" d="M44.73,99.56a2,2,0,0,1,1,.23,1.59,1.59,0,0,1,.63.68,2.25,2.25,0,0,1,.22,1V102H43.66a1.47,1.47,0,0,0,.34,1,1.25,1.25,0,0,0,.94.35,3.38,3.38,0,0,0,.74-.07,4,4,0,0,0,.66-.23v.7a3.11,3.11,0,0,1-.65.22,3.62,3.62,0,0,1-.79.07,2.32,2.32,0,0,1-1.1-.25,1.73,1.73,0,0,1-.75-.74,2.49,2.49,0,0,1-.27-1.21A2.67,2.67,0,0,1,43,100.6a1.71,1.71,0,0,1,.68-.77A1.89,1.89,0,0,1,44.73,99.56Zm0,.65a.93.93,0,0,0-.73.3,1.34,1.34,0,0,0-.33.84h2a1.55,1.55,0,0,0-.1-.59.85.85,0,0,0-.32-.4A.94.94,0,0,0,44.73,100.21Z" transform="translate(-0.1)"/><path id="路径_1-3" data-name="路径 1" class="cls-7" d="M107.72,56.33h-.42V53.44a1.24,1.24,0,0,0-1.23-1.24h-4.13a1.25,1.25,0,0,0-1.24,1.24v2.89h-.41a.83.83,0,0,0-.83.83v9.9a.83.83,0,0,0,.83.82h1.65v1.65a.83.83,0,0,0,.82.83h2.48a.83.83,0,0,0,.83-.83V67.88h1.65a.82.82,0,0,0,.82-.82v-9.9A.83.83,0,0,0,107.72,56.33Zm-5,13.2V67.88h2.48v1.65Zm3.72-13.2h-5V53.44a.41.41,0,0,1,.41-.41h4.13a.41.41,0,0,1,.41.41v2.89Z" transform="translate(-0.1)"/><g class="cls-8"><rect class="cls-9" x="44.51" y="48.35" width="59.35" height="34.07" rx="11.41"/></g><path class="cls-6" d="M63.69,77.26h-7a.47.47,0,0,0-.46.47V87a.47.47,0,0,0,.46.47h7a.93.93,0,0,0,.93.93H73a.93.93,0,0,0,.93-.93V84.71h1.86a.93.93,0,0,0,.93-.93V81a.93.93,0,0,0-.93-.93H73.93V77.26a.93.93,0,0,0-.93-.93H64.62A.93.93,0,0,0,63.69,77.26Zm-2.33,5.59a.45.45,0,0,1,.46.46v1.86a.46.46,0,0,1-.46.47H59.5a.47.47,0,0,1-.47-.47V83.31a.46.46,0,0,1,.47-.46Zm0-3.73a.46.46,0,0,1,.46.47v1.86a.45.45,0,0,1-.46.46H59.5a.46.46,0,0,1-.47-.46V79.59a.47.47,0,0,1,.47-.47Z" transform="translate(-0.1)"/><g class="cls-10"><rect class="cls-9" x="57.44" y="64.23" width="59.35" height="34.07" rx="15.88"/></g></g></g></svg>