<svg xmlns="http://www.w3.org/2000/svg" xmlns:xlink="http://www.w3.org/1999/xlink" width="800" height="800" viewBox="0 0 800 800" fill="none">
<path d="M323 266L323 658.223L597.641 658.223L597.641 775.889L715.345 658.223L793.814 658.223L793.814 266L323 266ZM754.579 619L699.102 619L636.876 681.207L636.876 619L362.234 619L362.234 305.222L754.579 305.222L754.579 619Z"   fill="#000000" >
</path>
<path d="M223.144 284.371C191.699 284.371 167.899 271.682 167.899 271.682C144.098 258.992 131.549 235.777 131.549 235.777C119 212.562 119 181.127 119 181.127C119 150.27 131.838 126.045 131.838 126.045C144.675 101.82 168.476 88.4101 168.476 88.4101C192.276 75 223.144 75 223.144 75C252.57 75 276.659 88.2659 276.659 88.2659C300.748 101.532 313.874 125.757 313.874 125.757C327 149.981 327 181.127 327 181.127C327 214.869 312.72 238.661 312.72 238.661C298.44 262.453 272.476 273.989 272.476 273.989C279.399 287.543 287.189 306 287.189 306L244.492 306C238.146 292.157 233.818 283.794 233.818 283.794C227.183 284.371 223.144 284.371 223.144 284.371ZM164.581 181.127C164.581 201.315 171.938 216.455 171.938 216.455C179.294 231.595 192.276 240.103 192.276 240.103C205.258 248.61 223.144 248.61 223.144 248.61C240.742 248.61 253.58 240.103 253.58 240.103C266.417 231.595 273.774 216.455 273.774 216.455C281.13 201.315 281.13 181.127 281.13 181.127C281.13 162.67 274.062 146.665 274.062 146.665C266.994 130.659 253.868 120.277 253.868 120.277C240.742 109.895 222.567 109.895 222.567 109.895C205.546 109.895 192.564 119.845 192.564 119.845C179.583 129.794 172.082 145.8 172.082 145.8C164.581 161.805 164.581 181.127 164.581 181.127Z"   fill="#000000" >
</path>
<path d="M596.037 524.737L521.187 524.737L503.477 590.896L445 590.896L512.833 357L604.724 357L672.557 590.896L613.747 590.896L596.037 524.737ZM585.344 484.641L558.946 386.738L558.277 386.738L531.879 484.641L585.344 484.641Z"   fill="#000000" >
</path>
<path d="M306 367.614L187.5 367.614L187.5 473.999L80.9999 367.614L9.99994 367.614L9.99994 13L436 13L436 251L400.5 251L400.5 48.4614L45.4999 48.4614L45.4999 332.153L95.6968 332.153L152 388.395L152 332.153L306 332.153L306 367.614Z" fill-rule="evenodd"  fill="#000000" >
</path>
</svg>
