<svg xmlns="http://www.w3.org/2000/svg" viewBox="0 0 383.51 79.38"><defs><style>.cls-1{fill:#fff;}.cls-2,.cls-3,.cls-4{fill:none;}.cls-2,.cls-3{stroke:#fff;stroke-miterlimit:10;}.cls-2{stroke-width:1.5px;}</style></defs><g id="Layer_2" data-name="Layer 2"><g id="Layer_1-2" data-name="Layer 1"><path class="cls-1" d="M26.64,52.07a3.54,3.54,0,0,1,.21-1.26,2.45,2.45,0,0,1,.58-.9,2.23,2.23,0,0,1,.84-.55,3,3,0,0,1,1-.19,2.79,2.79,0,0,1,1,.19,2.23,2.23,0,0,1,.84.55,2.57,2.57,0,0,1,.57.9,3.54,3.54,0,0,1,.21,1.26,3.5,3.5,0,0,1-.21,1.26,2.57,2.57,0,0,1-.57.9,2.23,2.23,0,0,1-.84.55,2.79,2.79,0,0,1-1,.19,3,3,0,0,1-1-.19,2.23,2.23,0,0,1-.84-.55,2.45,2.45,0,0,1-.58-.9A3.5,3.5,0,0,1,26.64,52.07Zm.81,0a3.3,3.3,0,0,0,.13.92,2.23,2.23,0,0,0,.37.7,1.54,1.54,0,0,0,.57.44,1.91,1.91,0,0,0,1.53,0,1.62,1.62,0,0,0,.57-.44A2,2,0,0,0,31,53a3.32,3.32,0,0,0,0-1.84,2,2,0,0,0-.36-.7,1.62,1.62,0,0,0-.57-.44,1.91,1.91,0,0,0-1.53,0,1.54,1.54,0,0,0-.57.44,2.23,2.23,0,0,0-.37.7A3.3,3.3,0,0,0,27.45,52.07Z"/><path class="cls-1" d="M36.35,54.73l-.68.13a5.58,5.58,0,0,1-1,.07,2,2,0,0,1-.81-.14,1.28,1.28,0,0,1-.52-.39,1.5,1.5,0,0,1-.29-.61A3,3,0,0,1,33,53V50.69h.74v2.17A1.89,1.89,0,0,0,34,54a.93.93,0,0,0,.81.33H35l.24,0,.2,0,.14,0V50.69h.74Z"/><path class="cls-1" d="M38.33,50.69H39.9v.62H38.33v1.92a2.55,2.55,0,0,0,0,.52.87.87,0,0,0,.15.32.51.51,0,0,0,.24.16,1.09,1.09,0,0,0,.33.05,1.54,1.54,0,0,0,.54-.08,2.31,2.31,0,0,0,.29-.11l.14.62a2.52,2.52,0,0,1-.39.14,2.12,2.12,0,0,1-.64.08,2,2,0,0,1-.7-.1,1,1,0,0,1-.44-.33,1.23,1.23,0,0,1-.24-.53,3.17,3.17,0,0,1-.07-.73V49.53l.75-.13Z"/><path class="cls-1" d="M44.51,52.77a3.07,3.07,0,0,1-.12.88,2.12,2.12,0,0,1-.37.68,1.46,1.46,0,0,1-.59.45,1.8,1.8,0,0,1-.79.16,2.11,2.11,0,0,1-.64-.09,2.32,2.32,0,0,1-.41-.19v1.67h-.74V50.81l.66-.14a5,5,0,0,1,.91-.07,2.41,2.41,0,0,1,.87.15,1.94,1.94,0,0,1,.65.43,2,2,0,0,1,.42.69A2.57,2.57,0,0,1,44.51,52.77Zm-.78,0a1.62,1.62,0,0,0-.36-1.12,1.24,1.24,0,0,0-1-.39,3.54,3.54,0,0,0-.52,0,1.54,1.54,0,0,0-.3.05V54a1.71,1.71,0,0,0,.39.21,1.47,1.47,0,0,0,.56.11,1.18,1.18,0,0,0,.55-.12,1,1,0,0,0,.37-.32,1.3,1.3,0,0,0,.21-.48A2.77,2.77,0,0,0,43.73,52.77Z"/><path class="cls-1" d="M48.87,54.73l-.68.13a5.58,5.58,0,0,1-1,.07,2,2,0,0,1-.81-.14,1.28,1.28,0,0,1-.52-.39,1.5,1.5,0,0,1-.29-.61,3,3,0,0,1-.09-.77V50.69h.74v2.17A1.89,1.89,0,0,0,46.49,54a.93.93,0,0,0,.81.33h.25l.24,0,.2,0,.14,0V50.69h.74Z"/><path class="cls-1" d="M50.85,50.69h1.57v.62H50.85v1.92a2.55,2.55,0,0,0,0,.52.87.87,0,0,0,.15.32.51.51,0,0,0,.24.16,1.09,1.09,0,0,0,.33.05,1.54,1.54,0,0,0,.54-.08l.29-.11.14.62a2.52,2.52,0,0,1-.39.14,2.12,2.12,0,0,1-.64.08,2,2,0,0,1-.7-.1,1,1,0,0,1-.44-.33,1.13,1.13,0,0,1-.24-.53,3.17,3.17,0,0,1-.07-.73V49.53l.75-.13Z"/><path class="cls-1" d="M55.14,56.33h-.76l2.71-7.75h.75Z"/><path class="cls-1" d="M63.88,54.85c-.09-.24-.17-.48-.25-.71s-.16-.47-.25-.71H60.87l-.5,1.42h-.81c.21-.59.41-1.13.6-1.63s.37-1,.54-1.42.36-.88.54-1.29.36-.81.55-1.21h.71c.19.4.38.81.55,1.21s.36.84.53,1.29.37.92.55,1.42.39,1,.6,1.63Zm-.72-2.06q-.25-.69-.51-1.35c-.17-.43-.34-.85-.53-1.25-.18.4-.36.82-.53,1.25s-.33.89-.5,1.35Z"/><path class="cls-1" d="M68.63,54.73l-.68.13a5.58,5.58,0,0,1-1,.07,2,2,0,0,1-.81-.14,1.31,1.31,0,0,1-.53-.39,1.49,1.49,0,0,1-.28-.61,3,3,0,0,1-.09-.77V50.69H66v2.17A1.89,1.89,0,0,0,66.25,54a.93.93,0,0,0,.81.33h.25l.24,0,.2,0,.13,0V50.69h.75Z"/><path class="cls-1" d="M70.88,54.31a1.43,1.43,0,0,0,.67-.12.4.4,0,0,0,.22-.38.52.52,0,0,0-.21-.44,4.7,4.7,0,0,0-.72-.36l-.46-.19a2,2,0,0,1-.38-.24,1,1,0,0,1-.25-.33.94.94,0,0,1-.1-.47,1,1,0,0,1,.41-.87,1.71,1.71,0,0,1,1.11-.33l.35,0,.33,0,.27.06.18.06-.14.64a1.6,1.6,0,0,0-.37-.14,2.77,2.77,0,0,0-.62-.06,1.13,1.13,0,0,0-.54.12.4.4,0,0,0-.23.39.47.47,0,0,0,0,.24.56.56,0,0,0,.16.19,1.63,1.63,0,0,0,.27.15,3,3,0,0,0,.38.15l.53.22a1.65,1.65,0,0,1,.39.26,1,1,0,0,1,.26.34,1.28,1.28,0,0,1,.08.5,1,1,0,0,1-.42.88,2.22,2.22,0,0,1-1.22.29,3.31,3.31,0,0,1-.87-.09l-.42-.14.13-.64.41.14A2.23,2.23,0,0,0,70.88,54.31Z"/><path class="cls-1" d="M76.08,54.43a1.55,1.55,0,0,1-.37.16,1.79,1.79,0,0,1-.64.1,2.08,2.08,0,0,1-.71-.12,1.55,1.55,0,0,1-.58-.37,2,2,0,0,1-.39-.63,2.38,2.38,0,0,1-.14-.89,2.51,2.51,0,0,1,.13-.84,1.73,1.73,0,0,1,.4-.65,1.79,1.79,0,0,1,.63-.44,2.3,2.3,0,0,1,.85-.15,4.88,4.88,0,0,1,.91.07l.65.14v3.72a1.75,1.75,0,0,1-.49,1.39,2.27,2.27,0,0,1-1.51.43,4.35,4.35,0,0,1-.74-.06,5.1,5.1,0,0,1-.6-.16l.13-.64a4.24,4.24,0,0,0,.55.15,3,3,0,0,0,.68.07,1.42,1.42,0,0,0,1-.26,1.07,1.07,0,0,0,.29-.84Zm0-3.09-.3-.06a3.49,3.49,0,0,0-.51,0,1.16,1.16,0,0,0-.93.4,1.6,1.6,0,0,0-.32,1,1.82,1.82,0,0,0,.09.61,1.39,1.39,0,0,0,.25.43.88.88,0,0,0,.36.24,1,1,0,0,0,.42.08,1.53,1.53,0,0,0,.54-.08,1.35,1.35,0,0,0,.4-.2Z"/><path class="cls-1" d="M79.45,50.58a2.07,2.07,0,0,1,.75.12,1.29,1.29,0,0,1,.5.33,1.26,1.26,0,0,1,.26.5,2.2,2.2,0,0,1,.08.64v2.6l-.26,0-.39,0-.47,0a4.18,4.18,0,0,1-.5,0,2.7,2.7,0,0,1-.65-.07,1.48,1.48,0,0,1-.51-.23,1.06,1.06,0,0,1-.34-.41,1.41,1.41,0,0,1-.12-.61A1.16,1.16,0,0,1,78,53a1.11,1.11,0,0,1,.38-.4,1.81,1.81,0,0,1,.55-.22,3,3,0,0,1,.68-.07h.23l.23,0,.18,0,.12,0v-.21a2.2,2.2,0,0,0,0-.36.86.86,0,0,0-.15-.32.69.69,0,0,0-.28-.22,1.06,1.06,0,0,0-.47-.09,4,4,0,0,0-.64.05,3.59,3.59,0,0,0-.41.11l-.09-.61a1.72,1.72,0,0,1,.48-.13A4.07,4.07,0,0,1,79.45,50.58Zm.06,3.73H80a1.53,1.53,0,0,0,.34,0V53L80.06,53a2.76,2.76,0,0,0-.44,0l-.36,0a1.33,1.33,0,0,0-.34.1.75.75,0,0,0-.26.21.54.54,0,0,0-.1.35.59.59,0,0,0,.25.55A1.3,1.3,0,0,0,79.51,54.31Z"/><path class="cls-1" d="M82.28,50.81a6.54,6.54,0,0,1,.68-.14,5.58,5.58,0,0,1,1-.07,2.21,2.21,0,0,1,.83.14,1.21,1.21,0,0,1,.52.39,1.66,1.66,0,0,1,.28.6,3.81,3.81,0,0,1,.08.78v2.34h-.75V52.67a4.13,4.13,0,0,0,0-.66,1.1,1.1,0,0,0-.17-.44.7.7,0,0,0-.32-.24,1.41,1.41,0,0,0-.5-.08H83.6l-.24,0-.21,0-.13,0v3.52h-.74Z"/><path class="cls-1" d="M89.48,54.43a1.93,1.93,0,0,1-.38.16,1.76,1.76,0,0,1-.64.1,2.08,2.08,0,0,1-.71-.12,1.55,1.55,0,0,1-.58-.37,2,2,0,0,1-.39-.63,2.38,2.38,0,0,1-.14-.89,2.51,2.51,0,0,1,.13-.84,1.87,1.87,0,0,1,.4-.65,1.79,1.79,0,0,1,.63-.44,2.3,2.3,0,0,1,.85-.15,4.88,4.88,0,0,1,.91.07l.65.14v3.72a1.75,1.75,0,0,1-.49,1.39,2.25,2.25,0,0,1-1.51.43,4.35,4.35,0,0,1-.74-.06,5.1,5.1,0,0,1-.6-.16l.13-.64a4.24,4.24,0,0,0,.55.15,3,3,0,0,0,.68.07,1.42,1.42,0,0,0,1-.26,1.08,1.08,0,0,0,.3-.84Zm0-3.09-.3-.06a3.49,3.49,0,0,0-.51,0,1.12,1.12,0,0,0-.92.4,1.54,1.54,0,0,0-.33,1,1.82,1.82,0,0,0,.09.61,1.62,1.62,0,0,0,.25.43,1,1,0,0,0,.36.24,1,1,0,0,0,.42.08,1.63,1.63,0,0,0,.55-.08,1.42,1.42,0,0,0,.39-.2Z"/><path class="cls-1" d="M93.27,56.33h-.76l2.71-7.75H96Z"/><path class="cls-1" d="M28.15,63.58c.81,0,1.22-.28,1.22-.84a.83.83,0,0,0-.11-.43A1,1,0,0,0,29,62a2.13,2.13,0,0,0-.42-.23l-.5-.19a4.39,4.39,0,0,1-.58-.24A2,2,0,0,1,27,61a1.38,1.38,0,0,1-.32-.43,1.57,1.57,0,0,1-.11-.6,1.4,1.4,0,0,1,.49-1.14,2.11,2.11,0,0,1,1.37-.4,3.76,3.76,0,0,1,.92.1,2.23,2.23,0,0,1,.6.24l-.25.63a1.9,1.9,0,0,0-.5-.2,2.57,2.57,0,0,0-.77-.1,1.42,1.42,0,0,0-.42,0,1.1,1.1,0,0,0-.33.14.66.66,0,0,0-.23.24.67.67,0,0,0-.08.35.86.86,0,0,0,.08.38,1.06,1.06,0,0,0,.25.27,3.24,3.24,0,0,0,.38.21c.14.06.29.13.46.19s.46.19.66.29a2,2,0,0,1,.52.34,1.36,1.36,0,0,1,.34.48,1.64,1.64,0,0,1,.12.67,1.31,1.31,0,0,1-.53,1.12,2.48,2.48,0,0,1-1.5.39,3.64,3.64,0,0,1-.6,0,4.9,4.9,0,0,1-.5-.1,2.64,2.64,0,0,1-.37-.13l-.24-.11.23-.64a5.5,5.5,0,0,0,.56.23A3,3,0,0,0,28.15,63.58Z"/><path class="cls-1" d="M34.74,62.05a2.72,2.72,0,0,1-.14.89,2,2,0,0,1-.41.69,1.87,1.87,0,0,1-.62.45,2.1,2.1,0,0,1-1.56,0,1.87,1.87,0,0,1-.62-.45,2,2,0,0,1-.41-.69,2.72,2.72,0,0,1-.14-.89,2.77,2.77,0,0,1,.14-.89,2.12,2.12,0,0,1,.41-.7A1.71,1.71,0,0,1,32,60a2,2,0,0,1,1.56,0,1.71,1.71,0,0,1,.62.44,2.12,2.12,0,0,1,.41.7A2.77,2.77,0,0,1,34.74,62.05Zm-.77,0a1.82,1.82,0,0,0-.32-1.12,1.11,1.11,0,0,0-1.72,0,1.82,1.82,0,0,0-.32,1.12,1.77,1.77,0,0,0,.32,1.11,1.09,1.09,0,0,0,1.72,0A1.77,1.77,0,0,0,34,62.05Z"/><path class="cls-1" d="M37.33,59.88h.22l.24,0L38,60l.15,0-.13.65-.29-.08a2.6,2.6,0,0,0-.53,0,2,2,0,0,0-.41,0l-.27.06v3.5h-.74v-4a6.53,6.53,0,0,1,.66-.18A4.63,4.63,0,0,1,37.33,59.88Z"/><path class="cls-1" d="M39.57,60h1.58v.62H39.57v1.92a2.47,2.47,0,0,0,0,.52.73.73,0,0,0,.15.32.45.45,0,0,0,.24.16,1,1,0,0,0,.33.05,1.54,1.54,0,0,0,.54-.08l.29-.1.14.61a2,2,0,0,1-.39.14,2.11,2.11,0,0,1-.64.09,2,2,0,0,1-.7-.11,1,1,0,0,1-.45-.33,1.22,1.22,0,0,1-.23-.53,3.17,3.17,0,0,1-.07-.73V58.81l.74-.13Z"/><path class="cls-1" d="M42.84,64.13h-.75V60h.75Zm-.38-4.91a.49.49,0,0,1-.34-.14.45.45,0,0,1-.14-.35.49.49,0,0,1,.14-.36.48.48,0,0,1,.34-.13.46.46,0,0,1,.48.49.42.42,0,0,1-.14.35A.46.46,0,0,1,42.46,59.22Z"/><path class="cls-1" d="M43.89,62.06a2.63,2.63,0,0,1,.16-1,1.87,1.87,0,0,1,.42-.68,1.77,1.77,0,0,1,.61-.41,1.9,1.9,0,0,1,.7-.14,1.61,1.61,0,0,1,1.29.53A2.39,2.39,0,0,1,47.52,62v.13s0,.09,0,.14H44.66a1.49,1.49,0,0,0,.38,1,1.35,1.35,0,0,0,1,.34,3,3,0,0,0,.66-.07,3.41,3.41,0,0,0,.41-.13l.1.62a2,2,0,0,1-.48.15,3,3,0,0,1-.77.08,2.47,2.47,0,0,1-.94-.16,1.8,1.8,0,0,1-.65-.45,1.78,1.78,0,0,1-.38-.69A2.93,2.93,0,0,1,43.89,62.06Zm2.85-.41a1.25,1.25,0,0,0-.25-.83.85.85,0,0,0-.72-.32,1,1,0,0,0-.78.36,1.07,1.07,0,0,0-.21.36,1.58,1.58,0,0,0-.1.43Z"/><path class="cls-1" d="M50.37,65.61H49.6l2.72-7.75h.74Z"/><path class="cls-1" d="M55.66,61.1V58.28h.84v2h1.75V57.6h.91v2.68h1.75v-2h.87V61.1H59.16v2.81h2v-2H62v3.06h-.84v-.31H55.37V61.88h.85v2h2V61.1Z"/><path class="cls-1" d="M63.59,65l-.15-.18c-.23-.28-.39-.45-.47-.54A4.48,4.48,0,0,0,65.56,60H63.22v-.84h2.4c0-.17,0-.44,0-.81a5.2,5.2,0,0,1,0-.78h.9q0,.52-.06,1.5v.09H70c-.06,1.6-.12,3-.19,4.09a1.37,1.37,0,0,1-1.56,1.53c-.46,0-1,0-1.59,0,0-.19-.08-.44-.16-.75a.66.66,0,0,1,0-.13Q67,64,68,64c.66,0,1-.32,1-1.09,0-.44.07-1.22.09-2.35,0-.25,0-.42,0-.53H66.47A5.28,5.28,0,0,1,63.59,65Z"/><path class="cls-1" d="M73.13,65.61h-.76l2.71-7.75h.75Z"/><path class="cls-1" d="M77.74,59.28v-.71h.71a8.68,8.68,0,0,0,.25-1l.72.1-.22.94h1.16v.71H79c-.07.3-.18.72-.35,1.29a5.17,5.17,0,0,1-.15.53h.62V59.91h.53V61.1h.56v.68h-.56v1a3.7,3.7,0,0,0,.63-.06,3.65,3.65,0,0,1,0,.38v.34l-.6.09V65h-.72V63.6l-1.15.15L77.7,63l.63-.09.59-.06V61.78H77.8v-.71c.06-.21.15-.55.28-1s.18-.62.22-.79ZM80.52,65V60.53h2.12v3.69c0,.46-.19.7-.62.72a3.58,3.58,0,0,1-.57,0,1.71,1.71,0,0,0-.06-.34c0-.15,0-.26-.06-.35a1.59,1.59,0,0,0,.37,0c.21,0,.32-.1.32-.29v-.56h-.88V65Zm2.81-.06c-.06-.31-.12-.55-.16-.72l.63,0c.31,0,.46-.11.44-.4V60.44h.65V64c0,.61-.24.91-.84.91Zm-.19-1.28V60.82h.56v2.84Zm-2-1.34v.59H82v-.59Zm0-1.16v.59H82v-.59Zm3.78-.94a1.8,1.8,0,0,0-.31-.15l-.69-.44V60h-2.5v-.37a10.08,10.08,0,0,1-1,.66,4.66,4.66,0,0,0-.43-.66,5.58,5.58,0,0,0,2.37-2.16l.85.07-.16.25a5,5,0,0,0,2.22,1.71C85.17,59.74,85.05,60,84.92,60.22Zm-2.25-1.84a5.53,5.53,0,0,1-1,1h2A7.55,7.55,0,0,1,82.67,58.38Z"/><path class="cls-1" d="M86.42,61.1V58.28h.85v2H89V57.6h.9v2.68h1.75v-2h.88V61.1H89.92v2.81h2v-2h.85v3.06H92v-.31H86.14V61.88H87v2h2V61.1Z"/><path class="cls-1" d="M278.29,49.3h.78v5.55h-.78Z"/><path class="cls-1" d="M280.4,50.81a6.54,6.54,0,0,1,.68-.14,5.58,5.58,0,0,1,1-.07,2.21,2.21,0,0,1,.83.14,1.21,1.21,0,0,1,.52.39,1.66,1.66,0,0,1,.28.6,3.81,3.81,0,0,1,.08.78v2.34H283V52.67A3.22,3.22,0,0,0,283,52a1.1,1.1,0,0,0-.17-.44.7.7,0,0,0-.32-.24,1.41,1.41,0,0,0-.5-.08h-.25l-.24,0-.21,0-.13,0v3.52h-.74Z"/><path class="cls-1" d="M288.65,52.77a3.07,3.07,0,0,1-.12.88,1.94,1.94,0,0,1-.37.68,1.5,1.5,0,0,1-.58.45,1.87,1.87,0,0,1-.8.16,2.11,2.11,0,0,1-.64-.09,2.32,2.32,0,0,1-.41-.19v1.67H285V50.81l.66-.14a5,5,0,0,1,.91-.07,2.41,2.41,0,0,1,.87.15,1.94,1.94,0,0,1,.65.43,1.74,1.74,0,0,1,.42.69A2.57,2.57,0,0,1,288.65,52.77Zm-.77,0a1.62,1.62,0,0,0-.36-1.12,1.24,1.24,0,0,0-1-.39,3.6,3.6,0,0,0-.53,0l-.3.05V54a1.71,1.71,0,0,0,.39.21,1.47,1.47,0,0,0,.56.11,1.15,1.15,0,0,0,.55-.12,1,1,0,0,0,.37-.32,1.3,1.3,0,0,0,.21-.48A2.25,2.25,0,0,0,287.88,52.77Z"/><path class="cls-1" d="M293,54.73l-.67.13a5.7,5.7,0,0,1-1,.07,1.91,1.91,0,0,1-.8-.14,1.25,1.25,0,0,1-.53-.39,1.65,1.65,0,0,1-.29-.61,3,3,0,0,1-.09-.77V50.69h.75v2.17a1.89,1.89,0,0,0,.24,1.09.93.93,0,0,0,.8.33h.25l.24,0,.21,0,.13,0V50.69H293Z"/><path class="cls-1" d="M295,50.69h1.57v.62H295v1.92a2,2,0,0,0,.05.52.86.86,0,0,0,.14.32.51.51,0,0,0,.24.16,1.16,1.16,0,0,0,.34.05,1.62,1.62,0,0,0,.54-.08,2.72,2.72,0,0,0,.28-.11l.14.62a2.52,2.52,0,0,1-.39.14,2.08,2.08,0,0,1-.64.08,2,2,0,0,1-.7-.1,1,1,0,0,1-.44-.33,1.36,1.36,0,0,1-.24-.53,3.85,3.85,0,0,1-.07-.73V49.53l.75-.13Z"/><path class="cls-1" d="M299.28,56.33h-.76l2.72-7.75H302Z"/><path class="cls-1" d="M304.32,54.85V49.3h3.39V50H305.1v1.64h2.32v.65H305.1v1.92h2.81v.67Z"/><path class="cls-1" d="M309.59,54.85h-.75V50.69h.75Zm-.38-4.92a.48.48,0,0,1-.34-.13.47.47,0,0,1-.14-.35.49.49,0,0,1,.14-.36.48.48,0,0,1,.34-.13.46.46,0,0,1,.48.49.43.43,0,0,1-.14.35A.45.45,0,0,1,309.21,49.93Z"/><path class="cls-1" d="M310.87,50.81a6.54,6.54,0,0,1,.68-.14,5.66,5.66,0,0,1,1-.07,2.21,2.21,0,0,1,.83.14,1.21,1.21,0,0,1,.52.39,1.66,1.66,0,0,1,.28.6,3.81,3.81,0,0,1,.08.78v2.34h-.75V52.67a3.22,3.22,0,0,0-.05-.66,1.1,1.1,0,0,0-.17-.44.7.7,0,0,0-.32-.24,1.41,1.41,0,0,0-.5-.08h-.24l-.25,0-.21,0-.13,0v3.52h-.74Z"/><path class="cls-1" d="M318.07,54.43a2.06,2.06,0,0,1-.37.16,1.85,1.85,0,0,1-.65.1,2.08,2.08,0,0,1-.71-.12,1.55,1.55,0,0,1-.58-.37,2,2,0,0,1-.39-.63,2.6,2.6,0,0,1-.14-.89,2.51,2.51,0,0,1,.13-.84,1.87,1.87,0,0,1,.4-.65,1.74,1.74,0,0,1,.64-.44,2.24,2.24,0,0,1,.84-.15,4.88,4.88,0,0,1,.91.07l.65.14v3.72a1.75,1.75,0,0,1-.49,1.39,2.23,2.23,0,0,1-1.51.43,4.35,4.35,0,0,1-.74-.06,5.1,5.1,0,0,1-.6-.16l.14-.64a3.67,3.67,0,0,0,.54.15,3,3,0,0,0,.68.07,1.47,1.47,0,0,0,1-.26,1.11,1.11,0,0,0,.29-.84Zm0-3.09-.3-.06a3.49,3.49,0,0,0-.51,0,1.12,1.12,0,0,0-.92.4,1.54,1.54,0,0,0-.33,1,1.59,1.59,0,0,0,.1.61,1.37,1.37,0,0,0,.24.43,1,1,0,0,0,.36.24,1,1,0,0,0,.42.08,1.63,1.63,0,0,0,.55-.08,1.42,1.42,0,0,0,.39-.2Z"/><path class="cls-1" d="M321.43,50.58a2,2,0,0,1,.75.12,1.29,1.29,0,0,1,.5.33,1.42,1.42,0,0,1,.27.5,2.61,2.61,0,0,1,.08.64v2.6l-.27,0-.39,0-.47,0a4.1,4.1,0,0,1-.5,0,2.7,2.7,0,0,1-.65-.07,1.48,1.48,0,0,1-.51-.23,1,1,0,0,1-.33-.41,1.41,1.41,0,0,1-.12-.61,1.16,1.16,0,0,1,.14-.6,1.21,1.21,0,0,1,.38-.4,1.77,1.77,0,0,1,.56-.22,2.87,2.87,0,0,1,.67-.07h.23l.23,0,.19,0,.11,0v-.21a1.47,1.47,0,0,0,0-.36,1,1,0,0,0-.14-.32.72.72,0,0,0-.29-.22,1,1,0,0,0-.47-.09,4,4,0,0,0-.64.05l-.41.11-.09-.61a2,2,0,0,1,.48-.13A4.15,4.15,0,0,1,321.43,50.58Zm.06,3.73H322a1.44,1.44,0,0,0,.34,0V53L322,53a2.76,2.76,0,0,0-.44,0l-.35,0a1.29,1.29,0,0,0-.35.1.75.75,0,0,0-.26.21.54.54,0,0,0-.1.35.59.59,0,0,0,.25.55A1.32,1.32,0,0,0,321.49,54.31Z"/><path class="cls-1" d="M324.26,50.81c.17-.05.4-.09.68-.14a5.66,5.66,0,0,1,1-.07,2.17,2.17,0,0,1,.83.14,1.21,1.21,0,0,1,.52.39,1.51,1.51,0,0,1,.28.6,3.81,3.81,0,0,1,.08.78v2.34h-.75V52.67a3.22,3.22,0,0,0-.05-.66,1.1,1.1,0,0,0-.17-.44.7.7,0,0,0-.32-.24,1.41,1.41,0,0,0-.5-.08h-.24l-.25,0-.21,0-.13,0v3.52h-.74Z"/><path class="cls-1" d="M331.46,54.43a2.06,2.06,0,0,1-.37.16,1.85,1.85,0,0,1-.65.1,2,2,0,0,1-.7-.12,1.41,1.41,0,0,1-.58-.37,1.84,1.84,0,0,1-.4-.63,2.6,2.6,0,0,1-.14-.89,2.51,2.51,0,0,1,.13-.84,2,2,0,0,1,.4-.65,1.83,1.83,0,0,1,.64-.44,2.24,2.24,0,0,1,.84-.15,4.88,4.88,0,0,1,.91.07l.66.14v3.72a1.76,1.76,0,0,1-.5,1.39,2.22,2.22,0,0,1-1.5.43,4.47,4.47,0,0,1-.75-.06,5.1,5.1,0,0,1-.6-.16l.14-.64a3.84,3.84,0,0,0,.55.15,2.93,2.93,0,0,0,.67.07,1.47,1.47,0,0,0,1-.26,1.11,1.11,0,0,0,.29-.84Zm0-3.09-.3-.06a3.3,3.3,0,0,0-.51,0,1.12,1.12,0,0,0-.92.4,1.54,1.54,0,0,0-.33,1,1.81,1.81,0,0,0,.1.61,1.22,1.22,0,0,0,.25.43.92.92,0,0,0,.35.24,1,1,0,0,0,.42.08,1.63,1.63,0,0,0,.55-.08,1.42,1.42,0,0,0,.39-.2Z"/><path class="cls-1" d="M335.25,56.33h-.76l2.71-7.75H338Z"/><path class="cls-1" d="M278.29,64.13V58.58h3.39v.67h-2.61V60.9h2.32v.64h-2.32v1.92h2.81v.67Z"/><path class="cls-1" d="M282.81,60.09c.17-.05.4-.09.68-.14a5.78,5.78,0,0,1,1-.07,2.16,2.16,0,0,1,.82.14,1.25,1.25,0,0,1,.53.39,1.48,1.48,0,0,1,.27.61,3.09,3.09,0,0,1,.08.77v2.34h-.74V62a4,4,0,0,0-.05-.65,1,1,0,0,0-.18-.44.61.61,0,0,0-.32-.25,1.37,1.37,0,0,0-.49-.07h-.25l-.24,0-.21,0-.13,0v3.51h-.75Z"/><path class="cls-1" d="M288.1,60h1.58v.62H288.1v1.92a2.47,2.47,0,0,0,0,.52.86.86,0,0,0,.14.32.54.54,0,0,0,.24.16,1.16,1.16,0,0,0,.34.05,1.62,1.62,0,0,0,.54-.08l.28-.1.15.61a2.15,2.15,0,0,1-.4.14,2.06,2.06,0,0,1-.64.09,2,2,0,0,1-.7-.11,1,1,0,0,1-.44-.33,1.36,1.36,0,0,1-.24-.53,3.91,3.91,0,0,1-.06-.73V58.81l.74-.13Z"/><path class="cls-1" d="M292.16,59.88h.22l.24,0,.22,0,.15,0-.13.65-.29-.08a2.6,2.6,0,0,0-.53,0,2,2,0,0,0-.41,0l-.27.06v3.5h-.74v-4a6.53,6.53,0,0,1,.66-.18A4.63,4.63,0,0,1,292.16,59.88Z"/><path class="cls-1" d="M293.48,62.06a2.63,2.63,0,0,1,.16-1,1.87,1.87,0,0,1,.42-.68,1.77,1.77,0,0,1,.61-.41,1.9,1.9,0,0,1,.7-.14,1.61,1.61,0,0,1,1.29.53,2.39,2.39,0,0,1,.45,1.59v.13a.66.66,0,0,1,0,.14h-2.85a1.49,1.49,0,0,0,.38,1,1.35,1.35,0,0,0,1,.34,3,3,0,0,0,.66-.07,3.41,3.41,0,0,0,.41-.13l.1.62a2,2,0,0,1-.48.15,3,3,0,0,1-.77.08,2.47,2.47,0,0,1-.94-.16,1.8,1.8,0,0,1-.65-.45,1.78,1.78,0,0,1-.38-.69A2.93,2.93,0,0,1,293.48,62.06Zm2.85-.41a1.25,1.25,0,0,0-.25-.83.85.85,0,0,0-.72-.32,1,1,0,0,0-.78.36,1.07,1.07,0,0,0-.21.36,1.58,1.58,0,0,0-.1.43Zm0-3.26-1.12,1.1-.38-.34,1-1.23Z"/><path class="cls-1" d="M298,62.06a2.63,2.63,0,0,1,.16-1,2,2,0,0,1,.42-.68,1.77,1.77,0,0,1,.61-.41,1.9,1.9,0,0,1,.7-.14,1.61,1.61,0,0,1,1.29.53,2.39,2.39,0,0,1,.45,1.59v.13a.66.66,0,0,1,0,.14h-2.85a1.54,1.54,0,0,0,.38,1,1.35,1.35,0,0,0,1,.34,2.89,2.89,0,0,0,.66-.07,3.41,3.41,0,0,0,.41-.13l.1.62a2,2,0,0,1-.47.15,3.12,3.12,0,0,1-.78.08,2.47,2.47,0,0,1-.94-.16,1.8,1.8,0,0,1-.65-.45,1.78,1.78,0,0,1-.38-.69A2.93,2.93,0,0,1,298,62.06Zm2.85-.41a1.19,1.19,0,0,0-.25-.83.84.84,0,0,0-.71-.32,1,1,0,0,0-.46.1.93.93,0,0,0-.33.26,1.07,1.07,0,0,0-.21.36,2.07,2.07,0,0,0-.1.43Z"/><path class="cls-1" d="M304.43,65.61h-.76l2.71-7.75h.74Z"/><path class="cls-1" d="M315.84,64.88a9.37,9.37,0,0,1-3-4.28l0,0a8.47,8.47,0,0,1-3.22,4.34,2.16,2.16,0,0,1-.16-.22l-.43-.56a7.48,7.48,0,0,0,3.25-4.63A5,5,0,0,0,311,58.07l.72-.47a8,8,0,0,1,1.93,2.84,7.69,7.69,0,0,0,2.91,3.66C316.33,64.32,316.09,64.59,315.84,64.88Z"/><path class="cls-1" d="M317.65,65l-.15-.18c-.23-.28-.39-.45-.47-.54A4.48,4.48,0,0,0,319.62,60h-2.34v-.84h2.41q0-.25,0-.81a7.08,7.08,0,0,1,0-.78h.9q0,.52-.06,1.5v.09h3.5c-.06,1.6-.12,3-.19,4.09a1.37,1.37,0,0,1-1.56,1.53c-.46,0-1,0-1.59,0a5.74,5.74,0,0,0-.16-.75.66.66,0,0,1,0-.13q.49,0,1.47,0c.67,0,1-.32,1-1.09,0-.44.07-1.22.09-2.35,0-.25,0-.42,0-.53h-2.59A5.28,5.28,0,0,1,317.65,65Z"/><path class="cls-1" d="M327.2,65.61h-.77l2.72-7.75h.74Z"/><path class="cls-1" d="M331.8,59.28v-.71h.72c.1-.36.18-.7.25-1l.72.1-.22.94h1.15v.71h-1.37c-.06.3-.18.72-.35,1.29a5.17,5.17,0,0,1-.15.53h.62V59.91h.53V61.1h.57v.68h-.57v1a3.7,3.7,0,0,0,.63-.06,3.65,3.65,0,0,1,0,.38v.34l-.6.09V65H333V63.6l-1.16.15-.06-.75.62-.09.6-.06V61.78h-1.13v-.71c.06-.21.16-.55.28-1s.18-.62.22-.79ZM334.58,65V60.53h2.12v3.69c0,.46-.18.7-.62.72a3.51,3.51,0,0,1-.56,0,1.32,1.32,0,0,0-.07-.34c0-.15,0-.26-.06-.35a1.62,1.62,0,0,0,.38,0c.2,0,.31-.1.31-.29v-.56h-.88V65Zm2.81-.06q-.09-.47-.15-.72l.62,0c.31,0,.46-.11.44-.4V60.44H339V64a.74.74,0,0,1-.84.91Zm-.19-1.28V60.82h.57v2.84Zm-2-1.34v.59h.88v-.59Zm0-1.16v.59h.88v-.59Zm3.79-.94a2.55,2.55,0,0,0-.32-.15l-.68-.44V60h-2.5v-.37c-.28.21-.6.43-1,.66a4.73,4.73,0,0,0-.44-.66,5.58,5.58,0,0,0,2.37-2.16l.85.07-.16.25a5,5,0,0,0,2.22,1.71C339.24,59.74,339.11,60,339,60.22Zm-2.25-1.84a6.28,6.28,0,0,1-1,1h2A6.53,6.53,0,0,1,336.74,58.38Z"/><path class="cls-1" d="M346.61,64.88a9.37,9.37,0,0,1-3-4.28l0,0a8.47,8.47,0,0,1-3.22,4.34,2.16,2.16,0,0,1-.16-.22l-.43-.56A7.48,7.48,0,0,0,343,59.5a5.13,5.13,0,0,0-1.22-1.43l.72-.47a8,8,0,0,1,1.93,2.84,7.69,7.69,0,0,0,2.91,3.66C347.1,64.32,346.86,64.59,346.61,64.88Z"/><path class="cls-1" d="M140.55,60.71,140,62.34l-.54,1.42c-.18.45-.35.88-.53,1.29s-.35.81-.53,1.21h-.73c-.18-.4-.35-.81-.53-1.21s-.35-.84-.53-1.29-.36-.92-.54-1.42-.38-1-.58-1.63h.86c.28.85.57,1.66.84,2.44s.57,1.5.86,2.19c.29-.68.58-1.41.86-2.19l.84-2.44Z"/><path class="cls-1" d="M144.56,63.53h.78v2.59a1.87,1.87,0,0,1-.28.07,3.32,3.32,0,0,1-.41.08l-.52.07a5.17,5.17,0,0,1-.57,0,2.78,2.78,0,0,1-1.06-.19,2.35,2.35,0,0,1-.82-.56,2.65,2.65,0,0,1-.54-.91,3.8,3.8,0,0,1-.18-1.23,3.37,3.37,0,0,1,.21-1.23,2.61,2.61,0,0,1,.57-.91,2.38,2.38,0,0,1,.84-.56,2.78,2.78,0,0,1,1-.19,4.55,4.55,0,0,1,.67,0,4.11,4.11,0,0,1,.5.12l.34.12.18.1-.25.65a1.9,1.9,0,0,0-.62-.25,2.88,2.88,0,0,0-.78-.1,1.92,1.92,0,0,0-.77.15,1.61,1.61,0,0,0-.59.44,1.89,1.89,0,0,0-.38.7,2.91,2.91,0,0,0-.14.92,3.28,3.28,0,0,0,.12.91,1.85,1.85,0,0,0,.35.7,1.71,1.71,0,0,0,.58.45,2.07,2.07,0,0,0,.82.16,3,3,0,0,0,.57,0,1.91,1.91,0,0,0,.34-.07Z"/><path class="cls-1" d="M150.26,66.26c-.09-.24-.18-.48-.26-.71l-.24-.71h-2.52l-.5,1.42h-.81c.22-.59.42-1.13.6-1.63s.37-1,.55-1.42.36-.88.53-1.28.36-.82.55-1.22h.72c.19.4.37.81.55,1.22s.35.83.53,1.28.36.92.55,1.42.38,1,.6,1.63Zm-.73-2.06q-.25-.69-.51-1.35c-.16-.43-.34-.85-.52-1.25-.19.4-.36.82-.53,1.25s-.34.89-.5,1.35Z"/><path class="cls-1" d="M154.36,62.1h1.57v.62h-1.57v1.92a2.55,2.55,0,0,0,0,.52.87.87,0,0,0,.15.32.45.45,0,0,0,.24.16,1.09,1.09,0,0,0,.33,0,1.54,1.54,0,0,0,.54-.08l.29-.1.14.61a1.76,1.76,0,0,1-.39.14,2.11,2.11,0,0,1-.64.09,2,2,0,0,1-.7-.11,1,1,0,0,1-.44-.33,1.13,1.13,0,0,1-.24-.53,3.17,3.17,0,0,1-.07-.73V60.94l.75-.13Z"/><path class="cls-1" d="M160.43,64.18a2.48,2.48,0,0,1-.14.89,1.89,1.89,0,0,1-1,1.14,2.13,2.13,0,0,1-1.57,0,1.87,1.87,0,0,1-.62-.45,2.14,2.14,0,0,1-.41-.69,2.72,2.72,0,0,1-.14-.89,2.77,2.77,0,0,1,.14-.89,2.31,2.31,0,0,1,.41-.7,1.71,1.71,0,0,1,.62-.44,2,2,0,0,1,1.57,0,1.8,1.8,0,0,1,.62.44,2.1,2.1,0,0,1,.4.7A2.52,2.52,0,0,1,160.43,64.18Zm-.77,0a1.82,1.82,0,0,0-.32-1.12,1,1,0,0,0-.86-.41,1,1,0,0,0-.86.41,1.81,1.81,0,0,0-.31,1.12,1.76,1.76,0,0,0,.31,1.11,1,1,0,0,0,.86.42,1,1,0,0,0,.86-.42A1.77,1.77,0,0,0,159.66,64.18Z"/><path class="cls-1" d="M166.87,60.71h.77v5.55h-.77V63.7h-2.72v2.56h-.77V60.71h.77V63h2.72Z"/><path class="cls-1" d="M173.57,63.48a3.17,3.17,0,0,1-.22,1.25,2.21,2.21,0,0,1-.64.88,2.45,2.45,0,0,1-1,.52,4.15,4.15,0,0,1-1.25.18l-.74,0a4.89,4.89,0,0,1-.73-.11V60.79a3.9,3.9,0,0,1,.73-.1l.74,0a4.15,4.15,0,0,1,1.25.17,2.59,2.59,0,0,1,1,.52,2.21,2.21,0,0,1,.64.88A3.17,3.17,0,0,1,173.57,63.48Zm-3,2.15a2,2,0,0,0,2.2-2.15,1.95,1.95,0,0,0-2.2-2.14h-.76V65.6l.26,0Z"/><path class="cls-1" d="M177.21,65.49c-.05-.13-.12-.29-.21-.49s-.18-.41-.29-.64l-.32-.71-.32-.68c-.11-.22-.2-.41-.29-.58l-.21-.4c-.06.63-.11,1.31-.14,2.05s-.07,1.47-.1,2.22h-.76c0-.48.05-1,.07-1.45s.06-1,.09-1.44.08-.94.12-1.39.08-.87.13-1.27h.68c.14.24.3.52.46.84s.33.65.5,1l.48,1.05c.15.35.29.67.42.95l.43-.95q.23-.52.48-1.05c.16-.35.33-.68.49-1s.32-.6.47-.84h.68c.18,1.79.31,3.64.4,5.55h-.76q0-1.12-.09-2.22c0-.74-.09-1.42-.15-2.05l-.21.4c-.09.17-.18.36-.28.58l-.33.68-.32.71c-.1.23-.2.44-.28.64l-.22.49Z"/><path class="cls-1" d="M181.69,60.71h.78v5.55h-.78Z"/><path class="cls-1" d="M188.07,66.38a3,3,0,0,1-1.06-.19,2.26,2.26,0,0,1-.82-.56,2.65,2.65,0,0,1-.54-.91,3.9,3.9,0,0,1-.18-1.24,3.37,3.37,0,0,1,.21-1.23,2.61,2.61,0,0,1,.57-.91,2.38,2.38,0,0,1,.84-.56,2.68,2.68,0,0,1,1-.19,3.87,3.87,0,0,1,.62,0,3.35,3.35,0,0,1,.48.12l.34.12.17.1-.22.64a1,1,0,0,0-.21-.1l-.31-.12-.37-.09-.42,0a2,2,0,0,0-.79.15,1.73,1.73,0,0,0-.6.44,2,2,0,0,0-.38.7,2.92,2.92,0,0,0-.13.92,3.28,3.28,0,0,0,.12.91,2,2,0,0,0,.34.7,1.71,1.71,0,0,0,.58.45,2.1,2.1,0,0,0,.82.16,3.1,3.1,0,0,0,.88-.11c.24-.08.41-.15.53-.2l.2.64a1.78,1.78,0,0,1-.2.1,2.66,2.66,0,0,1-.36.11,4.4,4.4,0,0,1-.5.1A5.9,5.9,0,0,1,188.07,66.38Z"/><path class="cls-1" d="M194.15,64.18a2.48,2.48,0,0,1-.14.89,2.12,2.12,0,0,1-.4.69,2,2,0,0,1-.62.45,2.06,2.06,0,0,1-.79.15,2,2,0,0,1-.78-.15,1.87,1.87,0,0,1-.62-.45,2,2,0,0,1-.41-.69,2.72,2.72,0,0,1-.14-.89,2.77,2.77,0,0,1,.14-.89,2.12,2.12,0,0,1,.41-.7,1.71,1.71,0,0,1,.62-.44,2,2,0,0,1,.78-.16,2.06,2.06,0,0,1,.79.16,1.8,1.8,0,0,1,.62.44,2.29,2.29,0,0,1,.4.7A2.52,2.52,0,0,1,194.15,64.18Zm-.77,0a1.82,1.82,0,0,0-.32-1.12,1.11,1.11,0,0,0-1.72,0,1.81,1.81,0,0,0-.31,1.12,1.76,1.76,0,0,0,.31,1.11,1.09,1.09,0,0,0,1.72,0A1.77,1.77,0,0,0,193.38,64.18Z"/><path class="cls-1" d="M195.2,62.22c.17,0,.4-.09.68-.14a5.7,5.7,0,0,1,1-.07,2.16,2.16,0,0,1,.82.14,1.16,1.16,0,0,1,.52.39,1.37,1.37,0,0,1,.28.61,3.09,3.09,0,0,1,.08.77v2.34h-.74V64.08a4,4,0,0,0,0-.65,1.24,1.24,0,0,0-.18-.45.65.65,0,0,0-.32-.24,1.41,1.41,0,0,0-.49-.07h-.25l-.24,0-.21,0-.13,0v3.51h-.75Z"/><path class="cls-1" d="M202.91,62.1a21.74,21.74,0,0,1-.73,2.24q-.42,1.06-.81,1.92h-.67c-.26-.57-.54-1.21-.81-1.92a21.76,21.76,0,0,1-.74-2.24h.8c.07.26.14.54.23.83s.18.59.28.88.2.58.3.85.2.51.29.73c.09-.22.19-.46.29-.73s.2-.56.3-.85.19-.58.28-.88.16-.57.23-.83Z"/><path class="cls-1" d="M203.34,64.19a2.63,2.63,0,0,1,.16-1,2,2,0,0,1,.42-.68,1.77,1.77,0,0,1,.61-.41,1.9,1.9,0,0,1,.7-.14,1.61,1.61,0,0,1,1.29.53,2.39,2.39,0,0,1,.45,1.59v.13a.66.66,0,0,1,0,.14h-2.85a1.54,1.54,0,0,0,.38,1,1.35,1.35,0,0,0,1,.34,2.89,2.89,0,0,0,.66-.07,3.41,3.41,0,0,0,.41-.13l.1.62a2,2,0,0,1-.47.15,3.12,3.12,0,0,1-.78.08,2.47,2.47,0,0,1-.94-.16,1.8,1.8,0,0,1-.65-.45,1.78,1.78,0,0,1-.38-.69A2.93,2.93,0,0,1,203.34,64.19Zm2.85-.41a1.19,1.19,0,0,0-.25-.83.84.84,0,0,0-.71-.32,1,1,0,0,0-.46.1,1,1,0,0,0-.33.25,1.23,1.23,0,0,0-.21.37,2.07,2.07,0,0,0-.1.43Z"/><path class="cls-1" d="M209.58,62h.22l.24,0,.22,0,.15,0-.13.65L210,62.7a2.55,2.55,0,0,0-.52,0,2,2,0,0,0-.42,0l-.26.06v3.5H208v-4q.27-.09.66-.18A4.63,4.63,0,0,1,209.58,62Z"/><path class="cls-1" d="M211.83,62.1h1.57v.62h-1.57v1.92a2.55,2.55,0,0,0,0,.52.87.87,0,0,0,.15.32.45.45,0,0,0,.24.16,1,1,0,0,0,.33,0,1.54,1.54,0,0,0,.54-.08l.29-.1.14.61a1.76,1.76,0,0,1-.39.14,2.11,2.11,0,0,1-.64.09,2,2,0,0,1-.7-.11,1,1,0,0,1-.44-.33,1.13,1.13,0,0,1-.24-.53,3.17,3.17,0,0,1-.07-.73V60.94l.75-.13Z"/><path class="cls-1" d="M214,64.19a2.86,2.86,0,0,1,.16-1,2,2,0,0,1,.43-.68,1.74,1.74,0,0,1,.6-.41,2,2,0,0,1,.71-.14,1.61,1.61,0,0,1,1.29.53,2.4,2.4,0,0,1,.44,1.59v.27h-2.85a1.54,1.54,0,0,0,.37,1,1.38,1.38,0,0,0,1,.34,3,3,0,0,0,.66-.07,3.14,3.14,0,0,0,.4-.13l.11.62a2,2,0,0,1-.48.15,3,3,0,0,1-.77.08,2.43,2.43,0,0,1-.94-.16,1.72,1.72,0,0,1-.65-.45,1.78,1.78,0,0,1-.38-.69A2.63,2.63,0,0,1,214,64.19Zm2.86-.41a1.3,1.3,0,0,0-.25-.83.88.88,0,0,0-.72-.32.93.93,0,0,0-.45.1,1,1,0,0,0-.33.25,1.51,1.51,0,0,0-.22.37,1.57,1.57,0,0,0-.09.43Z"/><path class="cls-1" d="M220.27,62h.22l.25,0,.22,0,.14,0-.12.65-.3-.08a2.49,2.49,0,0,0-.52,0,1.84,1.84,0,0,0-.41,0l-.27.06v3.5h-.74v-4a6.26,6.26,0,0,1,.65-.18A4.71,4.71,0,0,1,220.27,62Z"/><path class="cls-1" d="M226.1,66.38a3,3,0,0,1-1.06-.19,2.35,2.35,0,0,1-.82-.56,2.65,2.65,0,0,1-.54-.91,3.9,3.9,0,0,1-.18-1.24,3.37,3.37,0,0,1,.21-1.23,2.61,2.61,0,0,1,.57-.91,2.38,2.38,0,0,1,.84-.56,2.68,2.68,0,0,1,1-.19,3.87,3.87,0,0,1,.62,0,3.35,3.35,0,0,1,.48.12l.34.12.17.1-.22.64a1,1,0,0,0-.21-.1l-.31-.12-.37-.09-.42,0a2,2,0,0,0-.79.15,1.73,1.73,0,0,0-.6.44,2,2,0,0,0-.38.7,2.92,2.92,0,0,0-.13.92,3.28,3.28,0,0,0,.12.91,2,2,0,0,0,.34.7,1.71,1.71,0,0,0,.58.45,2.1,2.1,0,0,0,.82.16,3.1,3.1,0,0,0,.88-.11c.24-.08.41-.15.53-.2l.2.64a1.78,1.78,0,0,1-.2.1,2.66,2.66,0,0,1-.36.11,4.4,4.4,0,0,1-.5.1A5.9,5.9,0,0,1,226.1,66.38Z"/><path class="cls-1" d="M230,62a2.07,2.07,0,0,1,.75.12,1.29,1.29,0,0,1,.5.33,1.42,1.42,0,0,1,.27.5,2.63,2.63,0,0,1,.08.65v2.6l-.27,0-.39,0-.47,0-.5,0a2.69,2.69,0,0,1-.65-.08,1.46,1.46,0,0,1-.51-.22,1.14,1.14,0,0,1-.33-.42,1.41,1.41,0,0,1-.12-.61,1.1,1.1,0,0,1,.14-.59,1,1,0,0,1,.38-.4,1.57,1.57,0,0,1,.56-.23,2.87,2.87,0,0,1,.67-.07h.23l.23,0,.19,0,.11,0v-.2a2.21,2.21,0,0,0,0-.37.86.86,0,0,0-.15-.32.69.69,0,0,0-.28-.22,1.06,1.06,0,0,0-.47-.09,3,3,0,0,0-.64.06,2.44,2.44,0,0,0-.41.1l-.09-.61a1.72,1.72,0,0,1,.48-.13A4.07,4.07,0,0,1,230,62Zm.06,3.73h.47l.34,0V64.43a.94.94,0,0,0-.26-.07,2.76,2.76,0,0,0-.44,0l-.35,0a1.29,1.29,0,0,0-.35.1.75.75,0,0,0-.26.21.56.56,0,0,0-.1.35.61.61,0,0,0,.25.56A1.4,1.4,0,0,0,230,65.72Z"/><path class="cls-1" d="M233.55,62.28a2.12,2.12,0,0,1,1-.28,2,2,0,0,1,.8.16,1.71,1.71,0,0,1,.58.45,1.91,1.91,0,0,1,.37.69,3,3,0,0,1,.12.88,2.63,2.63,0,0,1-.15.91,1.84,1.84,0,0,1-1.07,1.11,2.41,2.41,0,0,1-.87.15,5.14,5.14,0,0,1-.92-.07c-.26,0-.48-.09-.65-.14v-6l.74-.13Zm0,3.33.32.06a3.49,3.49,0,0,0,.51,0,1.22,1.22,0,0,0,1-.4,1.6,1.6,0,0,0,.36-1.12,2.74,2.74,0,0,0-.07-.6,1.28,1.28,0,0,0-.21-.49,1,1,0,0,0-.37-.32,1.28,1.28,0,0,0-.55-.11,1.47,1.47,0,0,0-.56.1,1.38,1.38,0,0,0-.39.22Z"/><path class="cls-1" d="M238.77,66.34a1.41,1.41,0,0,1-1-.3,1.17,1.17,0,0,1-.29-.87v-5l.75-.13v5a1.26,1.26,0,0,0,0,.3.35.35,0,0,0,.3.3,1.05,1.05,0,0,0,.29.06Z"/><path class="cls-1" d="M239.47,64.19a2.63,2.63,0,0,1,.16-1,2,2,0,0,1,.43-.68,1.65,1.65,0,0,1,.6-.41,2,2,0,0,1,.71-.14,1.61,1.61,0,0,1,1.29.53,2.45,2.45,0,0,1,.44,1.59v.27h-2.85a1.49,1.49,0,0,0,.37,1,1.36,1.36,0,0,0,1,.34,3,3,0,0,0,.66-.07,3.14,3.14,0,0,0,.4-.13l.11.62a2.11,2.11,0,0,1-.48.15,3,3,0,0,1-.77.08,2.4,2.4,0,0,1-.94-.16,1.72,1.72,0,0,1-.65-.45,1.66,1.66,0,0,1-.38-.69A2.63,2.63,0,0,1,239.47,64.19Zm2.86-.41a1.3,1.3,0,0,0-.25-.83.88.88,0,0,0-.72-.32.93.93,0,0,0-.45.1,1,1,0,0,0-.33.25,1.07,1.07,0,0,0-.22.37,2.07,2.07,0,0,0-.1.43Z"/><path class="cls-1" d="M322.61,38H313v2.21h3.72a.74.74,0,1,1,0,1.48h-8.86a.74.74,0,0,1,0-1.48h3.66V38h-9.6a1.48,1.48,0,0,1-1.47-1.48V24a1.48,1.48,0,0,1,1.47-1.48h20.67A1.48,1.48,0,0,1,324.09,24V36.55A1.48,1.48,0,0,1,322.61,38ZM301.94,24V36.55h20.67V24Z"/><rect class="cls-1" x="334.07" y="31.72" width="9.04" height="1.43"/><rect class="cls-1" x="334.07" y="34.58" width="9.04" height="1.43"/><path class="cls-1" d="M350.25,28.86a2.86,2.86,0,1,0,2.86,2.86A2.86,2.86,0,0,0,350.25,28.86Zm0,4.29a1.43,1.43,0,1,1,1.43-1.43A1.42,1.42,0,0,1,350.25,33.15Z"/><path class="cls-1" d="M358.35,28.86h-3.16a5.71,5.71,0,0,0-9.88,0H332.64a1.43,1.43,0,0,0-1.43,1.43v8.57a1.43,1.43,0,0,0,1.43,1.43h1.43v1.43h2.85V40.29h17.14v1.43h2.86V40.29h1.43a1.43,1.43,0,0,0,1.42-1.43V30.29A1.43,1.43,0,0,0,358.35,28.86Zm-8.1-1.42A4.28,4.28,0,1,1,346,31.72,4.28,4.28,0,0,1,350.25,27.44Zm8.1,11.42H332.64V30.29h12.09a5.72,5.72,0,1,0,11,0h2.57Z"/><path class="cls-1" d="M291.67,24.34h-25A1.66,1.66,0,0,0,265,26V38.18a1.66,1.66,0,0,0,1.66,1.67h25a1.67,1.67,0,0,0,1.67-1.67V26A1.67,1.67,0,0,0,291.67,24.34Zm0,14h-25a.2.2,0,0,1-.19-.19V26a.2.2,0,0,1,.19-.19h25a.2.2,0,0,1,.2.19V38.18A.19.19,0,0,1,291.67,38.37Z"/><path class="cls-1" d="M283.6,40.24a.74.74,0,0,1,0,1.48h-8.86a.74.74,0,0,1,0-1.48Z"/><path class="cls-1" d="M95.65,32.24H93V27.82a.74.74,0,1,0-1.48,0v4.42H76.38a2.18,2.18,0,0,0-2.17,2.18v4.75a2.17,2.17,0,0,0,2.17,2.16H95.65a2.16,2.16,0,0,0,2.18-2.15h0V34.42a2.18,2.18,0,0,0-2.17-2.18Zm.7,6.93a.69.69,0,0,1-.69.69H76.38a.71.71,0,0,1-.7-.69V34.42a.7.7,0,0,1,.7-.7H95.65a.69.69,0,0,1,.7.68v4.77ZM86.92,23.8a.74.74,0,0,1,0-1.05h0a7.56,7.56,0,0,1,10.69,0h0a.72.72,0,0,1-.05,1,.74.74,0,0,1-1,0,6.07,6.07,0,0,0-8.6,0,.76.76,0,0,1-1,0h0Zm5.35-.25a4.12,4.12,0,0,1,2.93,1.22.74.74,0,1,1-1,1,2.68,2.68,0,0,0-3.78,0h0a.75.75,0,0,1-.53.22.82.82,0,0,1-.51-.22.74.74,0,0,1,0-1h0A4.17,4.17,0,0,1,92.27,23.55Zm-13,12.5v1.31a.74.74,0,0,1-1.47,0V36.05a.74.74,0,1,1,1.47,0Zm4.29,0v1.31a.74.74,0,0,1-1.48,0V36.05a.74.74,0,0,1,1.48,0Z"/><path class="cls-1" d="M64.43,23.42H47.69A1.67,1.67,0,0,0,46,25.09V37.26a1.66,1.66,0,0,0,1.67,1.66H64.43a1.66,1.66,0,0,0,1.67-1.66V25.09A1.67,1.67,0,0,0,64.43,23.42Zm0,14H47.69a.2.2,0,0,1-.2-.19V25.09a.2.2,0,0,1,.2-.19H64.43a.2.2,0,0,1,.19.19V37.26A.2.2,0,0,1,64.42,37.45Z"/><path class="cls-1" d="M65.85,38.86a1.24,1.24,0,0,1,0,2.47H46.27a1.24,1.24,0,1,1,0-2.47Z"/><path class="cls-1" d="M36.24,17.56H25.4a1.67,1.67,0,0,0-1.67,1.67V39.66a1.67,1.67,0,0,0,1.67,1.67H36.24a1.67,1.67,0,0,0,1.67-1.67V19.23A1.67,1.67,0,0,0,36.24,17.56Zm0,22.3H25.4a.19.19,0,0,1-.19-.2V19.23A.19.19,0,0,1,25.4,19H36.24a.2.2,0,0,1,.19.19V39.66A.2.2,0,0,1,36.23,39.86Z"/><rect class="cls-1" x="26.07" y="19.88" width="9.45" height="2.36" rx="0.54"/><rect class="cls-1" x="26.07" y="24.62" width="9.45" height="2.36" rx="0.54"/><rect class="cls-1" x="33.17" y="36.41" width="2.35" height="2.36" rx="0.54"/><path class="cls-1" d="M141.61,13.59h-4.39v.1l-.8-.27-1,1.27,1,1.26.8-.27v.11h4.39v.59h4.93a1.71,1.71,0,0,0,.59-.11l1-.37a1.7,1.7,0,0,1,.59-.1h1.16V13.61h-1.45v0l-1.32-.48a1.71,1.71,0,0,0-.59-.11h-4.93Zm-3.42.49h1.68v1.21h-1.68Zm-.47,1.21V14.08H138v1.21Zm-1.68-.6.55-.69.87.29v.79l-.87.3Zm5.57.6H140V14.08h1.59Z"/><path class="cls-1" d="M133.91,49.81v1.53a.38.38,0,0,0,.38.38h1.52a.38.38,0,0,0,.38-.38V49.81a.38.38,0,0,0-.38-.38h-1.52A.38.38,0,0,0,133.91,49.81Zm1.52.38V51h-.76v-.77Z"/><path class="cls-1" d="M133.91,46.76v1.53a.38.38,0,0,0,.38.38h1.52a.38.38,0,0,0,.38-.38V46.76a.38.38,0,0,0-.38-.38h-1.52A.38.38,0,0,0,133.91,46.76Zm1.52.39v.76h-.76v-.76Z"/><path class="cls-1" d="M146.86,53.24V51h.76a.38.38,0,1,0,.76,0h.77a.76.76,0,0,0,.75-.72V47.86a.75.75,0,0,0-.75-.71h-.77a.38.38,0,1,0-.76,0h-.76V44.86a.76.76,0,0,0-.76-.76h-7.62a.76.76,0,0,0-.76.76H132a.38.38,0,0,0-.38.38v7.62a.38.38,0,0,0,.38.38h5.72a.76.76,0,0,0,.76.76h7.62A.76.76,0,0,0,146.86,53.24Zm2.29-5.33h0v2.28h-.77V47.91Zm-1.53,2.28h-.76V47.91h.76Zm-15.24,2.29V45.62h5.34v6.86Zm6.1.76v-.38h0V45.24h0v-.38h7.62v8.38Z"/><rect class="cls-1" x="237.15" y="30.44" width="1.11" height="1.11"/><rect class="cls-1" x="237.15" y="32.65" width="1.11" height="1.11"/><path class="cls-1" d="M226.1,28.23V36a.55.55,0,0,0,.55.55h2.21a.55.55,0,0,0,.55-.55V28.23a.54.54,0,0,0-.55-.55h-2.21A.54.54,0,0,0,226.1,28.23Zm2.21.55v6.64H227.2V28.78Z"/><path class="cls-1" d="M225,34.86V29.33a.55.55,0,0,0-.55-.55h-2.21a.56.56,0,0,0-.56.55v5.53a.56.56,0,0,0,.56.56h2.21A.56.56,0,0,0,225,34.86Zm-2.21-.55V29.89h1.11v4.42Z"/><path class="cls-1" d="M230.52,28.23V36a.55.55,0,0,0,.55.55h2.21a.56.56,0,0,0,.56-.55V28.23a.55.55,0,0,0-.56-.55h-2.21A.55.55,0,0,0,230.52,28.23Zm2.21.55v6.64h-1.1V28.78Z"/><path class="cls-1" d="M222.06,26h-1.49a1.11,1.11,0,0,0-1.11,1.1v2.21h-1.1a.56.56,0,0,0-1.11,0h-1.1a1.1,1.1,0,0,0-1.09,1v3.46a1.09,1.09,0,0,0,1.09,1h1.1a.56.56,0,1,0,1.11,0h1.1v2.21a1.11,1.11,0,0,0,1.11,1.11h1.49l1.52,1a.56.56,0,0,0,.31.09h11.05a1.11,1.11,0,0,0,1.11-1.1v-.55h4.42a1.11,1.11,0,0,0,1.11-1.11V27.68a1.11,1.11,0,0,0-1.11-1.11h-4.42V26a1.11,1.11,0,0,0-1.11-1.11H223.89a.5.5,0,0,0-.31.1Zm-5.91,7.74V30.44h1.1v3.32Zm2.21,0V30.44h1.1v3.32Zm22.11,1.66v1.1h-4.42v-1.1Zm-4.42-5.53h4.42v4.42h-4.42V29.89Zm4.42-2.21v1.1h-4.42v-1.1ZM234.94,26V38.18H224.05l-1.52-1a.54.54,0,0,0-.3-.1h-1.66V27.12h1.66a.53.53,0,0,0,.3-.09l1.52-1Z"/><rect class="cls-1" x="127.25" y="34.16" width="1.41" height="1.41"/><rect class="cls-1" x="127.25" y="31.1" width="1.41" height="1.41"/><rect class="cls-1" x="127.25" y="28.04" width="1.41" height="1.41"/><path class="cls-1" d="M130.32,41.47a.58.58,0,0,1-.58-.57V38.53h-4.15A.58.58,0,0,1,125,38V25.66a.58.58,0,0,1,.58-.58h4.15V22.72a.58.58,0,0,1,.58-.58h2.27a.58.58,0,0,1,.58.58v.43h16.15a.58.58,0,0,1,.58.58v2.6a.58.58,0,0,1-.58.58h-3.21v1.95h3.21a.58.58,0,0,1,.58.58v4.73a.58.58,0,0,1-.58.58h-3.21v2h3.21a.58.58,0,0,1,.58.58v2.6a.58.58,0,0,1-.58.58H133.17v.44a.58.58,0,0,1-.58.57Zm.57-1.15H132v-17h-1.12Zm15.22-1h2.63V37.86h-2.63Zm-12.94,0H145v-15H133.17Zm-7-1.93h3.58V26.24h-3.58Zm20-3.78h2.63V30h-2.63Zm0-7.84h2.63V24.31h-2.63Z"/><path class="cls-1" d="M135.41,36.19a.58.58,0,0,1-.58-.58V28a.58.58,0,0,1,.58-.58h4.47a.58.58,0,0,1,.58.58v7.61a.58.58,0,0,1-.58.58ZM136,35h3.31V28.57H136Z"/><path class="cls-1" d="M142.44,36a.58.58,0,0,1-.58-.58V28A.58.58,0,1,1,143,28v7.4A.58.58,0,0,1,142.44,36Z"/><line class="cls-2" x1="148.75" y1="31.88" x2="216.15" y2="31.88"/><path class="cls-3" d="M149.49,14.74h28.34a5.64,5.64,0,0,1,5.64,5.64v3.83a5.64,5.64,0,0,1-5.64,5.64H149"/><path class="cls-3" d="M149.49,49h28.34a5.64,5.64,0,0,0,5.64-5.65V39.55a5.63,5.63,0,0,0-5.64-5.64H149"/><rect class="cls-4" width="383.51" height="79.38"/></g></g></svg>